<?xml version="1.0" encoding="UTF-8"?>
<svg width="344px" height="218px" viewBox="0 0 344 218" version="1.1" xmlns="http://www.w3.org/2000/svg" xmlns:xlink="http://www.w3.org/1999/xlink">
    <defs>
        <path d="M13.5926387,8.91607124 L47.2130678,14.5436679 C49.5193055,16.4996806 50.8620042,21.429269 51.2411637,29.3324332 C51.6057136,36.9310765 48.7553731,44.0834921 42.6901421,50.7896799 C42.2352742,51.2926281 41.5565345,51.5308182 40.887123,51.4224202 L25.0254834,48.8539398 C19.167364,47.9053326 15.187418,42.3873905 16.1360252,36.5292711 C16.2292969,35.9532716 16.3693317,35.3858266 16.5547692,34.8325744 C17.4226768,32.2427273 17.903415,29.3747786 17.996984,26.2287285 C18.2589668,17.4201301 16.7908517,11.6492443 13.5926387,8.91607124 Z" id="path-1"></path>
        <filter x="-23.2%" y="-26.9%" width="159.1%" height="172.3%" filterUnits="objectBoundingBox" id="filter-2">
            <feOffset dx="0" dy="4" in="SourceAlpha" result="shadowOffsetOuter1"></feOffset>
            <feGaussianBlur stdDeviation="4.5" in="shadowOffsetOuter1" result="shadowBlurOuter1"></feGaussianBlur>
            <feColorMatrix values="0 0 0 0 0   0 0 0 0 0   0 0 0 0 0  0 0 0 0.25 0" type="matrix" in="shadowBlurOuter1"></feColorMatrix>
        </filter>
        <path d="M26.0573651,11.6701864 L52.5783341,23.6219807 L52.5783341,23.6219807 C53.1514164,24.0960375 53.6363303,24.7223944 54.0330758,25.5010514 C54.4298214,26.2797084 54.4145649,27.3400757 53.9873063,28.6821532 L21.3010577,20.204065 C25.2668383,20.3112707 26.6241054,18.5136435 25.3728592,14.8111835 C25.1337532,14.1036645 24.9125682,13.4768452 24.7093042,12.9307255 C24.5166295,12.4131257 24.7800585,11.8373458 25.2976668,11.6446937 C25.5443839,11.5528664 25.8173588,11.5620265 26.0573651,11.6701864 Z" id="path-3"></path>
        <filter x="-22.7%" y="-27.4%" width="133.3%" height="151.7%" filterUnits="objectBoundingBox" id="filter-4">
            <feOffset dx="-2" dy="-1" in="SourceAlpha" result="shadowOffsetOuter1"></feOffset>
            <feGaussianBlur stdDeviation="1.5" in="shadowOffsetOuter1" result="shadowBlurOuter1"></feGaussianBlur>
            <feColorMatrix values="0 0 0 0 0   0 0 0 0 0   0 0 0 0 0  0 0 0 0.15 0" type="matrix" in="shadowBlurOuter1"></feColorMatrix>
        </filter>
        <path d="M4.13901493,0.635107775 L41.8204815,0.635107775 C42.4511148,0.635107775 42.9623441,1.14953088 42.9623441,1.78410393 L42.9623441,55.7869232 C42.9623441,56.4214963 42.4511148,56.9359194 41.8204815,56.9359194 L4.13901493,56.9359194 C3.50838161,56.9359194 2.99715231,56.4214963 2.99715231,55.7869232 L2.99715231,1.78410393 C2.99715231,1.14953088 3.50838161,0.635107775 4.13901493,0.635107775 Z" id="path-5"></path>
        <filter x="-18.8%" y="-8.0%" width="137.5%" height="126.6%" filterUnits="objectBoundingBox" id="filter-6">
            <feOffset dx="0" dy="3" in="SourceAlpha" result="shadowOffsetOuter1"></feOffset>
            <feGaussianBlur stdDeviation="2" in="shadowOffsetOuter1" result="shadowBlurOuter1"></feGaussianBlur>
            <feColorMatrix values="0 0 0 0 0   0 0 0 0 0   0 0 0 0 0  0 0 0 0.25 0" type="matrix" in="shadowBlurOuter1"></feColorMatrix>
        </filter>
        <path d="M3.00616392,2.01701734 L40.6876305,2.01701734 C41.3182638,2.01701734 41.8294931,2.53144044 41.8294931,3.16601349 L41.8294931,57.1688328 C41.8294931,57.8034058 41.3182638,58.3178289 40.6876305,58.3178289 L3.00616392,58.3178289 C2.3755306,58.3178289 1.86430129,57.8034058 1.86430129,57.1688328 L1.86430129,3.16601349 C1.86430129,2.53144044 2.3755306,2.01701734 3.00616392,2.01701734 Z" id="path-7"></path>
        <filter x="-38.8%" y="-20.4%" width="177.6%" height="155.1%" filterUnits="objectBoundingBox" id="filter-9">
            <feOffset dx="0" dy="4" in="SourceAlpha" result="shadowOffsetOuter1"></feOffset>
            <feGaussianBlur stdDeviation="4.5" in="shadowOffsetOuter1" result="shadowBlurOuter1"></feGaussianBlur>
            <feColorMatrix values="0 0 0 0 0   0 0 0 0 0   0 0 0 0 0  0 0 0 0.25 0" type="matrix" in="shadowBlurOuter1"></feColorMatrix>
        </filter>
        <linearGradient x1="50%" y1="1.00031672%" x2="50%" y2="99.3243243%" id="linearGradient-10">
            <stop stop-color="#FFFFFF" stop-opacity="0" offset="0%"></stop>
            <stop stop-color="#F1F2F5" offset="100%"></stop>
        </linearGradient>
        <path d="M146.862975,85.9770115 L180.685399,85.9770115 C181.237699,85.9769831 181.685427,86.4247111 181.685427,86.9770115 C181.685427,87.1405019 181.645344,87.3014989 181.568686,87.4459038 C177.538433,95.0379931 175.523306,102.896632 175.523306,111.021819 C175.523306,119.115352 177.522762,126.772918 181.521674,133.994518 C181.789193,134.477673 181.614409,135.086221 181.131265,135.353759 C180.983006,135.435856 180.816315,135.478927 180.646844,135.478927 L146.794844,135.478927 C146.447249,135.478932 146.124589,135.298433 145.942692,135.002231 C141.572213,127.885308 139.386973,120.291909 139.386973,112.222035 C139.386973,104.139527 141.57906,95.5790506 145.963235,86.5406058 C146.130418,86.1958925 146.479859,85.9770115 146.862975,85.9770115 Z" id="path-11"></path>
        <filter x="-27.9%" y="-16.2%" width="144.9%" height="140.4%" filterUnits="objectBoundingBox" id="filter-12">
            <feOffset dx="-2" dy="2" in="SourceAlpha" result="shadowOffsetOuter1"></feOffset>
            <feGaussianBlur stdDeviation="3" in="shadowOffsetOuter1" result="shadowBlurOuter1"></feGaussianBlur>
            <feColorMatrix values="0 0 0 0 0   0 0 0 0 0   0 0 0 0 0  0 0 0 0.25 0" type="matrix" in="shadowBlurOuter1"></feColorMatrix>
        </filter>
        <path d="M7.42035029,0 L79.0566452,0 C82.2472608,0 84.8337658,2.57437522 84.8337658,5.75002798 C84.8337658,9.35976777 84.8337658,11.9951973 84.8337658,13.6563165 C84.8337658,24.5174804 84.8337658,40.6654757 84.8337658,62.1003022 C84.8337658,65.2759549 82.2472608,67.8503302 79.0566452,67.8503302 L7.42035029,67.8503302 C4.22973471,67.8503302 1.64322973,65.2759549 1.64322973,62.1003022 C1.64322973,40.4738081 1.64322973,24.3258128 1.64322973,13.6563165 C1.64322973,11.8035297 1.64322973,9.16810017 1.64322973,5.75002798 C1.64322973,2.57437522 4.22973471,0 7.42035029,0 Z" id="path-13"></path>
        <filter x="-18.6%" y="-16.9%" width="137.3%" height="145.7%" filterUnits="objectBoundingBox" id="filter-14">
            <feOffset dx="0" dy="4" in="SourceAlpha" result="shadowOffsetOuter1"></feOffset>
            <feGaussianBlur stdDeviation="4.5" in="shadowOffsetOuter1" result="shadowBlurOuter1"></feGaussianBlur>
            <feColorMatrix values="0 0 0 0 0   0 0 0 0 0   0 0 0 0 0  0 0 0 0.25 0" type="matrix" in="shadowBlurOuter1"></feColorMatrix>
        </filter>
        <path d="M5.77712056,0 L77.4134155,0 C80.6040311,0 83.1905361,2.57437522 83.1905361,5.75002798 C83.1905361,9.35976777 83.1905361,11.9951973 83.1905361,13.6563165 C83.1905361,24.5174804 83.1905361,40.6654757 83.1905361,62.1003022 C83.1905361,65.2759549 80.6040311,67.8503302 77.4134155,67.8503302 L5.77712056,67.8503302 C2.58650498,67.8503302 0,65.2759549 0,62.1003022 C0,40.4738081 0,24.3258128 0,13.6563165 C0,11.8035297 0,9.16810017 0,5.75002798 C0,2.57437522 2.58650498,0 5.77712056,0 Z" id="path-15"></path>
        <filter x="-18.6%" y="-16.9%" width="137.3%" height="145.7%" filterUnits="objectBoundingBox" id="filter-16">
            <feOffset dx="0" dy="4" in="SourceAlpha" result="shadowOffsetOuter1"></feOffset>
            <feGaussianBlur stdDeviation="4.5" in="shadowOffsetOuter1" result="shadowBlurOuter1"></feGaussianBlur>
            <feColorMatrix values="0 0 0 0 0   0 0 0 0 0   0 0 0 0 0  0 0 0 0.25 0" type="matrix" in="shadowBlurOuter1"></feColorMatrix>
        </filter>
        <path d="M11.2466321,0.592133766 L45.976268,0.592133766 C47.4519277,0.592133766 48.6481863,1.78341328 48.6481863,3.25293103 L48.6481863,60.4600721 C48.6481863,61.9295899 47.4519277,63.1208694 45.976268,63.1208694 L5.89749414,63.1208694 C4.42183443,63.1208694 3.22557588,61.9295899 3.22557588,60.4600721 L3.22557588,7.6811474 L11.2466321,0.592133766 Z" id="path-17"></path>
        <filter x="-34.1%" y="-18.4%" width="168.2%" height="149.6%" filterUnits="objectBoundingBox" id="filter-18">
            <feOffset dx="0" dy="4" in="SourceAlpha" result="shadowOffsetOuter1"></feOffset>
            <feGaussianBlur stdDeviation="4.5" in="shadowOffsetOuter1" result="shadowBlurOuter1"></feGaussianBlur>
            <feColorMatrix values="0 0 0 0 0   0 0 0 0 0   0 0 0 0 0  0 0 0 0.25 0" type="matrix" in="shadowBlurOuter1"></feColorMatrix>
        </filter>
        <path d="M9.66872474,1.48945572 L44.3983607,1.48945572 C45.8740204,1.48945572 47.0702789,2.68073523 47.0702789,4.15025298 L47.0702789,61.3573941 C47.0702789,62.8269118 45.8740204,64.0181914 44.3983607,64.0181914 L4.31958679,64.0181914 C2.84392709,64.0181914 1.64766854,62.8269118 1.64766854,61.3573941 L1.64766854,8.57846935 L9.66872474,1.48945572 Z" id="path-19"></path>
        <filter x="-34.1%" y="-18.4%" width="168.2%" height="149.6%" filterUnits="objectBoundingBox" id="filter-20">
            <feOffset dx="0" dy="4" in="SourceAlpha" result="shadowOffsetOuter1"></feOffset>
            <feGaussianBlur stdDeviation="4.5" in="shadowOffsetOuter1" result="shadowBlurOuter1"></feGaussianBlur>
            <feColorMatrix values="0 0 0 0 0   0 0 0 0 0   0 0 0 0 0  0 0 0 0.25 0" type="matrix" in="shadowBlurOuter1"></feColorMatrix>
        </filter>
        <path d="M9.02871764,5.20618098 L14.6096163,10.0575822 L14.6096163,10.0575822 L1.80250646,10.1010418 L6.25733792,5.34791765 C6.99277318,4.5632381 8.21706722,4.50062403 9.02871764,5.20618098 Z" id="path-21"></path>
        <filter x="-15.6%" y="-36.2%" width="131.2%" height="152.4%" filterUnits="objectBoundingBox" id="filter-22">
            <feOffset dx="0" dy="-1" in="SourceAlpha" result="shadowOffsetOuter1"></feOffset>
            <feGaussianBlur stdDeviation="0.5" in="shadowOffsetOuter1" result="shadowBlurOuter1"></feGaussianBlur>
            <feColorMatrix values="0 0 0 0 0   0 0 0 0 0   0 0 0 0 0  0 0 0 0.17 0" type="matrix" in="shadowBlurOuter1"></feColorMatrix>
        </filter>
        <path d="M5.67273009,0.870447449 L57.317093,0.870447449 C58.181408,0.870447449 58.8820737,1.57549042 58.8820737,2.44520501 L58.8820737,76.4588105 C58.8820737,77.328525 58.181408,78.033568 57.317093,78.033568 L5.67273009,78.033568 C4.80841512,78.033568 4.10774939,77.328525 4.10774939,76.4588105 L4.10774939,2.44520501 C4.10774939,1.57549042 4.80841512,0.870447449 5.67273009,0.870447449 Z" id="path-23"></path>
        <filter x="-13.7%" y="-5.8%" width="127.4%" height="119.4%" filterUnits="objectBoundingBox" id="filter-24">
            <feOffset dx="0" dy="3" in="SourceAlpha" result="shadowOffsetOuter1"></feOffset>
            <feGaussianBlur stdDeviation="2" in="shadowOffsetOuter1" result="shadowBlurOuter1"></feGaussianBlur>
            <feColorMatrix values="0 0 0 0 0   0 0 0 0 0   0 0 0 0 0  0 0 0 0.25 0" type="matrix" in="shadowBlurOuter1"></feColorMatrix>
        </filter>
        <path d="M4.12010027,2.76442466 L55.7644632,2.76442466 C56.6287782,2.76442466 57.3294439,3.46946763 57.3294439,4.33918222 L57.3294439,78.3527877 C57.3294439,79.2225022 56.6287782,79.9275452 55.7644632,79.9275452 L4.12010027,79.9275452 C3.25578529,79.9275452 2.55511957,79.2225022 2.55511957,78.3527877 L2.55511957,4.33918222 C2.55511957,3.46946763 3.25578529,2.76442466 4.12010027,2.76442466 Z" id="path-25"></path>
        <filter x="-28.3%" y="-14.9%" width="156.6%" height="140.2%" filterUnits="objectBoundingBox" id="filter-27">
            <feOffset dx="0" dy="4" in="SourceAlpha" result="shadowOffsetOuter1"></feOffset>
            <feGaussianBlur stdDeviation="4.5" in="shadowOffsetOuter1" result="shadowBlurOuter1"></feGaussianBlur>
            <feColorMatrix values="0 0 0 0 0   0 0 0 0 0   0 0 0 0 0  0 0 0 0.25 0" type="matrix" in="shadowBlurOuter1"></feColorMatrix>
        </filter>
        <linearGradient x1="50%" y1="1.00031672%" x2="50%" y2="99.3243243%" id="linearGradient-28">
            <stop stop-color="#FFFFFF" stop-opacity="0" offset="0%"></stop>
            <stop stop-color="#F1F2F5" offset="100%"></stop>
        </linearGradient>
        <path d="M8.68373434,0 L91.5132004,0 C95.2023497,0 98.192996,2.97819878 98.192996,6.65199315 C98.192996,10.8279666 98.192996,13.8767968 98.192996,15.7984837 C98.192996,28.3633597 98.192996,47.0443738 98.192996,71.841526 C98.192996,75.5153204 95.2023497,78.4935192 91.5132004,78.4935192 L8.68373434,78.4935192 C4.99458507,78.4935192 2.00393869,75.5153204 2.00393869,71.841526 C2.00393869,46.8226407 2.00393869,28.1416266 2.00393869,15.7984837 C2.00393869,13.6550637 2.00393869,10.6062335 2.00393869,6.65199315 C2.00393869,2.97819878 4.99458507,0 8.68373434,0 Z" id="path-29"></path>
        <filter x="-16.1%" y="-14.7%" width="132.2%" height="139.5%" filterUnits="objectBoundingBox" id="filter-30">
            <feOffset dx="0" dy="4" in="SourceAlpha" result="shadowOffsetOuter1"></feOffset>
            <feGaussianBlur stdDeviation="4.5" in="shadowOffsetOuter1" result="shadowBlurOuter1"></feGaussianBlur>
            <feColorMatrix values="0 0 0 0 0   0 0 0 0 0   0 0 0 0 0  0 0 0 0.25 0" type="matrix" in="shadowBlurOuter1"></feColorMatrix>
        </filter>
        <path d="M6.67979565,0 L89.5092617,0 C93.198411,0 96.1890573,2.97819878 96.1890573,6.65199315 C96.1890573,10.8279666 96.1890573,13.8767968 96.1890573,15.7984837 C96.1890573,28.3633597 96.1890573,47.0443738 96.1890573,71.841526 C96.1890573,75.5153204 93.198411,78.4935192 89.5092617,78.4935192 L6.67979565,78.4935192 C2.99064638,78.4935192 0,75.5153204 0,71.841526 C0,46.8226407 0,28.1416266 0,15.7984837 C0,13.6550637 0,10.6062335 0,6.65199315 C0,2.97819878 2.99064638,0 6.67979565,0 Z" id="path-31"></path>
        <filter x="-16.1%" y="-14.7%" width="132.2%" height="139.5%" filterUnits="objectBoundingBox" id="filter-32">
            <feOffset dx="0" dy="4" in="SourceAlpha" result="shadowOffsetOuter1"></feOffset>
            <feGaussianBlur stdDeviation="4.5" in="shadowOffsetOuter1" result="shadowBlurOuter1"></feGaussianBlur>
            <feColorMatrix values="0 0 0 0 0   0 0 0 0 0   0 0 0 0 0  0 0 0 0.25 0" type="matrix" in="shadowBlurOuter1"></feColorMatrix>
        </filter>
        <path d="M23.3625894,9.11877395 L65.3834083,9.11877395 C65.935682,9.11879407 66.3833882,9.56650031 66.3833882,10.1187739 C66.3833882,10.2824483 66.3432123,10.4436207 66.2663868,10.5881445 C61.1971906,20.1243005 58.6625924,29.9997562 58.6625924,40.2145116 C58.6625924,50.3971728 61.1812884,60.0240368 66.2186805,69.0951036 C66.4867697,69.5779346 66.3127247,70.1866865 65.8299102,70.4548056 C65.6813949,70.5372799 65.5143166,70.5805585 65.3444377,70.5805585 L23.2944375,70.5805585 C22.9457127,70.5805436 22.6221749,70.3988752 22.4406363,70.1011292 C17.0332134,61.2322786 14.3295019,51.7668036 14.3295019,41.7047044 C14.3295019,31.6297272 17.0401385,20.9565976 22.4614115,9.68531559 C22.627993,9.33899923 22.9782921,9.11877395 23.3625894,9.11877395 Z" id="path-33"></path>
        <filter x="-22.8%" y="-13.0%" width="136.6%" height="132.5%" filterUnits="objectBoundingBox" id="filter-34">
            <feOffset dx="-2" dy="2" in="SourceAlpha" result="shadowOffsetOuter1"></feOffset>
            <feGaussianBlur stdDeviation="3" in="shadowOffsetOuter1" result="shadowBlurOuter1"></feGaussianBlur>
            <feColorMatrix values="0 0 0 0 0   0 0 0 0 0   0 0 0 0 0  0 0 0 0.25 0" type="matrix" in="shadowBlurOuter1"></feColorMatrix>
        </filter>
        <path d="M23.3625894,9.11877395 L65.3834083,9.11877395 C65.935682,9.11879407 66.3833882,9.56650031 66.3833882,10.1187739 C66.3833882,10.2824483 66.3432123,10.4436207 66.2663868,10.5881445 C61.1971906,20.1243005 58.6625924,29.9997562 58.6625924,40.2145116 C58.6625924,50.3971728 61.1812884,60.0240368 66.2186805,69.0951036 C66.4867697,69.5779346 66.3127247,70.1866865 65.8299102,70.4548056 C65.6813949,70.5372799 65.5143166,70.5805585 65.3444377,70.5805585 L23.2944375,70.5805585 C22.9457127,70.5805436 22.6221749,70.3988752 22.4406363,70.1011292 C17.0332134,61.2322786 14.3295019,51.7668036 14.3295019,41.7047044 C14.3295019,31.6297272 17.0401385,20.9565976 22.4614115,9.68531559 C22.627993,9.33899923 22.9782921,9.11877395 23.3625894,9.11877395 Z" id="path-35"></path>
        <filter x="-22.8%" y="-13.0%" width="136.6%" height="132.5%" filterUnits="objectBoundingBox" id="filter-36">
            <feOffset dx="-2" dy="2" in="SourceAlpha" result="shadowOffsetOuter1"></feOffset>
            <feGaussianBlur stdDeviation="3" in="shadowOffsetOuter1" result="shadowBlurOuter1"></feGaussianBlur>
            <feColorMatrix values="0 0 0 0 0   0 0 0 0 0   0 0 0 0 0  0 0 0 0.25 0" type="matrix" in="shadowBlurOuter1"></feColorMatrix>
        </filter>
        <path d="M20.3889581,13.3741069 L70.8196017,21.8155019 C74.2789583,24.7495209 76.2930062,32.1439036 76.8617455,43.9986498 C77.4160948,55.5534546 73.0144815,66.4203704 63.6569056,76.5993971 C63.2018631,77.0943844 62.5285541,77.3276017 61.8648336,77.2201252 L14.4796365,69.5470249 C13.9344561,69.4587396 13.5640657,68.9452169 13.6523471,68.4000358 C13.6919689,68.1553515 13.8210529,67.9341024 14.0145626,67.7792014 C22.3019837,61.1452667 26.6289548,51.6665638 26.9954759,39.3430928 C27.3884501,26.1301951 25.1862775,17.4738665 20.3889581,13.3741069 Z" id="path-37"></path>
        <filter x="-21.7%" y="-18.0%" width="145.6%" height="148.2%" filterUnits="objectBoundingBox" id="filter-38">
            <feOffset dx="0" dy="4" in="SourceAlpha" result="shadowOffsetOuter1"></feOffset>
            <feGaussianBlur stdDeviation="4.5" in="shadowOffsetOuter1" result="shadowBlurOuter1"></feGaussianBlur>
            <feColorMatrix values="0 0 0 0 0   0 0 0 0 0   0 0 0 0 0  0 0 0 0.25 0" type="matrix" in="shadowBlurOuter1"></feColorMatrix>
        </filter>
        <path d="M41.8705463,18.7601264 L78.8675012,35.432971 L78.8675012,35.432971 C79.7271246,36.1440562 80.4544954,37.0835916 81.0496137,38.2515771 C81.6447321,39.4195626 81.6218473,41.0101135 80.9809594,43.0232298 L31.9515866,30.3060975 C37.9002574,30.466906 39.9361582,27.7704653 38.0592888,22.2167753 C38.0592888,22.2167753 38.0592888,22.2167753 38.0592888,22.2167753 C37.5631185,20.7485985 38.3510854,19.1561805 39.8192622,18.6600102 C40.4911093,18.4329595 41.224009,18.4687161 41.8705463,18.7601264 Z" id="path-39"></path>
        <filter x="-15.1%" y="-11.6%" width="122.2%" height="127.8%" filterUnits="objectBoundingBox" id="filter-40">
            <feOffset dx="-2" dy="-1" in="SourceAlpha" result="shadowOffsetOuter1"></feOffset>
            <feGaussianBlur stdDeviation="1.5" in="shadowOffsetOuter1" result="shadowBlurOuter1"></feGaussianBlur>
            <feColorMatrix values="0 0 0 0 0   0 0 0 0 0   0 0 0 0 0  0 0 0 0.15 0" type="matrix" in="shadowBlurOuter1"></feColorMatrix>
        </filter>
    </defs>
    <g id="In-App-generic-empty-states" stroke="none" stroke-width="1" fill="none" fill-rule="evenodd" opacity="0.5">
        <g id="Generic-Empty-State_Too-much-data-" transform="translate(-762.000000, -918.000000)">
            <g id="Dark" transform="translate(683.000000, -39.000000)">
                <g id="Too-much-data_L" transform="translate(79.000000, 923.000000)">
                    <g id="Too-much-data-dark_L-drawing" transform="translate(0.000000, 41.000000)">
                        <path d="M86.6812601,26.0781352 C149.718277,27.9579521 215.969248,22.9442559 276.216155,37.6845971 C322.999421,49.1308497 302.455891,156.572636 291.014739,185.022665 C279.573586,213.472693 234.71127,190.940149 176.977957,190.940149 C119.244644,190.940149 86.6812601,216.231315 60.0814866,185.022665 C21.5926113,130.981712 23.6442429,24.1983184 86.6812601,26.0781352 Z" id="Rectangle" fill="#CCCED3" opacity="0.08"></path>
                        <path d="M113.168464,24.369784 C163.304231,18.1059562 255.557874,44.5719904 311.640135,79.5517682 C355.189447,106.714462 285.723837,174.445761 260.775985,193.853643 C235.828133,213.261525 195.724014,209.150911 131.90149,195.815262 C68.0789661,182.479614 26.1670751,182.889339 12.7073907,146.85388 C-2.70390702,87.3065123 63.0326963,30.6336118 113.168464,24.369784 Z" id="Rectangle-Copy" fill="#F1F2F5" opacity="0.22"></path>
                        <g id="Decorations" opacity="0.6" transform="translate(0.000000, 20.842912)">
                            <circle id="Oval" fill="#CCCED3" cx="336.743295" cy="110.076628" r="3.25670498"></circle>
                            <circle id="Oval-Copy-2" fill="#CCCED3" cx="185.632184" cy="100.226632" r="1.95402299"></circle>
                            <path d="M220.653257,26.0536398 L222.177203,26.0536398 C222.453345,26.0536398 222.677203,26.2774975 222.677203,26.5536398 L222.677203,51.6072797 C222.677203,51.8834221 222.453345,52.1072797 222.177203,52.1072797 L220.653257,52.1072797 C220.377114,52.1072797 220.153257,51.8834221 220.153257,51.6072797 L220.153257,26.5536398 C220.153257,26.2774975 220.377114,26.0536398 220.653257,26.0536398 Z" id="Rectangle-Copy-6" fill="#CCCED3" opacity="0.339076451" transform="translate(221.415230, 39.080460) scale(-1, 1) rotate(18.000000) translate(-221.415230, -39.080460) "></path>
                            <rect id="Rectangle-Copy-5" fill="#CCCED3" opacity="0.339076451" x="239.693487" y="147.203065" width="2.60536398" height="20.8429119" rx="0.5"></rect>
                            <circle id="Oval-Copy-3" fill="#CCCED3" cx="1.30268199" cy="50.0733757" r="1.30268199"></circle>
                            <circle id="Oval-Copy-4" fill="#CCCED3" cx="264.444444" cy="125.057471" r="1.30268199"></circle>
                            <circle id="Oval-Copy" fill="#CCCED3" cx="93.7931034" cy="143.295019" r="3.90804598"></circle>
                            <g id="corner-llines" opacity="0.34" transform="translate(22.796935, 17.586207) rotate(-13.000000) translate(-22.796935, -17.586207) translate(7.816092, 3.908046)" fill="#CCCED3">
                                <path d="M25.7926435,1.81720855 L27.3980075,1.81720855 C27.6741498,1.81720855 27.8980075,2.04106618 27.8980075,2.31720855 L27.8980075,16.9493925 C27.8980075,17.2255348 27.6741498,17.4493925 27.3980075,17.4493925 L25.7926435,17.4493925 C25.5165011,17.4493925 25.2926435,17.2255348 25.2926435,16.9493925 L25.2926435,2.31720855 C25.2926435,2.04106618 25.5165011,1.81720855 25.7926435,1.81720855 Z" id="Rectangle-Copy" transform="translate(26.595325, 9.633301) rotate(-12.000000) translate(-26.595325, -9.633301) "></path>
                                <path d="M13.019664,-2.60536398 L14.625028,-2.60536398 C14.9011704,-2.60536398 15.125028,-2.38150636 15.125028,-2.10536398 L15.125028,22.9482759 C15.125028,23.2244182 14.9011704,23.4482759 14.625028,23.4482759 L13.019664,23.4482759 C12.7435216,23.4482759 12.519664,23.2244182 12.519664,22.9482759 L12.519664,-2.10536398 C12.519664,-2.38150636 12.7435216,-2.60536398 13.019664,-2.60536398 Z" id="Rectangle-Copy-2" transform="translate(13.822346, 10.421456) rotate(-44.000000) translate(-13.822346, -10.421456) "></path>
                                <path d="M9.61877395,12.2955979 L11.2241379,12.2955979 C11.5002803,12.2955979 11.7241379,12.5194556 11.7241379,12.7955979 L11.7241379,32.6385098 C11.7241379,32.9146522 11.5002803,33.1385098 11.2241379,33.1385098 L9.61877395,33.1385098 C9.34263157,33.1385098 9.11877395,32.9146522 9.11877395,32.6385098 L9.11877395,12.7955979 C9.11877395,12.5194556 9.34263157,12.2955979 9.61877395,12.2955979 Z" id="Rectangle-Copy-4" transform="translate(10.421456, 22.717054) rotate(-75.000000) translate(-10.421456, -22.717054) "></path>
                            </g>
                            <path d="M21.2244586,144.979248 C21.6940546,144.509652 22.4329762,144.473529 22.9440069,144.87088 L23.0667291,144.979248 L26.7505747,148.662069 L30.4358113,144.979248 C30.9445403,144.470519 31.7693529,144.470519 32.2780818,144.979248 C32.7868108,145.487977 32.7868108,146.312789 32.2780818,146.821518 L28.5938697,150.505364 L32.2780818,154.190601 C32.7476778,154.660197 32.7838006,155.399118 32.3864501,155.910149 L32.2780818,156.032871 C31.8084859,156.502467 31.0695642,156.53859 30.5585335,156.141239 L30.4358113,156.032871 L26.7505747,152.348659 L23.0667291,156.032871 C22.5580002,156.5416 21.7331876,156.5416 21.2244586,156.032871 C20.7157296,155.524142 20.7157296,154.69933 21.2244586,154.190601 L24.9072797,150.505364 L21.2244586,146.821518 C20.7548626,146.351922 20.7187399,145.613001 21.1160903,145.10197 L21.2244586,144.979248 Z" id="Path" fill="#CCCED3"></path>
                            <path d="M317.686158,87.4479413 C317.910489,87.6722716 317.910489,88.035983 317.686158,88.2603133 L316.060613,89.8850575 L317.686158,91.5098016 C317.882447,91.7060907 317.906984,92.0090933 317.759767,92.2320608 L317.686158,92.3221737 C317.489869,92.5184628 317.186867,92.5429989 316.963899,92.3957821 L316.873786,92.3221737 L315.249042,90.6966284 L313.624298,92.3221737 C313.399968,92.546504 313.036256,92.546504 312.811926,92.3221737 C312.587596,92.0978433 312.587596,91.734132 312.811926,91.5098016 L314.437471,89.8850575 L312.811926,88.2603133 C312.615637,88.0640243 312.591101,87.7610216 312.738318,87.5380542 L312.811926,87.4479413 C313.008215,87.2516522 313.311218,87.2271161 313.534185,87.3743329 L313.624298,87.4479413 L315.249042,89.0734866 L316.873786,87.4479413 C317.098117,87.2236109 317.461828,87.2236109 317.686158,87.4479413 Z" id="Path" fill="#CCCED3"></path>
                            <path d="M26.7049808,83.9431075 C26.8848437,83.9431075 27.0306513,84.0889152 27.0306513,84.268778 L27.0308142,84.9714121 L27.6188994,84.3838293 C27.7450852,84.2576434 27.9496729,84.2576434 28.0758587,84.3838293 C28.2020445,84.5100151 28.2020445,84.7146027 28.0758587,84.8407886 L27.3449234,85.5712972 L28.3333333,85.57146 C28.4952099,85.57146 28.6295017,85.6895642 28.6547414,85.8443051 L28.6590038,85.8971305 C28.6590038,86.0606422 28.5385016,86.1960091 28.3814585,86.2192699 L28.3333333,86.222801 L27.6297222,86.2224753 L28.0758587,86.6686257 C28.189426,86.782193 28.2007827,86.9592657 28.1099289,87.085534 L28.0758587,87.125585 C27.9622915,87.2391523 27.7852188,87.250509 27.6589504,87.1596552 L27.6188994,87.125585 L27.0308142,86.5375615 L27.0306513,87.525483 C27.0306513,87.7053459 26.8848437,87.8511535 26.7049808,87.8511535 C26.525118,87.8511535 26.3793103,87.7053459 26.3793103,87.525483 L26.3791475,86.537073 L25.7910623,87.125585 C25.6648764,87.2517708 25.4602888,87.2517708 25.334103,87.125585 C25.2079171,86.9993992 25.2079171,86.7948115 25.334103,86.6686257 L25.779751,86.2224753 L25.0766284,86.222801 C24.9147518,86.222801 24.7804599,86.1046968 24.7552203,85.949956 L24.7509579,85.8971305 C24.7509579,85.7336188 24.87146,85.5982519 25.0285032,85.5749911 L25.0766284,85.57146 L26.0640613,85.5712972 L25.334103,84.8407886 C25.2205357,84.7272213 25.209179,84.5501486 25.3000328,84.4238803 L25.334103,84.3838293 C25.4476702,84.270262 25.6247429,84.2589053 25.7510113,84.3497591 L25.7910623,84.3838293 L26.3791475,84.9719006 L26.3793103,84.268778 C26.3793103,84.0889152 26.525118,83.9431075 26.7049808,83.9431075 Z" id="Path" fill="#CCCED3"></path>
                            <path d="M290.498084,7.16475096 C290.81784,7.16475096 291.083781,7.39516304 291.138931,7.69901259 L291.149425,7.81609195 L291.149425,9.77011494 C291.149425,10.1298406 290.85781,10.4214559 290.498084,10.4214559 C290.178328,10.4214559 289.912388,10.1910439 289.857237,9.88719431 L289.846743,9.77011494 L289.846743,7.81609195 C289.846743,7.45636625 290.138359,7.16475096 290.498084,7.16475096 Z M292.710714,6.51706362 L292.800922,6.59243088 L294.182625,7.97413378 C294.43699,8.22849826 294.43699,8.64090457 294.182625,8.89526905 C293.956524,9.12137081 293.605549,9.14649323 293.351698,8.97063631 L293.26149,8.89526905 L291.879787,7.51356615 C291.625423,7.25920166 291.625423,6.84679536 291.879787,6.59243088 C292.077626,6.39459183 292.371071,6.3506276 292.611401,6.46053818 L292.710714,6.51706362 Z M289.116381,6.59243088 C289.342483,6.81853264 289.367606,7.16950695 289.191749,7.42335817 L289.116381,7.51356615 L287.734678,8.89526905 C287.480314,9.14963353 287.067908,9.14963353 286.813543,8.89526905 C286.587441,8.66916729 286.562319,8.31819297 286.738176,8.06434176 L286.813543,7.97413378 L288.195246,6.59243088 C288.449611,6.33806639 288.862017,6.33806639 289.116381,6.59243088 Z M295.057471,4.55938697 C295.417197,4.55938697 295.708812,4.85100227 295.708812,5.21072797 C295.708812,5.53048415 295.4784,5.7964247 295.174551,5.85157499 L295.057471,5.86206897 L293.103448,5.86206897 C292.743723,5.86206897 292.452107,5.57045367 292.452107,5.21072797 C292.452107,4.89097179 292.682519,4.62503124 292.986369,4.56988095 L293.103448,4.55938697 L295.057471,4.55938697 Z M287.89272,4.55938697 C288.252446,4.55938697 288.544061,4.85100227 288.544061,5.21072797 C288.544061,5.53048415 288.313649,5.7964247 288.0098,5.85157499 L287.89272,5.86206897 L285.938697,5.86206897 C285.578972,5.86206897 285.287356,5.57045367 285.287356,5.21072797 C285.287356,4.89097179 285.517768,4.62503124 285.821618,4.56988095 L285.938697,4.55938697 L287.89272,4.55938697 Z M287.644471,1.45081963 L287.734678,1.52618689 L289.116381,2.90788979 C289.370746,3.16225427 289.370746,3.57466058 289.116381,3.82902506 C288.89028,4.05512682 288.539305,4.08024924 288.285454,3.90439232 L288.195246,3.82902506 L286.813543,2.44732216 C286.559179,2.19295768 286.559179,1.78055137 286.813543,1.52618689 C287.011382,1.32834785 287.304827,1.28438362 287.545157,1.39429419 L287.644471,1.45081963 Z M294.182625,1.52618689 C294.408727,1.75228865 294.43385,2.10326296 294.257993,2.35711418 L294.182625,2.44732216 L292.800922,3.82902506 C292.546558,4.08338954 292.134152,4.08338954 291.879787,3.82902506 C291.653685,3.6029233 291.628563,3.25194899 291.80442,2.99809777 L291.879787,2.90788979 L293.26149,1.52618689 C293.515855,1.27182241 293.928261,1.27182241 294.182625,1.52618689 Z M290.498084,0 C290.81784,0 291.083781,0.230412087 291.138931,0.534261628 L291.149425,0.651340996 L291.149425,2.60536398 C291.149425,2.96508968 290.85781,3.25670498 290.498084,3.25670498 C290.178328,3.25670498 289.912388,3.02629289 289.857237,2.72244335 L289.846743,2.60536398 L289.846743,0.651340996 C289.846743,0.291615297 290.138359,0 290.498084,0 Z" id="Combined-Shape-Copy-5" fill="#CCCED3" fill-rule="nonzero"></path>
                            <path d="M312.977366,138.185154 C313.608794,138.529986 313.841125,139.321401 313.496293,139.952829 C309.992687,146.368328 294.750297,156.939771 286.123397,157.456178 C285.405231,157.499167 284.788193,156.951829 284.745204,156.233663 C284.702214,155.515497 285.249553,154.898459 285.967719,154.855469 C293.655726,154.395264 308.118387,144.364607 311.209691,138.70408 C311.554524,138.072652 312.345939,137.840321 312.977366,138.185154 Z M274.47049,148.21864 L274.587161,148.333498 L277.382565,151.449632 C277.711646,151.816472 278.219569,151.966202 278.695018,151.83653 L280.806944,151.254633 C282.318415,150.832981 283.401749,150.516854 284.051387,150.308064 C284.736332,150.087927 285.470046,150.464728 285.690184,151.149673 C285.910321,151.834618 285.53352,152.568333 284.848575,152.78847 L284.256317,152.97272 C283.211428,153.289568 281.589116,153.747731 279.380555,154.350085 C278.03811,154.716218 276.609369,154.339856 275.622853,153.376801 L275.443193,153.18939 L272.64779,150.073257 C272.167369,149.537715 272.212053,148.714114 272.747596,148.233692 C273.200747,147.827182 273.860142,147.796635 274.343359,148.121303 L274.47049,148.21864 Z M302.780248,141.078203 C303.285111,141.590769 303.278865,142.415558 302.766299,142.920421 C299.327196,146.307833 296.516898,148.134853 291.321465,150.129705 C290.649822,150.387591 289.896289,150.052175 289.638403,149.380531 C289.380517,148.708887 289.715933,147.955355 290.387577,147.697469 C295.244853,145.832456 297.751635,144.202756 300.938031,141.064254 C301.450597,140.559391 302.275386,140.565637 302.780248,141.078203 Z" id="Shape" fill="#E7E9EB" fill-rule="nonzero" opacity="0.327776228"></path>
                        </g>
                        <g id="doc" transform="translate(139.386973, 33.869732) scale(-1, 1) rotate(7.000000) translate(-139.386973, -33.869732) translate(109.425287, 3.908046)">
                            <g id="Rectangle-Copy-11" transform="translate(29.688843, 30.254933) rotate(32.000000) translate(-29.688843, -30.254933) ">
                                <use fill="black" fill-opacity="1" filter="url(#filter-2)" xlink:href="#path-1"></use>
                                <use fill="#D5D6DA" fill-rule="evenodd" xlink:href="#path-1"></use>
                            </g>
                            <g id="Rectangle-Copy-12" transform="translate(37.810337, 19.420529) scale(-1, -1) rotate(27.000000) translate(-37.810337, -19.420529) ">
                                <use fill="black" fill-opacity="1" filter="url(#filter-4)" xlink:href="#path-3"></use>
                                <use fill="#B0B2B6" fill-rule="evenodd" xlink:href="#path-3"></use>
                            </g>
                        </g>
                        <g id="Excel" transform="translate(171.954023, 46.784003) rotate(14.000000) translate(-171.954023, -46.784003) translate(149.808429, 16.934866)">
                            <g id="Rectangle">
                                <use fill="black" fill-opacity="1" filter="url(#filter-6)" xlink:href="#path-5"></use>
                                <use fill="#D5D6DA" fill-rule="evenodd" xlink:href="#path-5"></use>
                            </g>
                            <mask id="mask-8" fill="white">
                                <use xlink:href="#path-7"></use>
                            </mask>
                            <g id="Rectangle">
                                <use fill="black" fill-opacity="1" filter="url(#filter-9)" xlink:href="#path-7"></use>
                                <use fill="#D5D6DA" fill-rule="evenodd" xlink:href="#path-7"></use>
                            </g>
                            <g id="Table" mask="url(#mask-8)">
                                <g transform="translate(0.578050, 3.008929)">
                                    <path d="M23.6950691,3.4077894 L29.4043823,3.4077894 C29.7196989,3.4077894 29.9753136,3.66207595 29.9753136,3.9757543 L29.9753136,6.24761391 C29.9753136,6.56129226 29.7196989,6.81557881 29.4043823,6.81557881 L23.6950691,6.81557881 C23.3797525,6.81557881 23.1241378,6.56129226 23.1241378,6.24761391 L23.1241378,3.9757543 C23.1241378,3.66207595 23.3797525,3.4077894 23.6950691,3.4077894 Z" id="Rectangle" fill-opacity="0.786276224" fill="#9EA0A5"></path>
                                    <path d="M5.42526717,3.4077894 L11.1345803,3.4077894 C11.4498969,3.4077894 11.7055116,3.66207595 11.7055116,3.9757543 L11.7055116,6.24761391 C11.7055116,6.56129226 11.4498969,6.81557881 11.1345803,6.81557881 L5.42526717,6.81557881 C5.10995052,6.81557881 4.85433586,6.56129226 4.85433586,6.24761391 L4.85433586,3.9757543 C4.85433586,3.66207595 5.10995052,3.4077894 5.42526717,3.4077894 Z" id="Rectangle-Copy-8" fill-opacity="0.786276224" fill="#9EA0A5"></path>
                                    <path d="M32.8299701,3.4077894 L38.5392832,3.4077894 C38.8545999,3.4077894 39.1102145,3.66207595 39.1102145,3.9757543 L39.1102145,6.24761391 C39.1102145,6.56129226 38.8545999,6.81557881 38.5392832,6.81557881 L32.8299701,6.81557881 C32.5146535,6.81557881 32.2590388,6.56129226 32.2590388,6.24761391 L32.2590388,3.9757543 C32.2590388,3.66207595 32.5146535,3.4077894 32.8299701,3.4077894 Z" id="Rectangle-Copy-7" fill-opacity="0.786276224" fill="#9EA0A5"></path>
                                    <path d="M14.5601682,3.4077894 L20.2694813,3.4077894 C20.5847979,3.4077894 20.8404126,3.66207595 20.8404126,3.9757543 L20.8404126,6.24761391 C20.8404126,6.56129226 20.5847979,6.81557881 20.2694813,6.81557881 L14.5601682,6.81557881 C14.2448515,6.81557881 13.9892368,6.56129226 13.9892368,6.24761391 L13.9892368,3.9757543 C13.9892368,3.66207595 14.2448515,3.4077894 14.5601682,3.4077894 Z" id="Rectangle-Copy-9" fill-opacity="0.786276224" fill="#9EA0A5"></path>
                                    <path d="M23.6950691,9.08743841 L29.4043823,9.08743841 C29.7196989,9.08743841 29.9753136,9.34172496 29.9753136,9.65540331 L29.9753136,11.9272629 C29.9753136,12.2409413 29.7196989,12.4952278 29.4043823,12.4952278 L23.6950691,12.4952278 C23.3797525,12.4952278 23.1241378,12.2409413 23.1241378,11.9272629 L23.1241378,9.65540331 C23.1241378,9.34172496 23.3797525,9.08743841 23.6950691,9.08743841 Z" id="Rectangle" fill-opacity="0.786276224" fill="#9EA0A5"></path>
                                    <path d="M5.42526717,9.08743841 L11.1345803,9.08743841 C11.4498969,9.08743841 11.7055116,9.34172496 11.7055116,9.65540331 L11.7055116,11.9272629 C11.7055116,12.2409413 11.4498969,12.4952278 11.1345803,12.4952278 L5.42526717,12.4952278 C5.10995052,12.4952278 4.85433586,12.2409413 4.85433586,11.9272629 L4.85433586,9.65540331 C4.85433586,9.34172496 5.10995052,9.08743841 5.42526717,9.08743841 Z" id="Rectangle-Copy-8" fill-opacity="0.786276224" fill="#9EA0A5"></path>
                                    <path d="M32.8299701,9.08743841 L38.5392832,9.08743841 C38.8545999,9.08743841 39.1102145,9.34172496 39.1102145,9.65540331 L39.1102145,11.9272629 C39.1102145,12.2409413 38.8545999,12.4952278 38.5392832,12.4952278 L32.8299701,12.4952278 C32.5146535,12.4952278 32.2590388,12.2409413 32.2590388,11.9272629 L32.2590388,9.65540331 C32.2590388,9.34172496 32.5146535,9.08743841 32.8299701,9.08743841 Z" id="Rectangle-Copy-7" fill-opacity="0.786276224" fill="#9EA0A5"></path>
                                    <path d="M14.5601682,9.08743841 L20.2694813,9.08743841 C20.5847979,9.08743841 20.8404126,9.34172496 20.8404126,9.65540331 L20.8404126,11.9272629 C20.8404126,12.2409413 20.5847979,12.4952278 20.2694813,12.4952278 L14.5601682,12.4952278 C14.2448515,12.4952278 13.9892368,12.2409413 13.9892368,11.9272629 L13.9892368,9.65540331 C13.9892368,9.34172496 14.2448515,9.08743841 14.5601682,9.08743841 Z" id="Rectangle-Copy-9" fill-opacity="0.786276224" fill="#9EA0A5"></path>
                                    <path d="M23.6950691,14.7670874 L29.4043823,14.7670874 C29.7196989,14.7670874 29.9753136,15.021374 29.9753136,15.3350523 L29.9753136,17.6069119 C29.9753136,17.9205903 29.7196989,18.1748768 29.4043823,18.1748768 L23.6950691,18.1748768 C23.3797525,18.1748768 23.1241378,17.9205903 23.1241378,17.6069119 L23.1241378,15.3350523 C23.1241378,15.021374 23.3797525,14.7670874 23.6950691,14.7670874 Z" id="Rectangle" fill-opacity="0.786276224" fill="#9EA0A5"></path>
                                    <path d="M5.42526717,14.7670874 L11.1345803,14.7670874 C11.4498969,14.7670874 11.7055116,15.021374 11.7055116,15.3350523 L11.7055116,17.6069119 C11.7055116,17.9205903 11.4498969,18.1748768 11.1345803,18.1748768 L5.42526717,18.1748768 C5.10995052,18.1748768 4.85433586,17.9205903 4.85433586,17.6069119 L4.85433586,15.3350523 C4.85433586,15.021374 5.10995052,14.7670874 5.42526717,14.7670874 Z" id="Rectangle-Copy-8" fill-opacity="0.786276224" fill="#9EA0A5"></path>
                                    <path d="M32.8299701,14.7670874 L38.5392832,14.7670874 C38.8545999,14.7670874 39.1102145,15.021374 39.1102145,15.3350523 L39.1102145,17.6069119 C39.1102145,17.9205903 38.8545999,18.1748768 38.5392832,18.1748768 L32.8299701,18.1748768 C32.5146535,18.1748768 32.2590388,17.9205903 32.2590388,17.6069119 L32.2590388,15.3350523 C32.2590388,15.021374 32.5146535,14.7670874 32.8299701,14.7670874 Z" id="Rectangle-Copy-7" fill-opacity="0.786276224" fill="#9EA0A5"></path>
                                    <path d="M14.5601682,14.7670874 L20.2694813,14.7670874 C20.5847979,14.7670874 20.8404126,15.021374 20.8404126,15.3350523 L20.8404126,17.6069119 C20.8404126,17.9205903 20.5847979,18.1748768 20.2694813,18.1748768 L14.5601682,18.1748768 C14.2448515,18.1748768 13.9892368,17.9205903 13.9892368,17.6069119 L13.9892368,15.3350523 C13.9892368,15.021374 14.2448515,14.7670874 14.5601682,14.7670874 Z" id="Rectangle-Copy-9" fill-opacity="0.786276224" fill="#9EA0A5"></path>
                                    <path d="M23.6950691,20.4467364 L29.4043823,20.4467364 C29.7196989,20.4467364 29.9753136,20.701023 29.9753136,21.0147013 L29.9753136,23.2865609 C29.9753136,23.6002393 29.7196989,23.8545258 29.4043823,23.8545258 L23.6950691,23.8545258 C23.3797525,23.8545258 23.1241378,23.6002393 23.1241378,23.2865609 L23.1241378,21.0147013 C23.1241378,20.701023 23.3797525,20.4467364 23.6950691,20.4467364 Z" id="Rectangle" fill-opacity="0.786276224" fill="#9EA0A5"></path>
                                    <path d="M5.42526717,20.4467364 L11.1345803,20.4467364 C11.4498969,20.4467364 11.7055116,20.701023 11.7055116,21.0147013 L11.7055116,23.2865609 C11.7055116,23.6002393 11.4498969,23.8545258 11.1345803,23.8545258 L5.42526717,23.8545258 C5.10995052,23.8545258 4.85433586,23.6002393 4.85433586,23.2865609 L4.85433586,21.0147013 C4.85433586,20.701023 5.10995052,20.4467364 5.42526717,20.4467364 Z" id="Rectangle-Copy-8" fill-opacity="0.786276224" fill="#9EA0A5"></path>
                                    <path d="M32.8299701,20.4467364 L38.5392832,20.4467364 C38.8545999,20.4467364 39.1102145,20.701023 39.1102145,21.0147013 L39.1102145,23.2865609 C39.1102145,23.6002393 38.8545999,23.8545258 38.5392832,23.8545258 L32.8299701,23.8545258 C32.5146535,23.8545258 32.2590388,23.6002393 32.2590388,23.2865609 L32.2590388,21.0147013 C32.2590388,20.701023 32.5146535,20.4467364 32.8299701,20.4467364 Z" id="Rectangle-Copy-7" fill-opacity="0.786276224" fill="#9EA0A5"></path>
                                    <path d="M14.5601682,20.4467364 L20.2694813,20.4467364 C20.5847979,20.4467364 20.8404126,20.701023 20.8404126,21.0147013 L20.8404126,23.2865609 C20.8404126,23.6002393 20.5847979,23.8545258 20.2694813,23.8545258 L14.5601682,23.8545258 C14.2448515,23.8545258 13.9892368,23.6002393 13.9892368,23.2865609 L13.9892368,21.0147013 C13.9892368,20.701023 14.2448515,20.4467364 14.5601682,20.4467364 Z" id="Rectangle-Copy-9" fill-opacity="0.786276224" fill="#9EA0A5"></path>
                                    <path d="M23.6950691,26.1263854 L29.4043823,26.1263854 C29.7196989,26.1263854 29.9753136,26.380672 29.9753136,26.6943503 L29.9753136,28.9662099 C29.9753136,29.2798883 29.7196989,29.5341748 29.4043823,29.5341748 L23.6950691,29.5341748 C23.3797525,29.5341748 23.1241378,29.2798883 23.1241378,28.9662099 L23.1241378,26.6943503 C23.1241378,26.380672 23.3797525,26.1263854 23.6950691,26.1263854 Z" id="Rectangle" fill-opacity="0.786276224" fill="#9EA0A5"></path>
                                    <path d="M5.42526717,26.1263854 L11.1345803,26.1263854 C11.4498969,26.1263854 11.7055116,26.380672 11.7055116,26.6943503 L11.7055116,28.9662099 C11.7055116,29.2798883 11.4498969,29.5341748 11.1345803,29.5341748 L5.42526717,29.5341748 C5.10995052,29.5341748 4.85433586,29.2798883 4.85433586,28.9662099 L4.85433586,26.6943503 C4.85433586,26.380672 5.10995052,26.1263854 5.42526717,26.1263854 Z" id="Rectangle-Copy-8" fill-opacity="0.786276224" fill="#9EA0A5"></path>
                                    <path d="M32.8299701,26.1263854 L38.5392832,26.1263854 C38.8545999,26.1263854 39.1102145,26.380672 39.1102145,26.6943503 L39.1102145,28.9662099 C39.1102145,29.2798883 38.8545999,29.5341748 38.5392832,29.5341748 L32.8299701,29.5341748 C32.5146535,29.5341748 32.2590388,29.2798883 32.2590388,28.9662099 L32.2590388,26.6943503 C32.2590388,26.380672 32.5146535,26.1263854 32.8299701,26.1263854 Z" id="Rectangle-Copy-7" fill-opacity="0.786276224" fill="#9EA0A5"></path>
                                    <path d="M14.5601682,26.1263854 L20.2694813,26.1263854 C20.5847979,26.1263854 20.8404126,26.380672 20.8404126,26.6943503 L20.8404126,28.9662099 C20.8404126,29.2798883 20.5847979,29.5341748 20.2694813,29.5341748 L14.5601682,29.5341748 C14.2448515,29.5341748 13.9892368,29.2798883 13.9892368,28.9662099 L13.9892368,26.6943503 C13.9892368,26.380672 14.2448515,26.1263854 14.5601682,26.1263854 Z" id="Rectangle-Copy-9" fill-opacity="0.786276224" fill="#9EA0A5"></path>
                                    <path d="M23.6950691,31.8060344 L29.4043823,31.8060344 C29.7196989,31.8060344 29.9753136,32.060321 29.9753136,32.3739993 L29.9753136,34.6458589 C29.9753136,34.9595373 29.7196989,35.2138238 29.4043823,35.2138238 L23.6950691,35.2138238 C23.3797525,35.2138238 23.1241378,34.9595373 23.1241378,34.6458589 L23.1241378,32.3739993 C23.1241378,32.060321 23.3797525,31.8060344 23.6950691,31.8060344 Z" id="Rectangle" fill-opacity="0.786276224" fill="#9EA0A5"></path>
                                    <path d="M5.42526717,31.8060344 L11.1345803,31.8060344 C11.4498969,31.8060344 11.7055116,32.060321 11.7055116,32.3739993 L11.7055116,34.6458589 C11.7055116,34.9595373 11.4498969,35.2138238 11.1345803,35.2138238 L5.42526717,35.2138238 C5.10995052,35.2138238 4.85433586,34.9595373 4.85433586,34.6458589 L4.85433586,32.3739993 C4.85433586,32.060321 5.10995052,31.8060344 5.42526717,31.8060344 Z" id="Rectangle-Copy-8" fill-opacity="0.786276224" fill="#9EA0A5"></path>
                                    <path d="M32.8299701,31.8060344 L38.5392832,31.8060344 C38.8545999,31.8060344 39.1102145,32.060321 39.1102145,32.3739993 L39.1102145,34.6458589 C39.1102145,34.9595373 38.8545999,35.2138238 38.5392832,35.2138238 L32.8299701,35.2138238 C32.5146535,35.2138238 32.2590388,34.9595373 32.2590388,34.6458589 L32.2590388,32.3739993 C32.2590388,32.060321 32.5146535,31.8060344 32.8299701,31.8060344 Z" id="Rectangle-Copy-7" fill-opacity="0.786276224" fill="#9EA0A5"></path>
                                    <path d="M14.5601682,31.8060344 L20.2694813,31.8060344 C20.5847979,31.8060344 20.8404126,32.060321 20.8404126,32.3739993 L20.8404126,34.6458589 C20.8404126,34.9595373 20.5847979,35.2138238 20.2694813,35.2138238 L14.5601682,35.2138238 C14.2448515,35.2138238 13.9892368,34.9595373 13.9892368,34.6458589 L13.9892368,32.3739993 C13.9892368,32.060321 14.2448515,31.8060344 14.5601682,31.8060344 Z" id="Rectangle-Copy-9" fill-opacity="0.786276224" fill="#9EA0A5"></path>
                                    <path d="M23.6950691,37.4856834 L29.4043823,37.4856834 C29.7196989,37.4856834 29.9753136,37.73997 29.9753136,38.0536483 L29.9753136,40.3255079 C29.9753136,40.6391863 29.7196989,40.8934728 29.4043823,40.8934728 L23.6950691,40.8934728 C23.3797525,40.8934728 23.1241378,40.6391863 23.1241378,40.3255079 L23.1241378,38.0536483 C23.1241378,37.73997 23.3797525,37.4856834 23.6950691,37.4856834 Z" id="Rectangle" fill-opacity="0.786276224" fill="#9EA0A5"></path>
                                    <path d="M5.42526717,37.4856834 L11.1345803,37.4856834 C11.4498969,37.4856834 11.7055116,37.73997 11.7055116,38.0536483 L11.7055116,40.3255079 C11.7055116,40.6391863 11.4498969,40.8934728 11.1345803,40.8934728 L5.42526717,40.8934728 C5.10995052,40.8934728 4.85433586,40.6391863 4.85433586,40.3255079 L4.85433586,38.0536483 C4.85433586,37.73997 5.10995052,37.4856834 5.42526717,37.4856834 Z" id="Rectangle-Copy-8" fill-opacity="0.786276224" fill="#9EA0A5"></path>
                                    <path d="M32.8299701,37.4856834 L38.5392832,37.4856834 C38.8545999,37.4856834 39.1102145,37.73997 39.1102145,38.0536483 L39.1102145,40.3255079 C39.1102145,40.6391863 38.8545999,40.8934728 38.5392832,40.8934728 L32.8299701,40.8934728 C32.5146535,40.8934728 32.2590388,40.6391863 32.2590388,40.3255079 L32.2590388,38.0536483 C32.2590388,37.73997 32.5146535,37.4856834 32.8299701,37.4856834 Z" id="Rectangle-Copy-7" fill-opacity="0.786276224" fill="#9EA0A5"></path>
                                    <path d="M14.5601682,37.4856834 L20.2694813,37.4856834 C20.5847979,37.4856834 20.8404126,37.73997 20.8404126,38.0536483 L20.8404126,40.3255079 C20.8404126,40.6391863 20.5847979,40.8934728 20.2694813,40.8934728 L14.5601682,40.8934728 C14.2448515,40.8934728 13.9892368,40.6391863 13.9892368,40.3255079 L13.9892368,38.0536483 C13.9892368,37.73997 14.2448515,37.4856834 14.5601682,37.4856834 Z" id="Rectangle-Copy-9" fill-opacity="0.786276224" fill="#9EA0A5"></path>
                                    <path d="M23.6950691,43.1653324 L29.4043823,43.1653324 C29.7196989,43.1653324 29.9753136,43.419619 29.9753136,43.7332973 L29.9753136,46.0051569 C29.9753136,46.3188353 29.7196989,46.5731218 29.4043823,46.5731218 L23.6950691,46.5731218 C23.3797525,46.5731218 23.1241378,46.3188353 23.1241378,46.0051569 L23.1241378,43.7332973 C23.1241378,43.419619 23.3797525,43.1653324 23.6950691,43.1653324 Z" id="Rectangle" fill-opacity="0.786276224" fill="#9EA0A5"></path>
                                    <path d="M5.42526717,43.1653324 L11.1345803,43.1653324 C11.4498969,43.1653324 11.7055116,43.419619 11.7055116,43.7332973 L11.7055116,46.0051569 C11.7055116,46.3188353 11.4498969,46.5731218 11.1345803,46.5731218 L5.42526717,46.5731218 C5.10995052,46.5731218 4.85433586,46.3188353 4.85433586,46.0051569 L4.85433586,43.7332973 C4.85433586,43.419619 5.10995052,43.1653324 5.42526717,43.1653324 Z" id="Rectangle-Copy-8" fill-opacity="0.786276224" fill="#9EA0A5"></path>
                                    <path d="M32.8299701,43.1653324 L38.5392832,43.1653324 C38.8545999,43.1653324 39.1102145,43.419619 39.1102145,43.7332973 L39.1102145,46.0051569 C39.1102145,46.3188353 38.8545999,46.5731218 38.5392832,46.5731218 L32.8299701,46.5731218 C32.5146535,46.5731218 32.2590388,46.3188353 32.2590388,46.0051569 L32.2590388,43.7332973 C32.2590388,43.419619 32.5146535,43.1653324 32.8299701,43.1653324 Z" id="Rectangle-Copy-7" fill-opacity="0.786276224" fill="#9EA0A5"></path>
                                    <path d="M14.5601682,43.1653324 L20.2694813,43.1653324 C20.5847979,43.1653324 20.8404126,43.419619 20.8404126,43.7332973 L20.8404126,46.0051569 C20.8404126,46.3188353 20.5847979,46.5731218 20.2694813,46.5731218 L14.5601682,46.5731218 C14.2448515,46.5731218 13.9892368,46.3188353 13.9892368,46.0051569 L13.9892368,43.7332973 C13.9892368,43.419619 14.2448515,43.1653324 14.5601682,43.1653324 Z" id="Rectangle-Copy-9" fill-opacity="0.786276224" fill="#9EA0A5"></path>
                                    <path d="M23.6950691,48.8449814 L29.4043823,48.8449814 C29.7196989,48.8449814 29.9753136,49.099268 29.9753136,49.4129463 L29.9753136,51.6848059 C29.9753136,51.9984843 29.7196989,52.2527708 29.4043823,52.2527708 L23.6950691,52.2527708 C23.3797525,52.2527708 23.1241378,51.9984843 23.1241378,51.6848059 L23.1241378,49.4129463 C23.1241378,49.099268 23.3797525,48.8449814 23.6950691,48.8449814 Z" id="Rectangle" fill-opacity="0.786276224" fill="#9EA0A5"></path>
                                    <path d="M5.42526717,48.8449814 L11.1345803,48.8449814 C11.4498969,48.8449814 11.7055116,49.099268 11.7055116,49.4129463 L11.7055116,51.6848059 C11.7055116,51.9984843 11.4498969,52.2527708 11.1345803,52.2527708 L5.42526717,52.2527708 C5.10995052,52.2527708 4.85433586,51.9984843 4.85433586,51.6848059 L4.85433586,49.4129463 C4.85433586,49.099268 5.10995052,48.8449814 5.42526717,48.8449814 Z" id="Rectangle-Copy-8" fill-opacity="0.786276224" fill="#9EA0A5"></path>
                                    <path d="M32.8299701,48.8449814 L38.5392832,48.8449814 C38.8545999,48.8449814 39.1102145,49.099268 39.1102145,49.4129463 L39.1102145,51.6848059 C39.1102145,51.9984843 38.8545999,52.2527708 38.5392832,52.2527708 L32.8299701,52.2527708 C32.5146535,52.2527708 32.2590388,51.9984843 32.2590388,51.6848059 L32.2590388,49.4129463 C32.2590388,49.099268 32.5146535,48.8449814 32.8299701,48.8449814 Z" id="Rectangle-Copy-7" fill-opacity="0.786276224" fill="#9EA0A5"></path>
                                    <path d="M14.5601682,48.8449814 L20.2694813,48.8449814 C20.5847979,48.8449814 20.8404126,49.099268 20.8404126,49.4129463 L20.8404126,51.6848059 C20.8404126,51.9984843 20.5847979,52.2527708 20.2694813,52.2527708 L14.5601682,52.2527708 C14.2448515,52.2527708 13.9892368,51.9984843 13.9892368,51.6848059 L13.9892368,49.4129463 C13.9892368,49.099268 14.2448515,48.8449814 14.5601682,48.8449814 Z" id="Rectangle-Copy-9" fill-opacity="0.786276224" fill="#9EA0A5"></path>
                                    <polygon id="Rectangle" fill="url(#linearGradient-10)" points="0.702108141 -1.34496653e-13 42.1205796 -1.34496653e-13 42.1205796 55.3301079 0.702108141 55.3301079"></polygon>
                                </g>
                            </g>
                            <polygon id="X" fill="#9EA0A5" fill-rule="nonzero" mask="url(#mask-8)" points="10.0941109 53.8903148 13.9760279 48.7499675 17.8579449 53.8903148 21.8997056 53.8903148 16.2595085 47.0396169 21.5000965 40.3004637 17.6866839 40.3004637 14.1587064 45.1898355 10.5622244 40.3004637 6.65747264 40.3004637 11.8409736 46.8815954 6.30353315 53.8903148"></polygon>
                        </g>
                        <g id="Page" transform="translate(160.881226, 110.727969) scale(-1, 1) rotate(-21.000000) translate(-160.881226, -110.727969) ">
                            <use fill="black" fill-opacity="1" filter="url(#filter-12)" xlink:href="#path-11"></use>
                            <use fill="#CCCED3" fill-rule="evenodd" xlink:href="#path-11"></use>
                        </g>
                        <g id="Doughnut" transform="translate(40.383142, 84.674330)">
                            <g id="base">
                                <g id="Path">
                                    <use fill="black" fill-opacity="1" filter="url(#filter-14)" xlink:href="#path-13"></use>
                                    <use fill="#D5D6DA" fill-rule="evenodd" xlink:href="#path-13"></use>
                                </g>
                                <g id="Path">
                                    <use fill="black" fill-opacity="1" filter="url(#filter-16)" xlink:href="#path-15"></use>
                                    <use fill="#D5D6DA" fill-rule="evenodd" xlink:href="#path-15"></use>
                                </g>
                                <path d="M5.77712056,-8.17128122e-15 L77.4134155,-8.17128122e-15 C80.6040311,-8.17128122e-15 83.1905361,2.57437522 83.1905361,5.75002798 L83.1905361,13.6563165 L0,13.6563165 L0,5.75002798 C0,2.57437522 2.58650498,-8.17128122e-15 5.77712056,-8.17128122e-15 Z" id="Path-Copy" fill="#9EA0A5"></path>
                            </g>
                            <g transform="translate(38.742815, 21.286378)">
                                <path d="M34.5733189,13.9518411 C33.9092243,14.9850052 33.5636033,15.5015873 33.536456,15.5015873 C32.1696668,15.5015873 30.2296365,15.1172687 27.7163653,14.3486314 C27.2430513,10.5685657 24.4729323,7.49880405 20.8406155,6.56798247 C20.0690001,3.93325431 19.6831925,1.96921834 19.6831925,0.675874552 C19.6831925,0.639584883 20.2163181,0.414293366 21.2825695,8.60227625e-14 C27.7163653,0.621440049 33.901969,6.85399623 34.5733189,13.9518411 Z" id="Path" fill-opacity="0.82" fill="#67696F" opacity="0.485212054"></path>
                                <path d="M33.536456,15.5014899 L26.558534,15.5016435 C26.08522,11.7215778 23.315101,8.6518162 19.6827843,7.72099462 L19.6830174,0.675874552 C27.1639932,1.74140292 32.9972431,7.8936528 33.536456,15.5014899 Z" id="Path" fill="#9EA0A5"></path>
                                <path d="M17.3471471,0.675874552 L17.3471471,7.72492402 C17.2258494,7.72492402 16.2097083,8.74695958 16.2097083,8.74695958 C12.0616139,8.99861799 7.838611,12.6425402 7.838611,17.1576005 C7.838611,22.2519287 11.5820581,26.459602 17.9464552,26.459602 C23.2638291,26.459602 24.3768603,23.1073742 25.4723583,19.1240689 C25.4723583,19.1240689 26.8583071,18.2327083 27.1373046,17.972158 C27.1373046,17.972158 29.3921928,17.9717909 33.901969,17.9710567 C33.3078086,26.3475346 26.5091489,32.9602147 17.9464552,32.9602147 C8.9941196,32.9602147 1.73681772,25.7331189 1.73681772,16.8180446 C1.73681772,16.6739148 -0.00339112783,16.7974742 -6.72547915e-13,16.6545995 C0.210747602,7.96003004 8.53954376,0.675874552 17.3471471,0.675874552 Z" id="Path" fill-opacity="0.7" fill="#9EA0A5" opacity="0.485212054"></path>
                                <path d="M16.2244946,7.7145593 L16.1893159,1.8288867 C16.8352002,1.80430862 17.4884409,0.675874552 18.1497261,0.675874552 L18.1849048,7.7145593 C17.9795266,7.7145593 16.2590225,8.73659485 16.2590225,8.73659485" id="Shape" fill-opacity="0.7" fill="#9EA0A5" opacity="0.653180804"></path>
                                <path d="M33.9006177,17.9710567 C33.3064573,26.3475346 26.5077975,32.9602147 17.9451038,32.9602147 C17.7517732,32.9602147 17.5592331,32.9568442 17.3675395,32.950159 C25.5281714,32.6633192 31.6282716,27.1322105 32.3785609,19.1240689 L33.0492839,18.6529131 L33.9006177,17.9710567 Z" id="Path" fill-opacity="0.7" fill="#9EA0A5" opacity="0.653180804"></path>
                                <path d="M16.2097083,1.8288867 L16.2097083,8.74695958 C11.094088,8.74695958 6.94705832,12.8767285 6.94705832,17.9710567 C6.94705832,23.0653849 11.094088,27.1951539 16.2097083,27.1951539 C20.932836,27.1951539 24.8303003,23.6747821 25.4005578,19.1251701 L32.3785609,19.1250675 C31.7844005,27.5015454 24.772402,34.1132268 16.2097083,34.1132268 C7.25737273,34.1132268 7.08480109e-05,26.8861311 7.08480109e-05,17.9710567 C7.08480109e-05,9.0559824 7.25737273,1.8288867 16.2097083,1.8288867 Z" id="Path" fill="#7B7D82"></path>
                            </g>
                            <path d="M9.15132004,29.9339692 L29.5914947,29.9339692 C30.2186501,29.9339692 30.72706,30.5296089 30.72706,31.2643678 C30.72706,31.9991267 30.2186501,32.5947664 29.5914947,32.5947664 L9.15132004,32.5947664 C8.52416466,32.5947664 8.01575478,31.9991267 8.01575478,31.2643678 C8.01575478,30.5296089 8.52416466,29.9339692 9.15132004,29.9339692 Z" id="Rectangle" fill="#9EA0A5" opacity="0.647623698"></path>
                            <path d="M9.15132004,23.9471753 L29.5914947,23.9471753 C30.2186501,23.9471753 30.72706,24.5428151 30.72706,25.277574 C30.72706,26.0123329 30.2186501,26.6079726 29.5914947,26.6079726 L9.15132004,26.6079726 C8.52416466,26.6079726 8.01575478,26.0123329 8.01575478,25.277574 C8.01575478,24.5428151 8.52416466,23.9471753 9.15132004,23.9471753 Z" id="Rectangle-Copy-3" fill="#9EA0A5" opacity="0.647623698"></path>
                            <path d="M9.23026308,35.920763 L20.1608378,35.920763 C20.8315922,35.920763 21.3753461,36.5164028 21.3753461,37.2511617 C21.3753461,37.9859205 20.8315922,38.5815603 20.1608378,38.5815603 L9.23026308,38.5815603 C8.55950867,38.5815603 8.01575478,37.9859205 8.01575478,37.2511617 C8.01575478,36.5164028 8.55950867,35.920763 9.23026308,35.920763 Z" id="Rectangle-Copy-2" fill="#9EA0A5" opacity="0.647623698"></path>
                        </g>
                        <g id="DOC-Copy-2" transform="translate(295.435000, 82.429282) rotate(30.000000) translate(-295.435000, -82.429282) translate(270.957854, 49.501916)">
                            <g id="Rectangle">
                                <use fill="black" fill-opacity="1" filter="url(#filter-18)" xlink:href="#path-17"></use>
                                <use fill="#D5D6DA" fill-rule="evenodd" xlink:href="#path-17"></use>
                            </g>
                            <g id="Rectangle">
                                <use fill="black" fill-opacity="1" filter="url(#filter-20)" xlink:href="#path-19"></use>
                                <use fill="#D5D6DA" fill-rule="evenodd" xlink:href="#path-19"></use>
                            </g>
                            <g id="Triangle" transform="translate(8.206061, 7.021660) rotate(139.000000) translate(-8.206061, -7.021660) ">
                                <use fill="black" fill-opacity="1" filter="url(#filter-22)" xlink:href="#path-21"></use>
                                <use fill="#9EA0A5" fill-rule="evenodd" xlink:href="#path-21"></use>
                            </g>
                            <ellipse id="Oval" fill="#9EA0A5" opacity="0.683221726" cx="14.1842751" cy="17.8648762" rx="4.00787739" ry="3.99119589"></ellipse>
                            <polygon id="Path" fill="#9EA0A5" opacity="0.683221726" points="6.59200237 42.220974 18.935103 27.5865891 25.3530146 35.1964692 29.8260742 29.6772155 39.9909806 42.220974"></polygon>
                        </g>
                        <g id="Excel" transform="translate(259.623691, 72.174126) rotate(-17.000000) translate(-259.623691, -72.174126) translate(229.272031, 31.264368)">
                            <g id="Rectangle">
                                <use fill="black" fill-opacity="1" filter="url(#filter-24)" xlink:href="#path-23"></use>
                                <use fill="#D5D6DA" fill-rule="evenodd" xlink:href="#path-23"></use>
                            </g>
                            <mask id="mask-26" fill="white">
                                <use xlink:href="#path-25"></use>
                            </mask>
                            <g id="Rectangle">
                                <use fill="black" fill-opacity="1" filter="url(#filter-27)" xlink:href="#path-25"></use>
                                <use fill="#D5D6DA" fill-rule="evenodd" xlink:href="#path-25"></use>
                            </g>
                            <g id="Table" mask="url(#mask-26)">
                                <g transform="translate(0.792246, 4.123889)">
                                    <path d="M32.4752952,4.67054838 L40.3001987,4.67054838 C40.7323562,4.67054838 41.082689,5.01906101 41.082689,5.44897311 L41.082689,8.56267204 C41.082689,8.99258414 40.7323562,9.34109677 40.3001987,9.34109677 L32.4752952,9.34109677 C32.0431377,9.34109677 31.6928049,8.99258414 31.6928049,8.56267204 L31.6928049,5.44897311 C31.6928049,5.01906101 32.0431377,4.67054838 32.4752952,4.67054838 Z" id="Rectangle" fill-opacity="0.786276224" fill="#9EA0A5"></path>
                                    <path d="M7.43560409,4.67054838 L15.2605076,4.67054838 C15.692665,4.67054838 16.0429979,5.01906101 16.0429979,5.44897311 L16.0429979,8.56267204 C16.0429979,8.99258414 15.692665,9.34109677 15.2605076,9.34109677 L7.43560409,9.34109677 C7.0034466,9.34109677 6.65311374,8.99258414 6.65311374,8.56267204 L6.65311374,5.44897311 C6.65311374,5.01906101 7.0034466,4.67054838 7.43560409,4.67054838 Z" id="Rectangle-Copy-8" fill-opacity="0.786276224" fill="#9EA0A5"></path>
                                    <path d="M44.9951408,4.67054838 L52.8200442,4.67054838 C53.2522017,4.67054838 53.6025346,5.01906101 53.6025346,5.44897311 L53.6025346,8.56267204 C53.6025346,8.99258414 53.2522017,9.34109677 52.8200442,9.34109677 L44.9951408,9.34109677 C44.5629833,9.34109677 44.2126504,8.99258414 44.2126504,8.56267204 L44.2126504,5.44897311 C44.2126504,5.01906101 44.5629833,4.67054838 44.9951408,4.67054838 Z" id="Rectangle-Copy-7" fill-opacity="0.786276224" fill="#9EA0A5"></path>
                                    <path d="M19.9554496,4.67054838 L27.7803531,4.67054838 C28.2125106,4.67054838 28.5628435,5.01906101 28.5628435,5.44897311 L28.5628435,8.56267204 C28.5628435,8.99258414 28.2125106,9.34109677 27.7803531,9.34109677 L19.9554496,9.34109677 C19.5232922,9.34109677 19.1729593,8.99258414 19.1729593,8.56267204 L19.1729593,5.44897311 C19.1729593,5.01906101 19.5232922,4.67054838 19.9554496,4.67054838 Z" id="Rectangle-Copy-9" fill-opacity="0.786276224" fill="#9EA0A5"></path>
                                    <path d="M32.4752952,12.4547957 L40.3001987,12.4547957 C40.7323562,12.4547957 41.082689,12.8033083 41.082689,13.2332204 L41.082689,16.3469193 C41.082689,16.7768315 40.7323562,17.1253441 40.3001987,17.1253441 L32.4752952,17.1253441 C32.0431377,17.1253441 31.6928049,16.7768315 31.6928049,16.3469193 L31.6928049,13.2332204 C31.6928049,12.8033083 32.0431377,12.4547957 32.4752952,12.4547957 Z" id="Rectangle" fill-opacity="0.786276224" fill="#9EA0A5"></path>
                                    <path d="M7.43560409,12.4547957 L15.2605076,12.4547957 C15.692665,12.4547957 16.0429979,12.8033083 16.0429979,13.2332204 L16.0429979,16.3469193 C16.0429979,16.7768315 15.692665,17.1253441 15.2605076,17.1253441 L7.43560409,17.1253441 C7.0034466,17.1253441 6.65311374,16.7768315 6.65311374,16.3469193 L6.65311374,13.2332204 C6.65311374,12.8033083 7.0034466,12.4547957 7.43560409,12.4547957 Z" id="Rectangle-Copy-8" fill-opacity="0.786276224" fill="#9EA0A5"></path>
                                    <path d="M44.9951408,12.4547957 L52.8200442,12.4547957 C53.2522017,12.4547957 53.6025346,12.8033083 53.6025346,13.2332204 L53.6025346,16.3469193 C53.6025346,16.7768315 53.2522017,17.1253441 52.8200442,17.1253441 L44.9951408,17.1253441 C44.5629833,17.1253441 44.2126504,16.7768315 44.2126504,16.3469193 L44.2126504,13.2332204 C44.2126504,12.8033083 44.5629833,12.4547957 44.9951408,12.4547957 Z" id="Rectangle-Copy-7" fill-opacity="0.786276224" fill="#9EA0A5"></path>
                                    <path d="M19.9554496,12.4547957 L27.7803531,12.4547957 C28.2125106,12.4547957 28.5628435,12.8033083 28.5628435,13.2332204 L28.5628435,16.3469193 C28.5628435,16.7768315 28.2125106,17.1253441 27.7803531,17.1253441 L19.9554496,17.1253441 C19.5232922,17.1253441 19.1729593,16.7768315 19.1729593,16.3469193 L19.1729593,13.2332204 C19.1729593,12.8033083 19.5232922,12.4547957 19.9554496,12.4547957 Z" id="Rectangle-Copy-9" fill-opacity="0.786276224" fill="#9EA0A5"></path>
                                    <path d="M32.4752952,20.239043 L40.3001987,20.239043 C40.7323562,20.239043 41.082689,20.5875556 41.082689,21.0174677 L41.082689,24.1311666 C41.082689,24.5610788 40.7323562,24.9095914 40.3001987,24.9095914 L32.4752952,24.9095914 C32.0431377,24.9095914 31.6928049,24.5610788 31.6928049,24.1311666 L31.6928049,21.0174677 C31.6928049,20.5875556 32.0431377,20.239043 32.4752952,20.239043 Z" id="Rectangle" fill-opacity="0.786276224" fill="#9EA0A5"></path>
                                    <path d="M7.43560409,20.239043 L15.2605076,20.239043 C15.692665,20.239043 16.0429979,20.5875556 16.0429979,21.0174677 L16.0429979,24.1311666 C16.0429979,24.5610788 15.692665,24.9095914 15.2605076,24.9095914 L7.43560409,24.9095914 C7.0034466,24.9095914 6.65311374,24.5610788 6.65311374,24.1311666 L6.65311374,21.0174677 C6.65311374,20.5875556 7.0034466,20.239043 7.43560409,20.239043 Z" id="Rectangle-Copy-8" fill-opacity="0.786276224" fill="#9EA0A5"></path>
                                    <path d="M44.9951408,20.239043 L52.8200442,20.239043 C53.2522017,20.239043 53.6025346,20.5875556 53.6025346,21.0174677 L53.6025346,24.1311666 C53.6025346,24.5610788 53.2522017,24.9095914 52.8200442,24.9095914 L44.9951408,24.9095914 C44.5629833,24.9095914 44.2126504,24.5610788 44.2126504,24.1311666 L44.2126504,21.0174677 C44.2126504,20.5875556 44.5629833,20.239043 44.9951408,20.239043 Z" id="Rectangle-Copy-7" fill-opacity="0.786276224" fill="#9EA0A5"></path>
                                    <path d="M19.9554496,20.239043 L27.7803531,20.239043 C28.2125106,20.239043 28.5628435,20.5875556 28.5628435,21.0174677 L28.5628435,24.1311666 C28.5628435,24.5610788 28.2125106,24.9095914 27.7803531,24.9095914 L19.9554496,24.9095914 C19.5232922,24.9095914 19.1729593,24.5610788 19.1729593,24.1311666 L19.1729593,21.0174677 C19.1729593,20.5875556 19.5232922,20.239043 19.9554496,20.239043 Z" id="Rectangle-Copy-9" fill-opacity="0.786276224" fill="#9EA0A5"></path>
                                    <path d="M32.4752952,28.0232903 L40.3001987,28.0232903 C40.7323562,28.0232903 41.082689,28.3718029 41.082689,28.801715 L41.082689,31.915414 C41.082689,32.3453261 40.7323562,32.6938387 40.3001987,32.6938387 L32.4752952,32.6938387 C32.0431377,32.6938387 31.6928049,32.3453261 31.6928049,31.915414 L31.6928049,28.801715 C31.6928049,28.3718029 32.0431377,28.0232903 32.4752952,28.0232903 Z" id="Rectangle" fill-opacity="0.786276224" fill="#9EA0A5"></path>
                                    <path d="M7.43560409,28.0232903 L15.2605076,28.0232903 C15.692665,28.0232903 16.0429979,28.3718029 16.0429979,28.801715 L16.0429979,31.915414 C16.0429979,32.3453261 15.692665,32.6938387 15.2605076,32.6938387 L7.43560409,32.6938387 C7.0034466,32.6938387 6.65311374,32.3453261 6.65311374,31.915414 L6.65311374,28.801715 C6.65311374,28.3718029 7.0034466,28.0232903 7.43560409,28.0232903 Z" id="Rectangle-Copy-8" fill-opacity="0.786276224" fill="#9EA0A5"></path>
                                    <path d="M44.9951408,28.0232903 L52.8200442,28.0232903 C53.2522017,28.0232903 53.6025346,28.3718029 53.6025346,28.801715 L53.6025346,31.915414 C53.6025346,32.3453261 53.2522017,32.6938387 52.8200442,32.6938387 L44.9951408,32.6938387 C44.5629833,32.6938387 44.2126504,32.3453261 44.2126504,31.915414 L44.2126504,28.801715 C44.2126504,28.3718029 44.5629833,28.0232903 44.9951408,28.0232903 Z" id="Rectangle-Copy-7" fill-opacity="0.786276224" fill="#9EA0A5"></path>
                                    <path d="M19.9554496,28.0232903 L27.7803531,28.0232903 C28.2125106,28.0232903 28.5628435,28.3718029 28.5628435,28.801715 L28.5628435,31.915414 C28.5628435,32.3453261 28.2125106,32.6938387 27.7803531,32.6938387 L19.9554496,32.6938387 C19.5232922,32.6938387 19.1729593,32.3453261 19.1729593,31.915414 L19.1729593,28.801715 C19.1729593,28.3718029 19.5232922,28.0232903 19.9554496,28.0232903 Z" id="Rectangle-Copy-9" fill-opacity="0.786276224" fill="#9EA0A5"></path>
                                    <path d="M32.4752952,35.8075376 L40.3001987,35.8075376 C40.7323562,35.8075376 41.082689,36.1560502 41.082689,36.5859623 L41.082689,39.6996613 C41.082689,40.1295734 40.7323562,40.478086 40.3001987,40.478086 L32.4752952,40.478086 C32.0431377,40.478086 31.6928049,40.1295734 31.6928049,39.6996613 L31.6928049,36.5859623 C31.6928049,36.1560502 32.0431377,35.8075376 32.4752952,35.8075376 Z" id="Rectangle" fill-opacity="0.786276224" fill="#9EA0A5"></path>
                                    <path d="M7.43560409,35.8075376 L15.2605076,35.8075376 C15.692665,35.8075376 16.0429979,36.1560502 16.0429979,36.5859623 L16.0429979,39.6996613 C16.0429979,40.1295734 15.692665,40.478086 15.2605076,40.478086 L7.43560409,40.478086 C7.0034466,40.478086 6.65311374,40.1295734 6.65311374,39.6996613 L6.65311374,36.5859623 C6.65311374,36.1560502 7.0034466,35.8075376 7.43560409,35.8075376 Z" id="Rectangle-Copy-8" fill-opacity="0.786276224" fill="#9EA0A5"></path>
                                    <path d="M44.9951408,35.8075376 L52.8200442,35.8075376 C53.2522017,35.8075376 53.6025346,36.1560502 53.6025346,36.5859623 L53.6025346,39.6996613 C53.6025346,40.1295734 53.2522017,40.478086 52.8200442,40.478086 L44.9951408,40.478086 C44.5629833,40.478086 44.2126504,40.1295734 44.2126504,39.6996613 L44.2126504,36.5859623 C44.2126504,36.1560502 44.5629833,35.8075376 44.9951408,35.8075376 Z" id="Rectangle-Copy-7" fill-opacity="0.786276224" fill="#9EA0A5"></path>
                                    <path d="M19.9554496,35.8075376 L27.7803531,35.8075376 C28.2125106,35.8075376 28.5628435,36.1560502 28.5628435,36.5859623 L28.5628435,39.6996613 C28.5628435,40.1295734 28.2125106,40.478086 27.7803531,40.478086 L19.9554496,40.478086 C19.5232922,40.478086 19.1729593,40.1295734 19.1729593,39.6996613 L19.1729593,36.5859623 C19.1729593,36.1560502 19.5232922,35.8075376 19.9554496,35.8075376 Z" id="Rectangle-Copy-9" fill-opacity="0.786276224" fill="#9EA0A5"></path>
                                    <path d="M32.4752952,43.5917849 L40.3001987,43.5917849 C40.7323562,43.5917849 41.082689,43.9402975 41.082689,44.3702096 L41.082689,47.4839086 C41.082689,47.9138207 40.7323562,48.2623333 40.3001987,48.2623333 L32.4752952,48.2623333 C32.0431377,48.2623333 31.6928049,47.9138207 31.6928049,47.4839086 L31.6928049,44.3702096 C31.6928049,43.9402975 32.0431377,43.5917849 32.4752952,43.5917849 Z" id="Rectangle" fill-opacity="0.786276224" fill="#9EA0A5"></path>
                                    <path d="M7.43560409,43.5917849 L15.2605076,43.5917849 C15.692665,43.5917849 16.0429979,43.9402975 16.0429979,44.3702096 L16.0429979,47.4839086 C16.0429979,47.9138207 15.692665,48.2623333 15.2605076,48.2623333 L7.43560409,48.2623333 C7.0034466,48.2623333 6.65311374,47.9138207 6.65311374,47.4839086 L6.65311374,44.3702096 C6.65311374,43.9402975 7.0034466,43.5917849 7.43560409,43.5917849 Z" id="Rectangle-Copy-8" fill-opacity="0.786276224" fill="#9EA0A5"></path>
                                    <path d="M44.9951408,43.5917849 L52.8200442,43.5917849 C53.2522017,43.5917849 53.6025346,43.9402975 53.6025346,44.3702096 L53.6025346,47.4839086 C53.6025346,47.9138207 53.2522017,48.2623333 52.8200442,48.2623333 L44.9951408,48.2623333 C44.5629833,48.2623333 44.2126504,47.9138207 44.2126504,47.4839086 L44.2126504,44.3702096 C44.2126504,43.9402975 44.5629833,43.5917849 44.9951408,43.5917849 Z" id="Rectangle-Copy-7" fill-opacity="0.786276224" fill="#9EA0A5"></path>
                                    <path d="M19.9554496,43.5917849 L27.7803531,43.5917849 C28.2125106,43.5917849 28.5628435,43.9402975 28.5628435,44.3702096 L28.5628435,47.4839086 C28.5628435,47.9138207 28.2125106,48.2623333 27.7803531,48.2623333 L19.9554496,48.2623333 C19.5232922,48.2623333 19.1729593,47.9138207 19.1729593,47.4839086 L19.1729593,44.3702096 C19.1729593,43.9402975 19.5232922,43.5917849 19.9554496,43.5917849 Z" id="Rectangle-Copy-9" fill-opacity="0.786276224" fill="#9EA0A5"></path>
                                    <path d="M32.4752952,51.3760322 L40.3001987,51.3760322 C40.7323562,51.3760322 41.082689,51.7245448 41.082689,52.1544569 L41.082689,55.2681559 C41.082689,55.698068 40.7323562,56.0465806 40.3001987,56.0465806 L32.4752952,56.0465806 C32.0431377,56.0465806 31.6928049,55.698068 31.6928049,55.2681559 L31.6928049,52.1544569 C31.6928049,51.7245448 32.0431377,51.3760322 32.4752952,51.3760322 Z" id="Rectangle" fill-opacity="0.786276224" fill="#9EA0A5"></path>
                                    <path d="M7.43560409,51.3760322 L15.2605076,51.3760322 C15.692665,51.3760322 16.0429979,51.7245448 16.0429979,52.1544569 L16.0429979,55.2681559 C16.0429979,55.698068 15.692665,56.0465806 15.2605076,56.0465806 L7.43560409,56.0465806 C7.0034466,56.0465806 6.65311374,55.698068 6.65311374,55.2681559 L6.65311374,52.1544569 C6.65311374,51.7245448 7.0034466,51.3760322 7.43560409,51.3760322 Z" id="Rectangle-Copy-8" fill-opacity="0.786276224" fill="#9EA0A5"></path>
                                    <path d="M44.9951408,51.3760322 L52.8200442,51.3760322 C53.2522017,51.3760322 53.6025346,51.7245448 53.6025346,52.1544569 L53.6025346,55.2681559 C53.6025346,55.698068 53.2522017,56.0465806 52.8200442,56.0465806 L44.9951408,56.0465806 C44.5629833,56.0465806 44.2126504,55.698068 44.2126504,55.2681559 L44.2126504,52.1544569 C44.2126504,51.7245448 44.5629833,51.3760322 44.9951408,51.3760322 Z" id="Rectangle-Copy-7" fill-opacity="0.786276224" fill="#9EA0A5"></path>
                                    <path d="M19.9554496,51.3760322 L27.7803531,51.3760322 C28.2125106,51.3760322 28.5628435,51.7245448 28.5628435,52.1544569 L28.5628435,55.2681559 C28.5628435,55.698068 28.2125106,56.0465806 27.7803531,56.0465806 L19.9554496,56.0465806 C19.5232922,56.0465806 19.1729593,55.698068 19.1729593,55.2681559 L19.1729593,52.1544569 C19.1729593,51.7245448 19.5232922,51.3760322 19.9554496,51.3760322 Z" id="Rectangle-Copy-9" fill-opacity="0.786276224" fill="#9EA0A5"></path>
                                    <path d="M32.4752952,59.1602795 L40.3001987,59.1602795 C40.7323562,59.1602795 41.082689,59.5087921 41.082689,59.9387043 L41.082689,63.0524032 C41.082689,63.4823153 40.7323562,63.8308279 40.3001987,63.8308279 L32.4752952,63.8308279 C32.0431377,63.8308279 31.6928049,63.4823153 31.6928049,63.0524032 L31.6928049,59.9387043 C31.6928049,59.5087921 32.0431377,59.1602795 32.4752952,59.1602795 Z" id="Rectangle" fill-opacity="0.786276224" fill="#9EA0A5"></path>
                                    <path d="M7.43560409,59.1602795 L15.2605076,59.1602795 C15.692665,59.1602795 16.0429979,59.5087921 16.0429979,59.9387043 L16.0429979,63.0524032 C16.0429979,63.4823153 15.692665,63.8308279 15.2605076,63.8308279 L7.43560409,63.8308279 C7.0034466,63.8308279 6.65311374,63.4823153 6.65311374,63.0524032 L6.65311374,59.9387043 C6.65311374,59.5087921 7.0034466,59.1602795 7.43560409,59.1602795 Z" id="Rectangle-Copy-8" fill-opacity="0.786276224" fill="#9EA0A5"></path>
                                    <path d="M44.9951408,59.1602795 L52.8200442,59.1602795 C53.2522017,59.1602795 53.6025346,59.5087921 53.6025346,59.9387043 L53.6025346,63.0524032 C53.6025346,63.4823153 53.2522017,63.8308279 52.8200442,63.8308279 L44.9951408,63.8308279 C44.5629833,63.8308279 44.2126504,63.4823153 44.2126504,63.0524032 L44.2126504,59.9387043 C44.2126504,59.5087921 44.5629833,59.1602795 44.9951408,59.1602795 Z" id="Rectangle-Copy-7" fill-opacity="0.786276224" fill="#9EA0A5"></path>
                                    <path d="M19.9554496,59.1602795 L27.7803531,59.1602795 C28.2125106,59.1602795 28.5628435,59.5087921 28.5628435,59.9387043 L28.5628435,63.0524032 C28.5628435,63.4823153 28.2125106,63.8308279 27.7803531,63.8308279 L19.9554496,63.8308279 C19.5232922,63.8308279 19.1729593,63.4823153 19.1729593,63.0524032 L19.1729593,59.9387043 C19.1729593,59.5087921 19.5232922,59.1602795 19.9554496,59.1602795 Z" id="Rectangle-Copy-9" fill-opacity="0.786276224" fill="#9EA0A5"></path>
                                    <path d="M32.4752952,66.9445268 L40.3001987,66.9445268 C40.7323562,66.9445268 41.082689,67.2930395 41.082689,67.7229516 L41.082689,70.8366505 C41.082689,71.2665626 40.7323562,71.6150752 40.3001987,71.6150752 L32.4752952,71.6150752 C32.0431377,71.6150752 31.6928049,71.2665626 31.6928049,70.8366505 L31.6928049,67.7229516 C31.6928049,67.2930395 32.0431377,66.9445268 32.4752952,66.9445268 Z" id="Rectangle" fill-opacity="0.786276224" fill="#9EA0A5"></path>
                                    <path d="M7.43560409,66.9445268 L15.2605076,66.9445268 C15.692665,66.9445268 16.0429979,67.2930395 16.0429979,67.7229516 L16.0429979,70.8366505 C16.0429979,71.2665626 15.692665,71.6150752 15.2605076,71.6150752 L7.43560409,71.6150752 C7.0034466,71.6150752 6.65311374,71.2665626 6.65311374,70.8366505 L6.65311374,67.7229516 C6.65311374,67.2930395 7.0034466,66.9445268 7.43560409,66.9445268 Z" id="Rectangle-Copy-8" fill-opacity="0.786276224" fill="#9EA0A5"></path>
                                    <path d="M44.9951408,66.9445268 L52.8200442,66.9445268 C53.2522017,66.9445268 53.6025346,67.2930395 53.6025346,67.7229516 L53.6025346,70.8366505 C53.6025346,71.2665626 53.2522017,71.6150752 52.8200442,71.6150752 L44.9951408,71.6150752 C44.5629833,71.6150752 44.2126504,71.2665626 44.2126504,70.8366505 L44.2126504,67.7229516 C44.2126504,67.2930395 44.5629833,66.9445268 44.9951408,66.9445268 Z" id="Rectangle-Copy-7" fill-opacity="0.786276224" fill="#9EA0A5"></path>
                                    <path d="M19.9554496,66.9445268 L27.7803531,66.9445268 C28.2125106,66.9445268 28.5628435,67.2930395 28.5628435,67.7229516 L28.5628435,70.8366505 C28.5628435,71.2665626 28.2125106,71.6150752 27.7803531,71.6150752 L19.9554496,71.6150752 C19.5232922,71.6150752 19.1729593,71.2665626 19.1729593,70.8366505 L19.1729593,67.7229516 C19.1729593,67.2930395 19.5232922,66.9445268 19.9554496,66.9445268 Z" id="Rectangle-Copy-9" fill-opacity="0.786276224" fill="#9EA0A5"></path>
                                    <polygon id="Rectangle" fill="url(#linearGradient-28)" points="0.962274851 -1.84334491e-13 57.7283928 -1.84334491e-13 57.7283928 75.8327219 0.962274851 75.8327219"></polygon>
                                </g>
                            </g>
                            <polygon id="X" fill="#9EA0A5" fill-rule="nonzero" mask="url(#mask-26)" points="13.8344915 73.8594123 19.1548558 66.8143054 24.4752201 73.8594123 30.0146583 73.8594123 22.2844819 64.4701831 29.4669737 55.2338315 24.2404982 55.2338315 19.4052259 61.9349638 14.4760648 55.2338315 9.12440424 55.2338315 16.2286554 64.2536066 8.6393122 73.8594123"></polygon>
                        </g>
                        <g id="Trend" transform="translate(138.084291, 118.544061)">
                            <g id="base">
                                <g id="Path">
                                    <use fill="black" fill-opacity="1" filter="url(#filter-30)" xlink:href="#path-29"></use>
                                    <use fill="#D5D6DA" fill-rule="evenodd" xlink:href="#path-29"></use>
                                </g>
                                <g id="Path">
                                    <use fill="black" fill-opacity="1" filter="url(#filter-32)" xlink:href="#path-31"></use>
                                    <use fill="#D5D6DA" fill-rule="evenodd" xlink:href="#path-31"></use>
                                </g>
                                <path d="M6.67979565,-9.45305083e-15 L89.5092617,-9.45305083e-15 C93.198411,-9.45305083e-15 96.1890573,2.97819878 96.1890573,6.65199315 L96.1890573,15.7984837 L0,15.7984837 L0,6.65199315 C0,2.97819878 2.99064638,-9.45305083e-15 6.67979565,-9.45305083e-15 Z" id="Path-Copy" fill="#9EA0A5"></path>
                            </g>
                            <g id="lines" transform="translate(10.687673, 27.938371)" fill="#9EA0A5" fill-opacity="0.387155813" fill-rule="nonzero">
                                <path d="M73.8117419,35.5881634 C73.9961994,35.5881634 74.1457317,35.8115283 74.1457317,36.0870629 C74.1457317,36.3232353 74.0358712,36.5210791 73.8883227,36.572786 L73.8117419,36.5859623 L0,36.5859623 C-0.184457463,36.5859623 -0.333989782,36.3625974 -0.333989782,36.0870629 C-0.333989782,35.8508904 -0.224129303,35.6530466 -0.0765807928,35.6013397 L0,35.5881634 L73.8117419,35.5881634 Z" id="Line"></path>
                                <path d="M73.8117419,26.7742724 C73.9961994,26.7742724 74.1457317,26.9976373 74.1457317,27.2731719 C74.1457317,27.5093444 74.0358712,27.7071882 73.8883227,27.7588951 L73.8117419,27.7720714 L0,27.7720714 C-0.184457463,27.7720714 -0.333989782,27.5487065 -0.333989782,27.2731719 C-0.333989782,27.0369994 -0.224129303,26.8391557 -0.0765807928,26.7874487 L0,26.7742724 L73.8117419,26.7742724 Z" id="Line-Copy"></path>
                                <path d="M73.8117419,17.9603815 C73.9961994,17.9603815 74.1457317,18.1837464 74.1457317,18.459281 C74.1457317,18.6954535 74.0358712,18.8932973 73.8883227,18.9450042 L73.8117419,18.9581805 L0,18.9581805 C-0.184457463,18.9581805 -0.333989782,18.7348156 -0.333989782,18.459281 C-0.333989782,18.2231085 -0.224129303,18.0252647 -0.0765807928,17.9735578 L0,17.9603815 L73.8117419,17.9603815 Z" id="Line-Copy-2"></path>
                                <path d="M73.8117419,9.14649058 C73.9961994,9.14649058 74.1457317,9.36985549 74.1457317,9.64539007 C74.1457317,9.88156257 74.0358712,10.0794063 73.8883227,10.1311133 L73.8117419,10.1442896 L0,10.1442896 C-0.184457463,10.1442896 -0.333989782,9.92092465 -0.333989782,9.64539007 C-0.333989782,9.40921758 -0.224129303,9.21137382 -0.0765807928,9.15966688 L0,9.14649058 L73.8117419,9.14649058 Z" id="Line-Copy-3"></path>
                                <path d="M73.8117419,0.332599658 C73.9961994,0.332599658 74.1457317,0.555964566 74.1457317,0.831499144 C74.1457317,1.06767164 74.0358712,1.2655154 73.8883227,1.31722234 L73.8117419,1.33039863 L0,1.33039863 C-0.184457463,1.33039863 -0.333989782,1.10703372 -0.333989782,0.831499144 C-0.333989782,0.595326649 -0.224129303,0.39748289 -0.0765807928,0.345775949 L0,0.332599658 L73.8117419,0.332599658 Z" id="Line-Copy-4"></path>
                            </g>
                            <g id="Group" transform="translate(30.727060, 69.180729)">
                                <path d="M5.34383652,0 L13.3595913,0 C14.0974212,0 14.6955504,0.595639756 14.6955504,1.33039863 C14.6955504,2.06515751 14.0974212,2.66079726 13.3595913,2.66079726 L5.34383652,2.66079726 C4.60600667,2.66079726 4.00787739,2.06515751 4.00787739,1.33039863 C4.00787739,0.595639756 4.60600667,0 5.34383652,0 Z" id="Rectangle-Copy-2" fill-opacity="0.35" fill="#67696F"></path>
                                <path d="M25.3832235,0 L33.3989782,0 C34.1368081,0 34.7349374,0.595639756 34.7349374,1.33039863 C34.7349374,2.06515751 34.1368081,2.66079726 33.3989782,2.66079726 L25.3832235,2.66079726 C24.6453936,2.66079726 24.0472643,2.06515751 24.0472643,1.33039863 C24.0472643,0.595639756 24.6453936,0 25.3832235,0 Z" id="Rectangle-Copy-5" fill-opacity="0.35" fill="#67696F"></path>
                                <path d="M1.33595913,0 C2.07378898,0 2.67191826,0.595639756 2.67191826,1.33039863 C2.67191826,2.06515751 2.07378898,2.66079726 1.33595913,2.66079726 C0.598129276,2.66079726 0,2.06515751 0,1.33039863 C0,0.595639756 0.598129276,0 1.33595913,0 Z" id="Rectangle-Copy-4" fill="#DFE0E1" opacity="0.647623698"></path>
                                <path d="M21.3753461,0 C22.1131759,0 22.7113052,0.595639756 22.7113052,1.33039863 C22.7113052,2.06515751 22.1131759,2.66079726 21.3753461,2.66079726 C20.6375162,2.66079726 20.0393869,2.06515751 20.0393869,1.33039863 C20.0393869,0.595639756 20.6375162,0 21.3753461,0 Z" id="Rectangle-Copy-6" fill="#ACAEB2" opacity="0.647623698"></path>
                            </g>
                            <path d="M77.1516397,47.0961115 C72.3010679,47.0961115 68.8849725,43.4003104 65.7429552,36.4349211 L65.3227356,35.4759096 C65.2189114,35.1691362 61.7467342,26.3371852 60.9437782,25.1981731 C60.5909583,24.6976899 60.3001504,24.4793348 60.0894586,24.4793348 C59.0850938,24.4793348 57.9135702,26.5523645 56.2604513,30.9667527 L54.796681,34.9849756 L54.4938766,35.7847273 C54.2041681,36.5348401 53.9508828,37.1420921 53.708238,37.6609831 C53.316363,38.4989996 52.9587865,39.0901437 52.595473,39.4570722 C52.0816645,39.975993 51.4677449,40.0951747 50.9301425,39.6595244 C50.4661471,39.2835221 50.0457203,38.8458517 49.5213167,38.2185519 L49.1618488,37.7793596 C48.9801277,37.5539468 48.6733737,37.1729004 48.5687185,37.0457676 C48.3077095,36.7286996 48.0992017,36.4918777 47.9025945,36.2937108 C47.019786,35.4038989 46.4842918,35.3535701 45.6542235,36.2759257 C45.2924344,36.6779388 44.8040299,37.5727678 44.1207769,39.0617647 L43.6201533,40.1823341 C43.0552929,41.4782536 41.7079774,44.6108861 41.266787,45.6007147 L40.7956658,46.643923 C39.0190257,50.5231344 37.5699176,53.0334607 36.1136767,54.4605059 C35.0322612,55.5202405 33.945724,55.9360975 32.880001,55.5445004 C31.1633513,54.9137219 29.9754148,53.7430809 27.8313608,50.8912876 L27.0981692,49.9034628 C24.3862995,46.2282529 22.9760638,44.9342137 21.0413563,44.9342137 C18.131452,44.9342137 14.7678452,49.9459617 11.1914226,60.0065514 C11.0929327,60.2836066 10.7875545,60.4286947 10.5093413,60.3306148 C10.231128,60.2325348 10.0854335,59.9284276 10.1839234,59.6513723 L10.5906842,58.5257491 C14.1770448,48.7662438 17.5887514,43.8698948 21.0413563,43.8698948 C23.3112573,43.8698948 24.8251852,45.1247037 27.4089789,48.5363178 L28.6820143,50.2466707 C30.6946361,52.9225007 31.795613,54.0115844 33.2499759,54.5459863 C33.8540663,54.7679578 34.5466807,54.5028692 35.3640449,53.7018921 C36.7583676,52.3355237 38.2276175,49.7392973 40.0590857,45.683513 L40.6481668,44.3535388 C41.3453346,42.7549241 42.558188,39.9346822 42.8389752,39.3047637 L43.1620763,38.5898208 C43.8857476,37.0133661 44.4044713,36.0698995 44.8583122,35.5656003 C46.1425715,34.1385564 47.3824391,34.2550864 48.6628751,35.5456802 C48.8419587,35.7261844 49.0239366,35.9282944 49.2330006,36.1761612 L50.1198673,37.2673176 L50.5378017,37.7673915 C50.9312317,38.2232922 51.2600792,38.5547119 51.6047207,38.8339948 C51.6581948,38.8773279 51.6710305,38.8748361 51.8344421,38.7097985 C52.0908601,38.4508293 52.3951822,37.9477251 52.7393714,37.2116834 C52.9710019,36.7163465 53.2162304,36.12813 53.4987267,35.3964673 L55.2604465,30.5886566 C57.1508971,25.5141962 58.368581,23.4150159 60.0894586,23.4150159 C60.731895,23.4150159 61.2857143,23.8308549 61.8185138,24.5866435 C62.7250351,25.8725653 66.4297514,35.3164141 66.3111671,35.0741717 L66.5106803,35.5337125 L66.9363358,36.4762689 C69.7827384,42.6159213 72.8166204,45.8708492 76.8474459,46.0259738 L77.1516397,46.0317926 L86.0466476,46.0317926 L86.0466476,47.0961115 L77.1516397,47.0961115 Z" id="Path-11" fill="#7B7D82" fill-rule="nonzero"></path>
                            <path d="M62.3354031,45.425468 L62.4305375,44.9008222 C64.1082945,35.4579694 69.4474267,33.9113084 71.1147861,41.4857455 L71.1795048,41.7935905 C72.2483892,47.1224546 75.2392203,51.0614948 78.536627,53.2838944 C79.7413613,54.0958662 82.0727617,54.5228449 85.5013843,54.5228449 C85.7965162,54.5228449 86.035768,54.7611008 86.035768,55.0550043 C86.035768,55.3489079 85.7965162,55.5871638 85.5013843,55.5871638 C81.8762123,55.5871638 79.3647609,55.1272101 77.937586,54.1653169 C74.5368544,51.8732779 71.4649708,47.8980322 70.2470023,42.5422387 L70.1314417,42.0020687 C68.8430929,35.5790772 65.1234017,36.4716247 63.5538553,44.7012202 L63.4829582,45.0862575 C61.5825925,55.78201 58.4038877,60.3708823 51.7971185,60.3708823 C47.6846363,60.3708823 45.1257517,58.7640404 43.0639812,55.7284379 L42.8741547,55.4381073 C42.4009647,54.6965429 41.5729313,53.3073282 41.3163594,52.9025286 L40.4173652,51.554676 C40.3231361,51.4165356 40.2342589,51.2881483 40.1455697,51.1621796 C38.215789,48.4212359 36.4297204,47.1058725 33.8167916,47.1058725 C31.9833731,47.1058725 30.3836521,48.7082796 27.5329762,52.8771003 L25.7186694,55.5348542 C25.2452465,56.210882 24.9490301,56.5997087 24.5306485,57.1176448 C24.0499539,57.7127213 23.5976212,58.20575 23.1549271,58.6078694 C20.7414832,60.8001116 16.6128531,62.3028053 10.7644159,63.147965 C10.4723432,63.1901725 10.2012126,62.9886023 10.1588286,62.6977452 C10.1164447,62.4068882 10.3188574,62.136886 10.6109301,62.0946785 C16.2673103,61.277273 20.2100999,59.8422195 22.4346782,57.8215327 C22.7529842,57.5324007 23.0832415,57.1839927 23.4323797,56.7717539 L23.9620436,56.1194729 C24.439907,55.5115817 24.8365943,54.9490442 25.8056338,53.5219656 L26.3757185,52.6806826 C29.6367143,47.861861 31.3908573,46.0415536 33.8167916,46.0415536 C36.8561432,46.0415536 38.9112166,47.5550276 41.0206746,50.551174 L41.450081,51.1759376 L42.1605829,52.2423637 C42.3664078,52.5497194 43.4093724,54.3067599 43.8661475,55.0069476 L43.9492649,55.1321511 C45.8262289,57.8956577 48.0730863,59.3065634 51.7971185,59.3065634 C57.6273618,59.3065634 60.5095119,55.290922 62.3354031,45.425468 Z" id="Path-12" fill-opacity="0.851207386" fill="#9EA0A5" fill-rule="nonzero"></path>
                        </g>
                        <g id="Pages" transform="translate(27.356322, 22.145594)">
                            <g id="Rectangle-Copy-11" transform="translate(40.699268, 39.849666) rotate(-57.000000) translate(-40.699268, -39.849666) ">
                                <use fill="black" fill-opacity="1" filter="url(#filter-34)" xlink:href="#path-33"></use>
                                <use fill="#CCCED3" fill-rule="evenodd" xlink:href="#path-33"></use>
                            </g>
                            <g id="Rectangle-Copy-11" transform="translate(40.699268, 39.849666) rotate(-30.000000) translate(-40.699268, -39.849666) ">
                                <use fill="black" fill-opacity="1" filter="url(#filter-36)" xlink:href="#path-35"></use>
                                <use fill="#CCCED3" fill-rule="evenodd" xlink:href="#path-35"></use>
                            </g>
                        </g>
                        <g id="doc" transform="translate(235.785441, 85.977011)">
                            <g id="Rectangle-Copy-11" transform="translate(44.533265, 45.382400) rotate(32.000000) translate(-44.533265, -45.382400) ">
                                <use fill="black" fill-opacity="1" filter="url(#filter-38)" xlink:href="#path-37"></use>
                                <use fill="#D5D6DA" fill-rule="evenodd" xlink:href="#path-37"></use>
                            </g>
                            <g id="Rectangle-Copy-12" transform="translate(56.715506, 29.130793) scale(-1, -1) rotate(27.000000) translate(-56.715506, -29.130793) ">
                                <use fill="black" fill-opacity="1" filter="url(#filter-40)" xlink:href="#path-39"></use>
                                <use fill="#B0B2B6" fill-rule="evenodd" xlink:href="#path-39"></use>
                            </g>
                        </g>
                    </g>
                </g>
            </g>
        </g>
    </g>
</svg>
