<?xml version="1.0" encoding="UTF-8"?>
<svg width="271px" height="169px" viewBox="0 0 271 169" version="1.1" xmlns="http://www.w3.org/2000/svg" xmlns:xlink="http://www.w3.org/1999/xlink">
    <defs>
        <path d="M21.5553674,2.86039798 L41.6786747,20.6655185 C42.4032771,22.9363555 41.241725,26.7924419 38.1940184,32.2337777 C35.2215931,37.5407074 30.2296566,41.158933 23.218209,43.0884545 C22.8855131,43.1799755 22.5290855,43.0983053 22.2694537,42.8710302 L2.72306918,25.7606192 C2.63752211,25.6859885 2.62889217,25.5561241 2.70366727,25.4707034 C2.73899277,25.4303487 2.78869142,25.4053985 2.84215707,25.4011775 C8.70926932,24.9379766 13.5178793,21.8952313 17.2679869,16.2729415 C21.1224733,10.4941636 22.5516001,6.02331576 21.5553674,2.86039798 Z" id="path-1"></path>
        <filter x="-10.2%" y="-5.0%" width="120.4%" height="119.9%" filterUnits="objectBoundingBox" id="filter-2">
            <feOffset dx="0" dy="2" in="SourceAlpha" result="shadowOffsetOuter1"></feOffset>
            <feGaussianBlur stdDeviation="1" in="shadowOffsetOuter1" result="shadowBlurOuter1"></feGaussianBlur>
            <feColorMatrix values="0 0 0 0 0   0 0 0 0 0   0 0 0 0 0  0 0 0 0.05 0" type="matrix" in="shadowBlurOuter1"></feColorMatrix>
        </filter>
        <path d="M20.9975806,9.40536328 L41.4440987,18.6196789 L41.4440987,18.6196789 C41.8958223,18.9933472 42.2780486,19.4870638 42.5907774,20.1008287 C42.9035063,20.7145937 42.8914805,21.5504126 42.5547002,22.6082855 L16.7902455,15.9255571 C19.9162137,16.0100604 20.9860596,14.5931072 19.9997831,11.6746976 C19.8755087,11.3069672 19.7573759,10.9668934 19.6453849,10.6544762 C19.4590537,10.13459 19.7294237,9.56207371 20.2493002,9.37571553 C20.4931517,9.288303 20.7614094,9.29893169 20.9975806,9.40536328 Z" id="path-3"></path>
        <filter x="-17.3%" y="-15.0%" width="126.9%" height="139.0%" filterUnits="objectBoundingBox" id="filter-4">
            <feOffset dx="-1" dy="0" in="SourceAlpha" result="shadowOffsetOuter1"></feOffset>
            <feGaussianBlur stdDeviation="1" in="shadowOffsetOuter1" result="shadowBlurOuter1"></feGaussianBlur>
            <feColorMatrix values="0 0 0 0 0   0 0 0 0 0   0 0 0 0 0  0 0 0 0.07 0" type="matrix" in="shadowBlurOuter1"></feColorMatrix>
        </filter>
        <path d="M2.08694268,1.85243392 L32.0994222,1.85243392 C32.6017081,1.85243392 33.0088912,2.25586425 33.0088912,2.75352079 L33.0088912,45.1046037 C33.0088912,45.6022603 32.6017081,46.0056906 32.0994222,46.0056906 L2.08694268,46.0056906 C1.58465678,46.0056906 1.1774736,45.6022603 1.1774736,45.1046037 L1.1774736,2.75352079 C1.1774736,2.25586425 1.58465678,1.85243392 2.08694268,1.85243392 Z" id="path-5"></path>
        <filter x="-48.7%" y="-26.0%" width="197.4%" height="170.2%" filterUnits="objectBoundingBox" id="filter-6">
            <feOffset dx="0" dy="4" in="SourceAlpha" result="shadowOffsetOuter1"></feOffset>
            <feGaussianBlur stdDeviation="4.5" in="shadowOffsetOuter1" result="shadowBlurOuter1"></feGaussianBlur>
            <feColorMatrix values="0 0 0 0 0   0 0 0 0 0   0 0 0 0 0  0 0 0 0.07 0" type="matrix" in="shadowBlurOuter1"></feColorMatrix>
        </filter>
        <linearGradient x1="50%" y1="1.00031672%" x2="50%" y2="99.3243243%" id="linearGradient-7">
            <stop stop-color="#FFFFFF" stop-opacity="0" offset="0%"></stop>
            <stop stop-color="#FFFFFF" offset="100%"></stop>
        </linearGradient>
        <linearGradient x1="50%" y1="0%" x2="50%" y2="100%" id="linearGradient-8">
            <stop stop-color="#FFFFFF" offset="0%"></stop>
            <stop stop-color="#FFFFFF" offset="100%"></stop>
        </linearGradient>
        <path d="M115.895402,67.7701149 L142.071949,67.7701149 C142.62424,67.7701031 143.071961,68.2178236 143.071961,68.7701149 C143.071961,68.931055 143.033117,69.0896177 142.958728,69.2323343 C139.888686,75.1222846 138.353665,81.2152787 138.353665,87.5113164 C138.353665,93.7763943 139.873626,99.7100558 142.91355,105.312301 C143.176995,105.797726 142.997005,106.404793 142.511563,106.668206 C142.365144,106.747657 142.201197,106.789272 142.034611,106.789272 L115.827531,106.789272 C115.478834,106.789254 115.155319,106.607615 114.973772,106.309907 C111.571079,100.730027 109.869732,94.7791809 109.869732,88.4573688 C109.869732,82.1225509 111.578086,75.415239 114.994795,68.3354331 C115.161654,67.9897942 115.511595,67.7701149 115.895402,67.7701149 Z" id="path-9"></path>
        <filter x="-35.4%" y="-20.5%" width="157.0%" height="151.3%" filterUnits="objectBoundingBox" id="filter-10">
            <feOffset dx="-2" dy="2" in="SourceAlpha" result="shadowOffsetOuter1"></feOffset>
            <feGaussianBlur stdDeviation="3" in="shadowOffsetOuter1" result="shadowBlurOuter1"></feGaussianBlur>
            <feColorMatrix values="0 0 0 0 0   0 0 0 0 0   0 0 0 0 0  0 0 0 0.05 0" type="matrix" in="shadowBlurOuter1"></feColorMatrix>
        </filter>
        <path d="M5.83659008,0 L62.1832142,0 C64.6928417,0 66.7272968,2.0292134 66.7272968,4.532375 C66.7272968,7.3776993 66.7272968,9.45503784 66.7272968,10.7643906 C66.7272968,19.3255434 66.7272968,32.0539632 66.7272968,48.9496499 C66.7272968,51.4528115 64.6928417,53.4820249 62.1832142,53.4820249 L5.83659008,53.4820249 C3.32696257,53.4820249 1.29250749,51.4528115 1.29250749,48.9496499 C1.29250749,31.902884 1.29250749,19.1744642 1.29250749,10.7643906 C1.29250749,9.30395867 1.29250749,7.22662013 1.29250749,4.532375 C1.29250749,2.0292134 3.32696257,0 5.83659008,0 Z" id="path-11"></path>
        <filter x="-23.7%" y="-21.5%" width="147.4%" height="158.0%" filterUnits="objectBoundingBox" id="filter-12">
            <feOffset dx="0" dy="4" in="SourceAlpha" result="shadowOffsetOuter1"></feOffset>
            <feGaussianBlur stdDeviation="4.5" in="shadowOffsetOuter1" result="shadowBlurOuter1"></feGaussianBlur>
            <feColorMatrix values="0 0 0 0 0   0 0 0 0 0   0 0 0 0 0  0 0 0 0.07 0" type="matrix" in="shadowBlurOuter1"></feColorMatrix>
        </filter>
        <path d="M4.54408259,0 L60.8907067,0 C63.4003342,0 65.4347893,2.0292134 65.4347893,4.532375 C65.4347893,7.3776993 65.4347893,9.45503784 65.4347893,10.7643906 C65.4347893,19.3255434 65.4347893,32.0539632 65.4347893,48.9496499 C65.4347893,51.4528115 63.4003342,53.4820249 60.8907067,53.4820249 L4.54408259,53.4820249 C2.03445507,53.4820249 0,51.4528115 0,48.9496499 C0,31.902884 0,19.1744642 0,10.7643906 C0,9.30395867 0,7.22662013 0,4.532375 C0,2.0292134 2.03445507,0 4.54408259,0 Z" id="path-13"></path>
        <filter x="-23.7%" y="-21.5%" width="147.4%" height="158.0%" filterUnits="objectBoundingBox" id="filter-14">
            <feOffset dx="0" dy="4" in="SourceAlpha" result="shadowOffsetOuter1"></feOffset>
            <feGaussianBlur stdDeviation="4.5" in="shadowOffsetOuter1" result="shadowBlurOuter1"></feGaussianBlur>
            <feColorMatrix values="0 0 0 0 0   0 0 0 0 0   0 0 0 0 0  0 0 0 0.07 0" type="matrix" in="shadowBlurOuter1"></feColorMatrix>
        </filter>
        <path d="M7.4313944,1.14958237 L34.1782776,1.14958237 C35.2828471,1.14958237 36.1782776,2.04501287 36.1782776,3.14958237 L36.1782776,47.4101188 C36.1782776,48.5146883 35.2828471,49.4101188 34.1782776,49.4101188 L3.26640018,49.4101188 C2.16183068,49.4101188 1.26640018,48.5146883 1.26640018,47.4101188 L1.26640018,6.62098039 L1.26640018,6.62098039 L7.4313944,1.14958237 Z" id="path-15"></path>
        <filter x="-44.4%" y="-23.8%" width="188.8%" height="164.2%" filterUnits="objectBoundingBox" id="filter-17">
            <feOffset dx="0" dy="4" in="SourceAlpha" result="shadowOffsetOuter1"></feOffset>
            <feGaussianBlur stdDeviation="4.5" in="shadowOffsetOuter1" result="shadowBlurOuter1"></feGaussianBlur>
            <feColorMatrix values="0 0 0 0 0   0 0 0 0 0   0 0 0 0 0  0 0 0 0.07 0" type="matrix" in="shadowBlurOuter1"></feColorMatrix>
        </filter>
        <path d="M6.04872615,4.43350965 L9.16807383,7.14511722 L9.16807383,7.14511722 L0.826824548,7.19066931 L3.27713358,4.57547345 C4.01252919,3.79059141 5.23698468,3.72787355 6.04872615,4.43350965 Z" id="path-18"></path>
        <filter x="-6.0%" y="-18.1%" width="112.0%" height="130.5%" filterUnits="objectBoundingBox" id="filter-19">
            <feOffset dx="0" dy="-1" in="SourceAlpha" result="shadowOffsetOuter1"></feOffset>
            <feColorMatrix values="0 0 0 0 0   0 0 0 0 0   0 0 0 0 0  0 0 0 0.02 0" type="matrix" in="shadowOffsetOuter1"></feColorMatrix>
        </filter>
        <path d="M1.66166114,2.13362089 L41.3555856,2.13362089 C42.0198992,2.13362089 42.5584318,2.67778274 42.5584318,3.3490404 L42.5584318,60.4737569 C42.5584318,61.1450146 42.0198992,61.6891764 41.3555856,61.6891764 L1.66166114,61.6891764 C0.997347527,61.6891764 0.458814942,61.1450146 0.458814942,60.4737569 L0.458814942,3.3490404 C0.458814942,2.67778274 0.997347527,2.13362089 1.66166114,2.13362089 Z" id="path-20"></path>
        <filter x="-36.8%" y="-19.3%" width="173.6%" height="152.1%" filterUnits="objectBoundingBox" id="filter-21">
            <feOffset dx="0" dy="4" in="SourceAlpha" result="shadowOffsetOuter1"></feOffset>
            <feGaussianBlur stdDeviation="4.5" in="shadowOffsetOuter1" result="shadowBlurOuter1"></feGaussianBlur>
            <feColorMatrix values="0 0 0 0 0   0 0 0 0 0   0 0 0 0 0  0 0 0 0.07 0" type="matrix" in="shadowBlurOuter1"></feColorMatrix>
        </filter>
        <linearGradient x1="50%" y1="1.00031672%" x2="50%" y2="99.3243243%" id="linearGradient-22">
            <stop stop-color="#FFFFFF" stop-opacity="0" offset="0%"></stop>
            <stop stop-color="#FFFFFF" offset="100%"></stop>
        </linearGradient>
        <path d="M6.83032414,0 L71.9811083,0 C74.8828651,0 77.2352038,2.34752139 77.2352038,5.24333578 C77.2352038,8.53498546 77.2352038,10.938181 77.2352038,12.4529225 C77.2352038,22.3570012 77.2352038,37.0820358 77.2352038,56.6280264 C77.2352038,59.5238408 74.8828651,61.8713622 71.9811083,61.8713622 L6.83032414,61.8713622 C3.92856733,61.8713622 1.57622865,59.5238408 1.57622865,56.6280264 C1.57622865,36.907258 1.57622865,22.1822233 1.57622865,12.4529225 C1.57622865,10.7634032 1.57622865,8.3602076 1.57622865,5.24333578 C1.57622865,2.34752139 3.92856733,0 6.83032414,0 Z" id="path-23"></path>
        <filter x="-20.5%" y="-18.6%" width="141.0%" height="150.1%" filterUnits="objectBoundingBox" id="filter-24">
            <feOffset dx="0" dy="4" in="SourceAlpha" result="shadowOffsetOuter1"></feOffset>
            <feGaussianBlur stdDeviation="4.5" in="shadowOffsetOuter1" result="shadowBlurOuter1"></feGaussianBlur>
            <feColorMatrix values="0 0 0 0 0   0 0 0 0 0   0 0 0 0 0  0 0 0 0.07 0" type="matrix" in="shadowBlurOuter1"></feColorMatrix>
        </filter>
        <path d="M5.2540955,0 L70.4048796,0 C73.3066365,0 75.6589751,2.34752139 75.6589751,5.24333578 C75.6589751,8.53498546 75.6589751,10.938181 75.6589751,12.4529225 C75.6589751,22.3570012 75.6589751,37.0820358 75.6589751,56.6280264 C75.6589751,59.5238408 73.3066365,61.8713622 70.4048796,61.8713622 L5.2540955,61.8713622 C2.35233868,61.8713622 0,59.5238408 0,56.6280264 C0,36.907258 0,22.1822233 0,12.4529225 C0,10.7634032 0,8.3602076 0,5.24333578 C0,2.34752139 2.35233868,0 5.2540955,0 Z" id="path-25"></path>
        <filter x="-20.5%" y="-18.6%" width="141.0%" height="150.1%" filterUnits="objectBoundingBox" id="filter-26">
            <feOffset dx="0" dy="4" in="SourceAlpha" result="shadowOffsetOuter1"></feOffset>
            <feGaussianBlur stdDeviation="4.5" in="shadowOffsetOuter1" result="shadowBlurOuter1"></feGaussianBlur>
            <feColorMatrix values="0 0 0 0 0   0 0 0 0 0   0 0 0 0 0  0 0 0 0.07 0" type="matrix" in="shadowBlurOuter1"></feColorMatrix>
        </filter>
        <linearGradient x1="50%" y1="0%" x2="50%" y2="100%" id="linearGradient-27">
            <stop stop-color="#FFFFFF" offset="0%"></stop>
            <stop stop-color="#FFFFFF" offset="100%"></stop>
        </linearGradient>
        <path d="M4.4044093,29.5528615 L22.1469352,2.23176756 C22.4558169,1.75619486 23.0917347,1.62102638 23.5673262,1.92987913 C23.7062957,2.02012698 23.8213592,2.14266746 23.9026908,2.2870363 C28.0069767,9.57240427 33.3839163,15.3742364 40.0335096,19.6925328 C46.6560345,23.9932507 53.9695084,26.4514378 61.9739313,27.0670941 C62.539328,27.1106297 62.962422,27.6042309 62.9189345,28.1696313 C62.9057637,28.3408713 62.8498492,28.506072 62.7563097,28.6501101 L44.9969716,55.9970926 C44.8013616,56.2982376 44.4626576,56.4753454 44.1037345,56.4646311 C35.9734566,56.2100397 28.6009687,53.9351779 21.9862708,49.6395428 C15.3602101,45.3365287 9.49454504,39.0057927 4.38927568,30.647335 C4.18324615,30.3100061 4.18912943,29.8843634 4.4044093,29.5528615 Z" id="path-28"></path>
        <filter x="-20.4%" y="-14.6%" width="134.1%" height="136.6%" filterUnits="objectBoundingBox" id="filter-29">
            <feOffset dx="-2" dy="2" in="SourceAlpha" result="shadowOffsetOuter1"></feOffset>
            <feGaussianBlur stdDeviation="3" in="shadowOffsetOuter1" result="shadowBlurOuter1"></feGaussianBlur>
            <feColorMatrix values="0 0 0 0 0   0 0 0 0 0   0 0 0 0 0  0 0 0 0.05 0" type="matrix" in="shadowBlurOuter1"></feColorMatrix>
        </filter>
        <linearGradient x1="50%" y1="0%" x2="50%" y2="100%" id="linearGradient-30">
            <stop stop-color="#FFFFFF" offset="0%"></stop>
            <stop stop-color="#FFFFFF" offset="100%"></stop>
        </linearGradient>
        <path d="M8.26447139,17.1906495 L36.4766948,0.902314748 C36.9678159,0.618805757 37.595788,0.787070364 37.8793269,1.27817422 C37.962178,1.42167648 38.0090681,1.58309856 38.015993,1.74865594 C38.3654507,10.1032731 40.5223623,17.713823 44.4867278,24.5803054 C48.4349556,31.4188365 53.8353149,36.9293449 60.6878059,41.1118306 C61.1718133,41.4073058 61.3247026,42.0391884 61.0292685,42.5232209 C60.9397919,42.6698174 60.8149721,42.7916277 60.6662359,42.8775006 L32.4272796,59.1812696 C32.1162728,59.3607867 31.73408,59.3648224 31.4193697,59.1918802 C24.2905929,55.2744168 18.7544237,49.9004606 14.8108622,43.0700117 C10.8605264,36.2278294 8.50827457,27.9241462 7.75410668,18.158962 C7.72367714,17.7648643 7.92215689,17.3882849 8.26447139,17.1906495 Z" id="path-31"></path>
        <filter x="-22.5%" y="-13.7%" width="137.4%" height="134.2%" filterUnits="objectBoundingBox" id="filter-32">
            <feOffset dx="-2" dy="2" in="SourceAlpha" result="shadowOffsetOuter1"></feOffset>
            <feGaussianBlur stdDeviation="3" in="shadowOffsetOuter1" result="shadowBlurOuter1"></feGaussianBlur>
            <feColorMatrix values="0 0 0 0 0   0 0 0 0 0   0 0 0 0 0  0 0 0 0.05 0" type="matrix" in="shadowBlurOuter1"></feColorMatrix>
        </filter>
        <path d="M32.3330511,4.29059697 L62.518012,30.9982777 C63.6049157,34.4045333 61.8625876,40.1886629 57.2910277,48.3506666 C52.871523,56.2411929 45.4756939,61.6429331 35.1035404,64.5558872 C34.4354381,64.7435159 33.7177669,64.5810509 33.195614,64.1239715 L5.31886789,39.7213724 C4.89218005,39.3478398 4.84907127,38.6991341 5.22259208,38.2724359 C5.38597723,38.0857899 5.61140567,37.9645996 5.85721089,37.9312648 C13.9386204,36.8353072 20.6202102,32.328023 25.9019804,24.4094123 C31.68371,15.7412454 33.8274002,9.03497363 32.3330511,4.29059697 Z" id="path-33"></path>
        <filter x="-26.8%" y="-19.1%" width="153.6%" height="151.4%" filterUnits="objectBoundingBox" id="filter-34">
            <feOffset dx="0" dy="4" in="SourceAlpha" result="shadowOffsetOuter1"></feOffset>
            <feGaussianBlur stdDeviation="4.5" in="shadowOffsetOuter1" result="shadowBlurOuter1"></feGaussianBlur>
            <feColorMatrix values="0 0 0 0 0   0 0 0 0 0   0 0 0 0 0  0 0 0 0.05 0" type="matrix" in="shadowBlurOuter1"></feColorMatrix>
        </filter>
        <path d="M30.4083809,13.6177373 L62.166148,27.9295183 L62.166148,27.9295183 C62.8437335,28.4900208 63.4170729,29.2305957 63.8861661,30.1512431 C64.3552594,31.0718905 64.3372208,32.3256189 63.8320504,33.9124282 L25.1853682,23.8883356 C29.8743206,24.0150906 31.4790894,21.8896608 29.9996747,17.5120464 C29.6563601,16.4961724 29.3442933,15.6210094 29.0634743,14.8865574 C28.8662513,14.3706971 29.1245412,13.7926214 29.6403958,13.5953835 C29.8891539,13.5002705 30.1655762,13.5083163 30.4083809,13.6177373 Z" id="path-35"></path>
        <filter x="-19.2%" y="-22.7%" width="128.2%" height="143.3%" filterUnits="objectBoundingBox" id="filter-36">
            <feOffset dx="-2" dy="-1" in="SourceAlpha" result="shadowOffsetOuter1"></feOffset>
            <feGaussianBlur stdDeviation="1.5" in="shadowOffsetOuter1" result="shadowBlurOuter1"></feGaussianBlur>
            <feColorMatrix values="0 0 0 0 0   0 0 0 0 0   0 0 0 0 0  0 0 0 0.07 0" type="matrix" in="shadowBlurOuter1"></feColorMatrix>
        </filter>
    </defs>
    <g id="In-App-generic-empty-states" stroke="none" stroke-width="1" fill="none" fill-rule="evenodd">
        <g id="Generic-Empty-State_Too-much-data-" transform="translate(-83.000000, -598.000000)">
            <g id="Bright" transform="translate(81.000000, 71.000000)">
                <g id="Too-much-data_M" transform="translate(0.000000, 486.000000)">
                    <g id="Too-much-data_M-drawing" transform="translate(2.000000, 41.000000)">
                        <path d="M68.3252285,20.5557066 C118.01323,22.0374446 170.234584,18.0854723 217.723322,29.7043294 C254.599544,38.7266698 238.406408,123.416078 229.388088,145.841395 C220.369768,168.266711 185.007707,150.505765 139.500272,150.505765 C93.9928368,150.505765 68.3252285,170.441154 47.3583483,145.841395 C17.0200583,103.244408 18.6372268,19.0739686 68.3252285,20.5557066 Z" id="Rectangle" fill="#CCCED3" opacity="0.08"></path>
                        <path d="M89.2033772,19.2091239 C128.722158,14.2717537 201.439736,35.1332159 245.645753,62.7055114 C279.972859,84.1161054 225.217613,137.504305 205.552835,152.802283 C185.888057,168.100261 154.276575,164.86013 103.96941,154.348501 C53.6622438,143.836872 20.6258121,144.159832 10.0164138,115.755411 C-2.13131494,68.8180744 49.6845959,24.146494 89.2033772,19.2091239 Z" id="Rectangle-Copy" fill="#F1F2F5" opacity="0.22"></path>
                        <g id="Decorations" transform="translate(0.000000, 16.429119)">
                            <circle id="Oval" fill="#CCCED3" cx="265.43295" cy="86.7662835" r="2.56704981"></circle>
                            <circle id="Oval-Copy-2" fill="#CCCED3" cx="146.321839" cy="79.0021691" r="1.54022989"></circle>
                            <path d="M174.032567,20.5363985 L175.022031,20.5363985 C175.298173,20.5363985 175.522031,20.7602561 175.522031,21.0363985 L175.522031,40.5727969 C175.522031,40.8489393 175.298173,41.0727969 175.022031,41.0727969 L174.032567,41.0727969 C173.756425,41.0727969 173.532567,40.8489393 173.532567,40.5727969 L173.532567,21.0363985 C173.532567,20.7602561 173.756425,20.5363985 174.032567,20.5363985 Z" id="Rectangle-Copy-6" fill="#CCCED3" opacity="0.339076451" transform="translate(174.527299, 30.804598) scale(-1, 1) rotate(18.000000) translate(-174.527299, -30.804598) "></path>
                            <rect id="Rectangle-Copy-5" fill="#CCCED3" opacity="0.339076451" x="188.934866" y="116.030651" width="2.05363985" height="16.4291188" rx="0.5"></rect>
                            <circle id="Oval-Copy-3" fill="#CCCED3" cx="1.02681992" cy="39.469602" r="1.02681992"></circle>
                            <circle id="Oval-Copy-4" fill="#CCCED3" cx="208.444444" cy="98.5747126" r="1.02681992"></circle>
                            <circle id="Oval-Copy" fill="#CCCED3" cx="73.9310345" cy="112.950192" r="3.08045977"></circle>
                            <g id="corner-llines" opacity="0.34" transform="translate(17.969349, 13.862069) rotate(-13.000000) translate(-17.969349, -13.862069) translate(6.160920, 3.080460)" fill="#CCCED3">
                                <path d="M20.4365543,1.43238792 L21.4901941,1.43238792 C21.7663365,1.43238792 21.9901941,1.65624554 21.9901941,1.93238792 L21.9901941,13.254227 C21.9901941,13.5303694 21.7663365,13.754227 21.4901941,13.754227 L20.4365543,13.754227 C20.1604119,13.754227 19.9365543,13.5303694 19.9365543,13.254227 L19.9365543,1.93238792 C19.9365543,1.65624554 20.1604119,1.43238792 20.4365543,1.43238792 Z" id="Rectangle-Copy" transform="translate(20.963374, 7.593307) rotate(-12.000000) translate(-20.963374, -7.593307) "></path>
                                <path d="M10.368441,-2.05363985 L11.4220809,-2.05363985 C11.6982233,-2.05363985 11.9220809,-1.82978222 11.9220809,-1.55363985 L11.9220809,17.9827586 C11.9220809,18.258901 11.6982233,18.4827586 11.4220809,18.4827586 L10.368441,18.4827586 C10.0922987,18.4827586 9.86844105,18.258901 9.86844105,17.9827586 L9.86844105,-1.55363985 C9.86844105,-1.82978222 10.0922987,-2.05363985 10.368441,-2.05363985 Z" id="Rectangle-Copy-2" transform="translate(10.895261, 8.214559) rotate(-44.000000) translate(-10.895261, -8.214559) "></path>
                                <path d="M7.68773946,9.69182426 L8.74137931,9.69182426 C9.01752169,9.69182426 9.24137931,9.91568189 9.24137931,10.1918243 L9.24137931,25.620943 C9.24137931,25.8970854 9.01752169,26.120943 8.74137931,26.120943 L7.68773946,26.120943 C7.41159709,26.120943 7.18773946,25.8970854 7.18773946,25.620943 L7.18773946,10.1918243 C7.18773946,9.91568189 7.41159709,9.69182426 7.68773946,9.69182426 Z" id="Rectangle-Copy-4" transform="translate(8.214559, 17.906384) rotate(-75.000000) translate(-8.214559, -17.906384) "></path>
                            </g>
                            <path d="M16.7298674,114.27776 C17.1000195,113.907608 17.6824636,113.879135 18.0852761,114.19234 L18.18201,114.27776 L21.0857471,117.18069 L23.9905807,114.27776 C24.3915788,113.876762 25.0417252,113.876762 25.4427233,114.27776 C25.8437215,114.678758 25.8437215,115.328905 25.4427233,115.729903 L22.5386973,118.63364 L25.4427233,121.538473 C25.8128755,121.908626 25.8413487,122.49107 25.5281431,122.893882 L25.4427233,122.990616 C25.0725712,123.360768 24.4901271,123.389241 24.0873146,123.076036 L23.9905807,122.990616 L21.0857471,120.08659 L18.18201,122.990616 C17.7810119,123.391614 17.1308655,123.391614 16.7298674,122.990616 C16.3288692,122.589618 16.3288692,121.939472 16.7298674,121.538473 L19.6327969,118.63364 L16.7298674,115.729903 C16.3597153,115.359751 16.331242,114.777306 16.6444476,114.374494 L16.7298674,114.27776 Z" id="Path" fill="#CCCED3"></path>
                            <path d="M250.411442,68.9295537 C250.588268,69.1063788 250.588268,69.3930689 250.411442,69.569894 L249.13013,70.8505747 L250.411442,72.1312554 C250.566164,72.2859774 250.585505,72.5248147 250.469463,72.7005656 L250.411442,72.7715957 C250.256721,72.9263177 250.017883,72.9456579 249.842132,72.8296165 L249.771102,72.7715957 L248.490421,71.4902835 L247.209741,72.7715957 C247.032916,72.9484208 246.746226,72.9484208 246.5694,72.7715957 C246.392575,72.5947706 246.392575,72.3080805 246.5694,72.1312554 L247.850713,70.8505747 L246.5694,69.569894 C246.414678,69.4151721 246.395338,69.1763347 246.51138,69.0005839 L246.5694,68.9295537 C246.724122,68.7748317 246.96296,68.7554915 247.138711,68.871533 L247.209741,68.9295537 L248.490421,70.2108659 L249.771102,68.9295537 C249.947927,68.7527286 250.234617,68.7527286 250.411442,68.9295537 Z" id="Path" fill="#CCCED3"></path>
                            <path d="M21.0498084,66.16692 C21.1915827,66.16692 21.3065134,66.2818508 21.3065134,66.423625 L21.3066418,66.977466 L21.7701913,66.5143125 C21.8696554,66.4148484 22.0309186,66.4148484 22.1303828,66.5143125 C22.2298469,66.6137766 22.2298469,66.7750398 22.1303828,66.8745039 L21.5542337,67.4503166 L22.3333333,67.450445 C22.4609302,67.450445 22.5667837,67.5435388 22.5866785,67.6655111 L22.5900383,67.7071499 C22.5900383,67.8360356 22.4950542,67.9427366 22.3712673,67.9610716 L22.3333333,67.9638549 L21.7787222,67.9635982 L22.1303828,68.3152697 C22.2199005,68.4047874 22.2288522,68.5443624 22.1572381,68.6438915 L22.1303828,68.6754611 C22.040865,68.7649788 21.9012901,68.7739306 21.8017609,68.7023164 L21.7701913,68.6754611 L21.3066418,68.2119603 L21.3065134,68.9906748 C21.3065134,69.1324491 21.1915827,69.2473798 21.0498084,69.2473798 C20.9080342,69.2473798 20.7931034,69.1324491 20.7931034,68.9906748 L20.7929751,68.2115752 L20.3294255,68.6754611 C20.2299614,68.7749252 20.0686982,68.7749252 19.9692341,68.6754611 C19.86977,68.575997 19.86977,68.4147338 19.9692341,68.3152697 L20.3205096,67.9635982 L19.7662835,67.9638549 C19.6386867,67.9638549 19.5328331,67.870761 19.5129384,67.7487888 L19.5095785,67.7071499 C19.5095785,67.5782643 19.6045626,67.4715633 19.7283495,67.4532283 L19.7662835,67.450445 L20.544613,67.4503166 L19.9692341,66.8745039 C19.8797164,66.7849862 19.8707646,66.6454113 19.9423788,66.5458821 L19.9692341,66.5143125 C20.0587518,66.4247948 20.1983268,66.415843 20.2978559,66.4874572 L20.3294255,66.5143125 L20.7929751,66.9778511 L20.7931034,66.423625 C20.7931034,66.2818508 20.9080342,66.16692 21.0498084,66.16692 Z" id="Path" fill="#CCCED3"></path>
                            <path d="M228.980843,5.64750958 C229.232886,5.64750958 229.44251,5.82912852 229.485981,6.06863345 L229.494253,6.16091954 L229.494253,7.70114943 C229.494253,7.98469792 229.264391,8.21455939 228.980843,8.21455939 C228.7288,8.21455939 228.519176,8.03294045 228.475705,7.79343552 L228.467433,7.70114943 L228.467433,6.16091954 C228.467433,5.87737105 228.697294,5.64750958 228.980843,5.64750958 Z M230.724916,5.13697956 L230.796021,5.19638669 L231.885128,6.28549369 C232.085627,6.48599275 232.085627,6.81106596 231.885128,7.01156502 C231.706907,7.18978641 231.430257,7.20958878 231.230162,7.07097215 L231.159057,7.01156502 L230.06995,5.92245802 C229.869451,5.72195896 229.869451,5.39688575 230.06995,5.19638669 C230.225894,5.04044298 230.457197,5.00578882 230.646634,5.09242421 L230.724916,5.13697956 Z M227.891736,5.19638669 C228.069957,5.37460808 228.08976,5.65125842 227.951143,5.85135291 L227.891736,5.92245802 L226.802629,7.01156502 C226.60213,7.21206408 226.277057,7.21206408 226.076558,7.01156502 C225.898336,6.83334363 225.878534,6.55669329 226.01715,6.3565988 L226.076558,6.28549369 L227.165665,5.19638669 C227.366164,4.99588763 227.691237,4.99588763 227.891736,5.19638669 Z M232.574713,3.59386973 C232.858261,3.59386973 233.088123,3.8237312 233.088123,4.10727969 C233.088123,4.3593228 232.906504,4.56894653 232.666999,4.61241793 L232.574713,4.62068966 L231.034483,4.62068966 C230.750934,4.62068966 230.521073,4.39082819 230.521073,4.10727969 C230.521073,3.85523659 230.702692,3.64561286 230.942197,3.60214145 L231.034483,3.59386973 L232.574713,3.59386973 Z M226.927203,3.59386973 C227.210752,3.59386973 227.440613,3.8237312 227.440613,4.10727969 C227.440613,4.3593228 227.258994,4.56894653 227.019489,4.61241793 L226.927203,4.62068966 L225.386973,4.62068966 C225.103425,4.62068966 224.873563,4.39082819 224.873563,4.10727969 C224.873563,3.85523659 225.055182,3.64561286 225.294687,3.60214145 L225.386973,3.59386973 L226.927203,3.59386973 Z M226.731524,1.14358724 L226.802629,1.20299437 L227.891736,2.29210137 C228.092235,2.49260043 228.092235,2.81767364 227.891736,3.0181727 C227.713515,3.19639409 227.436864,3.21619646 227.23677,3.07757983 L227.165665,3.0181727 L226.076558,1.9290657 C225.876059,1.72856664 225.876059,1.40349343 226.076558,1.20299437 C226.232501,1.04705066 226.463805,1.0123965 226.653242,1.09903189 L226.731524,1.14358724 Z M231.885128,1.20299437 C232.06335,1.38121576 232.083152,1.6578661 231.944535,1.85796059 L231.885128,1.9290657 L230.796021,3.0181727 C230.595522,3.21867176 230.270449,3.21867176 230.06995,3.0181727 C229.891729,2.83995131 229.871926,2.56330097 230.010543,2.36320648 L230.06995,2.29210137 L231.159057,1.20299437 C231.359556,1.00249531 231.684629,1.00249531 231.885128,1.20299437 Z M228.980843,0 C229.232886,0 229.44251,0.181618939 229.485981,0.421123872 L229.494253,0.513409962 L229.494253,2.05363985 C229.494253,2.33718834 229.264391,2.56704981 228.980843,2.56704981 C228.7288,2.56704981 228.519176,2.38543087 228.475705,2.14592594 L228.467433,2.05363985 L228.467433,0.513409962 C228.467433,0.229861469 228.697294,0 228.980843,0 Z" id="Combined-Shape-Copy-5" fill="#CCCED3" fill-rule="nonzero"></path>
                            <path d="M246.699807,108.922415 C247.19752,109.194224 247.380652,109.818046 247.108842,110.315759 C244.347177,115.372682 232.332587,123.705466 225.53256,124.112517 C224.966477,124.146402 224.480105,123.714971 224.446219,123.148887 C224.412333,122.582803 224.843765,122.096432 225.409849,122.062546 C231.469808,121.699796 242.869788,113.793278 245.306462,109.331451 C245.578272,108.833737 246.202093,108.650606 246.699807,108.922415 Z M216.347327,116.831163 L216.439292,116.921698 L218.642727,119.377945 C218.902121,119.667101 219.302483,119.785124 219.677249,119.682912 L221.341944,119.224241 C222.533339,118.891879 223.387261,118.642697 223.899329,118.478121 C224.439227,118.304601 225.017566,118.601609 225.191086,119.141507 C225.364606,119.681405 225.067598,120.259745 224.5277,120.433265 L224.060861,120.578497 C223.237243,120.828248 221.95848,121.189388 220.217614,121.664185 C219.159451,121.952784 218.033267,121.656121 217.255661,120.897007 L217.114046,120.749284 L214.910611,118.293038 C214.531926,117.870905 214.567148,117.221713 214.989281,116.843028 C215.346471,116.522602 215.866229,116.498524 216.247118,116.754439 L216.347327,116.831163 Z M238.662078,111.202819 C239.060028,111.606842 239.055106,112.25697 238.651083,112.65492 C235.94026,115.324998 233.725084,116.765119 229.629861,118.337532 C229.100448,118.540807 228.506487,118.27642 228.303212,117.747007 C228.099937,117.217594 228.364324,116.623633 228.893737,116.420358 C232.722414,114.950289 234.698348,113.665702 237.209977,111.191823 C237.614,110.793873 238.264128,110.798796 238.662078,111.202819 Z" id="Shape" fill="#E7E9EB" fill-rule="nonzero" opacity="0.847632999"></path>
                        </g>
                        <g id="doc" transform="translate(109.869732, 26.697318) scale(-1, 1) rotate(7.000000) translate(-109.869732, -26.697318) translate(86.252874, 3.080460)">
                            <g id="Rectangle-Copy-11">
                                <use fill="black" fill-opacity="1" filter="url(#filter-2)" xlink:href="#path-1"></use>
                                <use fill="#FFFFFF" fill-rule="evenodd" xlink:href="#path-1"></use>
                            </g>
                            <g id="Rectangle-Copy-12" transform="translate(29.803442, 15.307946) scale(-1, -1) rotate(27.000000) translate(-29.803442, -15.307946) ">
                                <use fill="black" fill-opacity="1" filter="url(#filter-4)" xlink:href="#path-3"></use>
                                <use fill="#CCCED3" fill-rule="evenodd" xlink:href="#path-3"></use>
                            </g>
                        </g>
                        <g id="Excel-Copy" transform="translate(135.540230, 36.452107) rotate(14.000000) translate(-135.540230, -36.452107) translate(118.084291, 13.348659)">
                            <path d="M3.69439743,0.212956869 L33.7068769,0.212956869 C34.2091628,0.212956869 34.616346,0.616387203 34.616346,1.11404374 L34.616346,43.4651267 C34.616346,43.9627832 34.2091628,44.3662136 33.7068769,44.3662136 L3.69439743,44.3662136 C3.19211153,44.3662136 2.78492836,43.9627832 2.78492836,43.4651267 L2.78492836,1.11404374 C2.78492836,0.616387203 3.19211153,0.212956869 3.69439743,0.212956869 Z" id="Rectangle" fill="#FFFFFF"></path>
                            <g id="Rectangle">
                                <use fill="black" fill-opacity="1" filter="url(#filter-6)" xlink:href="#path-5"></use>
                                <use fill="#FFFFFF" fill-rule="evenodd" xlink:href="#path-5"></use>
                            </g>
                            <g id="Table" transform="translate(0.843174, 1.908377)">
                                <path d="M17.734647,2.68720959 L22.2819923,2.68720959 C22.5331353,2.68720959 22.7367269,2.88772704 22.7367269,3.13507785 L22.7367269,4.92655091 C22.7367269,5.17390172 22.5331353,5.37441917 22.2819923,5.37441917 L17.734647,5.37441917 C17.483504,5.37441917 17.2799124,5.17390172 17.2799124,4.92655091 L17.2799124,3.13507785 C17.2799124,2.88772704 17.483504,2.68720959 17.734647,2.68720959 Z" id="Rectangle" fill="#EBEBEC"></path>
                                <path d="M3.18314176,2.68720959 L7.73048714,2.68720959 C7.98163009,2.68720959 8.18522167,2.88772704 8.18522167,3.13507785 L8.18522167,4.92655091 C8.18522167,5.17390172 7.98163009,5.37441917 7.73048714,5.37441917 L3.18314176,5.37441917 C2.93199881,5.37441917 2.72840722,5.17390172 2.72840722,4.92655091 L2.72840722,3.13507785 C2.72840722,2.88772704 2.93199881,2.68720959 3.18314176,2.68720959 Z" id="Rectangle-Copy-8" fill="#EBEBEC"></path>
                                <path d="M25.0103996,2.68720959 L29.5577449,2.68720959 C29.8088879,2.68720959 30.0124795,2.88772704 30.0124795,3.13507785 L30.0124795,4.92655091 C30.0124795,5.17390172 29.8088879,5.37441917 29.5577449,5.37441917 L25.0103996,5.37441917 C24.7592566,5.37441917 24.555665,5.17390172 24.555665,4.92655091 L24.555665,3.13507785 C24.555665,2.88772704 24.7592566,2.68720959 25.0103996,2.68720959 Z" id="Rectangle-Copy-7" fill="#EBEBEC"></path>
                                <path d="M10.4588944,2.68720959 L15.0062397,2.68720959 C15.2573827,2.68720959 15.4609743,2.88772704 15.4609743,3.13507785 L15.4609743,4.92655091 C15.4609743,5.17390172 15.2573827,5.37441917 15.0062397,5.37441917 L10.4588944,5.37441917 C10.2077514,5.37441917 10.0041598,5.17390172 10.0041598,4.92655091 L10.0041598,3.13507785 C10.0041598,2.88772704 10.2077514,2.68720959 10.4588944,2.68720959 Z" id="Rectangle-Copy-9" fill="#EBEBEC"></path>
                                <path d="M17.734647,7.16589223 L22.2819923,7.16589223 C22.5331353,7.16589223 22.7367269,7.36640968 22.7367269,7.6137605 L22.7367269,9.40523355 C22.7367269,9.65258437 22.5331353,9.85310182 22.2819923,9.85310182 L17.734647,9.85310182 C17.483504,9.85310182 17.2799124,9.65258437 17.2799124,9.40523355 L17.2799124,7.6137605 C17.2799124,7.36640968 17.483504,7.16589223 17.734647,7.16589223 Z" id="Rectangle" fill="#EBEBEC"></path>
                                <path d="M3.18314176,7.16589223 L7.73048714,7.16589223 C7.98163009,7.16589223 8.18522167,7.36640968 8.18522167,7.6137605 L8.18522167,9.40523355 C8.18522167,9.65258437 7.98163009,9.85310182 7.73048714,9.85310182 L3.18314176,9.85310182 C2.93199881,9.85310182 2.72840722,9.65258437 2.72840722,9.40523355 L2.72840722,7.6137605 C2.72840722,7.36640968 2.93199881,7.16589223 3.18314176,7.16589223 Z" id="Rectangle-Copy-8" fill="#EBEBEC"></path>
                                <path d="M25.0103996,7.16589223 L29.5577449,7.16589223 C29.8088879,7.16589223 30.0124795,7.36640968 30.0124795,7.6137605 L30.0124795,9.40523355 C30.0124795,9.65258437 29.8088879,9.85310182 29.5577449,9.85310182 L25.0103996,9.85310182 C24.7592566,9.85310182 24.555665,9.65258437 24.555665,9.40523355 L24.555665,7.6137605 C24.555665,7.36640968 24.7592566,7.16589223 25.0103996,7.16589223 Z" id="Rectangle-Copy-7" fill="#EBEBEC"></path>
                                <path d="M10.4588944,7.16589223 L15.0062397,7.16589223 C15.2573827,7.16589223 15.4609743,7.36640968 15.4609743,7.6137605 L15.4609743,9.40523355 C15.4609743,9.65258437 15.2573827,9.85310182 15.0062397,9.85310182 L10.4588944,9.85310182 C10.2077514,9.85310182 10.0041598,9.65258437 10.0041598,9.40523355 L10.0041598,7.6137605 C10.0041598,7.36640968 10.2077514,7.16589223 10.4588944,7.16589223 Z" id="Rectangle-Copy-9" fill="#EBEBEC"></path>
                                <path d="M17.734647,11.6445749 L22.2819923,11.6445749 C22.5331353,11.6445749 22.7367269,11.8450923 22.7367269,12.0924431 L22.7367269,13.8839162 C22.7367269,14.131267 22.5331353,14.3317845 22.2819923,14.3317845 L17.734647,14.3317845 C17.483504,14.3317845 17.2799124,14.131267 17.2799124,13.8839162 L17.2799124,12.0924431 C17.2799124,11.8450923 17.483504,11.6445749 17.734647,11.6445749 Z" id="Rectangle" fill="#EBEBEC"></path>
                                <path d="M3.18314176,11.6445749 L7.73048714,11.6445749 C7.98163009,11.6445749 8.18522167,11.8450923 8.18522167,12.0924431 L8.18522167,13.8839162 C8.18522167,14.131267 7.98163009,14.3317845 7.73048714,14.3317845 L3.18314176,14.3317845 C2.93199881,14.3317845 2.72840722,14.131267 2.72840722,13.8839162 L2.72840722,12.0924431 C2.72840722,11.8450923 2.93199881,11.6445749 3.18314176,11.6445749 Z" id="Rectangle-Copy-8" fill="#EBEBEC"></path>
                                <path d="M25.0103996,11.6445749 L29.5577449,11.6445749 C29.8088879,11.6445749 30.0124795,11.8450923 30.0124795,12.0924431 L30.0124795,13.8839162 C30.0124795,14.131267 29.8088879,14.3317845 29.5577449,14.3317845 L25.0103996,14.3317845 C24.7592566,14.3317845 24.555665,14.131267 24.555665,13.8839162 L24.555665,12.0924431 C24.555665,11.8450923 24.7592566,11.6445749 25.0103996,11.6445749 Z" id="Rectangle-Copy-7" fill="#EBEBEC"></path>
                                <path d="M10.4588944,11.6445749 L15.0062397,11.6445749 C15.2573827,11.6445749 15.4609743,11.8450923 15.4609743,12.0924431 L15.4609743,13.8839162 C15.4609743,14.131267 15.2573827,14.3317845 15.0062397,14.3317845 L10.4588944,14.3317845 C10.2077514,14.3317845 10.0041598,14.131267 10.0041598,13.8839162 L10.0041598,12.0924431 C10.0041598,11.8450923 10.2077514,11.6445749 10.4588944,11.6445749 Z" id="Rectangle-Copy-9" fill="#EBEBEC"></path>
                                <path d="M17.734647,16.1232575 L22.2819923,16.1232575 C22.5331353,16.1232575 22.7367269,16.323775 22.7367269,16.5711258 L22.7367269,18.3625988 C22.7367269,18.6099497 22.5331353,18.8104671 22.2819923,18.8104671 L17.734647,18.8104671 C17.483504,18.8104671 17.2799124,18.6099497 17.2799124,18.3625988 L17.2799124,16.5711258 C17.2799124,16.323775 17.483504,16.1232575 17.734647,16.1232575 Z" id="Rectangle" fill="#EBEBEC"></path>
                                <path d="M3.18314176,16.1232575 L7.73048714,16.1232575 C7.98163009,16.1232575 8.18522167,16.323775 8.18522167,16.5711258 L8.18522167,18.3625988 C8.18522167,18.6099497 7.98163009,18.8104671 7.73048714,18.8104671 L3.18314176,18.8104671 C2.93199881,18.8104671 2.72840722,18.6099497 2.72840722,18.3625988 L2.72840722,16.5711258 C2.72840722,16.323775 2.93199881,16.1232575 3.18314176,16.1232575 Z" id="Rectangle-Copy-8" fill="#EBEBEC"></path>
                                <path d="M25.0103996,16.1232575 L29.5577449,16.1232575 C29.8088879,16.1232575 30.0124795,16.323775 30.0124795,16.5711258 L30.0124795,18.3625988 C30.0124795,18.6099497 29.8088879,18.8104671 29.5577449,18.8104671 L25.0103996,18.8104671 C24.7592566,18.8104671 24.555665,18.6099497 24.555665,18.3625988 L24.555665,16.5711258 C24.555665,16.323775 24.7592566,16.1232575 25.0103996,16.1232575 Z" id="Rectangle-Copy-7" fill="#EBEBEC"></path>
                                <path d="M10.4588944,16.1232575 L15.0062397,16.1232575 C15.2573827,16.1232575 15.4609743,16.323775 15.4609743,16.5711258 L15.4609743,18.3625988 C15.4609743,18.6099497 15.2573827,18.8104671 15.0062397,18.8104671 L10.4588944,18.8104671 C10.2077514,18.8104671 10.0041598,18.6099497 10.0041598,18.3625988 L10.0041598,16.5711258 C10.0041598,16.323775 10.2077514,16.1232575 10.4588944,16.1232575 Z" id="Rectangle-Copy-9" fill="#EBEBEC"></path>
                                <path d="M17.734647,20.6019402 L22.2819923,20.6019402 C22.5331353,20.6019402 22.7367269,20.8024576 22.7367269,21.0498084 L22.7367269,22.8412815 C22.7367269,23.0886323 22.5331353,23.2891498 22.2819923,23.2891498 L17.734647,23.2891498 C17.483504,23.2891498 17.2799124,23.0886323 17.2799124,22.8412815 L17.2799124,21.0498084 C17.2799124,20.8024576 17.483504,20.6019402 17.734647,20.6019402 Z" id="Rectangle" fill="#EBEBEC"></path>
                                <path d="M3.18314176,20.6019402 L7.73048714,20.6019402 C7.98163009,20.6019402 8.18522167,20.8024576 8.18522167,21.0498084 L8.18522167,22.8412815 C8.18522167,23.0886323 7.98163009,23.2891498 7.73048714,23.2891498 L3.18314176,23.2891498 C2.93199881,23.2891498 2.72840722,23.0886323 2.72840722,22.8412815 L2.72840722,21.0498084 C2.72840722,20.8024576 2.93199881,20.6019402 3.18314176,20.6019402 Z" id="Rectangle-Copy-8" fill="#EBEBEC"></path>
                                <path d="M25.0103996,20.6019402 L29.5577449,20.6019402 C29.8088879,20.6019402 30.0124795,20.8024576 30.0124795,21.0498084 L30.0124795,22.8412815 C30.0124795,23.0886323 29.8088879,23.2891498 29.5577449,23.2891498 L25.0103996,23.2891498 C24.7592566,23.2891498 24.555665,23.0886323 24.555665,22.8412815 L24.555665,21.0498084 C24.555665,20.8024576 24.7592566,20.6019402 25.0103996,20.6019402 Z" id="Rectangle-Copy-7" fill="#EBEBEC"></path>
                                <path d="M10.4588944,20.6019402 L15.0062397,20.6019402 C15.2573827,20.6019402 15.4609743,20.8024576 15.4609743,21.0498084 L15.4609743,22.8412815 C15.4609743,23.0886323 15.2573827,23.2891498 15.0062397,23.2891498 L10.4588944,23.2891498 C10.2077514,23.2891498 10.0041598,23.0886323 10.0041598,22.8412815 L10.0041598,21.0498084 C10.0041598,20.8024576 10.2077514,20.6019402 10.4588944,20.6019402 Z" id="Rectangle-Copy-9" fill="#EBEBEC"></path>
                                <path d="M17.734647,25.0806228 L22.2819923,25.0806228 C22.5331353,25.0806228 22.7367269,25.2811403 22.7367269,25.5284911 L22.7367269,27.3199641 C22.7367269,27.5673149 22.5331353,27.7678324 22.2819923,27.7678324 L17.734647,27.7678324 C17.483504,27.7678324 17.2799124,27.5673149 17.2799124,27.3199641 L17.2799124,25.5284911 C17.2799124,25.2811403 17.483504,25.0806228 17.734647,25.0806228 Z" id="Rectangle" fill="#EBEBEC"></path>
                                <path d="M3.18314176,25.0806228 L7.73048714,25.0806228 C7.98163009,25.0806228 8.18522167,25.2811403 8.18522167,25.5284911 L8.18522167,27.3199641 C8.18522167,27.5673149 7.98163009,27.7678324 7.73048714,27.7678324 L3.18314176,27.7678324 C2.93199881,27.7678324 2.72840722,27.5673149 2.72840722,27.3199641 L2.72840722,25.5284911 C2.72840722,25.2811403 2.93199881,25.0806228 3.18314176,25.0806228 Z" id="Rectangle-Copy-8" fill="#EBEBEC"></path>
                                <path d="M25.0103996,25.0806228 L29.5577449,25.0806228 C29.8088879,25.0806228 30.0124795,25.2811403 30.0124795,25.5284911 L30.0124795,27.3199641 C30.0124795,27.5673149 29.8088879,27.7678324 29.5577449,27.7678324 L25.0103996,27.7678324 C24.7592566,27.7678324 24.555665,27.5673149 24.555665,27.3199641 L24.555665,25.5284911 C24.555665,25.2811403 24.7592566,25.0806228 25.0103996,25.0806228 Z" id="Rectangle-Copy-7" fill="#EBEBEC"></path>
                                <path d="M10.4588944,25.0806228 L15.0062397,25.0806228 C15.2573827,25.0806228 15.4609743,25.2811403 15.4609743,25.5284911 L15.4609743,27.3199641 C15.4609743,27.5673149 15.2573827,27.7678324 15.0062397,27.7678324 L10.4588944,27.7678324 C10.2077514,27.7678324 10.0041598,27.5673149 10.0041598,27.3199641 L10.0041598,25.5284911 C10.0041598,25.2811403 10.2077514,25.0806228 10.4588944,25.0806228 Z" id="Rectangle-Copy-9" fill="#EBEBEC"></path>
                                <path d="M17.734647,29.5593055 L22.2819923,29.5593055 C22.5331353,29.5593055 22.7367269,29.7598229 22.7367269,30.0071737 L22.7367269,31.7986468 C22.7367269,32.0459976 22.5331353,32.246515 22.2819923,32.246515 L17.734647,32.246515 C17.483504,32.246515 17.2799124,32.0459976 17.2799124,31.7986468 L17.2799124,30.0071737 C17.2799124,29.7598229 17.483504,29.5593055 17.734647,29.5593055 Z" id="Rectangle" fill="#EBEBEC"></path>
                                <path d="M3.18314176,29.5593055 L7.73048714,29.5593055 C7.98163009,29.5593055 8.18522167,29.7598229 8.18522167,30.0071737 L8.18522167,31.7986468 C8.18522167,32.0459976 7.98163009,32.246515 7.73048714,32.246515 L3.18314176,32.246515 C2.93199881,32.246515 2.72840722,32.0459976 2.72840722,31.7986468 L2.72840722,30.0071737 C2.72840722,29.7598229 2.93199881,29.5593055 3.18314176,29.5593055 Z" id="Rectangle-Copy-8" fill="#EBEBEC"></path>
                                <path d="M25.0103996,29.5593055 L29.5577449,29.5593055 C29.8088879,29.5593055 30.0124795,29.7598229 30.0124795,30.0071737 L30.0124795,31.7986468 C30.0124795,32.0459976 29.8088879,32.246515 29.5577449,32.246515 L25.0103996,32.246515 C24.7592566,32.246515 24.555665,32.0459976 24.555665,31.7986468 L24.555665,30.0071737 C24.555665,29.7598229 24.7592566,29.5593055 25.0103996,29.5593055 Z" id="Rectangle-Copy-7" fill="#EBEBEC"></path>
                                <path d="M10.4588944,29.5593055 L15.0062397,29.5593055 C15.2573827,29.5593055 15.4609743,29.7598229 15.4609743,30.0071737 L15.4609743,31.7986468 C15.4609743,32.0459976 15.2573827,32.246515 15.0062397,32.246515 L10.4588944,32.246515 C10.2077514,32.246515 10.0041598,32.0459976 10.0041598,31.7986468 L10.0041598,30.0071737 C10.0041598,29.7598229 10.2077514,29.5593055 10.4588944,29.5593055 Z" id="Rectangle-Copy-9" fill="#EBEBEC"></path>
                                <path d="M17.734647,34.0379881 L22.2819923,34.0379881 C22.5331353,34.0379881 22.7367269,34.2385056 22.7367269,34.4858564 L22.7367269,36.2773294 C22.7367269,36.5246802 22.5331353,36.7251977 22.2819923,36.7251977 L17.734647,36.7251977 C17.483504,36.7251977 17.2799124,36.5246802 17.2799124,36.2773294 L17.2799124,34.4858564 C17.2799124,34.2385056 17.483504,34.0379881 17.734647,34.0379881 Z" id="Rectangle" fill="#EBEBEC"></path>
                                <path d="M3.18314176,34.0379881 L7.73048714,34.0379881 C7.98163009,34.0379881 8.18522167,34.2385056 8.18522167,34.4858564 L8.18522167,36.2773294 C8.18522167,36.5246802 7.98163009,36.7251977 7.73048714,36.7251977 L3.18314176,36.7251977 C2.93199881,36.7251977 2.72840722,36.5246802 2.72840722,36.2773294 L2.72840722,34.4858564 C2.72840722,34.2385056 2.93199881,34.0379881 3.18314176,34.0379881 Z" id="Rectangle-Copy-8" fill="#EBEBEC"></path>
                                <path d="M25.0103996,34.0379881 L29.5577449,34.0379881 C29.8088879,34.0379881 30.0124795,34.2385056 30.0124795,34.4858564 L30.0124795,36.2773294 C30.0124795,36.5246802 29.8088879,36.7251977 29.5577449,36.7251977 L25.0103996,36.7251977 C24.7592566,36.7251977 24.555665,36.5246802 24.555665,36.2773294 L24.555665,34.4858564 C24.555665,34.2385056 24.7592566,34.0379881 25.0103996,34.0379881 Z" id="Rectangle-Copy-7" fill="#EBEBEC"></path>
                                <path d="M10.4588944,34.0379881 L15.0062397,34.0379881 C15.2573827,34.0379881 15.4609743,34.2385056 15.4609743,34.4858564 L15.4609743,36.2773294 C15.4609743,36.5246802 15.2573827,36.7251977 15.0062397,36.7251977 L10.4588944,36.7251977 C10.2077514,36.7251977 10.0041598,36.5246802 10.0041598,36.2773294 L10.0041598,34.4858564 C10.0041598,34.2385056 10.2077514,34.0379881 10.4588944,34.0379881 Z" id="Rectangle-Copy-9" fill="#EBEBEC"></path>
                                <path d="M17.734647,38.5166707 L22.2819923,38.5166707 C22.5331353,38.5166707 22.7367269,38.7171882 22.7367269,38.964539 L22.7367269,40.7560121 C22.7367269,41.0033629 22.5331353,41.2038803 22.2819923,41.2038803 L17.734647,41.2038803 C17.483504,41.2038803 17.2799124,41.0033629 17.2799124,40.7560121 L17.2799124,38.964539 C17.2799124,38.7171882 17.483504,38.5166707 17.734647,38.5166707 Z" id="Rectangle" fill="#EBEBEC"></path>
                                <path d="M3.18314176,38.5166707 L7.73048714,38.5166707 C7.98163009,38.5166707 8.18522167,38.7171882 8.18522167,38.964539 L8.18522167,40.7560121 C8.18522167,41.0033629 7.98163009,41.2038803 7.73048714,41.2038803 L3.18314176,41.2038803 C2.93199881,41.2038803 2.72840722,41.0033629 2.72840722,40.7560121 L2.72840722,38.964539 C2.72840722,38.7171882 2.93199881,38.5166707 3.18314176,38.5166707 Z" id="Rectangle-Copy-8" fill="#EBEBEC"></path>
                                <path d="M25.0103996,38.5166707 L29.5577449,38.5166707 C29.8088879,38.5166707 30.0124795,38.7171882 30.0124795,38.964539 L30.0124795,40.7560121 C30.0124795,41.0033629 29.8088879,41.2038803 29.5577449,41.2038803 L25.0103996,41.2038803 C24.7592566,41.2038803 24.555665,41.0033629 24.555665,40.7560121 L24.555665,38.964539 C24.555665,38.7171882 24.7592566,38.5166707 25.0103996,38.5166707 Z" id="Rectangle-Copy-7" fill="#EBEBEC"></path>
                                <path d="M10.4588944,38.5166707 L15.0062397,38.5166707 C15.2573827,38.5166707 15.4609743,38.7171882 15.4609743,38.964539 L15.4609743,40.7560121 C15.4609743,41.0033629 15.2573827,41.2038803 15.0062397,41.2038803 L10.4588944,41.2038803 C10.2077514,41.2038803 10.0041598,41.0033629 10.0041598,40.7560121 L10.0041598,38.964539 C10.0041598,38.7171882 10.2077514,38.5166707 10.4588944,38.5166707 Z" id="Rectangle-Copy-9" fill="#EBEBEC"></path>
                                <polygon id="Rectangle" fill="url(#linearGradient-7)" points="0 0 31.8314176 0 31.8314176 42.0996169 0 42.0996169"></polygon>
                            </g>
                            <polygon id="X" fill-opacity="0.8" fill="#CCCED3" fill-rule="nonzero" points="7.87954332 41.4623451 10.9464725 37.5784093 14.0134017 41.4623451 17.2066162 41.4623451 12.7505485 36.2861051 16.8909029 31.1941458 13.878096 31.1941458 11.0907986 34.8884501 8.2493789 31.1941458 5.16440894 31.1941458 9.25966146 36.1667074 4.88477716 41.4623451"></polygon>
                        </g>
                        <g id="Page" transform="translate(126.812261, 87.279693) scale(-1, 1) rotate(-21.000000) translate(-126.812261, -87.279693) ">
                            <use fill="black" fill-opacity="1" filter="url(#filter-10)" xlink:href="#path-9"></use>
                            <use fill="url(#linearGradient-8)" fill-rule="evenodd" xlink:href="#path-9"></use>
                        </g>
                        <g id="Doughnut" transform="translate(31.831418, 66.743295)">
                            <g id="base">
                                <g id="Path">
                                    <use fill="black" fill-opacity="1" filter="url(#filter-12)" xlink:href="#path-11"></use>
                                    <use fill="#FFFFFF" fill-rule="evenodd" xlink:href="#path-11"></use>
                                </g>
                                <g id="Path">
                                    <use fill="black" fill-opacity="1" filter="url(#filter-14)" xlink:href="#path-13"></use>
                                    <use fill="#FFFFFF" fill-rule="evenodd" xlink:href="#path-13"></use>
                                </g>
                                <path d="M4.54408259,-6.44089226e-15 L60.8907067,-6.44089226e-15 C63.4003342,-6.44089226e-15 65.4347893,2.0292134 65.4347893,4.532375 L65.4347893,10.7643906 L0,10.7643906 L0,4.532375 C0,2.0292134 2.03445507,-6.44089226e-15 4.54408259,-6.44089226e-15 Z" id="Path-Copy" fill="#E8E9EC"></path>
                            </g>
                            <g transform="translate(30.473754, 16.778674)">
                                <path d="M27.1941731,10.9973335 C26.6718193,11.81171 26.3999659,12.2188982 26.3786127,12.2188982 C25.3035437,12.2188982 23.7775832,11.9159647 21.8007313,11.3100977 C21.4284389,8.33051649 19.2495594,5.91082202 16.3925051,5.1771156 C15.7855792,3.10032987 15.4821163,1.5522074 15.4821163,0.532748176 C15.4821163,0.504143378 15.9014544,0.326560653 16.7401308,6.78061775e-14 C21.8007313,0.48984098 26.6661126,5.40256174 27.1941731,10.9973335 Z" id="Path" fill-opacity="0.82" fill="#67696F" opacity="0.485212054"></path>
                                <path d="M26.3786127,12.2188215 L20.8900214,12.2189425 C20.517729,9.23936136 18.3388495,6.81966688 15.4817952,6.08596046 L15.4819785,0.532748176 C21.3662546,1.37263524 25.9544865,6.22205573 26.3786127,12.2188215 Z" id="Path" fill="#9EA0A5"></path>
                                <path d="M13.644664,0.532748176 L13.644664,6.08905776 C13.5492554,6.08905776 12.7499941,6.89466225 12.7499941,6.89466225 C9.48724701,7.0930283 6.16557944,9.96529641 6.16557944,13.5242263 C6.16557944,17.5397556 9.11004502,20.8563921 14.116059,20.8563921 C18.2985208,20.8563921 19.1739925,18.2140479 20.0356732,15.0742661 C20.0356732,15.0742661 21.1258125,14.3716642 21.3452623,14.1662892 C21.3452623,14.1662892 23.118879,14.1659999 26.6661126,14.1654212 C26.1987666,20.7680567 20.8511767,25.9804045 14.116059,25.9804045 C7.07446242,25.9804045 1.36612056,20.2837526 1.36612056,13.2565763 C1.36612056,13.1429681 -0.0026673435,13.240362 -5.29002855e-13,13.1277431 C0.165766751,6.27437662 6.71690883,0.532748176 13.644664,0.532748176 Z" id="Path" fill-opacity="0.7" fill="#9EA0A5" opacity="0.485212054"></path>
                                <path d="M12.7616246,6.08088792 L12.7339542,1.44159304 C13.2419844,1.42221974 13.7558008,0.532748176 14.2759448,0.532748176 L14.3036152,6.08088792 C14.1420718,6.08088792 12.788783,6.88649241 12.788783,6.88649241" id="Shape" fill-opacity="0.7" fill="#9EA0A5" opacity="0.653180804"></path>
                                <path d="M26.6650496,14.1654212 C26.1977037,20.7680567 20.8501138,25.9804045 14.1149961,25.9804045 C13.9629289,25.9804045 13.8114835,25.9777478 13.660704,25.9724783 C20.0795739,25.7463811 24.8777011,21.3865659 25.4678526,15.0742661 L25.9954201,14.7028845 L26.6650496,14.1654212 Z" id="Path" fill-opacity="0.7" fill="#9EA0A5" opacity="0.653180804"></path>
                                <path d="M12.7499941,1.44159304 L12.7499941,6.89466225 C8.72622468,6.89466225 5.46431504,10.1498919 5.46431504,14.1654212 C5.46431504,18.1809505 8.72622468,21.4361801 12.7499941,21.4361801 C16.4650425,21.4361801 19.5306527,18.6612989 19.9791974,15.0751341 L25.4678526,15.0750532 C25.0005067,21.6776887 19.4851119,26.8892494 12.7499941,26.8892494 C5.70839759,26.8892494 5.57265872e-05,21.1925975 5.57265872e-05,14.1654212 C5.57265872e-05,7.13824495 5.70839759,1.44159304 12.7499941,1.44159304 Z" id="Path" fill="#CCCED3"></path>
                            </g>
                            <path d="M7.19811083,23.595011 L23.275643,23.595011 C23.7689417,23.595011 24.1688393,24.0645153 24.1688393,24.6436782 C24.1688393,25.222841 23.7689417,25.6923453 23.275643,25.6923453 L7.19811083,25.6923453 C6.70481217,25.6923453 6.30491459,25.222841 6.30491459,24.6436782 C6.30491459,24.0645153 6.70481217,23.595011 7.19811083,23.595011 Z" id="Rectangle" fill="#CCCED3" opacity="0.647623698"></path>
                            <path d="M7.19811083,18.8760088 L23.275643,18.8760088 C23.7689417,18.8760088 24.1688393,19.3455131 24.1688393,19.924676 C24.1688393,20.5038388 23.7689417,20.9733431 23.275643,20.9733431 L7.19811083,20.9733431 C6.70481217,20.9733431 6.30491459,20.5038388 6.30491459,19.924676 C6.30491459,19.3455131 6.70481217,18.8760088 7.19811083,18.8760088 Z" id="Rectangle-Copy-3" fill="#CCCED3" opacity="0.647623698"></path>
                            <path d="M7.26020469,28.3140132 L15.8578155,28.3140132 C16.3854076,28.3140132 16.8131056,28.7835175 16.8131056,29.3626804 C16.8131056,29.9418432 16.3854076,30.4113475 15.8578155,30.4113475 L7.26020469,30.4113475 C6.73261254,30.4113475 6.30491459,29.9418432 6.30491459,29.3626804 C6.30491459,28.7835175 6.73261254,28.3140132 7.26020469,28.3140132 Z" id="Rectangle-Copy-2" fill="#CCCED3" opacity="0.647623698"></path>
                        </g>
                        <g id="DOC-Copy-2" transform="translate(232.994248, 65.405820) rotate(30.000000) translate(-232.994248, -65.405820) translate(213.998080, 40.248732)">
                            <path d="M8.32064654,0.636172405 L35.0675297,0.636172405 C36.1720992,0.636172405 37.0675297,1.53160291 37.0675297,2.63617241 L37.0675297,46.8967088 C37.0675297,48.0012783 36.1720992,48.8967088 35.0675297,48.8967088 L4.15565232,48.8967088 C3.05108282,48.8967088 2.15565232,48.0012783 2.15565232,46.8967088 L2.15565232,6.10757043 L2.15565232,6.10757043 L8.32064654,0.636172405 Z" id="Rectangle" fill="#FFFFFF"></path>
                            <mask id="mask-16" fill="white">
                                <use xlink:href="#path-15"></use>
                            </mask>
                            <g id="Rectangle">
                                <use fill="black" fill-opacity="1" filter="url(#filter-17)" xlink:href="#path-15"></use>
                                <use fill="#FFFFFF" fill-rule="evenodd" xlink:href="#path-15"></use>
                            </g>
                            <g id="Triangle" mask="url(#mask-16)" transform="translate(4.997449, 5.180040) rotate(139.000000) translate(-4.997449, -5.180040) ">
                                <use fill="black" fill-opacity="1" filter="url(#filter-19)" xlink:href="#path-18"></use>
                                <use fill="#E7E8EC" fill-rule="evenodd" xlink:href="#path-18"></use>
                            </g>
                            <circle id="Oval" fill="#9EA0A5" opacity="0.205915179" mask="url(#mask-16)" cx="10.9020523" cy="13.7883567" r="3.08045977"></circle>
                            <polygon id="Path" fill="#9EA0A5" opacity="0.205915179" mask="url(#mask-16)" points="5.06662159 32.5867272 14.5535448 21.2917081 19.48636 27.165118 22.9243594 22.9052822 30.7371197 32.5867272"></polygon>
                        </g>
                        <g id="Excel" transform="translate(204.827871, 56.940540) rotate(-17.000000) translate(-204.827871, -56.940540) translate(182.751243, 25.622532)">
                            <path d="M3.2440401,0.469928433 L42.9379646,0.469928433 C43.6022782,0.469928433 44.1408108,1.01409028 44.1408108,1.68534793 L44.1408108,58.8100645 C44.1408108,59.4813221 43.6022782,60.025484 42.9379646,60.025484 L3.2440401,60.025484 C2.57972649,60.025484 2.0411939,59.4813221 2.0411939,58.8100645 L2.0411939,1.68534793 C2.0411939,1.01409028 2.57972649,0.469928433 3.2440401,0.469928433 Z" id="Rectangle" fill="#FFFFFF"></path>
                            <g id="Rectangle">
                                <use fill="black" fill-opacity="1" filter="url(#filter-21)" xlink:href="#path-20"></use>
                                <use fill="#FFFFFF" fill-rule="evenodd" xlink:href="#path-20"></use>
                            </g>
                            <g id="Table" transform="translate(0.608921, 3.182874)">
                                <path d="M23.4555008,3.60479335 L29.4697318,3.60479335 C29.8018886,3.60479335 30.0711549,3.87378017 30.0711549,4.20559224 L30.0711549,6.6087878 C30.0711549,6.94059987 29.8018886,7.2095867 29.4697318,7.2095867 L23.4555008,7.2095867 C23.123344,7.2095867 22.8540777,6.94059987 22.8540777,6.6087878 L22.8540777,4.20559224 C22.8540777,3.87378017 23.123344,3.60479335 23.4555008,3.60479335 Z" id="Rectangle" fill="#EBEBEC"></path>
                                <path d="M4.20996169,3.60479335 L10.2241927,3.60479335 C10.5563495,3.60479335 10.8256158,3.87378017 10.8256158,4.20559224 L10.8256158,6.6087878 C10.8256158,6.94059987 10.5563495,7.2095867 10.2241927,7.2095867 L4.20996169,7.2095867 C3.87780488,7.2095867 3.60853859,6.94059987 3.60853859,6.6087878 L3.60853859,4.20559224 C3.60853859,3.87378017 3.87780488,3.60479335 4.20996169,3.60479335 Z" id="Rectangle-Copy-8" fill="#EBEBEC"></path>
                                <path d="M33.0782704,3.60479335 L39.0925014,3.60479335 C39.4246582,3.60479335 39.6939245,3.87378017 39.6939245,4.20559224 L39.6939245,6.6087878 C39.6939245,6.94059987 39.4246582,7.2095867 39.0925014,7.2095867 L33.0782704,7.2095867 C32.7461136,7.2095867 32.4768473,6.94059987 32.4768473,6.6087878 L32.4768473,4.20559224 C32.4768473,3.87378017 32.7461136,3.60479335 33.0782704,3.60479335 Z" id="Rectangle-Copy-7" fill="#EBEBEC"></path>
                                <path d="M13.8327313,3.60479335 L19.8469622,3.60479335 C20.179119,3.60479335 20.4483853,3.87378017 20.4483853,4.20559224 L20.4483853,6.6087878 C20.4483853,6.94059987 20.179119,7.2095867 19.8469622,7.2095867 L13.8327313,7.2095867 C13.5005744,7.2095867 13.2313082,6.94059987 13.2313082,6.6087878 L13.2313082,4.20559224 C13.2313082,3.87378017 13.5005744,3.60479335 13.8327313,3.60479335 Z" id="Rectangle-Copy-9" fill="#EBEBEC"></path>
                                <path d="M23.4555008,9.61278226 L29.4697318,9.61278226 C29.8018886,9.61278226 30.0711549,9.88176909 30.0711549,10.2135812 L30.0711549,12.6167767 C30.0711549,12.9485888 29.8018886,13.2175756 29.4697318,13.2175756 L23.4555008,13.2175756 C23.123344,13.2175756 22.8540777,12.9485888 22.8540777,12.6167767 L22.8540777,10.2135812 C22.8540777,9.88176909 23.123344,9.61278226 23.4555008,9.61278226 Z" id="Rectangle" fill="#EBEBEC"></path>
                                <path d="M4.20996169,9.61278226 L10.2241927,9.61278226 C10.5563495,9.61278226 10.8256158,9.88176909 10.8256158,10.2135812 L10.8256158,12.6167767 C10.8256158,12.9485888 10.5563495,13.2175756 10.2241927,13.2175756 L4.20996169,13.2175756 C3.87780488,13.2175756 3.60853859,12.9485888 3.60853859,12.6167767 L3.60853859,10.2135812 C3.60853859,9.88176909 3.87780488,9.61278226 4.20996169,9.61278226 Z" id="Rectangle-Copy-8" fill="#EBEBEC"></path>
                                <path d="M33.0782704,9.61278226 L39.0925014,9.61278226 C39.4246582,9.61278226 39.6939245,9.88176909 39.6939245,10.2135812 L39.6939245,12.6167767 C39.6939245,12.9485888 39.4246582,13.2175756 39.0925014,13.2175756 L33.0782704,13.2175756 C32.7461136,13.2175756 32.4768473,12.9485888 32.4768473,12.6167767 L32.4768473,10.2135812 C32.4768473,9.88176909 32.7461136,9.61278226 33.0782704,9.61278226 Z" id="Rectangle-Copy-7" fill="#EBEBEC"></path>
                                <path d="M13.8327313,9.61278226 L19.8469622,9.61278226 C20.179119,9.61278226 20.4483853,9.88176909 20.4483853,10.2135812 L20.4483853,12.6167767 C20.4483853,12.9485888 20.179119,13.2175756 19.8469622,13.2175756 L13.8327313,13.2175756 C13.5005744,13.2175756 13.2313082,12.9485888 13.2313082,12.6167767 L13.2313082,10.2135812 C13.2313082,9.88176909 13.5005744,9.61278226 13.8327313,9.61278226 Z" id="Rectangle-Copy-9" fill="#EBEBEC"></path>
                                <path d="M23.4555008,15.6207712 L29.4697318,15.6207712 C29.8018886,15.6207712 30.0711549,15.889758 30.0711549,16.2215701 L30.0711549,18.6247656 C30.0711549,18.9565777 29.8018886,19.2255645 29.4697318,19.2255645 L23.4555008,19.2255645 C23.123344,19.2255645 22.8540777,18.9565777 22.8540777,18.6247656 L22.8540777,16.2215701 C22.8540777,15.889758 23.123344,15.6207712 23.4555008,15.6207712 Z" id="Rectangle" fill="#EBEBEC"></path>
                                <path d="M4.20996169,15.6207712 L10.2241927,15.6207712 C10.5563495,15.6207712 10.8256158,15.889758 10.8256158,16.2215701 L10.8256158,18.6247656 C10.8256158,18.9565777 10.5563495,19.2255645 10.2241927,19.2255645 L4.20996169,19.2255645 C3.87780488,19.2255645 3.60853859,18.9565777 3.60853859,18.6247656 L3.60853859,16.2215701 C3.60853859,15.889758 3.87780488,15.6207712 4.20996169,15.6207712 Z" id="Rectangle-Copy-8" fill="#EBEBEC"></path>
                                <path d="M33.0782704,15.6207712 L39.0925014,15.6207712 C39.4246582,15.6207712 39.6939245,15.889758 39.6939245,16.2215701 L39.6939245,18.6247656 C39.6939245,18.9565777 39.4246582,19.2255645 39.0925014,19.2255645 L33.0782704,19.2255645 C32.7461136,19.2255645 32.4768473,18.9565777 32.4768473,18.6247656 L32.4768473,16.2215701 C32.4768473,15.889758 32.7461136,15.6207712 33.0782704,15.6207712 Z" id="Rectangle-Copy-7" fill="#EBEBEC"></path>
                                <path d="M13.8327313,15.6207712 L19.8469622,15.6207712 C20.179119,15.6207712 20.4483853,15.889758 20.4483853,16.2215701 L20.4483853,18.6247656 C20.4483853,18.9565777 20.179119,19.2255645 19.8469622,19.2255645 L13.8327313,19.2255645 C13.5005744,19.2255645 13.2313082,18.9565777 13.2313082,18.6247656 L13.2313082,16.2215701 C13.2313082,15.889758 13.5005744,15.6207712 13.8327313,15.6207712 Z" id="Rectangle-Copy-9" fill="#EBEBEC"></path>
                                <path d="M23.4555008,21.6287601 L29.4697318,21.6287601 C29.8018886,21.6287601 30.0711549,21.8977469 30.0711549,22.229559 L30.0711549,24.6327545 C30.0711549,24.9645666 29.8018886,25.2335534 29.4697318,25.2335534 L23.4555008,25.2335534 C23.123344,25.2335534 22.8540777,24.9645666 22.8540777,24.6327545 L22.8540777,22.229559 C22.8540777,21.8977469 23.123344,21.6287601 23.4555008,21.6287601 Z" id="Rectangle" fill="#EBEBEC"></path>
                                <path d="M4.20996169,21.6287601 L10.2241927,21.6287601 C10.5563495,21.6287601 10.8256158,21.8977469 10.8256158,22.229559 L10.8256158,24.6327545 C10.8256158,24.9645666 10.5563495,25.2335534 10.2241927,25.2335534 L4.20996169,25.2335534 C3.87780488,25.2335534 3.60853859,24.9645666 3.60853859,24.6327545 L3.60853859,22.229559 C3.60853859,21.8977469 3.87780488,21.6287601 4.20996169,21.6287601 Z" id="Rectangle-Copy-8" fill="#EBEBEC"></path>
                                <path d="M33.0782704,21.6287601 L39.0925014,21.6287601 C39.4246582,21.6287601 39.6939245,21.8977469 39.6939245,22.229559 L39.6939245,24.6327545 C39.6939245,24.9645666 39.4246582,25.2335534 39.0925014,25.2335534 L33.0782704,25.2335534 C32.7461136,25.2335534 32.4768473,24.9645666 32.4768473,24.6327545 L32.4768473,22.229559 C32.4768473,21.8977469 32.7461136,21.6287601 33.0782704,21.6287601 Z" id="Rectangle-Copy-7" fill="#EBEBEC"></path>
                                <path d="M13.8327313,21.6287601 L19.8469622,21.6287601 C20.179119,21.6287601 20.4483853,21.8977469 20.4483853,22.229559 L20.4483853,24.6327545 C20.4483853,24.9645666 20.179119,25.2335534 19.8469622,25.2335534 L13.8327313,25.2335534 C13.5005744,25.2335534 13.2313082,24.9645666 13.2313082,24.6327545 L13.2313082,22.229559 C13.2313082,21.8977469 13.5005744,21.6287601 13.8327313,21.6287601 Z" id="Rectangle-Copy-9" fill="#EBEBEC"></path>
                                <path d="M23.4555008,27.636749 L29.4697318,27.636749 C29.8018886,27.636749 30.0711549,27.9057358 30.0711549,28.2375479 L30.0711549,30.6407435 C30.0711549,30.9725555 29.8018886,31.2415423 29.4697318,31.2415423 L23.4555008,31.2415423 C23.123344,31.2415423 22.8540777,30.9725555 22.8540777,30.6407435 L22.8540777,28.2375479 C22.8540777,27.9057358 23.123344,27.636749 23.4555008,27.636749 Z" id="Rectangle" fill="#EBEBEC"></path>
                                <path d="M4.20996169,27.636749 L10.2241927,27.636749 C10.5563495,27.636749 10.8256158,27.9057358 10.8256158,28.2375479 L10.8256158,30.6407435 C10.8256158,30.9725555 10.5563495,31.2415423 10.2241927,31.2415423 L4.20996169,31.2415423 C3.87780488,31.2415423 3.60853859,30.9725555 3.60853859,30.6407435 L3.60853859,28.2375479 C3.60853859,27.9057358 3.87780488,27.636749 4.20996169,27.636749 Z" id="Rectangle-Copy-8" fill="#EBEBEC"></path>
                                <path d="M33.0782704,27.636749 L39.0925014,27.636749 C39.4246582,27.636749 39.6939245,27.9057358 39.6939245,28.2375479 L39.6939245,30.6407435 C39.6939245,30.9725555 39.4246582,31.2415423 39.0925014,31.2415423 L33.0782704,31.2415423 C32.7461136,31.2415423 32.4768473,30.9725555 32.4768473,30.6407435 L32.4768473,28.2375479 C32.4768473,27.9057358 32.7461136,27.636749 33.0782704,27.636749 Z" id="Rectangle-Copy-7" fill="#EBEBEC"></path>
                                <path d="M13.8327313,27.636749 L19.8469622,27.636749 C20.179119,27.636749 20.4483853,27.9057358 20.4483853,28.2375479 L20.4483853,30.6407435 C20.4483853,30.9725555 20.179119,31.2415423 19.8469622,31.2415423 L13.8327313,31.2415423 C13.5005744,31.2415423 13.2313082,30.9725555 13.2313082,30.6407435 L13.2313082,28.2375479 C13.2313082,27.9057358 13.5005744,27.636749 13.8327313,27.636749 Z" id="Rectangle-Copy-9" fill="#EBEBEC"></path>
                                <path d="M23.4555008,33.6447379 L29.4697318,33.6447379 C29.8018886,33.6447379 30.0711549,33.9137247 30.0711549,34.2455368 L30.0711549,36.6487324 C30.0711549,36.9805444 29.8018886,37.2495313 29.4697318,37.2495313 L23.4555008,37.2495313 C23.123344,37.2495313 22.8540777,36.9805444 22.8540777,36.6487324 L22.8540777,34.2455368 C22.8540777,33.9137247 23.123344,33.6447379 23.4555008,33.6447379 Z" id="Rectangle" fill="#EBEBEC"></path>
                                <path d="M4.20996169,33.6447379 L10.2241927,33.6447379 C10.5563495,33.6447379 10.8256158,33.9137247 10.8256158,34.2455368 L10.8256158,36.6487324 C10.8256158,36.9805444 10.5563495,37.2495313 10.2241927,37.2495313 L4.20996169,37.2495313 C3.87780488,37.2495313 3.60853859,36.9805444 3.60853859,36.6487324 L3.60853859,34.2455368 C3.60853859,33.9137247 3.87780488,33.6447379 4.20996169,33.6447379 Z" id="Rectangle-Copy-8" fill="#EBEBEC"></path>
                                <path d="M33.0782704,33.6447379 L39.0925014,33.6447379 C39.4246582,33.6447379 39.6939245,33.9137247 39.6939245,34.2455368 L39.6939245,36.6487324 C39.6939245,36.9805444 39.4246582,37.2495313 39.0925014,37.2495313 L33.0782704,37.2495313 C32.7461136,37.2495313 32.4768473,36.9805444 32.4768473,36.6487324 L32.4768473,34.2455368 C32.4768473,33.9137247 32.7461136,33.6447379 33.0782704,33.6447379 Z" id="Rectangle-Copy-7" fill="#EBEBEC"></path>
                                <path d="M13.8327313,33.6447379 L19.8469622,33.6447379 C20.179119,33.6447379 20.4483853,33.9137247 20.4483853,34.2455368 L20.4483853,36.6487324 C20.4483853,36.9805444 20.179119,37.2495313 19.8469622,37.2495313 L13.8327313,37.2495313 C13.5005744,37.2495313 13.2313082,36.9805444 13.2313082,36.6487324 L13.2313082,34.2455368 C13.2313082,33.9137247 13.5005744,33.6447379 13.8327313,33.6447379 Z" id="Rectangle-Copy-9" fill="#EBEBEC"></path>
                                <path d="M23.4555008,39.6527268 L29.4697318,39.6527268 C29.8018886,39.6527268 30.0711549,39.9217137 30.0711549,40.2535257 L30.0711549,42.6567213 C30.0711549,42.9885334 29.8018886,43.2575202 29.4697318,43.2575202 L23.4555008,43.2575202 C23.123344,43.2575202 22.8540777,42.9885334 22.8540777,42.6567213 L22.8540777,40.2535257 C22.8540777,39.9217137 23.123344,39.6527268 23.4555008,39.6527268 Z" id="Rectangle" fill="#EBEBEC"></path>
                                <path d="M4.20996169,39.6527268 L10.2241927,39.6527268 C10.5563495,39.6527268 10.8256158,39.9217137 10.8256158,40.2535257 L10.8256158,42.6567213 C10.8256158,42.9885334 10.5563495,43.2575202 10.2241927,43.2575202 L4.20996169,43.2575202 C3.87780488,43.2575202 3.60853859,42.9885334 3.60853859,42.6567213 L3.60853859,40.2535257 C3.60853859,39.9217137 3.87780488,39.6527268 4.20996169,39.6527268 Z" id="Rectangle-Copy-8" fill="#EBEBEC"></path>
                                <path d="M33.0782704,39.6527268 L39.0925014,39.6527268 C39.4246582,39.6527268 39.6939245,39.9217137 39.6939245,40.2535257 L39.6939245,42.6567213 C39.6939245,42.9885334 39.4246582,43.2575202 39.0925014,43.2575202 L33.0782704,43.2575202 C32.7461136,43.2575202 32.4768473,42.9885334 32.4768473,42.6567213 L32.4768473,40.2535257 C32.4768473,39.9217137 32.7461136,39.6527268 33.0782704,39.6527268 Z" id="Rectangle-Copy-7" fill="#EBEBEC"></path>
                                <path d="M13.8327313,39.6527268 L19.8469622,39.6527268 C20.179119,39.6527268 20.4483853,39.9217137 20.4483853,40.2535257 L20.4483853,42.6567213 C20.4483853,42.9885334 20.179119,43.2575202 19.8469622,43.2575202 L13.8327313,43.2575202 C13.5005744,43.2575202 13.2313082,42.9885334 13.2313082,42.6567213 L13.2313082,40.2535257 C13.2313082,39.9217137 13.5005744,39.6527268 13.8327313,39.6527268 Z" id="Rectangle-Copy-9" fill="#EBEBEC"></path>
                                <path d="M23.4555008,45.6607157 L29.4697318,45.6607157 C29.8018886,45.6607157 30.0711549,45.9297026 30.0711549,46.2615146 L30.0711549,48.6647102 C30.0711549,48.9965223 29.8018886,49.2655091 29.4697318,49.2655091 L23.4555008,49.2655091 C23.123344,49.2655091 22.8540777,48.9965223 22.8540777,48.6647102 L22.8540777,46.2615146 C22.8540777,45.9297026 23.123344,45.6607157 23.4555008,45.6607157 Z" id="Rectangle" fill="#EBEBEC"></path>
                                <path d="M4.20996169,45.6607157 L10.2241927,45.6607157 C10.5563495,45.6607157 10.8256158,45.9297026 10.8256158,46.2615146 L10.8256158,48.6647102 C10.8256158,48.9965223 10.5563495,49.2655091 10.2241927,49.2655091 L4.20996169,49.2655091 C3.87780488,49.2655091 3.60853859,48.9965223 3.60853859,48.6647102 L3.60853859,46.2615146 C3.60853859,45.9297026 3.87780488,45.6607157 4.20996169,45.6607157 Z" id="Rectangle-Copy-8" fill="#EBEBEC"></path>
                                <path d="M33.0782704,45.6607157 L39.0925014,45.6607157 C39.4246582,45.6607157 39.6939245,45.9297026 39.6939245,46.2615146 L39.6939245,48.6647102 C39.6939245,48.9965223 39.4246582,49.2655091 39.0925014,49.2655091 L33.0782704,49.2655091 C32.7461136,49.2655091 32.4768473,48.9965223 32.4768473,48.6647102 L32.4768473,46.2615146 C32.4768473,45.9297026 32.7461136,45.6607157 33.0782704,45.6607157 Z" id="Rectangle-Copy-7" fill="#EBEBEC"></path>
                                <path d="M13.8327313,45.6607157 L19.8469622,45.6607157 C20.179119,45.6607157 20.4483853,45.9297026 20.4483853,46.2615146 L20.4483853,48.6647102 C20.4483853,48.9965223 20.179119,49.2655091 19.8469622,49.2655091 L13.8327313,49.2655091 C13.5005744,49.2655091 13.2313082,48.9965223 13.2313082,48.6647102 L13.2313082,46.2615146 C13.2313082,45.9297026 13.5005744,45.6607157 13.8327313,45.6607157 Z" id="Rectangle-Copy-9" fill="#EBEBEC"></path>
                                <path d="M23.4555008,51.6687047 L29.4697318,51.6687047 C29.8018886,51.6687047 30.0711549,51.9376915 30.0711549,52.2695035 L30.0711549,54.6726991 C30.0711549,55.0045112 29.8018886,55.273498 29.4697318,55.273498 L23.4555008,55.273498 C23.123344,55.273498 22.8540777,55.0045112 22.8540777,54.6726991 L22.8540777,52.2695035 C22.8540777,51.9376915 23.123344,51.6687047 23.4555008,51.6687047 Z" id="Rectangle" fill="#EBEBEC"></path>
                                <path d="M4.20996169,51.6687047 L10.2241927,51.6687047 C10.5563495,51.6687047 10.8256158,51.9376915 10.8256158,52.2695035 L10.8256158,54.6726991 C10.8256158,55.0045112 10.5563495,55.273498 10.2241927,55.273498 L4.20996169,55.273498 C3.87780488,55.273498 3.60853859,55.0045112 3.60853859,54.6726991 L3.60853859,52.2695035 C3.60853859,51.9376915 3.87780488,51.6687047 4.20996169,51.6687047 Z" id="Rectangle-Copy-8" fill="#EBEBEC"></path>
                                <path d="M33.0782704,51.6687047 L39.0925014,51.6687047 C39.4246582,51.6687047 39.6939245,51.9376915 39.6939245,52.2695035 L39.6939245,54.6726991 C39.6939245,55.0045112 39.4246582,55.273498 39.0925014,55.273498 L33.0782704,55.273498 C32.7461136,55.273498 32.4768473,55.0045112 32.4768473,54.6726991 L32.4768473,52.2695035 C32.4768473,51.9376915 32.7461136,51.6687047 33.0782704,51.6687047 Z" id="Rectangle-Copy-7" fill="#EBEBEC"></path>
                                <path d="M13.8327313,51.6687047 L19.8469622,51.6687047 C20.179119,51.6687047 20.4483853,51.9376915 20.4483853,52.2695035 L20.4483853,54.6726991 C20.4483853,55.0045112 20.179119,55.273498 19.8469622,55.273498 L13.8327313,55.273498 C13.5005744,55.273498 13.2313082,55.0045112 13.2313082,54.6726991 L13.2313082,52.2695035 C13.2313082,51.9376915 13.5005744,51.6687047 13.8327313,51.6687047 Z" id="Rectangle-Copy-9" fill="#EBEBEC"></path>
                                <polygon id="Rectangle" fill="url(#linearGradient-22)" points="0 0 42.0996169 0 42.0996169 56.4750958 0 56.4750958"></polygon>
                            </g>
                            <polygon id="X" fill-opacity="0.8" fill="#CCCED3" fill-rule="nonzero" points="9.12815485 57.0057082 13.2173938 51.568198 17.3066327 57.0057082 21.5642521 57.0057082 15.6228285 49.7589722 21.143301 42.6302292 17.1262251 42.6302292 13.4098286 47.8022552 9.62126896 42.6302292 5.50797568 42.6302292 10.9683124 49.5918155 5.13513331 57.0057082"></polygon>
                        </g>
                        <g id="Trend" transform="translate(108.842912, 93.440613)">
                            <g id="base">
                                <g id="Path">
                                    <use fill="black" fill-opacity="1" filter="url(#filter-24)" xlink:href="#path-23"></use>
                                    <use fill="#FFFFFF" fill-rule="evenodd" xlink:href="#path-23"></use>
                                </g>
                                <g id="Path">
                                    <use fill="black" fill-opacity="1" filter="url(#filter-26)" xlink:href="#path-25"></use>
                                    <use fill="#FFFFFF" fill-rule="evenodd" xlink:href="#path-25"></use>
                                </g>
                                <path d="M5.2540955,-7.4512283e-15 L70.4048796,-7.4512283e-15 C73.3066365,-7.4512283e-15 75.6589751,2.34752139 75.6589751,5.24333578 L75.6589751,12.4529225 L0,12.4529225 L0,5.24333578 C0,2.34752139 2.35233868,-7.4512283e-15 5.2540955,-7.4512283e-15 Z" id="Path-Copy" fill="#E8E9EC"></path>
                            </g>
                            <g id="lines" transform="translate(8.406553, 22.022010)" fill="#CCCED3" fill-opacity="0.27" fill-rule="nonzero">
                                <path d="M58.0577552,28.0518464 C58.2028431,28.0518464 58.32046,28.2279105 58.32046,28.4450966 C58.32046,28.6312561 58.2340476,28.7872035 58.117991,28.8279608 L58.0577552,28.8383468 L1.11022302e-16,28.8383468 C-0.145087841,28.8383468 -0.262704775,28.6622827 -0.262704775,28.4450966 C-0.262704775,28.2589371 -0.176292334,28.1029897 -0.0602357945,28.0622324 L1.11022302e-16,28.0518464 L58.0577552,28.0518464 Z" id="Line"></path>
                                <path d="M58.0577552,21.1044265 C58.2028431,21.1044265 58.32046,21.2804906 58.32046,21.4976767 C58.32046,21.6838362 58.2340476,21.8397836 58.117991,21.8805409 L58.0577552,21.8909269 L1.11022302e-16,21.8909269 C-0.145087841,21.8909269 -0.262704775,21.7148628 -0.262704775,21.4976767 C-0.262704775,21.3115172 -0.176292334,21.1555698 -0.0602357945,21.1148125 L1.11022302e-16,21.1044265 L58.0577552,21.1044265 Z" id="Line-Copy"></path>
                                <path d="M58.0577552,14.1570066 C58.2028431,14.1570066 58.32046,14.3330707 58.32046,14.5502568 C58.32046,14.7364163 58.2340476,14.8923637 58.117991,14.933121 L58.0577552,14.943507 L1.11022302e-16,14.943507 C-0.145087841,14.943507 -0.262704775,14.7674429 -0.262704775,14.5502568 C-0.262704775,14.3640973 -0.176292334,14.2081499 -0.0602357945,14.1673926 L1.11022302e-16,14.1570066 L58.0577552,14.1570066 Z" id="Line-Copy-2"></path>
                                <path d="M58.0577552,7.2095867 C58.2028431,7.2095867 58.32046,7.3856508 58.32046,7.60283688 C58.32046,7.78899638 58.2340476,7.94494381 58.117991,7.98570105 L58.0577552,7.99608706 L1.11022302e-16,7.99608706 C-0.145087841,7.99608706 -0.262704775,7.82002296 -0.262704775,7.60283688 C-0.262704775,7.41667738 -0.176292334,7.26072995 -0.0602357945,7.21997271 L1.11022302e-16,7.2095867 L58.0577552,7.2095867 Z" id="Line-Copy-3"></path>
                                <path d="M58.0577552,0.262166789 C58.2028431,0.262166789 58.32046,0.438230893 58.32046,0.655416972 C58.32046,0.841576469 58.2340476,0.997523902 58.117991,1.03828114 L58.0577552,1.04866716 L1.11022302e-16,1.04866716 C-0.145087841,1.04866716 -0.262704775,0.872603052 -0.262704775,0.655416972 C-0.262704775,0.469257476 -0.176292334,0.313310043 -0.0602357945,0.272552807 L1.11022302e-16,0.262166789 L58.0577552,0.262166789 Z" id="Line-Copy-4"></path>
                            </g>
                            <g id="Group" transform="translate(24.168839, 54.530692)">
                                <path d="M4.2032764,0 L10.508191,0 C11.0885424,0 11.5590101,0.469504278 11.5590101,1.04866716 C11.5590101,1.62783003 11.0885424,2.09733431 10.508191,2.09733431 L4.2032764,2.09733431 C3.62292503,2.09733431 3.1524573,1.62783003 3.1524573,1.04866716 C3.1524573,0.469504278 3.62292503,0 4.2032764,0 Z" id="Rectangle-Copy-2" fill-opacity="0.35" fill="#67696F"></path>
                                <path d="M19.9655629,0 L26.2704775,0 C26.8508288,0 27.3212966,0.469504278 27.3212966,1.04866716 C27.3212966,1.62783003 26.8508288,2.09733431 26.2704775,2.09733431 L19.9655629,2.09733431 C19.3852115,2.09733431 18.9147438,1.62783003 18.9147438,1.04866716 C18.9147438,0.469504278 19.3852115,0 19.9655629,0 Z" id="Rectangle-Copy-5" fill-opacity="0.35" fill="#67696F"></path>
                                <path d="M1.0508191,0 C1.63117046,0 2.1016382,0.469504278 2.1016382,1.04866716 C2.1016382,1.62783003 1.63117046,2.09733431 1.0508191,2.09733431 C0.470467736,2.09733431 0,1.62783003 0,1.04866716 C0,0.469504278 0.470467736,0 1.0508191,0 Z" id="Rectangle-Copy-4" fill="#DFE0E1" opacity="0.647623698"></path>
                                <path d="M16.8131056,0 C17.3934569,0 17.8639247,0.469504278 17.8639247,1.04866716 C17.8639247,1.62783003 17.3934569,2.09733431 16.8131056,2.09733431 C16.2327542,2.09733431 15.7622865,1.62783003 15.7622865,1.04866716 C15.7622865,0.469504278 16.2327542,0 16.8131056,0 Z" id="Rectangle-Copy-6" fill="#ACAEB2" opacity="0.647623698"></path>
                            </g>
                            <path d="M60.684803,37.1228173 C56.8695115,37.1228173 54.1825293,34.2096564 51.7111275,28.7192908 L51.3805974,27.963364 C51.2989329,27.7215544 48.5678388,20.7598989 47.9362614,19.8620894 C47.6587456,19.4675908 47.4300061,19.2954757 47.2642833,19.2954757 C46.4742848,19.2954757 45.552805,20.9295108 44.252519,24.4090874 L43.101168,27.5763925 L42.8629926,28.206785 C42.635118,28.7980505 42.4358926,29.2767079 42.2450365,29.6857161 C41.9368013,30.3462703 41.655544,30.8122309 41.3697742,31.1014569 C40.9656303,31.5104886 40.4827424,31.6044318 40.0598831,31.2610369 C39.6949203,30.9646586 39.3642272,30.6196714 38.9517495,30.1252115 L38.6690046,29.7790247 C38.5260691,29.6013463 38.284787,29.3009921 38.2024689,29.2007815 C37.9971682,28.9508574 37.8331632,28.7641859 37.6785188,28.6079838 C36.9841323,27.9066027 36.5629311,27.8669317 35.9100282,28.593965 C35.6254574,28.9108458 35.2412954,29.6161817 34.7038723,30.7898615 L34.3100991,31.6731339 C33.8657996,32.6946235 32.8060479,35.1638749 32.4590228,35.9440928 L32.0884553,36.7663863 C30.6910118,39.8241177 29.5511937,41.8028455 28.4057651,42.9276929 C27.5551612,43.7630131 26.7005287,44.0908063 25.862268,43.7821356 C24.5120109,43.2849337 23.5776212,42.3621932 21.8911828,40.114309 L21.3144797,39.3356707 C19.1814171,36.4387405 18.0721746,35.4187332 16.5504008,35.4187332 C14.261571,35.4187332 11.6158747,39.3691698 8.80278476,47.2992817 C8.725316,47.5176664 8.48511608,47.63203 8.26628321,47.5547199 C8.04745034,47.4774098 7.93285208,47.2377017 8.01032083,47.019317 L8.33026475,46.1320611 C11.1511715,38.4392745 13.8347016,34.5797995 16.5504008,34.5797995 C18.3358262,34.5797995 19.5266293,35.5688841 21.5589518,38.2580387 L22.5602773,39.6061993 C24.1433358,41.7153829 25.009326,42.5738371 26.1532774,42.9950715 C26.628434,43.1700373 27.1732204,42.9610852 27.8161307,42.3297267 C28.9128566,41.2527069 30.0685176,39.2062696 31.5090869,36.0093573 L31.9724376,34.9610247 C32.5208057,33.7009402 33.4747941,31.4779259 33.6956516,30.981402 L33.9497917,30.4178587 C34.5190064,29.1752415 34.9270165,28.4315678 35.283992,28.0340614 C36.2941458,26.9092151 37.2693827,27.0010681 38.2765291,28.0183597 C38.4173901,28.1606395 38.5605276,28.3199497 38.7249701,28.5153271 L39.4225486,29.375415 L39.7512813,29.7695909 C40.0607397,30.128948 40.3193998,30.3901846 40.5904828,30.6103253 C40.6325437,30.644482 40.6426398,30.6425179 40.7711737,30.5124294 C40.9728632,30.3083007 41.2122324,29.9117363 41.4829597,29.3315622 C41.6651522,28.9411202 41.8580404,28.4774672 42.0802423,27.9007448 L43.4659499,24.1110587 C44.9529127,20.1111899 45.9107006,18.4565419 47.2642833,18.4565419 C47.7696014,18.4565419 48.2052165,18.7843209 48.6242981,19.3800602 C49.3373363,20.3936691 52.2513376,27.8376441 52.1580633,27.6467001 L52.3149935,28.0089263 L52.6497993,28.7518825 C54.8886808,33.5913732 57.2750272,36.1570223 60.4455347,36.279297 L60.684803,36.2838836 L67.6813075,36.2838836 L67.6813075,37.1228173 L60.684803,37.1228173 Z" id="Path-11" fill-opacity="0.328288899" fill="#9EA0A5" fill-rule="nonzero"></path>
                            <path d="M49.0308653,35.8059572 L49.1056947,35.3924128 C50.4253601,27.9492229 54.6249363,26.7300901 55.9364233,32.7005288 L55.9873288,32.9431831 C56.8280762,37.1435819 59.1805602,40.2484723 61.7741859,42.0002462 C62.7217881,42.640271 64.5555868,42.9768307 67.2524223,42.9768307 C67.4845629,42.9768307 67.67275,43.1646324 67.67275,43.3962975 C67.67275,43.6279627 67.4845629,43.8157644 67.2524223,43.8157644 C64.4009878,43.8157644 62.4255673,43.4532126 61.3030011,42.6950145 C58.6281036,40.8883485 56.2118665,37.7549195 55.2538548,33.533294 L55.1629588,33.107513 C54.1495883,28.0446844 51.2238082,28.7482218 49.9892576,35.2350795 L49.9334923,35.5385795 C48.4387306,43.9693491 45.9384717,47.5864602 40.7418163,47.5864602 C37.5070804,47.5864602 35.4943506,46.3198906 33.8726334,43.9271216 L33.7233225,43.6982728 C33.3511277,43.1137456 32.6998253,42.0187175 32.4980148,41.6996402 L31.7908972,40.6372152 C31.7167798,40.528328 31.6468721,40.4271287 31.5771122,40.3278356 C30.0592137,38.1673271 28.6543541,37.1305113 26.599115,37.1305113 C25.1570116,37.1305113 23.8987266,38.3935851 21.6564838,41.6795967 L20.229413,43.7745322 C19.857035,44.3074011 19.6240414,44.613888 19.294957,45.0221435 C18.9168593,45.4912039 18.5610701,45.8798265 18.2128623,46.1967912 C16.3145311,47.9247939 13.0670939,49.10927 8.4669161,49.7754548 C8.23718185,49.8087242 8.02391986,49.6498394 7.99058213,49.4205756 C7.95724439,49.1913119 8.11645523,48.9784866 8.34618948,48.9452171 C12.7953019,48.3009093 15.8965634,47.1697495 17.6463394,45.5769728 C17.8967079,45.3490688 18.1564769,45.0744413 18.4310968,44.7495001 L18.8477121,44.2353492 C19.2235829,43.7561879 19.5356033,43.312776 20.2978162,42.1879023 L20.7462251,41.5247734 C23.3112112,37.7264081 24.6909592,36.2915775 26.599115,36.2915775 C28.9897635,36.2915775 30.6062129,37.4845512 32.2654394,39.8462195 L32.6031956,40.3386802 L33.1620517,41.1792749 C33.3239464,41.4215435 34.1443062,42.8065048 34.5035896,43.3584175 L34.5689669,43.4571074 C36.0453216,45.6354008 37.8126218,46.7475264 40.7418163,46.7475264 C45.3276833,46.7475264 47.5946826,43.5822562 49.0308653,35.8059572 Z" id="Path-12" fill-opacity="0.851207386" fill="#9EA0A5" fill-rule="nonzero"></path>
                        </g>
                        <g id="Pages" transform="translate(21.563218, 17.455939)">
                            <g id="Rectangle-Copy-11">
                                <use fill="black" fill-opacity="1" filter="url(#filter-29)" xlink:href="#path-28"></use>
                                <use fill="url(#linearGradient-27)" fill-rule="evenodd" xlink:href="#path-28"></use>
                            </g>
                            <g id="Rectangle-Copy-11">
                                <use fill="black" fill-opacity="1" filter="url(#filter-32)" xlink:href="#path-31"></use>
                                <use fill="url(#linearGradient-30)" fill-rule="evenodd" xlink:href="#path-31"></use>
                            </g>
                        </g>
                        <g id="doc" transform="translate(185.854406, 67.770115)">
                            <g id="Rectangle-Copy-11">
                                <use fill="black" fill-opacity="1" filter="url(#filter-34)" xlink:href="#path-33"></use>
                                <use fill="#FFFFFF" fill-rule="evenodd" xlink:href="#path-33"></use>
                            </g>
                            <g id="Rectangle-Copy-12" transform="translate(44.705163, 22.961919) scale(-1, -1) rotate(27.000000) translate(-44.705163, -22.961919) ">
                                <use fill="black" fill-opacity="1" filter="url(#filter-36)" xlink:href="#path-35"></use>
                                <use fill="#CCCED3" fill-rule="evenodd" xlink:href="#path-35"></use>
                            </g>
                        </g>
                    </g>
                </g>
            </g>
        </g>
    </g>
</svg>
