<?xml version="1.0" encoding="UTF-8"?>
<svg width="237px" height="148px" viewBox="0 0 237 148" version="1.1" xmlns="http://www.w3.org/2000/svg" xmlns:xlink="http://www.w3.org/1999/xlink">
    <defs>
        <path d="M5.69621008,0 L60.6876012,0 C63.1368679,0 65.1223908,1.97621156 65.1223908,4.41399207 C65.1223908,7.1849982 65.1223908,9.20807789 65.1223908,10.4832312 C65.1223908,18.8207717 65.1223908,31.2167328 65.1223908,47.6711143 C65.1223908,50.1088948 63.1368679,52.0851064 60.6876012,52.0851064 L5.69621008,52.0851064 C3.24694341,52.0851064 1.26142047,50.1088948 1.26142047,47.6711143 C1.26142047,31.0695997 1.26142047,18.6736387 1.26142047,10.4832312 C1.26142047,9.06094483 1.26142047,7.03786513 1.26142047,4.41399207 C1.26142047,1.97621156 3.24694341,0 5.69621008,0 Z" id="path-1"></path>
        <filter x="-24.3%" y="-22.1%" width="148.5%" height="159.5%" filterUnits="objectBoundingBox" id="filter-2">
            <feOffset dx="0" dy="4" in="SourceAlpha" result="shadowOffsetOuter1"></feOffset>
            <feGaussianBlur stdDeviation="4.5" in="shadowOffsetOuter1" result="shadowBlurOuter1"></feGaussianBlur>
            <feColorMatrix values="0 0 0 0 0   0 0 0 0 0   0 0 0 0 0  0 0 0 0.25 0" type="matrix" in="shadowBlurOuter1"></feColorMatrix>
        </filter>
        <path d="M4.43478961,0 L59.4261807,0 C61.8754474,0 63.8609703,1.97621156 63.8609703,4.41399207 C63.8609703,7.1849982 63.8609703,9.20807789 63.8609703,10.4832312 C63.8609703,18.8207717 63.8609703,31.2167328 63.8609703,47.6711143 C63.8609703,50.1088948 61.8754474,52.0851064 59.4261807,52.0851064 L4.43478961,52.0851064 C1.98552294,52.0851064 0,50.1088948 0,47.6711143 C0,31.0695997 0,18.6736387 0,10.4832312 C0,9.06094483 0,7.03786513 0,4.41399207 C0,1.97621156 1.98552294,0 4.43478961,0 Z" id="path-3"></path>
        <filter x="-24.3%" y="-22.1%" width="148.5%" height="159.5%" filterUnits="objectBoundingBox" id="filter-4">
            <feOffset dx="0" dy="4" in="SourceAlpha" result="shadowOffsetOuter1"></feOffset>
            <feGaussianBlur stdDeviation="4.5" in="shadowOffsetOuter1" result="shadowBlurOuter1"></feGaussianBlur>
            <feColorMatrix values="0 0 0 0 0   0 0 0 0 0   0 0 0 0 0  0 0 0 0.25 0" type="matrix" in="shadowBlurOuter1"></feColorMatrix>
        </filter>
        <path d="M7.63344404,0.454549744 L34.2935469,0.454549744 C35.4263328,0.454549744 36.3446371,1.36903196 36.3446371,2.49710294 L36.3446371,46.4119966 C36.3446371,47.5400675 35.4263328,48.4545497 34.2935469,48.4545497 L3.52719403,48.4545497 C2.39440819,48.4545497 1.47610384,47.5400675 1.47610384,46.4119966 L1.47610384,5.89641021 L7.63344404,0.454549744 Z" id="path-5"></path>
        <filter x="-44.5%" y="-24.0%" width="188.9%" height="164.6%" filterUnits="objectBoundingBox" id="filter-6">
            <feOffset dx="0" dy="4" in="SourceAlpha" result="shadowOffsetOuter1"></feOffset>
            <feGaussianBlur stdDeviation="4.5" in="shadowOffsetOuter1" result="shadowBlurOuter1"></feGaussianBlur>
            <feColorMatrix values="0 0 0 0 0   0 0 0 0 0   0 0 0 0 0  0 0 0 0.25 0" type="matrix" in="shadowBlurOuter1"></feColorMatrix>
        </filter>
        <path d="M6.42216811,1.1433763 L33.082271,1.1433763 C34.2150568,1.1433763 35.1333612,2.05785851 35.1333612,3.18592949 L35.1333612,47.1008231 C35.1333612,48.2288941 34.2150568,49.1433763 33.082271,49.1433763 L2.3159181,49.1433763 C1.18313226,49.1433763 0.264827905,48.2288941 0.264827905,47.1008231 L0.264827905,6.58523677 L6.42216811,1.1433763 Z" id="path-7"></path>
        <filter x="-44.5%" y="-24.0%" width="188.9%" height="164.6%" filterUnits="objectBoundingBox" id="filter-8">
            <feOffset dx="0" dy="4" in="SourceAlpha" result="shadowOffsetOuter1"></feOffset>
            <feGaussianBlur stdDeviation="4.5" in="shadowOffsetOuter1" result="shadowBlurOuter1"></feGaussianBlur>
            <feColorMatrix values="0 0 0 0 0   0 0 0 0 0   0 0 0 0 0  0 0 0 0.25 0" type="matrix" in="shadowBlurOuter1"></feColorMatrix>
        </filter>
        <path d="M6.26869904,4.29018109 L10.215029,7.7206734 L10.215029,7.7206734 L0.383688786,7.75403505 L3.49731933,4.43191776 C4.23275459,3.64723821 5.45704862,3.58462414 6.26869904,4.29018109 Z" id="path-9"></path>
        <filter x="-20.3%" y="-47.1%" width="140.7%" height="168.2%" filterUnits="objectBoundingBox" id="filter-10">
            <feOffset dx="0" dy="-1" in="SourceAlpha" result="shadowOffsetOuter1"></feOffset>
            <feGaussianBlur stdDeviation="0.5" in="shadowOffsetOuter1" result="shadowBlurOuter1"></feGaussianBlur>
            <feColorMatrix values="0 0 0 0 0   0 0 0 0 0   0 0 0 0 0  0 0 0 0.17 0" type="matrix" in="shadowBlurOuter1"></feColorMatrix>
        </filter>
        <path d="M2.60091386,0.720433666 L42.2455572,0.720433666 C42.909046,0.720433666 43.44691,1.26165783 43.44691,1.92929168 L43.44691,58.7456182 C43.44691,59.4132521 42.909046,59.9544762 42.2455572,59.9544762 L2.60091386,59.9544762 C1.93742502,59.9544762 1.39956104,59.4132521 1.39956104,58.7456182 L1.39956104,1.92929168 C1.39956104,1.26165783 1.93742502,0.720433666 2.60091386,0.720433666 Z" id="path-11"></path>
        <filter x="-17.8%" y="-7.6%" width="135.7%" height="125.3%" filterUnits="objectBoundingBox" id="filter-12">
            <feOffset dx="0" dy="3" in="SourceAlpha" result="shadowOffsetOuter1"></feOffset>
            <feGaussianBlur stdDeviation="2" in="shadowOffsetOuter1" result="shadowBlurOuter1"></feGaussianBlur>
            <feColorMatrix values="0 0 0 0 0   0 0 0 0 0   0 0 0 0 0  0 0 0 0.25 0" type="matrix" in="shadowBlurOuter1"></feColorMatrix>
        </filter>
        <path d="M2.16278285,1.12210246 L41.8074262,1.12210246 C42.470915,1.12210246 43.008779,1.66332663 43.008779,2.33096047 L43.008779,59.147287 C43.008779,59.8149208 42.470915,60.356145 41.8074262,60.356145 L2.16278285,60.356145 C1.499294,60.356145 0.961430023,59.8149208 0.961430023,59.147287 L0.961430023,2.33096047 C0.961430023,1.66332663 1.499294,1.12210246 2.16278285,1.12210246 Z" id="path-13"></path>
        <filter x="-36.9%" y="-19.4%" width="173.7%" height="152.3%" filterUnits="objectBoundingBox" id="filter-15">
            <feOffset dx="0" dy="4" in="SourceAlpha" result="shadowOffsetOuter1"></feOffset>
            <feGaussianBlur stdDeviation="4.5" in="shadowOffsetOuter1" result="shadowBlurOuter1"></feGaussianBlur>
            <feColorMatrix values="0 0 0 0 0   0 0 0 0 0   0 0 0 0 0  0 0 0 0.25 0" type="matrix" in="shadowBlurOuter1"></feColorMatrix>
        </filter>
        <linearGradient x1="50%" y1="1.00031672%" x2="50%" y2="99.3243243%" id="linearGradient-16">
            <stop stop-color="#FFFFFF" stop-opacity="0" offset="0%"></stop>
            <stop stop-color="#F1F2F5" offset="100%"></stop>
        </linearGradient>
        <path d="M6.66604313,0 L70.2498391,0 C73.0818037,0 75.3775646,2.28620553 75.3775646,5.10638298 C75.3775646,8.31205674 75.3775646,10.6524823 75.3775646,12.1276596 C75.3775646,21.7730496 75.3775646,36.1134752 75.3775646,55.1489362 C75.3775646,57.9691136 73.0818037,60.2553191 70.2498391,60.2553191 L6.66604313,60.2553191 C3.83407854,60.2553191 1.53831765,57.9691136 1.53831765,55.1489362 C1.53831765,35.9432624 1.53831765,21.6028369 1.53831765,12.1276596 C1.53831765,10.4822695 1.53831765,8.14184397 1.53831765,5.10638298 C1.53831765,2.28620553 3.83407854,0 6.66604313,0 Z" id="path-17"></path>
        <filter x="-21.0%" y="-19.1%" width="142.0%" height="151.4%" filterUnits="objectBoundingBox" id="filter-18">
            <feOffset dx="0" dy="4" in="SourceAlpha" result="shadowOffsetOuter1"></feOffset>
            <feGaussianBlur stdDeviation="4.5" in="shadowOffsetOuter1" result="shadowBlurOuter1"></feGaussianBlur>
            <feColorMatrix values="0 0 0 0 0   0 0 0 0 0   0 0 0 0 0  0 0 0 0.25 0" type="matrix" in="shadowBlurOuter1"></feColorMatrix>
        </filter>
        <path d="M5.12772548,0 L68.7115215,0 C71.5434861,0 73.839247,2.28620553 73.839247,5.10638298 C73.839247,8.31205674 73.839247,10.6524823 73.839247,12.1276596 C73.839247,21.7730496 73.839247,36.1134752 73.839247,55.1489362 C73.839247,57.9691136 71.5434861,60.2553191 68.7115215,60.2553191 L5.12772548,60.2553191 C2.2957609,60.2553191 0,57.9691136 0,55.1489362 C0,35.9432624 0,21.6028369 0,12.1276596 C0,10.4822695 0,8.14184397 0,5.10638298 C0,2.28620553 2.2957609,0 5.12772548,0 Z" id="path-19"></path>
        <filter x="-21.0%" y="-19.1%" width="142.0%" height="151.4%" filterUnits="objectBoundingBox" id="filter-20">
            <feOffset dx="0" dy="4" in="SourceAlpha" result="shadowOffsetOuter1"></feOffset>
            <feGaussianBlur stdDeviation="4.5" in="shadowOffsetOuter1" result="shadowBlurOuter1"></feGaussianBlur>
            <feColorMatrix values="0 0 0 0 0   0 0 0 0 0   0 0 0 0 0  0 0 0 0.25 0" type="matrix" in="shadowBlurOuter1"></feColorMatrix>
        </filter>
    </defs>
    <g id="In-App-generic-empty-states" stroke="none" stroke-width="1" fill="none" fill-rule="evenodd" opacity="0.5">
        <g id="Generic-Empty-State_No-data" transform="translate(-775.000000, -610.000000)">
            <g id="Dark" transform="translate(683.000000, 0.000000)">
                <g id="No-data_M" transform="translate(92.000000, 573.000000)">
                    <g id="No-data-dark-_M-drawing/Dark" transform="translate(0.000000, 41.000000)">
                        <path d="M52.5060354,2.06175707 C98.4804598,3.53549583 146.798899,-0.395141568 190.738428,11.1609907 C224.858598,20.1346236 209.875703,104.366833 201.531394,126.671085 C193.187084,148.975338 160.467909,131.310275 118.361605,131.310275 C76.2553003,131.310275 52.5060354,151.138042 33.1061759,126.671085 C5.03530627,84.3040603 6.53161094,0.588018297 52.5060354,2.06175707 Z" id="Rectangle" fill="#CCCED3" opacity="0.08"></path>
                        <path d="M75.8965759,0.72244394 C112.197095,-4.18827163 178.992825,16.5605692 219.59887,43.9840145 C251.130504,65.2790226 200.83432,118.379004 182.770969,133.594395 C164.707617,148.809786 135.670456,145.587147 89.4601178,135.132266 C43.2497796,124.677384 12.9037114,124.998601 3.15830286,96.7475221 C-8.00016028,50.0635786 39.5960565,5.63315951 75.8965759,0.72244394 Z" id="Rectangle-Copy" fill="#F1F2F5" opacity="0.22"></path>
                        <g id="Doughnut" transform="translate(26.256799, 22.468085)">
                            <g id="base">
                                <g id="Path">
                                    <use fill="black" fill-opacity="1" filter="url(#filter-2)" xlink:href="#path-1"></use>
                                    <use fill="#D5D6DA" fill-rule="evenodd" xlink:href="#path-1"></use>
                                </g>
                                <g id="Path">
                                    <use fill="black" fill-opacity="1" filter="url(#filter-4)" xlink:href="#path-3"></use>
                                    <use fill="#D5D6DA" fill-rule="evenodd" xlink:href="#path-3"></use>
                                </g>
                                <path d="M4.43478961,-6.27266e-15 L59.4261807,-6.27266e-15 C61.8754474,-6.27266e-15 63.8609703,1.97621156 63.8609703,4.41399207 L63.8609703,10.4832312 L0,10.4832312 L0,4.41399207 C0,1.97621156 1.98552294,-6.27266e-15 4.43478961,-6.27266e-15 Z" id="Path-Copy" fill="#9EA0A5"></path>
                            </g>
                            <g id="Group-3" opacity="0.815359933" transform="translate(36.000000, 17.000000)" fill="#B1B3B7" fill-rule="nonzero">
                                <path d="M7.98184517,16.1798332 C8.0024302,14.697711 8.3523757,13.5706807 9.03168167,12.7987421 L9.03168167,12.7987421 L10.9306506,10.9306506 C12.4951129,9.30443331 13.277344,7.6524847 13.277344,5.9748048 C13.277344,4.0912746 12.69839,2.62459126 11.5404821,1.57475475 C10.3825742,0.524918251 8.76922255,0 6.70042709,0 C4.69338672,0 3.08003503,0.530064509 1.86037204,1.59019353 C0.640709042,2.65032254 0.0205850295,4.0912746 0,5.91304971 L0,5.91304971 L3.75162162,5.91304971 C3.75162162,5.05877099 4.02180013,4.38203815 4.56215715,3.88285118 C5.10251418,3.38366422 5.81527082,3.13407073 6.70042709,3.13407073 C7.62675341,3.13407073 8.32921754,3.38881047 8.80781948,3.89828995 C9.28642141,4.40776943 9.52572238,5.14625736 9.52572238,6.11375375 C9.52572238,6.84452229 9.31987209,7.52382827 8.9081715,8.15167167 C8.64056611,8.56337225 8.00500333,9.25554387 7.00148314,10.2281865 C5.99796296,11.2008292 5.32637637,12.0937048 4.98672339,12.9068135 C4.6470704,13.7199221 4.47724391,14.8109287 4.47724391,16.1798332 L4.47724391,16.1798332 L7.98184517,16.1798332 Z M6.32989656,22.9728929 C7.00920253,22.9728929 7.53412078,22.7824814 7.90465131,22.4016583 C8.27518184,22.0208353 8.46044711,21.5473796 8.46044711,20.9812913 C8.46044711,20.3946179 8.27003558,19.9082966 7.88921254,19.5223273 C7.50838949,19.136358 6.9886175,18.9433734 6.32989656,18.9433734 C5.68146813,18.9433734 5.16684239,19.1312118 4.78601935,19.5068885 C4.4051963,19.8825653 4.21478478,20.3740329 4.21478478,20.9812913 C4.21478478,21.5473796 4.39747692,22.0208353 4.76286119,22.4016583 C5.12824546,22.7824814 5.65059059,22.9728929 6.32989656,22.9728929 Z" id="?"></path>
                            </g>
                            <path d="M7.02498391,22.9787234 L22.7158239,22.9787234 C23.1972579,22.9787234 23.5875372,23.4359645 23.5875372,24 C23.5875372,24.5640355 23.1972579,25.0212766 22.7158239,25.0212766 L7.02498391,25.0212766 C6.54354993,25.0212766 6.15327058,24.5640355 6.15327058,24 C6.15327058,23.4359645 6.54354993,22.9787234 7.02498391,22.9787234 Z" id="Rectangle" fill="#9EA0A5" opacity="0.647623698"></path>
                            <path d="M7.02498391,18.3829787 L22.7158239,18.3829787 C23.1972579,18.3829787 23.5875372,18.8402198 23.5875372,19.4042553 C23.5875372,19.9682908 23.1972579,20.4255319 22.7158239,20.4255319 L7.02498391,20.4255319 C6.54354993,20.4255319 6.15327058,19.9682908 6.15327058,19.4042553 C6.15327058,18.8402198 6.54354993,18.3829787 7.02498391,18.3829787 Z" id="Rectangle-Copy-3" fill="#9EA0A5" opacity="0.647623698"></path>
                            <path d="M7.0855843,27.5744681 L15.4764078,27.5744681 C15.9913105,27.5744681 16.4087215,28.0317092 16.4087215,28.5957447 C16.4087215,29.1597802 15.9913105,29.6170213 15.4764078,29.6170213 L7.0855843,29.6170213 C6.57068165,29.6170213 6.15327058,29.1597802 6.15327058,28.5957447 C6.15327058,28.0317092 6.57068165,27.5744681 7.0855843,27.5744681 Z" id="Rectangle-Copy-2" fill="#9EA0A5" opacity="0.647623698"></path>
                        </g>
                        <g id="Decorations" opacity="0.6" transform="translate(0.618171, 1.021277)" fill="#CCCED3">
                            <path d="M102.041737,53.5531915 C102.199068,53.5531915 102.329921,53.6660905 102.357057,53.814973 L102.36222,53.8723404 L102.36222,54.8297872 C102.36222,55.0060483 102.218735,55.1489362 102.041737,55.1489362 C101.884406,55.1489362 101.753554,55.0360371 101.726418,54.8871547 L101.721254,54.8297872 L101.721254,53.8723404 C101.721254,53.6960793 101.864739,53.5531915 102.041737,53.5531915 Z M103.13043,53.2358328 L103.174815,53.2727618 L103.854662,53.9497789 C103.979818,54.0744144 103.979818,54.2764883 103.854662,54.4011237 C103.743412,54.5119107 103.57072,54.5242204 103.445816,54.4380527 L103.401431,54.4011237 L102.721584,53.7241066 C102.596428,53.5994712 102.596428,53.3973972 102.721584,53.2727618 C102.818928,53.1758232 102.963313,53.1542812 103.081564,53.208136 L103.13043,53.2358328 Z M101.36189,53.2727618 C101.47314,53.3835488 101.485502,53.5555219 101.398974,53.6799058 L101.36189,53.7241066 L100.682044,54.4011237 C100.556887,54.5257591 100.353969,54.5257591 100.228812,54.4011237 C100.117562,54.2903367 100.105201,54.1183636 100.191729,53.9939797 L100.228812,53.9497789 L100.908659,53.2727618 C101.033815,53.1481264 101.236734,53.1481264 101.36189,53.2727618 Z M104.285117,52.2765957 C104.462115,52.2765957 104.6056,52.4194836 104.6056,52.5957447 C104.6056,52.7524212 104.492229,52.8827287 104.342724,52.9097517 L104.285117,52.9148936 L103.323668,52.9148936 C103.146671,52.9148936 103.003186,52.7720058 103.003186,52.5957447 C103.003186,52.4390682 103.116557,52.3087606 103.266061,52.2817377 L103.323668,52.2765957 L104.285117,52.2765957 Z M100.759806,52.2765957 C100.936804,52.2765957 101.080289,52.4194836 101.080289,52.5957447 C101.080289,52.7524212 100.966918,52.8827287 100.817413,52.9097517 L100.759806,52.9148936 L99.7983572,52.9148936 C99.6213594,52.9148936 99.4778744,52.7720058 99.4778744,52.5957447 C99.4778744,52.4390682 99.5912453,52.3087606 99.74075,52.2817377 L99.7983572,52.2765957 L100.759806,52.2765957 Z M100.637658,50.7534367 L100.682044,50.7903657 L101.36189,51.4673828 C101.487047,51.5920182 101.487047,51.7940921 101.36189,51.9187275 C101.25064,52.0295146 101.077948,52.0418243 100.953045,51.9556566 L100.908659,51.9187275 L100.228812,51.2417104 C100.103656,51.117075 100.103656,50.9150011 100.228812,50.7903657 C100.326156,50.693427 100.470541,50.6718851 100.588792,50.7257399 L100.637658,50.7534367 Z M103.854662,50.7903657 C103.965912,50.9011527 103.978273,51.0731257 103.891745,51.1975096 L103.854662,51.2417104 L103.174815,51.9187275 C103.049659,52.043363 102.84674,52.043363 102.721584,51.9187275 C102.610334,51.8079405 102.597973,51.6359675 102.684501,51.5115836 L102.721584,51.4673828 L103.401431,50.7903657 C103.526587,50.6657303 103.729506,50.6657303 103.854662,50.7903657 Z M102.041737,50.0425532 C102.199068,50.0425532 102.329921,50.1554522 102.357057,50.3043347 L102.36222,50.3617021 L102.36222,51.3191489 C102.36222,51.49541 102.218735,51.6382979 102.041737,51.6382979 C101.884406,51.6382979 101.753554,51.5253988 101.726418,51.3765164 L101.721254,51.3191489 L101.721254,50.3617021 C101.721254,50.185441 101.864739,50.0425532 102.041737,50.0425532 Z" id="Combined-Shape-Copy-5" fill-rule="nonzero"></path>
                            <ellipse id="Oval" cx="204.851791" cy="83.2340426" rx="2.56386274" ry="2.55319149"></ellipse>
                            <ellipse id="Oval-Copy-2" cx="123.578184" cy="75.511843" rx="1.53831765" ry="1.53191489"></ellipse>
                            <path d="M137.67112,17.358231 L138.657322,17.3570242 C138.933464,17.3566862 139.157595,17.5802698 139.157933,17.8564119 C139.157934,17.8568205 139.157934,17.8572291 139.157933,17.8576377 L139.134071,37.2913195 C139.133733,37.5669831 138.910347,37.7903678 138.634684,37.7907052 L137.648482,37.791912 C137.37234,37.7922499 137.148209,37.5686664 137.147871,37.2925242 C137.14787,37.2921157 137.14787,37.2917071 137.147871,37.2912985 L137.171732,17.8576167 C137.172071,17.5819531 137.395457,17.3585683 137.67112,17.358231 Z" id="Rectangle-Copy-6" opacity="0.339076451" transform="translate(138.152902, 27.574468) scale(-1, 1) rotate(18.000000) translate(-138.152902, -27.574468) "></path>
                            <rect id="Rectangle-Copy-5" opacity="0.339076451" x="163.06167" y="99.0638298" width="2.05109019" height="16.3404255" rx="0.5"></rect>
                            <ellipse id="Oval-Copy-3" cx="1.0255451" cy="36.1926941" rx="1.0255451" ry="1.0212766"></ellipse>
                            <ellipse id="Oval-Copy-4" cx="180.495937" cy="94.9787234" rx="1.0255451" ry="1.0212766"></ellipse>
                            <ellipse id="Oval-Copy" cx="51.2772548" cy="109.276596" rx="3.07663529" ry="3.06382979"></ellipse>
                            <g id="corner-llines" opacity="0.34" transform="translate(6.153271, 4.085106)">
                                <path d="M20.4076273,1.42310397 L21.4583474,1.42399352 C21.7341584,1.42422702 21.9576895,1.64775733 21.9579239,1.92356842 L21.967491,13.1811007 C21.9677256,13.457243 21.7440583,13.6812907 21.4679161,13.6815254 C21.4676333,13.6815257 21.4673506,13.6815257 21.4670678,13.6815254 L20.4163478,13.6806359 C20.1405367,13.6804024 19.9170056,13.456872 19.9167713,13.181061 L19.9072042,1.92352871 C19.9069695,1.64738643 20.1306368,1.42333865 20.4067791,1.42310397 C20.4070618,1.42310373 20.4073445,1.42310373 20.4076273,1.42310397 Z" id="Rectangle-Copy" transform="translate(20.937348, 7.552315) rotate(-12.000000) translate(-20.937348, -7.552315) "></path>
                                <path d="M10.3390068,-2.06423745 L11.3859709,-2.06205557 C11.6612991,-2.06148178 11.884354,-1.83842702 11.8849278,-1.56309881 L11.9255025,17.9036219 C11.9260781,18.1797637 11.7026875,18.4040874 11.4265458,18.404663 C11.425851,18.4046644 11.4251563,18.4046644 11.4244616,18.404663 L10.3774975,18.4024811 C10.1021692,18.4019073 9.87911441,18.1788526 9.87854054,17.9035243 L9.83796586,-1.56319638 C9.8373903,-1.83933816 10.0607808,-2.06366188 10.3369226,-2.06423745 C10.3376173,-2.0642389 10.3383121,-2.0642389 10.3390068,-2.06423745 Z" id="Rectangle-Copy-2" transform="translate(10.881734, 8.170213) rotate(-44.000000) translate(-10.881734, -8.170213) "></path>
                                <path d="M7.67530477,9.60709831 L8.71842821,9.60818796 C8.99416331,9.60847599 9.21761864,9.83193216 9.21790564,10.1076673 L9.2339388,25.5118122 C9.23422622,25.7879544 9.01060172,26.0120449 8.73445949,26.0123324 C8.73411192,26.0123327 8.73376435,26.0123327 8.73341677,26.0123324 L7.69029334,26.0112427 C7.41455823,26.0109547 7.19110291,25.7874985 7.19081591,25.5117634 L7.17478274,10.1076185 C7.17449533,9.83147623 7.39811983,9.60738573 7.67426206,9.60709831 C7.67460963,9.60709795 7.6749572,9.60709795 7.67530477,9.60709831 Z" id="Rectangle-Copy-4" transform="translate(8.204361, 17.809715) rotate(-75.000000) translate(-8.204361, -17.809715) "></path>
                            </g>
                            <path d="M58.7564457,89.1501888 C59.1261383,88.782035 59.7078593,88.7537155 60.1101716,89.0652302 L60.2067855,89.1501888 L63.1069175,92.0374468 L66.0081446,89.1501888 C66.4086449,88.7513555 67.0579841,88.7513555 67.4584844,89.1501888 C67.8589847,89.5490221 67.8589847,90.1956587 67.4584844,90.594492 L64.5580638,93.4825532 L67.4584844,96.3717049 C67.828177,96.7398587 67.8566149,97.3191585 67.5437981,97.7197963 L67.4584844,97.8160081 C67.0887919,98.1841619 66.5070708,98.2124815 66.1047585,97.9009667 L66.0081446,97.8160081 L63.1069175,94.9276596 L60.2067855,97.8160081 C59.8062852,98.2148414 59.156946,98.2148414 58.7564457,97.8160081 C58.3559454,97.4171748 58.3559454,96.7705382 58.7564457,96.3717049 L61.6557712,93.4825532 L58.7564457,90.594492 C58.3867532,90.2263382 58.3583153,89.6470384 58.671132,89.2464006 L58.7564457,89.1501888 Z" id="Path"></path>
                            <path d="M217.006649,65.493605 C217.183254,65.6694755 217.183254,65.9546179 217.006649,66.1304884 L215.726927,67.4042553 L217.006649,68.6780222 C217.161179,68.8319089 217.180495,69.0694569 217.064598,69.2442589 L217.006649,69.3149056 C216.852119,69.4687923 216.613578,69.4880282 216.438046,69.3726131 L216.367104,69.3149056 L215.088013,68.0405106 L213.808922,69.3149056 C213.632317,69.4907761 213.345982,69.4907761 213.169377,69.3149056 C212.992771,69.1390351 212.992771,68.8538927 213.169377,68.6780222 L214.449098,67.4042553 L213.169377,66.1304884 C213.014847,65.9766018 212.995531,65.7390537 213.111428,65.5642517 L213.169377,65.493605 C213.323907,65.3397183 213.562448,65.3204825 213.73798,65.4358975 L213.808922,65.493605 L215.088013,66.768 L216.367104,65.493605 C216.543709,65.3177345 216.830043,65.3177345 217.006649,65.493605 Z" id="Path"></path>
                            <path d="M103.216781,9.63950256 C103.37214,9.63950256 103.498083,9.76492185 103.498083,9.91963439 L103.498011,10.6423962 L104.012425,10.1317948 C104.12228,10.0223966 104.300391,10.0223966 104.410247,10.1317948 C104.520102,10.2411931 104.520102,10.4185628 104.410247,10.5279611 L103.894897,11.0396728 L104.623294,11.0401617 C104.75276,11.0401617 104.861798,11.1272585 104.894548,11.2458234 L104.904597,11.3202935 C104.904597,11.4529043 104.812067,11.5639935 104.687794,11.5930269 L104.623294,11.6004254 L103.895923,11.6003536 L104.410247,12.112626 C104.501793,12.2037913 104.517051,12.3421588 104.45602,12.4490582 L104.410247,12.5087922 C104.3187,12.5999575 104.179754,12.6151517 104.072408,12.5543749 L104.012425,12.5087922 L103.498011,11.996609 L103.498083,12.7209527 C103.498083,12.8756652 103.37214,13.0010845 103.216781,13.0010845 C103.061421,13.0010845 102.935478,12.8756652 102.935478,12.7209527 L102.934987,11.9955877 L102.421136,12.5087922 C102.311281,12.6181905 102.13317,12.6181905 102.023314,12.5087922 C101.913459,12.399394 101.913459,12.2220243 102.023314,12.112626 L102.53605,11.6003536 L101.810267,11.6004254 C101.680801,11.6004254 101.571763,11.5133286 101.539013,11.3947637 L101.528965,11.3202935 C101.528965,11.1876828 101.621494,11.0765936 101.745767,11.0475602 L101.810267,11.0401617 L102.537075,11.0396728 L102.023314,10.5279611 C101.931768,10.4367958 101.91651,10.2984283 101.977541,10.1915289 L102.023314,10.1317949 C102.114861,10.0406296 102.253807,10.0254354 102.361153,10.0862122 L102.421136,10.1317949 L102.934987,10.6434175 L102.935478,9.91963439 C102.935478,9.76492185 103.061421,9.63950256 103.216781,9.63950256 Z" id="Path"></path>
                            <path d="M7.69158823,48.4480132 C7.83318645,48.4480132 7.9479745,48.5623235 7.9479745,48.7033324 L7.94810269,49.2541834 L8.41107673,48.7935302 C8.51041736,48.6946031 8.67148035,48.6946031 8.77082098,48.7935302 C8.87016162,48.8924574 8.87016162,49.05285 8.77082098,49.1517772 L8.19538725,49.7244813 L8.9735196,49.724609 C9.100958,49.724609 9.20668016,49.8172003 9.22655021,49.938514 L9.22990587,49.9799281 C9.22990587,50.108118 9.13503972,50.2142429 9.01140648,50.2324789 L8.9735196,50.2352473 L8.41959705,50.2349919 L8.77082098,50.5847649 C8.86022755,50.6737993 8.86916821,50.8126208 8.79764296,50.9116127 L8.77082098,50.9430118 C8.68141442,51.0320463 8.54201274,51.0409497 8.44260715,50.9697222 L8.41107673,50.9430118 L7.94810269,50.4820132 L7.9479745,51.2565238 C7.9479745,51.3975327 7.83318645,51.511843 7.69158823,51.511843 C7.54999,51.511843 7.43520195,51.3975327 7.43520195,51.2565238 L7.43507376,50.4816302 L6.97209972,50.9430118 C6.87275909,51.041939 6.7116961,51.041939 6.61235547,50.9430118 C6.51301483,50.8440847 6.51301483,50.6836921 6.61235547,50.5847649 L6.96319482,50.2349919 L6.40965685,50.2352473 C6.28221845,50.2352473 6.17649629,50.1426559 6.15662624,50.0213422 L6.15327058,49.9799281 C6.15327058,49.8517382 6.24813673,49.7456133 6.37176997,49.7273773 L6.40965685,49.724609 L7.18702004,49.7244813 L6.61235547,49.1517772 C6.5229489,49.0627427 6.51400824,48.9239213 6.58553349,48.8249294 L6.61235547,48.7935302 C6.70176203,48.7044958 6.84116371,48.6955923 6.9405693,48.7668199 L6.97209972,48.7935302 L7.43507376,49.2545664 L7.43520195,48.7033324 C7.43520195,48.5623235 7.54999,48.4480132 7.69158823,48.4480132 Z" id="Path"></path>
                            <path d="M126.371953,31.5969494 C126.623683,31.5969494 126.833047,31.7775878 126.876464,32.0157998 L126.884726,32.1075877 L126.884726,33.6395026 C126.884726,33.9215203 126.65515,34.1501409 126.371953,34.1501409 C126.120223,34.1501409 125.910859,33.9695024 125.867442,33.7312905 L125.85918,33.6395026 L125.85918,32.1075877 C125.85918,31.8255699 126.088757,31.5969494 126.371953,31.5969494 Z M128.113861,31.0891755 L128.184878,31.1482619 L129.272633,32.2314893 C129.472883,32.430906 129.472883,32.7542243 129.272633,32.9536409 C129.094632,33.1309002 128.818326,33.1505956 128.61848,33.0127273 L128.547463,32.9536409 L127.459708,31.8704135 C127.259458,31.6709968 127.259458,31.3476786 127.459708,31.1482619 C127.615458,30.99316 127.846474,30.958693 128.035676,31.0448607 L128.113861,31.0891755 Z M125.284198,31.1482619 C125.462198,31.3255211 125.481976,31.600678 125.343532,31.7996923 L125.284198,31.8704135 L124.196443,32.9536409 C123.996193,33.1530576 123.671524,33.1530576 123.471273,32.9536409 C123.293273,32.7763817 123.273496,32.5012248 123.41194,32.3022106 L123.471273,32.2314893 L124.559028,31.1482619 C124.759278,30.9488452 125.083948,30.9488452 125.284198,31.1482619 Z M129.961361,29.5543962 C130.244557,29.5543962 130.474133,29.7830167 130.474133,30.0650345 C130.474133,30.3157169 130.29274,30.524209 130.053532,30.5674457 L129.961361,30.5756728 L128.423043,30.5756728 C128.139847,30.5756728 127.910271,30.3470522 127.910271,30.0650345 C127.910271,29.814352 128.091664,29.60586 128.330872,29.5626233 L128.423043,29.5543962 L129.961361,29.5543962 Z M124.320863,29.5543962 C124.604059,29.5543962 124.833635,29.7830167 124.833635,30.0650345 C124.833635,30.3157169 124.652242,30.524209 124.413034,30.5674457 L124.320863,30.5756728 L122.782545,30.5756728 C122.499349,30.5756728 122.269773,30.3470522 122.269773,30.0650345 C122.269773,29.814352 122.451166,29.60586 122.690374,29.5626233 L122.782545,29.5543962 L124.320863,29.5543962 Z M124.125427,27.1173416 L124.196443,27.1764281 L125.284198,28.2596555 C125.484448,28.4590721 125.484448,28.7823904 125.284198,28.9818071 C125.106198,29.1590663 124.829891,29.1787618 124.630045,29.0408935 L124.559028,28.9818071 L123.471273,27.8985797 C123.271023,27.699163 123.271023,27.3758447 123.471273,27.1764281 C123.627024,27.0213262 123.85804,26.9868591 124.047242,27.0730268 L124.125427,27.1173416 Z M129.272633,27.1764281 C129.450633,27.3536873 129.470411,27.6288441 129.331966,27.8278584 L129.272633,27.8985797 L128.184878,28.9818071 C127.984628,29.1812237 127.659958,29.1812237 127.459708,28.9818071 C127.281708,28.8045478 127.26193,28.529391 127.400375,28.3303767 L127.459708,28.2596555 L128.547463,27.1764281 C128.747713,26.9770114 129.072382,26.9770114 129.272633,27.1764281 Z M126.371953,25.9799281 C126.623683,25.9799281 126.833047,26.1605666 126.876464,26.3987785 L126.884726,26.4905664 L126.884726,28.0224813 C126.884726,28.304499 126.65515,28.5331196 126.371953,28.5331196 C126.120223,28.5331196 125.910859,28.3524811 125.867442,28.1142692 L125.85918,28.0224813 L125.85918,26.4905664 C125.85918,26.2085487 126.088757,25.9799281 126.371953,25.9799281 Z" id="Combined-Shape" fill-rule="nonzero"></path>
                            <path d="M194.589931,5.61702128 C194.841661,5.61702128 195.051025,5.79765974 195.094442,6.03587169 L195.102704,6.12765957 L195.102704,7.65957447 C195.102704,7.94159221 194.873128,8.17021277 194.589931,8.17021277 C194.338201,8.17021277 194.128837,7.9895743 194.08542,7.75136235 L194.077158,7.65957447 L194.077158,6.12765957 C194.077158,5.84564183 194.306735,5.61702128 194.589931,5.61702128 Z M196.331839,5.10924737 L196.402856,5.16833379 L197.490611,6.2515612 C197.690861,6.45097786 197.690861,6.77429615 197.490611,6.97371281 C197.31261,7.15097206 197.036304,7.17066753 196.836458,7.03279923 L196.765441,6.97371281 L195.677686,5.8904854 C195.477436,5.69106874 195.477436,5.36775045 195.677686,5.16833379 C195.833436,5.01323195 196.064452,4.97876487 196.253654,5.06493256 L196.331839,5.10924737 Z M193.502176,5.16833379 C193.680176,5.34559305 193.699954,5.62074988 193.56151,5.81976415 L193.502176,5.8904854 L192.414421,6.97371281 C192.214171,7.17312947 191.889502,7.17312947 191.689251,6.97371281 C191.511251,6.79645356 191.491474,6.52129672 191.629918,6.32228245 L191.689251,6.2515612 L192.777006,5.16833379 C192.977256,4.96891713 193.301926,4.96891713 193.502176,5.16833379 Z M198.179339,3.57446809 C198.462535,3.57446809 198.692111,3.80308864 198.692111,4.08510638 C198.692111,4.33578882 198.510718,4.54428089 198.27151,4.58751761 L198.179339,4.59574468 L196.641021,4.59574468 C196.357825,4.59574468 196.128249,4.36712413 196.128249,4.08510638 C196.128249,3.83442394 196.309642,3.62593188 196.54885,3.58269515 L196.641021,3.57446809 L198.179339,3.57446809 Z M192.538841,3.57446809 C192.822037,3.57446809 193.051613,3.80308864 193.051613,4.08510638 C193.051613,4.33578882 192.87022,4.54428089 192.631012,4.58751761 L192.538841,4.59574468 L191.000523,4.59574468 C190.717327,4.59574468 190.487751,4.36712413 190.487751,4.08510638 C190.487751,3.83442394 190.669144,3.62593188 190.908352,3.58269515 L191.000523,3.57446809 L192.538841,3.57446809 Z M192.343405,1.13741354 L192.414421,1.19649996 L193.502176,2.27972737 C193.702426,2.47914403 193.702426,2.80246231 193.502176,3.00187897 C193.324176,3.17913823 193.047869,3.1988337 192.848023,3.06096539 L192.777006,3.00187897 L191.689251,1.91865156 C191.489001,1.7192349 191.489001,1.39591662 191.689251,1.19649996 C191.845002,1.04139811 192.076018,1.00693103 192.26522,1.09309873 L192.343405,1.13741354 Z M197.490611,1.19649996 C197.668611,1.37375921 197.688389,1.64891605 197.549944,1.84793032 L197.490611,1.91865156 L196.402856,3.00187897 C196.202606,3.20129563 195.877936,3.20129563 195.677686,3.00187897 C195.499686,2.82461972 195.479908,2.54946289 195.618353,2.35044861 L195.677686,2.27972737 L196.765441,1.19649996 C196.965691,0.997083298 197.29036,0.997083298 197.490611,1.19649996 Z M194.589931,8.84398937e-15 C194.841661,8.84398937e-15 195.051025,0.180638462 195.094442,0.418850418 L195.102704,0.510638298 L195.102704,2.04255319 C195.102704,2.32457094 194.873128,2.55319149 194.589931,2.55319149 C194.338201,2.55319149 194.128837,2.37255303 194.08542,2.13434107 L194.077158,2.04255319 L194.077158,0.510638298 C194.077158,0.228620553 194.306735,8.84398937e-15 194.589931,8.84398937e-15 Z" id="Combined-Shape-Copy-5" fill-rule="nonzero"></path>
                        </g>
                        <g id="DOC-Copy-2" transform="translate(197.635222, 46.913280) rotate(30.000000) translate(-197.635222, -46.913280) translate(179.135222, 21.913280)">
                            <g id="Rectangle">
                                <use fill="black" fill-opacity="1" filter="url(#filter-6)" xlink:href="#path-5"></use>
                                <use fill="#D5D6DA" fill-rule="evenodd" xlink:href="#path-5"></use>
                            </g>
                            <g id="Rectangle">
                                <use fill="black" fill-opacity="1" filter="url(#filter-8)" xlink:href="#path-7"></use>
                                <use fill="#D5D6DA" fill-rule="evenodd" xlink:href="#path-7"></use>
                            </g>
                            <g id="Triangle" transform="translate(5.299359, 5.390157) rotate(139.000000) translate(-5.299359, -5.390157) ">
                                <use fill="black" fill-opacity="1" filter="url(#filter-10)" xlink:href="#path-9"></use>
                                <use fill="#9EA0A5" fill-rule="evenodd" xlink:href="#path-9"></use>
                            </g>
                        </g>
                        <g id="Excel" transform="translate(168.607000, 38.748811) rotate(-17.000000) translate(-168.607000, -38.748811) translate(146.607000, 8.248811)">
                            <g id="Rectangle">
                                <use fill="black" fill-opacity="1" filter="url(#filter-12)" xlink:href="#path-11"></use>
                                <use fill="#D5D6DA" fill-rule="evenodd" xlink:href="#path-11"></use>
                            </g>
                            <mask id="mask-14" fill="white">
                                <use xlink:href="#path-13"></use>
                            </mask>
                            <g id="Rectangle">
                                <use fill="black" fill-opacity="1" filter="url(#filter-15)" xlink:href="#path-13"></use>
                                <use fill="#D5D6DA" fill-rule="evenodd" xlink:href="#path-13"></use>
                            </g>
                            <g id="Table" mask="url(#mask-14)">
                                <g transform="translate(-0.391835, 2.165692)">
                                    <path d="M24.9295649,3.58533273 L30.936329,3.58533273 C31.2680734,3.58533273 31.5370054,3.85286742 31.5370054,4.18288818 L31.5370054,6.57311 C31.5370054,6.90313077 31.2680734,7.17066546 30.936329,7.17066546 L24.9295649,7.17066546 C24.5978204,7.17066546 24.3288884,6.90313077 24.3288884,6.57311 L24.3288884,4.18288818 C24.3288884,3.85286742 24.5978204,3.58533273 24.9295649,3.58533273 Z" id="Rectangle" fill-opacity="0.786276224" fill="#9EA0A5" opacity="0.176688058"></path>
                                    <path d="M5.70791961,3.58533273 L11.7146837,3.58533273 C12.0464282,3.58533273 12.3153602,3.85286742 12.3153602,4.18288818 L12.3153602,6.57311 C12.3153602,6.90313077 12.0464282,7.17066546 11.7146837,7.17066546 L5.70791961,7.17066546 C5.37617519,7.17066546 5.1072432,6.90313077 5.1072432,6.57311 L5.1072432,4.18288818 C5.1072432,3.85286742 5.37617519,3.58533273 5.70791961,3.58533273 Z" id="Rectangle-Copy-8" fill-opacity="0.786276224" fill="#9EA0A5" opacity="0.176688058"></path>
                                    <path d="M34.5403875,3.58533273 L40.5471516,3.58533273 C40.878896,3.58533273 41.147828,3.85286742 41.147828,4.18288818 L41.147828,6.57311 C41.147828,6.90313077 40.878896,7.17066546 40.5471516,7.17066546 L34.5403875,7.17066546 C34.208643,7.17066546 33.9397111,6.90313077 33.9397111,6.57311 L33.9397111,4.18288818 C33.9397111,3.85286742 34.208643,3.58533273 34.5403875,3.58533273 Z" id="Rectangle-Copy-7" fill-opacity="0.786276224" fill="#9EA0A5" opacity="0.176688058"></path>
                                    <path d="M15.3187422,3.58533273 L21.3255064,3.58533273 C21.6572508,3.58533273 21.9261828,3.85286742 21.9261828,4.18288818 L21.9261828,6.57311 C21.9261828,6.90313077 21.6572508,7.17066546 21.3255064,7.17066546 L15.3187422,7.17066546 C14.9869978,7.17066546 14.7180658,6.90313077 14.7180658,6.57311 L14.7180658,4.18288818 C14.7180658,3.85286742 14.9869978,3.58533273 15.3187422,3.58533273 Z" id="Rectangle-Copy-9" fill-opacity="0.786276224" fill="#9EA0A5" opacity="0.176688058"></path>
                                    <path d="M24.9295649,9.56088728 L30.936329,9.56088728 C31.2680734,9.56088728 31.5370054,9.82842197 31.5370054,10.1584427 L31.5370054,12.5486646 C31.5370054,12.8786853 31.2680734,13.14622 30.936329,13.14622 L24.9295649,13.14622 C24.5978204,13.14622 24.3288884,12.8786853 24.3288884,12.5486646 L24.3288884,10.1584427 C24.3288884,9.82842197 24.5978204,9.56088728 24.9295649,9.56088728 Z" id="Rectangle" fill-opacity="0.786276224" fill="#9EA0A5" opacity="0.176688058"></path>
                                    <path d="M5.70791961,9.56088728 L11.7146837,9.56088728 C12.0464282,9.56088728 12.3153602,9.82842197 12.3153602,10.1584427 L12.3153602,12.5486646 C12.3153602,12.8786853 12.0464282,13.14622 11.7146837,13.14622 L5.70791961,13.14622 C5.37617519,13.14622 5.1072432,12.8786853 5.1072432,12.5486646 L5.1072432,10.1584427 C5.1072432,9.82842197 5.37617519,9.56088728 5.70791961,9.56088728 Z" id="Rectangle-Copy-8" fill-opacity="0.786276224" fill="#9EA0A5" opacity="0.176688058"></path>
                                    <path d="M34.5403875,9.56088728 L40.5471516,9.56088728 C40.878896,9.56088728 41.147828,9.82842197 41.147828,10.1584427 L41.147828,12.5486646 C41.147828,12.8786853 40.878896,13.14622 40.5471516,13.14622 L34.5403875,13.14622 C34.208643,13.14622 33.9397111,12.8786853 33.9397111,12.5486646 L33.9397111,10.1584427 C33.9397111,9.82842197 34.208643,9.56088728 34.5403875,9.56088728 Z" id="Rectangle-Copy-7" fill-opacity="0.786276224" fill="#9EA0A5" opacity="0.176688058"></path>
                                    <path d="M15.3187422,9.56088728 L21.3255064,9.56088728 C21.6572508,9.56088728 21.9261828,9.82842197 21.9261828,10.1584427 L21.9261828,12.5486646 C21.9261828,12.8786853 21.6572508,13.14622 21.3255064,13.14622 L15.3187422,13.14622 C14.9869978,13.14622 14.7180658,12.8786853 14.7180658,12.5486646 L14.7180658,10.1584427 C14.7180658,9.82842197 14.9869978,9.56088728 15.3187422,9.56088728 Z" id="Rectangle-Copy-9" fill-opacity="0.786276224" fill="#9EA0A5" opacity="0.176688058"></path>
                                    <path d="M24.9295649,15.5364418 L30.936329,15.5364418 C31.2680734,15.5364418 31.5370054,15.8039765 31.5370054,16.1339973 L31.5370054,18.5242191 C31.5370054,18.8542399 31.2680734,19.1217746 30.936329,19.1217746 L24.9295649,19.1217746 C24.5978204,19.1217746 24.3288884,18.8542399 24.3288884,18.5242191 L24.3288884,16.1339973 C24.3288884,15.8039765 24.5978204,15.5364418 24.9295649,15.5364418 Z" id="Rectangle" fill-opacity="0.786276224" fill="#9EA0A5" opacity="0.176688058"></path>
                                    <path d="M5.70791961,15.5364418 L11.7146837,15.5364418 C12.0464282,15.5364418 12.3153602,15.8039765 12.3153602,16.1339973 L12.3153602,18.5242191 C12.3153602,18.8542399 12.0464282,19.1217746 11.7146837,19.1217746 L5.70791961,19.1217746 C5.37617519,19.1217746 5.1072432,18.8542399 5.1072432,18.5242191 L5.1072432,16.1339973 C5.1072432,15.8039765 5.37617519,15.5364418 5.70791961,15.5364418 Z" id="Rectangle-Copy-8" fill-opacity="0.786276224" fill="#9EA0A5" opacity="0.176688058"></path>
                                    <path d="M34.5403875,15.5364418 L40.5471516,15.5364418 C40.878896,15.5364418 41.147828,15.8039765 41.147828,16.1339973 L41.147828,18.5242191 C41.147828,18.8542399 40.878896,19.1217746 40.5471516,19.1217746 L34.5403875,19.1217746 C34.208643,19.1217746 33.9397111,18.8542399 33.9397111,18.5242191 L33.9397111,16.1339973 C33.9397111,15.8039765 34.208643,15.5364418 34.5403875,15.5364418 Z" id="Rectangle-Copy-7" fill-opacity="0.786276224" fill="#9EA0A5" opacity="0.176688058"></path>
                                    <path d="M15.3187422,15.5364418 L21.3255064,15.5364418 C21.6572508,15.5364418 21.9261828,15.8039765 21.9261828,16.1339973 L21.9261828,18.5242191 C21.9261828,18.8542399 21.6572508,19.1217746 21.3255064,19.1217746 L15.3187422,19.1217746 C14.9869978,19.1217746 14.7180658,18.8542399 14.7180658,18.5242191 L14.7180658,16.1339973 C14.7180658,15.8039765 14.9869978,15.5364418 15.3187422,15.5364418 Z" id="Rectangle-Copy-9" fill-opacity="0.786276224" fill="#9EA0A5" opacity="0.176688058"></path>
                                    <path d="M24.9295649,21.5119964 L30.936329,21.5119964 C31.2680734,21.5119964 31.5370054,21.7795311 31.5370054,22.1095518 L31.5370054,24.4997737 C31.5370054,24.8297944 31.2680734,25.0973291 30.936329,25.0973291 L24.9295649,25.0973291 C24.5978204,25.0973291 24.3288884,24.8297944 24.3288884,24.4997737 L24.3288884,22.1095518 C24.3288884,21.7795311 24.5978204,21.5119964 24.9295649,21.5119964 Z" id="Rectangle" fill-opacity="0.786276224" fill="#9EA0A5" opacity="0.176688058"></path>
                                    <path d="M5.70791961,21.5119964 L11.7146837,21.5119964 C12.0464282,21.5119964 12.3153602,21.7795311 12.3153602,22.1095518 L12.3153602,24.4997737 C12.3153602,24.8297944 12.0464282,25.0973291 11.7146837,25.0973291 L5.70791961,25.0973291 C5.37617519,25.0973291 5.1072432,24.8297944 5.1072432,24.4997737 L5.1072432,22.1095518 C5.1072432,21.7795311 5.37617519,21.5119964 5.70791961,21.5119964 Z" id="Rectangle-Copy-8" fill-opacity="0.786276224" fill="#9EA0A5" opacity="0.176688058"></path>
                                    <path d="M34.5403875,21.5119964 L40.5471516,21.5119964 C40.878896,21.5119964 41.147828,21.7795311 41.147828,22.1095518 L41.147828,24.4997737 C41.147828,24.8297944 40.878896,25.0973291 40.5471516,25.0973291 L34.5403875,25.0973291 C34.208643,25.0973291 33.9397111,24.8297944 33.9397111,24.4997737 L33.9397111,22.1095518 C33.9397111,21.7795311 34.208643,21.5119964 34.5403875,21.5119964 Z" id="Rectangle-Copy-7" fill-opacity="0.786276224" fill="#9EA0A5" opacity="0.176688058"></path>
                                    <path d="M15.3187422,21.5119964 L21.3255064,21.5119964 C21.6572508,21.5119964 21.9261828,21.7795311 21.9261828,22.1095518 L21.9261828,24.4997737 C21.9261828,24.8297944 21.6572508,25.0973291 21.3255064,25.0973291 L15.3187422,25.0973291 C14.9869978,25.0973291 14.7180658,24.8297944 14.7180658,24.4997737 L14.7180658,22.1095518 C14.7180658,21.7795311 14.9869978,21.5119964 15.3187422,21.5119964 Z" id="Rectangle-Copy-9" fill-opacity="0.786276224" fill="#9EA0A5" opacity="0.176688058"></path>
                                    <path d="M24.9295649,27.4875509 L30.936329,27.4875509 C31.2680734,27.4875509 31.5370054,27.7550856 31.5370054,28.0851064 L31.5370054,30.4753282 C31.5370054,30.805349 31.2680734,31.0728837 30.936329,31.0728837 L24.9295649,31.0728837 C24.5978204,31.0728837 24.3288884,30.805349 24.3288884,30.4753282 L24.3288884,28.0851064 C24.3288884,27.7550856 24.5978204,27.4875509 24.9295649,27.4875509 Z" id="Rectangle" fill-opacity="0.786276224" fill="#9EA0A5" opacity="0.176688058"></path>
                                    <path d="M5.70791961,27.4875509 L11.7146837,27.4875509 C12.0464282,27.4875509 12.3153602,27.7550856 12.3153602,28.0851064 L12.3153602,30.4753282 C12.3153602,30.805349 12.0464282,31.0728837 11.7146837,31.0728837 L5.70791961,31.0728837 C5.37617519,31.0728837 5.1072432,30.805349 5.1072432,30.4753282 L5.1072432,28.0851064 C5.1072432,27.7550856 5.37617519,27.4875509 5.70791961,27.4875509 Z" id="Rectangle-Copy-8" fill-opacity="0.786276224" fill="#9EA0A5" opacity="0.176688058"></path>
                                    <path d="M34.5403875,27.4875509 L40.5471516,27.4875509 C40.878896,27.4875509 41.147828,27.7550856 41.147828,28.0851064 L41.147828,30.4753282 C41.147828,30.805349 40.878896,31.0728837 40.5471516,31.0728837 L34.5403875,31.0728837 C34.208643,31.0728837 33.9397111,30.805349 33.9397111,30.4753282 L33.9397111,28.0851064 C33.9397111,27.7550856 34.208643,27.4875509 34.5403875,27.4875509 Z" id="Rectangle-Copy-7" fill-opacity="0.786276224" fill="#9EA0A5" opacity="0.176688058"></path>
                                    <path d="M15.3187422,27.4875509 L21.3255064,27.4875509 C21.6572508,27.4875509 21.9261828,27.7550856 21.9261828,28.0851064 L21.9261828,30.4753282 C21.9261828,30.805349 21.6572508,31.0728837 21.3255064,31.0728837 L15.3187422,31.0728837 C14.9869978,31.0728837 14.7180658,30.805349 14.7180658,30.4753282 L14.7180658,28.0851064 C14.7180658,27.7550856 14.9869978,27.4875509 15.3187422,27.4875509 Z" id="Rectangle-Copy-9" fill-opacity="0.786276224" fill="#9EA0A5" opacity="0.176688058"></path>
                                    <path d="M24.9295649,33.4631055 L30.936329,33.4631055 C31.2680734,33.4631055 31.5370054,33.7306402 31.5370054,34.0606609 L31.5370054,36.4508828 C31.5370054,36.7809035 31.2680734,37.0484382 30.936329,37.0484382 L24.9295649,37.0484382 C24.5978204,37.0484382 24.3288884,36.7809035 24.3288884,36.4508828 L24.3288884,34.0606609 C24.3288884,33.7306402 24.5978204,33.4631055 24.9295649,33.4631055 Z" id="Rectangle" fill-opacity="0.786276224" fill="#9EA0A5" opacity="0.176688058"></path>
                                    <path d="M5.70791961,33.4631055 L11.7146837,33.4631055 C12.0464282,33.4631055 12.3153602,33.7306402 12.3153602,34.0606609 L12.3153602,36.4508828 C12.3153602,36.7809035 12.0464282,37.0484382 11.7146837,37.0484382 L5.70791961,37.0484382 C5.37617519,37.0484382 5.1072432,36.7809035 5.1072432,36.4508828 L5.1072432,34.0606609 C5.1072432,33.7306402 5.37617519,33.4631055 5.70791961,33.4631055 Z" id="Rectangle-Copy-8" fill-opacity="0.786276224" fill="#9EA0A5" opacity="0.176688058"></path>
                                    <path d="M34.5403875,33.4631055 L40.5471516,33.4631055 C40.878896,33.4631055 41.147828,33.7306402 41.147828,34.0606609 L41.147828,36.4508828 C41.147828,36.7809035 40.878896,37.0484382 40.5471516,37.0484382 L34.5403875,37.0484382 C34.208643,37.0484382 33.9397111,36.7809035 33.9397111,36.4508828 L33.9397111,34.0606609 C33.9397111,33.7306402 34.208643,33.4631055 34.5403875,33.4631055 Z" id="Rectangle-Copy-7" fill-opacity="0.786276224" fill="#9EA0A5" opacity="0.176688058"></path>
                                    <path d="M15.3187422,33.4631055 L21.3255064,33.4631055 C21.6572508,33.4631055 21.9261828,33.7306402 21.9261828,34.0606609 L21.9261828,36.4508828 C21.9261828,36.7809035 21.6572508,37.0484382 21.3255064,37.0484382 L15.3187422,37.0484382 C14.9869978,37.0484382 14.7180658,36.7809035 14.7180658,36.4508828 L14.7180658,34.0606609 C14.7180658,33.7306402 14.9869978,33.4631055 15.3187422,33.4631055 Z" id="Rectangle-Copy-9" fill-opacity="0.786276224" fill="#9EA0A5" opacity="0.176688058"></path>
                                    <path d="M24.9295649,39.43866 L30.936329,39.43866 C31.2680734,39.43866 31.5370054,39.7061947 31.5370054,40.0362155 L31.5370054,42.4264373 C31.5370054,42.7564581 31.2680734,43.0239928 30.936329,43.0239928 L24.9295649,43.0239928 C24.5978204,43.0239928 24.3288884,42.7564581 24.3288884,42.4264373 L24.3288884,40.0362155 C24.3288884,39.7061947 24.5978204,39.43866 24.9295649,39.43866 Z" id="Rectangle" fill-opacity="0.786276224" fill="#9EA0A5" opacity="0.176688058"></path>
                                    <path d="M5.70791961,39.43866 L11.7146837,39.43866 C12.0464282,39.43866 12.3153602,39.7061947 12.3153602,40.0362155 L12.3153602,42.4264373 C12.3153602,42.7564581 12.0464282,43.0239928 11.7146837,43.0239928 L5.70791961,43.0239928 C5.37617519,43.0239928 5.1072432,42.7564581 5.1072432,42.4264373 L5.1072432,40.0362155 C5.1072432,39.7061947 5.37617519,39.43866 5.70791961,39.43866 Z" id="Rectangle-Copy-8" fill-opacity="0.786276224" fill="#9EA0A5" opacity="0.176688058"></path>
                                    <path d="M34.5403875,39.43866 L40.5471516,39.43866 C40.878896,39.43866 41.147828,39.7061947 41.147828,40.0362155 L41.147828,42.4264373 C41.147828,42.7564581 40.878896,43.0239928 40.5471516,43.0239928 L34.5403875,43.0239928 C34.208643,43.0239928 33.9397111,42.7564581 33.9397111,42.4264373 L33.9397111,40.0362155 C33.9397111,39.7061947 34.208643,39.43866 34.5403875,39.43866 Z" id="Rectangle-Copy-7" fill-opacity="0.786276224" fill="#9EA0A5" opacity="0.176688058"></path>
                                    <path d="M15.3187422,39.43866 L21.3255064,39.43866 C21.6572508,39.43866 21.9261828,39.7061947 21.9261828,40.0362155 L21.9261828,42.4264373 C21.9261828,42.7564581 21.6572508,43.0239928 21.3255064,43.0239928 L15.3187422,43.0239928 C14.9869978,43.0239928 14.7180658,42.7564581 14.7180658,42.4264373 L14.7180658,40.0362155 C14.7180658,39.7061947 14.9869978,39.43866 15.3187422,39.43866 Z" id="Rectangle-Copy-9" fill-opacity="0.786276224" fill="#9EA0A5" opacity="0.176688058"></path>
                                    <path d="M24.9295649,45.4142146 L30.936329,45.4142146 C31.2680734,45.4142146 31.5370054,45.6817493 31.5370054,46.01177 L31.5370054,48.4019919 C31.5370054,48.7320126 31.2680734,48.9995473 30.936329,48.9995473 L24.9295649,48.9995473 C24.5978204,48.9995473 24.3288884,48.7320126 24.3288884,48.4019919 L24.3288884,46.01177 C24.3288884,45.6817493 24.5978204,45.4142146 24.9295649,45.4142146 Z" id="Rectangle" fill-opacity="0.786276224" fill="#9EA0A5" opacity="0.176688058"></path>
                                    <path d="M5.70791961,45.4142146 L11.7146837,45.4142146 C12.0464282,45.4142146 12.3153602,45.6817493 12.3153602,46.01177 L12.3153602,48.4019919 C12.3153602,48.7320126 12.0464282,48.9995473 11.7146837,48.9995473 L5.70791961,48.9995473 C5.37617519,48.9995473 5.1072432,48.7320126 5.1072432,48.4019919 L5.1072432,46.01177 C5.1072432,45.6817493 5.37617519,45.4142146 5.70791961,45.4142146 Z" id="Rectangle-Copy-8" fill-opacity="0.786276224" fill="#9EA0A5" opacity="0.176688058"></path>
                                    <path d="M34.5403875,45.4142146 L40.5471516,45.4142146 C40.878896,45.4142146 41.147828,45.6817493 41.147828,46.01177 L41.147828,48.4019919 C41.147828,48.7320126 40.878896,48.9995473 40.5471516,48.9995473 L34.5403875,48.9995473 C34.208643,48.9995473 33.9397111,48.7320126 33.9397111,48.4019919 L33.9397111,46.01177 C33.9397111,45.6817493 34.208643,45.4142146 34.5403875,45.4142146 Z" id="Rectangle-Copy-7" fill-opacity="0.786276224" fill="#9EA0A5" opacity="0.176688058"></path>
                                    <path d="M15.3187422,45.4142146 L21.3255064,45.4142146 C21.6572508,45.4142146 21.9261828,45.6817493 21.9261828,46.01177 L21.9261828,48.4019919 C21.9261828,48.7320126 21.6572508,48.9995473 21.3255064,48.9995473 L15.3187422,48.9995473 C14.9869978,48.9995473 14.7180658,48.7320126 14.7180658,48.4019919 L14.7180658,46.01177 C14.7180658,45.6817493 14.9869978,45.4142146 15.3187422,45.4142146 Z" id="Rectangle-Copy-9" fill-opacity="0.786276224" fill="#9EA0A5" opacity="0.176688058"></path>
                                    <path d="M24.9295649,51.3897691 L30.936329,51.3897691 C31.2680734,51.3897691 31.5370054,51.6573038 31.5370054,51.9873246 L31.5370054,54.3775464 C31.5370054,54.7075672 31.2680734,54.9751019 30.936329,54.9751019 L24.9295649,54.9751019 C24.5978204,54.9751019 24.3288884,54.7075672 24.3288884,54.3775464 L24.3288884,51.9873246 C24.3288884,51.6573038 24.5978204,51.3897691 24.9295649,51.3897691 Z" id="Rectangle" fill-opacity="0.786276224" fill="#9EA0A5" opacity="0.176688058"></path>
                                    <path d="M5.70791961,51.3897691 L11.7146837,51.3897691 C12.0464282,51.3897691 12.3153602,51.6573038 12.3153602,51.9873246 L12.3153602,54.3775464 C12.3153602,54.7075672 12.0464282,54.9751019 11.7146837,54.9751019 L5.70791961,54.9751019 C5.37617519,54.9751019 5.1072432,54.7075672 5.1072432,54.3775464 L5.1072432,51.9873246 C5.1072432,51.6573038 5.37617519,51.3897691 5.70791961,51.3897691 Z" id="Rectangle-Copy-8" fill-opacity="0.786276224" fill="#9EA0A5" opacity="0.176688058"></path>
                                    <path d="M34.5403875,51.3897691 L40.5471516,51.3897691 C40.878896,51.3897691 41.147828,51.6573038 41.147828,51.9873246 L41.147828,54.3775464 C41.147828,54.7075672 40.878896,54.9751019 40.5471516,54.9751019 L34.5403875,54.9751019 C34.208643,54.9751019 33.9397111,54.7075672 33.9397111,54.3775464 L33.9397111,51.9873246 C33.9397111,51.6573038 34.208643,51.3897691 34.5403875,51.3897691 Z" id="Rectangle-Copy-7" fill-opacity="0.786276224" fill="#9EA0A5" opacity="0.176688058"></path>
                                    <path d="M15.3187422,51.3897691 L21.3255064,51.3897691 C21.6572508,51.3897691 21.9261828,51.6573038 21.9261828,51.9873246 L21.9261828,54.3775464 C21.9261828,54.7075672 21.6572508,54.9751019 21.3255064,54.9751019 L15.3187422,54.9751019 C14.9869978,54.9751019 14.7180658,54.7075672 14.7180658,54.3775464 L14.7180658,51.9873246 C14.7180658,51.6573038 14.9869978,51.3897691 15.3187422,51.3897691 Z" id="Rectangle-Copy-9" fill-opacity="0.786276224" fill="#9EA0A5" opacity="0.176688058"></path>
                                    <polygon id="Rectangle" fill="url(#linearGradient-16)" points="0.738687459 -1.4150383e-13 44.3150309 -1.4150383e-13 44.3150309 58.212766 0.738687459 58.212766"></polygon>
                                </g>
                            </g>
                            <polygon id="X" fill="#9EA0A5" fill-rule="nonzero" mask="url(#mask-14)" points="9.6200067 55.6979606 13.7041687 50.2898051 17.7883307 55.6979606 22.0406641 55.6979606 16.106617 48.4903464 21.6202357 41.4000883 17.6081471 41.4000883 13.8963646 46.5441928 10.1125086 41.4000883 6.00432208 41.4000883 11.4578796 48.3240921 5.6319426 55.6979606"></polygon>
                        </g>
                        <g id="Trend" transform="translate(84.712869, 64.340426)">
                            <g id="base">
                                <g id="Path">
                                    <use fill="black" fill-opacity="1" filter="url(#filter-18)" xlink:href="#path-17"></use>
                                    <use fill="#D5D6DA" fill-rule="evenodd" xlink:href="#path-17"></use>
                                </g>
                                <g id="Path">
                                    <use fill="black" fill-opacity="1" filter="url(#filter-20)" xlink:href="#path-19"></use>
                                    <use fill="#D5D6DA" fill-rule="evenodd" xlink:href="#path-19"></use>
                                </g>
                                <path d="M5.12772548,-7.25660666e-15 L68.7115215,-7.25660666e-15 C71.5434861,-7.25660666e-15 73.839247,2.28620553 73.839247,5.10638298 L73.839247,12.1276596 L0,12.1276596 L0,5.10638298 C0,2.28620553 2.2957609,-7.25660666e-15 5.12772548,-7.25660666e-15 Z" id="Path-Copy" fill="#9EA0A5"></path>
                            </g>
                            <g id="lines" transform="translate(8.204361, 21.446809)" fill="#9EA0A5" fill-opacity="0.387155813" fill-rule="nonzero">
                                <path d="M56.6613666,27.3191489 C56.8029648,27.3191489 56.9177529,27.4906144 56.9177529,27.7021277 C56.9177529,27.8834248 56.8334188,28.035299 56.7201536,28.0749916 L56.6613666,28.0851064 L0,28.0851064 C-0.141598229,28.0851064 -0.256386274,27.913641 -0.256386274,27.7021277 C-0.256386274,27.5208305 -0.1720522,27.3689564 -0.0587870203,27.3292637 L0,27.3191489 L56.6613666,27.3191489 Z" id="Line"></path>
                                <path d="M56.6613666,20.5531915 C56.8029648,20.5531915 56.9177529,20.7246569 56.9177529,20.9361702 C56.9177529,21.1174673 56.8334188,21.2693415 56.7201536,21.3090342 L56.6613666,21.3191489 L0,21.3191489 C-0.141598229,21.3191489 -0.256386274,21.1476835 -0.256386274,20.9361702 C-0.256386274,20.7548731 -0.1720522,20.6029989 -0.0587870203,20.5633062 L0,20.5531915 L56.6613666,20.5531915 Z" id="Line-Copy"></path>
                                <path d="M56.6613666,13.787234 C56.8029648,13.787234 56.9177529,13.9586995 56.9177529,14.1702128 C56.9177529,14.3515099 56.8334188,14.5033841 56.7201536,14.5430767 L56.6613666,14.5531915 L0,14.5531915 C-0.141598229,14.5531915 -0.256386274,14.3817261 -0.256386274,14.1702128 C-0.256386274,13.9889156 -0.1720522,13.8370415 -0.0587870203,13.7973488 L0,13.787234 L56.6613666,13.787234 Z" id="Line-Copy-2"></path>
                                <path d="M56.6613666,7.0212766 C56.8029648,7.0212766 56.9177529,7.19274201 56.9177529,7.40425532 C56.9177529,7.58555244 56.8334188,7.73742662 56.7201536,7.7771193 L56.6613666,7.78723404 L0,7.78723404 C-0.141598229,7.78723404 -0.256386274,7.61576863 -0.256386274,7.40425532 C-0.256386274,7.2229582 -0.1720522,7.07108402 -0.0587870203,7.03139134 L0,7.0212766 L56.6613666,7.0212766 Z" id="Line-Copy-3"></path>
                                <path d="M56.6613666,0.255319149 C56.8029648,0.255319149 56.9177529,0.426784564 56.9177529,0.638297872 C56.9177529,0.819594994 56.8334188,0.971469173 56.7201536,1.01116185 L56.6613666,1.0212766 L0,1.0212766 C-0.141598229,1.0212766 -0.256386274,0.849811181 -0.256386274,0.638297872 C-0.256386274,0.457000751 -0.1720522,0.305126571 -0.0587870203,0.26543389 L0,0.255319149 L56.6613666,0.255319149 Z" id="Line-Copy-4"></path>
                            </g>
                            <g id="Group" transform="translate(23.587537, 53.106383)">
                                <path d="M4.10218039,0 L10.255451,0 C10.8218439,0 11.2809961,0.457241107 11.2809961,1.0212766 C11.2809961,1.58531208 10.8218439,2.04255319 10.255451,2.04255319 L4.10218039,2.04255319 C3.53578747,2.04255319 3.07663529,1.58531208 3.07663529,1.0212766 C3.07663529,0.457241107 3.53578747,0 4.10218039,0 Z" id="Rectangle-Copy-2" fill-opacity="0.35" fill="#67696F"></path>
                                <path d="M19.4853568,0 L25.6386274,0 C26.2050203,0 26.6641725,0.457241107 26.6641725,1.0212766 C26.6641725,1.58531208 26.2050203,2.04255319 25.6386274,2.04255319 L19.4853568,2.04255319 C18.9189639,2.04255319 18.4598117,1.58531208 18.4598117,1.0212766 C18.4598117,0.457241107 18.9189639,0 19.4853568,0 Z" id="Rectangle-Copy-5" fill-opacity="0.35" fill="#67696F"></path>
                                <path d="M1.0255451,0 C1.59193801,0 2.05109019,0.457241107 2.05109019,1.0212766 C2.05109019,1.58531208 1.59193801,2.04255319 1.0255451,2.04255319 C0.45915218,2.04255319 0,1.58531208 0,1.0212766 C0,0.457241107 0.45915218,0 1.0255451,0 Z" id="Rectangle-Copy-4" fill="#DFE0E1" opacity="0.647623698"></path>
                                <path d="M16.4087215,0 C16.9751145,0 17.4342666,0.457241107 17.4342666,1.0212766 C17.4342666,1.58531208 16.9751145,2.04255319 16.4087215,2.04255319 C15.8423286,2.04255319 15.3831765,1.58531208 15.3831765,1.0212766 C15.3831765,0.457241107 15.8423286,0 16.4087215,0 Z" id="Rectangle-Copy-6" fill="#ACAEB2" opacity="0.647623698"></path>
                            </g>
                        </g>
                    </g>
                </g>
            </g>
        </g>
    </g>
</svg>
