<?xml version="1.0" encoding="UTF-8"?>
<svg width="110px" height="83px" viewBox="0 0 110 83" version="1.1" xmlns="http://www.w3.org/2000/svg" xmlns:xlink="http://www.w3.org/1999/xlink">
    <defs>
        <path d="M4.43461344,0 L46.7340031,0 C48.6179796,0 50.1452443,1.49238417 50.1452443,3.33333333 C50.1452443,5.42592593 50.1452443,6.9537037 50.1452443,7.91666667 C50.1452443,14.212963 50.1452443,23.5740741 50.1452443,36 C50.1452443,37.8409492 48.6179796,39.3333333 46.7340031,39.3333333 L4.43461344,39.3333333 C2.550637,39.3333333 1.02337233,37.8409492 1.02337233,36 C1.02337233,23.462963 1.02337233,14.1018519 1.02337233,7.91666667 C1.02337233,6.84259259 1.02337233,5.31481481 1.02337233,3.33333333 C1.02337233,1.49238417 2.550637,0 4.43461344,0 Z" id="path-1"></path>
        <filter x="-24.4%" y="-22.9%" width="148.9%" height="161.0%" filterUnits="objectBoundingBox" id="filter-2">
            <feOffset dx="0" dy="3" in="SourceAlpha" result="shadowOffsetOuter1"></feOffset>
            <feGaussianBlur stdDeviation="3.5" in="shadowOffsetOuter1" result="shadowBlurOuter1"></feGaussianBlur>
            <feColorMatrix values="0 0 0 0 0   0 0 0 0 0   0 0 0 0 0  0 0 0 0.25 0" type="matrix" in="shadowBlurOuter1"></feColorMatrix>
        </filter>
        <path d="M3.41124111,0 L45.7106308,0 C47.5946073,0 49.1218719,1.49238417 49.1218719,3.33333333 C49.1218719,5.42592593 49.1218719,6.9537037 49.1218719,7.91666667 C49.1218719,14.212963 49.1218719,23.5740741 49.1218719,36 C49.1218719,37.8409492 47.5946073,39.3333333 45.7106308,39.3333333 L3.41124111,39.3333333 C1.52726466,39.3333333 0,37.8409492 0,36 C0,23.462963 0,14.1018519 0,7.91666667 C0,6.84259259 0,5.31481481 0,3.33333333 C0,1.49238417 1.52726466,0 3.41124111,0 Z" id="path-3"></path>
        <filter x="-24.4%" y="-22.9%" width="148.9%" height="161.0%" filterUnits="objectBoundingBox" id="filter-4">
            <feOffset dx="0" dy="3" in="SourceAlpha" result="shadowOffsetOuter1"></feOffset>
            <feGaussianBlur stdDeviation="3.5" in="shadowOffsetOuter1" result="shadowBlurOuter1"></feGaussianBlur>
            <feColorMatrix values="0 0 0 0 0   0 0 0 0 0   0 0 0 0 0  0 0 0 0.25 0" type="matrix" in="shadowBlurOuter1"></feColorMatrix>
        </filter>
        <path d="M1.8969524,0.436183777 L28.2707194,0.436183777 C28.7121081,0.436183777 29.0699244,0.789482886 29.0699244,1.22529942 L29.0699244,38.3137348 C29.0699244,38.7495513 28.7121081,39.1028504 28.2707194,39.1028504 L1.8969524,39.1028504 C1.45556364,39.1028504 1.09774734,38.7495513 1.09774734,38.3137348 L1.09774734,1.22529942 C1.09774734,0.789482886 1.45556364,0.436183777 1.8969524,0.436183777 Z" id="path-5"></path>
        <filter x="-19.7%" y="-9.1%" width="139.3%" height="128.4%" filterUnits="objectBoundingBox" id="filter-6">
            <feOffset dx="0" dy="2" in="SourceAlpha" result="shadowOffsetOuter1"></feOffset>
            <feGaussianBlur stdDeviation="1.5" in="shadowOffsetOuter1" result="shadowBlurOuter1"></feGaussianBlur>
            <feColorMatrix values="0 0 0 0 0   0 0 0 0 0   0 0 0 0 0  0 0 0 0.25 0" type="matrix" in="shadowBlurOuter1"></feColorMatrix>
        </filter>
        <path d="M1.10405469,1.38526133 L27.4778216,1.38526133 C27.9192104,1.38526133 28.2770267,1.73856044 28.2770267,2.17437697 L28.2770267,39.2628123 C28.2770267,39.6986289 27.9192104,40.051928 27.4778216,40.051928 L1.10405469,40.051928 C0.662665927,40.051928 0.304849634,39.6986289 0.304849634,39.2628123 L0.304849634,2.17437697 C0.304849634,1.73856044 0.662665927,1.38526133 1.10405469,1.38526133 Z" id="path-7"></path>
        <filter x="-42.9%" y="-23.3%" width="185.8%" height="162.1%" filterUnits="objectBoundingBox" id="filter-9">
            <feOffset dx="0" dy="3" in="SourceAlpha" result="shadowOffsetOuter1"></feOffset>
            <feGaussianBlur stdDeviation="3.5" in="shadowOffsetOuter1" result="shadowBlurOuter1"></feGaussianBlur>
            <feColorMatrix values="0 0 0 0 0   0 0 0 0 0   0 0 0 0 0  0 0 0 0.25 0" type="matrix" in="shadowBlurOuter1"></feColorMatrix>
        </filter>
        <linearGradient x1="50%" y1="1.00031672%" x2="50%" y2="99.3243243%" id="linearGradient-10">
            <stop stop-color="#FFFFFF" stop-opacity="0" offset="0%"></stop>
            <stop stop-color="#F1F2F5" offset="100%"></stop>
        </linearGradient>
        <path d="M0.762623753,17.4385039 L11.3239788,1.17544333 C11.4743553,0.943810763 11.7840443,0.877984327 12.0156552,1.02839421 C12.084097,1.07284082 12.1406204,1.1333631 12.1802922,1.20467879 C14.6418179,5.62962143 17.8819214,9.14697384 21.9006028,11.756736 C25.905912,14.3578142 30.3345578,15.829995 35.1865401,16.1732784 C35.4619395,16.192851 35.6694039,16.4319073 35.6499186,16.7073129 C35.643944,16.7917587 35.616622,16.8733042 35.5705146,16.9443035 L24.9831488,33.2474171 C24.7911554,33.543056 24.4576886,33.7157725 24.1054464,33.7020133 C19.3404977,33.5158862 15.0140595,32.1603977 11.1261318,29.6355479 C7.22641149,27.10304 3.76786583,23.3940662 0.750494817,18.5086268 C0.547261499,18.1795861 0.551987445,17.7628553 0.762623753,17.4385039 Z" id="path-11"></path>
        <filter x="-34.2%" y="-24.4%" width="157.1%" height="161.1%" filterUnits="objectBoundingBox" id="filter-12">
            <feOffset dx="-2" dy="2" in="SourceAlpha" result="shadowOffsetOuter1"></feOffset>
            <feGaussianBlur stdDeviation="3" in="shadowOffsetOuter1" result="shadowBlurOuter1"></feGaussianBlur>
            <feColorMatrix values="0 0 0 0 0   0 0 0 0 0   0 0 0 0 0  0 0 0 0.25 0" type="matrix" in="shadowBlurOuter1"></feColorMatrix>
        </filter>
        <path d="M3.14569463,10.1408598 L19.9392058,0.445121555 C20.1783513,0.307004939 20.4841708,0.388949035 20.622253,0.62811437 C20.6630567,0.698788517 20.6859429,0.778375346 20.6889141,0.859928716 C20.8732676,5.92009076 22.1633764,10.5250509 24.5592405,14.6748092 C26.9471323,18.8107592 30.2247285,22.133045 34.392029,24.6416666 C34.6285259,24.7841346 34.7048487,25.0913222 34.5624557,25.3278642 C34.5187947,25.4003936 34.4574298,25.4606473 34.3841147,25.5029757 L17.5492441,35.2225928 C17.2439594,35.3988459 16.8684266,35.4013466 16.5608231,35.2291725 C12.3997227,32.9000906 9.16021692,29.7281797 6.84230579,25.7134398 C4.51736411,21.6865227 3.11961619,16.811656 2.64906203,11.0888398 C2.61736115,10.7033965 2.81076382,10.3342322 3.14569463,10.1408598 Z" id="path-13"></path>
        <filter x="-37.5%" y="-22.9%" width="162.5%" height="157.2%" filterUnits="objectBoundingBox" id="filter-14">
            <feOffset dx="-2" dy="2" in="SourceAlpha" result="shadowOffsetOuter1"></feOffset>
            <feGaussianBlur stdDeviation="3" in="shadowOffsetOuter1" result="shadowBlurOuter1"></feGaussianBlur>
            <feColorMatrix values="0 0 0 0 0   0 0 0 0 0   0 0 0 0 0  0 0 0 0.25 0" type="matrix" in="shadowBlurOuter1"></feColorMatrix>
        </filter>
    </defs>
    <g id="In-App-generic-empty-states" stroke="none" stroke-width="1" fill="none" fill-rule="evenodd" opacity="0.5">
        <g id="Generic-Empty-State_Too-much-data-" transform="translate(-771.000000, -109.000000)">
            <g id="Dark" transform="translate(683.000000, -39.000000)">
                <g id="No-data_XS" transform="translate(79.000000, 109.000000)">
                    <g id="Too-much-data-dark-_XS-drawing/Dark" transform="translate(9.000000, 41.000000)">
                        <path d="M26.0315498,1.39542055 C48.6697077,2.22462773 72.4620762,0.0130330875 94.0982358,6.51515417 C110.899268,11.5642178 103.521577,58.9579312 99.4127747,71.507541 C95.3039729,84.0571509 79.1928013,74.1178062 58.4593353,74.1178062 C37.7258693,74.1178062 26.0315498,85.2740083 16.4789108,71.507541 C2.65660017,47.6695025 3.39339202,0.566213366 26.0315498,1.39542055 Z" id="Rectangle" fill="#CCCED3" opacity="0.08"></path>
                        <path d="M35.8515628,0.941748887 C53.3454602,-1.79954265 85.5355684,9.78301004 105.104379,25.0915038 C120.300061,36.9789416 96.0613923,66.6207583 87.3563262,75.1143927 C78.6512601,83.6080271 64.6577106,81.8090646 42.3880867,75.9728727 C20.1184628,70.1366809 5.49412647,70.3159925 0.797632305,54.5454918 C-4.57983921,28.4852776 18.3576654,3.68304043 35.8515628,0.941748887 Z" id="Rectangle-Copy" fill="#F1F2F5" opacity="0.22"></path>
                        <g id="Decorations" opacity="0.6" transform="translate(2.000000, 8.153846)" fill="#CCCED3">
                            <circle id="Oval" cx="79.3461538" cy="6.34615385" r="2.11538462"></circle>
                            <circle id="Oval-Copy-2" cx="53.9615385" cy="16.8711904" r="1.26923077"></circle>
                            <path d="M6.5,8.84615385 L6.84879808,8.84615385 C7.12494046,8.84615385 7.34879808,9.07001147 7.34879808,9.34615385 L7.34879808,22.2692308 C7.34879808,22.5453732 7.12494046,22.7692308 6.84879808,22.7692308 L6.5,22.7692308 C6.22385763,22.7692308 6,22.5453732 6,22.2692308 L6,9.34615385 C6,9.07001147 6.22385763,8.84615385 6.5,8.84615385 Z" id="Rectangle-Copy-6" opacity="0.339076451" transform="translate(6.674399, 15.807692) scale(-1, 1) rotate(26.000000) translate(-6.674399, -15.807692) "></path>
                            <rect id="Rectangle-Copy-5" opacity="0.339076451" x="86.5384615" y="36.3846154" width="1.69230769" height="13.5384615" rx="0.5"></rect>
                            <circle id="Oval-Copy-4" cx="100.923077" cy="33" r="1"></circle>
                            <path d="M0.478601954,28.1709096 C0.783626845,27.8658848 1.26359158,27.8424213 1.5955303,28.1005193 L1.6752442,28.1709096 L4.06807692,30.5630769 L6.46181318,28.1709096 C6.79225681,27.840466 7.32801179,27.840466 7.65845542,28.1709096 C7.98889906,28.5013533 7.98889906,29.0371083 7.65845542,29.3675519 L5.26538462,31.7603846 L7.65845542,34.1541209 C7.96348032,34.4591458 7.98694377,34.9391105 7.72884578,35.2710492 L7.65845542,35.3507631 C7.35343053,35.655788 6.87346579,35.6792515 6.54152708,35.4211535 L6.46181318,35.3507631 L4.06807692,32.9576923 L1.6752442,35.3507631 C1.34480057,35.6812067 0.809045586,35.6812067 0.478601954,35.3507631 C0.148158323,35.0203195 0.148158323,34.4845645 0.478601954,34.1541209 L2.87076923,31.7603846 L0.478601954,29.3675519 C0.173577064,29.062527 0.150113611,28.5825623 0.408211595,28.2506235 L0.478601954,28.1709096 Z" id="Path"></path>
                            <path d="M25.5060997,56.8015926 C25.6518129,56.9473058 25.6518129,57.1835536 25.5060997,57.3292669 L24.4502308,58.3846154 L25.5060997,59.4399639 C25.6335988,59.567463 25.6495362,59.7642776 25.5539118,59.9091055 L25.5060997,59.9676382 C25.3786006,60.0951372 25.181786,60.1110746 25.0369581,60.0154503 L24.9784254,59.9676382 L23.9230769,58.9117692 L22.8677284,59.9676382 C22.7220152,60.1133514 22.4857674,60.1133514 22.3400541,59.9676382 C22.1943409,59.8219249 22.1943409,59.5856771 22.3400541,59.4399639 L23.3959231,58.3846154 L22.3400541,57.3292669 C22.2125551,57.2017678 22.1966177,57.0049532 22.292242,56.8601252 L22.3400541,56.8015926 C22.4675532,56.6740935 22.6643678,56.6581562 22.8091958,56.7537805 L22.8677284,56.8015926 L23.9230769,57.8574615 L24.9784254,56.8015926 C25.1241387,56.6558794 25.3603865,56.6558794 25.5060997,56.8015926 Z" id="Path"></path>
                            <path d="M52.6923077,4.65384615 C52.9000045,4.65384615 53.0727455,4.80350975 53.1085683,5.00087446 L53.1153846,5.07692308 L53.1153846,6.34615385 C53.1153846,6.57981278 52.9259666,6.76923077 52.6923077,6.76923077 C52.4846109,6.76923077 52.3118698,6.61956717 52.2760471,6.42220246 L52.2692308,6.34615385 L52.2692308,5.07692308 C52.2692308,4.84326414 52.4586488,4.65384615 52.6923077,4.65384615 Z M54.1295161,4.23314246 L54.1881105,4.28209707 L55.0855922,5.17957875 C55.250814,5.34480057 55.250814,5.61267806 55.0855922,5.77789987 C54.9387283,5.92476371 54.7107539,5.94108192 54.5458654,5.82685449 L54.4872711,5.77789987 L53.5897894,4.88041819 C53.4245676,4.71519638 53.4245676,4.44731888 53.5897894,4.28209707 C53.7182952,4.15359121 53.9089014,4.12503435 54.0650074,4.1964265 L54.1295161,4.23314246 Z M51.794826,4.28209707 C51.9416898,4.4289609 51.958008,4.6569354 51.8437806,4.82182382 L51.794826,4.88041819 L50.8973443,5.77789987 C50.7321225,5.94312169 50.464245,5.94312169 50.2990232,5.77789987 C50.1521594,5.63103604 50.1358412,5.40306155 50.2500686,5.23817312 L50.2990232,5.17957875 L51.1965049,4.28209707 C51.3617267,4.11687525 51.6296042,4.11687525 51.794826,4.28209707 Z M55.6538462,2.96153846 C55.8875051,2.96153846 56.0769231,3.15095645 56.0769231,3.38461538 C56.0769231,3.59231221 55.9272595,3.76505324 55.7298948,3.80087597 L55.6538462,3.80769231 L54.3846154,3.80769231 C54.1509565,3.80769231 53.9615385,3.61827432 53.9615385,3.38461538 C53.9615385,3.17691856 54.1112021,3.00417753 54.3085668,2.9683548 L54.3846154,2.96153846 L55.6538462,2.96153846 Z M51,2.96153846 C51.2336589,2.96153846 51.4230769,3.15095645 51.4230769,3.38461538 C51.4230769,3.59231221 51.2734133,3.76505324 51.0760486,3.80087597 L51,3.80769231 L49.7307692,3.80769231 C49.4971103,3.80769231 49.3076923,3.61827432 49.3076923,3.38461538 C49.3076923,3.17691856 49.4573559,3.00417753 49.6547206,2.9683548 L49.7307692,2.96153846 L51,2.96153846 Z M50.83875,0.942376282 L50.8973443,0.991330894 L51.794826,1.88881258 C51.9600478,2.05403439 51.9600478,2.32191189 51.794826,2.4871337 C51.6479622,2.63399754 51.4199877,2.65031574 51.2550993,2.53608831 L51.1965049,2.4871337 L50.2990232,1.58965202 C50.1338014,1.4244302 50.1338014,1.15655271 50.2990232,0.991330894 C50.4275291,0.862825038 50.6181353,0.834268181 50.7742413,0.905660323 L50.83875,0.942376282 Z M55.0855922,0.991330894 C55.232456,1.13819473 55.2487742,1.36616922 55.1345468,1.53105765 L55.0855922,1.58965202 L54.1881105,2.4871337 C54.0228887,2.65235552 53.7550112,2.65235552 53.5897894,2.4871337 C53.4429255,2.34026986 53.4266073,2.11229537 53.5408348,1.94740694 L53.5897894,1.88881258 L54.4872711,0.991330894 C54.6524929,0.826109079 54.9203704,0.826109079 55.0855922,0.991330894 Z M52.6923077,0 C52.9000045,0 53.0727455,0.149663597 53.1085683,0.347028311 L53.1153846,0.423076923 L53.1153846,1.69230769 C53.1153846,1.92596662 52.9259666,2.11538462 52.6923077,2.11538462 C52.4846109,2.11538462 52.3118698,1.96572102 52.2760471,1.7683563 L52.2692308,1.69230769 L52.2692308,0.423076923 C52.2692308,0.18941799 52.4586488,0 52.6923077,0 Z" id="Combined-Shape" fill-rule="nonzero"></path>
                        </g>
                        <g id="Group-2" transform="translate(8.000000, 3.000000)">
                            <g id="Trend" transform="translate(27.000000, 23.958550)">
                                <g id="base">
                                    <g id="Path">
                                        <use fill="black" fill-opacity="1" filter="url(#filter-2)" xlink:href="#path-1"></use>
                                        <use fill="#D5D6DA" fill-rule="evenodd" xlink:href="#path-1"></use>
                                    </g>
                                    <g id="Path">
                                        <use fill="black" fill-opacity="1" filter="url(#filter-4)" xlink:href="#path-3"></use>
                                        <use fill="#D5D6DA" fill-rule="evenodd" xlink:href="#path-3"></use>
                                    </g>
                                    <path d="M3.41124111,-4.73695157e-15 L45.7106308,-4.73695157e-15 C47.5946073,-4.73695157e-15 49.1218719,1.49238417 49.1218719,3.33333333 L49.1218719,7.91666667 L0,7.91666667 L0,3.33333333 C0,1.49238417 1.52726466,-4.73695157e-15 3.41124111,-4.73695157e-15 Z" id="Path-Copy" fill="#9EA0A5"></path>
                                </g>
                                <g id="lines" transform="translate(5.457986, 14.000000)" fill="#9EA0A5" fill-opacity="0.387155813" fill-rule="nonzero">
                                    <path d="M37.6942142,17.8333333 C37.788413,17.8333333 37.8647763,17.9452621 37.8647763,18.0833333 C37.8647763,18.2016801 37.8086727,18.3008202 37.7333225,18.3267307 L37.6942142,18.3333333 L2.77555756e-17,18.3333333 C-0.094198822,18.3333333 -0.170562055,18.2214045 -0.170562055,18.0833333 C-0.170562055,17.9649866 -0.114458455,17.8658465 -0.0391083144,17.839936 L2.77555756e-17,17.8333333 L37.6942142,17.8333333 Z" id="Line"></path>
                                    <path d="M37.6942142,13.4166667 C37.788413,13.4166667 37.8647763,13.5285955 37.8647763,13.6666667 C37.8647763,13.7850134 37.8086727,13.8841535 37.7333225,13.910064 L37.6942142,13.9166667 L2.77555756e-17,13.9166667 C-0.094198822,13.9166667 -0.170562055,13.8047379 -0.170562055,13.6666667 C-0.170562055,13.5483199 -0.114458455,13.4491798 -0.0391083144,13.4232693 L2.77555756e-17,13.4166667 L37.6942142,13.4166667 Z" id="Line-Copy"></path>
                                    <path d="M37.6942142,9 C37.788413,9 37.8647763,9.11192881 37.8647763,9.25 C37.8647763,9.36834673 37.8086727,9.46748682 37.7333225,9.49339732 L37.6942142,9.5 L2.77555756e-17,9.5 C-0.094198822,9.5 -0.170562055,9.38807119 -0.170562055,9.25 C-0.170562055,9.13165327 -0.114458455,9.03251318 -0.0391083144,9.00660268 L2.77555756e-17,9 L37.6942142,9 Z" id="Line-Copy-2"></path>
                                    <path d="M37.6942142,4.58333333 C37.788413,4.58333333 37.8647763,4.69526215 37.8647763,4.83333333 C37.8647763,4.95168007 37.8086727,5.05082015 37.7333225,5.07673066 L37.6942142,5.08333333 L2.77555756e-17,5.08333333 C-0.094198822,5.08333333 -0.170562055,4.97140452 -0.170562055,4.83333333 C-0.170562055,4.7149866 -0.114458455,4.61584651 -0.0391083144,4.58993601 L2.77555756e-17,4.58333333 L37.6942142,4.58333333 Z" id="Line-Copy-3"></path>
                                    <path d="M37.6942142,0.166666667 C37.788413,0.166666667 37.8647763,0.278595479 37.8647763,0.416666667 C37.8647763,0.535013399 37.8086727,0.634153488 37.7333225,0.660063988 L37.6942142,0.666666667 L2.77555756e-17,0.666666667 C-0.094198822,0.666666667 -0.170562055,0.554737854 -0.170562055,0.416666667 C-0.170562055,0.298319935 -0.114458455,0.199179845 -0.0391083144,0.173269345 L2.77555756e-17,0.166666667 L37.6942142,0.166666667 Z" id="Line-Copy-4"></path>
                                </g>
                                <g id="Group" transform="translate(15.691709, 34.666667)">
                                    <path d="M2.72899288,0 L6.82248221,0 C7.1992775,0 7.50473043,0.298476833 7.50473043,0.666666667 C7.50473043,1.0348565 7.1992775,1.33333333 6.82248221,1.33333333 L2.72899288,1.33333333 C2.3521976,1.33333333 2.04674466,1.0348565 2.04674466,0.666666667 C2.04674466,0.298476833 2.3521976,0 2.72899288,0 Z" id="Rectangle-Copy-2" fill-opacity="0.35" fill="#67696F"></path>
                                    <path d="M12.9627162,0 L17.0562055,0 C17.4330008,0 17.7384537,0.298476833 17.7384537,0.666666667 C17.7384537,1.0348565 17.4330008,1.33333333 17.0562055,1.33333333 L12.9627162,1.33333333 C12.5859209,1.33333333 12.280468,1.0348565 12.280468,0.666666667 C12.280468,0.298476833 12.5859209,0 12.9627162,0 Z" id="Rectangle-Copy-5" fill-opacity="0.35" fill="#67696F"></path>
                                    <path d="M0.682248221,0 C1.05904351,0 1.36449644,0.298476833 1.36449644,0.666666667 C1.36449644,1.0348565 1.05904351,1.33333333 0.682248221,1.33333333 C0.305452933,1.33333333 0,1.0348565 0,0.666666667 C0,0.298476833 0.305452933,0 0.682248221,0 Z" id="Rectangle-Copy-4" fill="#DFE0E1" opacity="0.647623698"></path>
                                    <path d="M10.9159715,0 C11.2927668,0 11.5982198,0.298476833 11.5982198,0.666666667 C11.5982198,1.0348565 11.2927668,1.33333333 10.9159715,1.33333333 C10.5391762,1.33333333 10.2337233,1.0348565 10.2337233,0.666666667 C10.2337233,0.298476833 10.5391762,0 10.9159715,0 Z" id="Rectangle-Copy-6" fill="#ACAEB2" opacity="0.647623698"></path>
                                </g>
                                <path d="M39.3998348,23.6 C36.9227425,23.6 35.1782093,21.7480232 33.5736425,18.2576461 L33.3590446,17.7770826 C33.3060236,17.6233576 31.5328506,13.197641 31.1227966,12.6268787 C30.9426184,12.376085 30.7941085,12.2666667 30.6865123,12.2666667 C30.1736028,12.2666667 29.5753286,13.305468 28.7311131,15.5175308 L27.9835942,17.5310742 L27.8289579,17.9318321 C27.6810094,18.3077159 27.5516616,18.6120116 27.4277476,18.8720294 C27.2276247,19.2919619 27.0450174,19.588186 26.8594803,19.7720549 C26.5970883,20.0320877 26.2835716,20.09181 26.0090285,19.8735043 C25.7720751,19.6850885 25.5573714,19.4657706 25.2895687,19.1514288 L25.1059955,18.9313482 C25.0131941,18.8183932 24.8565408,18.6274497 24.8030955,18.5637431 C24.6698032,18.4048594 24.5633224,18.2861872 24.4629189,18.1868852 C24.0120859,17.7409979 23.7386194,17.7157779 23.3147198,18.1779731 C23.1299612,18.379423 22.8805426,18.8278245 22.5316186,19.5739652 L22.2759599,20.1354858 C21.9874967,20.7848749 21.299449,22.3546462 21.0741417,22.8506523 L20.8335493,23.373407 C19.926254,25.3172913 19.1862228,26.5752231 18.442549,27.2903197 C17.8902912,27.8213558 17.3354179,28.029743 16.791174,27.8335125 C15.9145145,27.5174275 15.3078586,26.9308159 14.2129321,25.5017739 L13.8385055,25.006772 C12.4536066,23.1651135 11.7334268,22.5166667 10.7454095,22.5166667 C9.25937822,22.5166667 7.54164997,25.0280683 5.71524085,30.0694594 C5.66494397,30.2082926 5.50899327,30.2809967 5.36691522,30.2318485 C5.22483716,30.1827003 5.15043381,30.0303113 5.20073069,29.8914781 L5.40845547,29.327425 C7.23993972,24.4369082 8.98223164,21.9833333 10.7454095,21.9833333 C11.9046036,21.9833333 12.677737,22.6121217 13.9972299,24.3216916 L14.6473442,25.1787545 C15.6751509,26.5196207 16.2373982,27.0653638 16.9801129,27.3331542 C17.2886101,27.4443847 17.6423147,27.3115481 18.0597267,26.9101761 C18.77178,26.2254848 19.5220973,24.9245082 20.4573922,22.8921427 L20.7582244,22.2256888 C21.1142544,21.4246182 21.733635,20.0113867 21.8770275,19.6957327 L22.0420289,19.3374727 C22.4115937,18.5475066 22.6764958,18.0747327 22.9082634,17.8220269 C23.5641096,17.106931 24.1972858,17.1653245 24.8511794,17.8120449 C24.9426338,17.9024961 25.0355664,18.003774 25.1423313,18.1279808 L25.5952368,18.6747624 L25.8086677,18.9253509 C26.0095848,19.1538042 26.1775208,19.3198795 26.3535224,19.459829 C26.3808306,19.4815434 26.3873855,19.4802947 26.4708367,19.3975939 C26.6017843,19.2678236 26.7571957,19.0157167 26.9329664,18.646884 C27.0512555,18.3986692 27.1764889,18.1039122 27.3207543,17.7372739 L28.2204302,15.3280658 C29.1858463,12.7852387 29.8076937,11.7333333 30.6865123,11.7333333 C31.014592,11.7333333 31.2974167,11.9417115 31.569507,12.3204394 C32.0324497,12.9648186 33.9243759,17.697159 33.8638172,17.5757706 L33.9657047,17.8060478 L34.1830787,18.2783656 C35.6366808,21.3549635 37.1860251,22.9860174 39.2444889,23.0637508 L39.3998348,23.0666667 L43.9423415,23.0666667 L43.9423415,23.6 L39.3998348,23.6 Z" id="Path-11" fill="#7B7D82" fill-rule="nonzero"></path>
                                <path d="M31.8334722,22.7628356 L31.8820555,22.4999341 C32.7388532,17.7680927 35.4654437,16.9930564 36.3169316,20.7886291 L36.3499822,20.9428911 C36.8958405,23.6132006 38.4231995,25.5870652 40.1071207,26.7007162 C40.7223549,27.1075976 41.9129556,27.3215579 43.6638861,27.3215579 C43.8146043,27.3215579 43.9367854,27.4409487 43.9367854,27.5882246 C43.9367854,27.7355005 43.8146043,27.8548913 43.6638861,27.8548913 C41.8125816,27.8548913 40.5300325,27.6244071 39.8012022,27.1423996 C38.064515,25.9938521 36.4957641,24.0018448 35.8737714,21.3180409 L35.8147568,21.0473602 C35.1568223,17.8287802 33.2572486,18.2760384 32.455712,22.3999129 L32.4195062,22.5928563 C31.4490266,27.9525293 29.8257242,30.2520267 26.4517762,30.2520267 C24.3516119,30.2520267 23.0448396,29.4468335 21.9919337,27.9256841 L21.894993,27.7801986 C21.6533441,27.4085985 21.2304836,26.7124589 21.0994574,26.5096127 L20.6403586,25.8341998 C20.5922376,25.7649772 20.5468498,25.700642 20.501558,25.6375187 C19.5160567,24.2640237 18.6039463,23.6048913 17.2695747,23.6048913 C16.3332836,23.6048913 15.5163374,24.4078621 14.0605529,26.4968705 L13.1340219,27.8286788 C12.8922541,28.1674383 12.7409821,28.3622805 12.5273228,28.6218198 C12.2818415,28.9200144 12.050844,29.1670725 11.8247688,29.3685758 C10.5922702,30.4671148 8.48385944,31.220119 5.49717687,31.643631 C5.34802105,31.6647813 5.20955991,31.5637739 5.18791526,31.4180245 C5.16627061,31.2722752 5.26963884,31.1369763 5.41879466,31.115826 C8.30739747,30.7062217 10.3209031,29.9871122 11.4569517,28.9745401 C11.6195044,28.8296552 11.7881604,28.6550669 11.9664584,28.4484928 L12.2369474,28.1216329 C12.4809829,27.8170168 12.6835634,27.5351277 13.1784329,26.8200144 L13.469564,26.398445 C15.1348909,23.9837193 16.0306974,23.0715579 17.2695747,23.0715579 C18.8217121,23.0715579 19.871198,23.8299642 20.9484569,25.331342 L21.1677464,25.6444129 L21.5305858,26.1788021 C21.6356965,26.332819 22.1683182,27.2132771 22.4015843,27.5641432 L22.4440308,27.6268831 C23.4025596,29.0116844 24.5499858,29.7186933 26.4517762,29.7186933 C29.4291675,29.7186933 30.9010253,27.7064436 31.8334722,22.7628356 Z" id="Path-12" fill-opacity="0.851207386" fill="#9EA0A5" fill-rule="nonzero"></path>
                            </g>
                            <g id="Excel" transform="translate(23.000000, 25.500000) rotate(-26.000000) translate(-23.000000, -25.500000) translate(8.000000, 5.000000)">
                                <g id="Rectangle">
                                    <use fill="black" fill-opacity="1" filter="url(#filter-6)" xlink:href="#path-5"></use>
                                    <use fill="#D5D6DA" fill-rule="evenodd" xlink:href="#path-5"></use>
                                </g>
                                <mask id="mask-8" fill="white">
                                    <use xlink:href="#path-7"></use>
                                </mask>
                                <g id="Rectangle">
                                    <use fill="black" fill-opacity="1" filter="url(#filter-9)" xlink:href="#path-7"></use>
                                    <use fill="#D5D6DA" fill-rule="evenodd" xlink:href="#path-7"></use>
                                </g>
                                <g id="Table" mask="url(#mask-8)">
                                    <g transform="translate(-0.595415, 2.066493)">
                                        <path d="M16.5844987,2.34042553 L20.5805239,2.34042553 C20.8012183,2.34042553 20.9801265,2.51506623 20.9801265,2.73049645 L20.9801265,4.29078014 C20.9801265,4.50621036 20.8012183,4.68085106 20.5805239,4.68085106 L16.5844987,4.68085106 C16.3638043,4.68085106 16.1848961,4.50621036 16.1848961,4.29078014 L16.1848961,2.73049645 C16.1848961,2.51506623 16.3638043,2.34042553 16.5844987,2.34042553 Z" id="Rectangle" fill-opacity="0.786276224" fill="#9EA0A5"></path>
                                        <path d="M3.79721771,2.34042553 L7.793243,2.34042553 C8.01393738,2.34042553 8.19284553,2.51506623 8.19284553,2.73049645 L8.19284553,4.29078014 C8.19284553,4.50621036 8.01393738,4.68085106 7.793243,4.68085106 L3.79721771,4.68085106 C3.57652332,4.68085106 3.39761518,4.50621036 3.39761518,4.29078014 L3.39761518,2.73049645 C3.39761518,2.51506623 3.57652332,2.34042553 3.79721771,2.34042553 Z" id="Rectangle-Copy-8" fill-opacity="0.786276224" fill="#9EA0A5"></path>
                                        <path d="M22.9781391,2.34042553 L26.9741644,2.34042553 C27.1948588,2.34042553 27.3737669,2.51506623 27.3737669,2.73049645 L27.3737669,4.29078014 C27.3737669,4.50621036 27.1948588,4.68085106 26.9741644,4.68085106 L22.9781391,4.68085106 C22.7574447,4.68085106 22.5785366,4.50621036 22.5785366,4.29078014 L22.5785366,2.73049645 C22.5785366,2.51506623 22.7574447,2.34042553 22.9781391,2.34042553 Z" id="Rectangle-Copy-7" fill-opacity="0.786276224" fill="#9EA0A5"></path>
                                        <path d="M10.1908582,2.34042553 L14.1868835,2.34042553 C14.4075779,2.34042553 14.586486,2.51506623 14.586486,2.73049645 L14.586486,4.29078014 C14.586486,4.50621036 14.4075779,4.68085106 14.1868835,4.68085106 L10.1908582,4.68085106 C9.9701638,4.68085106 9.79125565,4.50621036 9.79125565,4.29078014 L9.79125565,2.73049645 C9.79125565,2.51506623 9.9701638,2.34042553 10.1908582,2.34042553 Z" id="Rectangle-Copy-9" fill-opacity="0.786276224" fill="#9EA0A5"></path>
                                        <path d="M16.5844987,6.24113475 L20.5805239,6.24113475 C20.8012183,6.24113475 20.9801265,6.41577545 20.9801265,6.63120567 L20.9801265,8.19148936 C20.9801265,8.40691958 20.8012183,8.58156028 20.5805239,8.58156028 L16.5844987,8.58156028 C16.3638043,8.58156028 16.1848961,8.40691958 16.1848961,8.19148936 L16.1848961,6.63120567 C16.1848961,6.41577545 16.3638043,6.24113475 16.5844987,6.24113475 Z" id="Rectangle" fill-opacity="0.786276224" fill="#9EA0A5"></path>
                                        <path d="M3.79721771,6.24113475 L7.793243,6.24113475 C8.01393738,6.24113475 8.19284553,6.41577545 8.19284553,6.63120567 L8.19284553,8.19148936 C8.19284553,8.40691958 8.01393738,8.58156028 7.793243,8.58156028 L3.79721771,8.58156028 C3.57652332,8.58156028 3.39761518,8.40691958 3.39761518,8.19148936 L3.39761518,6.63120567 C3.39761518,6.41577545 3.57652332,6.24113475 3.79721771,6.24113475 Z" id="Rectangle-Copy-8" fill-opacity="0.786276224" fill="#9EA0A5"></path>
                                        <path d="M22.9781391,6.24113475 L26.9741644,6.24113475 C27.1948588,6.24113475 27.3737669,6.41577545 27.3737669,6.63120567 L27.3737669,8.19148936 C27.3737669,8.40691958 27.1948588,8.58156028 26.9741644,8.58156028 L22.9781391,8.58156028 C22.7574447,8.58156028 22.5785366,8.40691958 22.5785366,8.19148936 L22.5785366,6.63120567 C22.5785366,6.41577545 22.7574447,6.24113475 22.9781391,6.24113475 Z" id="Rectangle-Copy-7" fill-opacity="0.786276224" fill="#9EA0A5"></path>
                                        <path d="M10.1908582,6.24113475 L14.1868835,6.24113475 C14.4075779,6.24113475 14.586486,6.41577545 14.586486,6.63120567 L14.586486,8.19148936 C14.586486,8.40691958 14.4075779,8.58156028 14.1868835,8.58156028 L10.1908582,8.58156028 C9.9701638,8.58156028 9.79125565,8.40691958 9.79125565,8.19148936 L9.79125565,6.63120567 C9.79125565,6.41577545 9.9701638,6.24113475 10.1908582,6.24113475 Z" id="Rectangle-Copy-9" fill-opacity="0.786276224" fill="#9EA0A5"></path>
                                        <path d="M16.5844987,10.141844 L20.5805239,10.141844 C20.8012183,10.141844 20.9801265,10.3164847 20.9801265,10.5319149 L20.9801265,12.0921986 C20.9801265,12.3076288 20.8012183,12.4822695 20.5805239,12.4822695 L16.5844987,12.4822695 C16.3638043,12.4822695 16.1848961,12.3076288 16.1848961,12.0921986 L16.1848961,10.5319149 C16.1848961,10.3164847 16.3638043,10.141844 16.5844987,10.141844 Z" id="Rectangle" fill-opacity="0.786276224" fill="#9EA0A5"></path>
                                        <path d="M3.79721771,10.141844 L7.793243,10.141844 C8.01393738,10.141844 8.19284553,10.3164847 8.19284553,10.5319149 L8.19284553,12.0921986 C8.19284553,12.3076288 8.01393738,12.4822695 7.793243,12.4822695 L3.79721771,12.4822695 C3.57652332,12.4822695 3.39761518,12.3076288 3.39761518,12.0921986 L3.39761518,10.5319149 C3.39761518,10.3164847 3.57652332,10.141844 3.79721771,10.141844 Z" id="Rectangle-Copy-8" fill-opacity="0.786276224" fill="#9EA0A5"></path>
                                        <path d="M22.9781391,10.141844 L26.9741644,10.141844 C27.1948588,10.141844 27.3737669,10.3164847 27.3737669,10.5319149 L27.3737669,12.0921986 C27.3737669,12.3076288 27.1948588,12.4822695 26.9741644,12.4822695 L22.9781391,12.4822695 C22.7574447,12.4822695 22.5785366,12.3076288 22.5785366,12.0921986 L22.5785366,10.5319149 C22.5785366,10.3164847 22.7574447,10.141844 22.9781391,10.141844 Z" id="Rectangle-Copy-7" fill-opacity="0.786276224" fill="#9EA0A5"></path>
                                        <path d="M10.1908582,10.141844 L14.1868835,10.141844 C14.4075779,10.141844 14.586486,10.3164847 14.586486,10.5319149 L14.586486,12.0921986 C14.586486,12.3076288 14.4075779,12.4822695 14.1868835,12.4822695 L10.1908582,12.4822695 C9.9701638,12.4822695 9.79125565,12.3076288 9.79125565,12.0921986 L9.79125565,10.5319149 C9.79125565,10.3164847 9.9701638,10.141844 10.1908582,10.141844 Z" id="Rectangle-Copy-9" fill-opacity="0.786276224" fill="#9EA0A5"></path>
                                        <path d="M16.5844987,14.0425532 L20.5805239,14.0425532 C20.8012183,14.0425532 20.9801265,14.2171939 20.9801265,14.4326241 L20.9801265,15.9929078 C20.9801265,16.208338 20.8012183,16.3829787 20.5805239,16.3829787 L16.5844987,16.3829787 C16.3638043,16.3829787 16.1848961,16.208338 16.1848961,15.9929078 L16.1848961,14.4326241 C16.1848961,14.2171939 16.3638043,14.0425532 16.5844987,14.0425532 Z" id="Rectangle" fill-opacity="0.786276224" fill="#9EA0A5"></path>
                                        <path d="M3.79721771,14.0425532 L7.793243,14.0425532 C8.01393738,14.0425532 8.19284553,14.2171939 8.19284553,14.4326241 L8.19284553,15.9929078 C8.19284553,16.208338 8.01393738,16.3829787 7.793243,16.3829787 L3.79721771,16.3829787 C3.57652332,16.3829787 3.39761518,16.208338 3.39761518,15.9929078 L3.39761518,14.4326241 C3.39761518,14.2171939 3.57652332,14.0425532 3.79721771,14.0425532 Z" id="Rectangle-Copy-8" fill-opacity="0.786276224" fill="#9EA0A5"></path>
                                        <path d="M22.9781391,14.0425532 L26.9741644,14.0425532 C27.1948588,14.0425532 27.3737669,14.2171939 27.3737669,14.4326241 L27.3737669,15.9929078 C27.3737669,16.208338 27.1948588,16.3829787 26.9741644,16.3829787 L22.9781391,16.3829787 C22.7574447,16.3829787 22.5785366,16.208338 22.5785366,15.9929078 L22.5785366,14.4326241 C22.5785366,14.2171939 22.7574447,14.0425532 22.9781391,14.0425532 Z" id="Rectangle-Copy-7" fill-opacity="0.786276224" fill="#9EA0A5"></path>
                                        <path d="M10.1908582,14.0425532 L14.1868835,14.0425532 C14.4075779,14.0425532 14.586486,14.2171939 14.586486,14.4326241 L14.586486,15.9929078 C14.586486,16.208338 14.4075779,16.3829787 14.1868835,16.3829787 L10.1908582,16.3829787 C9.9701638,16.3829787 9.79125565,16.208338 9.79125565,15.9929078 L9.79125565,14.4326241 C9.79125565,14.2171939 9.9701638,14.0425532 10.1908582,14.0425532 Z" id="Rectangle-Copy-9" fill-opacity="0.786276224" fill="#9EA0A5"></path>
                                        <path d="M16.5844987,17.9432624 L20.5805239,17.9432624 C20.8012183,17.9432624 20.9801265,18.1179031 20.9801265,18.3333333 L20.9801265,19.893617 C20.9801265,20.1090472 20.8012183,20.2836879 20.5805239,20.2836879 L16.5844987,20.2836879 C16.3638043,20.2836879 16.1848961,20.1090472 16.1848961,19.893617 L16.1848961,18.3333333 C16.1848961,18.1179031 16.3638043,17.9432624 16.5844987,17.9432624 Z" id="Rectangle" fill-opacity="0.786276224" fill="#9EA0A5"></path>
                                        <path d="M3.79721771,17.9432624 L7.793243,17.9432624 C8.01393738,17.9432624 8.19284553,18.1179031 8.19284553,18.3333333 L8.19284553,19.893617 C8.19284553,20.1090472 8.01393738,20.2836879 7.793243,20.2836879 L3.79721771,20.2836879 C3.57652332,20.2836879 3.39761518,20.1090472 3.39761518,19.893617 L3.39761518,18.3333333 C3.39761518,18.1179031 3.57652332,17.9432624 3.79721771,17.9432624 Z" id="Rectangle-Copy-8" fill-opacity="0.786276224" fill="#9EA0A5"></path>
                                        <path d="M22.9781391,17.9432624 L26.9741644,17.9432624 C27.1948588,17.9432624 27.3737669,18.1179031 27.3737669,18.3333333 L27.3737669,19.893617 C27.3737669,20.1090472 27.1948588,20.2836879 26.9741644,20.2836879 L22.9781391,20.2836879 C22.7574447,20.2836879 22.5785366,20.1090472 22.5785366,19.893617 L22.5785366,18.3333333 C22.5785366,18.1179031 22.7574447,17.9432624 22.9781391,17.9432624 Z" id="Rectangle-Copy-7" fill-opacity="0.786276224" fill="#9EA0A5"></path>
                                        <path d="M10.1908582,17.9432624 L14.1868835,17.9432624 C14.4075779,17.9432624 14.586486,18.1179031 14.586486,18.3333333 L14.586486,19.893617 C14.586486,20.1090472 14.4075779,20.2836879 14.1868835,20.2836879 L10.1908582,20.2836879 C9.9701638,20.2836879 9.79125565,20.1090472 9.79125565,19.893617 L9.79125565,18.3333333 C9.79125565,18.1179031 9.9701638,17.9432624 10.1908582,17.9432624 Z" id="Rectangle-Copy-9" fill-opacity="0.786276224" fill="#9EA0A5"></path>
                                        <path d="M16.5844987,21.8439716 L20.5805239,21.8439716 C20.8012183,21.8439716 20.9801265,22.0186123 20.9801265,22.2340426 L20.9801265,23.7943262 C20.9801265,24.0097565 20.8012183,24.1843972 20.5805239,24.1843972 L16.5844987,24.1843972 C16.3638043,24.1843972 16.1848961,24.0097565 16.1848961,23.7943262 L16.1848961,22.2340426 C16.1848961,22.0186123 16.3638043,21.8439716 16.5844987,21.8439716 Z" id="Rectangle" fill-opacity="0.786276224" fill="#9EA0A5"></path>
                                        <path d="M3.79721771,21.8439716 L7.793243,21.8439716 C8.01393738,21.8439716 8.19284553,22.0186123 8.19284553,22.2340426 L8.19284553,23.7943262 C8.19284553,24.0097565 8.01393738,24.1843972 7.793243,24.1843972 L3.79721771,24.1843972 C3.57652332,24.1843972 3.39761518,24.0097565 3.39761518,23.7943262 L3.39761518,22.2340426 C3.39761518,22.0186123 3.57652332,21.8439716 3.79721771,21.8439716 Z" id="Rectangle-Copy-8" fill-opacity="0.786276224" fill="#9EA0A5"></path>
                                        <path d="M22.9781391,21.8439716 L26.9741644,21.8439716 C27.1948588,21.8439716 27.3737669,22.0186123 27.3737669,22.2340426 L27.3737669,23.7943262 C27.3737669,24.0097565 27.1948588,24.1843972 26.9741644,24.1843972 L22.9781391,24.1843972 C22.7574447,24.1843972 22.5785366,24.0097565 22.5785366,23.7943262 L22.5785366,22.2340426 C22.5785366,22.0186123 22.7574447,21.8439716 22.9781391,21.8439716 Z" id="Rectangle-Copy-7" fill-opacity="0.786276224" fill="#9EA0A5"></path>
                                        <path d="M10.1908582,21.8439716 L14.1868835,21.8439716 C14.4075779,21.8439716 14.586486,22.0186123 14.586486,22.2340426 L14.586486,23.7943262 C14.586486,24.0097565 14.4075779,24.1843972 14.1868835,24.1843972 L10.1908582,24.1843972 C9.9701638,24.1843972 9.79125565,24.0097565 9.79125565,23.7943262 L9.79125565,22.2340426 C9.79125565,22.0186123 9.9701638,21.8439716 10.1908582,21.8439716 Z" id="Rectangle-Copy-9" fill-opacity="0.786276224" fill="#9EA0A5"></path>
                                        <path d="M16.5844987,25.7446809 L20.5805239,25.7446809 C20.8012183,25.7446809 20.9801265,25.9193216 20.9801265,26.1347518 L20.9801265,27.6950355 C20.9801265,27.9104657 20.8012183,28.0851064 20.5805239,28.0851064 L16.5844987,28.0851064 C16.3638043,28.0851064 16.1848961,27.9104657 16.1848961,27.6950355 L16.1848961,26.1347518 C16.1848961,25.9193216 16.3638043,25.7446809 16.5844987,25.7446809 Z" id="Rectangle" fill-opacity="0.786276224" fill="#9EA0A5"></path>
                                        <path d="M3.79721771,25.7446809 L7.793243,25.7446809 C8.01393738,25.7446809 8.19284553,25.9193216 8.19284553,26.1347518 L8.19284553,27.6950355 C8.19284553,27.9104657 8.01393738,28.0851064 7.793243,28.0851064 L3.79721771,28.0851064 C3.57652332,28.0851064 3.39761518,27.9104657 3.39761518,27.6950355 L3.39761518,26.1347518 C3.39761518,25.9193216 3.57652332,25.7446809 3.79721771,25.7446809 Z" id="Rectangle-Copy-8" fill-opacity="0.786276224" fill="#9EA0A5"></path>
                                        <path d="M22.9781391,25.7446809 L26.9741644,25.7446809 C27.1948588,25.7446809 27.3737669,25.9193216 27.3737669,26.1347518 L27.3737669,27.6950355 C27.3737669,27.9104657 27.1948588,28.0851064 26.9741644,28.0851064 L22.9781391,28.0851064 C22.7574447,28.0851064 22.5785366,27.9104657 22.5785366,27.6950355 L22.5785366,26.1347518 C22.5785366,25.9193216 22.7574447,25.7446809 22.9781391,25.7446809 Z" id="Rectangle-Copy-7" fill-opacity="0.786276224" fill="#9EA0A5"></path>
                                        <path d="M10.1908582,25.7446809 L14.1868835,25.7446809 C14.4075779,25.7446809 14.586486,25.9193216 14.586486,26.1347518 L14.586486,27.6950355 C14.586486,27.9104657 14.4075779,28.0851064 14.1868835,28.0851064 L10.1908582,28.0851064 C9.9701638,28.0851064 9.79125565,27.9104657 9.79125565,27.6950355 L9.79125565,26.1347518 C9.79125565,25.9193216 9.9701638,25.7446809 10.1908582,25.7446809 Z" id="Rectangle-Copy-9" fill-opacity="0.786276224" fill="#9EA0A5"></path>
                                        <path d="M16.5844987,29.6453901 L20.5805239,29.6453901 C20.8012183,29.6453901 20.9801265,29.8200308 20.9801265,30.035461 L20.9801265,31.5957447 C20.9801265,31.8111749 20.8012183,31.9858156 20.5805239,31.9858156 L16.5844987,31.9858156 C16.3638043,31.9858156 16.1848961,31.8111749 16.1848961,31.5957447 L16.1848961,30.035461 C16.1848961,29.8200308 16.3638043,29.6453901 16.5844987,29.6453901 Z" id="Rectangle" fill-opacity="0.786276224" fill="#9EA0A5"></path>
                                        <path d="M3.79721771,29.6453901 L7.793243,29.6453901 C8.01393738,29.6453901 8.19284553,29.8200308 8.19284553,30.035461 L8.19284553,31.5957447 C8.19284553,31.8111749 8.01393738,31.9858156 7.793243,31.9858156 L3.79721771,31.9858156 C3.57652332,31.9858156 3.39761518,31.8111749 3.39761518,31.5957447 L3.39761518,30.035461 C3.39761518,29.8200308 3.57652332,29.6453901 3.79721771,29.6453901 Z" id="Rectangle-Copy-8" fill-opacity="0.786276224" fill="#9EA0A5"></path>
                                        <path d="M22.9781391,29.6453901 L26.9741644,29.6453901 C27.1948588,29.6453901 27.3737669,29.8200308 27.3737669,30.035461 L27.3737669,31.5957447 C27.3737669,31.8111749 27.1948588,31.9858156 26.9741644,31.9858156 L22.9781391,31.9858156 C22.7574447,31.9858156 22.5785366,31.8111749 22.5785366,31.5957447 L22.5785366,30.035461 C22.5785366,29.8200308 22.7574447,29.6453901 22.9781391,29.6453901 Z" id="Rectangle-Copy-7" fill-opacity="0.786276224" fill="#9EA0A5"></path>
                                        <path d="M10.1908582,29.6453901 L14.1868835,29.6453901 C14.4075779,29.6453901 14.586486,29.8200308 14.586486,30.035461 L14.586486,31.5957447 C14.586486,31.8111749 14.4075779,31.9858156 14.1868835,31.9858156 L10.1908582,31.9858156 C9.9701638,31.9858156 9.79125565,31.8111749 9.79125565,31.5957447 L9.79125565,30.035461 C9.79125565,29.8200308 9.9701638,29.6453901 10.1908582,29.6453901 Z" id="Rectangle-Copy-9" fill-opacity="0.786276224" fill="#9EA0A5"></path>
                                        <path d="M16.5844987,33.5460993 L20.5805239,33.5460993 C20.8012183,33.5460993 20.9801265,33.72074 20.9801265,33.9361702 L20.9801265,35.4964539 C20.9801265,35.7118841 20.8012183,35.8865248 20.5805239,35.8865248 L16.5844987,35.8865248 C16.3638043,35.8865248 16.1848961,35.7118841 16.1848961,35.4964539 L16.1848961,33.9361702 C16.1848961,33.72074 16.3638043,33.5460993 16.5844987,33.5460993 Z" id="Rectangle" fill-opacity="0.786276224" fill="#9EA0A5"></path>
                                        <path d="M3.79721771,33.5460993 L7.793243,33.5460993 C8.01393738,33.5460993 8.19284553,33.72074 8.19284553,33.9361702 L8.19284553,35.4964539 C8.19284553,35.7118841 8.01393738,35.8865248 7.793243,35.8865248 L3.79721771,35.8865248 C3.57652332,35.8865248 3.39761518,35.7118841 3.39761518,35.4964539 L3.39761518,33.9361702 C3.39761518,33.72074 3.57652332,33.5460993 3.79721771,33.5460993 Z" id="Rectangle-Copy-8" fill-opacity="0.786276224" fill="#9EA0A5"></path>
                                        <path d="M22.9781391,33.5460993 L26.9741644,33.5460993 C27.1948588,33.5460993 27.3737669,33.72074 27.3737669,33.9361702 L27.3737669,35.4964539 C27.3737669,35.7118841 27.1948588,35.8865248 26.9741644,35.8865248 L22.9781391,35.8865248 C22.7574447,35.8865248 22.5785366,35.7118841 22.5785366,35.4964539 L22.5785366,33.9361702 C22.5785366,33.72074 22.7574447,33.5460993 22.9781391,33.5460993 Z" id="Rectangle-Copy-7" fill-opacity="0.786276224" fill="#9EA0A5"></path>
                                        <path d="M10.1908582,33.5460993 L14.1868835,33.5460993 C14.4075779,33.5460993 14.586486,33.72074 14.586486,33.9361702 L14.586486,35.4964539 C14.586486,35.7118841 14.4075779,35.8865248 14.1868835,35.8865248 L10.1908582,35.8865248 C9.9701638,35.8865248 9.79125565,35.7118841 9.79125565,35.4964539 L9.79125565,33.9361702 C9.79125565,33.72074 9.9701638,33.5460993 10.1908582,33.5460993 Z" id="Rectangle-Copy-9" fill-opacity="0.786276224" fill="#9EA0A5"></path>
                                        <polygon id="Rectangle" fill="url(#linearGradient-10)" points="0.491414962 -9.23705556e-14 29.4807621 -9.23705556e-14 29.4807621 38 0.491414962 38"></polygon>
                                    </g>
                                </g>
                                <polygon id="X" fill="#9EA0A5" fill-rule="nonzero" mask="url(#mask-8)" points="6.06500446 37.0111687 8.78201055 33.480845 11.4990166 37.0111687 14.3278995 37.0111687 10.3802494 32.3061984 14.0482077 27.6778354 11.3791487 27.6778354 8.90986966 31.0357925 6.39264343 27.6778354 3.65965494 27.6778354 7.2876572 32.1976712 3.41192792 37.0111687"></polygon>
                            </g>
                        </g>
                        <g id="Pages" transform="translate(69.000000, 2.000000)">
                            <g id="Rectangle-Copy-11">
                                <use fill="black" fill-opacity="1" filter="url(#filter-12)" xlink:href="#path-11"></use>
                                <use fill="#CCCED3" fill-rule="evenodd" xlink:href="#path-11"></use>
                            </g>
                            <g id="Rectangle-Copy-11">
                                <use fill="black" fill-opacity="1" filter="url(#filter-14)" xlink:href="#path-13"></use>
                                <use fill="#CCCED3" fill-rule="evenodd" xlink:href="#path-13"></use>
                            </g>
                        </g>
                    </g>
                </g>
            </g>
        </g>
    </g>
</svg>
