<?xml version="1.0" encoding="UTF-8"?>
<svg width="325px" height="204px" viewBox="0 0 325 204" version="1.1" xmlns="http://www.w3.org/2000/svg" xmlns:xlink="http://www.w3.org/1999/xlink">
    <defs>
        <path d="M7.92516185,0 L84.4349234,0 C87.8425988,0 90.6050655,2.74951174 90.6050655,6.14120635 C90.6050655,9.99651923 90.6050655,12.8112388 90.6050655,14.5853651 C90.6050655,26.1854215 90.6050655,43.431976 90.6050655,66.3250286 C90.6050655,69.7167232 87.8425988,72.466235 84.4349234,72.466235 L7.92516185,72.466235 C4.51748648,72.466235 1.75501978,69.7167232 1.75501978,66.3250286 C1.75501978,43.2272692 1.75501978,25.9807147 1.75501978,14.5853651 C1.75501978,12.6065319 1.75501978,9.79181235 1.75501978,6.14120635 C1.75501978,2.74951174 4.51748648,0 7.92516185,0 Z" id="path-1"></path>
        <filter x="-17.4%" y="-15.9%" width="134.9%" height="142.8%" filterUnits="objectBoundingBox" id="filter-2">
            <feOffset dx="0" dy="4" in="SourceAlpha" result="shadowOffsetOuter1"></feOffset>
            <feGaussianBlur stdDeviation="4.5" in="shadowOffsetOuter1" result="shadowBlurOuter1"></feGaussianBlur>
            <feColorMatrix values="0 0 0 0 0   0 0 0 0 0   0 0 0 0 0  0 0 0 0.25 0" type="matrix" in="shadowBlurOuter1"></feColorMatrix>
        </filter>
        <path d="M6.17014206,0 L82.6799036,0 C86.087579,0 88.8500457,2.74951174 88.8500457,6.14120635 C88.8500457,9.99651923 88.8500457,12.8112388 88.8500457,14.5853651 C88.8500457,26.1854215 88.8500457,43.431976 88.8500457,66.3250286 C88.8500457,69.7167232 86.087579,72.466235 82.6799036,72.466235 L6.17014206,72.466235 C2.7624667,72.466235 0,69.7167232 0,66.3250286 C0,43.2272692 0,25.9807147 0,14.5853651 C0,12.6065319 0,9.79181235 0,6.14120635 C0,2.74951174 2.7624667,0 6.17014206,0 Z" id="path-3"></path>
        <filter x="-17.4%" y="-15.9%" width="134.9%" height="142.8%" filterUnits="objectBoundingBox" id="filter-4">
            <feOffset dx="0" dy="4" in="SourceAlpha" result="shadowOffsetOuter1"></feOffset>
            <feGaussianBlur stdDeviation="4.5" in="shadowOffsetOuter1" result="shadowBlurOuter1"></feGaussianBlur>
            <feColorMatrix values="0 0 0 0 0   0 0 0 0 0   0 0 0 0 0  0 0 0 0.25 0" type="matrix" in="shadowBlurOuter1"></feColorMatrix>
        </filter>
        <path d="M10.150747,0.90359665 L47.2430641,0.90359665 C48.8191139,0.90359665 50.0967548,2.17591973 50.0967548,3.74540979 L50.0967548,64.8443922 C50.0967548,66.4138823 48.8191139,67.6862053 47.2430641,67.6862053 L4.43770352,67.6862053 C2.86165366,67.6862053 1.58401281,66.4138823 1.58401281,64.8443922 L1.58401281,8.47488078 L10.150747,0.90359665 Z" id="path-5"></path>
        <filter x="-32.0%" y="-17.2%" width="163.9%" height="146.4%" filterUnits="objectBoundingBox" id="filter-6">
            <feOffset dx="0" dy="4" in="SourceAlpha" result="shadowOffsetOuter1"></feOffset>
            <feGaussianBlur stdDeviation="4.5" in="shadowOffsetOuter1" result="shadowBlurOuter1"></feGaussianBlur>
            <feColorMatrix values="0 0 0 0 0   0 0 0 0 0   0 0 0 0 0  0 0 0 0.25 0" type="matrix" in="shadowBlurOuter1"></feColorMatrix>
        </filter>
        <path d="M8.93519041,1.59078442 L46.0275075,1.59078442 C47.6035573,1.59078442 48.8811982,2.8631075 48.8811982,4.43259756 L48.8811982,65.53158 C48.8811982,67.10107 47.6035573,68.3733931 46.0275075,68.3733931 L3.22214692,68.3733931 C1.64609706,68.3733931 0.368456216,67.10107 0.368456216,65.53158 L0.368456216,9.16206855 L8.93519041,1.59078442 Z" id="path-7"></path>
        <filter x="-32.0%" y="-17.2%" width="163.9%" height="146.4%" filterUnits="objectBoundingBox" id="filter-8">
            <feOffset dx="0" dy="4" in="SourceAlpha" result="shadowOffsetOuter1"></feOffset>
            <feGaussianBlur stdDeviation="4.5" in="shadowOffsetOuter1" result="shadowBlurOuter1"></feGaussianBlur>
            <feColorMatrix values="0 0 0 0 0   0 0 0 0 0   0 0 0 0 0  0 0 0 0.25 0" type="matrix" in="shadowBlurOuter1"></feColorMatrix>
        </filter>
        <path d="M8.15272969,5.47437687 L14.2122143,10.7418065 L14.2122143,10.7418065 L0.533827876,10.7882227 L5.38134997,5.61611354 C6.11678523,4.83143399 7.34107926,4.76881993 8.15272969,5.47437687 Z" id="path-9"></path>
        <filter x="-14.6%" y="-33.9%" width="129.2%" height="149.1%" filterUnits="objectBoundingBox" id="filter-10">
            <feOffset dx="0" dy="-1" in="SourceAlpha" result="shadowOffsetOuter1"></feOffset>
            <feGaussianBlur stdDeviation="0.5" in="shadowOffsetOuter1" result="shadowBlurOuter1"></feGaussianBlur>
            <feColorMatrix values="0 0 0 0 0   0 0 0 0 0   0 0 0 0 0  0 0 0 0.17 0" type="matrix" in="shadowBlurOuter1"></feColorMatrix>
        </filter>
        <path d="M2.61403936,0.653328347 L57.771804,0.653328347 C58.6949189,0.653328347 59.4432514,1.40633588 59.4432514,2.33521775 L59.4432514,81.3840199 C59.4432514,82.3129018 58.6949189,83.0659093 57.771804,83.0659093 L2.61403936,83.0659093 C1.69092445,83.0659093 0.94259195,82.3129018 0.94259195,81.3840199 L0.94259195,2.33521775 C0.94259195,1.40633588 1.69092445,0.653328347 2.61403936,0.653328347 Z" id="path-11"></path>
        <filter x="-12.8%" y="-5.5%" width="125.6%" height="118.2%" filterUnits="objectBoundingBox" id="filter-12">
            <feOffset dx="0" dy="3" in="SourceAlpha" result="shadowOffsetOuter1"></feOffset>
            <feGaussianBlur stdDeviation="2" in="shadowOffsetOuter1" result="shadowBlurOuter1"></feGaussianBlur>
            <feColorMatrix values="0 0 0 0 0   0 0 0 0 0   0 0 0 0 0  0 0 0 0.25 0" type="matrix" in="shadowBlurOuter1"></feColorMatrix>
        </filter>
        <path d="M2.00908918,1.95249038 L57.1668538,1.95249038 C58.0899687,1.95249038 58.8383012,2.70549791 58.8383012,3.63437978 L58.8383012,82.6831819 C58.8383012,83.6120638 58.0899687,84.3650713 57.1668538,84.3650713 L2.00908918,84.3650713 C1.08597427,84.3650713 0.337641772,83.6120638 0.337641772,82.6831819 L0.337641772,3.63437978 C0.337641772,2.70549791 1.08597427,1.95249038 2.00908918,1.95249038 Z" id="path-13"></path>
        <filter x="-26.5%" y="-14.0%" width="153.0%" height="137.6%" filterUnits="objectBoundingBox" id="filter-15">
            <feOffset dx="0" dy="4" in="SourceAlpha" result="shadowOffsetOuter1"></feOffset>
            <feGaussianBlur stdDeviation="4.5" in="shadowOffsetOuter1" result="shadowBlurOuter1"></feGaussianBlur>
            <feColorMatrix values="0 0 0 0 0   0 0 0 0 0   0 0 0 0 0  0 0 0 0.25 0" type="matrix" in="shadowBlurOuter1"></feColorMatrix>
        </filter>
        <linearGradient x1="50%" y1="1.00031672%" x2="50%" y2="99.3243243%" id="linearGradient-16">
            <stop stop-color="#FFFFFF" stop-opacity="0" offset="0%"></stop>
            <stop stop-color="#F1F2F5" offset="100%"></stop>
        </linearGradient>
        <path d="M8.77284343,0 L97.2372552,0 C101.17738,0 104.371482,3.1808077 104.371482,7.10453284 C104.371482,11.5646007 104.371482,14.8208449 104.371482,16.8732655 C104.371482,30.2929386 104.371482,50.244835 104.371482,76.7289547 C104.371482,80.6526798 101.17738,83.8334875 97.2372552,83.8334875 L8.77284343,83.8334875 C4.83271879,83.8334875 1.63861667,80.6526798 1.63861667,76.7289547 C1.63861667,50.0080173 1.63861667,30.0561209 1.63861667,16.8732655 C1.63861667,14.5840271 1.63861667,11.3277829 1.63861667,7.10453284 C1.63861667,3.1808077 4.83271879,0 8.77284343,0 Z" id="path-17"></path>
        <filter x="-15.1%" y="-13.7%" width="130.2%" height="137.0%" filterUnits="objectBoundingBox" id="filter-18">
            <feOffset dx="0" dy="4" in="SourceAlpha" result="shadowOffsetOuter1"></feOffset>
            <feGaussianBlur stdDeviation="4.5" in="shadowOffsetOuter1" result="shadowBlurOuter1"></feGaussianBlur>
            <feColorMatrix values="0 0 0 0 0   0 0 0 0 0   0 0 0 0 0  0 0 0 0.25 0" type="matrix" in="shadowBlurOuter1"></feColorMatrix>
        </filter>
        <path d="M7.13422676,0 L95.5986386,0 C99.5387632,0 102.732865,3.1808077 102.732865,7.10453284 C102.732865,11.5646007 102.732865,14.8208449 102.732865,16.8732655 C102.732865,30.2929386 102.732865,50.244835 102.732865,76.7289547 C102.732865,80.6526798 99.5387632,83.8334875 95.5986386,83.8334875 L7.13422676,83.8334875 C3.19410212,83.8334875 0,80.6526798 0,76.7289547 C0,50.0080173 0,30.0561209 0,16.8732655 C0,14.5840271 0,11.3277829 0,7.10453284 C0,3.1808077 3.19410212,0 7.13422676,0 Z" id="path-19"></path>
        <filter x="-15.1%" y="-13.7%" width="130.2%" height="137.0%" filterUnits="objectBoundingBox" id="filter-20">
            <feOffset dx="0" dy="4" in="SourceAlpha" result="shadowOffsetOuter1"></feOffset>
            <feGaussianBlur stdDeviation="4.5" in="shadowOffsetOuter1" result="shadowBlurOuter1"></feGaussianBlur>
            <feColorMatrix values="0 0 0 0 0   0 0 0 0 0   0 0 0 0 0  0 0 0 0.25 0" type="matrix" in="shadowBlurOuter1"></feColorMatrix>
        </filter>
    </defs>
    <g id="In-App-generic-empty-states" stroke="none" stroke-width="1" fill="none" fill-rule="evenodd" opacity="0.5">
        <g id="Generic-Empty-State_No-data" transform="translate(-772.000000, -924.000000)">
            <g id="Dark" transform="translate(683.000000, 0.000000)">
                <g id="No-data_L" transform="translate(89.000000, 890.000000)">
                    <g id="No-data-dark-_L-drawing/Dark" transform="translate(0.000000, 37.000000)">
                        <path d="M73.0518753,2.86853157 C137.016292,4.91895072 204.241946,-0.549762182 265.375204,15.5283349 C312.846745,28.0133894 292.000979,145.206028 280.391504,176.238032 C268.78203,207.270036 223.2597,182.692556 164.677015,182.692556 C106.094331,182.692556 73.0518753,210.279015 46.0607665,176.238032 C7.0056435,117.292606 9.0874587,0.818112413 73.0518753,2.86853157 Z" id="Rectangle" fill="#CCCED3" opacity="0.08"></path>
                        <path d="M105.595236,1.00513939 C156.100307,-5.82716052 249.033496,23.0407919 305.528862,61.1951506 C349.398962,90.822988 279.421663,164.701223 254.290043,185.870463 C229.158424,207.039703 188.758895,202.556031 124.466251,188.010109 C60.1736064,173.464187 17.9529898,173.911097 4.39416049,134.605248 C-11.1306578,69.6536746 55.0901655,7.83743931 105.595236,1.00513939 Z" id="Rectangle-Copy" fill="#F1F2F5" opacity="0.22"></path>
                        <g id="Doughnut" transform="translate(36.531198, 31.259944)">
                            <g id="base">
                                <g id="Path">
                                    <use fill="black" fill-opacity="1" filter="url(#filter-2)" xlink:href="#path-1"></use>
                                    <use fill="#D5D6DA" fill-rule="evenodd" xlink:href="#path-1"></use>
                                </g>
                                <g id="Path">
                                    <use fill="black" fill-opacity="1" filter="url(#filter-4)" xlink:href="#path-3"></use>
                                    <use fill="#D5D6DA" fill-rule="evenodd" xlink:href="#path-3"></use>
                                </g>
                                <path d="M6.17014206,-8.72717913e-15 L82.6799036,-8.72717913e-15 C86.087579,-8.72717913e-15 88.8500457,2.74951174 88.8500457,6.14120635 L88.8500457,14.5853651 L0,14.5853651 L0,6.14120635 C0,2.74951174 2.7624667,-8.72717913e-15 6.17014206,-8.72717913e-15 Z" id="Path-Copy" fill="#9EA0A5"></path>
                            </g>
                            <g id="Group-3" opacity="0.815359933" transform="translate(50.086957, 23.652174)" fill="#B1B3B7" fill-rule="nonzero">
                                <path d="M11.1051759,22.5110722 C11.1338159,20.4489893 11.6206966,18.880947 12.565818,17.8069455 L12.565818,17.8069455 L15.2078618,15.2078618 C17.3845049,12.9452985 18.4728264,10.6469352 18.4728264,8.3127719 C18.4728264,5.69220815 17.6673253,3.65160523 16.056323,2.19096314 C14.4453207,0.730321045 12.2006575,0 9.32233334,0 C6.52992934,0 4.28526613,0.737481055 2.5883437,2.21244317 C0.891421276,3.68740528 0.028640041,5.69220815 0,8.22685177 L0,8.22685177 L5.21964747,8.22685177 C5.21964747,7.03829007 5.59554801,6.09674872 6.34734908,5.40222773 C7.09915016,4.70770674 8.09081158,4.36044624 9.32233334,4.36044624 C10.6111352,4.36044624 11.5884766,4.71486675 12.2543575,5.42370776 C12.9202385,6.13254878 13.253179,7.16001025 13.253179,8.50609217 C13.253179,9.52281363 12.9667786,10.467935 12.3939777,11.3414562 C12.0216572,11.914257 11.1373959,12.8772784 9.74119394,14.2305204 C8.34499194,15.5837623 7.4106106,16.8260241 6.93804993,17.9573057 C6.46548925,19.0885873 6.22920891,20.6065095 6.22920891,22.5110722 L6.22920891,22.5110722 L11.1051759,22.5110722 Z M8.8068126,31.9622857 C9.75193396,31.9622857 10.482255,31.6973654 10.9977757,31.1675246 C11.5132965,30.6376838 11.7710568,29.9789629 11.7710568,29.1913618 C11.7710568,28.3751206 11.5061365,27.6984996 10.9762957,27.1614989 C10.4464549,26.6244981 9.72329391,26.3559977 8.8068126,26.3559977 C7.90465131,26.3559977 7.18865029,26.6173381 6.65880953,27.1400188 C6.12896877,27.6626996 5.86404839,28.3464806 5.86404839,29.1913618 C5.86404839,29.9789629 6.11822876,30.6376838 6.62658948,31.1675246 C7.13495021,31.6973654 7.86169125,31.9622857 8.8068126,31.9622857 Z" id="?"></path>
                            </g>
                            <path d="M9.77389066,31.9703978 L31.6046245,31.9703978 C32.2744457,31.9703978 32.8174431,32.6065593 32.8174431,33.3913043 C32.8174431,34.1760494 32.2744457,34.8122109 31.6046245,34.8122109 L9.77389066,34.8122109 C9.10406947,34.8122109 8.56107211,34.1760494 8.56107211,33.3913043 C8.56107211,32.6065593 9.10406947,31.9703978 9.77389066,31.9703978 Z" id="Rectangle" fill="#9EA0A5" opacity="0.647623698"></path>
                            <path d="M9.77389066,25.5763182 L31.6046245,25.5763182 C32.2744457,25.5763182 32.8174431,26.2124798 32.8174431,26.9972248 C32.8174431,27.7819698 32.2744457,28.4181314 31.6046245,28.4181314 L9.77389066,28.4181314 C9.10406947,28.4181314 8.56107211,27.7819698 8.56107211,26.9972248 C8.56107211,26.2124798 9.10406947,25.5763182 9.77389066,25.5763182 Z" id="Rectangle-Copy-3" fill="#9EA0A5" opacity="0.647623698"></path>
                            <path d="M9.85820425,38.3644773 L21.5323935,38.3644773 C22.2487798,38.3644773 22.8295256,39.0006389 22.8295256,39.7853839 C22.8295256,40.5701289 22.2487798,41.2062905 21.5323935,41.2062905 L9.85820425,41.2062905 C9.14181795,41.2062905 8.56107211,40.5701289 8.56107211,39.7853839 C8.56107211,39.0006389 9.14181795,38.3644773 9.85820425,38.3644773 Z" id="Rectangle-Copy-2" fill="#9EA0A5" opacity="0.647623698"></path>
                        </g>
                        <g id="Decorations" opacity="0.6" transform="translate(0.860064, 1.420907)" fill="#CCCED3">
                            <path d="M141.971113,74.5087882 C142.190008,74.5087882 142.372064,74.6658651 142.409818,74.8730059 L142.417002,74.9528215 L142.417002,76.2849214 C142.417002,76.5301542 142.21737,76.7289547 141.971113,76.7289547 C141.752217,76.7289547 141.570162,76.5718777 141.532407,76.3647369 L141.525223,76.2849214 L141.525223,74.9528215 C141.525223,74.7075886 141.724855,74.5087882 141.971113,74.5087882 Z M143.485815,74.0672456 L143.547569,74.1186251 L144.493443,75.060562 C144.667573,75.2339678 144.667573,75.5151141 144.493443,75.6885199 C144.33866,75.8426584 144.098393,75.8597849 143.924614,75.7398994 L143.86286,75.6885199 L142.916986,74.746583 C142.742856,74.5731773 142.742856,74.2920309 142.916986,74.1186251 C143.052421,73.983754 143.253305,73.9537826 143.417828,74.028711 L143.485815,74.0672456 Z M141.025239,74.1186251 C141.180021,74.2727636 141.19722,74.5120304 141.076833,74.6850863 L141.025239,74.746583 L140.079365,75.6885199 C139.905234,75.8619257 139.622913,75.8619257 139.448782,75.6885199 C139.294,75.5343814 139.276802,75.2951146 139.397188,75.1220587 L139.448782,75.060562 L140.394656,74.1186251 C140.568787,73.9452193 140.851108,73.9452193 141.025239,74.1186251 Z M145.092337,72.7326549 C145.338595,72.7326549 145.538226,72.9314554 145.538226,73.1766883 C145.538226,73.394673 145.380492,73.5759704 145.172486,73.6135676 L145.092337,73.6207216 L143.754669,73.6207216 C143.508411,73.6207216 143.30878,73.4219211 143.30878,73.1766883 C143.30878,72.9587035 143.466513,72.7774061 143.67452,72.7398089 L143.754669,72.7326549 L145.092337,72.7326549 Z M140.187556,72.7326549 C140.433814,72.7326549 140.633445,72.9314554 140.633445,73.1766883 C140.633445,73.394673 140.475712,73.5759704 140.267705,73.6135676 L140.187556,73.6207216 L138.849888,73.6207216 C138.603631,73.6207216 138.403999,73.4219211 138.403999,73.1766883 C138.403999,72.9587035 138.561733,72.7774061 138.769739,72.7398089 L138.849888,72.7326549 L140.187556,72.7326549 Z M140.017611,70.6134771 L140.079365,70.6648566 L141.025239,71.6067935 C141.199369,71.7801992 141.199369,72.0613456 141.025239,72.2347514 C140.870456,72.3888899 140.630189,72.4060164 140.45641,72.2861309 L140.394656,72.2347514 L139.448782,71.2928145 C139.274652,71.1194087 139.274652,70.8382624 139.448782,70.6648566 C139.584217,70.5299854 139.785101,70.500014 139.949624,70.5749425 L140.017611,70.6134771 Z M144.493443,70.6648566 C144.648225,70.8189951 144.665423,71.0582619 144.545037,71.2313178 L144.493443,71.2928145 L143.547569,72.2347514 C143.373438,72.4081572 143.091117,72.4081572 142.916986,72.2347514 C142.762204,72.0806129 142.745005,71.8413461 142.865392,71.6682902 L142.916986,71.6067935 L143.86286,70.6648566 C144.036991,70.4914508 144.319312,70.4914508 144.493443,70.6648566 Z M141.971113,69.6244218 C142.190008,69.6244218 142.372064,69.7814988 142.409818,69.9886396 L142.417002,70.0684551 L142.417002,71.400555 C142.417002,71.6457879 142.21737,71.8445883 141.971113,71.8445883 C141.752217,71.8445883 141.570162,71.6875114 141.532407,71.4803706 L141.525223,71.400555 L141.525223,70.0684551 C141.525223,69.8232223 141.724855,69.6244218 141.971113,69.6244218 Z" id="Combined-Shape-Copy-5" fill-rule="nonzero"></path>
                            <ellipse id="Oval" cx="285.011188" cy="115.803885" rx="3.56711338" ry="3.55226642"></ellipse>
                            <ellipse id="Oval-Copy-2" cx="171.934865" cy="105.059955" rx="2.14026803" ry="2.13135985"></ellipse>
                            <path d="M191.347255,24.1508211 L193.110667,24.1486632 C193.386809,24.1483252 193.61094,24.3719088 193.611278,24.6480509 C193.611279,24.6484595 193.611279,24.6488681 193.611278,24.6492767 L193.577599,52.0787479 C193.57726,52.3544115 193.353875,52.5777963 193.078211,52.5781336 L191.314799,52.5802915 C191.038657,52.5806294 190.814526,52.3570459 190.814188,52.0809037 C190.814187,52.0804951 190.814187,52.0800866 190.814188,52.079678 L190.847867,24.6502068 C190.848206,24.3745432 191.071591,24.1511584 191.347255,24.1508211 Z" id="Rectangle-Copy-6" opacity="0.339076451" transform="translate(192.212733, 38.364477) scale(-1, 1) rotate(18.000000) translate(-192.212733, -38.364477) "></path>
                            <rect id="Rectangle-Copy-5" opacity="0.339076451" x="226.868411" y="137.827937" width="2.8536907" height="22.7345051" rx="0.5"></rect>
                            <ellipse id="Oval-Copy-3" cx="1.42684535" cy="50.3550526" rx="1.42684535" ry="1.42090657"></ellipse>
                            <ellipse id="Oval-Copy-4" cx="251.124782" cy="132.144311" rx="1.42684535" ry="1.42090657"></ellipse>
                            <ellipse id="Oval-Copy" cx="71.3422676" cy="152.037003" rx="4.28053606" ry="4.2627197"></ellipse>
                            <g id="corner-llines" opacity="0.34" transform="translate(8.561072, 5.683626)">
                                <path d="M28.1972363,1.97980482 L30.0504125,1.98137373 C30.3262235,1.98160723 30.5497546,2.20513755 30.549989,2.48094863 L30.5636323,18.534907 C30.5638669,18.8110493 30.3401996,19.035097 30.0640574,19.0353317 C30.0637746,19.035332 30.0634919,19.035332 30.0632091,19.0353317 L28.2100329,19.0337628 C27.9342219,19.0335293 27.7106908,18.809999 27.7104564,18.5341879 L27.6968131,2.48022956 C27.6965785,2.20408728 27.9202458,1.98003949 28.196388,1.97980482 C28.1966708,1.97980458 28.1969535,1.97980458 28.1972363,1.97980482 Z" id="Rectangle-Copy" transform="translate(29.130223, 10.507568) rotate(-12.000000) translate(-29.130223, -10.507568) "></path>
                                <path d="M14.1882361,-2.87239198 L16.0361888,-2.86854084 C16.311517,-2.86796705 16.5345718,-2.64491229 16.5351457,-2.36958407 L16.592413,25.105856 C16.5929886,25.3819978 16.369598,25.6063215 16.0934562,25.6068971 C16.0927615,25.6068985 16.0920668,25.6068985 16.0913721,25.6068971 L14.2434194,25.6030459 C13.9680912,25.6024721 13.7450364,25.3794174 13.7444625,25.1040892 L13.6871952,-2.37135092 C13.6866196,-2.64749269 13.9100102,-2.87181642 14.1861519,-2.87239198 C14.1868467,-2.87239343 14.1875414,-2.87239343 14.1882361,-2.87239198 Z" id="Rectangle-Copy-2" transform="translate(15.139804, 11.367253) rotate(-44.000000) translate(-15.139804, -11.367253) "></path>
                                <path d="M10.4826244,13.3661928 L12.3252315,13.3681176 C12.6009666,13.3684057 12.824422,13.5918618 12.824709,13.8675969 L12.8474233,35.6907558 C12.8477107,35.966898 12.6240862,36.1909885 12.347944,36.1912759 C12.3475964,36.1912763 12.3472488,36.1912763 12.3469012,36.1912759 L10.5042941,36.1893511 C10.228559,36.1890631 10.0051037,35.9656069 10.0048167,35.6898718 L9.98210236,13.866713 C9.98181494,13.5905708 10.2054394,13.3664803 10.4815817,13.3661928 C10.4819292,13.3661925 10.4822768,13.3661925 10.4826244,13.3661928 Z" id="Rectangle-Copy-4" transform="translate(11.414763, 24.778734) rotate(-75.000000) translate(-11.414763, -24.778734) "></path>
                            </g>
                            <path d="M81.7480984,124.035045 C82.2624533,123.522831 83.0718042,123.48343 83.6315431,123.916842 L83.7659624,124.035045 L87.8009287,128.0521 L91.8374186,124.035045 C92.3946364,123.480147 93.2980649,123.480147 93.8552827,124.035045 C94.4125004,124.589944 94.4125004,125.489612 93.8552827,126.044511 L89.8199149,130.062683 L93.8552827,134.082372 C94.3696375,134.594586 94.4092033,135.400568 93.97398,135.957978 L93.8552827,136.091837 C93.3409278,136.604051 92.5315768,136.643452 91.9718379,136.210041 L91.8374186,136.091837 L87.8009287,132.073265 L83.7659624,136.091837 C83.2087447,136.646736 82.3053162,136.646736 81.7480984,136.091837 C81.1908806,135.536939 81.1908806,134.637271 81.7480984,134.082372 L85.7819426,130.062683 L81.7480984,126.044511 C81.2337435,125.532297 81.1941778,124.726314 81.6294011,124.168905 L81.7480984,124.035045 Z" id="Path"></path>
                            <path d="M301.922294,91.1215374 C302.168006,91.3662268 302.168006,91.7629467 301.922294,92.0076361 L300.141812,93.7798335 L301.922294,95.5520309 C302.137292,95.7661341 302.164167,96.0966357 302.002918,96.3398385 L301.922294,96.4381296 C301.707296,96.6522328 301.375413,96.6789957 301.131194,96.5184183 L301.032492,96.4381296 L299.252887,94.6650583 L297.473283,96.4381296 C297.227571,96.682819 296.829193,96.682819 296.583481,96.4381296 C296.337769,96.1934402 296.337769,95.7967203 296.583481,95.5520309 L298.363963,93.7798335 L296.583481,92.0076361 C296.368483,91.7935329 296.341608,91.4630313 296.502857,91.2198285 L296.583481,91.1215374 C296.798479,90.9074342 297.130362,90.8806713 297.374581,91.0412487 L297.473283,91.1215374 L299.252887,92.8946087 L301.032492,91.1215374 C301.278204,90.876848 301.676582,90.876848 301.922294,91.1215374 Z" id="Path"></path>
                            <path d="M143.605956,13.4114818 C143.822107,13.4114818 143.997333,13.5859782 143.997333,13.8012305 L143.997233,14.8068121 L144.712939,14.0964102 C144.865781,13.9442039 145.113588,13.9442039 145.26643,14.0964102 C145.419273,14.2486165 145.419273,14.4953917 145.26643,14.647598 L144.549422,15.3595447 L145.562844,15.360225 C145.74297,15.360225 145.894676,15.4814031 145.940241,15.646363 L145.954221,15.7499736 C145.954221,15.9344755 145.825484,16.0890344 145.652583,16.1294287 L145.562844,16.1397223 L144.550849,16.1396224 L145.26643,16.8523492 C145.393799,16.9791878 145.415027,17.1716993 145.330114,17.3204288 L145.26643,17.403537 C145.139061,17.5303756 144.945745,17.5515154 144.796394,17.4669563 L144.712939,17.403537 L143.997233,16.6909342 L143.997333,17.6987168 C143.997333,17.913969 143.822107,18.0884654 143.605956,18.0884654 C143.389804,18.0884654 143.214578,17.913969 143.214578,17.6987168 L143.213895,16.6895133 L142.498972,17.403537 C142.34613,17.5557434 142.098323,17.5557434 141.945481,17.403537 C141.792638,17.2513307 141.792638,17.0045555 141.945481,16.8523492 L142.658852,16.1396224 L141.649067,16.1397223 C141.468941,16.1397223 141.317235,16.0185442 141.27167,15.8535843 L141.25769,15.7499736 C141.25769,15.5654717 141.386427,15.4109129 141.559328,15.3705185 L141.649067,15.360225 L142.660279,15.3595447 L141.945481,14.647598 C141.818112,14.5207594 141.796884,14.328248 141.881797,14.1795185 L141.945481,14.0964102 C142.07285,13.9695716 142.266166,13.9484319 142.415517,14.0329909 L142.498972,14.0964102 L143.213895,14.808233 L143.214578,13.8012305 C143.214578,13.5859782 143.389804,13.4114818 143.605956,13.4114818 Z" id="Path"></path>
                            <path d="M10.7013401,67.4059314 C10.8983464,67.4059314 11.0580515,67.5649718 11.0580515,67.7611581 L11.0582298,68.5275595 L11.7023676,67.8866508 C11.8405807,67.749013 12.0646683,67.749013 12.2028814,67.8866508 C12.3410944,68.0242885 12.3410944,68.2474435 12.2028814,68.3850813 L11.4022779,69.181887 L12.4848968,69.1820646 C12.6622024,69.1820646 12.8092941,69.3108873 12.8369394,69.4796717 L12.8416082,69.5372913 C12.8416082,69.7156424 12.7096205,69.8632945 12.537609,69.8886663 L12.4848968,69.8925179 L11.714222,69.8921627 L12.2028814,70.3788033 C12.3272731,70.5026773 12.3397123,70.6958202 12.2401989,70.833548 L12.2028814,70.8772339 C12.0784896,71.0011079 11.8845395,71.0134953 11.746236,70.9143961 L11.7023676,70.8772339 L11.0582298,70.2358445 L11.0580515,71.3134245 C11.0580515,71.5096107 10.8983464,71.6686511 10.7013401,71.6686511 C10.5043339,71.6686511 10.3446288,71.5096107 10.3446288,71.3134245 L10.3444504,70.2353116 L9.70031265,70.8772339 C9.5620996,71.0148716 9.33801196,71.0148716 9.19979891,70.8772339 C9.06158585,70.7395961 9.06158585,70.5164411 9.19979891,70.3788033 L9.68792323,69.8921627 L8.91778345,69.8925179 C8.74047784,69.8925179 8.59338614,69.7636952 8.56574086,69.5949109 L8.56107211,69.5372913 C8.56107211,69.3589401 8.6930598,69.2112881 8.86507126,69.1859162 L8.91778345,69.1820646 L9.99933223,69.181887 L9.19979891,68.3850813 C9.07540716,68.2612073 9.06296799,68.0680644 9.16248138,67.9303366 L9.19979891,67.8866508 C9.32419066,67.7627767 9.51814082,67.7503893 9.65644425,67.8494886 L9.70031265,67.8866508 L10.3444504,68.5280924 L10.3446288,67.7611581 C10.3446288,67.5649718 10.5043339,67.4059314 10.7013401,67.4059314 Z" id="Path"></path>
                            <path d="M175.821848,43.960973 C176.172081,43.960973 176.463369,44.2122961 176.523776,44.5437215 L176.53527,44.6714263 L176.53527,46.8027862 C176.53527,47.1951587 176.21586,47.5132395 175.821848,47.5132395 C175.471614,47.5132395 175.180326,47.2619164 175.119919,46.9304911 L175.108425,46.8027862 L175.108425,44.6714263 C175.108425,44.2790538 175.427835,43.960973 175.821848,43.960973 Z M178.245372,43.254505 L178.344178,43.3367122 L179.857576,44.8438112 C180.136185,45.1212605 180.136185,45.5710946 179.857576,45.8485439 C179.609923,46.0951654 179.225497,46.1225678 178.94745,45.9307511 L178.848644,45.8485439 L177.335246,44.3414449 C177.056637,44.0639956 177.056637,43.6141615 177.335246,43.3367122 C177.551942,43.1209183 177.873355,43.0729641 178.136593,43.1928496 L178.245372,43.254505 Z M174.30845,43.3367122 C174.556102,43.5833338 174.583619,43.9661607 174.391,44.2430501 L174.30845,44.3414449 L172.795052,45.8485439 C172.516443,46.1259931 172.064729,46.1259931 171.78612,45.8485439 C171.538467,45.6019223 171.51095,45.2190954 171.703569,44.942206 L171.78612,44.8438112 L173.299518,43.3367122 C173.578127,43.0592629 174.029841,43.0592629 174.30845,43.3367122 Z M180.815806,41.1191599 C181.209819,41.1191599 181.529229,41.4372407 181.529229,41.8296132 C181.529229,42.1783888 181.276856,42.4684647 180.944045,42.5286201 L180.815806,42.5400665 L178.675538,42.5400665 C178.281526,42.5400665 177.962116,42.2219857 177.962116,41.8296132 C177.962116,41.4808376 178.214489,41.1907617 178.5473,41.1306063 L178.675538,41.1191599 L180.815806,41.1191599 Z M172.968157,41.1191599 C173.362169,41.1191599 173.68158,41.4372407 173.68158,41.8296132 C173.68158,42.1783888 173.429206,42.4684647 173.096396,42.5286201 L172.968157,42.5400665 L170.827889,42.5400665 C170.433877,42.5400665 170.114466,42.2219857 170.114466,41.8296132 C170.114466,41.4808376 170.36684,41.1907617 170.69965,41.1306063 L170.827889,41.1191599 L172.968157,41.1191599 Z M172.696246,37.7284753 L172.795052,37.8106825 L174.30845,39.3177815 C174.587059,39.5952308 174.587059,40.0450649 174.30845,40.3225142 C174.060797,40.5691358 173.67637,40.5965382 173.398324,40.4047214 L173.299518,40.3225142 L171.78612,38.8154152 C171.507511,38.5379659 171.507511,38.0881318 171.78612,37.8106825 C172.002815,37.5948886 172.324229,37.5469345 172.587466,37.6668199 L172.696246,37.7284753 Z M179.857576,37.8106825 C180.105228,38.0573041 180.132745,38.440131 179.940127,38.7170204 L179.857576,38.8154152 L178.344178,40.3225142 C178.065569,40.5999635 177.613855,40.5999635 177.335246,40.3225142 C177.087593,40.0758926 177.060076,39.6930657 177.252695,39.4161763 L177.335246,39.3177815 L178.848644,37.8106825 C179.127253,37.5332333 179.578967,37.5332333 179.857576,37.8106825 Z M175.821848,36.1459869 C176.172081,36.1459869 176.463369,36.39731 176.523776,36.7287353 L176.53527,36.8564402 L176.53527,38.9878001 C176.53527,39.3801726 176.21586,39.6982533 175.821848,39.6982533 C175.471614,39.6982533 175.180326,39.4469303 175.119919,39.1155049 L175.108425,38.9878001 L175.108425,36.8564402 C175.108425,36.4640677 175.427835,36.1459869 175.821848,36.1459869 Z" id="Combined-Shape" fill-rule="nonzero"></path>
                            <path d="M270.733817,7.81498612 C271.08405,7.81498612 271.375339,8.0663092 271.435746,8.39773453 L271.44724,8.52543941 L271.44724,10.6567993 C271.44724,11.0491718 271.12783,11.3672525 270.733817,11.3672525 C270.383584,11.3672525 270.092295,11.1159295 270.031889,10.7845041 L270.020394,10.6567993 L270.020394,8.52543941 C270.020394,8.13306689 270.339805,7.81498612 270.733817,7.81498612 Z M273.157341,7.10851809 L273.256147,7.19072528 L274.769545,8.69782428 C275.048154,8.97527355 275.048154,9.42510769 274.769545,9.70255695 C274.521893,9.94917852 274.137466,9.97658092 273.859419,9.78476414 L273.760613,9.70255695 L272.247215,8.19545795 C271.968606,7.91800868 271.968606,7.46817454 272.247215,7.19072528 C272.463911,6.9749314 272.785325,6.92697721 273.048562,7.04686269 L273.157341,7.10851809 Z M269.220419,7.19072528 C269.468071,7.43734685 269.495588,7.82017375 269.30297,8.09706317 L269.220419,8.19545795 L267.707021,9.70255695 C267.428412,9.98000622 266.976698,9.98000622 266.698089,9.70255695 C266.450437,9.45593538 266.42292,9.07310848 266.615538,8.79621906 L266.698089,8.69782428 L268.211487,7.19072528 C268.490096,6.91327601 268.94181,6.91327601 269.220419,7.19072528 Z M275.727776,4.97317299 C276.121788,4.97317299 276.441199,5.29125376 276.441199,5.68362627 C276.441199,6.03240184 276.188825,6.32247776 275.856014,6.3826332 L275.727776,6.39407956 L273.587508,6.39407956 C273.193495,6.39407956 272.874085,6.07599879 272.874085,5.68362627 C272.874085,5.3348507 273.126459,5.04477479 273.459269,4.98461934 L273.587508,4.97317299 L275.727776,4.97317299 Z M267.880126,4.97317299 C268.274139,4.97317299 268.593549,5.29125376 268.593549,5.68362627 C268.593549,6.03240184 268.341176,6.32247776 268.008365,6.3826332 L267.880126,6.39407956 L265.739858,6.39407956 C265.345846,6.39407956 265.026436,6.07599879 265.026436,5.68362627 C265.026436,5.3348507 265.278809,5.04477479 265.61162,4.98461934 L265.739858,4.97317299 L267.880126,4.97317299 Z M267.608215,1.5824884 L267.707021,1.66469559 L269.220419,3.1717946 C269.499028,3.44924386 269.499028,3.899078 269.220419,4.17652727 C268.972767,4.42314884 268.58834,4.45055123 268.310293,4.25873446 L268.211487,4.17652727 L266.698089,2.66942826 C266.41948,2.391979 266.41948,1.94214486 266.698089,1.66469559 C266.914785,1.44890172 267.236199,1.40094753 267.499436,1.52083301 L267.608215,1.5824884 Z M274.769545,1.66469559 C275.017198,1.91131716 275.044714,2.29414406 274.852096,2.57103348 L274.769545,2.66942826 L273.256147,4.17652727 C272.977538,4.45397653 272.525824,4.45397653 272.247215,4.17652727 C271.999563,3.9299057 271.972046,3.5470788 272.164664,3.27018938 L272.247215,3.1717946 L273.760613,1.66469559 C274.039222,1.38724633 274.490936,1.38724633 274.769545,1.66469559 Z M270.733817,1.23046809e-14 C271.08405,1.23046809e-14 271.375339,0.251323077 271.435746,0.582748408 L271.44724,0.710453284 L271.44724,2.84181314 C271.44724,3.23418565 271.12783,3.55226642 270.733817,3.55226642 C270.383584,3.55226642 270.092295,3.30094334 270.031889,2.96951801 L270.020394,2.84181314 L270.020394,0.710453284 C270.020394,0.31808077 270.339805,1.23046809e-14 270.733817,1.23046809e-14 Z" id="Combined-Shape-Copy-5" fill-rule="nonzero"></path>
                        </g>
                        <g id="DOC-Copy-2" transform="translate(274.904955, 64.906339) rotate(30.000000) translate(-274.904955, -64.906339) translate(249.404955, 30.406339)">
                            <g id="Rectangle">
                                <use fill="black" fill-opacity="1" filter="url(#filter-6)" xlink:href="#path-5"></use>
                                <use fill="#D5D6DA" fill-rule="evenodd" xlink:href="#path-5"></use>
                            </g>
                            <g id="Rectangle">
                                <use fill="black" fill-opacity="1" filter="url(#filter-8)" xlink:href="#path-7"></use>
                                <use fill="#D5D6DA" fill-rule="evenodd" xlink:href="#path-7"></use>
                            </g>
                            <g id="Triangle" transform="translate(7.373021, 7.499348) rotate(139.000000) translate(-7.373021, -7.499348) ">
                                <use fill="black" fill-opacity="1" filter="url(#filter-10)" xlink:href="#path-9"></use>
                                <use fill="#9EA0A5" fill-rule="evenodd" xlink:href="#path-9"></use>
                            </g>
                        </g>
                        <g id="Excel" transform="translate(234.862520, 53.485144) rotate(-17.000000) translate(-234.862520, -53.485144) translate(204.862520, 10.985144)">
                            <g id="Rectangle">
                                <use fill="black" fill-opacity="1" filter="url(#filter-12)" xlink:href="#path-11"></use>
                                <use fill="#D5D6DA" fill-rule="evenodd" xlink:href="#path-11"></use>
                            </g>
                            <mask id="mask-14" fill="white">
                                <use xlink:href="#path-13"></use>
                            </mask>
                            <g id="Rectangle">
                                <use fill="black" fill-opacity="1" filter="url(#filter-15)" xlink:href="#path-13"></use>
                                <use fill="#D5D6DA" fill-rule="evenodd" xlink:href="#path-13"></use>
                            </g>
                            <g id="List" mask="url(#mask-14)">
                                <g transform="translate(-1.545161, 3.404440)">
                                    <path d="M34.684612,4.98828902 L43.041849,4.98828902 C43.5034065,4.98828902 43.8775727,5.36051119 43.8775727,5.81967052 L43.8775727,9.14519653 C43.8775727,9.60435585 43.5034065,9.97657803 43.041849,9.97657803 L34.684612,9.97657803 C34.2230545,9.97657803 33.8488883,9.60435585 33.8488883,9.14519653 L33.8488883,5.81967052 C33.8488883,5.36051119 34.2230545,4.98828902 34.684612,4.98828902 Z" id="Rectangle" fill-opacity="0.786276224" fill="#9EA0A5" opacity="0.176688058"></path>
                                    <path d="M7.94145337,4.98828902 L16.2986904,4.98828902 C16.7602479,4.98828902 17.1344141,5.36051119 17.1344141,5.81967052 L17.1344141,9.14519653 C17.1344141,9.60435585 16.7602479,9.97657803 16.2986904,9.97657803 L7.94145337,9.97657803 C7.47989591,9.97657803 7.10572966,9.60435585 7.10572966,9.14519653 L7.10572966,5.81967052 C7.10572966,5.36051119 7.47989591,4.98828902 7.94145337,4.98828902 Z" id="Rectangle-Copy-8" fill-opacity="0.786276224" fill="#9EA0A5" opacity="0.176688058"></path>
                                    <path d="M48.0561913,4.98828902 L56.4134283,4.98828902 C56.8749858,4.98828902 57.249152,5.36051119 57.249152,5.81967052 L57.249152,9.14519653 C57.249152,9.60435585 56.8749858,9.97657803 56.4134283,9.97657803 L48.0561913,9.97657803 C47.5946338,9.97657803 47.2204676,9.60435585 47.2204676,9.14519653 L47.2204676,5.81967052 C47.2204676,5.36051119 47.5946338,4.98828902 48.0561913,4.98828902 Z" id="Rectangle-Copy-7" fill-opacity="0.786276224" fill="#9EA0A5" opacity="0.176688058"></path>
                                    <path d="M21.3130327,4.98828902 L29.6702697,4.98828902 C30.1318272,4.98828902 30.5059934,5.36051119 30.5059934,5.81967052 L30.5059934,9.14519653 C30.5059934,9.60435585 30.1318272,9.97657803 29.6702697,9.97657803 L21.3130327,9.97657803 C20.8514752,9.97657803 20.477309,9.60435585 20.477309,9.14519653 L20.477309,5.81967052 C20.477309,5.36051119 20.8514752,4.98828902 21.3130327,4.98828902 Z" id="Rectangle-Copy-9" fill-opacity="0.786276224" fill="#9EA0A5" opacity="0.176688058"></path>
                                    <path d="M34.684612,13.302104 L43.041849,13.302104 C43.5034065,13.302104 43.8775727,13.6743262 43.8775727,14.1334855 L43.8775727,17.4590116 C43.8775727,17.9181709 43.5034065,18.2903931 43.041849,18.2903931 L34.684612,18.2903931 C34.2230545,18.2903931 33.8488883,17.9181709 33.8488883,17.4590116 L33.8488883,14.1334855 C33.8488883,13.6743262 34.2230545,13.302104 34.684612,13.302104 Z" id="Rectangle" fill-opacity="0.786276224" fill="#9EA0A5" opacity="0.176688058"></path>
                                    <path d="M7.94145337,13.302104 L16.2986904,13.302104 C16.7602479,13.302104 17.1344141,13.6743262 17.1344141,14.1334855 L17.1344141,17.4590116 C17.1344141,17.9181709 16.7602479,18.2903931 16.2986904,18.2903931 L7.94145337,18.2903931 C7.47989591,18.2903931 7.10572966,17.9181709 7.10572966,17.4590116 L7.10572966,14.1334855 C7.10572966,13.6743262 7.47989591,13.302104 7.94145337,13.302104 Z" id="Rectangle-Copy-8" fill-opacity="0.786276224" fill="#9EA0A5" opacity="0.176688058"></path>
                                    <path d="M48.0561913,13.302104 L56.4134283,13.302104 C56.8749858,13.302104 57.249152,13.6743262 57.249152,14.1334855 L57.249152,17.4590116 C57.249152,17.9181709 56.8749858,18.2903931 56.4134283,18.2903931 L48.0561913,18.2903931 C47.5946338,18.2903931 47.2204676,17.9181709 47.2204676,17.4590116 L47.2204676,14.1334855 C47.2204676,13.6743262 47.5946338,13.302104 48.0561913,13.302104 Z" id="Rectangle-Copy-7" fill-opacity="0.786276224" fill="#9EA0A5" opacity="0.176688058"></path>
                                    <path d="M21.3130327,13.302104 L29.6702697,13.302104 C30.1318272,13.302104 30.5059934,13.6743262 30.5059934,14.1334855 L30.5059934,17.4590116 C30.5059934,17.9181709 30.1318272,18.2903931 29.6702697,18.2903931 L21.3130327,18.2903931 C20.8514752,18.2903931 20.477309,17.9181709 20.477309,17.4590116 L20.477309,14.1334855 C20.477309,13.6743262 20.8514752,13.302104 21.3130327,13.302104 Z" id="Rectangle-Copy-9" fill-opacity="0.786276224" fill="#9EA0A5" opacity="0.176688058"></path>
                                    <path d="M34.684612,21.6159191 L43.041849,21.6159191 C43.5034065,21.6159191 43.8775727,21.9881412 43.8775727,22.4473006 L43.8775727,25.7728266 C43.8775727,26.2319859 43.5034065,26.6042081 43.041849,26.6042081 L34.684612,26.6042081 C34.2230545,26.6042081 33.8488883,26.2319859 33.8488883,25.7728266 L33.8488883,22.4473006 C33.8488883,21.9881412 34.2230545,21.6159191 34.684612,21.6159191 Z" id="Rectangle" fill-opacity="0.786276224" fill="#9EA0A5" opacity="0.176688058"></path>
                                    <path d="M7.94145337,21.6159191 L16.2986904,21.6159191 C16.7602479,21.6159191 17.1344141,21.9881412 17.1344141,22.4473006 L17.1344141,25.7728266 C17.1344141,26.2319859 16.7602479,26.6042081 16.2986904,26.6042081 L7.94145337,26.6042081 C7.47989591,26.6042081 7.10572966,26.2319859 7.10572966,25.7728266 L7.10572966,22.4473006 C7.10572966,21.9881412 7.47989591,21.6159191 7.94145337,21.6159191 Z" id="Rectangle-Copy-8" fill-opacity="0.786276224" fill="#9EA0A5" opacity="0.176688058"></path>
                                    <path d="M48.0561913,21.6159191 L56.4134283,21.6159191 C56.8749858,21.6159191 57.249152,21.9881412 57.249152,22.4473006 L57.249152,25.7728266 C57.249152,26.2319859 56.8749858,26.6042081 56.4134283,26.6042081 L48.0561913,26.6042081 C47.5946338,26.6042081 47.2204676,26.2319859 47.2204676,25.7728266 L47.2204676,22.4473006 C47.2204676,21.9881412 47.5946338,21.6159191 48.0561913,21.6159191 Z" id="Rectangle-Copy-7" fill-opacity="0.786276224" fill="#9EA0A5" opacity="0.176688058"></path>
                                    <path d="M21.3130327,21.6159191 L29.6702697,21.6159191 C30.1318272,21.6159191 30.5059934,21.9881412 30.5059934,22.4473006 L30.5059934,25.7728266 C30.5059934,26.2319859 30.1318272,26.6042081 29.6702697,26.6042081 L21.3130327,26.6042081 C20.8514752,26.6042081 20.477309,26.2319859 20.477309,25.7728266 L20.477309,22.4473006 C20.477309,21.9881412 20.8514752,21.6159191 21.3130327,21.6159191 Z" id="Rectangle-Copy-9" fill-opacity="0.786276224" fill="#9EA0A5" opacity="0.176688058"></path>
                                    <path d="M34.684612,29.9297341 L43.041849,29.9297341 C43.5034065,29.9297341 43.8775727,30.3019563 43.8775727,30.7611156 L43.8775727,34.0866416 C43.8775727,34.5458009 43.5034065,34.9180231 43.041849,34.9180231 L34.684612,34.9180231 C34.2230545,34.9180231 33.8488883,34.5458009 33.8488883,34.0866416 L33.8488883,30.7611156 C33.8488883,30.3019563 34.2230545,29.9297341 34.684612,29.9297341 Z" id="Rectangle" fill-opacity="0.786276224" fill="#9EA0A5" opacity="0.176688058"></path>
                                    <path d="M7.94145337,29.9297341 L16.2986904,29.9297341 C16.7602479,29.9297341 17.1344141,30.3019563 17.1344141,30.7611156 L17.1344141,34.0866416 C17.1344141,34.5458009 16.7602479,34.9180231 16.2986904,34.9180231 L7.94145337,34.9180231 C7.47989591,34.9180231 7.10572966,34.5458009 7.10572966,34.0866416 L7.10572966,30.7611156 C7.10572966,30.3019563 7.47989591,29.9297341 7.94145337,29.9297341 Z" id="Rectangle-Copy-8" fill-opacity="0.786276224" fill="#9EA0A5" opacity="0.176688058"></path>
                                    <path d="M48.0561913,29.9297341 L56.4134283,29.9297341 C56.8749858,29.9297341 57.249152,30.3019563 57.249152,30.7611156 L57.249152,34.0866416 C57.249152,34.5458009 56.8749858,34.9180231 56.4134283,34.9180231 L48.0561913,34.9180231 C47.5946338,34.9180231 47.2204676,34.5458009 47.2204676,34.0866416 L47.2204676,30.7611156 C47.2204676,30.3019563 47.5946338,29.9297341 48.0561913,29.9297341 Z" id="Rectangle-Copy-7" fill-opacity="0.786276224" fill="#9EA0A5" opacity="0.176688058"></path>
                                    <path d="M21.3130327,29.9297341 L29.6702697,29.9297341 C30.1318272,29.9297341 30.5059934,30.3019563 30.5059934,30.7611156 L30.5059934,34.0866416 C30.5059934,34.5458009 30.1318272,34.9180231 29.6702697,34.9180231 L21.3130327,34.9180231 C20.8514752,34.9180231 20.477309,34.5458009 20.477309,34.0866416 L20.477309,30.7611156 C20.477309,30.3019563 20.8514752,29.9297341 21.3130327,29.9297341 Z" id="Rectangle-Copy-9" fill-opacity="0.786276224" fill="#9EA0A5" opacity="0.176688058"></path>
                                    <path d="M34.684612,38.2435491 L43.041849,38.2435491 C43.5034065,38.2435491 43.8775727,38.6157713 43.8775727,39.0749306 L43.8775727,42.4004566 C43.8775727,42.859616 43.5034065,43.2318381 43.041849,43.2318381 L34.684612,43.2318381 C34.2230545,43.2318381 33.8488883,42.859616 33.8488883,42.4004566 L33.8488883,39.0749306 C33.8488883,38.6157713 34.2230545,38.2435491 34.684612,38.2435491 Z" id="Rectangle" fill-opacity="0.786276224" fill="#9EA0A5" opacity="0.176688058"></path>
                                    <path d="M7.94145337,38.2435491 L16.2986904,38.2435491 C16.7602479,38.2435491 17.1344141,38.6157713 17.1344141,39.0749306 L17.1344141,42.4004566 C17.1344141,42.859616 16.7602479,43.2318381 16.2986904,43.2318381 L7.94145337,43.2318381 C7.47989591,43.2318381 7.10572966,42.859616 7.10572966,42.4004566 L7.10572966,39.0749306 C7.10572966,38.6157713 7.47989591,38.2435491 7.94145337,38.2435491 Z" id="Rectangle-Copy-8" fill-opacity="0.786276224" fill="#9EA0A5" opacity="0.176688058"></path>
                                    <path d="M48.0561913,38.2435491 L56.4134283,38.2435491 C56.8749858,38.2435491 57.249152,38.6157713 57.249152,39.0749306 L57.249152,42.4004566 C57.249152,42.859616 56.8749858,43.2318381 56.4134283,43.2318381 L48.0561913,43.2318381 C47.5946338,43.2318381 47.2204676,42.859616 47.2204676,42.4004566 L47.2204676,39.0749306 C47.2204676,38.6157713 47.5946338,38.2435491 48.0561913,38.2435491 Z" id="Rectangle-Copy-7" fill-opacity="0.786276224" fill="#9EA0A5" opacity="0.176688058"></path>
                                    <path d="M21.3130327,38.2435491 L29.6702697,38.2435491 C30.1318272,38.2435491 30.5059934,38.6157713 30.5059934,39.0749306 L30.5059934,42.4004566 C30.5059934,42.859616 30.1318272,43.2318381 29.6702697,43.2318381 L21.3130327,43.2318381 C20.8514752,43.2318381 20.477309,42.859616 20.477309,42.4004566 L20.477309,39.0749306 C20.477309,38.6157713 20.8514752,38.2435491 21.3130327,38.2435491 Z" id="Rectangle-Copy-9" fill-opacity="0.786276224" fill="#9EA0A5" opacity="0.176688058"></path>
                                    <path d="M34.684612,46.5573641 L43.041849,46.5573641 C43.5034065,46.5573641 43.8775727,46.9295863 43.8775727,47.3887456 L43.8775727,50.7142717 C43.8775727,51.173431 43.5034065,51.5456532 43.041849,51.5456532 L34.684612,51.5456532 C34.2230545,51.5456532 33.8488883,51.173431 33.8488883,50.7142717 L33.8488883,47.3887456 C33.8488883,46.9295863 34.2230545,46.5573641 34.684612,46.5573641 Z" id="Rectangle" fill-opacity="0.786276224" fill="#9EA0A5" opacity="0.176688058"></path>
                                    <path d="M7.94145337,46.5573641 L16.2986904,46.5573641 C16.7602479,46.5573641 17.1344141,46.9295863 17.1344141,47.3887456 L17.1344141,50.7142717 C17.1344141,51.173431 16.7602479,51.5456532 16.2986904,51.5456532 L7.94145337,51.5456532 C7.47989591,51.5456532 7.10572966,51.173431 7.10572966,50.7142717 L7.10572966,47.3887456 C7.10572966,46.9295863 7.47989591,46.5573641 7.94145337,46.5573641 Z" id="Rectangle-Copy-8" fill-opacity="0.786276224" fill="#9EA0A5" opacity="0.176688058"></path>
                                    <path d="M48.0561913,46.5573641 L56.4134283,46.5573641 C56.8749858,46.5573641 57.249152,46.9295863 57.249152,47.3887456 L57.249152,50.7142717 C57.249152,51.173431 56.8749858,51.5456532 56.4134283,51.5456532 L48.0561913,51.5456532 C47.5946338,51.5456532 47.2204676,51.173431 47.2204676,50.7142717 L47.2204676,47.3887456 C47.2204676,46.9295863 47.5946338,46.5573641 48.0561913,46.5573641 Z" id="Rectangle-Copy-7" fill-opacity="0.786276224" fill="#9EA0A5" opacity="0.176688058"></path>
                                    <path d="M21.3130327,46.5573641 L29.6702697,46.5573641 C30.1318272,46.5573641 30.5059934,46.9295863 30.5059934,47.3887456 L30.5059934,50.7142717 C30.5059934,51.173431 30.1318272,51.5456532 29.6702697,51.5456532 L21.3130327,51.5456532 C20.8514752,51.5456532 20.477309,51.173431 20.477309,50.7142717 L20.477309,47.3887456 C20.477309,46.9295863 20.8514752,46.5573641 21.3130327,46.5573641 Z" id="Rectangle-Copy-9" fill-opacity="0.786276224" fill="#9EA0A5" opacity="0.176688058"></path>
                                    <path d="M34.684612,54.8711792 L43.041849,54.8711792 C43.5034065,54.8711792 43.8775727,55.2434013 43.8775727,55.7025607 L43.8775727,59.0280867 C43.8775727,59.487246 43.5034065,59.8594682 43.041849,59.8594682 L34.684612,59.8594682 C34.2230545,59.8594682 33.8488883,59.487246 33.8488883,59.0280867 L33.8488883,55.7025607 C33.8488883,55.2434013 34.2230545,54.8711792 34.684612,54.8711792 Z" id="Rectangle" fill-opacity="0.786276224" fill="#9EA0A5" opacity="0.176688058"></path>
                                    <path d="M7.94145337,54.8711792 L16.2986904,54.8711792 C16.7602479,54.8711792 17.1344141,55.2434013 17.1344141,55.7025607 L17.1344141,59.0280867 C17.1344141,59.487246 16.7602479,59.8594682 16.2986904,59.8594682 L7.94145337,59.8594682 C7.47989591,59.8594682 7.10572966,59.487246 7.10572966,59.0280867 L7.10572966,55.7025607 C7.10572966,55.2434013 7.47989591,54.8711792 7.94145337,54.8711792 Z" id="Rectangle-Copy-8" fill-opacity="0.786276224" fill="#9EA0A5" opacity="0.176688058"></path>
                                    <path d="M48.0561913,54.8711792 L56.4134283,54.8711792 C56.8749858,54.8711792 57.249152,55.2434013 57.249152,55.7025607 L57.249152,59.0280867 C57.249152,59.487246 56.8749858,59.8594682 56.4134283,59.8594682 L48.0561913,59.8594682 C47.5946338,59.8594682 47.2204676,59.487246 47.2204676,59.0280867 L47.2204676,55.7025607 C47.2204676,55.2434013 47.5946338,54.8711792 48.0561913,54.8711792 Z" id="Rectangle-Copy-7" fill-opacity="0.786276224" fill="#9EA0A5" opacity="0.176688058"></path>
                                    <path d="M21.3130327,54.8711792 L29.6702697,54.8711792 C30.1318272,54.8711792 30.5059934,55.2434013 30.5059934,55.7025607 L30.5059934,59.0280867 C30.5059934,59.487246 30.1318272,59.8594682 29.6702697,59.8594682 L21.3130327,59.8594682 C20.8514752,59.8594682 20.477309,59.487246 20.477309,59.0280867 L20.477309,55.7025607 C20.477309,55.2434013 20.8514752,54.8711792 21.3130327,54.8711792 Z" id="Rectangle-Copy-9" fill-opacity="0.786276224" fill="#9EA0A5" opacity="0.176688058"></path>
                                    <path d="M34.684612,63.1849942 L43.041849,63.1849942 C43.5034065,63.1849942 43.8775727,63.5572164 43.8775727,64.0163757 L43.8775727,67.3419017 C43.8775727,67.801061 43.5034065,68.1732832 43.041849,68.1732832 L34.684612,68.1732832 C34.2230545,68.1732832 33.8488883,67.801061 33.8488883,67.3419017 L33.8488883,64.0163757 C33.8488883,63.5572164 34.2230545,63.1849942 34.684612,63.1849942 Z" id="Rectangle" fill-opacity="0.786276224" fill="#9EA0A5" opacity="0.176688058"></path>
                                    <path d="M7.94145337,63.1849942 L16.2986904,63.1849942 C16.7602479,63.1849942 17.1344141,63.5572164 17.1344141,64.0163757 L17.1344141,67.3419017 C17.1344141,67.801061 16.7602479,68.1732832 16.2986904,68.1732832 L7.94145337,68.1732832 C7.47989591,68.1732832 7.10572966,67.801061 7.10572966,67.3419017 L7.10572966,64.0163757 C7.10572966,63.5572164 7.47989591,63.1849942 7.94145337,63.1849942 Z" id="Rectangle-Copy-8" fill-opacity="0.786276224" fill="#9EA0A5" opacity="0.176688058"></path>
                                    <path d="M48.0561913,63.1849942 L56.4134283,63.1849942 C56.8749858,63.1849942 57.249152,63.5572164 57.249152,64.0163757 L57.249152,67.3419017 C57.249152,67.801061 56.8749858,68.1732832 56.4134283,68.1732832 L48.0561913,68.1732832 C47.5946338,68.1732832 47.2204676,67.801061 47.2204676,67.3419017 L47.2204676,64.0163757 C47.2204676,63.5572164 47.5946338,63.1849942 48.0561913,63.1849942 Z" id="Rectangle-Copy-7" fill-opacity="0.786276224" fill="#9EA0A5" opacity="0.176688058"></path>
                                    <path d="M21.3130327,63.1849942 L29.6702697,63.1849942 C30.1318272,63.1849942 30.5059934,63.5572164 30.5059934,64.0163757 L30.5059934,67.3419017 C30.5059934,67.801061 30.1318272,68.1732832 29.6702697,68.1732832 L21.3130327,68.1732832 C20.8514752,68.1732832 20.477309,67.801061 20.477309,67.3419017 L20.477309,64.0163757 C20.477309,63.5572164 20.8514752,63.1849942 21.3130327,63.1849942 Z" id="Rectangle-Copy-9" fill-opacity="0.786276224" fill="#9EA0A5" opacity="0.176688058"></path>
                                    <path d="M34.684612,71.4988092 L43.041849,71.4988092 C43.5034065,71.4988092 43.8775727,71.8710314 43.8775727,72.3301907 L43.8775727,75.6557167 C43.8775727,76.1148761 43.5034065,76.4870982 43.041849,76.4870982 L34.684612,76.4870982 C34.2230545,76.4870982 33.8488883,76.1148761 33.8488883,75.6557167 L33.8488883,72.3301907 C33.8488883,71.8710314 34.2230545,71.4988092 34.684612,71.4988092 Z" id="Rectangle" fill-opacity="0.786276224" fill="#9EA0A5" opacity="0.176688058"></path>
                                    <path d="M7.94145337,71.4988092 L16.2986904,71.4988092 C16.7602479,71.4988092 17.1344141,71.8710314 17.1344141,72.3301907 L17.1344141,75.6557167 C17.1344141,76.1148761 16.7602479,76.4870982 16.2986904,76.4870982 L7.94145337,76.4870982 C7.47989591,76.4870982 7.10572966,76.1148761 7.10572966,75.6557167 L7.10572966,72.3301907 C7.10572966,71.8710314 7.47989591,71.4988092 7.94145337,71.4988092 Z" id="Rectangle-Copy-8" fill-opacity="0.786276224" fill="#9EA0A5" opacity="0.176688058"></path>
                                    <path d="M48.0561913,71.4988092 L56.4134283,71.4988092 C56.8749858,71.4988092 57.249152,71.8710314 57.249152,72.3301907 L57.249152,75.6557167 C57.249152,76.1148761 56.8749858,76.4870982 56.4134283,76.4870982 L48.0561913,76.4870982 C47.5946338,76.4870982 47.2204676,76.1148761 47.2204676,75.6557167 L47.2204676,72.3301907 C47.2204676,71.8710314 47.5946338,71.4988092 48.0561913,71.4988092 Z" id="Rectangle-Copy-7" fill-opacity="0.786276224" fill="#9EA0A5" opacity="0.176688058"></path>
                                    <path d="M21.3130327,71.4988092 L29.6702697,71.4988092 C30.1318272,71.4988092 30.5059934,71.8710314 30.5059934,72.3301907 L30.5059934,75.6557167 C30.5059934,76.1148761 30.1318272,76.4870982 29.6702697,76.4870982 L21.3130327,76.4870982 C20.8514752,76.4870982 20.477309,76.1148761 20.477309,75.6557167 L20.477309,72.3301907 C20.477309,71.8710314 20.8514752,71.4988092 21.3130327,71.4988092 Z" id="Rectangle-Copy-9" fill-opacity="0.786276224" fill="#9EA0A5" opacity="0.176688058"></path>
                                    <polygon id="Rectangle" fill="url(#linearGradient-16)" points="1.02773907 -1.96874894e-13 61.6556952 -1.96874894e-13 61.6556952 80.9916744 1.02773907 80.9916744"></polygon>
                                </g>
                            </g>
                            <polygon id="X" fill="#9EA0A5" fill-rule="nonzero" mask="url(#mask-14)" points="12.3843571 77.8841191 18.0666695 70.3597288 23.7489819 77.8841191 29.6652719 77.8841191 21.4092062 67.8561342 29.0803279 57.9914271 23.4982917 57.9914271 18.3340725 65.1484422 13.0695772 57.9914271 7.35383942 57.9914271 14.9413977 67.6248238 6.83574623 77.8841191"></polygon>
                        </g>
                        <g id="Trend" transform="translate(117.861383, 89.517114)">
                            <g id="base">
                                <g id="Path">
                                    <use fill="black" fill-opacity="1" filter="url(#filter-18)" xlink:href="#path-17"></use>
                                    <use fill="#D5D6DA" fill-rule="evenodd" xlink:href="#path-17"></use>
                                </g>
                                <g id="Path">
                                    <use fill="black" fill-opacity="1" filter="url(#filter-20)" xlink:href="#path-19"></use>
                                    <use fill="#D5D6DA" fill-rule="evenodd" xlink:href="#path-19"></use>
                                </g>
                                <path d="M7.13422676,-1.00961484e-14 L95.5986386,-1.00961484e-14 C99.5387632,-1.00961484e-14 102.732865,3.1808077 102.732865,7.10453284 L102.732865,16.8732655 L0,16.8732655 L0,7.10453284 C0,3.1808077 3.19410212,-1.00961484e-14 7.13422676,-1.00961484e-14 Z" id="Path-Copy" fill="#9EA0A5"></path>
                            </g>
                            <g id="lines" transform="translate(11.414763, 29.839038)" fill="#9EA0A5" fill-opacity="0.387155813" fill-rule="nonzero">
                                <path d="M78.8332057,38.0092507 C79.0302119,38.0092507 79.189917,38.2478113 79.189917,38.5420907 C79.189917,38.7943301 79.0725827,39.0056333 78.9149963,39.0608579 L78.8332057,39.0749306 L5.55111512e-17,39.0749306 C-0.197006232,39.0749306 -0.356711338,38.83637 -0.356711338,38.5420907 C-0.356711338,38.2898512 -0.239376974,38.078548 -0.081790637,38.0233234 L5.55111512e-17,38.0092507 L78.8332057,38.0092507 Z" id="Line"></path>
                                <path d="M78.8332057,28.5957447 C79.0302119,28.5957447 79.189917,28.8343053 79.189917,29.1285846 C79.189917,29.3808241 79.0725827,29.5921273 78.9149963,29.6473519 L78.8332057,29.6614246 L5.55111512e-17,29.6614246 C-0.197006232,29.6614246 -0.356711338,29.422864 -0.356711338,29.1285846 C-0.356711338,28.8763452 -0.239376974,28.665042 -0.081790637,28.6098174 L5.55111512e-17,28.5957447 L78.8332057,28.5957447 Z" id="Line-Copy"></path>
                                <path d="M78.8332057,19.1822387 C79.0302119,19.1822387 79.189917,19.4207992 79.189917,19.7150786 C79.189917,19.9673181 79.0725827,20.1786213 78.9149963,20.2338459 L78.8332057,20.2479186 L5.55111512e-17,20.2479186 C-0.197006232,20.2479186 -0.356711338,20.009358 -0.356711338,19.7150786 C-0.356711338,19.4628392 -0.239376974,19.251536 -0.081790637,19.1963114 L5.55111512e-17,19.1822387 L78.8332057,19.1822387 Z" id="Line-Copy-2"></path>
                                <path d="M78.8332057,9.76873265 C79.0302119,9.76873265 79.189917,10.0072932 79.189917,10.3015726 C79.189917,10.5538121 79.0725827,10.7651153 78.9149963,10.8203399 L78.8332057,10.8344126 L5.55111512e-17,10.8344126 C-0.197006232,10.8344126 -0.356711338,10.595852 -0.356711338,10.3015726 C-0.356711338,10.0493331 -0.239376974,9.83802994 -0.081790637,9.78280534 L5.55111512e-17,9.76873265 L78.8332057,9.76873265 Z" id="Line-Copy-3"></path>
                                <path d="M78.8332057,0.355226642 C79.0302119,0.355226642 79.189917,0.593787219 79.189917,0.888066605 C79.189917,1.14030608 79.0725827,1.35160928 78.9149963,1.40683388 L78.8332057,1.42090657 L5.55111512e-17,1.42090657 C-0.197006232,1.42090657 -0.356711338,1.18234599 -0.356711338,0.888066605 C-0.356711338,0.635827132 -0.239376974,0.424523925 -0.081790637,0.369299325 L5.55111512e-17,0.355226642 L78.8332057,0.355226642 Z" id="Line-Copy-4"></path>
                            </g>
                            <g id="Group" transform="translate(32.817443, 73.887142)">
                                <path d="M5.70738141,0 L14.2684535,0 C15.0564784,0 15.6952989,0.63616154 15.6952989,1.42090657 C15.6952989,2.2056516 15.0564784,2.84181314 14.2684535,2.84181314 L5.70738141,2.84181314 C4.91935648,2.84181314 4.28053606,2.2056516 4.28053606,1.42090657 C4.28053606,0.63616154 4.91935648,0 5.70738141,0 Z" id="Rectangle-Copy-2" fill-opacity="0.35" fill="#67696F"></path>
                                <path d="M27.1100617,0 L35.6711338,0 C36.4591587,0 37.0979791,0.63616154 37.0979791,1.42090657 C37.0979791,2.2056516 36.4591587,2.84181314 35.6711338,2.84181314 L27.1100617,2.84181314 C26.3220368,2.84181314 25.6832163,2.2056516 25.6832163,1.42090657 C25.6832163,0.63616154 26.3220368,0 27.1100617,0 Z" id="Rectangle-Copy-5" fill-opacity="0.35" fill="#67696F"></path>
                                <path d="M1.42684535,0 C2.21487028,0 2.8536907,0.63616154 2.8536907,1.42090657 C2.8536907,2.2056516 2.21487028,2.84181314 1.42684535,2.84181314 C0.638820424,2.84181314 0,2.2056516 0,1.42090657 C0,0.63616154 0.638820424,0 1.42684535,0 Z" id="Rectangle-Copy-4" fill="#DFE0E1" opacity="0.647623698"></path>
                                <path d="M22.8295256,0 C23.6175506,0 24.256371,0.63616154 24.256371,1.42090657 C24.256371,2.2056516 23.6175506,2.84181314 22.8295256,2.84181314 C22.0415007,2.84181314 21.4026803,2.2056516 21.4026803,1.42090657 C21.4026803,0.63616154 22.0415007,0 22.8295256,0 Z" id="Rectangle-Copy-6" fill="#ACAEB2" opacity="0.647623698"></path>
                            </g>
                        </g>
                    </g>
                </g>
            </g>
        </g>
    </g>
</svg>
