<?xml version="1.0" encoding="UTF-8"?>
<svg width="169px" height="107px" viewBox="0 0 169 107" version="1.1" xmlns="http://www.w3.org/2000/svg" xmlns:xlink="http://www.w3.org/1999/xlink">
    <defs>
        <path d="M3.98887146,0 L42.497562,0 C44.2127041,0 45.6031015,1.38681513 45.6031015,3.09753829 C45.6031015,5.042104 45.6031015,6.46180905 45.6031015,7.35665344 C45.6031015,13.2075591 45.6031015,21.9064791 45.6031015,33.4534136 C45.6031015,35.1641367 44.2127041,36.5509518 42.497562,36.5509518 L3.98887146,36.5509518 C2.27372933,36.5509518 0.883331907,35.1641367 0.883331907,33.4534136 C0.883331907,21.8032279 0.883331907,13.1043078 0.883331907,7.35665344 C0.883331907,6.35855777 0.883331907,4.93885272 0.883331907,3.09753829 C0.883331907,1.38681513 2.27372933,0 3.98887146,0 Z" id="path-1"></path>
        <filter x="-34.7%" y="-31.5%" width="169.3%" height="184.8%" filterUnits="objectBoundingBox" id="filter-2">
            <feOffset dx="0" dy="4" in="SourceAlpha" result="shadowOffsetOuter1"></feOffset>
            <feGaussianBlur stdDeviation="4.5" in="shadowOffsetOuter1" result="shadowBlurOuter1"></feGaussianBlur>
            <feColorMatrix values="0 0 0 0 0   0 0 0 0 0   0 0 0 0 0  0 0 0 0.07 0" type="matrix" in="shadowBlurOuter1"></feColorMatrix>
        </filter>
        <path d="M3.10553956,0 L41.61423,0 C43.3293722,0 44.7197696,1.38681513 44.7197696,3.09753829 C44.7197696,5.042104 44.7197696,6.46180905 44.7197696,7.35665344 C44.7197696,13.2075591 44.7197696,21.9064791 44.7197696,33.4534136 C44.7197696,35.1641367 43.3293722,36.5509518 41.61423,36.5509518 L3.10553956,36.5509518 C1.39039742,36.5509518 0,35.1641367 0,33.4534136 C0,21.8032279 0,13.1043078 0,7.35665344 C0,6.35855777 0,4.93885272 0,3.09753829 C0,1.38681513 1.39039742,0 3.10553956,0 Z" id="path-3"></path>
        <filter x="-34.7%" y="-31.5%" width="169.3%" height="184.8%" filterUnits="objectBoundingBox" id="filter-4">
            <feOffset dx="0" dy="4" in="SourceAlpha" result="shadowOffsetOuter1"></feOffset>
            <feGaussianBlur stdDeviation="4.5" in="shadowOffsetOuter1" result="shadowBlurOuter1"></feGaussianBlur>
            <feColorMatrix values="0 0 0 0 0   0 0 0 0 0   0 0 0 0 0  0 0 0 0.07 0" type="matrix" in="shadowBlurOuter1"></feColorMatrix>
        </filter>
        <path d="M5.35680283,0.318982276 L24.065647,0.318982276 C24.8605844,0.318982276 25.5050085,0.96072418 25.5050085,1.75235294 L25.5050085,32.5698221 C25.5050085,33.3614509 24.8605844,34.0031928 24.065647,34.0031928 L2.47522388,34.0031928 C1.68028645,34.0031928 1.03586234,33.3614509 1.03586234,32.5698221 L1.03586234,4.13783173 L5.35680283,0.318982276 Z" id="path-5"></path>
        <filter x="-49.0%" y="-26.7%" width="198.1%" height="171.3%" filterUnits="objectBoundingBox" id="filter-6">
            <feOffset dx="0" dy="3" in="SourceAlpha" result="shadowOffsetOuter1"></feOffset>
            <feGaussianBlur stdDeviation="3.5" in="shadowOffsetOuter1" result="shadowBlurOuter1"></feGaussianBlur>
            <feColorMatrix values="0 0 0 0 0   0 0 0 0 0   0 0 0 0 0  0 0 0 0.05 0" type="matrix" in="shadowBlurOuter1"></feColorMatrix>
        </filter>
        <path d="M4.50678464,0.802369335 L23.2156288,0.802369335 C24.0105662,0.802369335 24.6549903,1.44411124 24.6549903,2.23574 L24.6549903,33.0532092 C24.6549903,33.844838 24.0105662,34.4865799 23.2156288,34.4865799 L1.62520568,34.4865799 C0.830268255,34.4865799 0.185844144,33.844838 0.185844144,33.0532092 L0.185844144,4.62121878 L4.50678464,0.802369335 Z" id="path-7"></path>
        <filter x="-63.3%" y="-34.1%" width="226.7%" height="192.0%" filterUnits="objectBoundingBox" id="filter-8">
            <feOffset dx="0" dy="4" in="SourceAlpha" result="shadowOffsetOuter1"></feOffset>
            <feGaussianBlur stdDeviation="4.5" in="shadowOffsetOuter1" result="shadowBlurOuter1"></feGaussianBlur>
            <feColorMatrix values="0 0 0 0 0   0 0 0 0 0   0 0 0 0 0  0 0 0 0.07 0" type="matrix" in="shadowBlurOuter1"></feColorMatrix>
        </filter>
        <path d="M4.83272247,3.38760692 L7.16844141,5.41801642 L7.16844141,5.41801642 L0.269255288,5.44142811 L2.06134275,3.52934359 C2.79677802,2.74466404 4.02107205,2.68204997 4.83272247,3.38760692 Z" id="path-9"></path>
        <filter x="-29.0%" y="-67.1%" width="158.0%" height="197.3%" filterUnits="objectBoundingBox" id="filter-10">
            <feOffset dx="0" dy="-1" in="SourceAlpha" result="shadowOffsetOuter1"></feOffset>
            <feGaussianBlur stdDeviation="0.5" in="shadowOffsetOuter1" result="shadowBlurOuter1"></feGaussianBlur>
            <feColorMatrix values="0 0 0 0 0   0 0 0 0 0   0 0 0 0 0  0 0 0 0.17 0" type="matrix" in="shadowBlurOuter1"></feColorMatrix>
        </filter>
        <path d="M1.996792,0.468909771 L29.7586519,0.468909771 C30.2232717,0.468909771 30.5999204,0.848716204 30.5999204,1.31723118 L30.5999204,41.1883375 C30.5999204,41.6568525 30.2232717,42.0366589 29.7586519,42.0366589 L1.996792,42.0366589 C1.53217225,42.0366589 1.15552352,41.6568525 1.15552352,41.1883375 L1.15552352,1.31723118 C1.15552352,0.848716204 1.53217225,0.468909771 1.996792,0.468909771 Z" id="path-11"></path>
        <filter x="-25.5%" y="-10.8%" width="150.9%" height="136.1%" filterUnits="objectBoundingBox" id="filter-12">
            <feOffset dx="0" dy="3" in="SourceAlpha" result="shadowOffsetOuter1"></feOffset>
            <feGaussianBlur stdDeviation="2" in="shadowOffsetOuter1" result="shadowBlurOuter1"></feGaussianBlur>
            <feColorMatrix values="0 0 0 0 0   0 0 0 0 0   0 0 0 0 0  0 0 0 0.07 0" type="matrix" in="shadowBlurOuter1"></feColorMatrix>
        </filter>
        <path d="M1.16216283,1.48919471 L28.9240228,1.48919471 C29.3886425,1.48919471 29.7652913,1.86900114 29.7652913,2.33751612 L29.7652913,42.2086225 C29.7652913,42.6771374 29.3886425,43.0569439 28.9240228,43.0569439 L1.16216283,43.0569439 C0.697543081,43.0569439 0.320894352,42.6771374 0.320894352,42.2086225 L0.320894352,2.33751612 C0.320894352,1.86900114 0.697543081,1.48919471 1.16216283,1.48919471 Z" id="path-13"></path>
        <filter x="-52.6%" y="-27.7%" width="205.3%" height="174.6%" filterUnits="objectBoundingBox" id="filter-14">
            <feOffset dx="0" dy="4" in="SourceAlpha" result="shadowOffsetOuter1"></feOffset>
            <feGaussianBlur stdDeviation="4.5" in="shadowOffsetOuter1" result="shadowBlurOuter1"></feGaussianBlur>
            <feColorMatrix values="0 0 0 0 0   0 0 0 0 0   0 0 0 0 0  0 0 0 0.07 0" type="matrix" in="shadowBlurOuter1"></feColorMatrix>
        </filter>
        <linearGradient x1="50%" y1="1.00031672%" x2="50%" y2="99.3243243%" id="linearGradient-15">
            <stop stop-color="#FFFFFF" stop-opacity="0" offset="0%"></stop>
            <stop stop-color="#FFFFFF" offset="100%"></stop>
        </linearGradient>
        <path d="M4.66801414,0 L49.1936875,0 C51.1768206,0 52.7844676,1.60435476 52.7844676,3.58342665 C52.7844676,5.83302227 52.7844676,7.47542615 52.7844676,8.5106383 C52.7844676,15.2793331 52.7844676,25.3427896 52.7844676,38.7010078 C52.7844676,40.6800797 51.1768206,42.2844345 49.1936875,42.2844345 L4.66801414,42.2844345 C2.68488105,42.2844345 1.07723403,40.6800797 1.07723403,38.7010078 C1.07723403,25.223342 1.07723403,15.1598855 1.07723403,8.5106383 C1.07723403,7.3559786 1.07723403,5.71357472 1.07723403,3.58342665 C1.07723403,1.60435476 2.68488105,0 4.66801414,0 Z" id="path-16"></path>
        <filter x="-30.0%" y="-27.2%" width="160.0%" height="173.3%" filterUnits="objectBoundingBox" id="filter-17">
            <feOffset dx="0" dy="4" in="SourceAlpha" result="shadowOffsetOuter1"></feOffset>
            <feGaussianBlur stdDeviation="4.5" in="shadowOffsetOuter1" result="shadowBlurOuter1"></feGaussianBlur>
            <feColorMatrix values="0 0 0 0 0   0 0 0 0 0   0 0 0 0 0  0 0 0 0.07 0" type="matrix" in="shadowBlurOuter1"></feColorMatrix>
        </filter>
        <path d="M3.59078011,0 L48.1164535,0 C50.0995866,0 51.7072336,1.60435476 51.7072336,3.58342665 C51.7072336,5.83302227 51.7072336,7.47542615 51.7072336,8.5106383 C51.7072336,15.2793331 51.7072336,25.3427896 51.7072336,38.7010078 C51.7072336,40.6800797 50.0995866,42.2844345 48.1164535,42.2844345 L3.59078011,42.2844345 C1.60764702,42.2844345 0,40.6800797 0,38.7010078 C0,25.223342 0,15.1598855 0,8.5106383 C0,7.3559786 0,5.71357472 0,3.58342665 C0,1.60435476 1.60764702,0 3.59078011,0 Z" id="path-18"></path>
        <filter x="-30.0%" y="-27.2%" width="160.0%" height="173.3%" filterUnits="objectBoundingBox" id="filter-19">
            <feOffset dx="0" dy="4" in="SourceAlpha" result="shadowOffsetOuter1"></feOffset>
            <feGaussianBlur stdDeviation="4.5" in="shadowOffsetOuter1" result="shadowBlurOuter1"></feGaussianBlur>
            <feColorMatrix values="0 0 0 0 0   0 0 0 0 0   0 0 0 0 0  0 0 0 0.07 0" type="matrix" in="shadowBlurOuter1"></feColorMatrix>
        </filter>
    </defs>
    <g id="In-App-generic-empty-states" stroke="none" stroke-width="1" fill="none" fill-rule="evenodd">
        <g id="Generic-Empty-State_No-data" transform="translate(-90.000000, -344.000000)">
            <g id="Bright" transform="translate(88.000000, 70.000000)">
                <g id="No-data_S" transform="translate(2.000000, 242.000000)">
                    <g id="No-data-_S-drawing" transform="translate(0.000000, 37.000000)">
                        <path d="M37.1191535,1.44684706 C69.3135542,2.48104971 103.149392,-0.277292329 133.918822,7.8322742 C157.812072,14.1295604 147.320036,73.2398825 141.476786,88.8919897 C135.633536,104.544097 112.721358,92.1475611 83.2356763,92.1475611 C53.7499947,92.1475611 37.1191535,106.061784 23.5340601,88.8919897 C3.87693912,59.1607441 4.92475283,0.412644419 37.1191535,1.44684706 Z" id="Rectangle" fill="#CCCED3" opacity="0.08"></path>
                        <path d="M52.0952828,0.506978203 C77.5153611,-2.93913798 124.290248,11.6214521 152.725346,30.8659751 C174.805928,45.8098404 139.58514,83.0729855 126.935959,93.7504528 C114.286779,104.42792 93.9529956,102.166419 61.5933921,94.8296602 C29.2337886,87.4929013 7.98341968,87.7183165 1.15902564,67.892998 C-6.65488476,35.1323359 26.6752046,3.95309439 52.0952828,0.506978203 Z" id="Rectangle-Copy" fill="#F1F2F5" opacity="0.22"></path>
                        <g id="Decorations" transform="translate(0.783763, 0.716685)" fill="#CCCED3">
                            <path d="M71.4565242,37.581187 C71.5666983,37.581187 71.6583298,37.6604144 71.6773322,37.7648933 L71.680948,37.8051512 L71.680948,38.4770437 C71.680948,38.6007357 71.58047,38.7010078 71.4565242,38.7010078 C71.3463501,38.7010078 71.2547186,38.6217804 71.2357162,38.5173015 L71.2321005,38.4770437 L71.2321005,37.8051512 C71.2321005,37.6814592 71.3325784,37.581187 71.4565242,37.581187 Z M72.2189003,37.3584792 L72.249982,37.3843943 L72.7260567,37.859494 C72.8136996,37.9469574 72.8136996,38.0887637 72.7260567,38.1762272 C72.6481519,38.2539724 72.5272214,38.2626108 72.4397553,38.2021423 L72.4086736,38.1762272 L71.9325989,37.7011274 C71.844956,37.613664 71.844956,37.4718577 71.9325989,37.3843943 C72.0007656,37.3163671 72.1018738,37.30125 72.1846812,37.3390428 L72.2189003,37.3584792 Z M70.9804495,37.3843943 C71.0583544,37.4621395 71.0670104,37.5828224 71.0064178,37.6701093 L70.9804495,37.7011274 L70.5043748,38.1762272 C70.4167319,38.2636906 70.2746347,38.2636906 70.1869917,38.1762272 C70.1090869,38.0984819 70.1004308,37.977799 70.1610235,37.8905121 L70.1869917,37.859494 L70.6630664,37.3843943 C70.7507093,37.2969308 70.8928066,37.2969308 70.9804495,37.3843943 Z M73.0274905,36.6853303 C73.1514363,36.6853303 73.2519143,36.7856025 73.2519143,36.9092945 C73.2519143,37.019243 73.1725243,37.1106868 73.067831,37.1296503 L73.0274905,37.1332587 L72.3542192,37.1332587 C72.2302734,37.1332587 72.1297955,37.0329865 72.1297955,36.9092945 C72.1297955,36.7993461 72.2091855,36.7079022 72.3138788,36.6889387 L72.3542192,36.6853303 L73.0274905,36.6853303 Z M70.5588292,36.6853303 C70.682775,36.6853303 70.7832529,36.7856025 70.7832529,36.9092945 C70.7832529,37.019243 70.703863,37.1106868 70.5991696,37.1296503 L70.5588292,37.1332587 L69.8855579,37.1332587 C69.7616121,37.1332587 69.6611342,37.0329865 69.6611342,36.9092945 C69.6611342,36.7993461 69.7405241,36.7079022 69.8452175,36.6889387 L69.8855579,36.6853303 L70.5588292,36.6853303 Z M70.4732931,35.6164468 L70.5043748,35.6423619 L70.9804495,36.1174616 C71.0680925,36.2049251 71.0680925,36.3467313 70.9804495,36.4341948 C70.9025447,36.5119401 70.7816142,36.5205784 70.6941481,36.4601099 L70.6630664,36.4341948 L70.1869917,35.959095 C70.0993488,35.8716316 70.0993488,35.7298253 70.1869917,35.6423619 C70.2551584,35.5743347 70.3562667,35.5592176 70.4390741,35.5970105 L70.4732931,35.6164468 Z M72.7260567,35.6423619 C72.8039615,35.7201072 72.8126176,35.84079 72.752025,35.9280769 L72.7260567,35.959095 L72.249982,36.4341948 C72.1623391,36.5216582 72.0202418,36.5216582 71.9325989,36.4341948 C71.8546941,36.3564495 71.846038,36.2357667 71.9066306,36.1484797 L71.9325989,36.1174616 L72.4086736,35.6423619 C72.4963165,35.5548984 72.6384138,35.5548984 72.7260567,35.6423619 Z M71.4565242,35.1175812 C71.5666983,35.1175812 71.6583298,35.1968086 71.6773322,35.3012875 L71.680948,35.3415454 L71.680948,36.0134378 C71.680948,36.1371298 71.58047,36.237402 71.4565242,36.237402 C71.3463501,36.237402 71.2547186,36.1581746 71.2357162,36.0536957 L71.2321005,36.0134378 L71.2321005,35.3415454 C71.2321005,35.2178534 71.3325784,35.1175812 71.4565242,35.1175812 Z" id="Combined-Shape-Copy-5" fill-rule="nonzero"></path>
                            <ellipse id="Oval" cx="143.437695" cy="58.4098544" rx="1.79539006" ry="1.79171333"></ellipse>
                            <ellipse id="Oval-Copy-2" cx="86.5378007" cy="52.990767" rx="1.07723403" ry="1.075028"></ellipse>
                            <path d="M96.5387653,12.1823643 L96.9299199,12.1821289 C97.2060623,12.1819626 97.4300546,12.4056855 97.4302208,12.6818278 C97.430221,12.6820286 97.430221,12.6822294 97.4302208,12.6824303 L97.4221793,26.0189451 C97.4220129,26.2948522 97.1983874,26.5184774 96.9224804,26.5186435 L96.5313257,26.518879 C96.2551834,26.5190452 96.0311911,26.2953224 96.0310248,26.0191801 C96.0310247,26.0189792 96.0310247,26.0187784 96.0310248,26.0185776 L96.0390664,12.6820627 C96.0392327,12.4061557 96.2628582,12.1825304 96.5387653,12.1823643 Z" id="Rectangle-Copy-6" opacity="0.339076451" transform="translate(96.730623, 19.350504) scale(-1, 1) rotate(18.000000) translate(-96.730623, -19.350504) "></path>
                            <rect id="Rectangle-Copy-5" opacity="0.339076451" x="114.186808" y="69.518477" width="1.43631204" height="11.4669653" rx="0.5"></rect>
                            <ellipse id="Oval-Copy-3" cx="0.718156022" cy="25.3983818" rx="1" ry="1"></ellipse>
                            <ellipse id="Oval-Copy-4" cx="126.39546" cy="66.6517357" rx="1" ry="1"></ellipse>
                            <ellipse id="Oval-Copy" cx="35.9078011" cy="76.6853303" rx="2.15446807" ry="2.15005599"></ellipse>
                            <g id="corner-llines" opacity="0.34" transform="translate(4.308936, 2.866741)">
                                <path d="M14.4418595,0.999285695 L14.8780444,0.99946737 C15.1540238,0.999999392 15.3777208,1.2236962 15.3782531,1.49967558 L15.3814249,9.10066252 C15.3819568,9.3768047 15.1581926,9.60075572 14.8820503,9.60087095 C14.8819113,9.60087101 14.8817723,9.60087101 14.8816336,9.60045422 L14.4454486,9.60027255 C14.1694692,9.59974053 13.9457722,9.37604372 13.94524,9.10006434 L13.9420682,1.4990774 C13.9415362,1.22293522 14.1653004,0.998984201 14.4414427,0.99886897 C14.4415817,0.998868912 14.4417207,0.998868912 14.4418595,0.999285695 Z" id="Rectangle-Copy" transform="translate(14.661747, 5.299870) rotate(-12.000000) translate(-14.661747, -5.299870) "></path>
                                <path d="M7.39635591,-1.44068917 L7.83124702,-1.4402437 C8.10698929,-1.43996125 8.33045212,-1.21649844 8.33073459,-0.940756165 L8.34440815,12.4071425 C8.34469103,12.6832848 8.12106284,12.9073716 7.84492061,12.9076545 C7.84457916,12.9076548 7.84423771,12.9076548 7.84389625,12.9076545 L7.40900515,12.907209 C7.13326287,12.9069265 6.90980004,12.6834637 6.90951757,12.4077215 L6.89584401,-0.940177237 C6.89556113,-1.21631947 7.11918932,-1.44040629 7.39533155,-1.44068917 C7.395673,-1.44068952 7.39601446,-1.44068952 7.39635591,-1.44068917 Z" id="Rectangle-Copy-2" transform="translate(7.620126, 5.733483) rotate(-44.000000) translate(-7.620126, -5.733483) "></path>
                                <path d="M5.52603564,6.75347488 L5.95960294,6.75369728 C6.23554516,6.75383882 6.45920511,6.97749897 6.4593464,7.25344119 L6.46471713,17.7423609 C6.46485852,18.0185032 6.24111555,18.2424754 5.96497321,18.2426168 C5.96480238,18.2426169 5.96463155,18.2426169 5.96446072,18.2426168 L5.53089342,18.2423944 C5.2549512,18.2422529 5.03129125,18.0185927 5.03114996,17.7426505 L5.02577923,7.25373083 C5.02563783,6.97758849 5.2493808,6.75361627 5.52552314,6.75347488 C5.52569397,6.75347479 5.52586481,6.75347479 5.52603564,6.75347488 Z" id="Rectangle-Copy-4" transform="translate(5.745248, 12.498046) rotate(-75.000000) translate(-5.745248, -12.498046) "></path>
                            </g>
                            <path d="M41.1452363,62.561536 C41.40412,62.3031824 41.8114804,62.2833091 42.0932067,62.501916 L42.1608623,62.561536 L44.1917308,64.587682 L46.2233662,62.561536 C46.5038236,62.281653 46.9585348,62.281653 47.2389922,62.561536 C47.5194496,62.841419 47.5194496,63.2951991 47.2389922,63.5750821 L45.2079216,65.6017917 L47.2389922,67.6292666 C47.4978759,67.8876202 47.5177901,68.2941463 47.2987346,68.5752957 L47.2389922,68.6428127 C46.9801085,68.9011663 46.5727481,68.9210396 46.2910218,68.7024328 L46.2233662,68.6428127 L44.1917308,66.6159015 L42.1608623,68.6428127 C41.8804049,68.9226957 41.4256937,68.9226957 41.1452363,68.6428127 C40.8647789,68.3629297 40.8647789,67.9091496 41.1452363,67.6292666 L43.1755401,65.6017917 L41.1452363,63.5750821 C40.8863526,63.3167286 40.8664384,62.9102024 41.0854939,62.629053 L41.1452363,62.561536 Z" id="Path"></path>
                            <path d="M151.949349,45.9604246 C152.07302,46.0838425 152.07302,46.2839424 151.949349,46.4073603 L151.053201,47.3012318 L151.949349,48.1951033 C152.057561,48.303094 152.071088,48.4697943 151.989928,48.5924624 L151.949349,48.642039 C151.841137,48.7500297 151.674094,48.7635285 151.551174,48.6825355 L151.501496,48.642039 L150.60579,47.7477268 L149.710084,48.642039 C149.586413,48.7654569 149.385903,48.7654569 149.262232,48.642039 C149.13856,48.5186211 149.13856,48.3185212 149.262232,48.1951033 L150.158379,47.3012318 L149.262232,46.4073603 C149.154019,46.2993697 149.140493,46.1326693 149.221652,46.0100012 L149.262232,45.9604246 C149.370444,45.8524339 149.537486,45.8389351 149.660406,45.9199281 L149.710084,45.9604246 L150.60579,46.8547368 L151.501496,45.9604246 C151.625167,45.8370067 151.825678,45.8370067 151.949349,45.9604246 Z" id="Path"></path>
                            <path d="M72.2793691,6.7645632 C72.3881621,6.7645632 72.4763562,6.85257674 72.4763562,6.96114694 L72.4763058,7.4683482 L72.8365329,7.11003147 C72.9134611,7.03326074 73.0381865,7.03326074 73.1151147,7.11003147 C73.192043,7.18680219 73.192043,7.31127213 73.1151147,7.38804286 L72.7542321,7.7471388 L73.2643048,7.74748191 C73.3549656,7.74748191 73.4313217,7.80860242 73.4542554,7.8918059 L73.4612919,7.94406565 C73.4612919,8.03712582 73.3964962,8.11508314 73.3094721,8.13545747 L73.2643048,8.14064939 L72.7549503,8.14059904 L73.1151147,8.50008843 C73.1792216,8.56406404 73.1899061,8.6611641 73.1471682,8.73618119 L73.1151147,8.77809982 C73.0510079,8.84207543 72.9537085,8.85273803 72.8785375,8.81008763 L72.8365328,8.77809982 L72.4763058,8.41867295 L72.4763562,8.92698435 C72.4763562,9.03555455 72.3881621,9.12356809 72.2793691,9.12356809 C72.1705761,9.12356809 72.0823819,9.03555455 72.0823819,8.92698435 L72.0820381,8.41795626 L71.7222053,8.77809982 C71.645277,8.85487055 71.5205517,8.85487055 71.4436234,8.77809982 C71.3666951,8.7013291 71.3666951,8.57685916 71.4436234,8.50008843 L71.8026754,8.14059904 L71.2944333,8.14064939 C71.2037725,8.14064939 71.1274164,8.07952888 71.1044828,7.99632539 L71.0974462,7.94406565 C71.0974462,7.85100548 71.1622419,7.77304816 71.249266,7.75267383 L71.2944333,7.74748191 L71.8033936,7.7471388 L71.4436234,7.38804287 C71.3795165,7.32406726 71.368832,7.2269672 71.4115699,7.15195011 L71.4436234,7.11003147 C71.5077303,7.04605587 71.6050296,7.03539327 71.6802006,7.07804367 L71.7222053,7.11003147 L72.0820381,7.46906489 L72.0823819,6.96114694 C72.0823819,6.85257674 72.1705761,6.7645632 72.2793691,6.7645632 Z" id="Path"></path>
                            <path d="M5.38617017,33.9986058 C5.48532682,33.9986058 5.56570917,34.0788235 5.56570917,34.1777771 L5.56579894,34.5643392 L5.89000467,34.2410738 C5.9595697,34.1716513 6.07235689,34.1716513 6.14192192,34.2410738 C6.21148695,34.3104964 6.21148695,34.4230526 6.14192192,34.4924752 L5.73896431,34.8943728 L6.28386519,34.8944624 C6.37310618,34.8944624 6.44713999,34.9594388 6.46105434,35.0445712 L6.4634042,35.0736338 C6.4634042,35.1635916 6.3969725,35.2380652 6.31039615,35.2508624 L6.28386519,35.2528051 L5.89597117,35.2526259 L6.14192192,35.4980806 C6.20453045,35.5605609 6.2107913,35.6579795 6.16070448,35.7274475 L6.14192192,35.749482 C6.0793134,35.8119623 5.98169491,35.8182103 5.9120844,35.7682261 L5.89000467,35.749482 L5.56579894,35.4259742 L5.56570917,35.9694904 C5.56570917,36.068444 5.48532682,36.1486618 5.38617017,36.1486618 C5.28701351,36.1486618 5.20663116,36.068444 5.20663116,35.9694904 L5.20654139,35.4257054 L4.88233566,35.749482 C4.81277064,35.8189046 4.69998344,35.8189046 4.63041841,35.749482 C4.56085338,35.6800594 4.56085338,35.5675032 4.63041841,35.4980806 L4.87609985,35.2526259 L4.48847514,35.2528051 C4.39923415,35.2528051 4.32520035,35.1878287 4.311286,35.1026963 L4.30893613,35.0736338 C4.30893613,34.9836759 4.37536783,34.9092023 4.46194418,34.8964051 L4.48847514,34.8944624 L5.0328374,34.8943728 L4.63041841,34.4924752 C4.56780989,34.4299949 4.56154903,34.3325763 4.61163585,34.2631084 L4.63041841,34.2410738 C4.69302694,34.1785935 4.79064542,34.1723455 4.86025593,34.2223298 L4.88233566,34.2410738 L5.20654139,34.564608 L5.20663116,34.1777771 C5.20663116,34.0788235 5.28701351,33.9986058 5.38617017,33.9986058 Z" id="Path"></path>
                            <path d="M88.4808054,22.1732978 C88.6570839,22.1732978 88.8036943,22.3000616 88.8340982,22.4672279 L88.8398834,22.5316405 L88.8398834,23.6066685 C88.8398834,23.8045757 88.6791187,23.9650111 88.4808054,23.9650111 C88.3045269,23.9650111 88.1579164,23.8382473 88.1275126,23.671081 L88.1217274,23.6066685 L88.1217274,22.5316405 C88.1217274,22.3337333 88.2824921,22.1732978 88.4808054,22.1732978 Z M89.7006071,21.8169652 L89.7503379,21.8584294 L90.5120574,22.618589 C90.652286,22.7585305 90.652286,22.9854205 90.5120574,23.125362 C90.3874096,23.2497545 90.1939209,23.2635759 90.0539751,23.1668262 L90.0042444,23.125362 L89.2425249,22.3652025 C89.1022962,22.2252609 89.1022962,21.9983709 89.2425249,21.8584294 C89.3515916,21.749586 89.5133648,21.7253986 89.6458566,21.7858671 L89.7006071,21.8169652 Z M87.7190859,21.8584294 C87.8437336,21.9828219 87.8575834,22.1759144 87.7606351,22.3155735 L87.7190859,22.3652025 L86.9573664,23.125362 C86.8171377,23.2653036 86.5897821,23.2653036 86.4495534,23.125362 C86.3249057,23.0009696 86.3110559,22.8078771 86.4080042,22.6682179 L86.4495534,22.618589 L87.2112729,21.8584294 C87.3515016,21.7184879 87.5788572,21.7184879 87.7190859,21.8584294 Z M90.9943515,20.7399271 C91.1926648,20.7399271 91.3534295,20.9003626 91.3534295,21.0982698 C91.3534295,21.2741873 91.2264055,21.4204975 91.0588962,21.4508391 L90.9943515,21.4566125 L89.9171174,21.4566125 C89.7188041,21.4566125 89.5580394,21.296177 89.5580394,21.0982698 C89.5580394,20.9223523 89.6850634,20.7760421 89.8525727,20.7457005 L89.9171174,20.7399271 L90.9943515,20.7399271 Z M87.0444933,20.7399271 C87.2428066,20.7399271 87.4035713,20.9003626 87.4035713,21.0982698 C87.4035713,21.2741873 87.2765474,21.4204975 87.1090381,21.4508391 L87.0444933,21.4566125 L85.9672593,21.4566125 C85.768946,21.4566125 85.6081813,21.296177 85.6081813,21.0982698 C85.6081813,20.9223523 85.7352053,20.7760421 85.9027146,20.7457005 L85.9672593,20.7399271 L87.0444933,20.7399271 Z M86.9076356,19.0297134 L86.9573664,19.0711776 L87.7190859,19.8313372 C87.8593146,19.9712787 87.8593146,20.1981687 87.7190859,20.3381102 C87.5944382,20.4625027 87.4009494,20.4763241 87.2610037,20.3795744 L87.2112729,20.3381102 L86.4495534,19.5779506 C86.3093247,19.4380091 86.3093247,19.2111191 86.4495534,19.0711776 C86.5586202,18.9623342 86.7203933,18.9381468 86.8528852,18.9986153 L86.9076356,19.0297134 Z M90.5120574,19.0711776 C90.6367051,19.19557 90.6505548,19.3886626 90.5536066,19.5283217 L90.5120574,19.5779506 L89.7503379,20.3381102 C89.6101092,20.4780517 89.3827536,20.4780517 89.2425249,20.3381102 C89.1178772,20.2137178 89.1040274,20.0206253 89.2009756,19.8809661 L89.2425249,19.8313372 L90.0042444,19.0711776 C90.144473,18.9312361 90.3718287,18.9312361 90.5120574,19.0711776 Z M88.4808054,18.2315285 C88.6570839,18.2315285 88.8036943,18.3582923 88.8340982,18.5254586 L88.8398834,18.5898712 L88.8398834,19.6648992 C88.8398834,19.8628063 88.6791187,20.0232418 88.4808054,20.0232418 C88.3045269,20.0232418 88.1579164,19.896478 88.1275126,19.7293117 L88.1217274,19.6648992 L88.1217274,18.5898712 C88.1217274,18.391964 88.2824921,18.2315285 88.4808054,18.2315285 Z" id="Combined-Shape" fill-rule="nonzero"></path>
                            <path d="M136.251646,3.94176932 C136.427925,3.94176932 136.574535,4.06853315 136.604939,4.23569943 L136.610724,4.30011198 L136.610724,5.37513998 C136.610724,5.57304717 136.449959,5.73348264 136.251646,5.73348264 C136.075368,5.73348264 135.928757,5.60671881 135.898353,5.43955252 L135.892568,5.37513998 L135.892568,4.30011198 C135.892568,4.10220479 136.053333,3.94176932 136.251646,3.94176932 Z M137.471448,3.58543675 L137.521179,3.62690091 L138.282898,4.38706049 C138.423127,4.52700201 138.423127,4.75389203 138.282898,4.89383355 C138.15825,5.01822601 137.964762,5.03204739 137.824816,4.9352977 L137.775085,4.89383355 L137.013366,4.13367396 C136.873137,3.99373245 136.873137,3.76684242 137.013366,3.62690091 C137.122432,3.51805751 137.284206,3.49387008 137.416697,3.55433864 L137.471448,3.58543675 Z M135.489927,3.62690091 C135.614574,3.75129337 135.628424,3.94438588 135.531476,4.08404502 L135.489927,4.13367396 L134.728207,4.89383355 C134.587978,5.03377507 134.360623,5.03377507 134.220394,4.89383355 C134.095746,4.76944109 134.081897,4.57634858 134.178845,4.43668944 L134.220394,4.38706049 L134.982114,3.62690091 C135.122342,3.48695939 135.349698,3.48695939 135.489927,3.62690091 Z M138.765192,2.50839866 C138.963505,2.50839866 139.12427,2.66883413 139.12427,2.86674132 C139.12427,3.04265882 138.997246,3.18896904 138.829737,3.21931061 L138.765192,3.22508399 L137.687958,3.22508399 C137.489645,3.22508399 137.32888,3.06464851 137.32888,2.86674132 C137.32888,2.69082382 137.455904,2.5445136 137.623413,2.51417204 L137.687958,2.50839866 L138.765192,2.50839866 Z M134.815334,2.50839866 C135.013647,2.50839866 135.174412,2.66883413 135.174412,2.86674132 C135.174412,3.04265882 135.047388,3.18896904 134.879879,3.21931061 L134.815334,3.22508399 L133.7381,3.22508399 C133.539787,3.22508399 133.379022,3.06464851 133.379022,2.86674132 C133.379022,2.69082382 133.506046,2.5445136 133.673555,2.51417204 L133.7381,2.50839866 L134.815334,2.50839866 Z M134.678476,0.79818494 L134.728207,0.839649093 L135.489927,1.59980868 C135.630155,1.73975019 135.630155,1.96664022 135.489927,2.10658174 C135.365279,2.23097419 135.17179,2.24479558 135.031844,2.14804589 L134.982114,2.10658174 L134.220394,1.34642215 C134.080165,1.20648063 134.080165,0.979590609 134.220394,0.839649093 C134.329461,0.730805692 134.491234,0.70661827 134.623726,0.767086826 L134.678476,0.79818494 Z M138.282898,0.839649093 C138.407546,0.964041551 138.421396,1.15713407 138.324447,1.29679321 L138.282898,1.34642215 L137.521179,2.10658174 C137.38095,2.24652325 137.153594,2.24652325 137.013366,2.10658174 C136.888718,1.98218928 136.874868,1.78909676 136.971816,1.64943762 L137.013366,1.59980868 L137.775085,0.839649093 C137.915314,0.699707578 138.142669,0.699707578 138.282898,0.839649093 Z M136.251646,6.20630833e-15 C136.427925,6.20630833e-15 136.574535,0.126763833 136.604939,0.293930118 L136.610724,0.358342665 L136.610724,1.43337066 C136.610724,1.63127785 136.449959,1.79171333 136.251646,1.79171333 C136.075368,1.79171333 135.928757,1.66494949 135.898353,1.49778321 L135.892568,1.43337066 L135.892568,0.358342665 C135.892568,0.160435476 136.053333,6.20630833e-15 136.251646,6.20630833e-15 Z" id="Combined-Shape-Copy-5" fill-rule="nonzero"></path>
                        </g>
                        <g id="Doughnut" transform="translate(18.737663, 15.767077)">
                            <g id="base">
                                <g id="Path">
                                    <use fill="black" fill-opacity="1" filter="url(#filter-2)" xlink:href="#path-1"></use>
                                    <use fill="#FFFFFF" fill-rule="evenodd" xlink:href="#path-1"></use>
                                </g>
                                <g id="Path">
                                    <use fill="black" fill-opacity="1" filter="url(#filter-4)" xlink:href="#path-3"></use>
                                    <use fill="#FFFFFF" fill-rule="evenodd" xlink:href="#path-3"></use>
                                </g>
                                <path d="M3.10553956,-4.40186666e-15 L41.61423,-4.40186666e-15 C43.3293722,-4.40186666e-15 44.7197696,1.38681513 44.7197696,3.09753829 L44.7197696,7.35665344 L0,7.35665344 L0,3.09753829 C0,1.38681513 1.39039742,-4.40186666e-15 3.10553956,-4.40186666e-15 Z" id="Path-Copy" fill="#E8E9EC"></path>
                            </g>
                            <g id="Group-3" opacity="0.815359933" transform="translate(26.174618, 11.601344)" fill="#CCCED3" fill-rule="nonzero">
                                <path d="M5.54131031,11.2326754 C5.55560124,10.2037281 5.79854715,9.42129934 6.27014803,8.88538925 L6.27014803,8.88538925 L7.58848684,7.58848684 C8.67459795,6.45950292 9.21765351,5.31265534 9.21765351,4.14794408 C9.21765351,2.84032346 8.81572094,1.8220943 8.01185581,1.09325658 C7.20799068,0.36441886 6.0879386,0 4.65169956,0 C3.25833333,0 2.13828125,0.367991594 1.29154331,1.10397478 C0.444805373,1.83995797 0.0142909357,2.84032346 0,4.10507127 L0,4.10507127 L2.60452303,4.10507127 C2.60452303,3.51199744 2.79209156,3.04218293 3.16722862,2.69562774 C3.54236568,2.34907255 4.03718933,2.17579496 4.65169956,2.17579496 C5.29479167,2.17579496 5.78246985,2.35264529 6.1147341,2.70634594 C6.44699836,3.0600466 6.61313048,3.57273392 6.61313048,4.24440789 C6.61313048,4.75173611 6.47022113,5.22333699 6.18440241,5.65921053 C5.99862025,5.94502924 5.55738761,6.42556195 4.8607045,7.10080866 C4.16402138,7.77605537 3.69777961,8.39592471 3.46197917,8.96041667 C3.22617873,9.52490863 3.10827851,10.2823282 3.10827851,11.2326754 L3.10827851,11.2326754 L5.54131031,11.2326754 Z M4.39446272,15.9486842 C4.8660636,15.9486842 5.23048246,15.8164931 5.4877193,15.5521107 C5.74495614,15.2877284 5.87357456,14.9590369 5.87357456,14.5660362 C5.87357456,14.1587445 5.74138341,13.8211212 5.4770011,13.5531661 C5.21261879,13.2852111 4.85177266,13.1512336 4.39446272,13.1512336 C3.94429825,13.1512336 3.58702485,13.2816383 3.32264254,13.5424479 C3.05826023,13.8032575 2.92606908,14.1444536 2.92606908,14.5660362 C2.92606908,14.9590369 3.05290113,15.2877284 3.30656524,15.5521107 C3.56022935,15.8164931 3.92286184,15.9486842 4.39446272,15.9486842 Z" id="?"></path>
                            </g>
                            <path d="M4.91936875,16.1254199 L15.9071559,16.1254199 C16.2442885,16.1254199 16.5175885,16.4462909 16.5175885,16.8421053 C16.5175885,17.2379196 16.2442885,17.5587906 15.9071559,17.5587906 L4.91936875,17.5587906 C4.58223613,17.5587906 4.30893613,17.2379196 4.30893613,16.8421053 C4.30893613,16.4462909 4.58223613,16.1254199 4.91936875,16.1254199 Z" id="Rectangle" fill="#CCCED3" opacity="0.647623698"></path>
                            <path d="M4.91936875,12.9003359 L15.9071559,12.9003359 C16.2442885,12.9003359 16.5175885,13.2212069 16.5175885,13.6170213 C16.5175885,14.0128357 16.2442885,14.3337066 15.9071559,14.3337066 L4.91936875,14.3337066 C4.58223613,14.3337066 4.30893613,14.0128357 4.30893613,13.6170213 C4.30893613,13.2212069 4.58223613,12.9003359 4.91936875,12.9003359 Z" id="Rectangle-Copy-3" fill="#CCCED3" opacity="0.647623698"></path>
                            <path d="M4.96180524,19.3505039 L10.8376272,19.3505039 C11.1981969,19.3505039 11.4904964,19.6713749 11.4904964,20.0671892 C11.4904964,20.4630036 11.1981969,20.7838746 10.8376272,20.7838746 L4.96180524,20.7838746 C4.60123559,20.7838746 4.30893613,20.4630036 4.30893613,20.0671892 C4.30893613,19.6713749 4.60123559,19.3505039 4.96180524,19.3505039 Z" id="Rectangle-Copy-2" fill="#CCCED3" opacity="0.647623698"></path>
                        </g>
                        <g id="DOC-Copy-2" transform="translate(138.711643, 32.561849) rotate(30.000000) translate(-138.711643, -32.561849) translate(125.729187, 15.017990)">
                            <g id="Rectangle">
                                <use fill="black" fill-opacity="1" filter="url(#filter-6)" xlink:href="#path-5"></use>
                                <use fill="#FFFFFF" fill-rule="evenodd" xlink:href="#path-5"></use>
                            </g>
                            <g id="Rectangle">
                                <use fill="black" fill-opacity="1" filter="url(#filter-8)" xlink:href="#path-7"></use>
                                <use fill="#FFFFFF" fill-rule="evenodd" xlink:href="#path-7"></use>
                            </g>
                            <g id="Triangle" transform="translate(3.718848, 3.782566) rotate(139.000000) translate(-3.718848, -3.782566) ">
                                <use fill="black" fill-opacity="1" filter="url(#filter-10)" xlink:href="#path-9"></use>
                                <use fill="#CCCED3" fill-rule="evenodd" xlink:href="#path-9"></use>
                            </g>
                        </g>
                        <g id="Excel" transform="translate(118.674313, 26.742785) rotate(-17.000000) translate(-118.674313, -26.742785) translate(103.235716, 4.988399)">
                            <g id="Rectangle">
                                <use fill="black" fill-opacity="1" filter="url(#filter-12)" xlink:href="#path-11"></use>
                                <use fill="#FFFFFF" fill-rule="evenodd" xlink:href="#path-11"></use>
                            </g>
                            <g id="Rectangle">
                                <use fill="black" fill-opacity="1" filter="url(#filter-14)" xlink:href="#path-13"></use>
                                <use fill="#FFFFFF" fill-rule="evenodd" xlink:href="#path-13"></use>
                            </g>
                            <g id="List" transform="translate(0.425879, 2.221538)">
                                <path d="M16.4047354,2.51602297 L20.6110778,2.51602297 C20.8433877,2.51602297 21.0317121,2.70376661 21.0317121,2.93536013 L21.0317121,4.61270878 C21.0317121,4.84430229 20.8433877,5.03204594 20.6110778,5.03204594 L16.4047354,5.03204594 C16.1724255,5.03204594 15.9841012,4.84430229 15.9841012,4.61270878 L15.9841012,2.93536013 C15.9841012,2.70376661 16.1724255,2.51602297 16.4047354,2.51602297 Z" id="Rectangle" fill="#EBEBEC" opacity="0.0936104911"></path>
                                <path d="M2.94443969,2.51602297 L7.15078211,2.51602297 C7.38309198,2.51602297 7.57141635,2.70376661 7.57141635,2.93536013 L7.57141635,4.61270878 C7.57141635,4.84430229 7.38309198,5.03204594 7.15078211,5.03204594 L2.94443969,5.03204594 C2.71212981,5.03204594 2.52380545,4.84430229 2.52380545,4.61270878 L2.52380545,2.93536013 C2.52380545,2.70376661 2.71212981,2.51602297 2.94443969,2.51602297 Z" id="Rectangle-Copy-8" fill="#EBEBEC" opacity="0.0936104911"></path>
                                <path d="M23.1348833,2.51602297 L27.3412257,2.51602297 C27.5735356,2.51602297 27.7618599,2.70376661 27.7618599,2.93536013 L27.7618599,4.61270878 C27.7618599,4.84430229 27.5735356,5.03204594 27.3412257,5.03204594 L23.1348833,5.03204594 C22.9025734,5.03204594 22.714249,4.84430229 22.714249,4.61270878 L22.714249,2.93536013 C22.714249,2.70376661 22.9025734,2.51602297 23.1348833,2.51602297 Z" id="Rectangle-Copy-7" fill="#EBEBEC" opacity="0.0936104911"></path>
                                <path d="M9.67458756,2.51602297 L13.88093,2.51602297 C14.1132398,2.51602297 14.3015642,2.70376661 14.3015642,2.93536013 L14.3015642,4.61270878 C14.3015642,4.84430229 14.1132398,5.03204594 13.88093,5.03204594 L9.67458756,5.03204594 C9.44227768,5.03204594 9.25395331,4.84430229 9.25395331,4.61270878 L9.25395331,2.93536013 C9.25395331,2.70376661 9.44227768,2.51602297 9.67458756,2.51602297 Z" id="Rectangle-Copy-9" fill="#EBEBEC" opacity="0.0936104911"></path>
                                <path d="M16.4047354,6.70939458 L20.6110778,6.70939458 C20.8433877,6.70939458 21.0317121,6.89713822 21.0317121,7.12873174 L21.0317121,8.80608039 C21.0317121,9.03767391 20.8433877,9.22541755 20.6110778,9.22541755 L16.4047354,9.22541755 C16.1724255,9.22541755 15.9841012,9.03767391 15.9841012,8.80608039 L15.9841012,7.12873174 C15.9841012,6.89713822 16.1724255,6.70939458 16.4047354,6.70939458 Z" id="Rectangle" fill="#EBEBEC" opacity="0.0936104911"></path>
                                <path d="M2.94443969,6.70939458 L7.15078211,6.70939458 C7.38309198,6.70939458 7.57141635,6.89713822 7.57141635,7.12873174 L7.57141635,8.80608039 C7.57141635,9.03767391 7.38309198,9.22541755 7.15078211,9.22541755 L2.94443969,9.22541755 C2.71212981,9.22541755 2.52380545,9.03767391 2.52380545,8.80608039 L2.52380545,7.12873174 C2.52380545,6.89713822 2.71212981,6.70939458 2.94443969,6.70939458 Z" id="Rectangle-Copy-8" fill="#EBEBEC" opacity="0.0936104911"></path>
                                <path d="M23.1348833,6.70939458 L27.3412257,6.70939458 C27.5735356,6.70939458 27.7618599,6.89713822 27.7618599,7.12873174 L27.7618599,8.80608039 C27.7618599,9.03767391 27.5735356,9.22541755 27.3412257,9.22541755 L23.1348833,9.22541755 C22.9025734,9.22541755 22.714249,9.03767391 22.714249,8.80608039 L22.714249,7.12873174 C22.714249,6.89713822 22.9025734,6.70939458 23.1348833,6.70939458 Z" id="Rectangle-Copy-7" fill="#EBEBEC" opacity="0.0936104911"></path>
                                <path d="M9.67458756,6.70939458 L13.88093,6.70939458 C14.1132398,6.70939458 14.3015642,6.89713822 14.3015642,7.12873174 L14.3015642,8.80608039 C14.3015642,9.03767391 14.1132398,9.22541755 13.88093,9.22541755 L9.67458756,9.22541755 C9.44227768,9.22541755 9.25395331,9.03767391 9.25395331,8.80608039 L9.25395331,7.12873174 C9.25395331,6.89713822 9.44227768,6.70939458 9.67458756,6.70939458 Z" id="Rectangle-Copy-9" fill="#EBEBEC" opacity="0.0936104911"></path>
                                <path d="M16.4047354,10.9027662 L20.6110778,10.9027662 C20.8433877,10.9027662 21.0317121,11.0905098 21.0317121,11.3221034 L21.0317121,12.999452 C21.0317121,13.2310455 20.8433877,13.4187892 20.6110778,13.4187892 L16.4047354,13.4187892 C16.1724255,13.4187892 15.9841012,13.2310455 15.9841012,12.999452 L15.9841012,11.3221034 C15.9841012,11.0905098 16.1724255,10.9027662 16.4047354,10.9027662 Z" id="Rectangle" fill="#EBEBEC" opacity="0.0936104911"></path>
                                <path d="M2.94443969,10.9027662 L7.15078211,10.9027662 C7.38309198,10.9027662 7.57141635,11.0905098 7.57141635,11.3221034 L7.57141635,12.999452 C7.57141635,13.2310455 7.38309198,13.4187892 7.15078211,13.4187892 L2.94443969,13.4187892 C2.71212981,13.4187892 2.52380545,13.2310455 2.52380545,12.999452 L2.52380545,11.3221034 C2.52380545,11.0905098 2.71212981,10.9027662 2.94443969,10.9027662 Z" id="Rectangle-Copy-8" fill="#EBEBEC" opacity="0.0936104911"></path>
                                <path d="M23.1348833,10.9027662 L27.3412257,10.9027662 C27.5735356,10.9027662 27.7618599,11.0905098 27.7618599,11.3221034 L27.7618599,12.999452 C27.7618599,13.2310455 27.5735356,13.4187892 27.3412257,13.4187892 L23.1348833,13.4187892 C22.9025734,13.4187892 22.714249,13.2310455 22.714249,12.999452 L22.714249,11.3221034 C22.714249,11.0905098 22.9025734,10.9027662 23.1348833,10.9027662 Z" id="Rectangle-Copy-7" fill="#EBEBEC" opacity="0.0936104911"></path>
                                <path d="M9.67458756,10.9027662 L13.88093,10.9027662 C14.1132398,10.9027662 14.3015642,11.0905098 14.3015642,11.3221034 L14.3015642,12.999452 C14.3015642,13.2310455 14.1132398,13.4187892 13.88093,13.4187892 L9.67458756,13.4187892 C9.44227768,13.4187892 9.25395331,13.2310455 9.25395331,12.999452 L9.25395331,11.3221034 C9.25395331,11.0905098 9.44227768,10.9027662 9.67458756,10.9027662 Z" id="Rectangle-Copy-9" fill="#EBEBEC" opacity="0.0936104911"></path>
                                <path d="M16.4047354,15.0961378 L20.6110778,15.0961378 C20.8433877,15.0961378 21.0317121,15.2838815 21.0317121,15.515475 L21.0317121,17.1928236 C21.0317121,17.4244171 20.8433877,17.6121608 20.6110778,17.6121608 L16.4047354,17.6121608 C16.1724255,17.6121608 15.9841012,17.4244171 15.9841012,17.1928236 L15.9841012,15.515475 C15.9841012,15.2838815 16.1724255,15.0961378 16.4047354,15.0961378 Z" id="Rectangle" fill="#EBEBEC" opacity="0.0936104911"></path>
                                <path d="M2.94443969,15.0961378 L7.15078211,15.0961378 C7.38309198,15.0961378 7.57141635,15.2838815 7.57141635,15.515475 L7.57141635,17.1928236 C7.57141635,17.4244171 7.38309198,17.6121608 7.15078211,17.6121608 L2.94443969,17.6121608 C2.71212981,17.6121608 2.52380545,17.4244171 2.52380545,17.1928236 L2.52380545,15.515475 C2.52380545,15.2838815 2.71212981,15.0961378 2.94443969,15.0961378 Z" id="Rectangle-Copy-8" fill="#EBEBEC" opacity="0.0936104911"></path>
                                <path d="M23.1348833,15.0961378 L27.3412257,15.0961378 C27.5735356,15.0961378 27.7618599,15.2838815 27.7618599,15.515475 L27.7618599,17.1928236 C27.7618599,17.4244171 27.5735356,17.6121608 27.3412257,17.6121608 L23.1348833,17.6121608 C22.9025734,17.6121608 22.714249,17.4244171 22.714249,17.1928236 L22.714249,15.515475 C22.714249,15.2838815 22.9025734,15.0961378 23.1348833,15.0961378 Z" id="Rectangle-Copy-7" fill="#EBEBEC" opacity="0.0936104911"></path>
                                <path d="M9.67458756,15.0961378 L13.88093,15.0961378 C14.1132398,15.0961378 14.3015642,15.2838815 14.3015642,15.515475 L14.3015642,17.1928236 C14.3015642,17.4244171 14.1132398,17.6121608 13.88093,17.6121608 L9.67458756,17.6121608 C9.44227768,17.6121608 9.25395331,17.4244171 9.25395331,17.1928236 L9.25395331,15.515475 C9.25395331,15.2838815 9.44227768,15.0961378 9.67458756,15.0961378 Z" id="Rectangle-Copy-9" fill="#EBEBEC" opacity="0.0936104911"></path>
                                <path d="M16.4047354,19.2895094 L20.6110778,19.2895094 C20.8433877,19.2895094 21.0317121,19.4772531 21.0317121,19.7088466 L21.0317121,21.3861952 C21.0317121,21.6177887 20.8433877,21.8055324 20.6110778,21.8055324 L16.4047354,21.8055324 C16.1724255,21.8055324 15.9841012,21.6177887 15.9841012,21.3861952 L15.9841012,19.7088466 C15.9841012,19.4772531 16.1724255,19.2895094 16.4047354,19.2895094 Z" id="Rectangle" fill="#EBEBEC" opacity="0.0936104911"></path>
                                <path d="M2.94443969,19.2895094 L7.15078211,19.2895094 C7.38309198,19.2895094 7.57141635,19.4772531 7.57141635,19.7088466 L7.57141635,21.3861952 C7.57141635,21.6177887 7.38309198,21.8055324 7.15078211,21.8055324 L2.94443969,21.8055324 C2.71212981,21.8055324 2.52380545,21.6177887 2.52380545,21.3861952 L2.52380545,19.7088466 C2.52380545,19.4772531 2.71212981,19.2895094 2.94443969,19.2895094 Z" id="Rectangle-Copy-8" fill="#EBEBEC" opacity="0.0936104911"></path>
                                <path d="M23.1348833,19.2895094 L27.3412257,19.2895094 C27.5735356,19.2895094 27.7618599,19.4772531 27.7618599,19.7088466 L27.7618599,21.3861952 C27.7618599,21.6177887 27.5735356,21.8055324 27.3412257,21.8055324 L23.1348833,21.8055324 C22.9025734,21.8055324 22.714249,21.6177887 22.714249,21.3861952 L22.714249,19.7088466 C22.714249,19.4772531 22.9025734,19.2895094 23.1348833,19.2895094 Z" id="Rectangle-Copy-7" fill="#EBEBEC" opacity="0.0936104911"></path>
                                <path d="M9.67458756,19.2895094 L13.88093,19.2895094 C14.1132398,19.2895094 14.3015642,19.4772531 14.3015642,19.7088466 L14.3015642,21.3861952 C14.3015642,21.6177887 14.1132398,21.8055324 13.88093,21.8055324 L9.67458756,21.8055324 C9.44227768,21.8055324 9.25395331,21.6177887 9.25395331,21.3861952 L9.25395331,19.7088466 C9.25395331,19.4772531 9.44227768,19.2895094 9.67458756,19.2895094 Z" id="Rectangle-Copy-9" fill="#EBEBEC" opacity="0.0936104911"></path>
                                <path d="M16.4047354,23.482881 L20.6110778,23.482881 C20.8433877,23.482881 21.0317121,23.6706247 21.0317121,23.9022182 L21.0317121,25.5795668 C21.0317121,25.8111604 20.8433877,25.998904 20.6110778,25.998904 L16.4047354,25.998904 C16.1724255,25.998904 15.9841012,25.8111604 15.9841012,25.5795668 L15.9841012,23.9022182 C15.9841012,23.6706247 16.1724255,23.482881 16.4047354,23.482881 Z" id="Rectangle" fill="#EBEBEC" opacity="0.0936104911"></path>
                                <path d="M2.94443969,23.482881 L7.15078211,23.482881 C7.38309198,23.482881 7.57141635,23.6706247 7.57141635,23.9022182 L7.57141635,25.5795668 C7.57141635,25.8111604 7.38309198,25.998904 7.15078211,25.998904 L2.94443969,25.998904 C2.71212981,25.998904 2.52380545,25.8111604 2.52380545,25.5795668 L2.52380545,23.9022182 C2.52380545,23.6706247 2.71212981,23.482881 2.94443969,23.482881 Z" id="Rectangle-Copy-8" fill="#EBEBEC" opacity="0.0936104911"></path>
                                <path d="M23.1348833,23.482881 L27.3412257,23.482881 C27.5735356,23.482881 27.7618599,23.6706247 27.7618599,23.9022182 L27.7618599,25.5795668 C27.7618599,25.8111604 27.5735356,25.998904 27.3412257,25.998904 L23.1348833,25.998904 C22.9025734,25.998904 22.714249,25.8111604 22.714249,25.5795668 L22.714249,23.9022182 C22.714249,23.6706247 22.9025734,23.482881 23.1348833,23.482881 Z" id="Rectangle-Copy-7" fill="#EBEBEC" opacity="0.0936104911"></path>
                                <path d="M9.67458756,23.482881 L13.88093,23.482881 C14.1132398,23.482881 14.3015642,23.6706247 14.3015642,23.9022182 L14.3015642,25.5795668 C14.3015642,25.8111604 14.1132398,25.998904 13.88093,25.998904 L9.67458756,25.998904 C9.44227768,25.998904 9.25395331,25.8111604 9.25395331,25.5795668 L9.25395331,23.9022182 C9.25395331,23.6706247 9.44227768,23.482881 9.67458756,23.482881 Z" id="Rectangle-Copy-9" fill="#EBEBEC" opacity="0.0936104911"></path>
                                <path d="M16.4047354,27.6762527 L20.6110778,27.6762527 C20.8433877,27.6762527 21.0317121,27.8639963 21.0317121,28.0955898 L21.0317121,29.7729385 C21.0317121,30.004532 20.8433877,30.1922756 20.6110778,30.1922756 L16.4047354,30.1922756 C16.1724255,30.1922756 15.9841012,30.004532 15.9841012,29.7729385 L15.9841012,28.0955898 C15.9841012,27.8639963 16.1724255,27.6762527 16.4047354,27.6762527 Z" id="Rectangle" fill="#EBEBEC" opacity="0.0936104911"></path>
                                <path d="M2.94443969,27.6762527 L7.15078211,27.6762527 C7.38309198,27.6762527 7.57141635,27.8639963 7.57141635,28.0955898 L7.57141635,29.7729385 C7.57141635,30.004532 7.38309198,30.1922756 7.15078211,30.1922756 L2.94443969,30.1922756 C2.71212981,30.1922756 2.52380545,30.004532 2.52380545,29.7729385 L2.52380545,28.0955898 C2.52380545,27.8639963 2.71212981,27.6762527 2.94443969,27.6762527 Z" id="Rectangle-Copy-8" fill="#EBEBEC" opacity="0.0936104911"></path>
                                <path d="M23.1348833,27.6762527 L27.3412257,27.6762527 C27.5735356,27.6762527 27.7618599,27.8639963 27.7618599,28.0955898 L27.7618599,29.7729385 C27.7618599,30.004532 27.5735356,30.1922756 27.3412257,30.1922756 L23.1348833,30.1922756 C22.9025734,30.1922756 22.714249,30.004532 22.714249,29.7729385 L22.714249,28.0955898 C22.714249,27.8639963 22.9025734,27.6762527 23.1348833,27.6762527 Z" id="Rectangle-Copy-7" fill="#EBEBEC" opacity="0.0936104911"></path>
                                <path d="M9.67458756,27.6762527 L13.88093,27.6762527 C14.1132398,27.6762527 14.3015642,27.8639963 14.3015642,28.0955898 L14.3015642,29.7729385 C14.3015642,30.004532 14.1132398,30.1922756 13.88093,30.1922756 L9.67458756,30.1922756 C9.44227768,30.1922756 9.25395331,30.004532 9.25395331,29.7729385 L9.25395331,28.0955898 C9.25395331,27.8639963 9.44227768,27.6762527 9.67458756,27.6762527 Z" id="Rectangle-Copy-9" fill="#EBEBEC" opacity="0.0936104911"></path>
                                <path d="M16.4047354,31.8696243 L20.6110778,31.8696243 C20.8433877,31.8696243 21.0317121,32.0573679 21.0317121,32.2889614 L21.0317121,33.9663101 C21.0317121,34.1979036 20.8433877,34.3856472 20.6110778,34.3856472 L16.4047354,34.3856472 C16.1724255,34.3856472 15.9841012,34.1979036 15.9841012,33.9663101 L15.9841012,32.2889614 C15.9841012,32.0573679 16.1724255,31.8696243 16.4047354,31.8696243 Z" id="Rectangle" fill="#EBEBEC" opacity="0.0936104911"></path>
                                <path d="M2.94443969,31.8696243 L7.15078211,31.8696243 C7.38309198,31.8696243 7.57141635,32.0573679 7.57141635,32.2889614 L7.57141635,33.9663101 C7.57141635,34.1979036 7.38309198,34.3856472 7.15078211,34.3856472 L2.94443969,34.3856472 C2.71212981,34.3856472 2.52380545,34.1979036 2.52380545,33.9663101 L2.52380545,32.2889614 C2.52380545,32.0573679 2.71212981,31.8696243 2.94443969,31.8696243 Z" id="Rectangle-Copy-8" fill="#EBEBEC" opacity="0.0936104911"></path>
                                <path d="M23.1348833,31.8696243 L27.3412257,31.8696243 C27.5735356,31.8696243 27.7618599,32.0573679 27.7618599,32.2889614 L27.7618599,33.9663101 C27.7618599,34.1979036 27.5735356,34.3856472 27.3412257,34.3856472 L23.1348833,34.3856472 C22.9025734,34.3856472 22.714249,34.1979036 22.714249,33.9663101 L22.714249,32.2889614 C22.714249,32.0573679 22.9025734,31.8696243 23.1348833,31.8696243 Z" id="Rectangle-Copy-7" fill="#EBEBEC" opacity="0.0936104911"></path>
                                <path d="M9.67458756,31.8696243 L13.88093,31.8696243 C14.1132398,31.8696243 14.3015642,32.0573679 14.3015642,32.2889614 L14.3015642,33.9663101 C14.3015642,34.1979036 14.1132398,34.3856472 13.88093,34.3856472 L9.67458756,34.3856472 C9.44227768,34.3856472 9.25395331,34.1979036 9.25395331,33.9663101 L9.25395331,32.2889614 C9.25395331,32.0573679 9.44227768,31.8696243 9.67458756,31.8696243 Z" id="Rectangle-Copy-9" fill="#EBEBEC" opacity="0.0936104911"></path>
                                <path d="M16.4047354,36.0629959 L20.6110778,36.0629959 C20.8433877,36.0629959 21.0317121,36.2507395 21.0317121,36.482333 L21.0317121,38.1596817 C21.0317121,38.3912752 20.8433877,38.5790188 20.6110778,38.5790188 L16.4047354,38.5790188 C16.1724255,38.5790188 15.9841012,38.3912752 15.9841012,38.1596817 L15.9841012,36.482333 C15.9841012,36.2507395 16.1724255,36.0629959 16.4047354,36.0629959 Z" id="Rectangle" fill="#EBEBEC" opacity="0.0936104911"></path>
                                <path d="M2.94443969,36.0629959 L7.15078211,36.0629959 C7.38309198,36.0629959 7.57141635,36.2507395 7.57141635,36.482333 L7.57141635,38.1596817 C7.57141635,38.3912752 7.38309198,38.5790188 7.15078211,38.5790188 L2.94443969,38.5790188 C2.71212981,38.5790188 2.52380545,38.3912752 2.52380545,38.1596817 L2.52380545,36.482333 C2.52380545,36.2507395 2.71212981,36.0629959 2.94443969,36.0629959 Z" id="Rectangle-Copy-8" fill="#EBEBEC" opacity="0.0936104911"></path>
                                <path d="M23.1348833,36.0629959 L27.3412257,36.0629959 C27.5735356,36.0629959 27.7618599,36.2507395 27.7618599,36.482333 L27.7618599,38.1596817 C27.7618599,38.3912752 27.5735356,38.5790188 27.3412257,38.5790188 L23.1348833,38.5790188 C22.9025734,38.5790188 22.714249,38.3912752 22.714249,38.1596817 L22.714249,36.482333 C22.714249,36.2507395 22.9025734,36.0629959 23.1348833,36.0629959 Z" id="Rectangle-Copy-7" fill="#EBEBEC" opacity="0.0936104911"></path>
                                <path d="M9.67458756,36.0629959 L13.88093,36.0629959 C14.1132398,36.0629959 14.3015642,36.2507395 14.3015642,36.482333 L14.3015642,38.1596817 C14.3015642,38.3912752 14.1132398,38.5790188 13.88093,38.5790188 L9.67458756,38.5790188 C9.44227768,38.5790188 9.25395331,38.3912752 9.25395331,38.1596817 L9.25395331,36.482333 C9.25395331,36.2507395 9.44227768,36.0629959 9.67458756,36.0629959 Z" id="Rectangle-Copy-9" fill="#EBEBEC" opacity="0.0936104911"></path>
                                <polygon id="Rectangle" fill="url(#linearGradient-15)" points="7.9780237e-14 1.29642885e-13 29.4443969 1.29642885e-13 29.4443969 40.7017544 7.9780237e-14 40.7017544"></polygon>
                            </g>
                            <polygon id="X" fill-opacity="0.8" fill="#CCCED3" fill-rule="nonzero" points="6.38421522 39.7880425 9.24422163 35.9928457 12.104228 39.7880425 15.0819994 39.7880425 10.9265783 34.7300677 14.787587 29.7544479 11.9780513 29.7544479 9.37881017 33.3643458 6.72909834 29.7544479 3.85226836 29.7544479 7.6712181 34.613398 3.59150307 39.7880425"></polygon>
                        </g>
                        <g id="Trend" transform="translate(59.672556, 45.151176)">
                            <g id="base">
                                <g id="Path">
                                    <use fill="black" fill-opacity="1" filter="url(#filter-17)" xlink:href="#path-16"></use>
                                    <use fill="#FFFFFF" fill-rule="evenodd" xlink:href="#path-16"></use>
                                </g>
                                <g id="Path">
                                    <use fill="black" fill-opacity="1" filter="url(#filter-19)" xlink:href="#path-18"></use>
                                    <use fill="#FFFFFF" fill-rule="evenodd" xlink:href="#path-18"></use>
                                </g>
                                <path d="M3.59078011,-5.09235555e-15 L48.1164535,-5.09235555e-15 C50.0995866,-5.09235555e-15 51.7072336,1.60435476 51.7072336,3.58342665 L51.7072336,8.5106383 L0,8.5106383 L0,3.58342665 C0,1.60435476 1.60764702,-5.09235555e-15 3.59078011,-5.09235555e-15 Z" id="Path-Copy" fill="#E8E9EC"></path>
                            </g>
                            <g id="lines" transform="translate(5.745248, 15.050392)" fill="#CCCED3" fill-opacity="0.27" fill-rule="nonzero">
                                <path d="M39.6781202,19.1713326 C39.7772769,19.1713326 39.8576592,19.2916592 39.8576592,19.4400896 C39.8576592,19.5673156 39.7986028,19.673894 39.7192869,19.7017485 L39.6781202,19.7088466 L5.55111512e-17,19.7088466 C-0.0991566548,19.7088466 -0.179539006,19.58852 -0.179539006,19.4400896 C-0.179539006,19.3128635 -0.120482585,19.2062852 -0.0411666467,19.1784307 L5.55111512e-17,19.1713326 L39.6781202,19.1713326 Z" id="Line"></path>
                                <path d="M39.6781202,14.4232923 C39.7772769,14.4232923 39.8576592,14.5436189 39.8576592,14.6920493 C39.8576592,14.8192753 39.7986028,14.9258537 39.7192869,14.9537082 L39.6781202,14.9608063 L5.55111512e-17,14.9608063 C-0.0991566548,14.9608063 -0.179539006,14.8404797 -0.179539006,14.6920493 C-0.179539006,14.5648232 -0.120482585,14.4582449 -0.0411666467,14.4303903 L5.55111512e-17,14.4232923 L39.6781202,14.4232923 Z" id="Line-Copy"></path>
                                <path d="M39.6781202,9.67525196 C39.7772769,9.67525196 39.8576592,9.79557857 39.8576592,9.94400896 C39.8576592,10.071235 39.7986028,10.1778134 39.7192869,10.2056679 L39.6781202,10.212766 L5.55111512e-17,10.212766 C-0.0991566548,10.212766 -0.179539006,10.0924394 -0.179539006,9.94400896 C-0.179539006,9.81678291 -0.120482585,9.71020454 -0.0411666467,9.68235002 L5.55111512e-17,9.67525196 L39.6781202,9.67525196 Z" id="Line-Copy-2"></path>
                                <path d="M39.6781202,4.92721165 C39.7772769,4.92721165 39.8576592,5.04753825 39.8576592,5.19596865 C39.8576592,5.3231947 39.7986028,5.42977307 39.7192869,5.45762758 L39.6781202,5.46472564 L5.55111512e-17,5.46472564 C-0.0991566548,5.46472564 -0.179539006,5.34439904 -0.179539006,5.19596865 C-0.179539006,5.06874259 -0.120482585,4.96216422 -0.0411666467,4.93430971 L5.55111512e-17,4.92721165 L39.6781202,4.92721165 Z" id="Line-Copy-3"></path>
                                <path d="M39.6781202,0.179171333 C39.7772769,0.179171333 39.8576592,0.29949794 39.8576592,0.447928331 C39.8576592,0.575154382 39.7986028,0.681732753 39.7192869,0.709587266 L39.6781202,0.71668533 L5.55111512e-17,0.71668533 C-0.0991566548,0.71668533 -0.179539006,0.596358723 -0.179539006,0.447928331 C-0.179539006,0.320702281 -0.120482585,0.21412391 -0.0411666467,0.186269397 L5.55111512e-17,0.179171333 L39.6781202,0.179171333 Z" id="Line-Copy-4"></path>
                            </g>
                            <g id="Group" transform="translate(16.517589, 37.267637)">
                                <path d="M2.87262409,0 L7.18156022,0 C7.57818684,0 7.89971624,0.320870952 7.89971624,0.71668533 C7.89971624,1.11249971 7.57818684,1.43337066 7.18156022,1.43337066 L2.87262409,1.43337066 C2.47599747,1.43337066 2.15446807,1.11249971 2.15446807,0.71668533 C2.15446807,0.320870952 2.47599747,0 2.87262409,0 Z" id="Rectangle-Copy-2" fill-opacity="0.35" fill="#67696F"></path>
                                <path d="M13.6449644,0 L17.9539006,0 C18.3505272,0 18.6720566,0.320870952 18.6720566,0.71668533 C18.6720566,1.11249971 18.3505272,1.43337066 17.9539006,1.43337066 L13.6449644,1.43337066 C13.2483378,1.43337066 12.9268084,1.11249971 12.9268084,0.71668533 C12.9268084,0.320870952 13.2483378,0 13.6449644,0 Z" id="Rectangle-Copy-5" fill-opacity="0.35" fill="#67696F"></path>
                                <path d="M0.718156022,0 C1.11478264,0 1.43631204,0.320870952 1.43631204,0.71668533 C1.43631204,1.11249971 1.11478264,1.43337066 0.718156022,1.43337066 C0.321529403,1.43337066 0,1.11249971 0,0.71668533 C0,0.320870952 0.321529403,0 0.718156022,0 Z" id="Rectangle-Copy-4" fill="#DFE0E1" opacity="0.647623698"></path>
                                <path d="M11.4904964,0 C11.887123,0 12.2086524,0.320870952 12.2086524,0.71668533 C12.2086524,1.11249971 11.887123,1.43337066 11.4904964,1.43337066 C11.0938697,1.43337066 10.7723403,1.11249971 10.7723403,0.71668533 C10.7723403,0.320870952 11.0938697,0 11.4904964,0 Z" id="Rectangle-Copy-6" fill="#ACAEB2" opacity="0.647623698"></path>
                            </g>
                        </g>
                    </g>
                </g>
            </g>
        </g>
    </g>
</svg>
