<?xml version="1.0" encoding="UTF-8"?>
<svg width="236px" height="148px" viewBox="0 0 236 148" version="1.1" xmlns="http://www.w3.org/2000/svg" xmlns:xlink="http://www.w3.org/1999/xlink">
    <defs>
        <path d="M5.68414183,0 L60.5590258,0 C63.0031033,0 64.9844196,1.97621156 64.9844196,4.41399207 C64.9844196,7.1849982 64.9844196,9.20807789 64.9844196,10.4832312 C64.9844196,18.8207717 64.9844196,31.2167328 64.9844196,47.6711143 C64.9844196,50.1088948 63.0031033,52.0851064 60.5590258,52.0851064 L5.68414183,52.0851064 C3.24006429,52.0851064 1.25874797,50.1088948 1.25874797,47.6711143 C1.25874797,31.0695997 1.25874797,18.6736387 1.25874797,10.4832312 C1.25874797,9.06094483 1.25874797,7.03786513 1.25874797,4.41399207 C1.25874797,1.97621156 3.24006429,0 5.68414183,0 Z" id="path-1"></path>
        <filter x="-24.3%" y="-22.1%" width="148.6%" height="159.5%" filterUnits="objectBoundingBox" id="filter-2">
            <feOffset dx="0" dy="4" in="SourceAlpha" result="shadowOffsetOuter1"></feOffset>
            <feGaussianBlur stdDeviation="4.5" in="shadowOffsetOuter1" result="shadowBlurOuter1"></feGaussianBlur>
            <feColorMatrix values="0 0 0 0 0   0 0 0 0 0   0 0 0 0 0  0 0 0 0.07 0" type="matrix" in="shadowBlurOuter1"></feColorMatrix>
        </filter>
        <path d="M4.42539387,0 L59.3002778,0 C61.7443554,0 63.7256717,1.97621156 63.7256717,4.41399207 C63.7256717,7.1849982 63.7256717,9.20807789 63.7256717,10.4832312 C63.7256717,18.8207717 63.7256717,31.2167328 63.7256717,47.6711143 C63.7256717,50.1088948 61.7443554,52.0851064 59.3002778,52.0851064 L4.42539387,52.0851064 C1.98131632,52.0851064 0,50.1088948 0,47.6711143 C0,31.0695997 0,18.6736387 0,10.4832312 C0,9.06094483 0,7.03786513 0,4.41399207 C0,1.97621156 1.98131632,0 4.42539387,0 Z" id="path-3"></path>
        <filter x="-24.3%" y="-22.1%" width="148.6%" height="159.5%" filterUnits="objectBoundingBox" id="filter-4">
            <feOffset dx="0" dy="4" in="SourceAlpha" result="shadowOffsetOuter1"></feOffset>
            <feGaussianBlur stdDeviation="4.5" in="shadowOffsetOuter1" result="shadowBlurOuter1"></feGaussianBlur>
            <feColorMatrix values="0 0 0 0 0   0 0 0 0 0   0 0 0 0 0  0 0 0 0.07 0" type="matrix" in="shadowBlurOuter1"></feColorMatrix>
        </filter>
        <path d="M7.63344404,0.454549744 L34.2935469,0.454549744 C35.4263328,0.454549744 36.3446371,1.36903196 36.3446371,2.49710294 L36.3446371,46.4119966 C36.3446371,47.5400675 35.4263328,48.4545497 34.2935469,48.4545497 L3.52719403,48.4545497 C2.39440819,48.4545497 1.47610384,47.5400675 1.47610384,46.4119966 L1.47610384,5.89641021 L7.63344404,0.454549744 Z" id="path-5"></path>
        <filter x="-34.4%" y="-18.8%" width="168.8%" height="150.0%" filterUnits="objectBoundingBox" id="filter-6">
            <feOffset dx="0" dy="3" in="SourceAlpha" result="shadowOffsetOuter1"></feOffset>
            <feGaussianBlur stdDeviation="3.5" in="shadowOffsetOuter1" result="shadowBlurOuter1"></feGaussianBlur>
            <feColorMatrix values="0 0 0 0 0   0 0 0 0 0   0 0 0 0 0  0 0 0 0.05 0" type="matrix" in="shadowBlurOuter1"></feColorMatrix>
        </filter>
        <path d="M6.42216811,1.1433763 L33.082271,1.1433763 C34.2150568,1.1433763 35.1333612,2.05785851 35.1333612,3.18592949 L35.1333612,47.1008231 C35.1333612,48.2288941 34.2150568,49.1433763 33.082271,49.1433763 L2.3159181,49.1433763 C1.18313226,49.1433763 0.264827905,48.2288941 0.264827905,47.1008231 L0.264827905,6.58523677 L6.42216811,1.1433763 Z" id="path-7"></path>
        <filter x="-44.5%" y="-24.0%" width="188.9%" height="164.6%" filterUnits="objectBoundingBox" id="filter-8">
            <feOffset dx="0" dy="4" in="SourceAlpha" result="shadowOffsetOuter1"></feOffset>
            <feGaussianBlur stdDeviation="4.5" in="shadowOffsetOuter1" result="shadowBlurOuter1"></feGaussianBlur>
            <feColorMatrix values="0 0 0 0 0   0 0 0 0 0   0 0 0 0 0  0 0 0 0.07 0" type="matrix" in="shadowBlurOuter1"></feColorMatrix>
        </filter>
        <path d="M6.26869904,4.29018109 L10.215029,7.7206734 L10.215029,7.7206734 L0.383688786,7.75403505 L3.49731933,4.43191776 C4.23275459,3.64723821 5.45704862,3.58462414 6.26869904,4.29018109 Z" id="path-9"></path>
        <filter x="-20.3%" y="-47.1%" width="140.7%" height="168.2%" filterUnits="objectBoundingBox" id="filter-10">
            <feOffset dx="0" dy="-1" in="SourceAlpha" result="shadowOffsetOuter1"></feOffset>
            <feGaussianBlur stdDeviation="0.5" in="shadowOffsetOuter1" result="shadowBlurOuter1"></feGaussianBlur>
            <feColorMatrix values="0 0 0 0 0   0 0 0 0 0   0 0 0 0 0  0 0 0 0.17 0" type="matrix" in="shadowBlurOuter1"></feColorMatrix>
        </filter>
        <path d="M2.8454286,0.668196424 L42.406079,0.668196424 C43.0681622,0.668196424 43.6048866,1.20942059 43.6048866,1.87705444 L43.6048866,58.693381 C43.6048866,59.3610148 43.0681622,59.902239 42.406079,59.902239 L2.8454286,59.902239 C2.18334546,59.902239 1.64662102,59.3610148 1.64662102,58.693381 L1.64662102,1.87705444 C1.64662102,1.20942059 2.18334546,0.668196424 2.8454286,0.668196424 Z" id="path-11"></path>
        <filter x="-17.9%" y="-7.6%" width="135.7%" height="125.3%" filterUnits="objectBoundingBox" id="filter-12">
            <feOffset dx="0" dy="3" in="SourceAlpha" result="shadowOffsetOuter1"></feOffset>
            <feGaussianBlur stdDeviation="2" in="shadowOffsetOuter1" result="shadowBlurOuter1"></feGaussianBlur>
            <feColorMatrix values="0 0 0 0 0   0 0 0 0 0   0 0 0 0 0  0 0 0 0.07 0" type="matrix" in="shadowBlurOuter1"></feColorMatrix>
        </filter>
        <path d="M1.65608204,2.12210246 L41.2167325,2.12210246 C41.8788156,2.12210246 42.41554,2.66332663 42.41554,3.33096047 L42.41554,60.147287 C42.41554,60.8149208 41.8788156,61.356145 41.2167325,61.356145 L1.65608204,61.356145 C0.993998891,61.356145 0.457274451,60.8149208 0.457274451,60.147287 L0.457274451,3.33096047 C0.457274451,2.66332663 0.993998891,2.12210246 1.65608204,2.12210246 Z" id="path-13"></path>
        <filter x="-36.9%" y="-19.4%" width="173.9%" height="152.3%" filterUnits="objectBoundingBox" id="filter-14">
            <feOffset dx="0" dy="4" in="SourceAlpha" result="shadowOffsetOuter1"></feOffset>
            <feGaussianBlur stdDeviation="4.5" in="shadowOffsetOuter1" result="shadowBlurOuter1"></feGaussianBlur>
            <feColorMatrix values="0 0 0 0 0   0 0 0 0 0   0 0 0 0 0  0 0 0 0.07 0" type="matrix" in="shadowBlurOuter1"></feColorMatrix>
        </filter>
        <linearGradient x1="50%" y1="1.00031672%" x2="50%" y2="99.3243243%" id="linearGradient-15">
            <stop stop-color="#FFFFFF" stop-opacity="0" offset="0%"></stop>
            <stop stop-color="#FFFFFF" offset="100%"></stop>
        </linearGradient>
        <path d="M6.65192016,0 L70.1010047,0 C72.9269694,0 75.2178664,2.28620553 75.2178664,5.10638298 C75.2178664,8.31205674 75.2178664,10.6524823 75.2178664,12.1276596 C75.2178664,21.7730496 75.2178664,36.1134752 75.2178664,55.1489362 C75.2178664,57.9691136 72.9269694,60.2553191 70.1010047,60.2553191 L6.65192016,60.2553191 C3.82595549,60.2553191 1.5350585,57.9691136 1.5350585,55.1489362 C1.5350585,35.9432624 1.5350585,21.6028369 1.5350585,12.1276596 C1.5350585,10.4822695 1.5350585,8.14184397 1.5350585,5.10638298 C1.5350585,2.28620553 3.82595549,0 6.65192016,0 Z" id="path-16"></path>
        <filter x="-21.0%" y="-19.1%" width="142.1%" height="151.4%" filterUnits="objectBoundingBox" id="filter-17">
            <feOffset dx="0" dy="4" in="SourceAlpha" result="shadowOffsetOuter1"></feOffset>
            <feGaussianBlur stdDeviation="4.5" in="shadowOffsetOuter1" result="shadowBlurOuter1"></feGaussianBlur>
            <feColorMatrix values="0 0 0 0 0   0 0 0 0 0   0 0 0 0 0  0 0 0 0.07 0" type="matrix" in="shadowBlurOuter1"></feColorMatrix>
        </filter>
        <path d="M5.11686166,0 L68.5659462,0 C71.3919109,0 73.6828079,2.28620553 73.6828079,5.10638298 C73.6828079,8.31205674 73.6828079,10.6524823 73.6828079,12.1276596 C73.6828079,21.7730496 73.6828079,36.1134752 73.6828079,55.1489362 C73.6828079,57.9691136 71.3919109,60.2553191 68.5659462,60.2553191 L5.11686166,60.2553191 C2.290897,60.2553191 0,57.9691136 0,55.1489362 C0,35.9432624 0,21.6028369 0,12.1276596 C0,10.4822695 0,8.14184397 0,5.10638298 C0,2.28620553 2.290897,0 5.11686166,0 Z" id="path-18"></path>
        <filter x="-21.0%" y="-19.1%" width="142.1%" height="151.4%" filterUnits="objectBoundingBox" id="filter-19">
            <feOffset dx="0" dy="4" in="SourceAlpha" result="shadowOffsetOuter1"></feOffset>
            <feGaussianBlur stdDeviation="4.5" in="shadowOffsetOuter1" result="shadowBlurOuter1"></feGaussianBlur>
            <feColorMatrix values="0 0 0 0 0   0 0 0 0 0   0 0 0 0 0  0 0 0 0.07 0" type="matrix" in="shadowBlurOuter1"></feColorMatrix>
        </filter>
    </defs>
    <g id="In-App-generic-empty-states" stroke="none" stroke-width="1" fill="none" fill-rule="evenodd">
        <g id="Generic-Empty-State_No-data" transform="translate(-92.000000, -610.000000)">
            <g id="Bright" transform="translate(88.000000, 70.000000)">
                <g id="No-data_M" transform="translate(1.000000, 503.000000)">
                    <g id="No-data-_M-drawing" transform="translate(3.000000, 41.000000)">
                        <path d="M52.8947938,2.06175707 C98.7718148,3.53549583 146.987884,-0.395141568 190.834321,11.1609907 C224.882203,20.1346236 209.931052,104.366833 201.60442,126.671085 C193.277789,148.975338 160.627935,131.310275 118.610839,131.310275 C76.5937425,131.310275 52.8947938,151.138042 33.5360357,126.671085 C5.52463824,84.3040603 7.01777278,0.588018297 52.8947938,2.06175707 Z" id="Rectangle" fill="#CCCED3" opacity="0.08"></path>
                        <path d="M74.2357781,0.72244394 C110.45939,-4.18827163 177.113603,16.5605692 217.633618,43.9840145 C249.098448,65.2790226 198.908824,118.379004 180.883742,133.594395 C162.85866,148.809786 133.883019,145.587147 87.7705837,135.132266 C41.6581487,124.677384 11.376373,124.998601 1.65161154,96.7475221 C-9.48321079,50.0635786 38.0121665,5.63315951 74.2357781,0.72244394 Z" id="Rectangle-Copy" fill="#F1F2F5" opacity="0.22"></path>
                        <g id="Decorations" transform="translate(1.116862, 1.021277)" fill="#CCCED3">
                            <path d="M101.825547,53.5531915 C101.982545,53.5531915 102.11312,53.6660905 102.140198,53.814973 L102.145351,53.8723404 L102.145351,54.8297872 C102.145351,55.0060483 102.00217,55.1489362 101.825547,55.1489362 C101.668549,55.1489362 101.537974,55.0360371 101.510896,54.8871547 L101.505743,54.8297872 L101.505743,53.8723404 C101.505743,53.6960793 101.648924,53.5531915 101.825547,53.5531915 Z M102.911933,53.2358328 L102.956224,53.2727618 L103.634631,53.9497789 C103.759522,54.0744144 103.759522,54.2764883 103.634631,54.4011237 C103.523616,54.5119107 103.35129,54.5242204 103.226651,54.4380527 L103.18236,54.4011237 L102.503953,53.7241066 C102.379062,53.5994712 102.379062,53.3973972 102.503953,53.2727618 C102.601091,53.1758232 102.74517,53.1542812 102.863171,53.208136 L102.911933,53.2358328 Z M101.147141,53.2727618 C101.258155,53.3835488 101.27049,53.5555219 101.184145,53.6799058 L101.147141,53.7241066 L100.468734,54.4011237 C100.343843,54.5257591 100.141354,54.5257591 100.016463,54.4011237 C99.9054488,54.2903367 99.8931139,54.1183636 99.9794584,53.9939797 L100.016463,53.9497789 L100.69487,53.2727618 C100.819761,53.1481264 101.022249,53.1481264 101.147141,53.2727618 Z M104.064174,52.2765957 C104.240797,52.2765957 104.383978,52.4194836 104.383978,52.5957447 C104.383978,52.7524212 104.270847,52.8827287 104.121659,52.9097517 L104.064174,52.9148936 L103.104762,52.9148936 C102.92814,52.9148936 102.784959,52.7720058 102.784959,52.5957447 C102.784959,52.4390682 102.898089,52.3087606 103.047277,52.2817377 L103.104762,52.2765957 L104.064174,52.2765957 Z M100.546332,52.2765957 C100.722954,52.2765957 100.866135,52.4194836 100.866135,52.5957447 C100.866135,52.7524212 100.753005,52.8827287 100.603817,52.9097517 L100.546332,52.9148936 L99.58692,52.9148936 C99.4102972,52.9148936 99.2671162,52.7720058 99.2671162,52.5957447 C99.2671162,52.4390682 99.3802469,52.3087606 99.5294349,52.2817377 L99.58692,52.2765957 L100.546332,52.2765957 Z M100.424443,50.7534367 L100.468734,50.7903657 L101.147141,51.4673828 C101.272032,51.5920182 101.272032,51.7940921 101.147141,51.9187275 C101.036126,52.0295146 100.8638,52.0418243 100.739161,51.9556566 L100.69487,51.9187275 L100.016463,51.2417104 C99.891572,51.117075 99.891572,50.9150011 100.016463,50.7903657 C100.113601,50.693427 100.25768,50.6718851 100.375681,50.7257399 L100.424443,50.7534367 Z M103.634631,50.7903657 C103.745645,50.9011527 103.75798,51.0731257 103.671636,51.1975096 L103.634631,51.2417104 L102.956224,51.9187275 C102.831333,52.043363 102.628845,52.043363 102.503953,51.9187275 C102.392939,51.8079405 102.380604,51.6359675 102.466949,51.5115836 L102.503953,51.4673828 L103.18236,50.7903657 C103.307251,50.6657303 103.50974,50.6657303 103.634631,50.7903657 Z M101.825547,50.0425532 C101.982545,50.0425532 102.11312,50.1554522 102.140198,50.3043347 L102.145351,50.3617021 L102.145351,51.3191489 C102.145351,51.49541 102.00217,51.6382979 101.825547,51.6382979 C101.668549,51.6382979 101.537974,51.5253988 101.510896,51.3765164 L101.505743,51.3191489 L101.505743,50.3617021 C101.505743,50.185441 101.648924,50.0425532 101.825547,50.0425532 Z" id="Combined-Shape-Copy-5" fill-rule="nonzero"></path>
                            <ellipse id="Oval" cx="204.398715" cy="83.2340426" rx="2.55843083" ry="2.55319149"></ellipse>
                            <ellipse id="Oval-Copy-2" cx="123.316366" cy="75.511843" rx="1.5350585" ry="1.53191489"></ellipse>
                            <path d="M137.355496,17.3599969 L138.337892,17.3594056 C138.614034,17.3592393 138.838027,17.5829622 138.838193,17.8591045 C138.838193,17.8593053 138.838193,17.8595061 138.838193,17.8597069 L138.826478,37.2892408 C138.826311,37.5651479 138.602686,37.7887732 138.326779,37.7889392 L137.344383,37.7895306 C137.068241,37.7896968 136.844248,37.565974 136.844082,37.2898317 C136.844082,37.2896309 136.844082,37.28943 136.844082,37.2892292 L136.855798,17.8596954 C136.855964,17.5837883 137.079589,17.360163 137.355496,17.3599969 Z" id="Rectangle-Copy-6" opacity="0.339076451" transform="translate(137.841138, 27.574468) scale(-1, 1) rotate(18.000000) translate(-137.841138, -27.574468) "></path>
                            <rect id="Rectangle-Copy-5" opacity="0.339076451" x="162.716201" y="99.0638298" width="2.04674466" height="16.3404255" rx="0.5"></rect>
                            <ellipse id="Oval-Copy-3" cx="1.02337233" cy="36.1926941" rx="1.02337233" ry="1.0212766"></ellipse>
                            <ellipse id="Oval-Copy-4" cx="180.11353" cy="94.9787234" rx="1.02337233" ry="1.0212766"></ellipse>
                            <ellipse id="Oval-Copy" cx="51.1686166" cy="109.276596" rx="3.07011699" ry="3.06382979"></ellipse>
                            <g id="corner-llines" opacity="0.34" transform="translate(6.140234, 4.085106)">
                                <path d="M20.3671498,1.42389361 L21.4137133,1.42432951 C21.6896927,1.42486153 21.9133897,1.64855834 21.9139219,1.92453772 L21.9186191,13.1809441 C21.9191511,13.4570863 21.6953869,13.6810373 21.4192445,13.6811525 C21.4191056,13.6811526 21.4189666,13.6811526 21.4188278,13.6807358 L20.3722642,13.6802999 C20.0962849,13.6797679 19.8725879,13.456071 19.8720556,13.1800917 L19.8673584,1.92368531 C19.8668265,1.64754313 20.0905907,1.42359211 20.366733,1.42347688 C20.366872,1.42347682 20.367011,1.42347682 20.3671498,1.42389361 Z" id="Rectangle-Copy" transform="translate(20.892989, 7.552315) rotate(-12.000000) translate(-20.892989, -7.552315) "></path>
                                <path d="M10.3268715,-2.05320019 L11.371592,-2.05213005 C11.6473343,-2.0518476 11.8707971,-1.82838479 11.8710796,-1.55264252 L11.8909997,17.8931138 C11.8912826,18.169256 11.6676544,18.3933428 11.3915122,18.3936257 C11.3911708,18.3936261 11.3908293,18.3936261 11.3904878,18.3936257 L10.3457674,18.3925556 C10.0700251,18.3922731 9.84656225,18.1688103 9.84627978,17.893068 L9.82635959,-1.55268825 C9.82607671,-1.82883048 10.0497049,-2.05291731 10.3258471,-2.05320019 C10.3261886,-2.05320054 10.32653,-2.05320054 10.3268715,-2.05320019 Z" id="Rectangle-Copy-2" transform="translate(10.858680, 8.170213) rotate(-44.000000) translate(-10.858680, -8.170213) "></path>
                                <path d="M7.66188289,9.62359259 L8.70471646,9.62412751 C8.98065868,9.62426905 9.20431863,9.8479292 9.20445992,10.1238714 L9.21233083,25.4955821 C9.21247222,25.7717245 8.98872925,25.9956967 8.71258691,25.9958381 C8.71241608,25.9958382 8.71224525,25.9958382 8.71207442,25.9958381 L7.66924085,25.9953032 C7.39329863,25.9951616 7.16963868,25.7715015 7.16949738,25.4955593 L7.16162648,10.1238485 C7.16148508,9.8477062 7.38522806,9.62373398 7.66137039,9.62359259 C7.66154123,9.6235925 7.66171206,9.6235925 7.66188289,9.62359259 Z" id="Rectangle-Copy-4" transform="translate(8.186979, 17.809715) rotate(-75.000000) translate(-8.186979, -17.809715) "></path>
                            </g>
                            <path d="M58.6319617,89.1501888 C59.000871,88.782035 59.5813596,88.7537155 59.9828196,89.0652302 L60.0792288,89.1501888 L62.9732164,92.0374468 L65.8682969,89.1501888 C66.2679486,88.7513555 66.9159121,88.7513555 67.3155639,89.1501888 C67.7152157,89.5490221 67.7152157,90.1956587 67.3155639,90.594492 L64.4212883,93.4825532 L67.3155639,96.3717049 C67.6844732,96.7398587 67.7128509,97.3191585 67.4006968,97.7197963 L67.3155639,97.8160081 C66.9466546,98.1841619 66.366166,98.2124815 65.9647061,97.9009667 L65.8682969,97.8160081 L62.9732164,94.9276596 L60.0792288,97.8160081 C59.679577,98.2148414 59.0316135,98.2148414 58.6319617,97.8160081 C58.23231,97.4171748 58.23231,96.7705382 58.6319617,96.3717049 L61.5251446,93.4825532 L58.6319617,90.594492 C58.2630524,90.2263382 58.2346748,89.6470384 58.5468288,89.2464006 L58.6319617,89.1501888 Z" id="Path"></path>
                            <path d="M216.527822,65.493605 C216.704054,65.6694755 216.704054,65.9546179 216.527822,66.1304884 L215.250812,67.4042553 L216.527822,68.6780222 C216.682025,68.8319089 216.7013,69.0694569 216.585648,69.2442589 L216.527822,69.3149056 C216.37362,69.4687923 216.135584,69.4880282 215.960423,69.3726131 L215.889632,69.3149056 L214.613251,68.0405106 L213.33687,69.3149056 C213.160639,69.4907761 212.874911,69.4907761 212.69868,69.3149056 C212.522448,69.1390351 212.522448,68.8538927 212.69868,68.6780222 L213.97569,67.4042553 L212.69868,66.1304884 C212.544477,65.9766018 212.525202,65.7390537 212.640854,65.5642517 L212.69868,65.493605 C212.852882,65.3397183 213.090918,65.3204825 213.266079,65.4358975 L213.33687,65.493605 L214.613251,66.768 L215.889632,65.493605 C216.065863,65.3177345 216.351591,65.3177345 216.527822,65.493605 Z" id="Path"></path>
                            <path d="M102.998101,9.63950256 C103.153131,9.63950256 103.278808,9.76492185 103.278808,9.91963439 L103.278736,10.6423962 L103.792059,10.1317948 C103.901682,10.0223966 104.079416,10.0223966 104.189039,10.1317948 C104.298661,10.2411931 104.298661,10.4185628 104.189039,10.5279611 L103.674781,11.0396728 L104.401634,11.0401617 C104.530826,11.0401617 104.639633,11.1272585 104.672314,11.2458234 L104.682341,11.3202935 C104.682341,11.4529043 104.590007,11.5639935 104.465998,11.5930269 L104.401634,11.6004254 L103.675804,11.6003536 L104.189039,12.112626 C104.280391,12.2037913 104.295616,12.3421588 104.234715,12.4490582 L104.189039,12.5087922 C104.097686,12.5999575 103.959035,12.6151517 103.851916,12.5543749 L103.792059,12.5087922 L103.278736,11.996609 L103.278808,12.7209527 C103.278808,12.8756652 103.153131,13.0010845 102.998101,13.0010845 C102.843071,13.0010845 102.717394,12.8756652 102.717394,12.7209527 L102.716904,11.9955877 L102.204143,12.5087922 C102.09452,12.6181905 101.916786,12.6181905 101.807163,12.5087922 C101.697541,12.399394 101.697541,12.2220243 101.807163,12.112626 L102.318812,11.6003536 L101.594568,11.6004254 C101.465376,11.6004254 101.356568,11.5133286 101.323888,11.3947637 L101.313861,11.3202935 C101.313861,11.1876828 101.406195,11.0765936 101.530204,11.0475602 L101.594568,11.0401617 L102.319836,11.0396728 L101.807163,10.5279611 C101.715811,10.4367958 101.700586,10.2984283 101.761487,10.1915289 L101.807163,10.1317949 C101.898516,10.0406296 102.037167,10.0254354 102.144286,10.0862122 L102.204143,10.1317949 L102.716904,10.6434175 L102.717394,9.91963439 C102.717394,9.76492185 102.843071,9.63950256 102.998101,9.63950256 Z" id="Path"></path>
                            <path d="M7.67529249,48.4480132 C7.81659072,48.4480132 7.93113557,48.5623235 7.93113557,48.7033324 L7.93126349,49.2541834 L8.39325665,48.7935302 C8.49238682,48.6946031 8.65310857,48.6946031 8.75223874,48.7935302 C8.8513689,48.8924574 8.8513689,49.05285 8.75223874,49.1517772 L8.17802415,49.7244813 L8.9545079,49.724609 C9.08167631,49.724609 9.18717448,49.8172003 9.20700243,49.938514 L9.21035098,49.9799281 C9.21035098,50.108118 9.11568582,50.2142429 8.99231452,50.2324789 L8.9545079,50.2352473 L8.40175892,50.2349919 L8.75223874,50.5847649 C8.84145589,50.6737993 8.8503776,50.8126208 8.77900388,50.9116127 L8.75223874,50.9430118 C8.66302159,51.0320463 8.52391525,51.0409497 8.42472027,50.9697222 L8.39325665,50.9430118 L7.93126349,50.4820132 L7.93113557,51.2565238 C7.93113557,51.3975327 7.81659072,51.511843 7.67529249,51.511843 C7.53399425,51.511843 7.4194494,51.3975327 7.4194494,51.2565238 L7.41932148,50.4816302 L6.95732832,50.9430118 C6.85819816,51.041939 6.6974764,51.041939 6.59834624,50.9430118 C6.49921607,50.8440847 6.49921607,50.6836921 6.59834624,50.5847649 L6.94844229,50.2349919 L6.39607707,50.2352473 C6.26890866,50.2352473 6.16341049,50.1426559 6.14358254,50.0213422 L6.14023399,49.9799281 C6.14023399,49.8517382 6.23489916,49.7456133 6.35827046,49.7273773 L6.39607707,49.724609 L7.1717933,49.7244813 L6.59834624,49.1517772 C6.50912909,49.0627427 6.50020737,48.9239213 6.57158109,48.8249294 L6.59834624,48.7935302 C6.68756339,48.7044958 6.82666972,48.6955923 6.92586471,48.7668199 L6.95732832,48.7935302 L7.41932148,49.2545664 L7.4194494,48.7033324 C7.4194494,48.5623235 7.53399425,48.4480132 7.67529249,48.4480132 Z" id="Path"></path>
                            <path d="M126.085148,31.5969494 C126.336345,31.5969494 126.545264,31.7775878 126.58859,32.0157998 L126.596834,32.1075877 L126.596834,33.6395026 C126.596834,33.9215203 126.367744,34.1501409 126.085148,34.1501409 C125.833951,34.1501409 125.625031,33.9695024 125.581705,33.7312905 L125.573462,33.6395026 L125.573462,32.1075877 C125.573462,31.8255699 125.802551,31.5969494 126.085148,31.5969494 Z M127.823365,31.0891755 L127.894231,31.1482619 L128.979682,32.2314893 C129.179508,32.430906 129.179508,32.7542243 128.979682,32.9536409 C128.802059,33.1309002 128.526337,33.1505956 128.326915,33.0127273 L128.256048,32.9536409 L127.170598,31.8704135 C126.970772,31.6709968 126.970772,31.3476786 127.170598,31.1482619 C127.326018,30.99316 127.556545,30.958693 127.745346,31.0448607 L127.823365,31.0891755 Z M124.999697,31.1482619 C125.17732,31.3255211 125.197056,31.600678 125.058905,31.7996923 L124.999697,31.8704135 L123.914247,32.9536409 C123.714421,33.1530576 123.390439,33.1530576 123.190614,32.9536409 C123.012991,32.7763817 122.993255,32.5012248 123.131406,32.3022106 L123.190614,32.2314893 L124.276064,31.1482619 C124.47589,30.9488452 124.799872,30.9488452 124.999697,31.1482619 Z M129.666951,29.5543962 C129.949547,29.5543962 130.178637,29.7830167 130.178637,30.0650345 C130.178637,30.3157169 129.997628,30.524209 129.758927,30.5674457 L129.666951,30.5756728 L128.131892,30.5756728 C127.849296,30.5756728 127.620206,30.3470522 127.620206,30.0650345 C127.620206,29.814352 127.801215,29.60586 128.039916,29.5626233 L128.131892,29.5543962 L129.666951,29.5543962 Z M124.038403,29.5543962 C124.320999,29.5543962 124.550089,29.7830167 124.550089,30.0650345 C124.550089,30.3157169 124.36908,30.524209 124.130379,30.5674457 L124.038403,30.5756728 L122.503345,30.5756728 C122.220748,30.5756728 121.991658,30.3470522 121.991658,30.0650345 C121.991658,29.814352 122.172667,29.60586 122.411368,29.5626233 L122.503345,29.5543962 L124.038403,29.5543962 Z M123.843381,27.1173416 L123.914247,27.1764281 L124.999697,28.2596555 C125.199523,28.4590721 125.199523,28.7823904 124.999697,28.9818071 C124.822074,29.1590663 124.546353,29.1787618 124.34693,29.0408935 L124.276064,28.9818071 L123.190614,27.8985797 C122.990788,27.699163 122.990788,27.3758447 123.190614,27.1764281 C123.346034,27.0213262 123.576561,26.9868591 123.765361,27.0730268 L123.843381,27.1173416 Z M128.979682,27.1764281 C129.157305,27.3536873 129.177041,27.6288441 129.038889,27.8278584 L128.979682,27.8985797 L127.894231,28.9818071 C127.694406,29.1812237 127.370424,29.1812237 127.170598,28.9818071 C126.992975,28.8045478 126.973239,28.529391 127.11139,28.3303767 L127.170598,28.2596555 L128.256048,27.1764281 C128.455874,26.9770114 128.779856,26.9770114 128.979682,27.1764281 Z M126.085148,25.9799281 C126.336345,25.9799281 126.545264,26.1605666 126.58859,26.3987785 L126.596834,26.4905664 L126.596834,28.0224813 C126.596834,28.304499 126.367744,28.5331196 126.085148,28.5331196 C125.833951,28.5331196 125.625031,28.3524811 125.581705,28.1142692 L125.573462,28.0224813 L125.573462,26.4905664 C125.573462,26.2085487 125.802551,25.9799281 126.085148,25.9799281 Z" id="Combined-Shape" fill-rule="nonzero"></path>
                            <path d="M194.158596,5.61702128 C194.409793,5.61702128 194.618712,5.79765974 194.662038,6.03587169 L194.670282,6.12765957 L194.670282,7.65957447 C194.670282,7.94159221 194.441192,8.17021277 194.158596,8.17021277 C193.907399,8.17021277 193.698479,7.9895743 193.655153,7.75136235 L193.64691,7.65957447 L193.64691,6.12765957 C193.64691,5.84564183 193.875999,5.61702128 194.158596,5.61702128 Z M195.896813,5.10924737 L195.967679,5.16833379 L197.05313,6.2515612 C197.252956,6.45097786 197.252956,6.77429615 197.05313,6.97371281 C196.875507,7.15097206 196.599785,7.17066753 196.400363,7.03279923 L196.329496,6.97371281 L195.244046,5.8904854 C195.04422,5.69106874 195.04422,5.36775045 195.244046,5.16833379 C195.399466,5.01323195 195.629993,4.97876487 195.818794,5.06493256 L195.896813,5.10924737 Z M193.073145,5.16833379 C193.250768,5.34559305 193.270504,5.62074988 193.132353,5.81976415 L193.073145,5.8904854 L191.987695,6.97371281 C191.787869,7.17312947 191.463887,7.17312947 191.264062,6.97371281 C191.086439,6.79645356 191.066703,6.52129672 191.204854,6.32228245 L191.264062,6.2515612 L192.349512,5.16833379 C192.549338,4.96891713 192.87332,4.96891713 193.073145,5.16833379 Z M197.740399,3.57446809 C198.022995,3.57446809 198.252085,3.80308864 198.252085,4.08510638 C198.252085,4.33578882 198.071076,4.54428089 197.832375,4.58751761 L197.740399,4.59574468 L196.20534,4.59574468 C195.922744,4.59574468 195.693654,4.36712413 195.693654,4.08510638 C195.693654,3.83442394 195.874663,3.62593188 196.113364,3.58269515 L196.20534,3.57446809 L197.740399,3.57446809 Z M192.111851,3.57446809 C192.394447,3.57446809 192.623537,3.80308864 192.623537,4.08510638 C192.623537,4.33578882 192.442528,4.54428089 192.203827,4.58751761 L192.111851,4.59574468 L190.576793,4.59574468 C190.294196,4.59574468 190.065106,4.36712413 190.065106,4.08510638 C190.065106,3.83442394 190.246115,3.62593188 190.484816,3.58269515 L190.576793,3.57446809 L192.111851,3.57446809 Z M191.916829,1.13741354 L191.987695,1.19649996 L193.073145,2.27972737 C193.272971,2.47914403 193.272971,2.80246231 193.073145,3.00187897 C192.895522,3.17913823 192.619801,3.1988337 192.420378,3.06096539 L192.349512,3.00187897 L191.264062,1.91865156 C191.064236,1.7192349 191.064236,1.39591662 191.264062,1.19649996 C191.419482,1.04139811 191.650009,1.00693103 191.838809,1.09309873 L191.916829,1.13741354 Z M197.05313,1.19649996 C197.230753,1.37375921 197.250489,1.64891605 197.112337,1.84793032 L197.05313,1.91865156 L195.967679,3.00187897 C195.767854,3.20129563 195.443872,3.20129563 195.244046,3.00187897 C195.066423,2.82461972 195.046687,2.54946289 195.184838,2.35044861 L195.244046,2.27972737 L196.329496,1.19649996 C196.529322,0.997083298 196.853304,0.997083298 197.05313,1.19649996 Z M194.158596,8.84398937e-15 C194.409793,8.84398937e-15 194.618712,0.180638462 194.662038,0.418850418 L194.670282,0.510638298 L194.670282,2.04255319 C194.670282,2.32457094 194.441192,2.55319149 194.158596,2.55319149 C193.907399,2.55319149 193.698479,2.37255303 193.655153,2.13434107 L193.64691,2.04255319 L193.64691,0.510638298 C193.64691,0.228620553 193.875999,8.84398937e-15 194.158596,8.84398937e-15 Z" id="Combined-Shape-Copy-5" fill-rule="nonzero"></path>
                        </g>
                        <g id="Doughnut" transform="translate(26.701170, 22.468085)">
                            <g id="base">
                                <g id="Path">
                                    <use fill="black" fill-opacity="1" filter="url(#filter-2)" xlink:href="#path-1"></use>
                                    <use fill="#FFFFFF" fill-rule="evenodd" xlink:href="#path-1"></use>
                                </g>
                                <g id="Path">
                                    <use fill="black" fill-opacity="1" filter="url(#filter-4)" xlink:href="#path-3"></use>
                                    <use fill="#FFFFFF" fill-rule="evenodd" xlink:href="#path-3"></use>
                                </g>
                                <path d="M4.42539387,-6.27266e-15 L59.3002778,-6.27266e-15 C61.7443554,-6.27266e-15 63.7256717,1.97621156 63.7256717,4.41399207 L63.7256717,10.4832312 L0,10.4832312 L0,4.41399207 C0,1.97621156 1.98131632,-6.27266e-15 4.42539387,-6.27266e-15 Z" id="Path-Copy" fill="#E8E9EC"></path>
                            </g>
                            <g id="Group-3" opacity="0.815359933" transform="translate(37.298830, 16.531915)" fill="#CCCED3" fill-rule="nonzero">
                                <path d="M7.89636719,16.0065625 C7.91673177,14.5403125 8.26292969,13.4253516 8.93496094,12.6616797 L8.93496094,12.6616797 L10.8135937,10.8135938 C12.3613021,9.20479167 13.1351562,7.57053385 13.1351562,5.91082031 C13.1351562,4.04746094 12.5624023,2.59648438 11.4168945,1.55789062 C10.2713867,0.519296875 8.6753125,0 6.62867187,0 C4.643125,0 3.04705078,0.524388021 1.84044922,1.57316406 C0.633847656,2.6219401 0.0203645833,4.04746094 0,5.84972656 L0,5.84972656 L3.71144531,5.84972656 C3.71144531,5.00459635 3.97873047,4.33511068 4.51330078,3.84126953 C5.04787109,3.34742839 5.75299479,3.10050781 6.62867187,3.10050781 C7.54507812,3.10050781 8.24001953,3.35251953 8.71349609,3.85654297 C9.18697266,4.36056641 9.42371094,5.09114583 9.42371094,6.04828125 C9.42371094,6.77122396 9.2200651,7.44325521 8.81277344,8.064375 C8.54803385,8.47166667 7.91927734,9.15642578 6.92650391,10.1186523 C5.93373047,11.0808789 5.26933594,11.9641927 4.93332031,12.7685938 C4.59730469,13.5729948 4.42929687,14.6523177 4.42929687,16.0065625 L4.42929687,16.0065625 L7.89636719,16.0065625 Z M6.26210937,22.726875 C6.93414062,22.726875 7.4534375,22.5385026 7.82,22.1617578 C8.1865625,21.785013 8.36984375,21.3166276 8.36984375,20.7566016 C8.36984375,20.1762109 8.18147135,19.6950977 7.80472656,19.3132617 C7.42798177,18.9314258 6.91377604,18.7405078 6.26210937,18.7405078 C5.620625,18.7405078 5.11151042,18.9263346 4.73476562,19.2979883 C4.35802083,19.6696419 4.16964844,20.1558464 4.16964844,20.7566016 C4.16964844,21.3166276 4.35038411,21.785013 4.71185547,22.1617578 C5.07332682,22.5385026 5.59007812,22.726875 6.26210937,22.726875 Z" id="?"></path>
                            </g>
                            <path d="M7.01010047,22.9787234 L22.6676971,22.9787234 C23.1481111,22.9787234 23.5375636,23.4359645 23.5375636,24 C23.5375636,24.5640355 23.1481111,25.0212766 22.6676971,25.0212766 L7.01010047,25.0212766 C6.52968648,25.0212766 6.14023399,24.5640355 6.14023399,24 C6.14023399,23.4359645 6.52968648,22.9787234 7.01010047,22.9787234 Z" id="Rectangle" fill="#CCCED3" opacity="0.647623698"></path>
                            <path d="M7.01010047,18.3829787 L22.6676971,18.3829787 C23.1481111,18.3829787 23.5375636,18.8402198 23.5375636,19.4042553 C23.5375636,19.9682908 23.1481111,20.4255319 22.6676971,20.4255319 L7.01010047,20.4255319 C6.52968648,20.4255319 6.14023399,19.9682908 6.14023399,19.4042553 C6.14023399,18.8402198 6.52968648,18.3829787 7.01010047,18.3829787 Z" id="Rectangle-Copy-3" fill="#CCCED3" opacity="0.647623698"></path>
                            <path d="M7.07057247,27.5744681 L15.4436188,27.5744681 C15.9574306,27.5744681 16.3739573,28.0317092 16.3739573,28.5957447 C16.3739573,29.1597802 15.9574306,29.6170213 15.4436188,29.6170213 L7.07057247,29.6170213 C6.55676072,29.6170213 6.14023399,29.1597802 6.14023399,28.5957447 C6.14023399,28.0317092 6.55676072,27.5744681 7.07057247,27.5744681 Z" id="Rectangle-Copy-2" fill="#CCCED3" opacity="0.647623698"></path>
                        </g>
                        <g id="DOC-Copy-2" transform="translate(197.664091, 46.400635) rotate(30.000000) translate(-197.664091, -46.400635) translate(179.164091, 21.400635)">
                            <g id="Rectangle">
                                <use fill="black" fill-opacity="1" filter="url(#filter-6)" xlink:href="#path-5"></use>
                                <use fill="#FFFFFF" fill-rule="evenodd" xlink:href="#path-5"></use>
                            </g>
                            <g id="Rectangle">
                                <use fill="black" fill-opacity="1" filter="url(#filter-8)" xlink:href="#path-7"></use>
                                <use fill="#FFFFFF" fill-rule="evenodd" xlink:href="#path-7"></use>
                            </g>
                            <g id="Triangle" transform="translate(5.299359, 5.390157) rotate(139.000000) translate(-5.299359, -5.390157) ">
                                <use fill="black" fill-opacity="1" filter="url(#filter-10)" xlink:href="#path-9"></use>
                                <use fill="#CCCED3" fill-rule="evenodd" xlink:href="#path-9"></use>
                            </g>
                        </g>
                        <g id="Excel" transform="translate(169.110895, 38.108469) rotate(-17.000000) translate(-169.110895, -38.108469) translate(147.110895, 7.108469)">
                            <g id="Rectangle">
                                <use fill="black" fill-opacity="1" filter="url(#filter-12)" xlink:href="#path-11"></use>
                                <use fill="#FFFFFF" fill-rule="evenodd" xlink:href="#path-11"></use>
                            </g>
                            <g id="Rectangle">
                                <use fill="black" fill-opacity="1" filter="url(#filter-14)" xlink:href="#path-13"></use>
                                <use fill="#FFFFFF" fill-rule="evenodd" xlink:href="#path-13"></use>
                            </g>
                            <g id="Grid" transform="translate(0.606877, 3.165692)">
                                <path d="M23.376748,3.58533273 L29.3707859,3.58533273 C29.7018275,3.58533273 29.9701897,3.85286742 29.9701897,4.18288818 L29.9701897,6.57311 C29.9701897,6.90313077 29.7018275,7.17066546 29.3707859,7.17066546 L23.376748,7.17066546 C23.0457064,7.17066546 22.7773442,6.90313077 22.7773442,6.57311 L22.7773442,4.18288818 C22.7773442,3.85286742 23.0457064,3.58533273 23.376748,3.58533273 Z" id="Rectangle" fill="#EBEBEC" opacity="0.0936104911"></path>
                                <path d="M4.19582656,3.58533273 L10.1898645,3.58533273 C10.5209061,3.58533273 10.7892683,3.85286742 10.7892683,4.18288818 L10.7892683,6.57311 C10.7892683,6.90313077 10.5209061,7.17066546 10.1898645,7.17066546 L4.19582656,7.17066546 C3.86478499,7.17066546 3.59642277,6.90313077 3.59642277,6.57311 L3.59642277,4.18288818 C3.59642277,3.85286742 3.86478499,3.58533273 4.19582656,3.58533273 Z" id="Rectangle-Copy-8" fill="#EBEBEC" opacity="0.0936104911"></path>
                                <path d="M32.9672087,3.58533273 L38.9612466,3.58533273 C39.2922882,3.58533273 39.5606504,3.85286742 39.5606504,4.18288818 L39.5606504,6.57311 C39.5606504,6.90313077 39.2922882,7.17066546 38.9612466,7.17066546 L32.9672087,7.17066546 C32.6361671,7.17066546 32.3678049,6.90313077 32.3678049,6.57311 L32.3678049,4.18288818 C32.3678049,3.85286742 32.6361671,3.58533273 32.9672087,3.58533273 Z" id="Rectangle-Copy-7" fill="#EBEBEC" opacity="0.0936104911"></path>
                                <path d="M13.7862873,3.58533273 L19.7803252,3.58533273 C20.1113668,3.58533273 20.379729,3.85286742 20.379729,4.18288818 L20.379729,6.57311 C20.379729,6.90313077 20.1113668,7.17066546 19.7803252,7.17066546 L13.7862873,7.17066546 C13.4552457,7.17066546 13.1868835,6.90313077 13.1868835,6.57311 L13.1868835,4.18288818 C13.1868835,3.85286742 13.4552457,3.58533273 13.7862873,3.58533273 Z" id="Rectangle-Copy-9" fill="#EBEBEC" opacity="0.0936104911"></path>
                                <path d="M23.376748,9.56088728 L29.3707859,9.56088728 C29.7018275,9.56088728 29.9701897,9.82842197 29.9701897,10.1584427 L29.9701897,12.5486646 C29.9701897,12.8786853 29.7018275,13.14622 29.3707859,13.14622 L23.376748,13.14622 C23.0457064,13.14622 22.7773442,12.8786853 22.7773442,12.5486646 L22.7773442,10.1584427 C22.7773442,9.82842197 23.0457064,9.56088728 23.376748,9.56088728 Z" id="Rectangle" fill="#EBEBEC" opacity="0.0936104911"></path>
                                <path d="M4.19582656,9.56088728 L10.1898645,9.56088728 C10.5209061,9.56088728 10.7892683,9.82842197 10.7892683,10.1584427 L10.7892683,12.5486646 C10.7892683,12.8786853 10.5209061,13.14622 10.1898645,13.14622 L4.19582656,13.14622 C3.86478499,13.14622 3.59642277,12.8786853 3.59642277,12.5486646 L3.59642277,10.1584427 C3.59642277,9.82842197 3.86478499,9.56088728 4.19582656,9.56088728 Z" id="Rectangle-Copy-8" fill="#EBEBEC" opacity="0.0936104911"></path>
                                <path d="M32.9672087,9.56088728 L38.9612466,9.56088728 C39.2922882,9.56088728 39.5606504,9.82842197 39.5606504,10.1584427 L39.5606504,12.5486646 C39.5606504,12.8786853 39.2922882,13.14622 38.9612466,13.14622 L32.9672087,13.14622 C32.6361671,13.14622 32.3678049,12.8786853 32.3678049,12.5486646 L32.3678049,10.1584427 C32.3678049,9.82842197 32.6361671,9.56088728 32.9672087,9.56088728 Z" id="Rectangle-Copy-7" fill="#EBEBEC" opacity="0.0936104911"></path>
                                <path d="M13.7862873,9.56088728 L19.7803252,9.56088728 C20.1113668,9.56088728 20.379729,9.82842197 20.379729,10.1584427 L20.379729,12.5486646 C20.379729,12.8786853 20.1113668,13.14622 19.7803252,13.14622 L13.7862873,13.14622 C13.4552457,13.14622 13.1868835,12.8786853 13.1868835,12.5486646 L13.1868835,10.1584427 C13.1868835,9.82842197 13.4552457,9.56088728 13.7862873,9.56088728 Z" id="Rectangle-Copy-9" fill="#EBEBEC" opacity="0.0936104911"></path>
                                <path d="M23.376748,15.5364418 L29.3707859,15.5364418 C29.7018275,15.5364418 29.9701897,15.8039765 29.9701897,16.1339973 L29.9701897,18.5242191 C29.9701897,18.8542399 29.7018275,19.1217746 29.3707859,19.1217746 L23.376748,19.1217746 C23.0457064,19.1217746 22.7773442,18.8542399 22.7773442,18.5242191 L22.7773442,16.1339973 C22.7773442,15.8039765 23.0457064,15.5364418 23.376748,15.5364418 Z" id="Rectangle" fill="#EBEBEC" opacity="0.0936104911"></path>
                                <path d="M4.19582656,15.5364418 L10.1898645,15.5364418 C10.5209061,15.5364418 10.7892683,15.8039765 10.7892683,16.1339973 L10.7892683,18.5242191 C10.7892683,18.8542399 10.5209061,19.1217746 10.1898645,19.1217746 L4.19582656,19.1217746 C3.86478499,19.1217746 3.59642277,18.8542399 3.59642277,18.5242191 L3.59642277,16.1339973 C3.59642277,15.8039765 3.86478499,15.5364418 4.19582656,15.5364418 Z" id="Rectangle-Copy-8" fill="#EBEBEC" opacity="0.0936104911"></path>
                                <path d="M32.9672087,15.5364418 L38.9612466,15.5364418 C39.2922882,15.5364418 39.5606504,15.8039765 39.5606504,16.1339973 L39.5606504,18.5242191 C39.5606504,18.8542399 39.2922882,19.1217746 38.9612466,19.1217746 L32.9672087,19.1217746 C32.6361671,19.1217746 32.3678049,18.8542399 32.3678049,18.5242191 L32.3678049,16.1339973 C32.3678049,15.8039765 32.6361671,15.5364418 32.9672087,15.5364418 Z" id="Rectangle-Copy-7" fill="#EBEBEC" opacity="0.0936104911"></path>
                                <path d="M13.7862873,15.5364418 L19.7803252,15.5364418 C20.1113668,15.5364418 20.379729,15.8039765 20.379729,16.1339973 L20.379729,18.5242191 C20.379729,18.8542399 20.1113668,19.1217746 19.7803252,19.1217746 L13.7862873,19.1217746 C13.4552457,19.1217746 13.1868835,18.8542399 13.1868835,18.5242191 L13.1868835,16.1339973 C13.1868835,15.8039765 13.4552457,15.5364418 13.7862873,15.5364418 Z" id="Rectangle-Copy-9" fill="#EBEBEC" opacity="0.0936104911"></path>
                                <path d="M23.376748,21.5119964 L29.3707859,21.5119964 C29.7018275,21.5119964 29.9701897,21.7795311 29.9701897,22.1095518 L29.9701897,24.4997737 C29.9701897,24.8297944 29.7018275,25.0973291 29.3707859,25.0973291 L23.376748,25.0973291 C23.0457064,25.0973291 22.7773442,24.8297944 22.7773442,24.4997737 L22.7773442,22.1095518 C22.7773442,21.7795311 23.0457064,21.5119964 23.376748,21.5119964 Z" id="Rectangle" fill="#EBEBEC" opacity="0.0936104911"></path>
                                <path d="M4.19582656,21.5119964 L10.1898645,21.5119964 C10.5209061,21.5119964 10.7892683,21.7795311 10.7892683,22.1095518 L10.7892683,24.4997737 C10.7892683,24.8297944 10.5209061,25.0973291 10.1898645,25.0973291 L4.19582656,25.0973291 C3.86478499,25.0973291 3.59642277,24.8297944 3.59642277,24.4997737 L3.59642277,22.1095518 C3.59642277,21.7795311 3.86478499,21.5119964 4.19582656,21.5119964 Z" id="Rectangle-Copy-8" fill="#EBEBEC" opacity="0.0936104911"></path>
                                <path d="M32.9672087,21.5119964 L38.9612466,21.5119964 C39.2922882,21.5119964 39.5606504,21.7795311 39.5606504,22.1095518 L39.5606504,24.4997737 C39.5606504,24.8297944 39.2922882,25.0973291 38.9612466,25.0973291 L32.9672087,25.0973291 C32.6361671,25.0973291 32.3678049,24.8297944 32.3678049,24.4997737 L32.3678049,22.1095518 C32.3678049,21.7795311 32.6361671,21.5119964 32.9672087,21.5119964 Z" id="Rectangle-Copy-7" fill="#EBEBEC" opacity="0.0936104911"></path>
                                <path d="M13.7862873,21.5119964 L19.7803252,21.5119964 C20.1113668,21.5119964 20.379729,21.7795311 20.379729,22.1095518 L20.379729,24.4997737 C20.379729,24.8297944 20.1113668,25.0973291 19.7803252,25.0973291 L13.7862873,25.0973291 C13.4552457,25.0973291 13.1868835,24.8297944 13.1868835,24.4997737 L13.1868835,22.1095518 C13.1868835,21.7795311 13.4552457,21.5119964 13.7862873,21.5119964 Z" id="Rectangle-Copy-9" fill="#EBEBEC" opacity="0.0936104911"></path>
                                <path d="M23.376748,27.4875509 L29.3707859,27.4875509 C29.7018275,27.4875509 29.9701897,27.7550856 29.9701897,28.0851064 L29.9701897,30.4753282 C29.9701897,30.805349 29.7018275,31.0728837 29.3707859,31.0728837 L23.376748,31.0728837 C23.0457064,31.0728837 22.7773442,30.805349 22.7773442,30.4753282 L22.7773442,28.0851064 C22.7773442,27.7550856 23.0457064,27.4875509 23.376748,27.4875509 Z" id="Rectangle" fill="#EBEBEC" opacity="0.0936104911"></path>
                                <path d="M4.19582656,27.4875509 L10.1898645,27.4875509 C10.5209061,27.4875509 10.7892683,27.7550856 10.7892683,28.0851064 L10.7892683,30.4753282 C10.7892683,30.805349 10.5209061,31.0728837 10.1898645,31.0728837 L4.19582656,31.0728837 C3.86478499,31.0728837 3.59642277,30.805349 3.59642277,30.4753282 L3.59642277,28.0851064 C3.59642277,27.7550856 3.86478499,27.4875509 4.19582656,27.4875509 Z" id="Rectangle-Copy-8" fill="#EBEBEC" opacity="0.0936104911"></path>
                                <path d="M32.9672087,27.4875509 L38.9612466,27.4875509 C39.2922882,27.4875509 39.5606504,27.7550856 39.5606504,28.0851064 L39.5606504,30.4753282 C39.5606504,30.805349 39.2922882,31.0728837 38.9612466,31.0728837 L32.9672087,31.0728837 C32.6361671,31.0728837 32.3678049,30.805349 32.3678049,30.4753282 L32.3678049,28.0851064 C32.3678049,27.7550856 32.6361671,27.4875509 32.9672087,27.4875509 Z" id="Rectangle-Copy-7" fill="#EBEBEC" opacity="0.0936104911"></path>
                                <path d="M13.7862873,27.4875509 L19.7803252,27.4875509 C20.1113668,27.4875509 20.379729,27.7550856 20.379729,28.0851064 L20.379729,30.4753282 C20.379729,30.805349 20.1113668,31.0728837 19.7803252,31.0728837 L13.7862873,31.0728837 C13.4552457,31.0728837 13.1868835,30.805349 13.1868835,30.4753282 L13.1868835,28.0851064 C13.1868835,27.7550856 13.4552457,27.4875509 13.7862873,27.4875509 Z" id="Rectangle-Copy-9" fill="#EBEBEC" opacity="0.0936104911"></path>
                                <path d="M23.376748,33.4631055 L29.3707859,33.4631055 C29.7018275,33.4631055 29.9701897,33.7306402 29.9701897,34.0606609 L29.9701897,36.4508828 C29.9701897,36.7809035 29.7018275,37.0484382 29.3707859,37.0484382 L23.376748,37.0484382 C23.0457064,37.0484382 22.7773442,36.7809035 22.7773442,36.4508828 L22.7773442,34.0606609 C22.7773442,33.7306402 23.0457064,33.4631055 23.376748,33.4631055 Z" id="Rectangle" fill="#EBEBEC" opacity="0.0936104911"></path>
                                <path d="M4.19582656,33.4631055 L10.1898645,33.4631055 C10.5209061,33.4631055 10.7892683,33.7306402 10.7892683,34.0606609 L10.7892683,36.4508828 C10.7892683,36.7809035 10.5209061,37.0484382 10.1898645,37.0484382 L4.19582656,37.0484382 C3.86478499,37.0484382 3.59642277,36.7809035 3.59642277,36.4508828 L3.59642277,34.0606609 C3.59642277,33.7306402 3.86478499,33.4631055 4.19582656,33.4631055 Z" id="Rectangle-Copy-8" fill="#EBEBEC" opacity="0.0936104911"></path>
                                <path d="M32.9672087,33.4631055 L38.9612466,33.4631055 C39.2922882,33.4631055 39.5606504,33.7306402 39.5606504,34.0606609 L39.5606504,36.4508828 C39.5606504,36.7809035 39.2922882,37.0484382 38.9612466,37.0484382 L32.9672087,37.0484382 C32.6361671,37.0484382 32.3678049,36.7809035 32.3678049,36.4508828 L32.3678049,34.0606609 C32.3678049,33.7306402 32.6361671,33.4631055 32.9672087,33.4631055 Z" id="Rectangle-Copy-7" fill="#EBEBEC" opacity="0.0936104911"></path>
                                <path d="M13.7862873,33.4631055 L19.7803252,33.4631055 C20.1113668,33.4631055 20.379729,33.7306402 20.379729,34.0606609 L20.379729,36.4508828 C20.379729,36.7809035 20.1113668,37.0484382 19.7803252,37.0484382 L13.7862873,37.0484382 C13.4552457,37.0484382 13.1868835,36.7809035 13.1868835,36.4508828 L13.1868835,34.0606609 C13.1868835,33.7306402 13.4552457,33.4631055 13.7862873,33.4631055 Z" id="Rectangle-Copy-9" fill="#EBEBEC" opacity="0.0936104911"></path>
                                <path d="M23.376748,39.43866 L29.3707859,39.43866 C29.7018275,39.43866 29.9701897,39.7061947 29.9701897,40.0362155 L29.9701897,42.4264373 C29.9701897,42.7564581 29.7018275,43.0239928 29.3707859,43.0239928 L23.376748,43.0239928 C23.0457064,43.0239928 22.7773442,42.7564581 22.7773442,42.4264373 L22.7773442,40.0362155 C22.7773442,39.7061947 23.0457064,39.43866 23.376748,39.43866 Z" id="Rectangle" fill="#EBEBEC" opacity="0.0936104911"></path>
                                <path d="M4.19582656,39.43866 L10.1898645,39.43866 C10.5209061,39.43866 10.7892683,39.7061947 10.7892683,40.0362155 L10.7892683,42.4264373 C10.7892683,42.7564581 10.5209061,43.0239928 10.1898645,43.0239928 L4.19582656,43.0239928 C3.86478499,43.0239928 3.59642277,42.7564581 3.59642277,42.4264373 L3.59642277,40.0362155 C3.59642277,39.7061947 3.86478499,39.43866 4.19582656,39.43866 Z" id="Rectangle-Copy-8" fill="#EBEBEC" opacity="0.0936104911"></path>
                                <path d="M32.9672087,39.43866 L38.9612466,39.43866 C39.2922882,39.43866 39.5606504,39.7061947 39.5606504,40.0362155 L39.5606504,42.4264373 C39.5606504,42.7564581 39.2922882,43.0239928 38.9612466,43.0239928 L32.9672087,43.0239928 C32.6361671,43.0239928 32.3678049,42.7564581 32.3678049,42.4264373 L32.3678049,40.0362155 C32.3678049,39.7061947 32.6361671,39.43866 32.9672087,39.43866 Z" id="Rectangle-Copy-7" fill="#EBEBEC" opacity="0.0936104911"></path>
                                <path d="M13.7862873,39.43866 L19.7803252,39.43866 C20.1113668,39.43866 20.379729,39.7061947 20.379729,40.0362155 L20.379729,42.4264373 C20.379729,42.7564581 20.1113668,43.0239928 19.7803252,43.0239928 L13.7862873,43.0239928 C13.4552457,43.0239928 13.1868835,42.7564581 13.1868835,42.4264373 L13.1868835,40.0362155 C13.1868835,39.7061947 13.4552457,39.43866 13.7862873,39.43866 Z" id="Rectangle-Copy-9" fill="#EBEBEC" opacity="0.0936104911"></path>
                                <path d="M23.376748,45.4142146 L29.3707859,45.4142146 C29.7018275,45.4142146 29.9701897,45.6817493 29.9701897,46.01177 L29.9701897,48.4019919 C29.9701897,48.7320126 29.7018275,48.9995473 29.3707859,48.9995473 L23.376748,48.9995473 C23.0457064,48.9995473 22.7773442,48.7320126 22.7773442,48.4019919 L22.7773442,46.01177 C22.7773442,45.6817493 23.0457064,45.4142146 23.376748,45.4142146 Z" id="Rectangle" fill="#EBEBEC" opacity="0.0936104911"></path>
                                <path d="M4.19582656,45.4142146 L10.1898645,45.4142146 C10.5209061,45.4142146 10.7892683,45.6817493 10.7892683,46.01177 L10.7892683,48.4019919 C10.7892683,48.7320126 10.5209061,48.9995473 10.1898645,48.9995473 L4.19582656,48.9995473 C3.86478499,48.9995473 3.59642277,48.7320126 3.59642277,48.4019919 L3.59642277,46.01177 C3.59642277,45.6817493 3.86478499,45.4142146 4.19582656,45.4142146 Z" id="Rectangle-Copy-8" fill="#EBEBEC" opacity="0.0936104911"></path>
                                <path d="M32.9672087,45.4142146 L38.9612466,45.4142146 C39.2922882,45.4142146 39.5606504,45.6817493 39.5606504,46.01177 L39.5606504,48.4019919 C39.5606504,48.7320126 39.2922882,48.9995473 38.9612466,48.9995473 L32.9672087,48.9995473 C32.6361671,48.9995473 32.3678049,48.7320126 32.3678049,48.4019919 L32.3678049,46.01177 C32.3678049,45.6817493 32.6361671,45.4142146 32.9672087,45.4142146 Z" id="Rectangle-Copy-7" fill="#EBEBEC" opacity="0.0936104911"></path>
                                <path d="M13.7862873,45.4142146 L19.7803252,45.4142146 C20.1113668,45.4142146 20.379729,45.6817493 20.379729,46.01177 L20.379729,48.4019919 C20.379729,48.7320126 20.1113668,48.9995473 19.7803252,48.9995473 L13.7862873,48.9995473 C13.4552457,48.9995473 13.1868835,48.7320126 13.1868835,48.4019919 L13.1868835,46.01177 C13.1868835,45.6817493 13.4552457,45.4142146 13.7862873,45.4142146 Z" id="Rectangle-Copy-9" fill="#EBEBEC" opacity="0.0936104911"></path>
                                <path d="M23.376748,51.3897691 L29.3707859,51.3897691 C29.7018275,51.3897691 29.9701897,51.6573038 29.9701897,51.9873246 L29.9701897,54.3775464 C29.9701897,54.7075672 29.7018275,54.9751019 29.3707859,54.9751019 L23.376748,54.9751019 C23.0457064,54.9751019 22.7773442,54.7075672 22.7773442,54.3775464 L22.7773442,51.9873246 C22.7773442,51.6573038 23.0457064,51.3897691 23.376748,51.3897691 Z" id="Rectangle" fill="#EBEBEC" opacity="0.0936104911"></path>
                                <path d="M4.19582656,51.3897691 L10.1898645,51.3897691 C10.5209061,51.3897691 10.7892683,51.6573038 10.7892683,51.9873246 L10.7892683,54.3775464 C10.7892683,54.7075672 10.5209061,54.9751019 10.1898645,54.9751019 L4.19582656,54.9751019 C3.86478499,54.9751019 3.59642277,54.7075672 3.59642277,54.3775464 L3.59642277,51.9873246 C3.59642277,51.6573038 3.86478499,51.3897691 4.19582656,51.3897691 Z" id="Rectangle-Copy-8" fill="#EBEBEC" opacity="0.0936104911"></path>
                                <path d="M32.9672087,51.3897691 L38.9612466,51.3897691 C39.2922882,51.3897691 39.5606504,51.6573038 39.5606504,51.9873246 L39.5606504,54.3775464 C39.5606504,54.7075672 39.2922882,54.9751019 38.9612466,54.9751019 L32.9672087,54.9751019 C32.6361671,54.9751019 32.3678049,54.7075672 32.3678049,54.3775464 L32.3678049,51.9873246 C32.3678049,51.6573038 32.6361671,51.3897691 32.9672087,51.3897691 Z" id="Rectangle-Copy-7" fill="#EBEBEC" opacity="0.0936104911"></path>
                                <path d="M13.7862873,51.3897691 L19.7803252,51.3897691 C20.1113668,51.3897691 20.379729,51.6573038 20.379729,51.9873246 L20.379729,54.3775464 C20.379729,54.7075672 20.1113668,54.9751019 19.7803252,54.9751019 L13.7862873,54.9751019 C13.4552457,54.9751019 13.1868835,54.7075672 13.1868835,54.3775464 L13.1868835,51.9873246 C13.1868835,51.6573038 13.4552457,51.3897691 13.7862873,51.3897691 Z" id="Rectangle-Copy-9" fill="#EBEBEC" opacity="0.0936104911"></path>
                                <polygon id="Rectangle" fill="url(#linearGradient-15)" points="1.13686838e-13 1.84741111e-13 41.9582656 1.84741111e-13 41.9582656 58 1.13686838e-13 58"></polygon>
                            </g>
                            <polygon id="X" fill-opacity="0.8" fill="#CCCED3" fill-rule="nonzero" points="9.09750668 56.6979606 13.1730158 51.2898051 17.248525 56.6979606 21.4918492 56.6979606 15.5703741 49.4903464 21.0723115 42.4000883 17.0687231 42.4000883 13.3648045 47.5441928 9.58896514 42.4000883 5.48948242 42.4000883 10.9314858 49.3240921 5.11789188 56.6979606"></polygon>
                        </g>
                        <g id="Trend" transform="translate(85.033393, 64.340426)">
                            <g id="base">
                                <g id="Path">
                                    <use fill="black" fill-opacity="1" filter="url(#filter-17)" xlink:href="#path-16"></use>
                                    <use fill="#FFFFFF" fill-rule="evenodd" xlink:href="#path-16"></use>
                                </g>
                                <g id="Path">
                                    <use fill="black" fill-opacity="1" filter="url(#filter-19)" xlink:href="#path-18"></use>
                                    <use fill="#FFFFFF" fill-rule="evenodd" xlink:href="#path-18"></use>
                                </g>
                                <path d="M5.11686166,-7.25660666e-15 L68.5659462,-7.25660666e-15 C71.3919109,-7.25660666e-15 73.6828079,2.28620553 73.6828079,5.10638298 L73.6828079,12.1276596 L0,12.1276596 L0,5.10638298 C0,2.28620553 2.290897,-7.25660666e-15 5.11686166,-7.25660666e-15 Z" id="Path-Copy" fill="#E8E9EC"></path>
                            </g>
                            <g id="lines" transform="translate(8.186979, 21.446809)" fill="#CCCED3" fill-opacity="0.27" fill-rule="nonzero">
                                <path d="M56.5413213,27.3191489 C56.6826196,27.3191489 56.7971644,27.4906144 56.7971644,27.7021277 C56.7971644,27.8834248 56.713009,28.035299 56.5999838,28.0749916 L56.5413213,28.0851064 L1.11022302e-16,28.0851064 C-0.141298233,28.0851064 -0.255843083,27.913641 -0.255843083,27.7021277 C-0.255843083,27.5208305 -0.171687683,27.3689564 -0.0586624716,27.3292637 L1.11022302e-16,27.3191489 L56.5413213,27.3191489 Z" id="Line"></path>
                                <path d="M56.5413213,20.5531915 C56.6826196,20.5531915 56.7971644,20.7246569 56.7971644,20.9361702 C56.7971644,21.1174673 56.713009,21.2693415 56.5999838,21.3090342 L56.5413213,21.3191489 L1.11022302e-16,21.3191489 C-0.141298233,21.3191489 -0.255843083,21.1476835 -0.255843083,20.9361702 C-0.255843083,20.7548731 -0.171687683,20.6029989 -0.0586624716,20.5633062 L1.11022302e-16,20.5531915 L56.5413213,20.5531915 Z" id="Line-Copy"></path>
                                <path d="M56.5413213,13.787234 C56.6826196,13.787234 56.7971644,13.9586995 56.7971644,14.1702128 C56.7971644,14.3515099 56.713009,14.5033841 56.5999838,14.5430767 L56.5413213,14.5531915 L1.11022302e-16,14.5531915 C-0.141298233,14.5531915 -0.255843083,14.3817261 -0.255843083,14.1702128 C-0.255843083,13.9889156 -0.171687683,13.8370415 -0.0586624716,13.7973488 L1.11022302e-16,13.787234 L56.5413213,13.787234 Z" id="Line-Copy-2"></path>
                                <path d="M56.5413213,7.0212766 C56.6826196,7.0212766 56.7971644,7.19274201 56.7971644,7.40425532 C56.7971644,7.58555244 56.713009,7.73742662 56.5999838,7.7771193 L56.5413213,7.78723404 L1.11022302e-16,7.78723404 C-0.141298233,7.78723404 -0.255843083,7.61576863 -0.255843083,7.40425532 C-0.255843083,7.2229582 -0.171687683,7.07108402 -0.0586624716,7.03139134 L1.11022302e-16,7.0212766 L56.5413213,7.0212766 Z" id="Line-Copy-3"></path>
                                <path d="M56.5413213,0.255319149 C56.6826196,0.255319149 56.7971644,0.426784564 56.7971644,0.638297872 C56.7971644,0.819594994 56.713009,0.971469173 56.5999838,1.01116185 L56.5413213,1.0212766 L1.11022302e-16,1.0212766 C-0.141298233,1.0212766 -0.255843083,0.849811181 -0.255843083,0.638297872 C-0.255843083,0.457000751 -0.171687683,0.305126571 -0.0586624716,0.26543389 L1.11022302e-16,0.255319149 L56.5413213,0.255319149 Z" id="Line-Copy-4"></path>
                            </g>
                            <g id="Group" transform="translate(23.537564, 53.106383)">
                                <path d="M4.09348933,0 L10.2337233,0 C10.7989162,0 11.2570956,0.457241107 11.2570956,1.0212766 C11.2570956,1.58531208 10.7989162,2.04255319 10.2337233,2.04255319 L4.09348933,2.04255319 C3.52829639,2.04255319 3.07011699,1.58531208 3.07011699,1.0212766 C3.07011699,0.457241107 3.52829639,0 4.09348933,0 Z" id="Rectangle-Copy-2" fill-opacity="0.35" fill="#67696F"></path>
                                <path d="M19.4440743,0 L25.5843083,0 C26.1495012,0 26.6076806,0.457241107 26.6076806,1.0212766 C26.6076806,1.58531208 26.1495012,2.04255319 25.5843083,2.04255319 L19.4440743,2.04255319 C18.8788814,2.04255319 18.420702,1.58531208 18.420702,1.0212766 C18.420702,0.457241107 18.8788814,0 19.4440743,0 Z" id="Rectangle-Copy-5" fill-opacity="0.35" fill="#67696F"></path>
                                <path d="M1.02337233,0 C1.58856526,0 2.04674466,0.457241107 2.04674466,1.0212766 C2.04674466,1.58531208 1.58856526,2.04255319 1.02337233,2.04255319 C0.458179399,2.04255319 0,1.58531208 0,1.0212766 C0,0.457241107 0.458179399,0 1.02337233,0 Z" id="Rectangle-Copy-4" fill="#DFE0E1" opacity="0.647623698"></path>
                                <path d="M16.3739573,0 C16.9391502,0 17.3973296,0.457241107 17.3973296,1.0212766 C17.3973296,1.58531208 16.9391502,2.04255319 16.3739573,2.04255319 C15.8087644,2.04255319 15.350585,1.58531208 15.350585,1.0212766 C15.350585,0.457241107 15.8087644,0 16.3739573,0 Z" id="Rectangle-Copy-6" fill="#ACAEB2" opacity="0.647623698"></path>
                            </g>
                        </g>
                    </g>
                </g>
            </g>
        </g>
    </g>
</svg>
