<?xml version="1.0" encoding="UTF-8"?>
<svg width="326px" height="206px" viewBox="0 0 326 206" version="1.1" xmlns="http://www.w3.org/2000/svg" xmlns:xlink="http://www.w3.org/1999/xlink">
    <defs>
        <path d="M7.97774293,0 L84.9951239,0 C88.4254082,0 91.206203,2.77363026 91.206203,6.19507658 C91.206203,10.084208 91.206203,12.9236181 91.206203,14.7133069 C91.206203,26.4151182 91.206203,43.8129583 91.206203,66.9068271 C91.206203,70.3282734 88.4254082,73.1019037 84.9951239,73.1019037 L7.97774293,73.1019037 C4.54745865,73.1019037 1.76666381,70.3282734 1.76666381,66.9068271 C1.76666381,43.6064557 1.76666381,26.2086157 1.76666381,14.7133069 C1.76666381,12.7171155 1.76666381,9.87770544 1.76666381,6.19507658 C1.76666381,2.77363026 4.54745865,0 7.97774293,0 Z" id="path-1"></path>
        <filter x="-17.3%" y="-15.7%" width="134.7%" height="142.4%" filterUnits="objectBoundingBox" id="filter-2">
            <feOffset dx="0" dy="4" in="SourceAlpha" result="shadowOffsetOuter1"></feOffset>
            <feGaussianBlur stdDeviation="4.5" in="shadowOffsetOuter1" result="shadowBlurOuter1"></feGaussianBlur>
            <feColorMatrix values="0 0 0 0 0   0 0 0 0 0   0 0 0 0 0  0 0 0 0.07 0" type="matrix" in="shadowBlurOuter1"></feColorMatrix>
        </filter>
        <path d="M6.21107911,0 L83.2284601,0 C86.6587444,0 89.4395392,2.77363026 89.4395392,6.19507658 C89.4395392,10.084208 89.4395392,12.9236181 89.4395392,14.7133069 C89.4395392,26.4151182 89.4395392,43.8129583 89.4395392,66.9068271 C89.4395392,70.3282734 86.6587444,73.1019037 83.2284601,73.1019037 L6.21107911,73.1019037 C2.78079484,73.1019037 0,70.3282734 0,66.9068271 C0,43.6064557 0,26.2086157 0,14.7133069 C0,12.7171155 0,9.87770544 0,6.19507658 C0,2.77363026 2.78079484,0 6.21107911,0 Z" id="path-3"></path>
        <filter x="-17.3%" y="-15.7%" width="134.7%" height="142.4%" filterUnits="objectBoundingBox" id="filter-4">
            <feOffset dx="0" dy="4" in="SourceAlpha" result="shadowOffsetOuter1"></feOffset>
            <feGaussianBlur stdDeviation="4.5" in="shadowOffsetOuter1" result="shadowBlurOuter1"></feGaussianBlur>
            <feColorMatrix values="0 0 0 0 0   0 0 0 0 0   0 0 0 0 0  0 0 0 0.07 0" type="matrix" in="shadowBlurOuter1"></feColorMatrix>
        </filter>
        <path d="M10.7136057,0.637964553 L48.1312939,0.637964553 C49.7211688,0.637964553 51.010017,1.92144836 51.010017,3.50470587 L51.010017,65.1396443 C51.010017,66.7229018 49.7211688,68.0063856 48.1312939,68.0063856 L4.95044776,68.0063856 C3.36057291,68.0063856 2.07172468,66.7229018 2.07172468,65.1396443 L2.07172468,8.27566345 L10.7136057,0.637964553 Z" id="path-5"></path>
        <filter x="-24.5%" y="-13.4%" width="149.0%" height="135.6%" filterUnits="objectBoundingBox" id="filter-6">
            <feOffset dx="0" dy="3" in="SourceAlpha" result="shadowOffsetOuter1"></feOffset>
            <feGaussianBlur stdDeviation="3.5" in="shadowOffsetOuter1" result="shadowBlurOuter1"></feGaussianBlur>
            <feColorMatrix values="0 0 0 0 0   0 0 0 0 0   0 0 0 0 0  0 0 0 0.05 0" type="matrix" in="shadowBlurOuter1"></feColorMatrix>
        </filter>
        <path d="M9.01356928,1.60473867 L46.4312575,1.60473867 C48.0211324,1.60473867 49.3099806,2.88822248 49.3099806,4.47147999 L49.3099806,66.1064184 C49.3099806,67.6896759 48.0211324,68.9731597 46.4312575,68.9731597 L3.25041137,68.9731597 C1.66053651,68.9731597 0.371688288,67.6896759 0.371688288,66.1064184 L0.371688288,9.24243757 L9.01356928,1.60473867 Z" id="path-7"></path>
        <filter x="-31.7%" y="-17.1%" width="163.3%" height="146.0%" filterUnits="objectBoundingBox" id="filter-8">
            <feOffset dx="0" dy="4" in="SourceAlpha" result="shadowOffsetOuter1"></feOffset>
            <feGaussianBlur stdDeviation="4.5" in="shadowOffsetOuter1" result="shadowBlurOuter1"></feGaussianBlur>
            <feColorMatrix values="0 0 0 0 0   0 0 0 0 0   0 0 0 0 0  0 0 0 0.07 0" type="matrix" in="shadowBlurOuter1"></feColorMatrix>
        </filter>
        <path d="M8.21149088,5.51131086 L14.3368828,10.8360328 L14.3368828,10.8360328 L0.538510577,10.8828562 L5.44011116,5.65304752 C6.17554642,4.86836797 7.39984045,4.80575391 8.21149088,5.51131086 Z" id="path-9"></path>
        <filter x="-14.5%" y="-33.6%" width="129.0%" height="148.6%" filterUnits="objectBoundingBox" id="filter-10">
            <feOffset dx="0" dy="-1" in="SourceAlpha" result="shadowOffsetOuter1"></feOffset>
            <feGaussianBlur stdDeviation="0.5" in="shadowOffsetOuter1" result="shadowBlurOuter1"></feGaussianBlur>
            <feColorMatrix values="0 0 0 0 0   0 0 0 0 0   0 0 0 0 0  0 0 0 0.17 0" type="matrix" in="shadowBlurOuter1"></feColorMatrix>
        </filter>
        <path d="M3.99358401,0.937819542 L59.5173039,0.937819542 C60.4465434,0.937819542 61.1998409,1.69743241 61.1998409,2.63446237 L61.1998409,82.376675 C61.1998409,83.313705 60.4465434,84.0733179 59.5173039,84.0733179 L3.99358401,84.0733179 C3.0643445,84.0733179 2.31104704,83.313705 2.31104704,82.376675 L2.31104704,2.63446237 C2.31104704,1.69743241 3.0643445,0.937819542 3.99358401,0.937819542 Z" id="path-11"></path>
        <filter x="-12.7%" y="-5.4%" width="125.5%" height="118.0%" filterUnits="objectBoundingBox" id="filter-12">
            <feOffset dx="0" dy="3" in="SourceAlpha" result="shadowOffsetOuter1"></feOffset>
            <feGaussianBlur stdDeviation="2" in="shadowOffsetOuter1" result="shadowBlurOuter1"></feGaussianBlur>
            <feColorMatrix values="0 0 0 0 0   0 0 0 0 0   0 0 0 0 0  0 0 0 0.07 0" type="matrix" in="shadowBlurOuter1"></feColorMatrix>
        </filter>
        <path d="M2.32432567,2.97838942 L57.8480456,2.97838942 C58.7772851,2.97838942 59.5305825,3.73800228 59.5305825,4.67503224 L59.5305825,84.4172449 C59.5305825,85.3542749 58.7772851,86.1138877 57.8480456,86.1138877 L2.32432567,86.1138877 C1.39508616,86.1138877 0.641788703,85.3542749 0.641788703,84.4172449 L0.641788703,4.67503224 C0.641788703,3.73800228 1.39508616,2.97838942 2.32432567,2.97838942 Z" id="path-13"></path>
        <filter x="-26.3%" y="-13.8%" width="152.6%" height="137.3%" filterUnits="objectBoundingBox" id="filter-14">
            <feOffset dx="0" dy="4" in="SourceAlpha" result="shadowOffsetOuter1"></feOffset>
            <feGaussianBlur stdDeviation="4.5" in="shadowOffsetOuter1" result="shadowBlurOuter1"></feGaussianBlur>
            <feColorMatrix values="0 0 0 0 0   0 0 0 0 0   0 0 0 0 0  0 0 0 0.07 0" type="matrix" in="shadowBlurOuter1"></feColorMatrix>
        </filter>
        <linearGradient x1="50%" y1="1.00031672%" x2="50%" y2="99.3243243%" id="linearGradient-15">
            <stop stop-color="#FFFFFF" stop-opacity="0" offset="0%"></stop>
            <stop stop-color="#FFFFFF" offset="100%"></stop>
        </linearGradient>
        <path d="M9.33602829,0 L98.387375,0 C102.353641,0 105.568935,3.20870952 105.568935,7.1668533 C105.568935,11.6660445 105.568935,14.9508523 105.568935,17.0212766 C105.568935,30.5586662 105.568935,50.6855792 105.568935,77.4020157 C105.568935,81.3601595 102.353641,84.568869 98.387375,84.568869 L9.33602829,84.568869 C5.3697621,84.568869 2.15446807,81.3601595 2.15446807,77.4020157 C2.15446807,50.4466841 2.15446807,30.3197711 2.15446807,17.0212766 C2.15446807,14.7119572 2.15446807,11.4271494 2.15446807,7.1668533 C2.15446807,3.20870952 5.3697621,0 9.33602829,0 Z" id="path-16"></path>
        <filter x="-15.0%" y="-13.6%" width="130.0%" height="136.7%" filterUnits="objectBoundingBox" id="filter-17">
            <feOffset dx="0" dy="4" in="SourceAlpha" result="shadowOffsetOuter1"></feOffset>
            <feGaussianBlur stdDeviation="4.5" in="shadowOffsetOuter1" result="shadowBlurOuter1"></feGaussianBlur>
            <feColorMatrix values="0 0 0 0 0   0 0 0 0 0   0 0 0 0 0  0 0 0 0.07 0" type="matrix" in="shadowBlurOuter1"></feColorMatrix>
        </filter>
        <path d="M7.18156022,0 L96.232907,0 C100.199173,0 103.414467,3.20870952 103.414467,7.1668533 C103.414467,11.6660445 103.414467,14.9508523 103.414467,17.0212766 C103.414467,30.5586662 103.414467,50.6855792 103.414467,77.4020157 C103.414467,81.3601595 100.199173,84.568869 96.232907,84.568869 L7.18156022,84.568869 C3.21529403,84.568869 0,81.3601595 0,77.4020157 C0,50.4466841 0,30.3197711 0,17.0212766 C0,14.7119572 0,11.4271494 0,7.1668533 C0,3.20870952 3.21529403,0 7.18156022,0 Z" id="path-18"></path>
        <filter x="-15.0%" y="-13.6%" width="130.0%" height="136.7%" filterUnits="objectBoundingBox" id="filter-19">
            <feOffset dx="0" dy="4" in="SourceAlpha" result="shadowOffsetOuter1"></feOffset>
            <feGaussianBlur stdDeviation="4.5" in="shadowOffsetOuter1" result="shadowBlurOuter1"></feGaussianBlur>
            <feColorMatrix values="0 0 0 0 0   0 0 0 0 0   0 0 0 0 0  0 0 0 0.07 0" type="matrix" in="shadowBlurOuter1"></feColorMatrix>
        </filter>
    </defs>
    <g id="In-App-generic-empty-states" stroke="none" stroke-width="1" fill="none" fill-rule="evenodd">
        <g id="Generic-Empty-State_No-data" transform="translate(-89.000000, -924.000000)">
            <g id="Bright" transform="translate(88.000000, 70.000000)">
                <g id="No-data_L" transform="translate(1.000000, 820.000000)">
                    <g id="No-data-_L-drawing" transform="translate(0.000000, 37.000000)">
                        <path d="M74.2383071,2.89369413 C138.627108,4.96209942 206.298785,-0.554584657 267.837643,15.6645484 C315.624144,28.2591209 294.640072,146.479765 282.953573,177.783979 C271.267073,209.088194 225.442716,184.295122 166.471353,184.295122 C107.499989,184.295122 74.2383071,212.123568 47.0681203,177.783979 C7.75387824,118.321488 9.84950566,0.825288838 74.2383071,2.89369413 Z" id="Rectangle" fill="#CCCED3" opacity="0.08"></path>
                        <path d="M104.190566,1.01395641 C155.030722,-5.87827597 248.580495,23.2429041 305.450692,61.7319502 C349.611856,91.6196808 279.170279,166.145971 253.871919,187.500906 C228.573558,208.85584 187.905991,204.332838 123.186784,189.65932 C58.4675771,174.985803 15.9668394,175.436633 2.31805128,135.785996 C-13.3097695,70.2646717 53.3504091,7.90618878 104.190566,1.01395641 Z" id="Rectangle-Copy" fill="#F1F2F5" opacity="0.22"></path>
                        <g id="Decorations" transform="translate(1.567525, 1.433371)" fill="#CCCED3">
                            <path d="M142.913048,75.162374 C143.133397,75.162374 143.31666,75.3208288 143.354664,75.5297867 L143.361896,75.6103024 L143.361896,76.9540873 C143.361896,77.2014713 143.16094,77.4020157 142.913048,77.4020157 C142.6927,77.4020157 142.509437,77.2435609 142.471432,77.034603 L142.464201,76.9540873 L142.464201,75.6103024 C142.464201,75.3629184 142.665157,75.162374 142.913048,75.162374 Z M144.437801,74.7169583 L144.499964,74.7687885 L145.452113,75.718988 C145.627399,75.8939149 145.627399,76.1775274 145.452113,76.3524543 C145.296304,76.5079449 145.054443,76.5252216 144.879511,76.4042845 L144.817347,76.3524543 L143.865198,75.4022548 C143.689912,75.2273279 143.689912,74.9437154 143.865198,74.7687885 C144.001531,74.6327343 144.203748,74.6025 144.369362,74.6780857 L144.437801,74.7169583 Z M141.960899,74.7687885 C142.116709,74.9242791 142.134021,75.1656447 142.012836,75.3402186 L141.960899,75.4022548 L141.00875,76.3524543 C140.833464,76.5273812 140.549269,76.5273812 140.373983,76.3524543 C140.218174,76.1969637 140.200862,75.9555981 140.322047,75.7810242 L140.373983,75.718988 L141.326133,74.7687885 C141.501419,74.5938616 141.785613,74.5938616 141.960899,74.7687885 Z M146.054981,73.3706607 C146.302873,73.3706607 146.503829,73.571205 146.503829,73.818589 C146.503829,74.0384859 146.345049,74.2213737 146.135662,74.2593006 L146.054981,74.2665174 L144.708438,74.2665174 C144.460547,74.2665174 144.259591,74.065973 144.259591,73.818589 C144.259591,73.5986921 144.418371,73.4158044 144.627758,73.3778774 L144.708438,73.3706607 L146.054981,73.3706607 Z M141.117658,73.3706607 C141.36555,73.3706607 141.566506,73.571205 141.566506,73.818589 C141.566506,74.0384859 141.407726,74.2213737 141.198339,74.2593006 L141.117658,74.2665174 L139.771116,74.2665174 C139.523224,74.2665174 139.322268,74.065973 139.322268,73.818589 C139.322268,73.5986921 139.481048,73.4158044 139.690435,73.3778774 L139.771116,73.3706607 L141.117658,73.3706607 Z M140.946586,71.2328935 L141.00875,71.2847237 L141.960899,72.2349232 C142.136185,72.4098501 142.136185,72.6934626 141.960899,72.8683895 C141.805089,73.0238801 141.563228,73.0411568 141.388296,72.9202197 L141.326133,72.8683895 L140.373983,71.9181901 C140.198698,71.7432632 140.198698,71.4596506 140.373983,71.2847237 C140.510317,71.1486695 140.712533,71.1184352 140.878148,71.1940209 L140.946586,71.2328935 Z M145.452113,71.2847237 C145.607923,71.4402143 145.625235,71.68158 145.50405,71.8561539 L145.452113,71.9181901 L144.499964,72.8683895 C144.324678,73.0433164 144.040484,73.0433164 143.865198,72.8683895 C143.709388,72.712899 143.692076,72.4715333 143.813261,72.2969594 L143.865198,72.2349232 L144.817347,71.2847237 C144.992633,71.1097968 145.276828,71.1097968 145.452113,71.2847237 Z M142.913048,70.2351624 C143.133397,70.2351624 143.31666,70.3936172 143.354664,70.602575 L143.361896,70.6830907 L143.361896,72.0268757 C143.361896,72.2742597 143.16094,72.474804 142.913048,72.474804 C142.6927,72.474804 142.509437,72.3163492 142.471432,72.1073914 L142.464201,72.0268757 L142.464201,70.6830907 C142.464201,70.4357067 142.665157,70.2351624 142.913048,70.2351624 Z" id="Combined-Shape-Copy-5" fill-rule="nonzero"></path>
                            <ellipse id="Oval" cx="286.87539" cy="116.819709" rx="3.59078011" ry="3.58342665"></ellipse>
                            <ellipse id="Oval-Copy-2" cx="173.075601" cy="105.981534" rx="2.15446807" ry="2.15005599"></ellipse>
                            <path d="M192.578133,24.3650293 L194.360443,24.3639564 C194.636585,24.3637901 194.860577,24.587513 194.860744,24.8636553 C194.860744,24.8638561 194.860744,24.8640569 194.860744,24.8642578 L194.844057,52.537288 C194.843891,52.8131951 194.620266,53.0368203 194.344359,53.0369864 L192.562049,53.0380593 C192.285906,53.0382255 192.061914,52.8145027 192.061748,52.5383604 C192.061748,52.5381596 192.061748,52.5379587 192.061748,52.5377579 L192.078434,24.8647277 C192.0786,24.5888206 192.302226,24.3651954 192.578133,24.3650293 Z" id="Rectangle-Copy-6" opacity="0.339076451" transform="translate(193.461246, 38.701008) scale(-1, 1) rotate(18.000000) translate(-193.461246, -38.701008) "></path>
                            <rect id="Rectangle-Copy-5" opacity="0.339076451" x="228.373615" y="139.036954" width="2.87262409" height="22.9339306" rx="0.5"></rect>
                            <ellipse id="Oval-Copy-3" cx="1.43631204" cy="50.7967636" rx="1.43631204" ry="1.43337066"></ellipse>
                            <ellipse id="Oval-Copy-4" cx="252.79092" cy="133.303471" rx="1.43631204" ry="1.43337066"></ellipse>
                            <ellipse id="Oval-Copy" cx="71.8156022" cy="153.370661" rx="4.30893613" ry="4.30011198"></ellipse>
                            <g id="corner-llines" opacity="0.34" transform="translate(8.617872, 5.733483)">
                                <path d="M28.383719,1.99836314 L30.2560889,1.999143 C30.5320682,1.99967502 30.7557652,2.22337183 30.7562975,2.49935121 L30.7630584,18.701325 C30.7635903,18.9774672 30.5398261,19.2014182 30.2636838,19.2015334 C30.2635448,19.2015335 30.2634059,19.2015335 30.2632671,19.2011167 L28.3908972,19.2003368 C28.1149178,19.1998048 27.8912208,18.976108 27.8906886,18.7001286 L27.8839277,2.49815484 C27.8833957,2.22201266 28.1071599,1.99806164 28.3833022,1.99794641 C28.3834412,1.99794635 28.3835802,1.99794635 28.383719,1.99836314 Z" id="Rectangle-Copy" transform="translate(29.323493, 10.599740) rotate(-12.000000) translate(-29.323493, -10.599740) "></path>
                                <path d="M14.2916867,-2.88189156 L16.1614705,-2.87997629 C16.4372127,-2.87969384 16.6606756,-2.65623103 16.660958,-2.38048875 L16.6893296,25.3153102 C16.6896124,25.5914524 16.4659842,25.8155393 16.189842,25.8158221 C16.1895006,25.8158225 16.1891591,25.8158225 16.1888177,25.8158221 L14.3190339,25.8139069 C14.0432916,25.8136244 13.8198288,25.5901616 13.8195463,25.3144193 L13.7911748,-2.38137962 C13.7908919,-2.65752185 14.0145201,-2.88160868 14.2906623,-2.88189156 C14.2910038,-2.88189191 14.2913452,-2.88189191 14.2916867,-2.88189156 Z" id="Rectangle-Copy-2" transform="translate(15.240252, 11.466965) rotate(-44.000000) translate(-15.240252, -11.466965) "></path>
                                <path d="M10.5515586,13.506693 L12.4186936,13.5076508 C12.6946358,13.5077923 12.9182957,13.7314525 12.918437,14.0073947 L12.9296905,35.9852344 C12.9298319,36.2613768 12.706089,36.485349 12.4299466,36.4854904 C12.4297758,36.4854905 12.429605,36.4854905 12.4294341,36.4854904 L10.5622991,36.4845326 C10.2863569,36.4843911 10.062697,36.2607309 10.0625557,35.9847887 L10.0513022,14.006949 C10.0511608,13.7308066 10.2749038,13.5068344 10.5510461,13.506693 C10.5512169,13.5066929 10.5513878,13.5066929 10.5515586,13.506693 Z" id="Rectangle-Copy-4" transform="translate(11.490496, 24.996092) rotate(-75.000000) translate(-11.490496, -24.996092) "></path>
                            </g>
                            <path d="M82.2904726,125.123072 C82.80824,124.606365 83.6229608,124.566618 84.1864134,125.003832 L84.3217246,125.123072 L88.3834617,129.175364 L92.4467325,125.123072 C93.0076472,124.563306 93.9170697,124.563306 94.4779844,125.123072 C95.0388992,125.682838 95.0388992,126.590398 94.4779844,127.150164 L90.4158432,131.203583 L94.4779844,135.258533 C94.9957519,135.77524 95.0355801,136.588293 94.5974692,137.150591 L94.4779844,137.285625 C93.960217,137.802333 93.1454962,137.842079 92.5820436,137.404866 L92.4467325,137.285625 L88.3834617,133.231803 L84.3217246,137.285625 C83.7608098,137.845391 82.8513873,137.845391 82.2904726,137.285625 C81.7295578,136.725859 81.7295578,135.818299 82.2904726,135.258533 L86.3510801,131.203583 L82.2904726,127.150164 C81.7727051,126.633457 81.7328769,125.820405 82.1709878,125.258106 L82.2904726,125.123072 Z" id="Path"></path>
                            <path d="M303.898698,91.9208491 C304.14604,92.1676849 304.14604,92.5678848 303.898698,92.8147206 L302.106403,94.6024636 L303.898698,96.3902066 C304.115122,96.6061879 304.142175,96.9395886 303.979857,97.1849248 L303.898698,97.2840781 C303.682273,97.5000594 303.348188,97.5270571 303.102349,97.3650711 L303.002992,97.2840781 L301.21158,95.4954535 L299.420169,97.2840781 C299.172826,97.5309139 298.771805,97.5309139 298.524463,97.2840781 C298.277121,97.0372423 298.277121,96.6370424 298.524463,96.3902066 L300.316758,94.6024636 L298.524463,92.8147206 C298.308038,92.5987393 298.280985,92.2653386 298.443304,92.0200024 L298.524463,91.9208491 C298.740888,91.7048678 299.074972,91.6778701 299.320812,91.8398561 L299.420169,91.9208491 L301.21158,93.7094737 L303.002992,91.9208491 C303.250334,91.6740133 303.651355,91.6740133 303.898698,91.9208491 Z" id="Path"></path>
                            <path d="M144.558738,13.5291264 C144.776324,13.5291264 144.952712,13.7051535 144.952712,13.9222939 L144.952612,14.9366964 L145.673066,14.2200629 C145.826922,14.0665215 146.076373,14.0665215 146.230229,14.2200629 C146.384086,14.3736044 146.384086,14.6225443 146.230229,14.7760857 L145.508464,15.4942776 L146.52861,15.4949638 C146.709931,15.4949638 146.862643,15.6172048 146.908511,15.7836118 L146.922584,15.8881313 C146.922584,16.0742516 146.792992,16.2301663 146.618944,16.2709149 L146.52861,16.2812988 L145.509901,16.2811981 L146.230229,17.0001769 C146.358443,17.1281281 146.379812,17.3223282 146.294336,17.4723624 L146.230229,17.5561996 C146.102016,17.6841509 145.907417,17.7054761 145.757075,17.6201753 L145.673066,17.5561996 L144.952612,16.8373459 L144.952712,17.8539687 C144.952712,18.0711091 144.776324,18.2471362 144.558738,18.2471362 C144.341152,18.2471362 144.164764,18.0711091 144.164764,17.8539687 L144.164076,16.8359125 L143.444411,17.5561996 C143.290554,17.7097411 143.041103,17.7097411 142.887247,17.5561996 C142.73339,17.4026582 142.73339,17.1537183 142.887247,17.0001769 L143.605351,16.2811981 L142.588867,16.2812988 C142.407545,16.2812988 142.254833,16.1590578 142.208966,15.9926508 L142.194892,15.8881313 C142.194892,15.702011 142.324484,15.5460963 142.498532,15.5053477 L142.588867,15.4949638 L143.606787,15.4942776 L142.887247,14.7760857 C142.759033,14.6481345 142.737664,14.4539344 142.82314,14.3039002 L142.887247,14.2200629 C143.015461,14.0921117 143.210059,14.0707865 143.360401,14.1560873 L143.444411,14.2200629 L144.164076,14.9381298 L144.164764,13.9222939 C144.164764,13.7051535 144.341152,13.5291264 144.558738,13.5291264 Z" id="Path"></path>
                            <path d="M10.7723403,67.9972115 C10.9706536,67.9972115 11.1314183,68.157647 11.1314183,68.3555542 L11.1315979,69.1286785 L11.7800093,68.4821477 C11.9191394,68.3433026 12.1447138,68.3433026 12.2838438,68.4821477 C12.4229739,68.6209928 12.4229739,68.8461053 12.2838438,68.9849504 L11.4779286,69.7887457 L12.5677304,69.7889248 C12.7462124,69.7889248 12.89428,69.9188776 12.9221087,70.0891425 L12.9268084,70.1472675 C12.9268084,70.3271831 12.793945,70.4761304 12.6207923,70.5017248 L12.5677304,70.5056102 L11.7919423,70.5052518 L12.2838438,70.9961613 C12.4090609,71.1211219 12.4215826,71.315959 12.321409,71.4548949 L12.2838438,71.498964 C12.1586268,71.6239246 11.9633898,71.6364207 11.8241688,71.5364522 L11.7800093,71.498964 L11.1315979,70.8519484 L11.1314183,71.9389808 C11.1314183,72.136888 10.9706536,72.2973235 10.7723403,72.2973235 C10.574027,72.2973235 10.4132623,72.136888 10.4132623,71.9389808 L10.4130828,70.8514108 L9.76467133,71.498964 C9.62554127,71.6378091 9.39996688,71.6378091 9.26083683,71.498964 C9.12170677,71.3601188 9.12170677,71.1350064 9.26083683,70.9961613 L9.7521997,70.5052518 L8.97695028,70.5056102 C8.7984683,70.5056102 8.65040069,70.3756574 8.62257199,70.2053926 L8.61787227,70.1472675 C8.61787227,69.9673519 8.75073566,69.8184046 8.92388836,69.7928102 L8.97695028,69.7889248 L10.0656748,69.7887457 L9.26083683,68.9849504 C9.13561977,68.8599898 9.12309807,68.6651526 9.22327171,68.5262167 L9.26083683,68.4821477 C9.38605388,68.3571871 9.58129084,68.344691 9.72051187,68.4446595 L9.76467133,68.4821477 L10.4130828,69.129216 L10.4132623,68.3555542 C10.4132623,68.157647 10.574027,67.9972115 10.7723403,67.9972115 Z" id="Path"></path>
                            <path d="M176.961611,44.3465956 C177.314168,44.3465956 177.607389,44.6001233 177.668196,44.9344559 L177.679767,45.063281 L177.679767,47.2133369 C177.679767,47.6091513 177.358237,47.9300223 176.961611,47.9300223 C176.609054,47.9300223 176.315833,47.6764946 176.255025,47.342162 L176.243455,47.2133369 L176.243455,45.063281 C176.243455,44.6674666 176.564984,44.3465956 176.961611,44.3465956 Z M179.401214,43.6339305 L179.500676,43.7168588 L181.024115,45.237178 C181.304572,45.517061 181.304572,45.9708411 181.024115,46.2507241 C180.774819,46.499509 180.387842,46.5271518 180.10795,46.3336524 L180.008489,46.2507241 L178.48505,44.7304049 C178.204592,44.4505219 178.204592,43.9967418 178.48505,43.7168588 C178.703183,43.499172 179.02673,43.4507972 179.291713,43.5717343 L179.401214,43.6339305 Z M175.438172,43.7168588 C175.687467,43.9656437 175.715167,44.3518287 175.52127,44.631147 L175.438172,44.7304049 L173.914733,46.2507241 C173.634275,46.5306071 173.179564,46.5306071 172.899107,46.2507241 C172.649811,46.0019392 172.622112,45.6157541 172.816008,45.3364359 L172.899107,45.237178 L174.422546,43.7168588 C174.703003,43.4369758 175.157714,43.4369758 175.438172,43.7168588 Z M181.988703,41.4798543 C182.38533,41.4798543 182.706859,41.8007253 182.706859,42.1965396 C182.706859,42.5483746 182.452811,42.8409951 182.117792,42.9016782 L181.988703,42.913225 L179.834235,42.913225 C179.437608,42.913225 179.116079,42.592354 179.116079,42.1965396 C179.116079,41.8447046 179.370127,41.5520842 179.705145,41.4914011 L179.834235,41.4798543 L181.988703,41.4798543 Z M174.088987,41.4798543 C174.485613,41.4798543 174.807143,41.8007253 174.807143,42.1965396 C174.807143,42.5483746 174.553095,42.8409951 174.218076,42.9016782 L174.088987,42.913225 L171.934519,42.913225 C171.537892,42.913225 171.216363,42.592354 171.216363,42.1965396 C171.216363,41.8447046 171.470411,41.5520842 171.805429,41.4914011 L171.934519,41.4798543 L174.088987,41.4798543 Z M173.815271,38.0594269 L173.914733,38.1423552 L175.438172,39.6626743 C175.718629,39.9425574 175.718629,40.3963374 175.438172,40.6762205 C175.188876,40.9250054 174.801899,40.9526481 174.522007,40.7591488 L174.422546,40.6762205 L172.899107,39.1559013 C172.618649,38.8760183 172.618649,38.4222382 172.899107,38.1423552 C173.11724,37.9246684 173.440787,37.8762935 173.70577,37.9972306 L173.815271,38.0594269 Z M181.024115,38.1423552 C181.27341,38.3911401 181.30111,38.7773251 181.107213,39.0566434 L181.024115,39.1559013 L179.500676,40.6762205 C179.220218,40.9561035 178.765507,40.9561035 178.48505,40.6762205 C178.235754,40.4274355 178.208055,40.0412505 178.401951,39.7619322 L178.48505,39.6626743 L180.008489,38.1423552 C180.288946,37.8624721 180.743657,37.8624721 181.024115,38.1423552 Z M176.961611,36.463057 C177.314168,36.463057 177.607389,36.7165847 177.668196,37.0509172 L177.679767,37.1797423 L177.679767,39.3297983 C177.679767,39.7256127 177.358237,40.0464836 176.961611,40.0464836 C176.609054,40.0464836 176.315833,39.792956 176.255025,39.4586234 L176.243455,39.3297983 L176.243455,37.1797423 C176.243455,36.7839279 176.564984,36.463057 176.961611,36.463057 Z" id="Combined-Shape" fill-rule="nonzero"></path>
                            <path d="M272.503292,7.88353863 C272.855849,7.88353863 273.14907,8.1370663 273.209878,8.47139887 L273.221448,8.60022396 L273.221448,10.75028 C273.221448,11.1460943 272.899919,11.4669653 272.503292,11.4669653 C272.150735,11.4669653 271.857514,11.2134376 271.796707,10.879105 L271.785136,10.75028 L271.785136,8.60022396 C271.785136,8.20440959 272.106666,7.88353863 272.503292,7.88353863 Z M274.942896,7.17087351 L275.042357,7.25380181 L276.565796,8.77412099 C276.846253,9.05400402 276.846253,9.50778407 276.565796,9.7876671 C276.316501,10.036452 275.929523,10.0640948 275.649632,9.8705954 L275.55017,9.7876671 L274.026731,8.26734793 C273.746274,7.9874649 273.746274,7.53368485 274.026731,7.25380181 C274.244865,7.03611501 274.568411,6.98774017 274.833395,7.10867728 L274.942896,7.17087351 Z M270.979853,7.25380181 C271.229149,7.50258673 271.256848,7.88877176 271.062952,8.16809004 L270.979853,8.26734793 L269.456414,9.7876671 C269.175957,10.0675501 268.721246,10.0675501 268.440788,9.7876671 C268.191493,9.53888218 268.163793,9.15269715 268.35769,8.87337888 L268.440788,8.77412099 L269.964227,7.25380181 C270.244685,6.97391878 270.699396,6.97391878 270.979853,7.25380181 Z M277.530384,5.01679731 C277.927011,5.01679731 278.24854,5.33766826 278.24854,5.73348264 C278.24854,6.08531765 277.994492,6.37793809 277.659474,6.43862121 L277.530384,6.45016797 L275.375916,6.45016797 C274.97929,6.45016797 274.65776,6.12929702 274.65776,5.73348264 C274.65776,5.38164764 274.911808,5.0890272 275.246827,5.02834407 L275.375916,5.01679731 L277.530384,5.01679731 Z M269.630668,5.01679731 C270.027295,5.01679731 270.348824,5.33766826 270.348824,5.73348264 C270.348824,6.08531765 270.094776,6.37793809 269.759758,6.43862121 L269.630668,6.45016797 L267.4762,6.45016797 C267.079573,6.45016797 266.758044,6.12929702 266.758044,5.73348264 C266.758044,5.38164764 267.012092,5.0890272 267.347111,5.02834407 L267.4762,5.01679731 L269.630668,5.01679731 Z M269.356953,1.59636988 L269.456414,1.67929819 L270.979853,3.19961736 C271.260311,3.47950039 271.260311,3.93328044 270.979853,4.21316347 C270.730558,4.46194839 270.34358,4.48959116 270.063689,4.29609178 L269.964227,4.21316347 L268.440788,2.6928443 C268.160331,2.41296127 268.160331,1.95918122 268.440788,1.67929819 C268.658922,1.46161138 268.982468,1.41323654 269.247452,1.53417365 L269.356953,1.59636988 Z M276.565796,1.67929819 C276.815092,1.9280831 276.842791,2.31426813 276.648895,2.59358641 L276.565796,2.6928443 L275.042357,4.21316347 C274.7619,4.4930465 274.307189,4.4930465 274.026731,4.21316347 C273.777436,3.96437856 273.749736,3.57819352 273.943633,3.29887525 L274.026731,3.19961736 L275.55017,1.67929819 C275.830627,1.39941516 276.285339,1.39941516 276.565796,1.67929819 Z M272.503292,1.24126167e-14 C272.855849,1.24126167e-14 273.14907,0.253527666 273.209878,0.587860236 L273.221448,0.71668533 L273.221448,2.86674132 C273.221448,3.2625557 272.899919,3.58342665 272.503292,3.58342665 C272.150735,3.58342665 271.857514,3.32989899 271.796707,2.99556642 L271.785136,2.86674132 L271.785136,0.71668533 C271.785136,0.320870952 272.106666,1.24126167e-14 272.503292,1.24126167e-14 Z" id="Combined-Shape-Copy-5" fill-rule="nonzero"></path>
                        </g>
                        <g id="Doughnut" transform="translate(37.475326, 31.534155)">
                            <g id="base">
                                <g id="Path">
                                    <use fill="black" fill-opacity="1" filter="url(#filter-2)" xlink:href="#path-1"></use>
                                    <use fill="#FFFFFF" fill-rule="evenodd" xlink:href="#path-1"></use>
                                </g>
                                <g id="Path">
                                    <use fill="black" fill-opacity="1" filter="url(#filter-4)" xlink:href="#path-3"></use>
                                    <use fill="#FFFFFF" fill-rule="evenodd" xlink:href="#path-3"></use>
                                </g>
                                <path d="M6.21107911,-8.80373333e-15 L83.2284601,-8.80373333e-15 C86.6587444,-8.80373333e-15 89.4395392,2.77363026 89.4395392,6.19507658 L89.4395392,14.7133069 L0,14.7133069 L0,6.19507658 C0,2.77363026 2.78079484,-8.80373333e-15 6.21107911,-8.80373333e-15 Z" id="Path-Copy" fill="#E8E9EC"></path>
                            </g>
                            <g id="Group-3" opacity="0.815359933" transform="translate(52.349235, 23.202688)" fill="#CCCED3" fill-rule="nonzero">
                                <path d="M11.0826206,22.4653509 C11.1112025,20.4074561 11.5970943,18.8425987 12.5402961,17.7707785 L12.5402961,17.7707785 L15.1769737,15.1769737 C17.3491959,12.9190058 18.435307,10.6253107 18.435307,8.29588816 C18.435307,5.68064693 17.6314419,3.6441886 16.0237116,2.18651316 C14.4159814,0.728837719 12.1758772,0 9.30339912,0 C6.51666667,0 4.2765625,0.735983187 2.58308662,2.20794956 C0.889610746,3.67991594 0.0285818713,5.68064693 0,8.21014254 L0,8.21014254 L5.20904605,8.21014254 C5.20904605,7.02399488 5.58418311,6.08436586 6.33445724,5.39125548 C7.08473136,4.6981451 8.07437865,4.35158991 9.30339912,4.35158991 C10.5895833,4.35158991 11.5649397,4.70529057 12.2294682,5.41269189 C12.8939967,6.1200932 13.226261,7.14546784 13.226261,8.48881579 C13.226261,9.50347222 12.9404423,10.446674 12.3688048,11.3184211 C11.9972405,11.8900585 11.1147752,12.8511239 9.72140899,14.2016173 C8.32804276,15.5521107 7.39555921,16.7918494 6.92395833,17.9208333 C6.45235746,19.0498173 6.21655702,20.5646564 6.21655702,22.4653509 L6.21655702,22.4653509 L11.0826206,22.4653509 Z M8.78892544,31.8973684 C9.73212719,31.8973684 10.4609649,31.6329861 10.9754386,31.1042215 C11.4899123,30.5754569 11.7471491,29.9180738 11.7471491,29.1320724 C11.7471491,28.317489 11.4827668,27.6422423 10.9540022,27.1063322 C10.4252376,26.5704221 9.70354532,26.3024671 8.78892544,26.3024671 C7.88859649,26.3024671 7.17404971,26.5632767 6.64528509,27.0848958 C6.11652047,27.606515 5.85213816,28.2889072 5.85213816,29.1320724 C5.85213816,29.9180738 6.10580227,30.5754569 6.61313048,31.1042215 C7.1204587,31.6329861 7.84572368,31.8973684 8.78892544,31.8973684 Z" id="?"></path>
                            </g>
                            <path d="M9.8387375,32.2508399 L31.8143118,32.2508399 C32.488577,32.2508399 33.035177,32.8925818 33.035177,33.6842105 C33.035177,34.4758393 32.488577,35.1175812 31.8143118,35.1175812 L9.8387375,35.1175812 C9.16447225,35.1175812 8.61787227,34.4758393 8.61787227,33.6842105 C8.61787227,32.8925818 9.16447225,32.2508399 9.8387375,32.2508399 Z" id="Rectangle" fill="#CCCED3" opacity="0.647623698"></path>
                            <path d="M9.8387375,25.8006719 L31.8143118,25.8006719 C32.488577,25.8006719 33.035177,26.4424138 33.035177,27.2340426 C33.035177,28.0256713 32.488577,28.6674132 31.8143118,28.6674132 L9.8387375,28.6674132 C9.16447225,28.6674132 8.61787227,28.0256713 8.61787227,27.2340426 C8.61787227,26.4424138 9.16447225,25.8006719 9.8387375,25.8006719 Z" id="Rectangle-Copy-3" fill="#CCCED3" opacity="0.647623698"></path>
                            <path d="M9.92361049,38.7010078 L21.6752545,38.7010078 C22.3963938,38.7010078 22.9809927,39.3427497 22.9809927,40.1343785 C22.9809927,40.9260073 22.3963938,41.5677492 21.6752545,41.5677492 L9.92361049,41.5677492 C9.20247118,41.5677492 8.61787227,40.9260073 8.61787227,40.1343785 C8.61787227,39.3427497 9.20247118,38.7010078 9.92361049,38.7010078 Z" id="Rectangle-Copy-2" fill="#CCCED3" opacity="0.647623698"></path>
                        </g>
                        <g id="DOC-Copy-2" transform="translate(277.423286, 65.123698) rotate(30.000000) translate(-277.423286, -65.123698) translate(251.458373, 30.035979)">
                            <g id="Rectangle">
                                <use fill="black" fill-opacity="1" filter="url(#filter-6)" xlink:href="#path-5"></use>
                                <use fill="#FFFFFF" fill-rule="evenodd" xlink:href="#path-5"></use>
                            </g>
                            <g id="Rectangle">
                                <use fill="black" fill-opacity="1" filter="url(#filter-8)" xlink:href="#path-7"></use>
                                <use fill="#FFFFFF" fill-rule="evenodd" xlink:href="#path-7"></use>
                            </g>
                            <g id="Triangle" transform="translate(7.437697, 7.565132) rotate(139.000000) translate(-7.437697, -7.565132) ">
                                <use fill="black" fill-opacity="1" filter="url(#filter-10)" xlink:href="#path-9"></use>
                                <use fill="#CCCED3" fill-rule="evenodd" xlink:href="#path-9"></use>
                            </g>
                        </g>
                        <g id="Excel" transform="translate(237.348625, 53.485571) rotate(-17.000000) translate(-237.348625, -53.485571) translate(206.471432, 9.976799)">
                            <g id="Rectangle">
                                <use fill="black" fill-opacity="1" filter="url(#filter-12)" xlink:href="#path-11"></use>
                                <use fill="#FFFFFF" fill-rule="evenodd" xlink:href="#path-11"></use>
                            </g>
                            <g id="Rectangle">
                                <use fill="black" fill-opacity="1" filter="url(#filter-14)" xlink:href="#path-13"></use>
                                <use fill="#FFFFFF" fill-rule="evenodd" xlink:href="#path-13"></use>
                            </g>
                            <g id="Grid" transform="translate(0.851757, 4.443076)">
                                <path d="M32.8094708,5.03204594 L41.2221557,5.03204594 C41.6867754,5.03204594 42.0634242,5.40753322 42.0634242,5.87072026 L42.0634242,9.22541755 C42.0634242,9.68860459 41.6867754,10.0640919 41.2221557,10.0640919 L32.8094708,10.0640919 C32.3448511,10.0640919 31.9682024,9.68860459 31.9682024,9.22541755 L31.9682024,5.87072026 C31.9682024,5.40753322 32.3448511,5.03204594 32.8094708,5.03204594 Z" id="Rectangle" fill="#EBEBEC" opacity="0.0936104911"></path>
                                <path d="M5.88887938,5.03204594 L14.3015642,5.03204594 C14.766184,5.03204594 15.1428327,5.40753322 15.1428327,5.87072026 L15.1428327,9.22541755 C15.1428327,9.68860459 14.766184,10.0640919 14.3015642,10.0640919 L5.88887938,10.0640919 C5.42425963,10.0640919 5.0476109,9.68860459 5.0476109,9.22541755 L5.0476109,5.87072026 C5.0476109,5.40753322 5.42425963,5.03204594 5.88887938,5.03204594 Z" id="Rectangle-Copy-8" fill="#EBEBEC" opacity="0.0936104911"></path>
                                <path d="M46.2697666,5.03204594 L54.6824514,5.03204594 C55.1470712,5.03204594 55.5237199,5.40753322 55.5237199,5.87072026 L55.5237199,9.22541755 C55.5237199,9.68860459 55.1470712,10.0640919 54.6824514,10.0640919 L46.2697666,10.0640919 C45.8051468,10.0640919 45.4284981,9.68860459 45.4284981,9.22541755 L45.4284981,5.87072026 C45.4284981,5.40753322 45.8051468,5.03204594 46.2697666,5.03204594 Z" id="Rectangle-Copy-7" fill="#EBEBEC" opacity="0.0936104911"></path>
                                <path d="M19.3491751,5.03204594 L27.7618599,5.03204594 C28.2264797,5.03204594 28.6031284,5.40753322 28.6031284,5.87072026 L28.6031284,9.22541755 C28.6031284,9.68860459 28.2264797,10.0640919 27.7618599,10.0640919 L19.3491751,10.0640919 C18.8845554,10.0640919 18.5079066,9.68860459 18.5079066,9.22541755 L18.5079066,5.87072026 C18.5079066,5.40753322 18.8845554,5.03204594 19.3491751,5.03204594 Z" id="Rectangle-Copy-9" fill="#EBEBEC" opacity="0.0936104911"></path>
                                <path d="M32.8094708,13.4187892 L41.2221557,13.4187892 C41.6867754,13.4187892 42.0634242,13.7942764 42.0634242,14.2574635 L42.0634242,17.6121608 C42.0634242,18.0753478 41.6867754,18.4508351 41.2221557,18.4508351 L32.8094708,18.4508351 C32.3448511,18.4508351 31.9682024,18.0753478 31.9682024,17.6121608 L31.9682024,14.2574635 C31.9682024,13.7942764 32.3448511,13.4187892 32.8094708,13.4187892 Z" id="Rectangle" fill="#EBEBEC" opacity="0.0936104911"></path>
                                <path d="M5.88887938,13.4187892 L14.3015642,13.4187892 C14.766184,13.4187892 15.1428327,13.7942764 15.1428327,14.2574635 L15.1428327,17.6121608 C15.1428327,18.0753478 14.766184,18.4508351 14.3015642,18.4508351 L5.88887938,18.4508351 C5.42425963,18.4508351 5.0476109,18.0753478 5.0476109,17.6121608 L5.0476109,14.2574635 C5.0476109,13.7942764 5.42425963,13.4187892 5.88887938,13.4187892 Z" id="Rectangle-Copy-8" fill="#EBEBEC" opacity="0.0936104911"></path>
                                <path d="M46.2697666,13.4187892 L54.6824514,13.4187892 C55.1470712,13.4187892 55.5237199,13.7942764 55.5237199,14.2574635 L55.5237199,17.6121608 C55.5237199,18.0753478 55.1470712,18.4508351 54.6824514,18.4508351 L46.2697666,18.4508351 C45.8051468,18.4508351 45.4284981,18.0753478 45.4284981,17.6121608 L45.4284981,14.2574635 C45.4284981,13.7942764 45.8051468,13.4187892 46.2697666,13.4187892 Z" id="Rectangle-Copy-7" fill="#EBEBEC" opacity="0.0936104911"></path>
                                <path d="M19.3491751,13.4187892 L27.7618599,13.4187892 C28.2264797,13.4187892 28.6031284,13.7942764 28.6031284,14.2574635 L28.6031284,17.6121608 C28.6031284,18.0753478 28.2264797,18.4508351 27.7618599,18.4508351 L19.3491751,18.4508351 C18.8845554,18.4508351 18.5079066,18.0753478 18.5079066,17.6121608 L18.5079066,14.2574635 C18.5079066,13.7942764 18.8845554,13.4187892 19.3491751,13.4187892 Z" id="Rectangle-Copy-9" fill="#EBEBEC" opacity="0.0936104911"></path>
                                <path d="M32.8094708,21.8055324 L41.2221557,21.8055324 C41.6867754,21.8055324 42.0634242,22.1810197 42.0634242,22.6442067 L42.0634242,25.998904 C42.0634242,26.462091 41.6867754,26.8375783 41.2221557,26.8375783 L32.8094708,26.8375783 C32.3448511,26.8375783 31.9682024,26.462091 31.9682024,25.998904 L31.9682024,22.6442067 C31.9682024,22.1810197 32.3448511,21.8055324 32.8094708,21.8055324 Z" id="Rectangle" fill="#EBEBEC" opacity="0.0936104911"></path>
                                <path d="M5.88887938,21.8055324 L14.3015642,21.8055324 C14.766184,21.8055324 15.1428327,22.1810197 15.1428327,22.6442067 L15.1428327,25.998904 C15.1428327,26.462091 14.766184,26.8375783 14.3015642,26.8375783 L5.88887938,26.8375783 C5.42425963,26.8375783 5.0476109,26.462091 5.0476109,25.998904 L5.0476109,22.6442067 C5.0476109,22.1810197 5.42425963,21.8055324 5.88887938,21.8055324 Z" id="Rectangle-Copy-8" fill="#EBEBEC" opacity="0.0936104911"></path>
                                <path d="M46.2697666,21.8055324 L54.6824514,21.8055324 C55.1470712,21.8055324 55.5237199,22.1810197 55.5237199,22.6442067 L55.5237199,25.998904 C55.5237199,26.462091 55.1470712,26.8375783 54.6824514,26.8375783 L46.2697666,26.8375783 C45.8051468,26.8375783 45.4284981,26.462091 45.4284981,25.998904 L45.4284981,22.6442067 C45.4284981,22.1810197 45.8051468,21.8055324 46.2697666,21.8055324 Z" id="Rectangle-Copy-7" fill="#EBEBEC" opacity="0.0936104911"></path>
                                <path d="M19.3491751,21.8055324 L27.7618599,21.8055324 C28.2264797,21.8055324 28.6031284,22.1810197 28.6031284,22.6442067 L28.6031284,25.998904 C28.6031284,26.462091 28.2264797,26.8375783 27.7618599,26.8375783 L19.3491751,26.8375783 C18.8845554,26.8375783 18.5079066,26.462091 18.5079066,25.998904 L18.5079066,22.6442067 C18.5079066,22.1810197 18.8845554,21.8055324 19.3491751,21.8055324 Z" id="Rectangle-Copy-9" fill="#EBEBEC" opacity="0.0936104911"></path>
                                <path d="M32.8094708,30.1922756 L41.2221557,30.1922756 C41.6867754,30.1922756 42.0634242,30.5677629 42.0634242,31.0309499 L42.0634242,34.3856472 C42.0634242,34.8488343 41.6867754,35.2243216 41.2221557,35.2243216 L32.8094708,35.2243216 C32.3448511,35.2243216 31.9682024,34.8488343 31.9682024,34.3856472 L31.9682024,31.0309499 C31.9682024,30.5677629 32.3448511,30.1922756 32.8094708,30.1922756 Z" id="Rectangle" fill="#EBEBEC" opacity="0.0936104911"></path>
                                <path d="M5.88887938,30.1922756 L14.3015642,30.1922756 C14.766184,30.1922756 15.1428327,30.5677629 15.1428327,31.0309499 L15.1428327,34.3856472 C15.1428327,34.8488343 14.766184,35.2243216 14.3015642,35.2243216 L5.88887938,35.2243216 C5.42425963,35.2243216 5.0476109,34.8488343 5.0476109,34.3856472 L5.0476109,31.0309499 C5.0476109,30.5677629 5.42425963,30.1922756 5.88887938,30.1922756 Z" id="Rectangle-Copy-8" fill="#EBEBEC" opacity="0.0936104911"></path>
                                <path d="M46.2697666,30.1922756 L54.6824514,30.1922756 C55.1470712,30.1922756 55.5237199,30.5677629 55.5237199,31.0309499 L55.5237199,34.3856472 C55.5237199,34.8488343 55.1470712,35.2243216 54.6824514,35.2243216 L46.2697666,35.2243216 C45.8051468,35.2243216 45.4284981,34.8488343 45.4284981,34.3856472 L45.4284981,31.0309499 C45.4284981,30.5677629 45.8051468,30.1922756 46.2697666,30.1922756 Z" id="Rectangle-Copy-7" fill="#EBEBEC" opacity="0.0936104911"></path>
                                <path d="M19.3491751,30.1922756 L27.7618599,30.1922756 C28.2264797,30.1922756 28.6031284,30.5677629 28.6031284,31.0309499 L28.6031284,34.3856472 C28.6031284,34.8488343 28.2264797,35.2243216 27.7618599,35.2243216 L19.3491751,35.2243216 C18.8845554,35.2243216 18.5079066,34.8488343 18.5079066,34.3856472 L18.5079066,31.0309499 C18.5079066,30.5677629 18.8845554,30.1922756 19.3491751,30.1922756 Z" id="Rectangle-Copy-9" fill="#EBEBEC" opacity="0.0936104911"></path>
                                <path d="M32.8094708,38.5790188 L41.2221557,38.5790188 C41.6867754,38.5790188 42.0634242,38.9545061 42.0634242,39.4176932 L42.0634242,42.7723905 C42.0634242,43.2355775 41.6867754,43.6110648 41.2221557,43.6110648 L32.8094708,43.6110648 C32.3448511,43.6110648 31.9682024,43.2355775 31.9682024,42.7723905 L31.9682024,39.4176932 C31.9682024,38.9545061 32.3448511,38.5790188 32.8094708,38.5790188 Z" id="Rectangle" fill="#EBEBEC" opacity="0.0936104911"></path>
                                <path d="M5.88887938,38.5790188 L14.3015642,38.5790188 C14.766184,38.5790188 15.1428327,38.9545061 15.1428327,39.4176932 L15.1428327,42.7723905 C15.1428327,43.2355775 14.766184,43.6110648 14.3015642,43.6110648 L5.88887938,43.6110648 C5.42425963,43.6110648 5.0476109,43.2355775 5.0476109,42.7723905 L5.0476109,39.4176932 C5.0476109,38.9545061 5.42425963,38.5790188 5.88887938,38.5790188 Z" id="Rectangle-Copy-8" fill="#EBEBEC" opacity="0.0936104911"></path>
                                <path d="M46.2697666,38.5790188 L54.6824514,38.5790188 C55.1470712,38.5790188 55.5237199,38.9545061 55.5237199,39.4176932 L55.5237199,42.7723905 C55.5237199,43.2355775 55.1470712,43.6110648 54.6824514,43.6110648 L46.2697666,43.6110648 C45.8051468,43.6110648 45.4284981,43.2355775 45.4284981,42.7723905 L45.4284981,39.4176932 C45.4284981,38.9545061 45.8051468,38.5790188 46.2697666,38.5790188 Z" id="Rectangle-Copy-7" fill="#EBEBEC" opacity="0.0936104911"></path>
                                <path d="M19.3491751,38.5790188 L27.7618599,38.5790188 C28.2264797,38.5790188 28.6031284,38.9545061 28.6031284,39.4176932 L28.6031284,42.7723905 C28.6031284,43.2355775 28.2264797,43.6110648 27.7618599,43.6110648 L19.3491751,43.6110648 C18.8845554,43.6110648 18.5079066,43.2355775 18.5079066,42.7723905 L18.5079066,39.4176932 C18.5079066,38.9545061 18.8845554,38.5790188 19.3491751,38.5790188 Z" id="Rectangle-Copy-9" fill="#EBEBEC" opacity="0.0936104911"></path>
                                <path d="M32.8094708,46.9657621 L41.2221557,46.9657621 C41.6867754,46.9657621 42.0634242,47.3412494 42.0634242,47.8044364 L42.0634242,51.1591337 C42.0634242,51.6223207 41.6867754,51.997808 41.2221557,51.997808 L32.8094708,51.997808 C32.3448511,51.997808 31.9682024,51.6223207 31.9682024,51.1591337 L31.9682024,47.8044364 C31.9682024,47.3412494 32.3448511,46.9657621 32.8094708,46.9657621 Z" id="Rectangle" fill="#EBEBEC" opacity="0.0936104911"></path>
                                <path d="M5.88887938,46.9657621 L14.3015642,46.9657621 C14.766184,46.9657621 15.1428327,47.3412494 15.1428327,47.8044364 L15.1428327,51.1591337 C15.1428327,51.6223207 14.766184,51.997808 14.3015642,51.997808 L5.88887938,51.997808 C5.42425963,51.997808 5.0476109,51.6223207 5.0476109,51.1591337 L5.0476109,47.8044364 C5.0476109,47.3412494 5.42425963,46.9657621 5.88887938,46.9657621 Z" id="Rectangle-Copy-8" fill="#EBEBEC" opacity="0.0936104911"></path>
                                <path d="M46.2697666,46.9657621 L54.6824514,46.9657621 C55.1470712,46.9657621 55.5237199,47.3412494 55.5237199,47.8044364 L55.5237199,51.1591337 C55.5237199,51.6223207 55.1470712,51.997808 54.6824514,51.997808 L46.2697666,51.997808 C45.8051468,51.997808 45.4284981,51.6223207 45.4284981,51.1591337 L45.4284981,47.8044364 C45.4284981,47.3412494 45.8051468,46.9657621 46.2697666,46.9657621 Z" id="Rectangle-Copy-7" fill="#EBEBEC" opacity="0.0936104911"></path>
                                <path d="M19.3491751,46.9657621 L27.7618599,46.9657621 C28.2264797,46.9657621 28.6031284,47.3412494 28.6031284,47.8044364 L28.6031284,51.1591337 C28.6031284,51.6223207 28.2264797,51.997808 27.7618599,51.997808 L19.3491751,51.997808 C18.8845554,51.997808 18.5079066,51.6223207 18.5079066,51.1591337 L18.5079066,47.8044364 C18.5079066,47.3412494 18.8845554,46.9657621 19.3491751,46.9657621 Z" id="Rectangle-Copy-9" fill="#EBEBEC" opacity="0.0936104911"></path>
                                <path d="M32.8094708,55.3525053 L41.2221557,55.3525053 C41.6867754,55.3525053 42.0634242,55.7279926 42.0634242,56.1911796 L42.0634242,59.5458769 C42.0634242,60.009064 41.6867754,60.3845512 41.2221557,60.3845512 L32.8094708,60.3845512 C32.3448511,60.3845512 31.9682024,60.009064 31.9682024,59.5458769 L31.9682024,56.1911796 C31.9682024,55.7279926 32.3448511,55.3525053 32.8094708,55.3525053 Z" id="Rectangle" fill="#EBEBEC" opacity="0.0936104911"></path>
                                <path d="M5.88887938,55.3525053 L14.3015642,55.3525053 C14.766184,55.3525053 15.1428327,55.7279926 15.1428327,56.1911796 L15.1428327,59.5458769 C15.1428327,60.009064 14.766184,60.3845512 14.3015642,60.3845512 L5.88887938,60.3845512 C5.42425963,60.3845512 5.0476109,60.009064 5.0476109,59.5458769 L5.0476109,56.1911796 C5.0476109,55.7279926 5.42425963,55.3525053 5.88887938,55.3525053 Z" id="Rectangle-Copy-8" fill="#EBEBEC" opacity="0.0936104911"></path>
                                <path d="M46.2697666,55.3525053 L54.6824514,55.3525053 C55.1470712,55.3525053 55.5237199,55.7279926 55.5237199,56.1911796 L55.5237199,59.5458769 C55.5237199,60.009064 55.1470712,60.3845512 54.6824514,60.3845512 L46.2697666,60.3845512 C45.8051468,60.3845512 45.4284981,60.009064 45.4284981,59.5458769 L45.4284981,56.1911796 C45.4284981,55.7279926 45.8051468,55.3525053 46.2697666,55.3525053 Z" id="Rectangle-Copy-7" fill="#EBEBEC" opacity="0.0936104911"></path>
                                <path d="M19.3491751,55.3525053 L27.7618599,55.3525053 C28.2264797,55.3525053 28.6031284,55.7279926 28.6031284,56.1911796 L28.6031284,59.5458769 C28.6031284,60.009064 28.2264797,60.3845512 27.7618599,60.3845512 L19.3491751,60.3845512 C18.8845554,60.3845512 18.5079066,60.009064 18.5079066,59.5458769 L18.5079066,56.1911796 C18.5079066,55.7279926 18.8845554,55.3525053 19.3491751,55.3525053 Z" id="Rectangle-Copy-9" fill="#EBEBEC" opacity="0.0936104911"></path>
                                <path d="M32.8094708,63.7392485 L41.2221557,63.7392485 C41.6867754,63.7392485 42.0634242,64.1147358 42.0634242,64.5779229 L42.0634242,67.9326201 C42.0634242,68.3958072 41.6867754,68.7712945 41.2221557,68.7712945 L32.8094708,68.7712945 C32.3448511,68.7712945 31.9682024,68.3958072 31.9682024,67.9326201 L31.9682024,64.5779229 C31.9682024,64.1147358 32.3448511,63.7392485 32.8094708,63.7392485 Z" id="Rectangle" fill="#EBEBEC" opacity="0.0936104911"></path>
                                <path d="M5.88887938,63.7392485 L14.3015642,63.7392485 C14.766184,63.7392485 15.1428327,64.1147358 15.1428327,64.5779229 L15.1428327,67.9326201 C15.1428327,68.3958072 14.766184,68.7712945 14.3015642,68.7712945 L5.88887938,68.7712945 C5.42425963,68.7712945 5.0476109,68.3958072 5.0476109,67.9326201 L5.0476109,64.5779229 C5.0476109,64.1147358 5.42425963,63.7392485 5.88887938,63.7392485 Z" id="Rectangle-Copy-8" fill="#EBEBEC" opacity="0.0936104911"></path>
                                <path d="M46.2697666,63.7392485 L54.6824514,63.7392485 C55.1470712,63.7392485 55.5237199,64.1147358 55.5237199,64.5779229 L55.5237199,67.9326201 C55.5237199,68.3958072 55.1470712,68.7712945 54.6824514,68.7712945 L46.2697666,68.7712945 C45.8051468,68.7712945 45.4284981,68.3958072 45.4284981,67.9326201 L45.4284981,64.5779229 C45.4284981,64.1147358 45.8051468,63.7392485 46.2697666,63.7392485 Z" id="Rectangle-Copy-7" fill="#EBEBEC" opacity="0.0936104911"></path>
                                <path d="M19.3491751,63.7392485 L27.7618599,63.7392485 C28.2264797,63.7392485 28.6031284,64.1147358 28.6031284,64.5779229 L28.6031284,67.9326201 C28.6031284,68.3958072 28.2264797,68.7712945 27.7618599,68.7712945 L19.3491751,68.7712945 C18.8845554,68.7712945 18.5079066,68.3958072 18.5079066,67.9326201 L18.5079066,64.5779229 C18.5079066,64.1147358 18.8845554,63.7392485 19.3491751,63.7392485 Z" id="Rectangle-Copy-9" fill="#EBEBEC" opacity="0.0936104911"></path>
                                <path d="M32.8094708,72.1259918 L41.2221557,72.1259918 C41.6867754,72.1259918 42.0634242,72.501479 42.0634242,72.9646661 L42.0634242,76.3193634 C42.0634242,76.7825504 41.6867754,77.1580377 41.2221557,77.1580377 L32.8094708,77.1580377 C32.3448511,77.1580377 31.9682024,76.7825504 31.9682024,76.3193634 L31.9682024,72.9646661 C31.9682024,72.501479 32.3448511,72.1259918 32.8094708,72.1259918 Z" id="Rectangle" fill="#EBEBEC" opacity="0.0936104911"></path>
                                <path d="M5.88887938,72.1259918 L14.3015642,72.1259918 C14.766184,72.1259918 15.1428327,72.501479 15.1428327,72.9646661 L15.1428327,76.3193634 C15.1428327,76.7825504 14.766184,77.1580377 14.3015642,77.1580377 L5.88887938,77.1580377 C5.42425963,77.1580377 5.0476109,76.7825504 5.0476109,76.3193634 L5.0476109,72.9646661 C5.0476109,72.501479 5.42425963,72.1259918 5.88887938,72.1259918 Z" id="Rectangle-Copy-8" fill="#EBEBEC" opacity="0.0936104911"></path>
                                <path d="M46.2697666,72.1259918 L54.6824514,72.1259918 C55.1470712,72.1259918 55.5237199,72.501479 55.5237199,72.9646661 L55.5237199,76.3193634 C55.5237199,76.7825504 55.1470712,77.1580377 54.6824514,77.1580377 L46.2697666,77.1580377 C45.8051468,77.1580377 45.4284981,76.7825504 45.4284981,76.3193634 L45.4284981,72.9646661 C45.4284981,72.501479 45.8051468,72.1259918 46.2697666,72.1259918 Z" id="Rectangle-Copy-7" fill="#EBEBEC" opacity="0.0936104911"></path>
                                <path d="M19.3491751,72.1259918 L27.7618599,72.1259918 C28.2264797,72.1259918 28.6031284,72.501479 28.6031284,72.9646661 L28.6031284,76.3193634 C28.6031284,76.7825504 28.2264797,77.1580377 27.7618599,77.1580377 L19.3491751,77.1580377 C18.8845554,77.1580377 18.5079066,76.7825504 18.5079066,76.3193634 L18.5079066,72.9646661 C18.5079066,72.501479 18.8845554,72.1259918 19.3491751,72.1259918 Z" id="Rectangle-Copy-9" fill="#EBEBEC" opacity="0.0936104911"></path>
                                <polygon id="Rectangle" fill="url(#linearGradient-15)" points="1.59560474e-13 2.5928577e-13 58.8887938 2.5928577e-13 58.8887938 81.4035088 1.59560474e-13 81.4035088"></polygon>
                            </g>
                            <polygon id="X" fill-opacity="0.8" fill="#CCCED3" fill-rule="nonzero" points="12.7684304 79.5760851 18.4884433 71.9856913 24.2084561 79.5760851 30.1639989 79.5760851 21.8531567 69.4601353 29.575174 59.5088958 23.9561026 59.5088958 18.7576203 66.7286917 13.4581967 59.5088958 7.70453672 59.5088958 15.3424362 69.2267959 7.18300614 79.5760851"></polygon>
                        </g>
                        <g id="Trend" transform="translate(119.345113, 90.302352)">
                            <g id="base">
                                <g id="Path">
                                    <use fill="black" fill-opacity="1" filter="url(#filter-17)" xlink:href="#path-16"></use>
                                    <use fill="#FFFFFF" fill-rule="evenodd" xlink:href="#path-16"></use>
                                </g>
                                <g id="Path">
                                    <use fill="black" fill-opacity="1" filter="url(#filter-19)" xlink:href="#path-18"></use>
                                    <use fill="#FFFFFF" fill-rule="evenodd" xlink:href="#path-18"></use>
                                </g>
                                <path d="M7.18156022,-1.01847111e-14 L96.232907,-1.01847111e-14 C100.199173,-1.01847111e-14 103.414467,3.20870952 103.414467,7.1668533 L103.414467,17.0212766 L0,17.0212766 L0,7.1668533 C0,3.20870952 3.21529403,-1.01847111e-14 7.18156022,-1.01847111e-14 Z" id="Path-Copy" fill="#E8E9EC"></path>
                            </g>
                            <g id="lines" transform="translate(11.490496, 30.100784)" fill="#CCCED3" fill-opacity="0.27" fill-rule="nonzero">
                                <path d="M79.3562405,38.3426652 C79.5545538,38.3426652 79.7153185,38.5833184 79.7153185,38.8801792 C79.7153185,39.1346313 79.5972056,39.347788 79.4385737,39.403497 L79.3562405,39.4176932 L1.66533454e-16,39.4176932 C-0.19831331,39.4176932 -0.359078011,39.17704 -0.359078011,38.8801792 C-0.359078011,38.6257271 -0.240965169,38.4125703 -0.0823332934,38.3568613 L1.66533454e-16,38.3426652 L79.3562405,38.3426652 Z" id="Line"></path>
                                <path d="M79.3562405,28.8465845 C79.5545538,28.8465845 79.7153185,29.0872378 79.7153185,29.3840985 C79.7153185,29.6385506 79.5972056,29.8517074 79.4385737,29.9074164 L79.3562405,29.9216125 L1.66533454e-16,29.9216125 C-0.19831331,29.9216125 -0.359078011,29.6809593 -0.359078011,29.3840985 C-0.359078011,29.1296464 -0.240965169,28.9164897 -0.0823332934,28.8607807 L1.66533454e-16,28.8465845 L79.3562405,28.8465845 Z" id="Line-Copy"></path>
                                <path d="M79.3562405,19.3505039 C79.5545538,19.3505039 79.7153185,19.5911571 79.7153185,19.8880179 C79.7153185,20.14247 79.5972056,20.3556268 79.4385737,20.4113358 L79.3562405,20.4255319 L1.66533454e-16,20.4255319 C-0.19831331,20.4255319 -0.359078011,20.1848787 -0.359078011,19.8880179 C-0.359078011,19.6335658 -0.240965169,19.4204091 -0.0823332934,19.3647 L1.66533454e-16,19.3505039 L79.3562405,19.3505039 Z" id="Line-Copy-2"></path>
                                <path d="M79.3562405,9.85442329 C79.5545538,9.85442329 79.7153185,10.0950765 79.7153185,10.3919373 C79.7153185,10.6463894 79.5972056,10.8595461 79.4385737,10.9152552 L79.3562405,10.9294513 L1.66533454e-16,10.9294513 C-0.19831331,10.9294513 -0.359078011,10.6887981 -0.359078011,10.3919373 C-0.359078011,10.1374852 -0.240965169,9.92432845 -0.0823332934,9.86861942 L1.66533454e-16,9.85442329 L79.3562405,9.85442329 Z" id="Line-Copy-3"></path>
                                <path d="M79.3562405,0.358342665 C79.5545538,0.358342665 79.7153185,0.598995879 79.7153185,0.895856663 C79.7153185,1.15030876 79.5972056,1.36346551 79.4385737,1.41917453 L79.3562405,1.43337066 L1.66533454e-16,1.43337066 C-0.19831331,1.43337066 -0.359078011,1.19271745 -0.359078011,0.895856663 C-0.359078011,0.641404563 -0.240965169,0.42824782 -0.0823332934,0.372538793 L1.66533454e-16,0.358342665 L79.3562405,0.358342665 Z" id="Line-Copy-4"></path>
                            </g>
                            <g id="Group" transform="translate(33.035177, 74.535274)">
                                <path d="M5.74524818,0 L14.3631204,0 C15.1563737,0 15.7994325,0.641741904 15.7994325,1.43337066 C15.7994325,2.22499942 15.1563737,2.86674132 14.3631204,2.86674132 L5.74524818,2.86674132 C4.95199494,2.86674132 4.30893613,2.22499942 4.30893613,1.43337066 C4.30893613,0.641741904 4.95199494,0 5.74524818,0 Z" id="Rectangle-Copy-2" fill-opacity="0.35" fill="#67696F"></path>
                                <path d="M27.2899288,0 L35.9078011,0 C36.7010543,0 37.3441132,0.641741904 37.3441132,1.43337066 C37.3441132,2.22499942 36.7010543,2.86674132 35.9078011,2.86674132 L27.2899288,2.86674132 C26.4966756,2.86674132 25.8536168,2.22499942 25.8536168,1.43337066 C25.8536168,0.641741904 26.4966756,0 27.2899288,0 Z" id="Rectangle-Copy-5" fill-opacity="0.35" fill="#67696F"></path>
                                <path d="M1.43631204,0 C2.22956528,0 2.87262409,0.641741904 2.87262409,1.43337066 C2.87262409,2.22499942 2.22956528,2.86674132 1.43631204,2.86674132 C0.643058806,2.86674132 0,2.22499942 0,1.43337066 C0,0.641741904 0.643058806,0 1.43631204,0 Z" id="Rectangle-Copy-4" fill="#DFE0E1" opacity="0.647623698"></path>
                                <path d="M22.9809927,0 C23.7742459,0 24.4173048,0.641741904 24.4173048,1.43337066 C24.4173048,2.22499942 23.7742459,2.86674132 22.9809927,2.86674132 C22.1877395,2.86674132 21.5446807,2.22499942 21.5446807,1.43337066 C21.5446807,0.641741904 22.1877395,0 22.9809927,0 Z" id="Rectangle-Copy-6" fill="#ACAEB2" opacity="0.647623698"></path>
                            </g>
                        </g>
                    </g>
                </g>
            </g>
        </g>
    </g>
</svg>
