<?xml version="1.0" encoding="UTF-8"?>
<svg width="168px" height="106px" viewBox="0 0 168 106" version="1.1" xmlns="http://www.w3.org/2000/svg" xmlns:xlink="http://www.w3.org/1999/xlink">
    <defs>
        <path d="M3.96258092,0 L42.2174617,0 C43.9212994,0 45.3025327,1.37475587 45.3025327,3.07060318 C45.3025327,4.99825962 45.3025327,6.4056194 45.3025327,7.29268254 C45.3025327,13.0927108 45.3025327,21.715988 45.3025327,33.1625143 C45.3025327,34.8583616 43.9212994,36.2331175 42.2174617,36.2331175 L3.96258092,36.2331175 C2.25874324,36.2331175 0.877509891,34.8583616 0.877509891,33.1625143 C0.877509891,21.6136346 0.877509891,12.9903573 0.877509891,7.29268254 C0.877509891,6.30326597 0.877509891,4.89590618 0.877509891,3.07060318 C0.877509891,1.37475587 2.25874324,0 3.96258092,0 Z" id="path-1"></path>
        <filter x="-34.9%" y="-31.7%" width="169.8%" height="185.6%" filterUnits="objectBoundingBox" id="filter-2">
            <feOffset dx="0" dy="4" in="SourceAlpha" result="shadowOffsetOuter1"></feOffset>
            <feGaussianBlur stdDeviation="4.5" in="shadowOffsetOuter1" result="shadowBlurOuter1"></feGaussianBlur>
            <feColorMatrix values="0 0 0 0 0   0 0 0 0 0   0 0 0 0 0  0 0 0 0.25 0" type="matrix" in="shadowBlurOuter1"></feColorMatrix>
        </filter>
        <path d="M3.08507103,0 L41.3399518,0 C43.0437895,0 44.4250228,1.37475587 44.4250228,3.07060318 C44.4250228,4.99825962 44.4250228,6.4056194 44.4250228,7.29268254 C44.4250228,13.0927108 44.4250228,21.715988 44.4250228,33.1625143 C44.4250228,34.8583616 43.0437895,36.2331175 41.3399518,36.2331175 L3.08507103,36.2331175 C1.38123335,36.2331175 0,34.8583616 0,33.1625143 C0,21.6136346 0,12.9903573 0,7.29268254 C0,6.30326597 0,4.89590618 0,3.07060318 C0,1.37475587 1.38123335,0 3.08507103,0 Z" id="path-3"></path>
        <filter x="-34.9%" y="-31.7%" width="169.8%" height="185.6%" filterUnits="objectBoundingBox" id="filter-4">
            <feOffset dx="0" dy="4" in="SourceAlpha" result="shadowOffsetOuter1"></feOffset>
            <feGaussianBlur stdDeviation="4.5" in="shadowOffsetOuter1" result="shadowBlurOuter1"></feGaussianBlur>
            <feColorMatrix values="0 0 0 0 0   0 0 0 0 0   0 0 0 0 0  0 0 0 0.25 0" type="matrix" in="shadowBlurOuter1"></feColorMatrix>
        </filter>
        <path d="M5.31022194,0.316208518 L23.8563805,0.316208518 C24.6444054,0.316208518 25.2832258,0.952370057 25.2832258,1.73711509 L25.2832258,32.2866063 C25.2832258,33.0713513 24.6444054,33.7075129 23.8563805,33.7075129 L2.45370019,33.7075129 C1.66567527,33.7075129 1.02685484,33.0713513 1.02685484,32.2866063 L1.02685484,4.10185058 L5.31022194,0.316208518 Z" id="path-5"></path>
        <filter x="-63.9%" y="-34.4%" width="227.8%" height="192.8%" filterUnits="objectBoundingBox" id="filter-6">
            <feOffset dx="0" dy="4" in="SourceAlpha" result="shadowOffsetOuter1"></feOffset>
            <feGaussianBlur stdDeviation="4.5" in="shadowOffsetOuter1" result="shadowBlurOuter1"></feGaussianBlur>
            <feColorMatrix values="0 0 0 0 0   0 0 0 0 0   0 0 0 0 0  0 0 0 0.25 0" type="matrix" in="shadowBlurOuter1"></feColorMatrix>
        </filter>
        <path d="M4.46759521,0.79539221 L23.0137537,0.79539221 C23.8017787,0.79539221 24.4405991,1.43155375 24.4405991,2.21629878 L24.4405991,32.76579 C24.4405991,33.550535 23.8017787,34.1866966 23.0137537,34.1866966 L1.61107346,34.1866966 C0.823048532,34.1866966 0.184228108,33.550535 0.184228108,32.76579 L0.184228108,4.58103427 L4.46759521,0.79539221 Z" id="path-7"></path>
        <filter x="-63.9%" y="-34.4%" width="227.8%" height="192.8%" filterUnits="objectBoundingBox" id="filter-8">
            <feOffset dx="0" dy="4" in="SourceAlpha" result="shadowOffsetOuter1"></feOffset>
            <feGaussianBlur stdDeviation="4.5" in="shadowOffsetOuter1" result="shadowBlurOuter1"></feGaussianBlur>
            <feColorMatrix values="0 0 0 0 0   0 0 0 0 0   0 0 0 0 0  0 0 0 0.25 0" type="matrix" in="shadowBlurOuter1"></feColorMatrix>
        </filter>
        <path d="M4.80334188,3.36913993 L7.10610714,5.37090323 L7.10610714,5.37090323 L0.266913938,5.39411134 L2.03196216,3.51087659 C2.76739742,2.72619705 3.99169145,2.66358298 4.80334188,3.36913993 Z" id="path-9"></path>
        <filter x="-29.2%" y="-67.7%" width="158.5%" height="198.1%" filterUnits="objectBoundingBox" id="filter-10">
            <feOffset dx="0" dy="-1" in="SourceAlpha" result="shadowOffsetOuter1"></feOffset>
            <feGaussianBlur stdDeviation="0.5" in="shadowOffsetOuter1" result="shadowBlurOuter1"></feGaussianBlur>
            <feColorMatrix values="0 0 0 0 0   0 0 0 0 0   0 0 0 0 0  0 0 0 0.17 0" type="matrix" in="shadowBlurOuter1"></feColorMatrix>
        </filter>
        <path d="M2.33367274,0.464832295 L29.912555,0.464832295 C30.3741125,0.464832295 30.7482788,0.841336063 30.7482788,1.305777 L30.7482788,40.8301781 C30.7482788,41.294619 30.3741125,41.6711228 29.912555,41.6711228 L2.33367274,41.6711228 C1.87211529,41.6711228 1.49794904,41.294619 1.49794904,40.8301781 L1.49794904,1.305777 C1.49794904,0.841336063 1.87211529,0.464832295 2.33367274,0.464832295 Z" id="path-11"></path>
        <filter x="-25.6%" y="-10.9%" width="151.3%" height="136.4%" filterUnits="objectBoundingBox" id="filter-12">
            <feOffset dx="0" dy="3" in="SourceAlpha" result="shadowOffsetOuter1"></feOffset>
            <feGaussianBlur stdDeviation="2" in="shadowOffsetOuter1" result="shadowBlurOuter1"></feGaussianBlur>
            <feColorMatrix values="0 0 0 0 0   0 0 0 0 0   0 0 0 0 0  0 0 0 0.25 0" type="matrix" in="shadowBlurOuter1"></feColorMatrix>
        </filter>
        <path d="M1.50454459,1.47624519 L29.0834269,1.47624519 C29.5449844,1.47624519 29.9191506,1.85274896 29.9191506,2.31718989 L29.9191506,41.841591 C29.9191506,42.3060319 29.5449844,42.6825357 29.0834269,42.6825357 L1.50454459,42.6825357 C1.04298713,42.6825357 0.668820886,42.3060319 0.668820886,41.841591 L0.668820886,2.31718989 C0.668820886,1.85274896 1.04298713,1.47624519 1.50454459,1.47624519 Z" id="path-13"></path>
        <filter x="-53.0%" y="-27.9%" width="206.0%" height="175.2%" filterUnits="objectBoundingBox" id="filter-15">
            <feOffset dx="0" dy="4" in="SourceAlpha" result="shadowOffsetOuter1"></feOffset>
            <feGaussianBlur stdDeviation="4.5" in="shadowOffsetOuter1" result="shadowBlurOuter1"></feGaussianBlur>
            <feColorMatrix values="0 0 0 0 0   0 0 0 0 0   0 0 0 0 0  0 0 0 0.25 0" type="matrix" in="shadowBlurOuter1"></feColorMatrix>
        </filter>
        <linearGradient x1="50%" y1="1.00031672%" x2="50%" y2="99.3243243%" id="linearGradient-16">
            <stop stop-color="#FFFFFF" stop-opacity="0" offset="0%"></stop>
            <stop stop-color="#F1F2F5" offset="100%"></stop>
        </linearGradient>
        <path d="M4.63724739,0 L48.8694533,0 C50.8395156,0 52.4365667,1.59040385 52.4365667,3.55226642 C52.4365667,5.78230034 52.4365667,7.41042245 52.4365667,8.43663275 C52.4365667,15.1464693 52.4365667,25.1224175 52.4365667,38.3644773 C52.4365667,40.3263399 50.8395156,41.9167438 48.8694533,41.9167438 L4.63724739,41.9167438 C2.66718507,41.9167438 1.07013401,40.3263399 1.07013401,38.3644773 C1.07013401,25.0040086 1.07013401,15.0280604 1.07013401,8.43663275 C1.07013401,7.29201357 1.07013401,5.66389146 1.07013401,3.55226642 C1.07013401,1.59040385 2.66718507,0 4.63724739,0 Z" id="path-17"></path>
        <filter x="-30.2%" y="-27.4%" width="160.4%" height="174.0%" filterUnits="objectBoundingBox" id="filter-18">
            <feOffset dx="0" dy="4" in="SourceAlpha" result="shadowOffsetOuter1"></feOffset>
            <feGaussianBlur stdDeviation="4.5" in="shadowOffsetOuter1" result="shadowBlurOuter1"></feGaussianBlur>
            <feColorMatrix values="0 0 0 0 0   0 0 0 0 0   0 0 0 0 0  0 0 0 0.25 0" type="matrix" in="shadowBlurOuter1"></feColorMatrix>
        </filter>
        <path d="M3.56711338,0 L47.7993193,0 C49.7693816,0 51.3664327,1.59040385 51.3664327,3.55226642 C51.3664327,5.78230034 51.3664327,7.41042245 51.3664327,8.43663275 C51.3664327,15.1464693 51.3664327,25.1224175 51.3664327,38.3644773 C51.3664327,40.3263399 49.7693816,41.9167438 47.7993193,41.9167438 L3.56711338,41.9167438 C1.59705106,41.9167438 0,40.3263399 0,38.3644773 C0,25.0040086 0,15.0280604 0,8.43663275 C0,7.29201357 0,5.66389146 0,3.55226642 C0,1.59040385 1.59705106,0 3.56711338,0 Z" id="path-19"></path>
        <filter x="-30.2%" y="-27.4%" width="160.4%" height="174.0%" filterUnits="objectBoundingBox" id="filter-20">
            <feOffset dx="0" dy="4" in="SourceAlpha" result="shadowOffsetOuter1"></feOffset>
            <feGaussianBlur stdDeviation="4.5" in="shadowOffsetOuter1" result="shadowBlurOuter1"></feGaussianBlur>
            <feColorMatrix values="0 0 0 0 0   0 0 0 0 0   0 0 0 0 0  0 0 0 0.25 0" type="matrix" in="shadowBlurOuter1"></feColorMatrix>
        </filter>
    </defs>
    <g id="In-App-generic-empty-states" stroke="none" stroke-width="1" fill="none" fill-rule="evenodd" opacity="0.5">
        <g id="Generic-Empty-State_No-data" transform="translate(-773.000000, -345.000000)">
            <g id="Dark" transform="translate(683.000000, 0.000000)">
                <g id="No-data_S" transform="translate(90.000000, 312.000000)">
                    <g id="No-data-dark-_S-drawing/Dark" transform="translate(0.000000, 38.000000)">
                        <path d="M36.5259377,1.43426578 C68.508146,2.45947536 102.120973,-0.274881091 132.687602,7.76416747 C156.423373,14.0066947 146.000489,72.603014 140.195752,88.1190159 C134.391015,103.635018 111.62985,91.346278 82.3385077,91.346278 C53.0471654,91.346278 36.5259377,105.139508 23.0303832,88.1190159 C3.50282175,58.6463028 4.54372935,0.409056207 36.5259377,1.43426578 Z" id="Rectangle" fill="#CCCED3" opacity="0.08"></path>
                        <path d="M52.797618,0.502569697 C78.0501533,-2.91358026 124.516748,11.520396 152.764431,30.5975753 C174.699481,45.411494 139.710831,82.3506117 127.145022,92.9352315 C114.579212,103.519851 94.3794477,101.278016 62.2331255,94.0050545 C30.0868032,86.7320934 8.9764949,86.9555485 2.19708025,67.3026241 C-5.56532889,34.8268373 27.5450828,3.91871966 52.797618,0.502569697 Z" id="Rectangle-Copy" fill="#F1F2F5" opacity="0.22"></path>
                        <g id="Doughnut" transform="translate(18.265599, 15.629972)">
                            <g id="base">
                                <g id="Path">
                                    <use fill="black" fill-opacity="1" filter="url(#filter-2)" xlink:href="#path-1"></use>
                                    <use fill="#D5D6DA" fill-rule="evenodd" xlink:href="#path-1"></use>
                                </g>
                                <g id="Path">
                                    <use fill="black" fill-opacity="1" filter="url(#filter-4)" xlink:href="#path-3"></use>
                                    <use fill="#D5D6DA" fill-rule="evenodd" xlink:href="#path-3"></use>
                                </g>
                                <path d="M3.08507103,-4.36358956e-15 L41.3399518,-4.36358956e-15 C43.0437895,-4.36358956e-15 44.4250228,1.37475587 44.4250228,3.07060318 L44.4250228,7.29268254 L0,7.29268254 L0,3.07060318 C0,1.37475587 1.38123335,-4.36358956e-15 3.08507103,-4.36358956e-15 Z" id="Path-Copy" fill="#9EA0A5"></path>
                            </g>
                            <g id="Group-3" opacity="0.815359933" transform="translate(25.043478, 11.826087)" fill="#B1B3B7" fill-rule="nonzero">
                                <path d="M5.55258795,11.2555361 C5.56690797,10.2244946 5.81034831,9.44047351 6.28290899,8.90347274 L6.28290899,8.90347274 L7.60393088,7.60393088 C8.69225244,6.47264926 9.23641322,5.32346762 9.23641322,4.15638595 C9.23641322,2.84610407 8.83366264,1.82580261 8.02816149,1.09548157 C7.22266034,0.365160523 6.10032873,0 4.66116667,0 C3.26496467,0 2.14263307,0.368740528 1.29417185,1.10622158 C0.445710638,1.84370264 0.0143200205,2.84610407 0,4.11342589 L0,4.11342589 L2.60982373,4.11342589 C2.60982373,3.51914504 2.797774,3.04837436 3.17367454,2.70111387 C3.54957508,2.35385337 4.04540579,2.18022312 4.66116667,2.18022312 C5.30556759,2.18022312 5.79423829,2.35743337 6.12717877,2.71185388 C6.46011924,3.06627439 6.62658948,3.58000512 6.62658948,4.25304609 C6.62658948,4.76140681 6.48338928,5.23396749 6.19698887,5.67072811 C6.0108286,5.95712852 5.56869797,6.43863921 4.87059697,7.11526018 C4.17249597,7.79188115 3.7053053,8.41301204 3.46902496,8.97865285 C3.23274463,9.54429366 3.11460446,10.3032547 3.11460446,11.2555361 L3.11460446,11.2555361 L5.55258795,11.2555361 Z M4.4034063,15.9811429 C4.87596698,15.9811429 5.2411275,15.8486827 5.49888787,15.5837623 C5.75664824,15.3188419 5.88552842,14.9894815 5.88552842,14.5956809 C5.88552842,14.1875603 5.75306823,13.8492498 5.48814785,13.5807494 C5.22322747,13.312249 4.86164696,13.1779989 4.4034063,13.1779989 C3.95232566,13.1779989 3.59432514,13.308669 3.32940476,13.5700094 C3.06448439,13.8313498 2.9320242,14.1732403 2.9320242,14.5956809 C2.9320242,14.9894815 3.05911438,15.3188419 3.31329474,15.5837623 C3.56747511,15.8486827 3.93084563,15.9811429 4.4034063,15.9811429 Z" id="?"></path>
                            </g>
                            <path d="M4.88694533,15.9851989 L15.8023123,15.9851989 C16.1372229,15.9851989 16.4087215,16.3032797 16.4087215,16.6956522 C16.4087215,17.0880247 16.1372229,17.4061055 15.8023123,17.4061055 L4.88694533,17.4061055 C4.55203474,17.4061055 4.28053606,17.0880247 4.28053606,16.6956522 C4.28053606,16.3032797 4.55203474,15.9851989 4.88694533,15.9851989 Z" id="Rectangle" fill="#9EA0A5" opacity="0.647623698"></path>
                            <path d="M4.88694533,12.7881591 L15.8023123,12.7881591 C16.1372229,12.7881591 16.4087215,13.1062399 16.4087215,13.4986124 C16.4087215,13.8909849 16.1372229,14.2090657 15.8023123,14.2090657 L4.88694533,14.2090657 C4.55203474,14.2090657 4.28053606,13.8909849 4.28053606,13.4986124 C4.28053606,13.1062399 4.55203474,12.7881591 4.88694533,12.7881591 Z" id="Rectangle-Copy-3" fill="#9EA0A5" opacity="0.647623698"></path>
                            <path d="M4.92910212,19.1822387 L10.7661967,19.1822387 C11.1243899,19.1822387 11.4147628,19.5003194 11.4147628,19.892692 C11.4147628,20.2850645 11.1243899,20.6031452 10.7661967,20.6031452 L4.92910212,20.6031452 C4.57090898,20.6031452 4.28053606,20.2850645 4.28053606,19.892692 C4.28053606,19.5003194 4.57090898,19.1822387 4.92910212,19.1822387 Z" id="Rectangle-Copy-2" fill="#9EA0A5" opacity="0.647623698"></path>
                        </g>
                        <g id="Decorations" opacity="0.6" transform="translate(0.430032, 0.710453)" fill="#CCCED3">
                            <path d="M70.9855563,37.2543941 C71.0950042,37.2543941 71.1860318,37.3329325 71.2049089,37.436503 L71.2085008,37.4764107 L71.2085008,38.1424607 C71.2085008,38.2650771 71.1086852,38.3644773 70.9855563,38.3644773 C70.8761083,38.3644773 70.7850808,38.2859389 70.7662036,38.1823685 L70.7626117,38.1424607 L70.7626117,37.4764107 C70.7626117,37.3537943 70.8624274,37.2543941 70.9855563,37.2543941 Z M71.7429075,37.0336228 L71.7737844,37.0593126 L72.2467213,37.530281 C72.3337866,37.6169839 72.3337866,37.7575571 72.2467213,37.84426 C72.1693299,37.9213292 72.0491965,37.9298925 71.9623069,37.8699497 L71.93143,37.84426 L71.4584931,37.3732915 C71.3714279,37.2865886 71.3714279,37.1460155 71.4584931,37.0593126 C71.5262106,36.991877 71.6266524,36.9768913 71.708914,37.0143555 L71.7429075,37.0336228 Z M70.5126194,37.0593126 C70.5900107,37.1363818 70.5986098,37.2560152 70.5384165,37.3425432 L70.5126194,37.3732915 L70.0396825,37.84426 C69.9526172,37.9309629 69.8114565,37.9309629 69.7243912,37.84426 C69.6469999,37.7671907 69.6384008,37.6475573 69.6985941,37.5610294 L69.7243912,37.530281 L70.1973281,37.0593126 C70.2843934,36.9726097 70.4255541,36.9726097 70.5126194,37.0593126 Z M72.5461684,36.3663275 C72.6692973,36.3663275 72.7691129,36.4657277 72.7691129,36.5883441 C72.7691129,36.6973365 72.6902462,36.7879852 72.5862429,36.8067838 L72.5461684,36.8103608 L71.8773346,36.8103608 C71.7542057,36.8103608 71.65439,36.7109605 71.65439,36.5883441 C71.65439,36.4793518 71.7332567,36.388703 71.83726,36.3699045 L71.8773346,36.3663275 L72.5461684,36.3663275 Z M70.0937779,36.3663275 C70.2169068,36.3663275 70.3167225,36.4657277 70.3167225,36.5883441 C70.3167225,36.6973365 70.2378558,36.7879852 70.1338525,36.8067838 L70.0937779,36.8103608 L69.4249442,36.8103608 C69.3018153,36.8103608 69.2019996,36.7109605 69.2019996,36.5883441 C69.2019996,36.4793518 69.2808663,36.388703 69.3848696,36.3699045 L69.4249442,36.3663275 L70.0937779,36.3663275 Z M70.0088056,35.3067385 L70.0396825,35.3324283 L70.5126194,35.8033967 C70.5996846,35.8900996 70.5996846,36.0306728 70.5126194,36.1173757 C70.435228,36.1944449 70.3150946,36.2030082 70.228205,36.1430654 L70.1973281,36.1173757 L69.7243912,35.6464072 C69.6373259,35.5597044 69.6373259,35.4191312 69.7243912,35.3324283 C69.7921087,35.2649927 69.8925505,35.250007 69.9748121,35.2874712 L70.0088056,35.3067385 Z M72.2467213,35.3324283 C72.3241126,35.4094975 72.3327117,35.5291309 72.2725184,35.6156589 L72.2467213,35.6464072 L71.7737844,36.1173757 C71.6867191,36.2040786 71.5455584,36.2040786 71.4584931,36.1173757 C71.3811018,36.0403064 71.3725027,35.920673 71.432696,35.8341451 L71.4584931,35.8033967 L71.93143,35.3324283 C72.0184953,35.2457254 72.159656,35.2457254 72.2467213,35.3324283 Z M70.9855563,34.8122109 C71.0950042,34.8122109 71.1860318,34.8907494 71.2049089,34.9943198 L71.2085008,35.0342276 L71.2085008,35.7002775 C71.2085008,35.8228939 71.1086852,35.9222942 70.9855563,35.9222942 C70.8761083,35.9222942 70.7850808,35.8437557 70.7662036,35.7401853 L70.7626117,35.7002775 L70.7626117,35.0342276 C70.7626117,34.9116112 70.8624274,34.8122109 70.9855563,34.8122109 Z" id="Combined-Shape-Copy-5" fill-rule="nonzero"></path>
                            <ellipse id="Oval" cx="142.505594" cy="57.9019426" rx="1.78355669" ry="1.77613321"></ellipse>
                            <ellipse id="Oval-Copy-2" cx="85.9674325" cy="52.5299777" rx="1.07013401" ry="1.06567993"></ellipse>
                            <path d="M95.9230152,12.0751054 L96.30472,12.0746383 C96.5808621,12.0743003 96.8049935,12.2978839 96.8053315,12.574026 C96.805332,12.5744346 96.805332,12.5748432 96.8053315,12.5752518 L96.7891057,25.7899863 C96.7887672,26.0656499 96.5653815,26.2890346 96.2897179,26.289372 L95.9080131,26.2898391 C95.6318709,26.290177 95.4077395,26.0665935 95.4074016,25.7904513 C95.4074011,25.7900427 95.4074011,25.7896341 95.4074016,25.7892255 L95.4236274,12.5744911 C95.4239659,12.2988275 95.6473516,12.0754427 95.9230152,12.0751054 Z" id="Rectangle-Copy-6" opacity="0.339076451" transform="translate(96.106367, 19.182239) scale(-1, 1) rotate(18.000000) translate(-96.106367, -19.182239) "></path>
                            <rect id="Rectangle-Copy-5" opacity="0.339076451" x="113.434205" y="68.9139685" width="1.42684535" height="11.3672525" rx="0.5"></rect>
                            <ellipse id="Oval-Copy-3" cx="0.713422676" cy="25.1775263" rx="1" ry="1"></ellipse>
                            <ellipse id="Oval-Copy-4" cx="125.562391" cy="66.0721554" rx="1" ry="1"></ellipse>
                            <ellipse id="Oval-Copy" cx="35.6711338" cy="76.0185014" rx="2.14026803" ry="2.13135985"></ellipse>
                            <g id="corner-llines" opacity="0.34" transform="translate(4.280536, 2.841813)">
                                <path d="M14.3490425,0.990114419 L14.7756301,0.990475571 C15.0514412,0.990709075 15.2749722,1.21423939 15.2752066,1.49005047 L15.2816033,9.01702911 C15.281838,9.29317138 15.0581707,9.51721917 14.7820284,9.51745385 C14.7817457,9.51745409 14.7814629,9.51745409 14.7811802,9.51745385 L14.3545926,9.5170927 C14.0787815,9.51685919 13.8552505,9.29332888 13.8550161,9.01751779 L13.8486194,1.49053916 C13.8483847,1.21439688 14.072052,0.990349097 14.3481943,0.99011442 C14.348477,0.99011418 14.3487598,0.99011418 14.3490425,0.990114419 Z" id="Rectangle-Copy" transform="translate(14.565111, 5.253784) rotate(-12.000000) translate(-14.565111, -5.253784) "></path>
                                <path d="M7.34516175,-1.43567281 L7.76913483,-1.43478925 C8.04446304,-1.43421547 8.26751787,-1.2111607 8.26809174,-0.93583249 L8.29568325,12.3018843 C8.29625881,12.5780261 8.07286826,12.8023498 7.79672649,12.8029254 C7.79603177,12.8029268 7.79533705,12.8029268 7.79464233,12.8029254 L7.37066926,12.8020418 C7.09534104,12.801468 6.87228622,12.5784132 6.87171235,12.303085 L6.84412084,-0.934631747 C6.84354527,-1.21077352 7.06693583,-1.43509725 7.3430776,-1.43567281 C7.34377232,-1.43567426 7.34446704,-1.43567426 7.34516175,-1.43567281 Z" id="Rectangle-Copy-2" transform="translate(7.569902, 5.683626) rotate(-44.000000) translate(-7.569902, -5.683626) "></path>
                                <path d="M5.49183396,6.68335812 L5.91313672,6.68379821 C6.18887183,6.68408624 6.41232716,6.90754241 6.41261415,7.18327752 L6.42345088,17.5948561 C6.4237383,17.8709983 6.2001138,18.0950888 5.92397157,18.0953763 C5.923624,18.0953766 5.92327643,18.0953766 5.92292885,18.0953763 L5.50162609,18.0949362 C5.22589099,18.0946481 5.00243566,17.871192 5.00214866,17.5954569 L4.99131193,7.18387826 C4.99102451,6.90773604 5.21464902,6.68364553 5.49079124,6.68335812 C5.49113882,6.68335775 5.49148639,6.68335776 5.49183396,6.68335812 Z" id="Rectangle-Copy-4" transform="translate(5.707381, 12.389367) rotate(-75.000000) translate(-5.707381, -12.389367) "></path>
                            </g>
                            <path d="M40.8740492,62.0175227 C41.1312266,61.7614156 41.5359021,61.7417151 41.8157716,61.958421 L41.8829812,62.0175227 L43.9004644,64.02605 L45.9187093,62.0175227 C46.1973182,61.7400734 46.6490325,61.7400734 46.9276413,62.0175227 C47.2062502,62.2949719 47.2062502,62.7448061 46.9276413,63.0222553 L44.9099575,65.0313414 L46.9276413,67.041186 C47.1848188,67.297293 47.2046016,67.7002842 46.98699,67.9789888 L46.9276413,68.0459187 C46.6704639,68.3020257 46.2657884,68.3217262 45.985919,68.1050203 L45.9187093,68.0459187 L43.9004644,66.0366327 L41.8829812,68.0459187 C41.6043723,68.3233679 41.1526581,68.3233679 40.8740492,68.0459187 C40.5954403,67.7684694 40.5954403,67.3186353 40.8740492,67.041186 L42.8909713,65.0313414 L40.8740492,63.0222553 C40.6168718,62.7661483 40.5970889,62.3631571 40.8147006,62.0844526 L40.8740492,62.0175227 Z" id="Path"></path>
                            <path d="M150.961147,45.5607687 C151.084003,45.6831134 151.084003,45.8814733 150.961147,46.003818 L150.070906,46.8899167 L150.961147,47.7760154 C151.068646,47.8830671 151.082083,48.0483178 151.001459,48.1699192 L150.961147,48.2190648 C150.853648,48.3261164 150.687707,48.3394979 150.565597,48.2592091 L150.516246,48.2190648 L149.626444,47.3325291 L148.736642,48.2190648 C148.613785,48.3414095 148.414596,48.3414095 148.29174,48.2190648 C148.168884,48.0967201 148.168884,47.8983601 148.29174,47.7760154 L149.181981,46.8899167 L148.29174,46.003818 C148.184241,45.8967664 148.170804,45.7315156 148.251428,45.6099142 L148.29174,45.5607687 C148.399239,45.4537171 148.565181,45.4403356 148.687291,45.5206243 L148.736642,45.5607687 L149.626444,46.4473043 L150.516246,45.5607687 C150.639102,45.438424 150.838291,45.438424 150.961147,45.5607687 Z" id="Path"></path>
                            <path d="M71.8029778,6.70574091 C71.9110537,6.70574091 71.9986666,6.79298911 71.9986666,6.90061523 L71.9986165,7.40340604 L72.3564693,7.04820511 C72.4328905,6.97210195 72.5567938,6.97210195 72.6332151,7.04820511 C72.7096363,7.12430826 72.7096363,7.24769586 72.6332151,7.32379901 L72.274711,7.67977237 L72.7814218,7.6801125 C72.8714851,7.6801125 72.9473379,7.74070153 72.9701204,7.8231815 L72.9771106,7.87498682 C72.9771106,7.96723777 72.912742,8.0445172 72.8262915,8.06471436 L72.7814218,8.06986113 L72.2754245,8.06981122 L72.6332151,8.42617462 C72.6968994,8.48959391 72.7075135,8.58584963 72.6650572,8.66021439 L72.6332151,8.70176852 C72.5695307,8.76518782 72.4728727,8.7757577 72.3981971,8.73347817 L72.3564693,8.70176852 L71.9986165,8.3454671 L71.9986666,8.8493584 C71.9986666,8.95698451 71.9110537,9.04423272 71.8029778,9.04423272 C71.6949018,9.04423272 71.607289,8.95698451 71.607289,8.8493584 L71.6069474,8.34475665 L71.2494862,8.70176852 C71.173065,8.77787168 71.0491617,8.77787168 70.9727405,8.70176852 C70.8963192,8.62566537 70.8963192,8.50227777 70.9727405,8.42617462 L71.329426,8.06981122 L70.8245337,8.06986113 C70.7344704,8.06986113 70.6586176,8.0092721 70.6358351,7.92679213 L70.6288449,7.87498682 C70.6288449,7.78273586 70.6932136,7.70545643 70.7796641,7.68525927 L70.8245337,7.6801125 L71.3301394,7.67977237 L70.9727405,7.32379901 C70.9090561,7.26037972 70.898442,7.16412401 70.9408983,7.08975924 L70.9727405,7.04820511 C71.0364248,6.98478582 71.1330828,6.97421594 71.2077584,7.01649547 L71.2494862,7.04820511 L71.6069474,7.4041165 L71.607289,6.90061523 C71.607289,6.79298911 71.6949018,6.70574091 71.8029778,6.70574091 Z" id="Path"></path>
                            <path d="M5.35067007,33.7029657 C5.44917319,33.7029657 5.52902574,33.7824859 5.52902574,33.880579 L5.52911492,34.2637798 L5.85118381,33.9433254 C5.92029034,33.8745065 6.03233416,33.8745065 6.10144068,33.9433254 C6.17054721,34.0121443 6.17054721,34.1237217 6.10144068,34.1925406 L5.70113896,34.5909435 L6.24244841,34.5910323 C6.33110122,34.5910323 6.40464707,34.6554437 6.41846971,34.7398358 L6.42080408,34.7686456 C6.42080408,34.8578212 6.35481024,34.9316472 6.26880451,34.9443332 L6.24244841,34.946259 L5.85711099,34.9460813 L6.10144068,35.1894017 C6.16363656,35.2513387 6.16985615,35.3479101 6.12009945,35.416774 L6.10144068,35.4386169 C6.03924481,35.5005539 5.94226973,35.5067476 5.87311802,35.457198 L5.85118381,35.4386169 L5.52911492,35.1179222 L5.52902574,35.6567122 C5.52902574,35.7548054 5.44917319,35.8343256 5.35067007,35.8343256 C5.25216695,35.8343256 5.1723144,35.7548054 5.1723144,35.6567122 L5.17222522,35.1176558 L4.85015633,35.4386169 C4.7810498,35.5074358 4.66900598,35.5074358 4.59989945,35.4386169 C4.53079293,35.369798 4.53079293,35.2582206 4.59989945,35.1894017 L4.84396161,34.9460813 L4.45889172,34.946259 C4.37023892,34.946259 4.29669307,34.8818476 4.28287043,34.7974554 L4.28053606,34.7686456 C4.28053606,34.6794701 4.3465299,34.605644 4.43253563,34.5929581 L4.45889172,34.5910323 L4.99966611,34.5909435 L4.59989945,34.1925406 C4.53770358,34.1306036 4.53148399,34.0340322 4.58124069,33.9651683 L4.59989945,33.9433254 C4.66209533,33.8813884 4.75907041,33.8751947 4.82822212,33.9247443 L4.85015633,33.9433254 L5.17222522,34.2640462 L5.1723144,33.880579 C5.1723144,33.7824859 5.25216695,33.7029657 5.35067007,33.7029657 Z" id="Path"></path>
                            <path d="M87.9109239,21.9804865 C88.0860405,21.9804865 88.2316847,22.1061481 88.2618881,22.2718607 L88.2676352,22.3357132 L88.2676352,23.4013931 C88.2676352,23.5975793 88.1079301,23.7566197 87.9109239,23.7566197 C87.7358072,23.7566197 87.590163,23.6309582 87.5599596,23.4652455 L87.5542125,23.4013931 L87.5542125,22.3357132 C87.5542125,22.1395269 87.7139176,21.9804865 87.9109239,21.9804865 Z M89.1226859,21.6272525 L89.1720889,21.6683561 L89.9287879,22.4219056 C90.0680923,22.5606302 90.0680923,22.7855473 89.9287879,22.9242719 C89.8049617,23.0475827 89.6127483,23.0612839 89.4737249,22.9653755 L89.4243219,22.9242719 L88.6676229,22.1707224 C88.5283184,22.0319978 88.5283184,21.8070807 88.6676229,21.6683561 C88.7759708,21.5604592 88.9366777,21.5364821 89.0682963,21.5964248 L89.1226859,21.6272525 Z M87.1542248,21.6683561 C87.278051,21.7916669 87.2918095,21.9830803 87.1955002,22.121525 L87.1542248,22.1707224 L86.3975258,22.9242719 C86.2582214,23.0629966 86.0323643,23.0629966 85.8930598,22.9242719 C85.7692336,22.8009612 85.7554752,22.6095477 85.8517844,22.471103 L85.8930598,22.4219056 L86.6497588,21.6683561 C86.7890633,21.5296315 87.0149204,21.5296315 87.1542248,21.6683561 Z M90.4079032,20.55958 C90.6049095,20.55958 90.7646146,20.7186203 90.7646146,20.9148066 C90.7646146,21.0891944 90.6384278,21.2342323 90.4720225,21.2643101 L90.4079032,21.2700332 L89.3377692,21.2700332 C89.140763,21.2700332 88.9810579,21.1109929 88.9810579,20.9148066 C88.9810579,20.7404188 89.1072446,20.5953809 89.2736499,20.5653031 L89.3377692,20.55958 L90.4079032,20.55958 Z M86.4840785,20.55958 C86.6810847,20.55958 86.8407898,20.7186203 86.8407898,20.9148066 C86.8407898,21.0891944 86.7146031,21.2342323 86.5481978,21.2643101 L86.4840785,21.2700332 L85.4139445,21.2700332 C85.2169383,21.2700332 85.0572332,21.1109929 85.0572332,20.9148066 C85.0572332,20.7404188 85.1834199,20.5953809 85.3498252,20.5653031 L85.4139445,20.55958 L86.4840785,20.55958 Z M86.3481228,18.8642377 L86.3975258,18.9053413 L87.1542248,19.6588908 C87.2935293,19.7976154 87.2935293,20.0225325 87.1542248,20.1612571 C87.0303987,20.2845679 86.8381852,20.2982691 86.6991618,20.2023607 L86.6497588,20.1612571 L85.8930598,19.4077076 C85.7537554,19.268983 85.7537554,19.0440659 85.8930598,18.9053413 C86.0014077,18.7974443 86.1621146,18.7734672 86.2937332,18.83341 L86.3481228,18.8642377 Z M89.9287879,18.9053413 C90.0526141,19.028652 90.0663725,19.2200655 89.9700633,19.3585102 L89.9287879,19.4077076 L89.1720889,20.1612571 C89.0327844,20.2999817 88.8069273,20.2999817 88.6676229,20.1612571 C88.5437967,20.0379463 88.5300382,19.8465329 88.6263475,19.7080882 L88.6676229,19.6588908 L89.4243219,18.9053413 C89.5636263,18.7666166 89.7894835,18.7666166 89.9287879,18.9053413 Z M87.9109239,18.0729935 C88.0860405,18.0729935 88.2316847,18.198655 88.2618881,18.3643677 L88.2676352,18.4282201 L88.2676352,19.4939 C88.2676352,19.6900863 88.1079301,19.8491267 87.9109239,19.8491267 C87.7358072,19.8491267 87.590163,19.7234651 87.5599596,19.5577525 L87.5542125,19.4939 L87.5542125,18.4282201 C87.5542125,18.2320338 87.7139176,18.0729935 87.9109239,18.0729935 Z" id="Combined-Shape" fill-rule="nonzero"></path>
                            <path d="M135.366909,3.90749306 C135.542025,3.90749306 135.687669,4.0331546 135.717873,4.19886727 L135.72362,4.2627197 L135.72362,5.32839963 C135.72362,5.52458589 135.563915,5.68362627 135.366909,5.68362627 C135.191792,5.68362627 135.046148,5.55796473 135.015944,5.39225207 L135.010197,5.32839963 L135.010197,4.2627197 C135.010197,4.06653345 135.169902,3.90749306 135.366909,3.90749306 Z M136.578671,3.55425904 L136.628074,3.59536264 L137.384773,4.34891214 C137.524077,4.48763677 137.524077,4.71255384 137.384773,4.85127848 C137.260946,4.97458926 137.068733,4.98829046 136.92971,4.89238207 L136.880307,4.85127848 L136.123608,4.09772897 C135.984303,3.95900434 135.984303,3.73408727 136.123608,3.59536264 C136.231955,3.4874657 136.392662,3.4634886 136.524281,3.52343135 L136.578671,3.55425904 Z M134.61021,3.59536264 C134.734036,3.71867342 134.747794,3.91008687 134.651485,4.04853158 L134.61021,4.09772897 L133.853511,4.85127848 C133.714206,4.99000311 133.488349,4.99000311 133.349045,4.85127848 C133.225218,4.72796769 133.21146,4.53655424 133.307769,4.39810953 L133.349045,4.34891214 L134.105744,3.59536264 C134.245048,3.45663801 134.470905,3.45663801 134.61021,3.59536264 Z M137.863888,2.48658649 C138.060894,2.48658649 138.220599,2.64562688 138.220599,2.84181314 C138.220599,3.01620092 138.094413,3.16123888 137.928007,3.1913166 L137.863888,3.19703978 L136.793754,3.19703978 C136.596748,3.19703978 136.437043,3.03799939 136.437043,2.84181314 C136.437043,2.66742535 136.563229,2.52238739 136.729635,2.49230967 L136.793754,2.48658649 L137.863888,2.48658649 Z M133.940063,2.48658649 C134.137069,2.48658649 134.296775,2.64562688 134.296775,2.84181314 C134.296775,3.01620092 134.170588,3.16123888 134.004183,3.1913166 L133.940063,3.19703978 L132.869929,3.19703978 C132.672923,3.19703978 132.513218,3.03799939 132.513218,2.84181314 C132.513218,2.66742535 132.639405,2.52238739 132.80581,2.49230967 L132.869929,2.48658649 L133.940063,2.48658649 Z M133.804108,0.791244202 L133.853511,0.832347797 L134.61021,1.5858973 C134.749514,1.72462193 134.749514,1.949539 134.61021,2.08826363 C134.486383,2.21157442 134.29417,2.22527562 134.155147,2.12936723 L134.105744,2.08826363 L133.349045,1.33471413 C133.20974,1.1959895 133.20974,0.971072429 133.349045,0.832347797 C133.457392,0.72445086 133.618099,0.700473763 133.749718,0.760416506 L133.804108,0.791244202 Z M137.384773,0.832347797 C137.508599,0.955658581 137.522357,1.14707203 137.426048,1.28551674 L137.384773,1.33471413 L136.628074,2.08826363 C136.488769,2.22698827 136.262912,2.22698827 136.123608,2.08826363 C135.999781,1.96495285 135.986023,1.7735394 136.082332,1.63509469 L136.123608,1.5858973 L136.880307,0.832347797 C137.019611,0.693623164 137.245468,0.693623164 137.384773,0.832347797 Z M135.366909,6.15234043e-15 C135.542025,6.15234043e-15 135.687669,0.125661539 135.717873,0.291374204 L135.72362,0.355226642 L135.72362,1.42090657 C135.72362,1.61709283 135.563915,1.77613321 135.366909,1.77613321 C135.191792,1.77613321 135.046148,1.65047167 135.015944,1.48475901 L135.010197,1.42090657 L135.010197,0.355226642 C135.010197,0.159040385 135.169902,6.15234043e-15 135.366909,6.15234043e-15 Z" id="Combined-Shape-Copy-5" fill-rule="nonzero"></path>
                        </g>
                        <g id="DOC-Copy-2" transform="translate(137.485372, 32.635325) rotate(30.000000) translate(-137.485372, -32.635325) translate(124.615807, 15.244021)">
                            <g id="Rectangle">
                                <use fill="black" fill-opacity="1" filter="url(#filter-6)" xlink:href="#path-5"></use>
                                <use fill="#D5D6DA" fill-rule="evenodd" xlink:href="#path-5"></use>
                            </g>
                            <g id="Rectangle">
                                <use fill="black" fill-opacity="1" filter="url(#filter-8)" xlink:href="#path-7"></use>
                                <use fill="#D5D6DA" fill-rule="evenodd" xlink:href="#path-7"></use>
                            </g>
                            <g id="Triangle" transform="translate(3.686511, 3.749674) rotate(139.000000) translate(-3.686511, -3.749674) ">
                                <use fill="black" fill-opacity="1" filter="url(#filter-10)" xlink:href="#path-9"></use>
                                <use fill="#9EA0A5" fill-rule="evenodd" xlink:href="#path-9"></use>
                            </g>
                        </g>
                        <g id="Excel" transform="translate(117.522760, 26.521372) rotate(-17.000000) translate(-117.522760, -26.521372) translate(101.870586, 4.956155)">
                            <g id="Rectangle">
                                <use fill="black" fill-opacity="1" filter="url(#filter-12)" xlink:href="#path-11"></use>
                                <use fill="#D5D6DA" fill-rule="evenodd" xlink:href="#path-11"></use>
                            </g>
                            <mask id="mask-14" fill="white">
                                <use xlink:href="#path-13"></use>
                            </mask>
                            <g id="Rectangle">
                                <use fill="black" fill-opacity="1" filter="url(#filter-15)" xlink:href="#path-13"></use>
                                <use fill="#D5D6DA" fill-rule="evenodd" xlink:href="#path-13"></use>
                            </g>
                            <g id="Grid" mask="url(#mask-14)">
                                <g transform="translate(-0.272581, 2.202220)">
                                    <path d="M17.342306,2.49414451 L21.5209245,2.49414451 C21.7517032,2.49414451 21.9387864,2.6802556 21.9387864,2.90983526 L21.9387864,4.57259826 C21.9387864,4.80217793 21.7517032,4.98828902 21.5209245,4.98828902 L17.342306,4.98828902 C17.1115273,4.98828902 16.9244441,4.80217793 16.9244441,4.57259826 L16.9244441,2.90983526 C16.9244441,2.6802556 17.1115273,2.49414451 17.342306,2.49414451 Z" id="Rectangle" fill-opacity="0.786276224" fill="#9EA0A5" opacity="0.176688058"></path>
                                    <path d="M3.97072669,2.49414451 L8.14934522,2.49414451 C8.38012394,2.49414451 8.56720707,2.6802556 8.56720707,2.90983526 L8.56720707,4.57259826 C8.56720707,4.80217793 8.38012394,4.98828902 8.14934522,4.98828902 L3.97072669,4.98828902 C3.73994796,4.98828902 3.55286483,4.80217793 3.55286483,4.57259826 L3.55286483,2.90983526 C3.55286483,2.6802556 3.73994796,2.49414451 3.97072669,2.49414451 Z" id="Rectangle-Copy-8" fill-opacity="0.786276224" fill="#9EA0A5" opacity="0.176688058"></path>
                                    <path d="M24.0280956,2.49414451 L28.2067142,2.49414451 C28.4374929,2.49414451 28.624576,2.6802556 28.624576,2.90983526 L28.624576,4.57259826 C28.624576,4.80217793 28.4374929,4.98828902 28.2067142,4.98828902 L24.0280956,4.98828902 C23.7973169,4.98828902 23.6102338,4.80217793 23.6102338,4.57259826 L23.6102338,2.90983526 C23.6102338,2.6802556 23.7973169,2.49414451 24.0280956,2.49414451 Z" id="Rectangle-Copy-7" fill-opacity="0.786276224" fill="#9EA0A5" opacity="0.176688058"></path>
                                    <path d="M10.6565163,2.49414451 L14.8351349,2.49414451 C15.0659136,2.49414451 15.2529967,2.6802556 15.2529967,2.90983526 L15.2529967,4.57259826 C15.2529967,4.80217793 15.0659136,4.98828902 14.8351349,4.98828902 L10.6565163,4.98828902 C10.4257376,4.98828902 10.2386545,4.80217793 10.2386545,4.57259826 L10.2386545,2.90983526 C10.2386545,2.6802556 10.4257376,2.49414451 10.6565163,2.49414451 Z" id="Rectangle-Copy-9" fill-opacity="0.786276224" fill="#9EA0A5" opacity="0.176688058"></path>
                                    <path d="M17.342306,6.65105202 L21.5209245,6.65105202 C21.7517032,6.65105202 21.9387864,6.83716311 21.9387864,7.06674277 L21.9387864,8.72950578 C21.9387864,8.95908544 21.7517032,9.14519653 21.5209245,9.14519653 L17.342306,9.14519653 C17.1115273,9.14519653 16.9244441,8.95908544 16.9244441,8.72950578 L16.9244441,7.06674277 C16.9244441,6.83716311 17.1115273,6.65105202 17.342306,6.65105202 Z" id="Rectangle" fill-opacity="0.786276224" fill="#9EA0A5" opacity="0.176688058"></path>
                                    <path d="M3.97072669,6.65105202 L8.14934522,6.65105202 C8.38012394,6.65105202 8.56720707,6.83716311 8.56720707,7.06674277 L8.56720707,8.72950578 C8.56720707,8.95908544 8.38012394,9.14519653 8.14934522,9.14519653 L3.97072669,9.14519653 C3.73994796,9.14519653 3.55286483,8.95908544 3.55286483,8.72950578 L3.55286483,7.06674277 C3.55286483,6.83716311 3.73994796,6.65105202 3.97072669,6.65105202 Z" id="Rectangle-Copy-8" fill-opacity="0.786276224" fill="#9EA0A5" opacity="0.176688058"></path>
                                    <path d="M24.0280956,6.65105202 L28.2067142,6.65105202 C28.4374929,6.65105202 28.624576,6.83716311 28.624576,7.06674277 L28.624576,8.72950578 C28.624576,8.95908544 28.4374929,9.14519653 28.2067142,9.14519653 L24.0280956,9.14519653 C23.7973169,9.14519653 23.6102338,8.95908544 23.6102338,8.72950578 L23.6102338,7.06674277 C23.6102338,6.83716311 23.7973169,6.65105202 24.0280956,6.65105202 Z" id="Rectangle-Copy-7" fill-opacity="0.786276224" fill="#9EA0A5" opacity="0.176688058"></path>
                                    <path d="M10.6565163,6.65105202 L14.8351349,6.65105202 C15.0659136,6.65105202 15.2529967,6.83716311 15.2529967,7.06674277 L15.2529967,8.72950578 C15.2529967,8.95908544 15.0659136,9.14519653 14.8351349,9.14519653 L10.6565163,9.14519653 C10.4257376,9.14519653 10.2386545,8.95908544 10.2386545,8.72950578 L10.2386545,7.06674277 C10.2386545,6.83716311 10.4257376,6.65105202 10.6565163,6.65105202 Z" id="Rectangle-Copy-9" fill-opacity="0.786276224" fill="#9EA0A5" opacity="0.176688058"></path>
                                    <path d="M17.342306,10.8079595 L21.5209245,10.8079595 C21.7517032,10.8079595 21.9387864,10.9940706 21.9387864,11.2236503 L21.9387864,12.8864133 C21.9387864,13.115993 21.7517032,13.302104 21.5209245,13.302104 L17.342306,13.302104 C17.1115273,13.302104 16.9244441,13.115993 16.9244441,12.8864133 L16.9244441,11.2236503 C16.9244441,10.9940706 17.1115273,10.8079595 17.342306,10.8079595 Z" id="Rectangle" fill-opacity="0.786276224" fill="#9EA0A5" opacity="0.176688058"></path>
                                    <path d="M3.97072669,10.8079595 L8.14934522,10.8079595 C8.38012394,10.8079595 8.56720707,10.9940706 8.56720707,11.2236503 L8.56720707,12.8864133 C8.56720707,13.115993 8.38012394,13.302104 8.14934522,13.302104 L3.97072669,13.302104 C3.73994796,13.302104 3.55286483,13.115993 3.55286483,12.8864133 L3.55286483,11.2236503 C3.55286483,10.9940706 3.73994796,10.8079595 3.97072669,10.8079595 Z" id="Rectangle-Copy-8" fill-opacity="0.786276224" fill="#9EA0A5" opacity="0.176688058"></path>
                                    <path d="M24.0280956,10.8079595 L28.2067142,10.8079595 C28.4374929,10.8079595 28.624576,10.9940706 28.624576,11.2236503 L28.624576,12.8864133 C28.624576,13.115993 28.4374929,13.302104 28.2067142,13.302104 L24.0280956,13.302104 C23.7973169,13.302104 23.6102338,13.115993 23.6102338,12.8864133 L23.6102338,11.2236503 C23.6102338,10.9940706 23.7973169,10.8079595 24.0280956,10.8079595 Z" id="Rectangle-Copy-7" fill-opacity="0.786276224" fill="#9EA0A5" opacity="0.176688058"></path>
                                    <path d="M10.6565163,10.8079595 L14.8351349,10.8079595 C15.0659136,10.8079595 15.2529967,10.9940706 15.2529967,11.2236503 L15.2529967,12.8864133 C15.2529967,13.115993 15.0659136,13.302104 14.8351349,13.302104 L10.6565163,13.302104 C10.4257376,13.302104 10.2386545,13.115993 10.2386545,12.8864133 L10.2386545,11.2236503 C10.2386545,10.9940706 10.4257376,10.8079595 10.6565163,10.8079595 Z" id="Rectangle-Copy-9" fill-opacity="0.786276224" fill="#9EA0A5" opacity="0.176688058"></path>
                                    <path d="M17.342306,14.964867 L21.5209245,14.964867 C21.7517032,14.964867 21.9387864,15.1509781 21.9387864,15.3805578 L21.9387864,17.0433208 C21.9387864,17.2729005 21.7517032,17.4590116 21.5209245,17.4590116 L17.342306,17.4590116 C17.1115273,17.4590116 16.9244441,17.2729005 16.9244441,17.0433208 L16.9244441,15.3805578 C16.9244441,15.1509781 17.1115273,14.964867 17.342306,14.964867 Z" id="Rectangle" fill-opacity="0.786276224" fill="#9EA0A5" opacity="0.176688058"></path>
                                    <path d="M3.97072669,14.964867 L8.14934522,14.964867 C8.38012394,14.964867 8.56720707,15.1509781 8.56720707,15.3805578 L8.56720707,17.0433208 C8.56720707,17.2729005 8.38012394,17.4590116 8.14934522,17.4590116 L3.97072669,17.4590116 C3.73994796,17.4590116 3.55286483,17.2729005 3.55286483,17.0433208 L3.55286483,15.3805578 C3.55286483,15.1509781 3.73994796,14.964867 3.97072669,14.964867 Z" id="Rectangle-Copy-8" fill-opacity="0.786276224" fill="#9EA0A5" opacity="0.176688058"></path>
                                    <path d="M24.0280956,14.964867 L28.2067142,14.964867 C28.4374929,14.964867 28.624576,15.1509781 28.624576,15.3805578 L28.624576,17.0433208 C28.624576,17.2729005 28.4374929,17.4590116 28.2067142,17.4590116 L24.0280956,17.4590116 C23.7973169,17.4590116 23.6102338,17.2729005 23.6102338,17.0433208 L23.6102338,15.3805578 C23.6102338,15.1509781 23.7973169,14.964867 24.0280956,14.964867 Z" id="Rectangle-Copy-7" fill-opacity="0.786276224" fill="#9EA0A5" opacity="0.176688058"></path>
                                    <path d="M10.6565163,14.964867 L14.8351349,14.964867 C15.0659136,14.964867 15.2529967,15.1509781 15.2529967,15.3805578 L15.2529967,17.0433208 C15.2529967,17.2729005 15.0659136,17.4590116 14.8351349,17.4590116 L10.6565163,17.4590116 C10.4257376,17.4590116 10.2386545,17.2729005 10.2386545,17.0433208 L10.2386545,15.3805578 C10.2386545,15.1509781 10.4257376,14.964867 10.6565163,14.964867 Z" id="Rectangle-Copy-9" fill-opacity="0.786276224" fill="#9EA0A5" opacity="0.176688058"></path>
                                    <path d="M17.342306,19.1217746 L21.5209245,19.1217746 C21.7517032,19.1217746 21.9387864,19.3078856 21.9387864,19.5374653 L21.9387864,21.2002283 C21.9387864,21.429808 21.7517032,21.6159191 21.5209245,21.6159191 L17.342306,21.6159191 C17.1115273,21.6159191 16.9244441,21.429808 16.9244441,21.2002283 L16.9244441,19.5374653 C16.9244441,19.3078856 17.1115273,19.1217746 17.342306,19.1217746 Z" id="Rectangle" fill-opacity="0.786276224" fill="#9EA0A5" opacity="0.176688058"></path>
                                    <path d="M3.97072669,19.1217746 L8.14934522,19.1217746 C8.38012394,19.1217746 8.56720707,19.3078856 8.56720707,19.5374653 L8.56720707,21.2002283 C8.56720707,21.429808 8.38012394,21.6159191 8.14934522,21.6159191 L3.97072669,21.6159191 C3.73994796,21.6159191 3.55286483,21.429808 3.55286483,21.2002283 L3.55286483,19.5374653 C3.55286483,19.3078856 3.73994796,19.1217746 3.97072669,19.1217746 Z" id="Rectangle-Copy-8" fill-opacity="0.786276224" fill="#9EA0A5" opacity="0.176688058"></path>
                                    <path d="M24.0280956,19.1217746 L28.2067142,19.1217746 C28.4374929,19.1217746 28.624576,19.3078856 28.624576,19.5374653 L28.624576,21.2002283 C28.624576,21.429808 28.4374929,21.6159191 28.2067142,21.6159191 L24.0280956,21.6159191 C23.7973169,21.6159191 23.6102338,21.429808 23.6102338,21.2002283 L23.6102338,19.5374653 C23.6102338,19.3078856 23.7973169,19.1217746 24.0280956,19.1217746 Z" id="Rectangle-Copy-7" fill-opacity="0.786276224" fill="#9EA0A5" opacity="0.176688058"></path>
                                    <path d="M10.6565163,19.1217746 L14.8351349,19.1217746 C15.0659136,19.1217746 15.2529967,19.3078856 15.2529967,19.5374653 L15.2529967,21.2002283 C15.2529967,21.429808 15.0659136,21.6159191 14.8351349,21.6159191 L10.6565163,21.6159191 C10.4257376,21.6159191 10.2386545,21.429808 10.2386545,21.2002283 L10.2386545,19.5374653 C10.2386545,19.3078856 10.4257376,19.1217746 10.6565163,19.1217746 Z" id="Rectangle-Copy-9" fill-opacity="0.786276224" fill="#9EA0A5" opacity="0.176688058"></path>
                                    <path d="M17.342306,23.2786821 L21.5209245,23.2786821 C21.7517032,23.2786821 21.9387864,23.4647932 21.9387864,23.6943728 L21.9387864,25.3571358 C21.9387864,25.5867155 21.7517032,25.7728266 21.5209245,25.7728266 L17.342306,25.7728266 C17.1115273,25.7728266 16.9244441,25.5867155 16.9244441,25.3571358 L16.9244441,23.6943728 C16.9244441,23.4647932 17.1115273,23.2786821 17.342306,23.2786821 Z" id="Rectangle" fill-opacity="0.786276224" fill="#9EA0A5" opacity="0.176688058"></path>
                                    <path d="M3.97072669,23.2786821 L8.14934522,23.2786821 C8.38012394,23.2786821 8.56720707,23.4647932 8.56720707,23.6943728 L8.56720707,25.3571358 C8.56720707,25.5867155 8.38012394,25.7728266 8.14934522,25.7728266 L3.97072669,25.7728266 C3.73994796,25.7728266 3.55286483,25.5867155 3.55286483,25.3571358 L3.55286483,23.6943728 C3.55286483,23.4647932 3.73994796,23.2786821 3.97072669,23.2786821 Z" id="Rectangle-Copy-8" fill-opacity="0.786276224" fill="#9EA0A5" opacity="0.176688058"></path>
                                    <path d="M24.0280956,23.2786821 L28.2067142,23.2786821 C28.4374929,23.2786821 28.624576,23.4647932 28.624576,23.6943728 L28.624576,25.3571358 C28.624576,25.5867155 28.4374929,25.7728266 28.2067142,25.7728266 L24.0280956,25.7728266 C23.7973169,25.7728266 23.6102338,25.5867155 23.6102338,25.3571358 L23.6102338,23.6943728 C23.6102338,23.4647932 23.7973169,23.2786821 24.0280956,23.2786821 Z" id="Rectangle-Copy-7" fill-opacity="0.786276224" fill="#9EA0A5" opacity="0.176688058"></path>
                                    <path d="M10.6565163,23.2786821 L14.8351349,23.2786821 C15.0659136,23.2786821 15.2529967,23.4647932 15.2529967,23.6943728 L15.2529967,25.3571358 C15.2529967,25.5867155 15.0659136,25.7728266 14.8351349,25.7728266 L10.6565163,25.7728266 C10.4257376,25.7728266 10.2386545,25.5867155 10.2386545,25.3571358 L10.2386545,23.6943728 C10.2386545,23.4647932 10.4257376,23.2786821 10.6565163,23.2786821 Z" id="Rectangle-Copy-9" fill-opacity="0.786276224" fill="#9EA0A5" opacity="0.176688058"></path>
                                    <path d="M17.342306,27.4355896 L21.5209245,27.4355896 C21.7517032,27.4355896 21.9387864,27.6217007 21.9387864,27.8512803 L21.9387864,29.5140433 C21.9387864,29.743623 21.7517032,29.9297341 21.5209245,29.9297341 L17.342306,29.9297341 C17.1115273,29.9297341 16.9244441,29.743623 16.9244441,29.5140433 L16.9244441,27.8512803 C16.9244441,27.6217007 17.1115273,27.4355896 17.342306,27.4355896 Z" id="Rectangle" fill-opacity="0.786276224" fill="#9EA0A5" opacity="0.176688058"></path>
                                    <path d="M3.97072669,27.4355896 L8.14934522,27.4355896 C8.38012394,27.4355896 8.56720707,27.6217007 8.56720707,27.8512803 L8.56720707,29.5140433 C8.56720707,29.743623 8.38012394,29.9297341 8.14934522,29.9297341 L3.97072669,29.9297341 C3.73994796,29.9297341 3.55286483,29.743623 3.55286483,29.5140433 L3.55286483,27.8512803 C3.55286483,27.6217007 3.73994796,27.4355896 3.97072669,27.4355896 Z" id="Rectangle-Copy-8" fill-opacity="0.786276224" fill="#9EA0A5" opacity="0.176688058"></path>
                                    <path d="M24.0280956,27.4355896 L28.2067142,27.4355896 C28.4374929,27.4355896 28.624576,27.6217007 28.624576,27.8512803 L28.624576,29.5140433 C28.624576,29.743623 28.4374929,29.9297341 28.2067142,29.9297341 L24.0280956,29.9297341 C23.7973169,29.9297341 23.6102338,29.743623 23.6102338,29.5140433 L23.6102338,27.8512803 C23.6102338,27.6217007 23.7973169,27.4355896 24.0280956,27.4355896 Z" id="Rectangle-Copy-7" fill-opacity="0.786276224" fill="#9EA0A5" opacity="0.176688058"></path>
                                    <path d="M10.6565163,27.4355896 L14.8351349,27.4355896 C15.0659136,27.4355896 15.2529967,27.6217007 15.2529967,27.8512803 L15.2529967,29.5140433 C15.2529967,29.743623 15.0659136,29.9297341 14.8351349,29.9297341 L10.6565163,29.9297341 C10.4257376,29.9297341 10.2386545,29.743623 10.2386545,29.5140433 L10.2386545,27.8512803 C10.2386545,27.6217007 10.4257376,27.4355896 10.6565163,27.4355896 Z" id="Rectangle-Copy-9" fill-opacity="0.786276224" fill="#9EA0A5" opacity="0.176688058"></path>
                                    <path d="M17.342306,31.5924971 L21.5209245,31.5924971 C21.7517032,31.5924971 21.9387864,31.7786082 21.9387864,32.0081878 L21.9387864,33.6709509 C21.9387864,33.9005305 21.7517032,34.0866416 21.5209245,34.0866416 L17.342306,34.0866416 C17.1115273,34.0866416 16.9244441,33.9005305 16.9244441,33.6709509 L16.9244441,32.0081878 C16.9244441,31.7786082 17.1115273,31.5924971 17.342306,31.5924971 Z" id="Rectangle" fill-opacity="0.786276224" fill="#9EA0A5" opacity="0.176688058"></path>
                                    <path d="M3.97072669,31.5924971 L8.14934522,31.5924971 C8.38012394,31.5924971 8.56720707,31.7786082 8.56720707,32.0081878 L8.56720707,33.6709509 C8.56720707,33.9005305 8.38012394,34.0866416 8.14934522,34.0866416 L3.97072669,34.0866416 C3.73994796,34.0866416 3.55286483,33.9005305 3.55286483,33.6709509 L3.55286483,32.0081878 C3.55286483,31.7786082 3.73994796,31.5924971 3.97072669,31.5924971 Z" id="Rectangle-Copy-8" fill-opacity="0.786276224" fill="#9EA0A5" opacity="0.176688058"></path>
                                    <path d="M24.0280956,31.5924971 L28.2067142,31.5924971 C28.4374929,31.5924971 28.624576,31.7786082 28.624576,32.0081878 L28.624576,33.6709509 C28.624576,33.9005305 28.4374929,34.0866416 28.2067142,34.0866416 L24.0280956,34.0866416 C23.7973169,34.0866416 23.6102338,33.9005305 23.6102338,33.6709509 L23.6102338,32.0081878 C23.6102338,31.7786082 23.7973169,31.5924971 24.0280956,31.5924971 Z" id="Rectangle-Copy-7" fill-opacity="0.786276224" fill="#9EA0A5" opacity="0.176688058"></path>
                                    <path d="M10.6565163,31.5924971 L14.8351349,31.5924971 C15.0659136,31.5924971 15.2529967,31.7786082 15.2529967,32.0081878 L15.2529967,33.6709509 C15.2529967,33.9005305 15.0659136,34.0866416 14.8351349,34.0866416 L10.6565163,34.0866416 C10.4257376,34.0866416 10.2386545,33.9005305 10.2386545,33.6709509 L10.2386545,32.0081878 C10.2386545,31.7786082 10.4257376,31.5924971 10.6565163,31.5924971 Z" id="Rectangle-Copy-9" fill-opacity="0.786276224" fill="#9EA0A5" opacity="0.176688058"></path>
                                    <path d="M17.342306,35.7494046 L21.5209245,35.7494046 C21.7517032,35.7494046 21.9387864,35.9355157 21.9387864,36.1650954 L21.9387864,37.8278584 C21.9387864,38.057438 21.7517032,38.2435491 21.5209245,38.2435491 L17.342306,38.2435491 C17.1115273,38.2435491 16.9244441,38.057438 16.9244441,37.8278584 L16.9244441,36.1650954 C16.9244441,35.9355157 17.1115273,35.7494046 17.342306,35.7494046 Z" id="Rectangle" fill-opacity="0.786276224" fill="#9EA0A5" opacity="0.176688058"></path>
                                    <path d="M3.97072669,35.7494046 L8.14934522,35.7494046 C8.38012394,35.7494046 8.56720707,35.9355157 8.56720707,36.1650954 L8.56720707,37.8278584 C8.56720707,38.057438 8.38012394,38.2435491 8.14934522,38.2435491 L3.97072669,38.2435491 C3.73994796,38.2435491 3.55286483,38.057438 3.55286483,37.8278584 L3.55286483,36.1650954 C3.55286483,35.9355157 3.73994796,35.7494046 3.97072669,35.7494046 Z" id="Rectangle-Copy-8" fill-opacity="0.786276224" fill="#9EA0A5" opacity="0.176688058"></path>
                                    <path d="M24.0280956,35.7494046 L28.2067142,35.7494046 C28.4374929,35.7494046 28.624576,35.9355157 28.624576,36.1650954 L28.624576,37.8278584 C28.624576,38.057438 28.4374929,38.2435491 28.2067142,38.2435491 L24.0280956,38.2435491 C23.7973169,38.2435491 23.6102338,38.057438 23.6102338,37.8278584 L23.6102338,36.1650954 C23.6102338,35.9355157 23.7973169,35.7494046 24.0280956,35.7494046 Z" id="Rectangle-Copy-7" fill-opacity="0.786276224" fill="#9EA0A5" opacity="0.176688058"></path>
                                    <path d="M10.6565163,35.7494046 L14.8351349,35.7494046 C15.0659136,35.7494046 15.2529967,35.9355157 15.2529967,36.1650954 L15.2529967,37.8278584 C15.2529967,38.057438 15.0659136,38.2435491 14.8351349,38.2435491 L10.6565163,38.2435491 C10.4257376,38.2435491 10.2386545,38.057438 10.2386545,37.8278584 L10.2386545,36.1650954 C10.2386545,35.9355157 10.4257376,35.7494046 10.6565163,35.7494046 Z" id="Rectangle-Copy-9" fill-opacity="0.786276224" fill="#9EA0A5" opacity="0.176688058"></path>
                                    <polygon id="Rectangle" fill="url(#linearGradient-16)" points="0.513869537 -9.84374469e-14 30.8278476 -9.84374469e-14 30.8278476 40.4958372 0.513869537 40.4958372"></polygon>
                                </g>
                            </g>
                            <polygon id="X" fill="#9EA0A5" fill-rule="nonzero" mask="url(#mask-14)" points="6.69217857 39.4420596 9.53333476 35.6798644 12.374491 39.4420596 15.3326359 39.4420596 11.2046031 34.4280671 15.040164 29.4957136 12.2491458 29.4957136 9.66703623 33.0742211 7.03478858 29.4957136 4.17691971 29.4957136 7.97069886 34.3124119 3.91787311 39.4420596"></polygon>
                        </g>
                        <g id="Trend" transform="translate(58.930692, 44.758557)">
                            <g id="base">
                                <g id="Path">
                                    <use fill="black" fill-opacity="1" filter="url(#filter-18)" xlink:href="#path-17"></use>
                                    <use fill="#D5D6DA" fill-rule="evenodd" xlink:href="#path-17"></use>
                                </g>
                                <g id="Path">
                                    <use fill="black" fill-opacity="1" filter="url(#filter-20)" xlink:href="#path-19"></use>
                                    <use fill="#D5D6DA" fill-rule="evenodd" xlink:href="#path-19"></use>
                                </g>
                                <path d="M3.56711338,-5.0480742e-15 L47.7993193,-5.0480742e-15 C49.7693816,-5.0480742e-15 51.3664327,1.59040385 51.3664327,3.55226642 L51.3664327,8.43663275 L0,8.43663275 L0,3.55226642 C0,1.59040385 1.59705106,-5.0480742e-15 3.56711338,-5.0480742e-15 Z" id="Path-Copy" fill="#9EA0A5"></path>
                            </g>
                            <g id="lines" transform="translate(5.707381, 14.919519)" fill="#9EA0A5" fill-opacity="0.387155813" fill-rule="nonzero">
                                <path d="M39.4166028,19.0046253 C39.515106,19.0046253 39.5949585,19.1239056 39.5949585,19.2710453 C39.5949585,19.3971651 39.5362913,19.5028167 39.4574982,19.530429 L39.4166028,19.5374653 L5.55111512e-17,19.5374653 C-0.098503116,19.5374653 -0.178355669,19.418185 -0.178355669,19.2710453 C-0.178355669,19.1449256 -0.119688487,19.039274 -0.0408953185,19.0116617 L5.55111512e-17,19.0046253 L39.4166028,19.0046253 Z" id="Line"></path>
                                <path d="M39.4166028,14.2978723 C39.515106,14.2978723 39.5949585,14.4171526 39.5949585,14.5642923 C39.5949585,14.6904121 39.5362913,14.7960637 39.4574982,14.823676 L39.4166028,14.8307123 L5.55111512e-17,14.8307123 C-0.098503116,14.8307123 -0.178355669,14.711432 -0.178355669,14.5642923 C-0.178355669,14.4381726 -0.119688487,14.332521 -0.0408953185,14.3049087 L5.55111512e-17,14.2978723 L39.4166028,14.2978723 Z" id="Line-Copy"></path>
                                <path d="M39.4166028,9.59111933 C39.515106,9.59111933 39.5949585,9.71039962 39.5949585,9.85753932 C39.5949585,9.98365905 39.5362913,10.0893107 39.4574982,10.116923 L39.4166028,10.1239593 L5.55111512e-17,10.1239593 C-0.098503116,10.1239593 -0.178355669,10.004679 -0.178355669,9.85753932 C-0.178355669,9.73141958 -0.119688487,9.62576798 -0.0408953185,9.59815568 L5.55111512e-17,9.59111933 L39.4166028,9.59111933 Z" id="Line-Copy-2"></path>
                                <path d="M39.4166028,4.88436633 C39.515106,4.88436633 39.5949585,5.00364662 39.5949585,5.15078631 C39.5949585,5.27690605 39.5362913,5.38255765 39.4574982,5.41016995 L39.4166028,5.41720629 L5.55111512e-17,5.41720629 C-0.098503116,5.41720629 -0.178355669,5.297926 -0.178355669,5.15078631 C-0.178355669,5.02466657 -0.119688487,4.91901497 -0.0408953185,4.89140267 L5.55111512e-17,4.88436633 L39.4166028,4.88436633 Z" id="Line-Copy-3"></path>
                                <path d="M39.4166028,0.177613321 C39.515106,0.177613321 39.5949585,0.29689361 39.5949585,0.444033302 C39.5949585,0.570153039 39.5362913,0.675804642 39.4574982,0.703416942 L39.4166028,0.710453284 L5.55111512e-17,0.710453284 C-0.098503116,0.710453284 -0.178355669,0.591172995 -0.178355669,0.444033302 C-0.178355669,0.317913566 -0.119688487,0.212261963 -0.0408953185,0.184649663 L5.55111512e-17,0.177613321 L39.4166028,0.177613321 Z" id="Line-Copy-4"></path>
                            </g>
                            <g id="Group" transform="translate(16.408722, 36.943571)">
                                <path d="M2.8536907,0 L7.13422676,0 C7.52823922,0 7.84764944,0.31808077 7.84764944,0.710453284 C7.84764944,1.1028258 7.52823922,1.42090657 7.13422676,1.42090657 L2.8536907,1.42090657 C2.45967824,1.42090657 2.14026803,1.1028258 2.14026803,0.710453284 C2.14026803,0.31808077 2.45967824,0 2.8536907,0 Z" id="Rectangle-Copy-2" fill-opacity="0.35" fill="#67696F"></path>
                                <path d="M13.5550308,0 L17.8355669,0 C18.2295794,0 18.5489896,0.31808077 18.5489896,0.710453284 C18.5489896,1.1028258 18.2295794,1.42090657 17.8355669,1.42090657 L13.5550308,1.42090657 C13.1610184,1.42090657 12.8416082,1.1028258 12.8416082,0.710453284 C12.8416082,0.31808077 13.1610184,0 13.5550308,0 Z" id="Rectangle-Copy-5" fill-opacity="0.35" fill="#67696F"></path>
                                <path d="M0.713422676,0 C1.10743514,0 1.42684535,0.31808077 1.42684535,0.710453284 C1.42684535,1.1028258 1.10743514,1.42090657 0.713422676,1.42090657 C0.319410212,1.42090657 0,1.1028258 0,0.710453284 C0,0.31808077 0.319410212,0 0.713422676,0 Z" id="Rectangle-Copy-4" fill="#DFE0E1" opacity="0.647623698"></path>
                                <path d="M11.4147628,0 C11.8087753,0 12.1281855,0.31808077 12.1281855,0.710453284 C12.1281855,1.1028258 11.8087753,1.42090657 11.4147628,1.42090657 C11.0207504,1.42090657 10.7013401,1.1028258 10.7013401,0.710453284 C10.7013401,0.31808077 11.0207504,0 11.4147628,0 Z" id="Rectangle-Copy-6" fill="#ACAEB2" opacity="0.647623698"></path>
                            </g>
                        </g>
                    </g>
                </g>
            </g>
        </g>
    </g>
</svg>
