<?xml version="1.0" encoding="UTF-8"?>
<svg width="500px" height="290px" viewBox="0 0 500 290" version="1.1" xmlns="http://www.w3.org/2000/svg" xmlns:xlink="http://www.w3.org/1999/xlink">
    <title>6D7BA6BE-5A05-4EDC-8056-038F6D645AA7@1.00x</title>
    <defs>
        <path d="M16.1332339,-1.92264505e-14 L182.924442,-1.92264505e-14 C190.353171,-1.92264505e-14 196.375346,6.00984216 196.375346,13.4233582 C196.375346,21.8502441 196.375346,28.0026166 196.375346,31.8804757 C196.375346,57.2357078 196.375346,94.932972 196.375346,144.972268 C196.375346,152.385784 190.353171,158.395626 182.924442,158.395626 L16.1332339,158.395626 C8.70450481,158.395626 2.68233,152.385784 2.68233,144.972268 C2.68233,94.4855267 2.68233,56.7882625 2.68233,31.8804757 C2.68233,27.5551714 2.68233,21.4027989 2.68233,13.4233582 C2.68233,6.00984216 8.70450481,-1.92264505e-14 16.1332339,-1.92264505e-14 Z" id="path-1"></path>
        <filter x="-8.0%" y="-7.3%" width="116.0%" height="119.6%" filterUnits="objectBoundingBox" id="filter-2">
            <feOffset dx="0" dy="4" in="SourceAlpha" result="shadowOffsetOuter1"></feOffset>
            <feGaussianBlur stdDeviation="4.5" in="shadowOffsetOuter1" result="shadowBlurOuter1"></feGaussianBlur>
            <feColorMatrix values="0 0 0 0 0   0 0 0 0 0   0 0 0 0 0  0 0 0 0.25 0" type="matrix" in="shadowBlurOuter1"></feColorMatrix>
        </filter>
        <path d="M13.4509039,0 L180.242112,0 C187.670841,0 193.693016,6.00984216 193.693016,13.4233582 C193.693016,21.8502441 193.693016,28.0026166 193.693016,31.8804757 C193.693016,57.2357078 193.693016,94.932972 193.693016,144.972268 C193.693016,152.385784 187.670841,158.395626 180.242112,158.395626 L13.4509039,158.395626 C6.02217481,158.395626 0,152.385784 0,144.972268 C0,94.4855267 0,56.7882625 0,31.8804757 C0,27.5551714 0,21.4027989 0,13.4233582 C0,6.00984216 6.02217481,0 13.4509039,0 Z" id="path-3"></path>
        <filter x="-8.0%" y="-7.3%" width="116.0%" height="119.6%" filterUnits="objectBoundingBox" id="filter-4">
            <feOffset dx="0" dy="4" in="SourceAlpha" result="shadowOffsetOuter1"></feOffset>
            <feGaussianBlur stdDeviation="4.5" in="shadowOffsetOuter1" result="shadowBlurOuter1"></feGaussianBlur>
            <feColorMatrix values="0 0 0 0 0   0 0 0 0 0   0 0 0 0 0  0 0 0 0.25 0" type="matrix" in="shadowBlurOuter1"></feColorMatrix>
        </filter>
        <path d="M23.1379787,3.0364556 L40.1799622,30.1523344 C40.7677262,31.0875388 40.4860701,32.3221486 39.5508657,32.9099126 C39.2320596,33.1102782 38.8631666,33.2165753 38.4866248,33.2165753 L4.40265797,33.2165753 C3.29808847,33.2165753 2.40265797,32.3211448 2.40265797,31.2165753 C2.40265797,30.8400336 2.50895508,30.4711405 2.70932063,30.1523344 L19.7513041,3.0364556 C20.3390681,2.10125121 21.5736779,1.81959513 22.5088823,2.40735915 C22.763154,2.56716569 22.9781722,2.78218385 23.1379787,3.0364556 Z" id="path-5"></path>
        <filter x="-21.5%" y="-26.6%" width="143.0%" height="158.5%" filterUnits="objectBoundingBox" id="filter-6">
            <feOffset dx="0" dy="0" in="SourceAlpha" result="shadowOffsetOuter1"></feOffset>
            <feGaussianBlur stdDeviation="3.5" in="shadowOffsetOuter1" result="shadowBlurOuter1"></feGaussianBlur>
            <feColorMatrix values="0 0 0 0 1   0 0 0 0 1   0 0 0 0 1  0 0 0 1 0" type="matrix" in="shadowBlurOuter1" result="shadowMatrixOuter1"></feColorMatrix>
            <feOffset dx="0" dy="0" in="SourceAlpha" result="shadowOffsetOuter2"></feOffset>
            <feGaussianBlur stdDeviation="3.5" in="shadowOffsetOuter2" result="shadowBlurOuter2"></feGaussianBlur>
            <feColorMatrix values="0 0 0 0 0.8   0 0 0 0 0.807843137   0 0 0 0 0.82745098  0 0 0 0.736314467 0" type="matrix" in="shadowBlurOuter2" result="shadowMatrixOuter2"></feColorMatrix>
            <feMerge>
                <feMergeNode in="shadowMatrixOuter1"></feMergeNode>
                <feMergeNode in="shadowMatrixOuter2"></feMergeNode>
            </feMerge>
        </filter>
    </defs>
    <g id="In-App-generic-empty-states" stroke="none" stroke-width="1" fill="none" fill-rule="evenodd" opacity="0.5">
        <g id="Generic-Empty-State_error" transform="translate(-775.000000, -504.000000)">
            <g id="Dark" transform="translate(683.000000, -39.000000)">
                <g id="Oops_XL" transform="translate(60.000000, 489.000000)">
                    <g id="Oops-Drawing-Dark_XL" transform="translate(32.000000, 54.000000)">
                        <path d="M120.951683,4.14793854 C220.931395,7.11287458 326.008592,-0.794964143 421.563055,22.4541991 C495.763545,40.5077702 463.180527,209.970037 445.034314,254.842768 C426.888102,299.715498 355.73433,264.176104 264.166545,264.176104 C172.59876,264.176104 120.951683,304.066527 78.7631746,254.842768 C17.7179846,169.606821 20.9719701,1.1830025 120.951683,4.14793854 Z" id="Rectangle" fill="#CCCED3" opacity="0.0486653646"></path>
                        <path d="M162.961649,1.45344624 C242.479365,-8.42615922 388.798038,33.3173216 477.747175,88.4890815 C546.81846,131.331367 436.642692,238.160374 397.07421,268.771404 C358.297098,298.770213 296.433351,293.143479 198.701622,273.10974 L192.673121,271.865363 C91.447558,250.831747 24.9733021,251.477986 3.62560139,194.641155 C-20.817451,100.720231 83.4439338,11.3330517 162.961649,1.45344624 Z" id="Rectangle-Copy" fill="#F1F2F5" opacity="0.171968006"></path>
                        <g id="Decorations" opacity="0.6" transform="translate(22.000000, 0.000000)" fill="#CCCED3">
                            <ellipse id="Oval" cx="369.117647" cy="239.366917" rx="5.16528926" ry="5.13662912"></ellipse>
                            <ellipse id="Oval-Copy-2" cx="255.481283" cy="153.972882" rx="3.09917355" ry="3.08197747"></ellipse>
                            <ellipse id="Oval-Copy-3" cx="2.38210987" cy="67.8035044" rx="2.0661157" ry="2.05465165"></ellipse>
                            <ellipse id="Oval-Copy-4" cx="380.481283" cy="193.137255" rx="2.0661157" ry="2.05465165"></ellipse>
                            <ellipse id="Oval-Copy" cx="80.8945066" cy="6.16395494" rx="6.19834711" ry="6.16395494"></ellipse>
                            <path d="M18.2526962,230.440029 C18.9974978,229.69936 20.1694628,229.642385 20.9799818,230.269105 L21.1746251,230.440029 L27.0173797,236.248748 L32.8623405,230.440029 C33.6692089,229.637637 34.977401,229.637637 35.7842693,230.440029 C36.5911377,231.24242 36.5911377,232.543354 35.7842693,233.345745 L29.9409334,239.156081 L35.7842693,244.96861 C36.5290709,245.709279 36.5863633,246.874741 35.9561466,247.680763 L35.7842693,247.874326 C35.0394678,248.614995 33.8675028,248.67197 33.0569837,248.04525 L32.8623405,247.874326 L27.0173797,242.063413 L21.1746251,247.874326 C20.3677567,248.676718 19.0595646,248.676718 18.2526962,247.874326 C17.4458279,247.071935 17.4458279,245.771001 18.2526962,244.96861 L24.093826,239.156081 L18.2526962,233.345745 C17.5078947,232.605076 17.4506022,231.439614 18.080819,230.633592 L18.2526962,230.440029 Z" id="Path"></path>
                            <path d="M417.404517,111.216557 C417.760316,111.570382 417.760316,112.144045 417.404517,112.497869 L414.826325,115.060492 L417.404517,117.623116 C417.715841,117.932712 417.754756,118.410622 417.521264,118.762297 L417.404517,118.904427 C417.093193,119.214024 416.612617,119.252723 416.25898,119.020526 L416.116056,118.904427 L413.539135,116.34054 L410.962213,118.904427 C410.606414,119.258252 410.029551,119.258252 409.673752,118.904427 C409.317954,118.550603 409.317954,117.97694 409.673752,117.623116 L412.251945,115.060492 L409.673752,112.497869 C409.362428,112.188273 409.323513,111.710362 409.557006,111.358688 L409.673752,111.216557 C409.985076,110.906961 410.465653,110.868261 410.81929,111.100459 L410.962213,111.216557 L413.539135,113.780444 L416.116056,111.216557 C416.471855,110.862733 417.048718,110.862733 417.404517,111.216557 Z" id="Path"></path>
                            <path d="M32.3407876,131.497705 C32.6260586,131.497705 32.8573165,131.72768 32.8573165,132.011368 L32.8575747,133.119596 L33.790306,132.192833 C33.9904427,131.993806 34.3149284,131.993806 34.5150652,132.192833 C34.7152019,132.391859 34.7152019,132.714544 34.5150652,132.91357 L33.3557669,134.065763 L34.9234322,134.06602 C35.1801761,134.06602 35.3931694,134.2523 35.4332006,134.496364 L35.4399611,134.579683 C35.4399611,134.837581 35.2488389,135.051088 34.999761,135.087776 L34.9234322,135.093346 L33.8074714,135.092832 L34.5150652,135.796522 C34.6951882,135.975645 34.7132005,136.254933 34.5691021,136.454089 L34.5150652,136.517259 C34.3349421,136.696383 34.0540964,136.714295 33.8538288,136.570997 L33.790306,136.517259 L32.8575747,135.589801 L32.8573165,137.147997 C32.8573165,137.431686 32.6260586,137.66166 32.3407876,137.66166 C32.0555165,137.66166 31.8242586,137.431686 31.8242586,137.147997 L31.8240004,135.589031 L30.8912691,136.517259 C30.6911324,136.716286 30.3666467,136.716286 30.1665099,136.517259 C29.9663732,136.318233 29.9663732,135.995548 30.1665099,135.796522 L30.8733289,135.092832 L29.7581429,135.093346 C29.501399,135.093346 29.2884057,134.907066 29.2483745,134.663002 L29.241614,134.579683 C29.241614,134.321785 29.4327362,134.108278 29.6818141,134.071589 L29.7581429,134.06602 L31.3242586,134.065763 L30.1665099,132.91357 C29.9863869,132.734447 29.9683746,132.455159 30.112473,132.256003 L30.1665099,132.192833 C30.346633,132.013709 30.6274788,131.995797 30.8277464,132.139096 L30.8912691,132.192833 L31.8240004,133.120367 L31.8242586,132.011368 C31.8242586,131.72768 32.0555165,131.497705 32.3407876,131.497705 Z" id="Path"></path>
                            <path d="M366.018474,35.9564038 C366.525622,35.9564038 366.947416,36.3198207 367.034887,36.7990665 L367.051531,36.9837297 L367.051531,40.0657071 C367.051531,40.6330835 366.589016,41.093033 366.018474,41.093033 C365.511325,41.093033 365.089531,40.7296161 365.00206,40.2503703 L364.985416,40.0657071 L364.985416,36.9837297 C364.985416,36.4163533 365.447931,35.9564038 366.018474,35.9564038 Z M369.52781,34.9348407 L369.670885,35.0537135 L371.862331,37.2330007 C372.265765,37.6341964 372.265765,38.2846631 371.862331,38.6858588 C371.503723,39.0424772 370.947061,39.0821015 370.544441,38.8047316 L370.401367,38.6858588 L368.20992,36.5065716 C367.806486,36.105376 367.806486,35.4549092 368.20992,35.0537135 C368.523702,34.7416724 368.989119,34.67233 369.370295,34.8456861 L369.52781,34.9348407 Z M363.827027,35.0537135 C364.185635,35.4103319 364.22548,35.9639052 363.946563,36.3642914 L363.827027,36.5065716 L361.63558,38.6858588 C361.232146,39.0870545 360.57805,39.0870545 360.174616,38.6858588 C359.816008,38.3292404 359.776162,37.7756671 360.05508,37.375281 L360.174616,37.2330007 L362.366062,35.0537135 C362.769497,34.6525178 363.423593,34.6525178 363.827027,35.0537135 Z M373.249878,31.8471005 C373.820421,31.8471005 374.282936,32.30705 374.282936,32.8744264 C374.282936,33.3787609 373.917492,33.7982149 373.435572,33.8852006 L373.249878,33.9017522 L370.150705,33.9017522 C369.580163,33.9017522 369.117647,33.4418028 369.117647,32.8744264 C369.117647,32.3700918 369.483092,31.9506378 369.965011,31.8636521 L370.150705,31.8471005 L373.249878,31.8471005 Z M361.886242,31.8471005 C362.456784,31.8471005 362.9193,32.30705 362.9193,32.8744264 C362.9193,33.3787609 362.553855,33.7982149 362.071936,33.8852006 L361.886242,33.9017522 L358.787069,33.9017522 C358.216526,33.9017522 357.754011,33.4418028 357.754011,32.8744264 C357.754011,32.3700918 358.119455,31.9506378 358.601375,31.8636521 L358.787069,31.8471005 L361.886242,31.8471005 Z M361.492506,26.9441211 L361.63558,27.0629939 L363.827027,29.2422811 C364.230461,29.6434768 364.230461,30.2939435 363.827027,30.6951392 C363.468419,31.0517576 362.911757,31.0913819 362.509137,30.814012 L362.366062,30.6951392 L360.174616,28.515852 C359.771182,28.1146563 359.771182,27.4641896 360.174616,27.0629939 C360.488398,26.7509528 360.953815,26.6816104 361.334991,26.8549665 L361.492506,26.9441211 Z M371.862331,27.0629939 C372.220939,27.4196123 372.260785,27.9731856 371.981867,28.3735717 L371.862331,28.515852 L369.670885,30.6951392 C369.26745,31.0963349 368.613354,31.0963349 368.20992,30.6951392 C367.851312,30.3385208 367.811467,29.7849475 368.090384,29.3845614 L368.20992,29.2422811 L370.401367,27.0629939 C370.804801,26.6617982 371.458897,26.6617982 371.862331,27.0629939 Z M366.018474,24.6558198 C366.525622,24.6558198 366.947416,25.0192366 367.034887,25.4984825 L367.051531,25.6831456 L367.051531,28.7651231 C367.051531,29.3324995 366.589016,29.7924489 366.018474,29.7924489 C365.511325,29.7924489 365.089531,29.4290321 365.00206,28.9497862 L364.985416,28.7651231 L364.985416,25.6831456 C364.985416,25.1157692 365.447931,24.6558198 366.018474,24.6558198 Z" id="Combined-Shape-Copy-5" fill-rule="nonzero"></path>
                        </g>
                        <g id="Base" transform="translate(133.000000, 54.000000)">
                            <g id="base">
                                <g id="Path">
                                    <use fill="black" fill-opacity="1" filter="url(#filter-2)" xlink:href="#path-1"></use>
                                    <use fill="#D5D6DA" fill-rule="evenodd" xlink:href="#path-1"></use>
                                </g>
                                <g id="Path">
                                    <use fill="black" fill-opacity="1" filter="url(#filter-4)" xlink:href="#path-3"></use>
                                    <use fill="#D5D6DA" fill-rule="evenodd" xlink:href="#path-3"></use>
                                </g>
                                <path d="M13.4509039,-1.90757393e-14 L180.242112,-1.90757393e-14 C187.670841,-1.90757393e-14 193.693016,6.00984216 193.693016,13.4233582 L193.693016,31.8804757 L0,31.8804757 L0,13.4233582 C0,6.00984216 6.02217481,-1.90757393e-14 13.4509039,-1.90757393e-14 Z" id="Path-Copy" fill="#9EA0A5"></path>
                            </g>
                            <g id="Face" transform="translate(37.882353, 56.823529)" fill="#65676A">
                                <path d="M18.6269832,18.9506706 C21.8386975,18.9506706 24.4423064,21.5975685 24.4423064,24.8626825 C24.4423064,28.1277965 21.8386975,30.7746943 18.6269832,30.7746943 C15.4152689,30.7746943 12.81166,28.1277965 12.81166,24.8626825 C12.81166,21.5975685 15.4152689,18.9506706 18.6269832,18.9506706 Z M26.1270741,2.21179673 L26.1363443,2.23363392 L26.1363443,2.23363392 L27.6246881,5.79824994 C28.0467093,6.80900002 27.577205,7.97117754 26.5715318,8.40515806 L5.26359983,17.6002203 C4.24943068,18.0378671 3.07250132,17.5705034 2.63485451,16.5563342 C2.6317213,16.5490736 2.62863117,16.5417944 2.6255843,16.534497 L1.13724057,12.969881 C0.715219364,11.9591309 1.18472364,10.7969534 2.19039682,10.3629729 L23.4983288,1.16791069 C24.5124979,0.730263889 25.6894273,1.19762759 26.1270741,2.21179673 Z" id="Combined-Shape"></path>
                                <path d="M111.672154,18.9506706 C114.883869,18.9506706 117.487478,21.5975685 117.487478,24.8626825 C117.487478,28.1277965 114.883869,30.7746943 111.672154,30.7746943 C108.46044,30.7746943 105.856831,28.1277965 105.856831,24.8626825 C105.856831,21.5975685 108.46044,18.9506706 111.672154,18.9506706 Z M119.172245,2.21179673 L119.181515,2.23363392 L119.181515,2.23363392 L120.669859,5.79824994 C121.09188,6.80900002 120.622376,7.97117754 119.616703,8.40515806 L98.308771,17.6002203 C97.2946018,18.0378671 96.1176725,17.5705034 95.6800257,16.5563342 C95.6768924,16.5490736 95.6738023,16.5417944 95.6707554,16.534497 L94.1824117,12.969881 C93.7603905,11.9591309 94.2298948,10.7969534 95.235568,10.3629729 L116.5435,1.16791069 C117.557669,0.730263889 118.734598,1.19762759 119.172245,2.21179673 Z" id="Combined-Shape" transform="translate(107.426135, 15.786049) scale(-1, 1) translate(-107.426135, -15.786049) "></path>
                                <ellipse id="Oval" transform="translate(61.878316, 67.616820) rotate(23.000000) translate(-61.878316, -67.616820) " cx="61.8783163" cy="67.6168201" rx="5.83050831" ry="11.794553"></ellipse>
                            </g>
                        </g>
                        <g id="sign" opacity="0.667945499" transform="translate(395.945930, 104.805214) rotate(20.000000) translate(-395.945930, -104.805214) translate(377.887107, 86.764706)">
                            <path d="M17.7674376,35.3377062 C27.5801224,35.3377062 35.5348751,27.4270912 35.5348751,17.6688531 C35.5348751,7.91061499 27.5801224,0 17.7674376,0 C7.95475275,0 0,7.91061499 0,17.6688531 C0,27.4270912 7.95475275,35.3377062 17.7674376,35.3377062 Z" id="Oval" stroke="#CCCED3" fill-opacity="0.280594406" fill="#F7F8FA" stroke-linecap="round" stroke-dasharray="0,3"></path>
                            <path d="M17.7674376,30.0370503 C24.6363169,30.0370503 30.2046438,24.4996198 30.2046438,17.6688531 C30.2046438,10.8380864 24.6363169,5.30065593 17.7674376,5.30065593 C10.8985582,5.30065593 5.33023127,10.8380864 5.33023127,17.6688531 C5.33023127,24.4996198 10.8985582,30.0370503 17.7674376,30.0370503 Z" id="Oval" fill="#FFFFFF"></path>
                            <path d="M17.7807965,20.9249703 C18.3685915,20.9249703 18.6892069,20.6052482 18.7426428,19.965804 L18.7426428,19.965804 L19.4907454,10.6770355 C19.5441813,10.1553837 19.4016856,9.71786921 19.0632582,9.36449215 C18.7248308,9.01111508 18.2884376,8.83442655 17.7540786,8.83442655 C17.2197196,8.83442655 16.7877793,9.01111508 16.4582579,9.36449215 C16.1287365,9.71786921 15.9817878,10.1553837 16.0174117,10.6770355 L16.0174117,10.6770355 L16.7922323,19.965804 C16.8456682,20.6052482 17.1751896,20.9249703 17.7807965,20.9249703 Z M17.9411042,26.5032797 C18.4576513,26.5032797 18.8539676,26.3728667 19.1300531,26.1120408 C19.4061386,25.8512148 19.5441813,25.4768034 19.5441813,24.9888065 L19.5441813,24.9888065 L19.5441813,24.5597058 C19.5441813,24.0717089 19.4061386,23.6972975 19.1300531,23.4364716 C18.8539676,23.1756457 18.4576513,23.0452327 17.9411042,23.0452327 L17.9411042,23.0452327 L17.5937709,23.0452327 C17.0772238,23.0452327 16.6809075,23.1756457 16.404822,23.4364716 C16.1287365,23.6972975 15.9906938,24.0717089 15.9906938,24.5597058 L15.9906938,24.5597058 L15.9906938,24.9888065 C15.9906938,25.4768034 16.1287365,25.8512148 16.404822,26.1120408 C16.6809075,26.3728667 17.0772238,26.5032797 17.5937709,26.5032797 L17.5937709,26.5032797 L17.9411042,26.5032797 Z" id="!" fill="#9EA0A5" fill-rule="nonzero"></path>
                        </g>
                        <g id="Tri" opacity="0.650855655" transform="translate(74.387107, 175.806288) rotate(-19.000000) translate(-74.387107, -175.806288) translate(52.887107, 158.823529)">
                            <g id="Triangle">
                                <use fill="black" fill-opacity="1" filter="url(#filter-6)" xlink:href="#path-5"></use>
                                <use fill="#FFFFFF" fill-rule="evenodd" xlink:href="#path-5"></use>
                            </g>
                            <path d="M20.4511839,23.1012156 C21.1347109,23.1012156 21.5075438,22.7666009 21.5696826,22.0973715 L21.5696826,22.0973715 L22.4396261,12.375934 C22.5017649,11.8299837 22.3360614,11.3720899 21.9425155,11.0022526 C21.5489697,10.6324153 21.0415027,10.4474966 20.4201145,10.4474966 C19.7987263,10.4474966 19.2964375,10.6324153 18.9132481,11.0022526 C18.5300588,11.3720899 18.359177,11.8299837 18.4006029,12.375934 L18.4006029,12.375934 L19.3016158,22.0973715 C19.3637546,22.7666009 19.746944,23.1012156 20.4511839,23.1012156 Z M20.6376003,28.9393615 C21.2382756,28.9393615 21.6991385,28.8028739 22.0201891,28.5298987 C22.3412396,28.2569236 22.5017649,27.8650722 22.5017649,27.3543445 L22.5017649,27.3543445 L22.5017649,26.9052563 C22.5017649,26.3945286 22.3412396,26.0026772 22.0201891,25.7297021 C21.6991385,25.4567269 21.2382756,25.3202393 20.6376003,25.3202393 L20.6376003,25.3202393 L20.233698,25.3202393 C19.6330228,25.3202393 19.1721599,25.4567269 18.8511093,25.7297021 C18.5300588,26.0026772 18.3695335,26.3945286 18.3695335,26.9052563 L18.3695335,26.9052563 L18.3695335,27.3543445 C18.3695335,27.8650722 18.5300588,28.2569236 18.8511093,28.5298987 C19.1721599,28.8028739 19.6330228,28.9393615 20.233698,28.9393615 L20.233698,28.9393615 L20.6376003,28.9393615 Z" id="!" fill="#9EA0A5" fill-rule="nonzero"></path>
                        </g>
                    </g>
                </g>
            </g>
        </g>
    </g>
</svg>