<?xml version="1.0" encoding="UTF-8"?>
<svg width="340px" height="197px" viewBox="0 0 340 197" version="1.1" xmlns="http://www.w3.org/2000/svg" xmlns:xlink="http://www.w3.org/1999/xlink">
    <defs>
        <path d="M10.9705991,-1.30739863e-14 L124.388621,-1.30739863e-14 C129.440157,-1.30739863e-14 133.535235,4.08669267 133.535235,9.12788356 C133.535235,14.858166 133.535235,19.0417793 133.535235,21.6787235 C133.535235,38.9202813 133.535235,64.5544209 133.535235,98.5811424 C133.535235,103.622333 129.440157,107.709026 124.388621,107.709026 L10.9705991,107.709026 C5.91906327,107.709026 1.8239844,103.622333 1.8239844,98.5811424 C1.8239844,64.2501582 1.8239844,38.6160185 1.8239844,21.6787235 C1.8239844,18.7375165 1.8239844,14.5539032 1.8239844,9.12788356 C1.8239844,4.08669267 5.91906327,-1.30739863e-14 10.9705991,-1.30739863e-14 Z" id="path-1"></path>
        <filter x="-11.8%" y="-10.7%" width="123.5%" height="128.8%" filterUnits="objectBoundingBox" id="filter-2">
            <feOffset dx="0" dy="4" in="SourceAlpha" result="shadowOffsetOuter1"></feOffset>
            <feGaussianBlur stdDeviation="4.5" in="shadowOffsetOuter1" result="shadowBlurOuter1"></feGaussianBlur>
            <feColorMatrix values="0 0 0 0 0   0 0 0 0 0   0 0 0 0 0  0 0 0 0.07 0" type="matrix" in="shadowBlurOuter1"></feColorMatrix>
        </filter>
        <path d="M9.14661466,0 L122.564636,0 C127.616172,0 131.711251,4.08669267 131.711251,9.12788356 C131.711251,14.858166 131.711251,19.0417793 131.711251,21.6787235 C131.711251,38.9202813 131.711251,64.5544209 131.711251,98.5811424 C131.711251,103.622333 127.616172,107.709026 122.564636,107.709026 L9.14661466,107.709026 C4.09507887,107.709026 0,103.622333 0,98.5811424 C0,64.2501582 0,38.6160185 0,21.6787235 C0,18.7375165 0,14.5539032 0,9.12788356 C0,4.08669267 4.09507887,0 9.14661466,0 Z" id="path-3"></path>
        <filter x="-11.8%" y="-10.7%" width="123.5%" height="128.8%" filterUnits="objectBoundingBox" id="filter-4">
            <feOffset dx="0" dy="4" in="SourceAlpha" result="shadowOffsetOuter1"></feOffset>
            <feGaussianBlur stdDeviation="4.5" in="shadowOffsetOuter1" result="shadowBlurOuter1"></feGaussianBlur>
            <feColorMatrix values="0 0 0 0 0   0 0 0 0 0   0 0 0 0 0  0 0 0 0.07 0" type="matrix" in="shadowBlurOuter1"></feColorMatrix>
        </filter>
        <path d="M16.2756935,2.92696795 L26.7061067,19.5230303 C27.2938707,20.4582347 27.0122146,21.6928445 26.0770102,22.2806085 C25.7582041,22.4809741 25.3893111,22.5872712 25.0127693,22.5872712 L4.15194297,22.5872712 C3.04737347,22.5872712 2.15194297,21.6918407 2.15194297,20.5872712 C2.15194297,20.2107295 2.25824008,19.8418364 2.45860563,19.5230303 L12.8890188,2.92696795 C13.4767828,1.99176356 14.7113927,1.71010748 15.646597,2.2978715 C15.9008688,2.45767804 16.1158869,2.6726962 16.2756935,2.92696795 Z" id="path-5"></path>
        <filter x="-31.6%" y="-39.1%" width="163.2%" height="186.1%" filterUnits="objectBoundingBox" id="filter-6">
            <feOffset dx="0" dy="0" in="SourceAlpha" result="shadowOffsetOuter1"></feOffset>
            <feGaussianBlur stdDeviation="3.5" in="shadowOffsetOuter1" result="shadowBlurOuter1"></feGaussianBlur>
            <feColorMatrix values="0 0 0 0 1   0 0 0 0 1   0 0 0 0 1  0 0 0 1 0" type="matrix" in="shadowBlurOuter1" result="shadowMatrixOuter1"></feColorMatrix>
            <feOffset dx="0" dy="0" in="SourceAlpha" result="shadowOffsetOuter2"></feOffset>
            <feGaussianBlur stdDeviation="3.5" in="shadowOffsetOuter2" result="shadowBlurOuter2"></feGaussianBlur>
            <feColorMatrix values="0 0 0 0 0.8   0 0 0 0 0.807843137   0 0 0 0 0.82745098  0 0 0 0.736314467 0" type="matrix" in="shadowBlurOuter2" result="shadowMatrixOuter2"></feColorMatrix>
            <feMerge>
                <feMergeNode in="shadowMatrixOuter1"></feMergeNode>
                <feMergeNode in="shadowMatrixOuter2"></feMergeNode>
            </feMerge>
        </filter>
    </defs>
    <g id="In-App-generic-empty-states" stroke="none" stroke-width="1" fill="none" fill-rule="evenodd">
        <g id="Generic-Empty-State_error" transform="translate(-81.000000, -118.000000)">
            <g id="Bright" transform="translate(61.000000, 72.000000)">
                <g id="Oops_L" transform="translate(20.000000, 0.000000)">
                    <g id="Oops-Drawing_L" transform="translate(0.000000, 46.000000)">
                        <path d="M80.2309008,3.02627197 C148.217105,5.04242848 219.669599,-0.334901859 284.646634,15.4745291 C335.102967,27.7509575 312.946515,142.985299 300.60709,173.498756 C288.267666,204.012213 239.883101,179.845424 177.617007,179.845424 C115.350914,179.845424 80.2309008,206.970912 51.5427154,173.498756 C10.0319862,115.538312 12.2446963,1.01011546 80.2309008,3.02627197 Z" id="Rectangle" fill="#CCCED3" opacity="0.0486653646"></path>
                        <path d="M110.813921,0.988343445 C164.885968,-5.72978827 264.382666,22.6557787 324.868079,60.1725754 C371.836553,89.3053295 296.917031,161.949055 270.010463,182.764555 C243.642026,203.163745 201.574679,199.337566 135.117103,185.714623 L131.017723,184.868447 C62.1843394,170.565588 16.9818454,171.005031 2.46540894,132.355985 C-14.1558667,68.4897568 56.741875,7.70647516 110.813921,0.988343445 Z" id="Rectangle-Copy" fill="#F1F2F5" opacity="0.171968006"></path>
                        <g id="Decorations" transform="translate(15.000000, 0.000000)" fill="#CCCED3">
                            <ellipse id="Oval" cx="251" cy="162.769504" rx="3.51239669" ry="3.4929078"></ellipse>
                            <ellipse id="Oval-Copy-2" cx="173.727273" cy="104.701559" rx="2.10743802" ry="2.09574468"></ellipse>
                            <ellipse id="Oval-Copy-3" cx="1.61983471" cy="46.106383" rx="1.40495868" ry="1.39716312"></ellipse>
                            <ellipse id="Oval-Copy-4" cx="258.727273" cy="131.333333" rx="1.40495868" ry="1.39716312"></ellipse>
                            <ellipse id="Oval-Copy" cx="55.0082645" cy="4.19148936" rx="4.21487603" ry="4.19148936"></ellipse>
                            <path d="M12.4118334,156.69922 C12.9182985,156.195565 13.7152347,156.156822 14.2663876,156.582992 L14.3987451,156.69922 L18.3718182,160.649149 L22.3463915,156.69922 C22.895062,156.153593 23.7846327,156.153593 24.3333031,156.69922 C24.8819736,157.244846 24.8819736,158.12948 24.3333031,158.675107 L20.3598347,162.626135 L24.3333031,166.578655 C24.8397682,167.08231 24.8787271,167.874824 24.4501797,168.422919 L24.3333031,168.554542 C23.8268381,169.058197 23.0299019,169.096939 22.4787489,168.67077 L22.3463915,168.554542 L18.3718182,164.603121 L14.3987451,168.554542 C13.8500746,169.100168 12.9605039,169.100168 12.4118334,168.554542 C11.863163,168.008916 11.863163,167.124281 12.4118334,166.578655 L16.3838017,162.626135 L12.4118334,158.675107 C11.9053684,158.171452 11.8664095,157.378937 12.2949569,156.830843 L12.4118334,156.69922 Z" id="Path"></path>
                            <path d="M283.835072,75.627259 C284.077015,75.8678596 284.077015,76.2579503 283.835072,76.4985509 L282.081901,78.2411348 L283.835072,79.9837186 C284.046772,80.1942441 284.073234,80.519223 283.914459,80.7583619 L283.835072,80.8550105 C283.623371,81.0655361 283.296579,81.0918518 283.056106,80.9339576 L282.958918,80.8550105 L281.206612,79.1115674 L279.454305,80.8550105 C279.212362,81.0956111 278.820095,81.0956111 278.578152,80.8550105 C278.336208,80.6144099 278.336208,80.2243192 278.578152,79.9837186 L280.331322,78.2411348 L278.578152,76.4985509 C278.366451,76.2880254 278.339989,75.9630465 278.498764,75.7239076 L278.578152,75.627259 C278.789852,75.4167334 279.116644,75.3904177 279.357117,75.5483119 L279.454305,75.627259 L281.206612,77.3707021 L282.958918,75.627259 C283.200861,75.3866584 283.593129,75.3866584 283.835072,75.627259 Z" id="Path"></path>
                            <path d="M21.9917355,89.4184397 C22.1857199,89.4184397 22.3429752,89.5748225 22.3429752,89.7677305 L22.3431508,90.5213254 L22.9774081,89.8911262 C23.113501,89.7557883 23.3341513,89.7557883 23.4702443,89.8911262 C23.6063373,90.026464 23.6063373,90.2458901 23.4702443,90.3812279 L22.6819215,91.164719 L23.7479339,91.1648936 C23.9225198,91.1648936 24.0673552,91.2915637 24.0945764,91.4575276 L24.0991736,91.5141844 C24.0991736,91.6895553 23.9692104,91.8347401 23.7998375,91.859688 L23.7479339,91.8634752 L22.9890806,91.8631259 L23.4702443,92.3416347 C23.592728,92.4634388 23.6049764,92.6533543 23.5069894,92.7887806 L23.4702443,92.8317364 C23.3477606,92.9535405 23.1567855,92.9657209 23.0206036,92.8682777 L22.9774081,92.8317364 L22.3431508,92.2010647 L22.3429752,93.2606383 C22.3429752,93.4535463 22.1857199,93.6099291 21.9917355,93.6099291 C21.7977512,93.6099291 21.6404959,93.4535463 21.6404959,93.2606383 L21.6403202,92.2005408 L21.006063,92.8317364 C20.86997,92.9670743 20.6493197,92.9670743 20.5132268,92.8317364 C20.3771338,92.6963986 20.3771338,92.4769726 20.5132268,92.3416347 L20.9938636,91.8631259 L20.2355372,91.8634752 C20.0609513,91.8634752 19.9161159,91.7368051 19.8888947,91.5708412 L19.8842975,91.5141844 C19.8842975,91.3388135 20.0142606,91.1936287 20.1836336,91.1686808 L20.2355372,91.1648936 L21.3004959,91.164719 L20.5132268,90.3812279 C20.3907431,90.2594238 20.3784947,90.0695084 20.4764817,89.934082 L20.5132268,89.8911262 C20.6357104,89.7693221 20.8266856,89.7571417 20.9628675,89.854585 L21.006063,89.8911262 L21.6403202,90.5218493 L21.6404959,89.7677305 C21.6404959,89.5748225 21.7977512,89.4184397 21.9917355,89.4184397 Z" id="Path"></path>
                            <path d="M248.892562,24.4503546 C249.237423,24.4503546 249.524243,24.6974781 249.583723,25.0233653 L249.595041,25.1489362 L249.595041,27.2446809 C249.595041,27.6304968 249.280531,27.9432624 248.892562,27.9432624 C248.547701,27.9432624 248.260881,27.696139 248.201401,27.3702518 L248.190083,27.2446809 L248.190083,25.1489362 C248.190083,24.7631202 248.504593,24.4503546 248.892562,24.4503546 Z M251.278911,23.7556917 L251.376202,23.8365252 L252.866385,25.3184405 C253.14072,25.5912535 253.14072,26.0335709 252.866385,26.306384 C252.622532,26.5488845 252.244002,26.575829 251.97022,26.3872175 L251.872929,26.306384 L250.382746,24.8244687 C250.10841,24.5516557 250.10841,24.1093383 250.382746,23.8365252 C250.596118,23.6243373 250.912601,23.5771844 251.1718,23.6950666 L251.278911,23.7556917 Z M247.402378,23.8365252 C247.646232,24.0790257 247.673327,24.4554555 247.483663,24.7277181 L247.402378,24.8244687 L245.912195,26.306384 C245.637859,26.5791971 245.193074,26.5791971 244.918739,26.306384 C244.674885,26.0638835 244.64779,25.6874537 244.837454,25.4151911 L244.918739,25.3184405 L246.408922,23.8365252 C246.683258,23.5637121 247.128043,23.5637121 247.402378,23.8365252 Z M253.809917,21.6560284 C254.197886,21.6560284 254.512397,21.968794 254.512397,22.3546099 C254.512397,22.6975574 254.263894,22.9827862 253.936189,23.0419364 L253.809917,23.0531915 L251.702479,23.0531915 C251.314511,23.0531915 251,22.7404259 251,22.3546099 C251,22.0116624 251.248502,21.7264337 251.576208,21.6672835 L251.702479,21.6560284 L253.809917,21.6560284 Z M246.082645,21.6560284 C246.470613,21.6560284 246.785124,21.968794 246.785124,22.3546099 C246.785124,22.6975574 246.536622,22.9827862 246.208916,23.0419364 L246.082645,23.0531915 L243.975207,23.0531915 C243.587238,23.0531915 243.272727,22.7404259 243.272727,22.3546099 C243.272727,22.0116624 243.52123,21.7264337 243.848935,21.6672835 L243.975207,21.6560284 L246.082645,21.6560284 Z M245.814904,18.3220024 L245.912195,18.4028359 L247.402378,19.8847511 C247.676714,20.1575642 247.676714,20.5998816 247.402378,20.8726947 C247.158525,21.1151952 246.779995,21.1421397 246.506213,20.9535282 L246.408922,20.8726947 L244.918739,19.3907794 C244.644404,19.1179663 244.644404,18.6756489 244.918739,18.4028359 C245.132111,18.1906479 245.448594,18.143495 245.707794,18.2613772 L245.814904,18.3220024 Z M252.866385,18.4028359 C253.110239,18.6453364 253.137334,19.0217662 252.94767,19.2940288 L252.866385,19.3907794 L251.376202,20.8726947 C251.101866,21.1455077 250.657081,21.1455077 250.382746,20.8726947 C250.138892,20.6301941 250.111797,20.2537643 250.301461,19.9815017 L250.382746,19.8847511 L251.872929,18.4028359 C252.147265,18.1300228 252.59205,18.1300228 252.866385,18.4028359 Z M248.892562,16.7659574 C249.237423,16.7659574 249.524243,17.0130809 249.583723,17.3389681 L249.595041,17.464539 L249.595041,19.5602837 C249.595041,19.9460996 249.280531,20.2588652 248.892562,20.2588652 C248.547701,20.2588652 248.260881,20.0117418 248.201401,19.6858546 L248.190083,19.5602837 L248.190083,17.464539 C248.190083,17.0787231 248.504593,16.7659574 248.892562,16.7659574 Z" id="Combined-Shape-Copy-5" fill-rule="nonzero"></path>
                        </g>
                        <g id="Base" transform="translate(90.000000, 45.000000)">
                            <g id="base">
                                <g id="Path">
                                    <use fill="black" fill-opacity="1" filter="url(#filter-2)" xlink:href="#path-1"></use>
                                    <use fill="#FFFFFF" fill-rule="evenodd" xlink:href="#path-1"></use>
                                </g>
                                <g id="Path">
                                    <use fill="black" fill-opacity="1" filter="url(#filter-4)" xlink:href="#path-3"></use>
                                    <use fill="#FFFFFF" fill-rule="evenodd" xlink:href="#path-3"></use>
                                </g>
                                <path d="M9.14661466,-1.29715027e-14 L122.564636,-1.29715027e-14 C127.616172,-1.29715027e-14 131.711251,4.08669267 131.711251,9.12788356 L131.711251,21.6787235 L0,21.6787235 L0,9.12788356 C0,4.08669267 4.09507887,-1.29715027e-14 9.14661466,-1.29715027e-14 Z" id="Path-Copy" fill="#E8E9EC"></path>
                            </g>
                            <g id="Face" opacity="0.86281622" transform="translate(25.760000, 38.640000)" fill="#E8E9EC">
                                <path d="M12.6663486,12.886456 C14.8503143,12.886456 16.6207683,14.6863466 16.6207683,16.9066241 C16.6207683,19.1269016 14.8503143,20.9267922 12.6663486,20.9267922 C10.4823828,20.9267922 8.71192878,19.1269016 8.71192878,16.9066241 C8.71192878,14.6863466 10.4823828,12.886456 12.6663486,12.886456 Z M18.012976,2.09466865 C18.0161092,2.10192933 18.0191993,2.10920852 18.0222462,2.11650584 L18.5411061,3.35918666 C18.9631273,4.36993674 18.493623,5.53211427 17.4879498,5.96609479 L4.17388079,11.7115464 C3.15971165,12.1491932 1.98278228,11.6818295 1.54513548,10.6676604 C1.54200226,10.6603997 1.53891214,10.6531205 1.53586526,10.6458232 L1.01700539,9.40314239 C0.594984188,8.39239231 1.06448847,7.23021478 2.07016164,6.79623426 L15.3842307,1.05078262 C16.3983998,0.61313581 17.5753292,1.08049951 18.012976,2.09466865 Z" id="Combined-Shape"></path>
                                <path d="M75.9370649,12.886456 C78.1210307,12.886456 79.8914847,14.6863466 79.8914847,16.9066241 C79.8914847,19.1269016 78.1210307,20.9267922 75.9370649,20.9267922 C73.7530992,20.9267922 71.9826452,19.1269016 71.9826452,16.9066241 C71.9826452,14.6863466 73.7530992,12.886456 75.9370649,12.886456 Z M81.2836924,2.09466865 C81.2868256,2.10192933 81.2899157,2.10920852 81.2929626,2.11650584 L81.8118225,3.35918666 C82.2338437,4.36993674 81.7643394,5.53211427 80.7586662,5.96609479 L67.4445972,11.7115464 C66.430428,12.1491932 65.2534987,11.6818295 64.8158519,10.6676604 C64.8127186,10.6603997 64.8096285,10.6531205 64.8065816,10.6458232 L64.2877218,9.40314239 C63.8657006,8.39239231 64.3352049,7.23021478 65.340878,6.79623426 L78.6549471,1.05078262 C79.6691162,0.61313581 80.8460456,1.08049951 81.2836924,2.09466865 Z" id="Combined-Shape" transform="translate(73.049772, 10.734514) scale(-1, 1) translate(-73.049772, -10.734514) "></path>
                                <ellipse id="Oval" transform="translate(42.077255, 45.979438) rotate(23.000000) translate(-42.077255, -45.979438) " cx="42.0772551" cy="45.9794377" rx="3.96474565" ry="8.02029606"></ellipse>
                            </g>
                        </g>
                        <g id="sign" opacity="0.667945499" transform="translate(265.280000, 71.267546) rotate(20.000000) translate(-265.280000, -71.267546) translate(253.000000, 59.000000)">
                            <path d="M12.0818575,24.0296402 C18.7544832,24.0296402 24.1637151,18.650422 24.1637151,12.0148201 C24.1637151,5.37921819 18.7544832,0 12.0818575,0 C5.40923187,0 0,5.37921819 0,12.0148201 C0,18.650422 5.40923187,24.0296402 12.0818575,24.0296402 Z" id="Oval" stroke="#CCCED3" fill-opacity="0.280594406" fill="#F7F8FA" stroke-linecap="round" stroke-dasharray="0,3"></path>
                            <path d="M12.0818575,20.4251942 C16.7526955,20.4251942 20.5391578,16.6597415 20.5391578,12.0148201 C20.5391578,7.36989877 16.7526955,3.60444603 12.0818575,3.60444603 C7.41101957,3.60444603 3.62455726,7.36989877 3.62455726,12.0148201 C3.62455726,16.6597415 7.41101957,20.4251942 12.0818575,20.4251942 Z" id="Oval" fill="#FFFFFF"></path>
                            <path d="M12.0909416,14.2289798 C12.4906422,14.2289798 12.7086607,14.0115688 12.7449971,13.5767467 L12.7449971,13.5767467 L13.2537069,7.26038415 C13.2900433,6.90566089 13.1931462,6.60815106 12.9630156,6.36785466 C12.7328849,6.12755826 12.4361376,6.00741006 12.0727734,6.00741006 C11.7094093,6.00741006 11.41569,6.12755826 11.1916154,6.36785466 C10.9675409,6.60815106 10.8676157,6.90566089 10.89184,7.26038415 L10.89184,7.26038415 L11.418718,13.5767467 C11.4550544,14.0115688 11.679129,14.2289798 12.0909416,14.2289798 Z M12.1999509,18.0222302 C12.5512029,18.0222302 12.8206979,17.9335494 13.0084361,17.7561877 C13.1961742,17.5788261 13.2900433,17.3242263 13.2900433,16.9923884 L13.2900433,16.9923884 L13.2900433,16.7006 C13.2900433,16.3687621 13.1961742,16.1141623 13.0084361,15.9368007 C12.8206979,15.759439 12.5512029,15.6707582 12.1999509,15.6707582 L12.1999509,15.6707582 L11.9637642,15.6707582 C11.6125122,15.6707582 11.3430171,15.759439 11.155279,15.9368007 C10.9675409,16.1141623 10.8736718,16.3687621 10.8736718,16.7006 L10.8736718,16.7006 L10.8736718,16.9923884 C10.8736718,17.3242263 10.9675409,17.5788261 11.155279,17.7561877 C11.3430171,17.9335494 11.6125122,18.0222302 11.9637642,18.0222302 L11.9637642,18.0222302 L12.1999509,18.0222302 Z" id="!" fill="#9EA0A5" fill-rule="nonzero"></path>
                        </g>
                        <g id="Tri" opacity="0.650855655" transform="translate(46.620000, 119.548276) rotate(-19.000000) translate(-46.620000, -119.548276) translate(32.000000, 108.000000)">
                            <g id="Triangle">
                                <use fill="black" fill-opacity="1" filter="url(#filter-6)" xlink:href="#path-5"></use>
                                <use fill="#FFFFFF" fill-rule="evenodd" xlink:href="#path-5"></use>
                            </g>
                            <path d="M13.906805,15.7088266 C14.3716034,15.7088266 14.6251298,15.4812886 14.6673842,15.0262126 L14.6673842,15.0262126 L15.2589457,8.41563509 C15.3012001,8.04438889 15.1885217,7.73302111 14.9209106,7.48153175 C14.6532994,7.23004238 14.3082218,7.1042977 13.8856778,7.1042977 C13.4631339,7.1042977 13.1215775,7.23004238 12.8610087,7.48153175 C12.60044,7.73302111 12.4842404,8.04438889 12.51241,8.41563509 L12.51241,8.41563509 L13.1250987,15.0262126 C13.1673531,15.4812886 13.4279219,15.7088266 13.906805,15.7088266 Z M14.0335682,19.6787658 C14.4420274,19.6787658 14.7554142,19.5859542 14.9737286,19.4003311 C15.1920429,19.214708 15.3012001,18.9482491 15.3012001,18.6009542 L15.3012001,18.6009542 L15.3012001,18.2955743 C15.3012001,17.9482795 15.1920429,17.6818205 14.9737286,17.4961974 C14.7554142,17.3105743 14.4420274,17.2177627 14.0335682,17.2177627 L14.0335682,17.2177627 L13.7589147,17.2177627 C13.3504555,17.2177627 13.0370687,17.3105743 12.8187543,17.4961974 C12.60044,17.6818205 12.4912828,17.9482795 12.4912828,18.2955743 L12.4912828,18.2955743 L12.4912828,18.6009542 C12.4912828,18.9482491 12.60044,19.214708 12.8187543,19.4003311 C13.0370687,19.5859542 13.3504555,19.6787658 13.7589147,19.6787658 L13.7589147,19.6787658 L14.0335682,19.6787658 Z" id="!" fill="#9EA0A5" fill-rule="nonzero"></path>
                        </g>
                    </g>
                </g>
            </g>
        </g>
    </g>
</svg>
