<?xml version="1.0" encoding="UTF-8"?>
<svg width="94px" height="84px" viewBox="0 0 94 84" version="1.1" xmlns="http://www.w3.org/2000/svg" xmlns:xlink="http://www.w3.org/1999/xlink">
    <!-- Generator: sketchtool 52.6 (67491) - http://www.bohemiancoding.com/sketch -->
    <title>49A45BD2-BDAB-4D5A-9EFC-790BFFD57237</title>
    <desc>Created with sketchtool.</desc>
    <g id="Cover" stroke="none" stroke-width="1" fill="none" fill-rule="evenodd">
        <g id="Apps-Design-System-cover" transform="translate(-880.000000, -829.000000)">
            <g id="Group-22" transform="translate(866.000000, 830.000000)">
                <g id="Group-23" transform="translate(27.000000, 0.000000)" stroke="#BBDEFB" stroke-dasharray="4,4" stroke-width="2">
                    <g id="Group-21">
                        <path d="M28,12 L0,39" id="Path-2"></path>
                        <path d="M43,5 L5,41" id="Path-2"></path>
                        <path d="M54,10 L15,46" id="Path-2"></path>
                        <path d="M66,5 L21,48" id="Path-2"></path>
                        <path d="M80,0 L25,51" id="Path-2"></path>
                    </g>
                    <path d="M43,13 L8,46" id="Path-2"></path>
                </g>
                <g id="Group-53" transform="translate(0.000000, 31.000000)" fill="#77C5FD">
                    <path d="M42.1039174,11.9401327 C50.7798157,12.6716163 51.3372499,26.2535783 40.5397228,27.1264574 C36.9996823,27.4771336 26.5541581,26.3848259 26.5623772,30.6741643 L26.5644319,31.7464765 C27.9817405,32.2853394 29.2234005,33.5387687 29.2271676,35.5046893 L29.2507934,47.83453 C29.2549029,49.9791543 27.4879647,51.7629877 25.363565,51.7589275 C23.2391653,51.7548673 21.465378,49.9642669 21.4612686,47.8196425 L21.4376427,35.4898018 C21.4335333,33.3451775 22.6703988,32.0964852 24.2630137,31.742078 L24.260959,30.6697658 C24.2472603,23.5207189 36.1097821,25.151898 40.3581639,24.8029702 C47.9693892,24.1026148 47.9519241,14.9879164 42.1083215,14.2617563 L42.1103762,15.3340684 C42.1141433,17.2999891 40.5239256,18.905457 38.3994815,18.9013968 L12.0231032,18.8509858 C10.075722,18.847264 8.47929569,17.2357505 8.4755286,15.269785 L8.46628212,10.4442456 C8.46251511,8.47832503 10.0527327,6.87285705 12.0001584,6.876579 L38.3765367,6.92698992 C40.5009364,6.93105011 42.0973627,8.5425636 42.1011298,10.5085291 L42.1039174,11.9401327 Z" id="Path" transform="translate(28.547758, 29.317753) scale(1, -1) rotate(152.000000) translate(-28.547758, -29.317753) "></path>
                </g>
            </g>
        </g>
    </g>
</svg>