<?xml version="1.0" encoding="UTF-8"?>
<svg width="28px" height="48px" viewBox="0 0 28 48" version="1.1" xmlns="http://www.w3.org/2000/svg" xmlns:xlink="http://www.w3.org/1999/xlink">
    <!-- Generator: Sketch 53 (72520) - https://sketchapp.com -->
    <title>noun_Brush_1537026</title>
    <desc>Created with Sketch.</desc>
    <g id="Page-1" stroke="none" stroke-width="1" fill="none" fill-rule="evenodd">
        <g id="noun_Brush_1537026" transform="translate(-1.000000, 0.000000)" fill="#FFFFFF" fill-rule="nonzero">
            <g id="Group">
                <path d="M14.5,42 L15.5,42 C16.1,42 16.5,41.6 16.5,41 C16.5,40.4 16.1,40 15.5,40 L14.5,40 C13.9,40 13.5,40.4 13.5,41 C13.5,41.6 14,42 14.5,42 Z" id="Path"></path>
                <path d="M28,0 L2,0 C1.4,0 1,0.4 1,1 L1,6.2 L1,17 C1.2,18.2 9.99200722e-16,22.7 4.1,25.5 C6,27.1 10.4,28.6 10,32.1 C9.8,33.8 9,37.3 9,39 C9,42.2 11.5,48 15,48 C18.5,48 21,42.2 21,39 C21,37.3 20.2,33.8 20,32.1 C19.7,28.6 24.1,27.1 25.9,25.6 C30,22.8 28.8,18.3 29,17 L29,7.1 L29,1 C29,0.4 28.6,0 28,0 Z M3,6.9 C4.4,6.3 5.1,6.8 5.6,8.2 C7.1,13 10.3,15.6 12.9,11.1 C13,11 14.1,7.9 15.6,7.7 C17.5,7.4 18.9,12.5 22.7,11 C25,10.1 25.4,6.8 27,7.6 C27,7.6 27,7.6 27,7.6 C27,7.6 27,7.6 27,7.6 L27,16 L3,16 L3,6.9 Z M3,2 L27,2 L27,5.5 C24.5,5.1 23.1,8.1 23.5,7.4 C20.6,12.6 19.1,5.1 15.2,5.7 C11.8,6.3 11.1,11.5 9.8,11.4 C9.1,11.3 8,9.3 7.4,7.6 C6.6,5.1 4.8,4.3 2.9,4.8 L2.9,2 L3,2 Z M24.8,23.9 C23.1,25.4 17.6,27.3 18,32.3 C18.2,34 19,37.6 19,39 C19,41.4 16.9,46 15,46 C13.1,46 11,41.4 11,39 C11,37.6 11.8,33.9 12,32.3 C12.6,25.4 3,25.6 3,19.7 L3,18 L27,18 C26.9,18.8 27.7,22 24.8,23.9 Z" id="Shape"></path>
            </g>
        </g>
    </g>
</svg>