<?xml version="1.0" encoding="UTF-8"?>
<svg width="62px" height="62px" viewBox="0 0 62 62" version="1.1" xmlns="http://www.w3.org/2000/svg" xmlns:xlink="http://www.w3.org/1999/xlink">
    <!-- Generator: Sketch 53 (72520) - https://sketchapp.com -->
    <title>noun_copy_1167372</title>
    <desc>Created with Sketch.</desc>
    <g id="Page-1" stroke="none" stroke-width="1" fill="none" fill-rule="evenodd">
        <g id="noun_copy_1167372" fill="#FFFFFF" fill-rule="nonzero">
            <path d="M31.3,0.7 L10.7,0.7 C5.2,0.7 0.7,5.2 0.7,10.7 L0.7,31.3 C0.7,36.8 5.2,41.3 10.7,41.3 L31.3,41.3 C36.8,41.3 41.3,36.8 41.3,31.3 L41.3,10.7 C41.3,5.2 36.8,0.7 31.3,0.7 Z M37.3,31.3 C37.3,34.6 34.6,37.3 31.3,37.3 L10.7,37.3 C7.4,37.3 4.7,34.6 4.7,31.3 L4.7,10.7 C4.7,7.4 7.4,4.7 10.7,4.7 L31.3,4.7 C34.6,4.7 37.3,7.4 37.3,10.7 L37.3,31.3 Z" id="Shape"></path>
            <path d="M51.3,57.3 L30.7,57.3 C27.4,57.3 24.7,54.6 24.7,51.3 L24.7,47.3 L20.7,47.3 L20.7,51.3 C20.7,56.8 25.2,61.3 30.7,61.3 L51.3,61.3 C56.8,61.3 61.3,56.8 61.3,51.3 L61.3,30.7 C61.3,25.2 56.8,20.7 51.3,20.7 L47.3,20.7 L47.3,24.7 L51.3,24.7 C54.6,24.7 57.3,27.4 57.3,30.7 L57.3,51.3 C57.3,54.6 54.6,57.3 51.3,57.3 Z" id="Path"></path>
        </g>
    </g>
</svg>