<svg xmlns="http://www.w3.org/2000/svg" xmlns:xlink="http://www.w3.org/1999/xlink" version="1.1" x="0px" y="0px" viewBox="0 0 100 100" enable-background="new 0 0 100 100" xml:space="preserve"><path fill="#fff" d="M51.343,17.225c-0.837-0.533-1.911-0.521-2.736,0.033c-1.038,0.697-25.44,17.326-25.44,39.076  c0,14.796,12.038,26.834,26.834,26.834s26.834-12.038,26.834-26.834C76.834,33.721,52.384,17.887,51.343,17.225z M50,78.167  c-12.039,0-21.834-9.795-21.834-21.834c0-16.344,16.89-30.21,21.866-33.94c4.987,3.588,21.802,16.947,21.802,33.94  C71.834,68.372,62.039,78.167,50,78.167z M50,63.667c-3.492,0-6.333-2.841-6.333-6.333c0-1.381-1.119-2.5-2.5-2.5  s-2.5,1.119-2.5,2.5c0,6.25,5.084,11.333,11.333,11.333c1.381,0,2.5-1.119,2.5-2.5S51.381,63.667,50,63.667z"/></svg>