<svg xmlns="http://www.w3.org/2000/svg" xmlns:xlink="http://www.w3.org/1999/xlink" width="104" height="71" viewBox="0 0 104 71">
    <defs>
        <rect id="a" width="56" height="19" x="48" rx="4"/>
        <mask id="c" width="56" height="19" x="0" y="0" fill="#fff">
            <use xlink:href="#a"/>
        </mask>
        <rect id="b" width="56" height="19" x="23" y="42" rx="4"/>
        <mask id="d" width="56" height="19" x="0" y="0" fill="#fff">
            <use xlink:href="#b"/>
        </mask>
    </defs>
    <g fill="none" fill-rule="evenodd">
        <path fill="#E3F2FD" d="M37 10h48a4 4 0 0 1 4 4v11a4 4 0 0 1-4 4H37a4 4 0 0 1-4-4V14a4 4 0 0 1 4-4zM4 52h48a4 4 0 0 1 4 4v11a4 4 0 0 1-4 4H4a4 4 0 0 1-4-4V56a4 4 0 0 1 4-4z"/>
        <use stroke="#77C5FD" stroke-dasharray="4,4" stroke-width="4" mask="url(#c)" xlink:href="#a"/>
        <use stroke="#77C5FD" stroke-dasharray="4,4" stroke-width="4" mask="url(#d)" xlink:href="#b"/>
    </g>
</svg>
