<?xml version="1.0" encoding="UTF-8"?>
<svg width="90px" height="91px" viewBox="0 0 90 91" version="1.1" xmlns="http://www.w3.org/2000/svg" xmlns:xlink="http://www.w3.org/1999/xlink">
    <!-- Generator: Sketch 55.2 (78181) - https://sketchapp.com -->
    <title>noun_Info_817970</title>
    <desc>Created with Sketch.</desc>
    <g id="Page-1" stroke="none" stroke-width="1" fill="none" fill-rule="evenodd">
        <g id="noun_Info_817970" fill="#000000" fill-rule="nonzero">
            <path d="M45,7.8 C55,7.8 64.4,11.6 71.5,18.6 C78.6,25.5 82.7,34.8 83,44.7 L83,83.8 L44.7,83.8 C23.9,83.6 7,66.5 7,45.8 C7,24.8 24,7.8 45,7.8 L45,7.8 Z M45,0.8 C20.1,0.8 0,20.9 0,45.8 C0,70.5 19.9,90.6 44.6,90.8 L90,90.8 L90,44.6 C89.3,20.2 69.4,0.8 45,0.8 L45,0.8 Z" id="Shape"></path>
            <path d="M48.5,30.1 C48.5,31.1 48.1,32 47.4,32.8 C46.7,33.5 45.8,33.9 44.8,33.9 C44.3,33.9 43.9,33.8 43.4,33.6 C43,33.4 42.6,33.1 42.2,32.8 C41.9,32.5 41.6,32.1 41.4,31.6 C41.2,31.1 41.1,30.7 41.1,30.1 C41.1,29.6 41.2,29.2 41.4,28.8 C41.6,28.4 41.9,28 42.2,27.6 C42.5,27.3 42.9,27 43.4,26.8 C43.8,26.6 44.3,26.5 44.8,26.5 C45.3,26.5 45.7,26.6 46.2,26.8 C46.6,27 47,27.3 47.4,27.6 C47.8,27.9 48,28.3 48.2,28.7 C48.4,29.1 48.5,29.6 48.5,30.1 Z M48.1,60.6 C48.1,61.7 47.8,62.6 47.2,63.2 C46.6,63.9 45.8,64.2 44.8,64.2 C43.8,64.2 43,63.9 42.4,63.2 C41.8,62.5 41.5,61.7 41.5,60.6 L41.5,42.6 C41.5,41.5 41.8,40.6 42.4,40 C43,39.3 43.8,39 44.8,39 C45.8,39 46.6,39.3 47.2,40 C47.8,40.7 48.1,41.5 48.1,42.6 L48.1,60.6 Z" id="Shape"></path>
        </g>
    </g>
</svg>