<svg xmlns="http://www.w3.org/2000/svg" xmlns:xlink="http://www.w3.org/1999/xlink" width="386" height="359" viewBox="0 0 386 359">
    <defs>
        <path id="f" d="M7.523 3.367l-.837-.759a1.924 1.924 0 0 1-.277-.313L4.878.121a.218.218 0 0 0-.34-.025l-3.47 3.683a.366.366 0 0 0-.008.485l1.288 1.481c.07.08-.035.196-.113.125L.785 4.54a.316.316 0 0 0-.448.017l-.266.281a.252.252 0 0 0-.02.315l1.538 2.163c.08.114.174.218.277.31l.917.826c.145.13.361.122.496-.021L7.543 3.9a.38.38 0 0 0-.02-.534z"/>
        <filter id="e" width="215.7%" height="203.5%" x="-58.3%" y="-52%" filterUnits="objectBoundingBox">
            <feOffset in="SourceAlpha" result="shadowOffsetOuter1"/>
            <feGaussianBlur in="shadowOffsetOuter1" result="shadowBlurOuter1" stdDeviation="1.5"/>
            <feColorMatrix in="shadowBlurOuter1" values="0 0 0 0 1 0 0 0 0 1 0 0 0 0 1 0 0 0 0.650928442 0"/>
        </filter>
        <path id="h" d="M10.673 9.996C9.547 8.813 7.83 7.476 7.83 7.476c-.436-.316-.34-.662-.156-.857l.895-.951c.467-.496.467-1.3 0-1.796a.196.196 0 0 0-.289 0l-4.914 5.22a.227.227 0 0 0 0 .306 1.147 1.147 0 0 0 1.691 0l.895-.951c.185-.196.436-.318.807.166 0 0 1.26 1.823 2.373 3.018a1.045 1.045 0 0 0 1.544.004 1.208 1.208 0 0 0-.004-1.639zm-.576 1.025a.375.375 0 0 1-.553 0 .434.434 0 0 1 0-.588.375.375 0 0 1 .553 0 .434.434 0 0 1 0 .588z"/>
        <filter id="g" width="216.3%" height="209.4%" x="-57.8%" y="-54.3%" filterUnits="objectBoundingBox">
            <feOffset in="SourceAlpha" result="shadowOffsetOuter1"/>
            <feGaussianBlur in="shadowOffsetOuter1" result="shadowBlurOuter1" stdDeviation="1.5"/>
            <feColorMatrix in="shadowBlurOuter1" values="0 0 0 0 1 0 0 0 0 1 0 0 0 0 1 0 0 0 0.650928442 0"/>
        </filter>
        <path id="j" d="M11.964 2.206c-.059.552-.374 2.967-1.476 3.957A2.227 2.227 0 0 1 7.55 6.2a5.005 5.005 0 0 0-1.274 3.334v2.427h-.551V7.738c0-1.235-.46-2.422-1.275-3.333a2.23 2.23 0 0 1-2.938-.038C.292 3.271.036.422.026.301L0 0l.302.002c.125.001 3.07.034 4.194 1.043.851.765.975 2.041.328 2.952A5.553 5.553 0 0 1 6.247 7.19c.236-.507.548-.978.929-1.396a2.246 2.246 0 0 1 .328-2.952C8.691 1.75 12 1.796 12 1.796l-.036.41z"/>
        <filter id="i" width="224.8%" height="224.3%" x="-62.3%" y="-61.6%" filterUnits="objectBoundingBox">
            <feOffset in="SourceAlpha" result="shadowOffsetOuter1"/>
            <feGaussianBlur in="shadowOffsetOuter1" result="shadowBlurOuter1" stdDeviation="2.5"/>
            <feColorMatrix in="shadowBlurOuter1" values="0 0 0 0 1 0 0 0 0 1 0 0 0 0 1 0 0 0 0.702700408 0"/>
        </filter>
        <linearGradient id="k" x1="100%" x2="18.607%" y1="0%" y2="100%">
            <stop offset="0%" stop-color="#8D9EFF"/>
            <stop offset="100%" stop-color="#496BC9"/>
        </linearGradient>
        <linearGradient id="l" x1="100%" x2="50%" y1="0%" y2="113.444%">
            <stop offset="3.479%" stop-color="#51ECEB"/>
            <stop offset="100%" stop-color="#219363"/>
        </linearGradient>
        <linearGradient id="m" x1="100%" x2="18.607%" y1="0%" y2="100%">
            <stop offset="0%" stop-color="#B676DC"/>
            <stop offset="100%" stop-color="#7B80E4"/>
        </linearGradient>
        <path id="o" d="M12.818 2.711c-.068.111-.045.267.09.356 1.296.933 2.16 2.444 2.16 4.133 0 .133 0 .289-.023.422-.023.134.09.267.227.29l2.25.422c.16.022.319-.067.319-.223.045-.289.045-.6.045-.911 0-2.711-1.386-5.089-3.522-6.511-.137-.089-.319-.045-.387.089L12.818 2.71z"/>
        <filter id="n" width="391.3%" height="290.3%" x="-144.4%" y="-95.7%" filterUnits="objectBoundingBox">
            <feOffset in="SourceAlpha" result="shadowOffsetOuter1"/>
            <feGaussianBlur in="shadowOffsetOuter1" result="shadowBlurOuter1" stdDeviation="2.5"/>
            <feColorMatrix in="shadowBlurOuter1" values="0 0 0 0 0.826967931 0 0 0 0 0.81293038 0 0 0 0 0.971354167 0 0 0 0.5 0"/>
        </filter>
        <path id="q" d="M9.909 12.823a5.529 5.529 0 0 1-2.273.266c-2.523-.244-4.545-2.31-4.682-4.8-.181-2.956 2.228-5.4 5.228-5.4.659 0 1.272.111 1.864.333.136.044.273 0 .34-.111l1.16-1.933c.09-.134.022-.312-.114-.378A8.49 8.49 0 0 0 7.59.156C3.613.423.409 3.556.136 7.444c-.318 4.6 3.409 8.445 8.046 8.445a8.408 8.408 0 0 0 3.091-.6.271.271 0 0 0 .136-.378l-1.136-1.955c-.091-.112-.227-.179-.364-.134z"/>
        <filter id="p" width="229.4%" height="195.2%" x="-65.4%" y="-47.6%" filterUnits="objectBoundingBox">
            <feOffset in="SourceAlpha" result="shadowOffsetOuter1"/>
            <feGaussianBlur in="shadowOffsetOuter1" result="shadowBlurOuter1" stdDeviation="2.5"/>
            <feColorMatrix in="shadowBlurOuter1" values="0 0 0 0 0.826967931 0 0 0 0 0.81293038 0 0 0 0 0.971354167 0 0 0 0.5 0"/>
        </filter>
        <path id="s" d="M13.09 9.756c-.363 1-1.067 1.844-1.93 2.444-.115.089-.16.244-.092.356l1.137 1.933c.068.133.25.177.386.089 1.546-1 2.727-2.49 3.296-4.245.045-.155-.046-.311-.205-.333l-2.273-.422c-.137-.022-.25.045-.318.178z"/>
        <filter id="r" width="403.4%" height="392.5%" x="-153.6%" y="-144.9%" filterUnits="objectBoundingBox">
            <feOffset in="SourceAlpha" result="shadowOffsetOuter1"/>
            <feGaussianBlur in="shadowOffsetOuter1" result="shadowBlurOuter1" stdDeviation="2.5"/>
            <feColorMatrix in="shadowBlurOuter1" values="0 0 0 0 0.826967931 0 0 0 0 0.81293038 0 0 0 0 0.971354167 0 0 0 0.5 0"/>
        </filter>
        <path id="a" d="M366 53h20v300h-20z"/>
        <mask id="t" width="20" height="300" x="0" y="0" fill="#fff">
            <use xlink:href="#a"/>
        </mask>
        <rect id="b" width="70" height="66" x="145" y="125" rx="4"/>
        <mask id="u" width="70" height="66" x="0" y="0" fill="#fff">
            <use xlink:href="#b"/>
        </mask>
        <rect id="c" width="70" height="26" rx="4"/>
        <mask id="v" width="70" height="26" x="0" y="0" fill="#fff">
            <use xlink:href="#c"/>
        </mask>
        <path id="d" d="M241 52.316L312 159H170z"/>
        <mask id="w" width="142" height="106.684" x="0" y="0" fill="#fff">
            <use xlink:href="#d"/>
        </mask>
    </defs>
    <g fill="none" fill-rule="evenodd">
        <path fill="#307EEB" stroke="#2664BC" stroke-width="1.228" d="M315.109 56.75c-1.998-.81-3.868-.941-4.906-2.449-.586-.853 1.56-2.411 1.56-3.256 0-.846-1.56-4.022-1.56-5.431 0-1.41 2.672-3.66 5.799-3.518 2.085.093 3.279 1.078 3.582 2.954.913 1.505 1.692 2.538 2.34 3.1.97.844-4.741 3.265-3.338 4.251 1.403.987 2.722 2.513.998 2.936-1.15.281-1.881.986-2.197 2.113a3.776 3.776 0 0 1-1.787 0c-.416-.098.165-.434-.491-.7z"/>
        <path fill="#307EEB" stroke="#2664BC" stroke-width="1.228" d="M322.486 56.538c2.43-1.024 2.267-1.786 3.078-3.865.529-1.353-.811-3.817-.811-4.885 0-1.068 2.435-3.919 2.435-5.699 0-1.78-1.985-4.24-5.788-4.062-3.803.178-.514 2.999-1.685 4.876-1.17 1.878-3.081 2.443-3.893 4.07-.812 1.63 4.142 2.826 2.436 4.072-1.707 1.245-3.311 3.173-1.215 3.707 1.398.356 1.803 1.246 1.215 2.67 1.686.18 2.897.18 3.63 0 .507-.124-.2-.548.598-.884z"/>
        <path stroke="#0C0B0B" stroke-linecap="round" stroke-opacity=".2" stroke-width=".819" d="M323.129 42.09c-1.624 2.713-2.436 4.341-2.436 4.884 0 .814.63.965.812 3.256.182 2.292-.101 3.257-.913 4.885"/>
        <g fill="#307EEB" stroke="#2664BC" stroke-width="1.228">
            <path d="M324.428 60.7h-12.34a1.637 1.637 0 0 0-1.513 2.266c2.561 6.164 5.122 9.246 7.683 9.246 2.56 0 5.121-3.082 7.682-9.246a1.637 1.637 0 0 0-1.512-2.266z"/>
            <path d="M327.386 62.642h-17.445v-4.261c0-.566.458-1.024 1.024-1.024h15.398c.565 0 1.023.458 1.023 1.024v4.261z"/>
        </g>
        <path fill="#000" fill-opacity=".1" d="M325.564 63.256h-13.801L323.94 65.7z"/>
        <g fill="#348CF1" stroke-width="1.535">
            <path stroke="#37383A" stroke-opacity=".2" d="M371.589 71.062h-72.822v12.76h72.822z"/>
            <path stroke="#000" stroke-opacity=".15" d="M337.51 84.336l-2.657 9.697h-2.93l-2.657-9.697h8.243z"/>
        </g>
        <rect width="24" height="24" fill="#77C5FD" rx="4" transform="matrix(-1 0 0 1 361 46)"/>
        <path fill="#000" fill-opacity=".1" d="M301.192 84l-8.331 3.061a1 1 0 0 0 .345 1.939h64.79C367.333 86.162 372 84.61 372 84.344c0-.177-23.603-.291-70.808-.344z"/>
        <g fill="#FFF">
            <path d="M355.576 56.026h-6.005c-.73 0-1.286.562-1.286 1.298v3.459c0 .692.557 1.297 1.286 1.297h4.29l1.715 1.73v-1.73c.73 0 1.286-.605 1.286-1.297v-3.46c0-.734-.557-1.297-1.286-1.297z"/>
            <path d="M350.429 53h-6.005c-.73 0-1.286.562-1.286 1.297v3.46c0 .691.557 1.297 1.286 1.297v1.729l1.716-1.73h1.286v-1.729c0-1.21.944-2.162 2.145-2.162h2.145v-.865c0-.735-.558-1.297-1.287-1.297z"/>
        </g>
        <g>
            <rect width="20" height="20" fill="#1B61D7" rx="3.333" transform="translate(130 9)"/>
            <g fill="#3994FE" stroke="#000" stroke-opacity=".15" stroke-width="1.151">
                <path d="M111.618 29.801h54.806v9.8h-54.806zM137.261 39.97l2.006 7.454h2.204l2.006-7.453h-6.216z"/>
            </g>
            <path fill="#000" fill-opacity=".1" d="M111.137 39l-5.105 3.137a1 1 0 0 0 .527 1.852l50.79-.164L166.636 39h-55.5z"/>
            <g>
                <g transform="rotate(-90 79.5 -54.5)">
                    <use fill="#000" filter="url(#e)" xlink:href="#f"/>
                    <use fill="#FFF" xlink:href="#f"/>
                </g>
                <g fill-rule="nonzero" transform="rotate(-90 79.5 -54.5)">
                    <use fill="#000" filter="url(#g)" xlink:href="#h"/>
                    <use fill="#FFF" xlink:href="#h"/>
                </g>
            </g>
        </g>
        <g>
            <rect width="20" height="20" fill="#0C47A1" rx="3.333" transform="translate(239 178)"/>
            <g fill="#348CF1" stroke="#000" stroke-opacity=".15" stroke-width="1.151">
                <path d="M230.618 198.801h54.806v9.8h-54.806zM256.261 208.97l2.006 7.454h2.204l2.006-7.453h-6.216z"/>
            </g>
            <path fill="#000" fill-opacity=".1" d="M230.5 208l-8.344 5h52.236L286 208z"/>
            <g>
                <g transform="translate(243 183)">
                    <use fill="#000" filter="url(#i)" xlink:href="#j"/>
                    <use fill="#FFF" xlink:href="#j"/>
                </g>
            </g>
            <g>
                <path fill="#307EEB" stroke="#2664BC" stroke-width="1.842" d="M245.878 287.7c2.734-1.095 3.057-19.988-1.222-19.798-2.853.127-3.485 7.041-1.895 20.743.804.193 1.619.193 2.445 0 .569-.133-.226-.586.672-.946zM233.73 288.097c2.339-.688 2.615-12.567-1.046-12.447-2.44.08-2.98 4.427-1.621 13.042a6.052 6.052 0 0 0 2.092 0c.487-.084-.193-.369.575-.595z"/>
                <path fill="#307EEB" stroke="#2664BC" stroke-width="1.842" d="M236.765 261.249c3.47.16 4.903 8.894 4.3 26.201-2.308.244-3.964.244-4.969 0-.692-.168-4.535-26.442.67-26.201z"/>
                <g fill="#307EEB" stroke="#2664BC" stroke-width="1.842">
                    <path d="M230.031 292.715l17.98-.193a2.456 2.456 0 0 1 2.481 2.456v9.663l-22.89.306v-9.776a2.456 2.456 0 0 1 2.429-2.456z"/>
                    <path d="M226.921 295.273h23.71v-5.422c0-.847-.687-1.535-1.535-1.535h-20.64c-.848 0-1.535.688-1.535 1.535v5.422z"/>
                </g>
                <path fill="#000" fill-opacity=".1" d="M228.376 296.194h19.843l-19.843 4.157z"/>
                <path fill="#348CF1" stroke="#000" stroke-opacity=".15" stroke-width="1.919" d="M137.013 306.328h207.028v15.95H137.013zM298.828 322.92l3.32 12.12h3.664l3.32-12.12h-10.304zM179.613 322.92l3.32 12.12h3.664l3.32-12.12h-10.304z"/>
                <g fill="url(#k)" transform="translate(287 276)">
                    <rect width="30" height="30" rx="5"/>
                </g>
                <path fill="#000" fill-opacity=".1" d="M123.135 326.661h183.889c25.104-2.712 37.657-4.263 37.657-4.652 0-.39-69.309-.452-207.926-.188l-13.823 2.86a1 1 0 0 0 .203 1.98z"/>
                <g transform="translate(181 276)">
                    <rect width="30" height="30" fill="url(#l)" rx="5"/>
                    <path stroke="#FFF" stroke-width="2" d="M19.934 16.872l-6.046 2.996A2 2 0 0 1 11 18.076v-6.11a2 2 0 0 1 2.916-1.777l6.046 3.113a2 2 0 0 1-.028 3.57z" opacity=".984"/>
                </g>
                <g>
                    <path fill="#79ACF3" d="M158.696 242.23c3.816-6.38 4.705-10.994 2.666-13.843-3.059-4.274-6.382-4.232-10.88-1.845-2.457 1.304-2.32 3.65-3.7 6.339-1.144 2.231-.836 5.381-.836 6.804 0 2.092 1.371 3.672 4.114 4.742l1.585 4.007c-2.245.066-3.345.242-3.299.528.14.868 3.8 2.383 4.045 2.403.807.066 6.216.31 7.609-.97.131-.12-1.102-.598-3.7-1.433l-1.607-4.16 4.003-2.573z"/>
                    <path fill="#0C47A1" d="M159.453 235.6c-1.02-.928-3.465-1.59-7.332-1.988-4.55.567-7.697.353-9.44-.642-2.616-1.493-1.405-6.798 2.579-8.92 2.655-1.416 4.942-1.416 6.861 0l.704.645c1.997-1.318 3.64-1.494 4.93-.53.12.09 2.129-4.352 6.056-8.305 3.928-3.953 11.692-.751 12.55 0 .382.334-3.44.334-5.537 4.204-2.945 5.437-9.538 7.213-9.385 7.4 3.304 4.025 1.93 9.412 1.16 11.996-.513 1.723-2.458 2.953-5.836 3.691 2.815-4.106 3.711-6.623 2.69-7.551z"/>
                    <path fill="#669AE3" d="M144.049 289.502c-12.459 9.154-19.22 14.299-20.284 15.433-1.597 1.701-2.752 3.138-2.146 5.112.607 1.973 11.294 29.016 11.72 29.799.184.34-2.371 3.935-2.223 4.193.731 1.274-1.758 4.79 2.222 2.324 2.654-1.644 4.237-3.167 4.75-4.568-.113-1.665-.248-2.834-.405-3.505-3.346-14.328-5.569-25.123-6.743-25.762-1.258-.684 5.041-5.387 18.898-14.11l-5.79-8.916z"/>
                    <path fill="#79ACF3" d="M149.3 293.502c-11.776 11.837-18.347 19.06-19.715 21.667-1.368 2.608-3.807 12.562-7.318 29.862l-.747 3c-3.216 3.014-4.477 4.74-3.784 5.18.694.44 3.047-.535 7.06-2.923 9.018-20.338 13.185-31.029 12.503-32.073-.942-1.243 12.322-8.252 19.38-12.33 2.162-1.25 5.834-4.034 6.321-4.785 1.384-2.132-3.183-4.665-13.7-7.598zM138.775 253.52c3.724 3.03 4.863 5.197 3.416 6.5-2.171 1.953-2.411 13.738-5.461 14.732-2.033.663-10.335-4.737-24.906-16.201-3.024-1.567-4.964-3.064-5.82-4.49-1.282-2.139 2.66-1.532 3.568 0 .6 1.011 6.697.804 8.407.946.882.074-1.786.978-1.979 1.742-.701 2.773 5.457 6.196 18.474 10.27l4.3-13.499z"/>
                    <path fill="#1B61D7" d="M111.865 355.715c.96-1.695 4.172-4.231 9.638-7.609-2.393 2.57-3.237 3.978-2.533 4.225.705.248 2.802-.713 6.291-2.884 1.77 1.13 1.5 2.72-.81 4.77-2.309 2.051-5.363 3.364-9.163 3.937-3.242.07-4.383-.743-3.423-2.439z"/>
                    <path fill="#175DD3" d="M128.002 350.31c-.084-3.112 1.673-6.494 5.27-10.148-2.25 4.873-2.195 6.191.165 3.955 3.541-3.353 2.837-3.332 4.125-5.645 1.575-.412 2.818 2.19 1.45 4.777-2.145 5.319-10.884 11.727-11.01 7.06z"/>
                    <path fill="#79ACF3" d="M165.826 254c-3.345 2.406-4.497 4.198-3.455 5.375 1.562 1.766 2.64 13.797 5.98 14.796 2.227.665 6.044 1.638 11.452 2.916 1.968 1.9 3.169 2.585 3.603 2.052.682-.838.018-1.608 0-1.728-.08-.51 5.537-1.394 4.672-1.394-.866 0-4.766-3.05-7.326-1.846-1.435.675-4.934-1.05-10.495-5.174L165.826 254z"/>
                    <path fill="#1659C2" d="M149.971 248.68c-.349-1.118-1.845-1.118-4.488 0-3.965 1.678-8.702 4.379-7.661 4.684 2.325.681 2.407 1.984 3.561 5.186 1.205 3.342.055 1.922 1.794 7.486 1.738 5.563 7.346 10.562 3.654 17.906-2.087 4.154-10.135 8.78-24.143 13.88 4.832 3.08 8.76 4.925 11.786 5.537 3.026.612 8.925 2.394 17.697 5.346 7.195-1.366 11.41-4.676 12.645-9.929 1.235-5.253-.5-11.232-5.204-17.938 1.224-5.558 2.013-9.27 2.367-11.139.442-2.327.705-4.026.79-5.098.19-2.363.19-4.23 0-5.601l4.373-6.395c-3.313-2.175-5.558-3.483-6.736-3.925-1.177-.441-2.313-.441-3.406 0-2.048 1.37-3.497 1.957-4.348 1.761-.85-.196-1.744-.782-2.68-1.76z"/>
                    <g transform="rotate(2 -6388.815 3207.464)">
                        <rect width="30" height="30" fill="url(#m)" rx="5"/>
                        <path fill="#FFF" fill-rule="nonzero" d="M13.14 11.74a1.398 1.398 0 1 1-.001 2.797 1.398 1.398 0 0 1 0-2.796zm1.337 3.874a2.816 2.816 0 1 1 1.137-1.137 1.616 1.616 0 0 1 1.65.1 1.619 1.619 0 0 1 1.59-1.317h.424v-.52a.709.709 0 0 0-.584-.694l-.92-.161a4.783 4.783 0 0 0-.475-1.145l.536-.765a.707.707 0 0 0-.08-.893l-.552-.56a.707.707 0 0 0-.905-.079l-.765.536a4.783 4.783 0 0 0-1.145-.475l-.161-.92A.707.707 0 0 0 13.533 7h-.78a.707.707 0 0 0-.695.585l-.161.92c-.4.107-.786.266-1.145.474l-.772-.536a.708.708 0 0 0-.898.078l-.56.56a.708.708 0 0 0-.079.908l.536.765c-.207.36-.367.744-.475 1.144l-.92.162a.707.707 0 0 0-.584.694v.78a.707.707 0 0 0 .585.695l.92.161c.107.4.267.785.474 1.145l-.536.761a.708.708 0 0 0 .078.907l.56.552a.708.708 0 0 0 .908.08l.765-.536c.359.207.744.367 1.144.475l.162.92a.708.708 0 0 0 .694.584h.52v-.423c0-.778.553-1.445 1.317-1.59a1.616 1.616 0 0 1-.114-1.65zM24 18.854v.615a.556.556 0 0 1-.462.541l-.725.127c-.084.32-.21.627-.374.914l.423.604a.557.557 0 0 1-.063.715l-.436.435h.001a.557.557 0 0 1-.715.062l-.598-.428c-.283.163-.586.29-.902.374l-.139.726a.556.556 0 0 1-.541.461h-.614a.556.556 0 0 1-.55-.461l-.127-.726a3.786 3.786 0 0 1-.902-.374l-.604.423a.557.557 0 0 1-.714-.063l-.436-.435a.557.557 0 0 1-.062-.715l.425-.598a3.781 3.781 0 0 1-.375-.902l-.725-.139a.557.557 0 0 1-.462-.55v-.605c0-.271.195-.504.462-.55l.725-.126c.085-.316.211-.62.375-.903l-.424-.602a.557.557 0 0 1 .063-.715l.436-.435a.557.557 0 0 1 .714-.062l.602.424v-.001c.283-.163.587-.29.902-.375l.127-.725a.556.556 0 0 1 .55-.461h.614a.558.558 0 0 1 .541.461l.127.725c.32.084.627.21.914.375l.602-.424v.001a.557.557 0 0 1 .714.062l.436.436a.557.557 0 0 1 .063.714l-.427.602c.163.283.289.587.374.903l.725.126a.556.556 0 0 1 .462.55zm-3.178.308a1.66 1.66 0 1 0-3.32 0 1.66 1.66 0 0 0 3.32 0z"/>
                    </g>
                </g>
            </g>
            <g>
                <g transform="translate(294 283)">
                    <use fill="#000" filter="url(#n)" xlink:href="#o"/>
                    <use fill="#FFF" xlink:href="#o"/>
                </g>
                <g transform="translate(294 283)">
                    <use fill="#000" filter="url(#p)" xlink:href="#q"/>
                    <use fill="#FFF" xlink:href="#q"/>
                </g>
                <g transform="translate(294 283)">
                    <use fill="#000" filter="url(#r)" xlink:href="#s"/>
                    <use fill="#FFF" xlink:href="#s"/>
                </g>
            </g>
        </g>
        <use stroke="#FFF" stroke-dasharray="4,4" stroke-opacity=".5" stroke-width="4" mask="url(#t)" xlink:href="#a"/>
        <use stroke="#FFF" stroke-dasharray="4,4" stroke-opacity=".5" stroke-width="4" mask="url(#u)" xlink:href="#b"/>
        <use stroke="#FFF" stroke-dasharray="4,4" stroke-opacity=".5" stroke-width="4" mask="url(#v)" xlink:href="#c"/>
        <use stroke="#FFF" stroke-dasharray="4,4" stroke-opacity=".5" stroke-width="4" mask="url(#w)" xlink:href="#d"/>
    </g>
</svg>
