<?xml version="1.0" encoding="UTF-8"?>
<svg width="500px" height="314px" viewBox="0 0 500 314" version="1.1" xmlns="http://www.w3.org/2000/svg" xmlns:xlink="http://www.w3.org/1999/xlink">
    <defs>
        <path d="M11.3830654,-7.10542736e-15 L130.929568,-7.10542736e-15 C136.254061,-7.10542736e-15 140.570415,4.29611209 140.570415,9.59563493 C140.570415,15.6195613 140.570415,20.0175606 140.570415,22.789633 C140.570415,40.9147211 140.570415,67.8624626 140.570415,103.632857 C140.570415,108.93238 136.254061,113.228492 130.929568,113.228492 L11.3830654,113.228492 C6.05857262,113.228492 1.74221841,108.93238 1.74221841,103.632857 C1.74221841,67.5426081 1.74221841,40.5948666 1.74221841,22.789633 C1.74221841,19.6977061 1.74221841,15.2997068 1.74221841,9.59563493 C1.74221841,4.29611209 6.05857262,-7.10542736e-15 11.3830654,-7.10542736e-15 Z" id="path-1"></path>
        <filter x="-11.2%" y="-10.2%" width="122.3%" height="127.4%" filterUnits="objectBoundingBox" id="filter-2">
            <feOffset dx="0" dy="4" in="SourceAlpha" result="shadowOffsetOuter1"></feOffset>
            <feGaussianBlur stdDeviation="4.5" in="shadowOffsetOuter1" result="shadowBlurOuter1"></feGaussianBlur>
            <feColorMatrix values="0 0 0 0 0   0 0 0 0 0   0 0 0 0 0  0 0 0 0.25 0" type="matrix" in="shadowBlurOuter1"></feColorMatrix>
        </filter>
        <path d="M9.64084697,0 L129.187349,0 C134.511842,0 138.828196,4.29611209 138.828196,9.59563493 C138.828196,15.6195613 138.828196,20.0175606 138.828196,22.789633 C138.828196,40.9147211 138.828196,67.8624626 138.828196,103.632857 C138.828196,108.93238 134.511842,113.228492 129.187349,113.228492 L9.64084697,113.228492 C4.31635421,113.228492 0,108.93238 0,103.632857 C0,67.5426081 0,40.5948666 0,22.789633 C0,19.6977061 0,15.2997068 0,9.59563493 C0,4.29611209 4.31635421,0 9.64084697,0 Z" id="path-3"></path>
        <filter x="-11.2%" y="-10.2%" width="122.3%" height="127.4%" filterUnits="objectBoundingBox" id="filter-4">
            <feOffset dx="0" dy="4" in="SourceAlpha" result="shadowOffsetOuter1"></feOffset>
            <feGaussianBlur stdDeviation="4.5" in="shadowOffsetOuter1" result="shadowBlurOuter1"></feGaussianBlur>
            <feColorMatrix values="0 0 0 0 0   0 0 0 0 0   0 0 0 0 0  0 0 0 0.25 0" type="matrix" in="shadowBlurOuter1"></feColorMatrix>
        </filter>
        <path d="M15.7284182,1.48815162 L73.6851636,1.48815162 C76.1477415,1.48815162 78.1440553,3.47615643 78.1440553,5.92848464 L78.1440553,101.395645 C78.1440553,103.847973 76.1477415,105.835978 73.6851636,105.835978 L6.8017877,105.835978 C4.3392098,105.835978 2.34289598,103.847973 2.34289598,101.395645 L2.34289598,13.3182831 L15.7284182,1.48815162 Z" id="path-5"></path>
        <filter x="-20.4%" y="-11.0%" width="140.9%" height="129.7%" filterUnits="objectBoundingBox" id="filter-6">
            <feOffset dx="0" dy="4" in="SourceAlpha" result="shadowOffsetOuter1"></feOffset>
            <feGaussianBlur stdDeviation="4.5" in="shadowOffsetOuter1" result="shadowBlurOuter1"></feGaussianBlur>
            <feColorMatrix values="0 0 0 0 0   0 0 0 0 0   0 0 0 0 0  0 0 0 0.25 0" type="matrix" in="shadowBlurOuter1"></feColorMatrix>
        </filter>
        <path d="M13.961235,2.48560066 L71.9179804,2.48560066 C74.3805583,2.48560066 76.3768722,4.47360547 76.3768722,6.92593368 L76.3768722,102.393094 C76.3768722,104.845422 74.3805583,106.833427 71.9179804,106.833427 L5.03460456,106.833427 C2.57202666,106.833427 0.575712837,104.845422 0.575712837,102.393094 L0.575712837,14.3157321 L13.961235,2.48560066 Z" id="path-7"></path>
        <filter x="-20.4%" y="-11.0%" width="140.9%" height="129.7%" filterUnits="objectBoundingBox" id="filter-8">
            <feOffset dx="0" dy="4" in="SourceAlpha" result="shadowOffsetOuter1"></feOffset>
            <feGaussianBlur stdDeviation="4.5" in="shadowOffsetOuter1" result="shadowBlurOuter1"></feGaussianBlur>
            <feColorMatrix values="0 0 0 0 0   0 0 0 0 0   0 0 0 0 0  0 0 0 0.25 0" type="matrix" in="shadowBlurOuter1"></feColorMatrix>
        </filter>
        <path d="M11.920791,7.84276844 L22.2065848,16.7840726 L22.2065848,16.7840726 L0.834106056,16.8565979 L9.14941126,7.9845051 C9.88484652,7.19982555 11.1091406,7.13721149 11.920791,7.84276844 Z" id="path-9"></path>
        <filter x="-9.4%" y="-21.7%" width="118.7%" height="131.4%" filterUnits="objectBoundingBox" id="filter-10">
            <feOffset dx="0" dy="-1" in="SourceAlpha" result="shadowOffsetOuter1"></feOffset>
            <feGaussianBlur stdDeviation="0.5" in="shadowOffsetOuter1" result="shadowBlurOuter1"></feGaussianBlur>
            <feColorMatrix values="0 0 0 0 0   0 0 0 0 0   0 0 0 0 0  0 0 0 0.17 0" type="matrix" in="shadowBlurOuter1"></feColorMatrix>
        </filter>
        <path d="M4.04405086,0.116533973 L90.2280581,0.116533973 C91.6704251,0.116533973 92.8396946,1.29310825 92.8396946,2.74448617 L92.8396946,126.258239 C92.8396946,127.709617 91.6704251,128.886192 90.2280581,128.886192 L4.04405086,128.886192 C2.6016838,128.886192 1.43241428,127.709617 1.43241428,126.258239 L1.43241428,2.74448617 C1.43241428,1.29310825 2.6016838,0.116533973 4.04405086,0.116533973 Z" id="path-11"></path>
        <filter x="-8.2%" y="-3.5%" width="116.4%" height="111.6%" filterUnits="objectBoundingBox" id="filter-12">
            <feOffset dx="0" dy="3" in="SourceAlpha" result="shadowOffsetOuter1"></feOffset>
            <feGaussianBlur stdDeviation="2" in="shadowOffsetOuter1" result="shadowBlurOuter1"></feGaussianBlur>
            <feColorMatrix values="0 0 0 0 0   0 0 0 0 0   0 0 0 0 0  0 0 0 0.25 0" type="matrix" in="shadowBlurOuter1"></feColorMatrix>
        </filter>
        <path d="M2.70170185,2.61326621 L88.885709,2.61326621 C90.3280761,2.61326621 91.4973456,3.78984049 91.4973456,5.24121841 L91.4973456,128.754972 C91.4973456,130.20635 90.3280761,131.382924 88.885709,131.382924 L2.70170185,131.382924 C1.25933479,131.382924 0.090065268,130.20635 0.090065268,128.754972 L0.090065268,5.24121841 C0.090065268,3.78984049 1.25933479,2.61326621 2.70170185,2.61326621 Z" id="path-13"></path>
        <filter x="-17.0%" y="-8.9%" width="133.9%" height="124.1%" filterUnits="objectBoundingBox" id="filter-15">
            <feOffset dx="0" dy="4" in="SourceAlpha" result="shadowOffsetOuter1"></feOffset>
            <feGaussianBlur stdDeviation="4.5" in="shadowOffsetOuter1" result="shadowBlurOuter1"></feGaussianBlur>
            <feColorMatrix values="0 0 0 0 0   0 0 0 0 0   0 0 0 0 0  0 0 0 0.25 0" type="matrix" in="shadowBlurOuter1"></feColorMatrix>
        </filter>
        <linearGradient x1="50%" y1="1.00031672%" x2="50%" y2="99.3243243%" id="linearGradient-16">
            <stop stop-color="#FFFFFF" stop-opacity="0" offset="0%"></stop>
            <stop stop-color="#F1F2F5" offset="100%"></stop>
        </linearGradient>
        <path d="M13.4913981,2.84217094e-14 L151.717042,2.84217094e-14 C157.873486,2.84217094e-14 162.864271,4.97001203 162.864271,11.1008326 C162.864271,18.0696886 162.864271,23.1575702 162.864271,26.3644773 C162.864271,47.3327166 162.864271,78.5075547 162.864271,119.888992 C162.864271,126.019812 157.873486,130.989824 151.717042,130.989824 L13.4913981,130.989824 C7.33495335,130.989824 2.34416879,126.019812 2.34416879,119.888992 C2.34416879,78.137527 2.34416879,46.9626889 2.34416879,26.3644773 C2.34416879,22.7875424 2.34416879,17.6996608 2.34416879,11.1008326 C2.34416879,4.97001203 7.33495335,2.84217094e-14 13.4913981,2.84217094e-14 Z" id="path-17"></path>
        <filter x="-9.7%" y="-8.8%" width="119.3%" height="123.7%" filterUnits="objectBoundingBox" id="filter-18">
            <feOffset dx="0" dy="4" in="SourceAlpha" result="shadowOffsetOuter1"></feOffset>
            <feGaussianBlur stdDeviation="4.5" in="shadowOffsetOuter1" result="shadowBlurOuter1"></feGaussianBlur>
            <feColorMatrix values="0 0 0 0 0   0 0 0 0 0   0 0 0 0 0  0 0 0 0.25 0" type="matrix" in="shadowBlurOuter1"></feColorMatrix>
        </filter>
        <path d="M11.1472293,0 L149.372873,0 C155.529318,0 160.520102,4.97001203 160.520102,11.1008326 C160.520102,18.0696886 160.520102,23.1575702 160.520102,26.3644773 C160.520102,47.3327166 160.520102,78.5075547 160.520102,119.888992 C160.520102,126.019812 155.529318,130.989824 149.372873,130.989824 L11.1472293,130.989824 C4.99078456,130.989824 0,126.019812 0,119.888992 C0,78.137527 0,46.9626889 0,26.3644773 C0,22.7875424 0,17.6996608 0,11.1008326 C0,4.97001203 4.99078456,0 11.1472293,0 Z" id="path-19"></path>
        <filter x="-9.7%" y="-8.8%" width="119.3%" height="123.7%" filterUnits="objectBoundingBox" id="filter-20">
            <feOffset dx="0" dy="4" in="SourceAlpha" result="shadowOffsetOuter1"></feOffset>
            <feGaussianBlur stdDeviation="4.5" in="shadowOffsetOuter1" result="shadowBlurOuter1"></feGaussianBlur>
            <feColorMatrix values="0 0 0 0 0   0 0 0 0 0   0 0 0 0 0  0 0 0 0.25 0" type="matrix" in="shadowBlurOuter1"></feColorMatrix>
        </filter>
    </defs>
    <g id="In-App-generic-empty-states" stroke="none" stroke-width="1" fill="none" fill-rule="evenodd" opacity="0.5">
        <g id="Generic-Empty-State_No-data" transform="translate(-774.000000, -1298.000000)">
            <g id="Dark" transform="translate(683.000000, 0.000000)">
                <g id="No-data_XL" transform="translate(91.000000, 1262.000000)">
                    <g id="No-data-dark-_XL-drawing/Dark" transform="translate(0.000000, 36.000000)">
                        <path d="M113.143555,4.48208058 C213.087956,7.68586051 318.128041,-0.859003409 413.648756,24.2630233 C487.823039,43.7709209 455.251529,226.884419 437.111726,275.371925 C418.971922,323.859431 347.843281,285.457119 256.307836,285.457119 C164.772392,285.457119 113.143555,328.560961 70.9699476,275.371925 C9.94631797,183.269696 13.1991542,1.27830065 113.143555,4.48208058 Z" id="Rectangle" fill="#CCCED3" opacity="0.08"></path>
                        <path d="M163.992556,1.5705303 C242.906729,-9.10493832 388.114837,36.0012373 476.388847,95.6174228 C544.935878,141.910919 435.596348,257.345662 396.328193,290.422598 C357.060037,323.499535 293.935774,316.493798 193.478517,293.765795 C93.02126,271.037792 27.0515466,271.736089 5.86587577,210.3207 C-18.3916528,108.833867 85.0783836,12.2459989 163.992556,1.5705303 Z" id="Rectangle-Copy" fill="#F1F2F5" opacity="0.22"></path>
                        <g id="Doughnut" transform="translate(56.079997, 48.843663)">
                            <g id="base">
                                <g id="Path">
                                    <use fill="black" fill-opacity="1" filter="url(#filter-2)" xlink:href="#path-1"></use>
                                    <use fill="#D5D6DA" fill-rule="evenodd" xlink:href="#path-1"></use>
                                </g>
                                <g id="Path">
                                    <use fill="black" fill-opacity="1" filter="url(#filter-4)" xlink:href="#path-3"></use>
                                    <use fill="#D5D6DA" fill-rule="evenodd" xlink:href="#path-3"></use>
                                </g>
                                <path d="M9.64084697,-1.36362174e-14 L129.187349,-1.36362174e-14 C134.511842,-1.36362174e-14 138.828196,4.29611209 138.828196,9.59563493 L138.828196,22.789633 L0,22.789633 L0,9.59563493 C0,4.29611209 4.31635421,-1.36362174e-14 9.64084697,-1.36362174e-14 Z" id="Path-Copy" fill="#9EA0A5"></path>
                            </g>
                            <g id="Group-3" opacity="0.815359933" transform="translate(78.260870, 36.956522)" fill="#B1B3B7" fill-rule="nonzero">
                                <path d="M17.3518373,35.1735503 C17.3965874,31.9515457 18.1573385,29.5014797 19.6340906,27.8233523 L19.6340906,27.8233523 L23.762284,23.762284 C27.1632889,20.2270289 28.8637913,16.6358363 28.8637913,12.9887061 C28.8637913,8.89407523 27.6051958,5.70563316 25.0880047,3.4233799 C22.5708135,1.14112663 19.0635273,0 14.5661458,0 C10.2030146,0 6.69572833,1.15231415 4.04428704,3.45694245 C1.39284574,5.76157074 0.044750064,8.89407523 0,12.8544559 L0,12.8544559 L8.15569917,12.8544559 C8.15569917,10.9973282 8.74304376,9.52616988 9.91773294,8.44098083 C11.0924221,7.35579178 12.6418931,6.81319725 14.5661458,6.81319725 C16.5798987,6.81319725 18.1069947,7.36697929 19.1474337,8.47454338 C20.1878726,9.58210746 20.7080921,11.187516 20.7080921,13.290769 C20.7080921,14.8793963 20.2605915,16.3561484 19.3655902,17.7210254 C18.7838394,18.6160266 17.4021812,20.1207475 15.2206155,22.2351881 C13.0390499,24.3496286 11.5790791,26.2906626 10.840703,28.0582902 C10.102327,29.8259177 9.73313893,32.1976711 9.73313893,35.1735503 L9.73313893,35.1735503 L17.3518373,35.1735503 Z M13.7606447,49.9410715 C15.2373968,49.9410715 16.3785234,49.5271334 17.1840246,48.6992572 C17.9895257,47.871381 18.3922763,46.8421295 18.3922763,45.6115028 C18.3922763,44.3361259 17.9783382,43.2789057 17.150462,42.439842 C16.3225859,41.6007783 15.1926467,41.1812464 13.7606447,41.1812464 C12.3510177,41.1812464 11.2322661,41.5895908 10.4043899,42.4062794 C9.5765137,43.2229681 9.16257561,44.2913759 9.16257561,45.6115028 C9.16257561,46.8421295 9.55973243,47.871381 10.3540461,48.6992572 C11.1483597,49.5271334 12.2838926,49.9410715 13.7606447,49.9410715 Z" id="?"></path>
                            </g>
                            <path d="M15.2717042,49.9537465 L49.3822259,49.9537465 C50.4288215,49.9537465 51.2772548,50.9477489 51.2772548,52.173913 C51.2772548,53.4000772 50.4288215,54.3940796 49.3822259,54.3940796 L15.2717042,54.3940796 C14.2251085,54.3940796 13.3766752,53.4000772 13.3766752,52.173913 C13.3766752,50.9477489 14.2251085,49.9537465 15.2717042,49.9537465 Z" id="Rectangle" fill="#9EA0A5" opacity="0.647623698"></path>
                            <path d="M15.2717042,39.9629972 L49.3822259,39.9629972 C50.4288215,39.9629972 51.2772548,40.9569996 51.2772548,42.1831637 C51.2772548,43.4093278 50.4288215,44.4033302 49.3822259,44.4033302 L15.2717042,44.4033302 C14.2251085,44.4033302 13.3766752,43.4093278 13.3766752,42.1831637 C13.3766752,40.9569996 14.2251085,39.9629972 15.2717042,39.9629972 Z" id="Rectangle-Copy-3" fill="#9EA0A5" opacity="0.647623698"></path>
                            <path d="M15.4034441,59.9444958 L33.6443648,59.9444958 C34.7637184,59.9444958 35.6711338,60.9384982 35.6711338,62.1646623 C35.6711338,63.3908265 34.7637184,64.3848289 33.6443648,64.3848289 L15.4034441,64.3848289 C14.2840905,64.3848289 13.3766752,63.3908265 13.3766752,62.1646623 C13.3766752,60.9384982 14.2840905,59.9444958 15.4034441,59.9444958 Z" id="Rectangle-Copy-2" fill="#9EA0A5" opacity="0.647623698"></path>
                        </g>
                        <g id="Decorations" opacity="0.6" transform="translate(0.343851, 2.220167)" fill="#CCCED3">
                            <path d="M221.829863,116.419981 C222.171888,116.419981 222.456349,116.665414 222.51534,116.989072 L222.526565,117.113784 L222.526565,119.19519 C222.526565,119.578366 222.214641,119.888992 221.829863,119.888992 C221.487839,119.888992 221.203377,119.643559 221.144386,119.319901 L221.133161,119.19519 L221.133161,117.113784 C221.133161,116.730607 221.445086,116.419981 221.829863,116.419981 Z M224.196586,115.730071 L224.293076,115.810352 L225.771004,117.282128 C226.043083,117.553075 226.043083,117.992366 225.771004,118.263312 C225.529156,118.504154 225.153739,118.530914 224.882209,118.343593 L224.785719,118.263312 L223.307791,116.791536 C223.035712,116.520589 223.035712,116.081298 223.307791,115.810352 C223.519408,115.599616 223.833289,115.552785 224.090356,115.669861 L224.196586,115.730071 Z M220.351936,115.810352 C220.593784,116.051193 220.620656,116.425048 220.432552,116.695447 L220.351936,116.791536 L218.874008,118.263312 C218.601929,118.534259 218.160802,118.534259 217.888723,118.263312 C217.646875,118.022471 217.620003,117.648617 217.808107,117.378217 L217.888723,117.282128 L219.36665,115.810352 C219.638729,115.539405 220.079857,115.539405 220.351936,115.810352 Z M226.706776,113.644773 C227.091554,113.644773 227.403478,113.955399 227.403478,114.338575 C227.403478,114.679177 227.157019,114.962454 226.832009,115.021199 L226.706776,115.032377 L224.616671,115.032377 C224.231893,115.032377 223.919969,114.721752 223.919969,114.338575 C223.919969,113.997974 224.166427,113.714697 224.491438,113.655951 L224.616671,113.644773 L226.706776,113.644773 Z M219.043056,113.644773 C219.427834,113.644773 219.739758,113.955399 219.739758,114.338575 C219.739758,114.679177 219.493299,114.962454 219.168289,115.021199 L219.043056,115.032377 L216.95295,115.032377 C216.568173,115.032377 216.256249,114.721752 216.256249,114.338575 C216.256249,113.997974 216.502707,113.714697 216.827717,113.655951 L216.95295,113.644773 L219.043056,113.644773 Z M218.777518,110.333558 L218.874008,110.413838 L220.351936,111.885615 C220.624015,112.156561 220.624015,112.595852 220.351936,112.866799 C220.110088,113.10764 219.734671,113.134401 219.463141,112.947079 L219.36665,112.866799 L217.888723,111.395023 C217.616644,111.124076 217.616644,110.684785 217.888723,110.413838 C218.10034,110.203102 218.41422,110.156272 218.671288,110.273348 L218.777518,110.333558 Z M225.771004,110.413838 C226.012852,110.65468 226.039724,111.028534 225.85162,111.298934 L225.771004,111.395023 L224.293076,112.866799 C224.020997,113.137746 223.57987,113.137746 223.307791,112.866799 C223.065943,112.625958 223.039071,112.252103 223.227175,111.981703 L223.307791,111.885615 L224.785719,110.413838 C225.057798,110.142892 225.498925,110.142892 225.771004,110.413838 Z M221.829863,108.788159 C222.171888,108.788159 222.456349,109.033592 222.51534,109.357249 L222.526565,109.481961 L222.526565,111.563367 C222.526565,111.946544 222.214641,112.257169 221.829863,112.257169 C221.487839,112.257169 221.203377,112.011737 221.144386,111.688079 L221.133161,111.563367 L221.133161,109.481961 C221.133161,109.098785 221.445086,108.788159 221.829863,108.788159 Z" id="Combined-Shape-Copy-5" fill-rule="nonzero"></path>
                            <ellipse id="Oval" cx="445.329981" cy="180.943571" rx="5.57361466" ry="5.55041628"></ellipse>
                            <ellipse id="Oval-Copy-2" cx="268.648226" cy="164.15618" rx="3.34416879" ry="3.33024977"></ellipse>
                            <path d="M298.699525,37.7360013 L302.017357,37.7319412 C302.293499,37.7316033 302.517631,37.9551868 302.517969,38.2313289 C302.517969,38.2317375 302.517969,38.2321461 302.517969,38.2325547 L302.464654,81.6536047 C302.464315,81.9292683 302.24093,82.1526531 301.965266,82.1529904 L298.647434,82.1570505 C298.371292,82.1573884 298.14716,81.9338049 298.146822,81.6576627 C298.146822,81.6572541 298.146822,81.6568455 298.146822,81.6564369 L298.200137,38.235387 C298.200476,37.9597234 298.423861,37.7363386 298.699525,37.7360013 Z" id="Rectangle-Copy-6" opacity="0.339076451" transform="translate(300.332395, 59.944496) scale(-1, 1) rotate(18.000000) translate(-300.332395, -59.944496) "></path>
                            <rect id="Rectangle-Copy-5" opacity="0.339076451" x="354.481892" y="215.356152" width="4.45889172" height="35.5226642" rx="0.5"></rect>
                            <ellipse id="Oval-Copy-3" cx="2.22944586" cy="78.6797697" rx="2.22944586" ry="2.22016651"></ellipse>
                            <ellipse id="Oval-Copy-4" cx="392.382472" cy="206.475486" rx="2.22944586" ry="2.22016651"></ellipse>
                            <ellipse id="Oval-Copy" cx="111.472293" cy="237.557817" rx="6.68833759" ry="6.66049954"></ellipse>
                            <g id="corner-llines" opacity="0.34" transform="translate(13.376675, 8.880666)">
                                <path d="M43.7764542,3.09320651 L47.2345426,3.09613416 C47.5103537,3.09636766 47.7338848,3.31989797 47.7341192,3.59570906 L47.7559148,29.2425196 C47.7561495,29.5186619 47.5324822,29.7427096 47.2563399,29.7429443 C47.2560572,29.7429446 47.2557744,29.7429446 47.2554917,29.7429443 L43.7974033,29.7400167 C43.5215922,29.7397832 43.2980612,29.5162529 43.2978268,29.2404418 L43.2760311,3.59363125 C43.2757964,3.31748898 43.4994637,3.09344119 43.775606,3.09320651 C43.7758887,3.09320627 43.7761715,3.09320627 43.7764542,3.09320651 Z" id="Rectangle-Copy" transform="translate(45.515973, 16.418075) rotate(-12.000000) translate(-45.515973, -16.418075) "></path>
                                <path d="M21.8866947,-4.48870105 L25.3366244,-4.48151137 C25.6119526,-4.48093758 25.8350075,-4.25788282 25.8355813,-3.98255461 L25.926234,39.5103242 C25.9268095,39.786466 25.703419,40.0107897 25.4272772,40.0113652 C25.4265825,40.0113667 25.4258878,40.0113667 25.4251931,40.0113652 L21.9752634,40.0041756 C21.6999351,40.0036018 21.4768803,39.780547 21.4763064,39.5052188 L21.3856538,-3.98765998 C21.3850782,-4.26380175 21.6084688,-4.48812548 21.8846106,-4.48870105 C21.8853053,-4.48870249 21.886,-4.48870249 21.8866947,-4.48870105 Z" id="Rectangle-Copy-2" transform="translate(23.655944, 17.761332) rotate(-44.000000) translate(-23.655944, -17.761332) "></path>
                                <path d="M16.0972636,20.8843819 L19.5388382,20.887977 C19.8145733,20.888265 20.0380286,21.1117212 20.0383156,21.3874563 L20.0743922,56.0486429 C20.0746796,56.3247851 19.8510551,56.5488756 19.5749129,56.549163 C19.5745653,56.5491634 19.5742177,56.5491634 19.5738702,56.549163 L16.1322956,56.545568 C15.8565605,56.5452799 15.6331051,56.3218238 15.6328182,56.0460886 L15.5967416,21.3849021 C15.5964542,21.1087598 15.8200787,20.8846693 16.0962209,20.8843819 C16.0965685,20.8843816 16.096916,20.8843816 16.0972636,20.8843819 Z" id="Rectangle-Copy-4" transform="translate(17.835567, 38.716772) rotate(-75.000000) translate(-17.835567, -38.716772) "></path>
                            </g>
                            <path d="M127.731404,193.804758 C128.535083,193.004424 129.799694,192.94286 130.674286,193.620066 L130.884316,193.804758 L137.188951,200.081406 L143.495967,193.804758 C144.366619,192.937729 145.778226,192.937729 146.648879,193.804758 C147.519532,194.671787 147.519532,196.077519 146.648879,196.944548 L140.343617,203.222942 L146.648879,209.503706 C147.452559,210.304041 147.51438,211.563388 146.834344,212.43434 L146.648879,212.643496 C145.8452,213.44383 144.580589,213.505394 143.705997,212.828188 L143.495967,212.643496 L137.188951,206.364477 L130.884316,212.643496 C130.013664,213.510525 128.602056,213.510525 127.731404,212.643496 C126.860751,211.776467 126.860751,210.370735 127.731404,209.503706 L134.034285,203.222942 L127.731404,196.944548 C126.927724,196.144213 126.865903,194.884866 127.545939,194.013914 L127.731404,193.804758 Z" id="Path"></path>
                            <path d="M471.753584,142.377402 C472.13751,142.759729 472.13751,143.379604 471.753584,143.761931 L468.971581,146.53099 L471.753584,149.300048 C472.089519,149.634585 472.131511,150.150993 471.87956,150.530998 L471.753584,150.684577 C471.41765,151.019114 470.899083,151.060931 470.51749,150.810029 L470.363269,150.684577 L467.582637,147.914154 L464.802005,150.684577 C464.41808,151.066905 463.795614,151.066905 463.411689,150.684577 C463.027764,150.30225 463.027764,149.682375 463.411689,149.300048 L466.193692,146.53099 L463.411689,143.761931 C463.075754,143.427395 463.033762,142.910986 463.285713,142.530982 L463.411689,142.377402 C463.747623,142.042866 464.26619,142.001049 464.647783,142.251951 L464.802005,142.377402 L467.582637,145.147826 L470.363269,142.377402 C470.747194,141.995075 471.369659,141.995075 471.753584,142.377402 Z" id="Path"></path>
                            <path d="M224.384306,20.9554403 C224.722043,20.9554403 224.995833,21.228091 224.995833,21.5644226 L224.995676,23.1356439 L226.113967,22.025641 C226.352783,21.7878186 226.739981,21.7878186 226.978797,22.025641 C227.217613,22.2634633 227.217613,22.6490495 226.978797,22.8868719 L225.858472,23.9992887 L227.441943,24.0003516 C227.723391,24.0003516 227.960431,24.1896923 228.031626,24.4474422 L228.053471,24.6093338 C228.053471,24.897618 227.852319,25.1391162 227.582161,25.2022324 L227.441943,25.218316 L225.860701,25.2181601 L226.978797,26.3317957 C227.177811,26.529981 227.21098,26.8307801 227.078304,27.06317 L226.978797,27.1930266 C226.779783,27.3912119 226.477727,27.4242428 226.244366,27.2921193 L226.113967,27.1930266 L224.995676,26.0795847 L224.995833,27.654245 C224.995833,27.9905766 224.722043,28.2632272 224.384306,28.2632272 C224.046568,28.2632272 223.772778,27.9905766 223.772778,27.654245 L223.771711,26.0773645 L222.654644,27.1930266 C222.415828,27.430849 222.02863,27.430849 221.789814,27.1930266 C221.550998,26.9552043 221.550998,26.569618 221.789814,26.3317957 L222.904456,25.2181601 L221.326668,25.218316 C221.04522,25.218316 220.80818,25.0289753 220.736985,24.7712254 L220.71514,24.6093338 C220.71514,24.3210496 220.916292,24.0795514 221.18645,24.0164352 L221.326668,24.0003516 L222.906686,23.9992887 L221.789814,22.8868719 C221.5908,22.6886866 221.557631,22.3878875 221.690307,22.1554976 L221.789814,22.025641 C221.988828,21.8274557 222.290884,21.7944248 222.524245,21.9265483 L222.654644,22.025641 L223.771711,23.1378641 L223.772778,21.5644226 C223.772778,21.228091 224.046568,20.9554403 224.384306,20.9554403 Z" id="Path"></path>
                            <path d="M16.720844,105.321768 C17.0286662,105.321768 17.2782054,105.570268 17.2782054,105.876809 L17.2784841,107.074312 L18.2849494,106.072892 C18.5009073,105.857833 18.8510442,105.857833 19.0670021,106.072892 C19.28296,106.287951 19.28296,106.63663 19.0670021,106.851689 L17.8160592,108.096698 L19.5076513,108.096976 C19.7846913,108.096976 20.0145221,108.298261 20.0577178,108.561987 L20.0650128,108.652018 C20.0650128,108.930691 19.858782,109.161398 19.5900141,109.201041 L19.5076513,109.207059 L18.3034718,109.206504 L19.0670021,109.96688 C19.2613642,110.160433 19.2808005,110.462219 19.1253108,110.677419 L19.0670021,110.745678 C18.87264,110.939231 18.5695929,110.958586 18.3534938,110.803744 L18.2849494,110.745678 L17.2784841,109.743507 L17.2782054,111.427226 C17.2782054,111.733767 17.0286662,111.982267 16.720844,111.982267 C16.4130217,111.982267 16.1634825,111.733767 16.1634825,111.427226 L16.1632038,109.742674 L15.1567385,110.745678 C14.9407806,110.960737 14.5906437,110.960737 14.3746858,110.745678 C14.1587279,110.530619 14.1587279,110.181939 14.3746858,109.96688 L15.13738,109.206504 L13.9340366,109.207059 C13.6569966,109.207059 13.4271658,109.005774 13.3839701,108.742048 L13.3766752,108.652018 C13.3766752,108.373344 13.5829059,108.142638 13.8516738,108.102994 L13.9340366,108.096976 L15.6239566,108.096698 L14.3746858,106.851689 C14.1803237,106.658136 14.1608875,106.356351 14.3163772,106.141151 L14.3746858,106.072892 C14.5690479,105.879339 14.872095,105.859983 15.0881941,106.014826 L15.1567385,106.072892 L16.1632038,107.075144 L16.1634825,105.876809 C16.1634825,105.570268 16.4130217,105.321768 16.720844,105.321768 Z" id="Path"></path>
                            <path d="M274.721637,68.6890204 C275.268877,68.6890204 275.724015,69.0817127 275.8184,69.5995648 L275.83636,69.7991036 L275.83636,73.1293534 C275.83636,73.7424355 275.337282,74.2394367 274.721637,74.2394367 C274.174398,74.2394367 273.71926,73.8467444 273.624874,73.3288923 L273.606914,73.1293534 L273.606914,69.7991036 C273.606914,69.1860216 274.105993,68.6890204 274.721637,68.6890204 Z M278.508393,67.5851641 L278.662778,67.7136128 L281.027462,70.068455 C281.462789,70.5019695 281.462789,71.2048353 281.027462,71.6383498 C280.640505,72.023696 280.039838,72.0665123 279.60539,71.7667985 L279.451006,71.6383498 L277.086321,69.2835076 C276.650995,68.8499931 276.650995,68.1471273 277.086321,67.7136128 C277.424909,67.3764349 277.927118,67.3015065 278.338426,67.4888275 L278.508393,67.5851641 Z M272.356953,67.7136128 C272.743909,68.098959 272.786905,68.6971261 272.485938,69.1297658 L272.356953,69.2835076 L269.992268,71.6383498 C269.556942,72.0718643 268.851138,72.0718643 268.415812,71.6383498 C268.028855,71.2530036 267.98586,70.6548366 268.286826,70.2221969 L268.415812,70.068455 L270.780496,67.7136128 C271.215823,67.2800983 271.921626,67.2800983 272.356953,67.7136128 Z M282.524698,64.2486874 C283.140342,64.2486874 283.639421,64.7456886 283.639421,65.3587706 C283.639421,65.9037324 283.245087,66.3569761 282.72507,66.450969 L282.524698,66.4688539 L279.180529,66.4688539 C278.564884,66.4688539 278.065806,65.9718527 278.065806,65.3587706 C278.065806,64.8138088 278.460139,64.3605652 278.980156,64.2665723 L279.180529,64.2486874 L282.524698,64.2486874 Z M270.262745,64.2486874 C270.87839,64.2486874 271.377468,64.7456886 271.377468,65.3587706 C271.377468,65.9037324 270.983135,66.3569761 270.463118,66.450969 L270.262745,66.4688539 L266.918577,66.4688539 C266.302932,66.4688539 265.803854,65.9718527 265.803854,65.3587706 C265.803854,64.8138088 266.198187,64.3605652 266.718204,64.2665723 L266.918577,64.2486874 L270.262745,64.2486874 Z M269.837884,58.9507427 L269.992268,59.0791914 L272.356953,61.4340336 C272.792279,61.8675481 272.792279,62.5704139 272.356953,63.0039284 C271.969996,63.3892746 271.369329,63.4320909 270.934881,63.1323772 L270.780496,63.0039284 L268.415812,60.6490862 C267.980486,60.2155718 267.980486,59.5127059 268.415812,59.0791914 C268.754399,58.7420135 269.256608,58.6670851 269.667916,58.8544062 L269.837884,58.9507427 Z M281.027462,59.0791914 C281.414419,59.4645376 281.457414,60.0627047 281.156448,60.4953444 L281.027462,60.6490862 L278.662778,63.0039284 C278.227451,63.4374429 277.521648,63.4374429 277.086321,63.0039284 C276.699365,62.6185822 276.656369,62.0204152 276.957336,61.5877755 L277.086321,61.4340336 L279.451006,59.0791914 C279.886332,58.645677 280.592136,58.645677 281.027462,59.0791914 Z M274.721637,56.4781046 C275.268877,56.4781046 275.724015,56.8707969 275.8184,57.388649 L275.83636,57.5881878 L275.83636,60.9184376 C275.83636,61.5315196 275.337282,62.0285209 274.721637,62.0285209 C274.174398,62.0285209 273.71926,61.6358285 273.624874,61.1179765 L273.606914,60.9184376 L273.606914,57.5881878 C273.606914,56.9751058 274.105993,56.4781046 274.721637,56.4781046 Z" id="Combined-Shape" fill-rule="nonzero"></path>
                            <path d="M423.021589,12.2109158 C423.568829,12.2109158 424.023967,12.6036081 424.118352,13.1214602 L424.136312,13.3209991 L424.136312,16.6512488 C424.136312,17.2643309 423.637234,17.7613321 423.021589,17.7613321 C422.47435,17.7613321 422.019212,17.3686398 421.924826,16.8507877 L421.906866,16.6512488 L421.906866,13.3209991 C421.906866,12.707917 422.405945,12.2109158 423.021589,12.2109158 Z M426.808346,11.1070595 L426.96273,11.2355082 L429.327414,13.5903504 C429.762741,14.0238649 429.762741,14.7267308 429.327414,15.1602452 C428.940458,15.5455914 428.33979,15.5884077 427.905343,15.288694 L427.750958,15.1602452 L425.386274,12.805403 C424.950947,12.3718886 424.950947,11.6690227 425.386274,11.2355082 C425.724861,10.8983303 426.22707,10.8234019 426.638378,11.010723 L426.808346,11.1070595 Z M420.656905,11.2355082 C421.043862,11.6208544 421.086857,12.2190215 420.78589,12.6516612 L420.656905,12.805403 L418.29222,15.1602452 C417.856894,15.5937597 417.15109,15.5937597 416.715764,15.1602452 C416.328807,14.774899 416.285812,14.176732 416.586778,13.7440923 L416.715764,13.5903504 L419.080449,11.2355082 C419.515775,10.8019938 420.221578,10.8019938 420.656905,11.2355082 Z M430.82465,7.77058279 C431.440294,7.77058279 431.939373,8.267584 431.939373,8.88066605 C431.939373,9.42562788 431.545039,9.8788715 431.025023,9.97286438 L430.82465,9.99074931 L427.480481,9.99074931 C426.864836,9.99074931 426.365758,9.4937481 426.365758,8.88066605 C426.365758,8.33570422 426.760092,7.8824606 427.280108,7.78846772 L427.480481,7.77058279 L430.82465,7.77058279 Z M418.562698,7.77058279 C419.178342,7.77058279 419.67742,8.267584 419.67742,8.88066605 C419.67742,9.42562788 419.283087,9.8788715 418.76307,9.97286438 L418.562698,9.99074931 L415.218529,9.99074931 C414.602884,9.99074931 414.103806,9.4937481 414.103806,8.88066605 C414.103806,8.33570422 414.498139,7.8824606 415.018156,7.78846772 L415.218529,7.77058279 L418.562698,7.77058279 Z M418.137836,2.47263813 L418.29222,2.60108686 L420.656905,4.95592906 C421.092231,5.38944354 421.092231,6.09230938 420.656905,6.52582386 C420.269948,6.91117006 419.669281,6.9539863 419.234833,6.65427259 L419.080449,6.52582386 L416.715764,4.17098166 C416.280438,3.73746718 416.280438,3.03460134 416.715764,2.60108686 C417.054351,2.26390894 417.55656,2.18898051 417.967868,2.37630158 L418.137836,2.47263813 Z M429.327414,2.60108686 C429.714371,2.98643307 429.757366,3.5846001 429.4564,4.01723982 L429.327414,4.17098166 L426.96273,6.52582386 C426.527404,6.95933833 425.8216,6.95933833 425.386274,6.52582386 C424.999317,6.14047765 424.956322,5.54231062 425.257288,5.1096709 L425.386274,4.95592906 L427.750958,2.60108686 C428.186284,2.16757239 428.892088,2.16757239 429.327414,2.60108686 Z M423.021589,1.92260638e-14 C423.568829,1.92260638e-14 424.023967,0.392692308 424.118352,0.910544387 L424.136312,1.11008326 L424.136312,4.44033302 C424.136312,5.05341508 423.637234,5.55041628 423.021589,5.55041628 C422.47435,5.55041628 422.019212,5.15772397 421.924826,4.63987189 L421.906866,4.44033302 L421.906866,1.11008326 C421.906866,0.497001203 422.405945,1.92260638e-14 423.021589,1.92260638e-14 Z" id="Combined-Shape-Copy-5" fill-rule="nonzero"></path>
                        </g>
                        <g id="DOC-Copy-2" transform="translate(428.444421, 100.892457) rotate(30.000000) translate(-428.444421, -100.892457) translate(388.944421, 47.392457)">
                            <g id="Rectangle">
                                <use fill="black" fill-opacity="1" filter="url(#filter-6)" xlink:href="#path-5"></use>
                                <use fill="#D5D6DA" fill-rule="evenodd" xlink:href="#path-5"></use>
                            </g>
                            <g id="Rectangle">
                                <use fill="black" fill-opacity="1" filter="url(#filter-8)" xlink:href="#path-7"></use>
                                <use fill="#D5D6DA" fill-rule="evenodd" xlink:href="#path-7"></use>
                            </g>
                            <g id="Triangle" transform="translate(11.520345, 11.717732) rotate(139.000000) translate(-11.520345, -11.717732) ">
                                <use fill="black" fill-opacity="1" filter="url(#filter-10)" xlink:href="#path-9"></use>
                                <use fill="#9EA0A5" fill-rule="evenodd" xlink:href="#path-9"></use>
                            </g>
                        </g>
                        <g id="Excel" transform="translate(366.041594, 83.582148) rotate(-17.000000) translate(-366.041594, -83.582148) translate(319.541594, 17.582148)">
                            <g id="Rectangle">
                                <use fill="black" fill-opacity="1" filter="url(#filter-12)" xlink:href="#path-11"></use>
                                <use fill="#D5D6DA" fill-rule="evenodd" xlink:href="#path-11"></use>
                            </g>
                            <mask id="mask-14" fill="white">
                                <use xlink:href="#path-13"></use>
                            </mask>
                            <g id="Rectangle">
                                <use fill="black" fill-opacity="1" filter="url(#filter-15)" xlink:href="#path-13"></use>
                                <use fill="#D5D6DA" fill-rule="evenodd" xlink:href="#path-13"></use>
                            </g>
                            <g id="Grid" mask="url(#mask-14)">
                                <g transform="translate(-2.851814, 4.881938)">
                                    <path d="M54.1947062,7.79420159 L67.2528891,7.79420159 C67.9740726,7.79420159 68.5587074,8.37579874 68.5587074,9.09323518 L68.5587074,14.2893696 C68.5587074,15.006806 67.9740726,15.5884032 67.2528891,15.5884032 L54.1947062,15.5884032 C53.4735227,15.5884032 52.8888879,15.006806 52.8888879,14.2893696 L52.8888879,9.09323518 C52.8888879,8.37579874 53.4735227,7.79420159 54.1947062,7.79420159 Z" id="Rectangle" fill-opacity="0.786276224" fill="#9EA0A5" opacity="0.176688058"></path>
                                    <path d="M12.4085209,7.79420159 L25.4667038,7.79420159 C26.1878873,7.79420159 26.7725221,8.37579874 26.7725221,9.09323518 L26.7725221,14.2893696 C26.7725221,15.006806 26.1878873,15.5884032 25.4667038,15.5884032 L12.4085209,15.5884032 C11.6873374,15.5884032 11.1027026,15.006806 11.1027026,14.2893696 L11.1027026,9.09323518 C11.1027026,8.37579874 11.6873374,7.79420159 12.4085209,7.79420159 Z" id="Rectangle-Copy-8" fill-opacity="0.786276224" fill="#9EA0A5" opacity="0.176688058"></path>
                                    <path d="M75.0877988,7.79420159 L88.1459818,7.79420159 C88.8671653,7.79420159 89.4518,8.37579874 89.4518,9.09323518 L89.4518,14.2893696 C89.4518,15.006806 88.8671653,15.5884032 88.1459818,15.5884032 L75.0877988,15.5884032 C74.3666153,15.5884032 73.7819806,15.006806 73.7819806,14.2893696 L73.7819806,9.09323518 C73.7819806,8.37579874 74.3666153,7.79420159 75.0877988,7.79420159 Z" id="Rectangle-Copy-7" fill-opacity="0.786276224" fill="#9EA0A5" opacity="0.176688058"></path>
                                    <path d="M33.3016135,7.79420159 L46.3597965,7.79420159 C47.08098,7.79420159 47.6656147,8.37579874 47.6656147,9.09323518 L47.6656147,14.2893696 C47.6656147,15.006806 47.08098,15.5884032 46.3597965,15.5884032 L33.3016135,15.5884032 C32.58043,15.5884032 31.9957953,15.006806 31.9957953,14.2893696 L31.9957953,9.09323518 C31.9957953,8.37579874 32.58043,7.79420159 33.3016135,7.79420159 Z" id="Rectangle-Copy-9" fill-opacity="0.786276224" fill="#9EA0A5" opacity="0.176688058"></path>
                                    <path d="M54.1947062,20.7845376 L67.2528891,20.7845376 C67.9740726,20.7845376 68.5587074,21.3661347 68.5587074,22.0835712 L68.5587074,27.2797056 C68.5587074,27.997142 67.9740726,28.5787392 67.2528891,28.5787392 L54.1947062,28.5787392 C53.4735227,28.5787392 52.8888879,27.997142 52.8888879,27.2797056 L52.8888879,22.0835712 C52.8888879,21.3661347 53.4735227,20.7845376 54.1947062,20.7845376 Z" id="Rectangle" fill-opacity="0.786276224" fill="#9EA0A5" opacity="0.176688058"></path>
                                    <path d="M12.4085209,20.7845376 L25.4667038,20.7845376 C26.1878873,20.7845376 26.7725221,21.3661347 26.7725221,22.0835712 L26.7725221,27.2797056 C26.7725221,27.997142 26.1878873,28.5787392 25.4667038,28.5787392 L12.4085209,28.5787392 C11.6873374,28.5787392 11.1027026,27.997142 11.1027026,27.2797056 L11.1027026,22.0835712 C11.1027026,21.3661347 11.6873374,20.7845376 12.4085209,20.7845376 Z" id="Rectangle-Copy-8" fill-opacity="0.786276224" fill="#9EA0A5" opacity="0.176688058"></path>
                                    <path d="M75.0877988,20.7845376 L88.1459818,20.7845376 C88.8671653,20.7845376 89.4518,21.3661347 89.4518,22.0835712 L89.4518,27.2797056 C89.4518,27.997142 88.8671653,28.5787392 88.1459818,28.5787392 L75.0877988,28.5787392 C74.3666153,28.5787392 73.7819806,27.997142 73.7819806,27.2797056 L73.7819806,22.0835712 C73.7819806,21.3661347 74.3666153,20.7845376 75.0877988,20.7845376 Z" id="Rectangle-Copy-7" fill-opacity="0.786276224" fill="#9EA0A5" opacity="0.176688058"></path>
                                    <path d="M33.3016135,20.7845376 L46.3597965,20.7845376 C47.08098,20.7845376 47.6656147,21.3661347 47.6656147,22.0835712 L47.6656147,27.2797056 C47.6656147,27.997142 47.08098,28.5787392 46.3597965,28.5787392 L33.3016135,28.5787392 C32.58043,28.5787392 31.9957953,27.997142 31.9957953,27.2797056 L31.9957953,22.0835712 C31.9957953,21.3661347 32.58043,20.7845376 33.3016135,20.7845376 Z" id="Rectangle-Copy-9" fill-opacity="0.786276224" fill="#9EA0A5" opacity="0.176688058"></path>
                                    <path d="M54.1947062,33.7748735 L67.2528891,33.7748735 C67.9740726,33.7748735 68.5587074,34.3564707 68.5587074,35.0739071 L68.5587074,40.2700415 C68.5587074,40.987478 67.9740726,41.5690751 67.2528891,41.5690751 L54.1947062,41.5690751 C53.4735227,41.5690751 52.8888879,40.987478 52.8888879,40.2700415 L52.8888879,35.0739071 C52.8888879,34.3564707 53.4735227,33.7748735 54.1947062,33.7748735 Z" id="Rectangle" fill-opacity="0.786276224" fill="#9EA0A5" opacity="0.176688058"></path>
                                    <path d="M12.4085209,33.7748735 L25.4667038,33.7748735 C26.1878873,33.7748735 26.7725221,34.3564707 26.7725221,35.0739071 L26.7725221,40.2700415 C26.7725221,40.987478 26.1878873,41.5690751 25.4667038,41.5690751 L12.4085209,41.5690751 C11.6873374,41.5690751 11.1027026,40.987478 11.1027026,40.2700415 L11.1027026,35.0739071 C11.1027026,34.3564707 11.6873374,33.7748735 12.4085209,33.7748735 Z" id="Rectangle-Copy-8" fill-opacity="0.786276224" fill="#9EA0A5" opacity="0.176688058"></path>
                                    <path d="M75.0877988,33.7748735 L88.1459818,33.7748735 C88.8671653,33.7748735 89.4518,34.3564707 89.4518,35.0739071 L89.4518,40.2700415 C89.4518,40.987478 88.8671653,41.5690751 88.1459818,41.5690751 L75.0877988,41.5690751 C74.3666153,41.5690751 73.7819806,40.987478 73.7819806,40.2700415 L73.7819806,35.0739071 C73.7819806,34.3564707 74.3666153,33.7748735 75.0877988,33.7748735 Z" id="Rectangle-Copy-7" fill-opacity="0.786276224" fill="#9EA0A5" opacity="0.176688058"></path>
                                    <path d="M33.3016135,33.7748735 L46.3597965,33.7748735 C47.08098,33.7748735 47.6656147,34.3564707 47.6656147,35.0739071 L47.6656147,40.2700415 C47.6656147,40.987478 47.08098,41.5690751 46.3597965,41.5690751 L33.3016135,41.5690751 C32.58043,41.5690751 31.9957953,40.987478 31.9957953,40.2700415 L31.9957953,35.0739071 C31.9957953,34.3564707 32.58043,33.7748735 33.3016135,33.7748735 Z" id="Rectangle-Copy-9" fill-opacity="0.786276224" fill="#9EA0A5" opacity="0.176688058"></path>
                                    <path d="M54.1947062,46.7652095 L67.2528891,46.7652095 C67.9740726,46.7652095 68.5587074,47.3468067 68.5587074,48.0642431 L68.5587074,53.2603775 C68.5587074,53.977814 67.9740726,54.5594111 67.2528891,54.5594111 L54.1947062,54.5594111 C53.4735227,54.5594111 52.8888879,53.977814 52.8888879,53.2603775 L52.8888879,48.0642431 C52.8888879,47.3468067 53.4735227,46.7652095 54.1947062,46.7652095 Z" id="Rectangle" fill-opacity="0.786276224" fill="#9EA0A5" opacity="0.176688058"></path>
                                    <path d="M12.4085209,46.7652095 L25.4667038,46.7652095 C26.1878873,46.7652095 26.7725221,47.3468067 26.7725221,48.0642431 L26.7725221,53.2603775 C26.7725221,53.977814 26.1878873,54.5594111 25.4667038,54.5594111 L12.4085209,54.5594111 C11.6873374,54.5594111 11.1027026,53.977814 11.1027026,53.2603775 L11.1027026,48.0642431 C11.1027026,47.3468067 11.6873374,46.7652095 12.4085209,46.7652095 Z" id="Rectangle-Copy-8" fill-opacity="0.786276224" fill="#9EA0A5" opacity="0.176688058"></path>
                                    <path d="M75.0877988,46.7652095 L88.1459818,46.7652095 C88.8671653,46.7652095 89.4518,47.3468067 89.4518,48.0642431 L89.4518,53.2603775 C89.4518,53.977814 88.8671653,54.5594111 88.1459818,54.5594111 L75.0877988,54.5594111 C74.3666153,54.5594111 73.7819806,53.977814 73.7819806,53.2603775 L73.7819806,48.0642431 C73.7819806,47.3468067 74.3666153,46.7652095 75.0877988,46.7652095 Z" id="Rectangle-Copy-7" fill-opacity="0.786276224" fill="#9EA0A5" opacity="0.176688058"></path>
                                    <path d="M33.3016135,46.7652095 L46.3597965,46.7652095 C47.08098,46.7652095 47.6656147,47.3468067 47.6656147,48.0642431 L47.6656147,53.2603775 C47.6656147,53.977814 47.08098,54.5594111 46.3597965,54.5594111 L33.3016135,54.5594111 C32.58043,54.5594111 31.9957953,53.977814 31.9957953,53.2603775 L31.9957953,48.0642431 C31.9957953,47.3468067 32.58043,46.7652095 33.3016135,46.7652095 Z" id="Rectangle-Copy-9" fill-opacity="0.786276224" fill="#9EA0A5" opacity="0.176688058"></path>
                                    <path d="M54.1947062,59.7555455 L67.2528891,59.7555455 C67.9740726,59.7555455 68.5587074,60.3371426 68.5587074,61.0545791 L68.5587074,66.2507135 C68.5587074,66.9681499 67.9740726,67.5497471 67.2528891,67.5497471 L54.1947062,67.5497471 C53.4735227,67.5497471 52.8888879,66.9681499 52.8888879,66.2507135 L52.8888879,61.0545791 C52.8888879,60.3371426 53.4735227,59.7555455 54.1947062,59.7555455 Z" id="Rectangle" fill-opacity="0.786276224" fill="#9EA0A5" opacity="0.176688058"></path>
                                    <path d="M12.4085209,59.7555455 L25.4667038,59.7555455 C26.1878873,59.7555455 26.7725221,60.3371426 26.7725221,61.0545791 L26.7725221,66.2507135 C26.7725221,66.9681499 26.1878873,67.5497471 25.4667038,67.5497471 L12.4085209,67.5497471 C11.6873374,67.5497471 11.1027026,66.9681499 11.1027026,66.2507135 L11.1027026,61.0545791 C11.1027026,60.3371426 11.6873374,59.7555455 12.4085209,59.7555455 Z" id="Rectangle-Copy-8" fill-opacity="0.786276224" fill="#9EA0A5" opacity="0.176688058"></path>
                                    <path d="M75.0877988,59.7555455 L88.1459818,59.7555455 C88.8671653,59.7555455 89.4518,60.3371426 89.4518,61.0545791 L89.4518,66.2507135 C89.4518,66.9681499 88.8671653,67.5497471 88.1459818,67.5497471 L75.0877988,67.5497471 C74.3666153,67.5497471 73.7819806,66.9681499 73.7819806,66.2507135 L73.7819806,61.0545791 C73.7819806,60.3371426 74.3666153,59.7555455 75.0877988,59.7555455 Z" id="Rectangle-Copy-7" fill-opacity="0.786276224" fill="#9EA0A5" opacity="0.176688058"></path>
                                    <path d="M33.3016135,59.7555455 L46.3597965,59.7555455 C47.08098,59.7555455 47.6656147,60.3371426 47.6656147,61.0545791 L47.6656147,66.2507135 C47.6656147,66.9681499 47.08098,67.5497471 46.3597965,67.5497471 L33.3016135,67.5497471 C32.58043,67.5497471 31.9957953,66.9681499 31.9957953,66.2507135 L31.9957953,61.0545791 C31.9957953,60.3371426 32.58043,59.7555455 33.3016135,59.7555455 Z" id="Rectangle-Copy-9" fill-opacity="0.786276224" fill="#9EA0A5" opacity="0.176688058"></path>
                                    <path d="M54.1947062,72.7458815 L67.2528891,72.7458815 C67.9740726,72.7458815 68.5587074,73.3274786 68.5587074,74.0449151 L68.5587074,79.2410495 C68.5587074,79.9584859 67.9740726,80.5400831 67.2528891,80.5400831 L54.1947062,80.5400831 C53.4735227,80.5400831 52.8888879,79.9584859 52.8888879,79.2410495 L52.8888879,74.0449151 C52.8888879,73.3274786 53.4735227,72.7458815 54.1947062,72.7458815 Z" id="Rectangle" fill-opacity="0.786276224" fill="#9EA0A5" opacity="0.176688058"></path>
                                    <path d="M12.4085209,72.7458815 L25.4667038,72.7458815 C26.1878873,72.7458815 26.7725221,73.3274786 26.7725221,74.0449151 L26.7725221,79.2410495 C26.7725221,79.9584859 26.1878873,80.5400831 25.4667038,80.5400831 L12.4085209,80.5400831 C11.6873374,80.5400831 11.1027026,79.9584859 11.1027026,79.2410495 L11.1027026,74.0449151 C11.1027026,73.3274786 11.6873374,72.7458815 12.4085209,72.7458815 Z" id="Rectangle-Copy-8" fill-opacity="0.786276224" fill="#9EA0A5" opacity="0.176688058"></path>
                                    <path d="M75.0877988,72.7458815 L88.1459818,72.7458815 C88.8671653,72.7458815 89.4518,73.3274786 89.4518,74.0449151 L89.4518,79.2410495 C89.4518,79.9584859 88.8671653,80.5400831 88.1459818,80.5400831 L75.0877988,80.5400831 C74.3666153,80.5400831 73.7819806,79.9584859 73.7819806,79.2410495 L73.7819806,74.0449151 C73.7819806,73.3274786 74.3666153,72.7458815 75.0877988,72.7458815 Z" id="Rectangle-Copy-7" fill-opacity="0.786276224" fill="#9EA0A5" opacity="0.176688058"></path>
                                    <path d="M33.3016135,72.7458815 L46.3597965,72.7458815 C47.08098,72.7458815 47.6656147,73.3274786 47.6656147,74.0449151 L47.6656147,79.2410495 C47.6656147,79.9584859 47.08098,80.5400831 46.3597965,80.5400831 L33.3016135,80.5400831 C32.58043,80.5400831 31.9957953,79.9584859 31.9957953,79.2410495 L31.9957953,74.0449151 C31.9957953,73.3274786 32.58043,72.7458815 33.3016135,72.7458815 Z" id="Rectangle-Copy-9" fill-opacity="0.786276224" fill="#9EA0A5" opacity="0.176688058"></path>
                                    <path d="M54.1947062,85.7362175 L67.2528891,85.7362175 C67.9740726,85.7362175 68.5587074,86.3178146 68.5587074,87.035251 L68.5587074,92.2313854 C68.5587074,92.9488219 67.9740726,93.530419 67.2528891,93.530419 L54.1947062,93.530419 C53.4735227,93.530419 52.8888879,92.9488219 52.8888879,92.2313854 L52.8888879,87.035251 C52.8888879,86.3178146 53.4735227,85.7362175 54.1947062,85.7362175 Z" id="Rectangle" fill-opacity="0.786276224" fill="#9EA0A5" opacity="0.176688058"></path>
                                    <path d="M12.4085209,85.7362175 L25.4667038,85.7362175 C26.1878873,85.7362175 26.7725221,86.3178146 26.7725221,87.035251 L26.7725221,92.2313854 C26.7725221,92.9488219 26.1878873,93.530419 25.4667038,93.530419 L12.4085209,93.530419 C11.6873374,93.530419 11.1027026,92.9488219 11.1027026,92.2313854 L11.1027026,87.035251 C11.1027026,86.3178146 11.6873374,85.7362175 12.4085209,85.7362175 Z" id="Rectangle-Copy-8" fill-opacity="0.786276224" fill="#9EA0A5" opacity="0.176688058"></path>
                                    <path d="M75.0877988,85.7362175 L88.1459818,85.7362175 C88.8671653,85.7362175 89.4518,86.3178146 89.4518,87.035251 L89.4518,92.2313854 C89.4518,92.9488219 88.8671653,93.530419 88.1459818,93.530419 L75.0877988,93.530419 C74.3666153,93.530419 73.7819806,92.9488219 73.7819806,92.2313854 L73.7819806,87.035251 C73.7819806,86.3178146 74.3666153,85.7362175 75.0877988,85.7362175 Z" id="Rectangle-Copy-7" fill-opacity="0.786276224" fill="#9EA0A5" opacity="0.176688058"></path>
                                    <path d="M33.3016135,85.7362175 L46.3597965,85.7362175 C47.08098,85.7362175 47.6656147,86.3178146 47.6656147,87.035251 L47.6656147,92.2313854 C47.6656147,92.9488219 47.08098,93.530419 46.3597965,93.530419 L33.3016135,93.530419 C32.58043,93.530419 31.9957953,92.9488219 31.9957953,92.2313854 L31.9957953,87.035251 C31.9957953,86.3178146 32.58043,85.7362175 33.3016135,85.7362175 Z" id="Rectangle-Copy-9" fill-opacity="0.786276224" fill="#9EA0A5" opacity="0.176688058"></path>
                                    <path d="M54.1947062,98.7265534 L67.2528891,98.7265534 C67.9740726,98.7265534 68.5587074,99.3081506 68.5587074,100.025587 L68.5587074,105.221721 C68.5587074,105.939158 67.9740726,106.520755 67.2528891,106.520755 L54.1947062,106.520755 C53.4735227,106.520755 52.8888879,105.939158 52.8888879,105.221721 L52.8888879,100.025587 C52.8888879,99.3081506 53.4735227,98.7265534 54.1947062,98.7265534 Z" id="Rectangle" fill-opacity="0.786276224" fill="#9EA0A5" opacity="0.176688058"></path>
                                    <path d="M12.4085209,98.7265534 L25.4667038,98.7265534 C26.1878873,98.7265534 26.7725221,99.3081506 26.7725221,100.025587 L26.7725221,105.221721 C26.7725221,105.939158 26.1878873,106.520755 25.4667038,106.520755 L12.4085209,106.520755 C11.6873374,106.520755 11.1027026,105.939158 11.1027026,105.221721 L11.1027026,100.025587 C11.1027026,99.3081506 11.6873374,98.7265534 12.4085209,98.7265534 Z" id="Rectangle-Copy-8" fill-opacity="0.786276224" fill="#9EA0A5" opacity="0.176688058"></path>
                                    <path d="M75.0877988,98.7265534 L88.1459818,98.7265534 C88.8671653,98.7265534 89.4518,99.3081506 89.4518,100.025587 L89.4518,105.221721 C89.4518,105.939158 88.8671653,106.520755 88.1459818,106.520755 L75.0877988,106.520755 C74.3666153,106.520755 73.7819806,105.939158 73.7819806,105.221721 L73.7819806,100.025587 C73.7819806,99.3081506 74.3666153,98.7265534 75.0877988,98.7265534 Z" id="Rectangle-Copy-7" fill-opacity="0.786276224" fill="#9EA0A5" opacity="0.176688058"></path>
                                    <path d="M33.3016135,98.7265534 L46.3597965,98.7265534 C47.08098,98.7265534 47.6656147,99.3081506 47.6656147,100.025587 L47.6656147,105.221721 C47.6656147,105.939158 47.08098,106.520755 46.3597965,106.520755 L33.3016135,106.520755 C32.58043,106.520755 31.9957953,105.939158 31.9957953,105.221721 L31.9957953,100.025587 C31.9957953,99.3081506 32.58043,98.7265534 33.3016135,98.7265534 Z" id="Rectangle-Copy-9" fill-opacity="0.786276224" fill="#9EA0A5" opacity="0.176688058"></path>
                                    <path d="M54.1947062,111.716889 L67.2528891,111.716889 C67.9740726,111.716889 68.5587074,112.298487 68.5587074,113.015923 L68.5587074,118.212057 C68.5587074,118.929494 67.9740726,119.511091 67.2528891,119.511091 L54.1947062,119.511091 C53.4735227,119.511091 52.8888879,118.929494 52.8888879,118.212057 L52.8888879,113.015923 C52.8888879,112.298487 53.4735227,111.716889 54.1947062,111.716889 Z" id="Rectangle" fill-opacity="0.786276224" fill="#9EA0A5" opacity="0.176688058"></path>
                                    <path d="M12.4085209,111.716889 L25.4667038,111.716889 C26.1878873,111.716889 26.7725221,112.298487 26.7725221,113.015923 L26.7725221,118.212057 C26.7725221,118.929494 26.1878873,119.511091 25.4667038,119.511091 L12.4085209,119.511091 C11.6873374,119.511091 11.1027026,118.929494 11.1027026,118.212057 L11.1027026,113.015923 C11.1027026,112.298487 11.6873374,111.716889 12.4085209,111.716889 Z" id="Rectangle-Copy-8" fill-opacity="0.786276224" fill="#9EA0A5" opacity="0.176688058"></path>
                                    <path d="M75.0877988,111.716889 L88.1459818,111.716889 C88.8671653,111.716889 89.4518,112.298487 89.4518,113.015923 L89.4518,118.212057 C89.4518,118.929494 88.8671653,119.511091 88.1459818,119.511091 L75.0877988,119.511091 C74.3666153,119.511091 73.7819806,118.929494 73.7819806,118.212057 L73.7819806,113.015923 C73.7819806,112.298487 74.3666153,111.716889 75.0877988,111.716889 Z" id="Rectangle-Copy-7" fill-opacity="0.786276224" fill="#9EA0A5" opacity="0.176688058"></path>
                                    <path d="M33.3016135,111.716889 L46.3597965,111.716889 C47.08098,111.716889 47.6656147,112.298487 47.6656147,113.015923 L47.6656147,118.212057 C47.6656147,118.929494 47.08098,119.511091 46.3597965,119.511091 L33.3016135,119.511091 C32.58043,119.511091 31.9957953,118.929494 31.9957953,118.212057 L31.9957953,113.015923 C31.9957953,112.298487 32.58043,111.716889 33.3016135,111.716889 Z" id="Rectangle-Copy-9" fill-opacity="0.786276224" fill="#9EA0A5" opacity="0.176688058"></path>
                                    <polygon id="Rectangle" fill="url(#linearGradient-16)" points="1.6058423 -3.07617022e-13 96.3370238 -3.07617022e-13 96.3370238 126.549491 1.6058423 126.549491"></polygon>
                                </g>
                            </g>
                            <polygon id="X" fill="#9EA0A5" fill-rule="nonzero" mask="url(#mask-14)" points="18.913058 121.256436 27.7916711 109.499576 36.6702842 121.256436 45.9144873 121.256436 33.0143847 105.58771 45.0005124 90.1741049 36.2785807 90.1741049 28.2094882 101.356941 19.9837143 90.1741049 11.0528741 90.1741049 22.9084339 105.226287 10.2433535 121.256436"></polygon>
                        </g>
                        <g id="Trend" transform="translate(183.158411, 139.870490)">
                            <g id="base">
                                <g id="Path">
                                    <use fill="black" fill-opacity="1" filter="url(#filter-18)" xlink:href="#path-17"></use>
                                    <use fill="#D5D6DA" fill-rule="evenodd" xlink:href="#path-17"></use>
                                </g>
                                <g id="Path">
                                    <use fill="black" fill-opacity="1" filter="url(#filter-20)" xlink:href="#path-19"></use>
                                    <use fill="#D5D6DA" fill-rule="evenodd" xlink:href="#path-19"></use>
                                </g>
                                <path d="M11.1472293,-1.57752319e-14 L149.372873,-1.57752319e-14 C155.529318,-1.57752319e-14 160.520102,4.97001203 160.520102,11.1008326 L160.520102,26.3644773 L0,26.3644773 L0,11.1008326 C0,4.97001203 4.99078456,-1.57752319e-14 11.1472293,-1.57752319e-14 Z" id="Path-Copy" fill="#9EA0A5"></path>
                            </g>
                            <g id="lines" transform="translate(17.835567, 46.623497)" fill="#9EA0A5" fill-opacity="0.387155813" fill-rule="nonzero">
                                <path d="M123.176884,59.3894542 C123.484706,59.3894542 123.734245,59.7622051 123.734245,60.2220167 C123.734245,60.6161408 123.55091,60.9463021 123.304682,61.0325905 L123.176884,61.0545791 L-2.22044605e-16,61.0545791 C-0.307822238,61.0545791 -0.557361466,60.6818282 -0.557361466,60.2220167 C-0.557361466,59.8278925 -0.374026523,59.4977312 -0.12779787,59.4114428 L-2.22044605e-16,59.3894542 L123.176884,59.3894542 Z" id="Line"></path>
                                <path d="M123.176884,44.6808511 C123.484706,44.6808511 123.734245,45.053602 123.734245,45.5134135 C123.734245,45.9075377 123.55091,46.2376989 123.304682,46.3239874 L123.176884,46.3459759 L-2.22044605e-16,46.3459759 C-0.307822238,46.3459759 -0.557361466,45.973225 -0.557361466,45.5134135 C-0.557361466,45.1192893 -0.374026523,44.7891281 -0.12779787,44.7028396 L-2.22044605e-16,44.6808511 L123.176884,44.6808511 Z" id="Line-Copy"></path>
                                <path d="M123.176884,29.9722479 C123.484706,29.9722479 123.734245,30.3449988 123.734245,30.8048104 C123.734245,31.1989345 123.55091,31.5290958 123.304682,31.6153842 L123.176884,31.6373728 L-2.22044605e-16,31.6373728 C-0.307822238,31.6373728 -0.557361466,31.2646219 -0.557361466,30.8048104 C-0.557361466,30.4106862 -0.374026523,30.0805249 -0.12779787,29.9942365 L-2.22044605e-16,29.9722479 L123.176884,29.9722479 Z" id="Line-Copy-2"></path>
                                <path d="M123.176884,15.2636448 C123.484706,15.2636448 123.734245,15.6363957 123.734245,16.0962072 C123.734245,16.4903314 123.55091,16.8204927 123.304682,16.9067811 L123.176884,16.9287697 L-2.22044605e-16,16.9287697 C-0.307822238,16.9287697 -0.557361466,16.5560188 -0.557361466,16.0962072 C-0.557361466,15.702083 -0.374026523,15.3719218 -0.12779787,15.2856333 L-2.22044605e-16,15.2636448 L123.176884,15.2636448 Z" id="Line-Copy-3"></path>
                                <path d="M123.176884,0.555041628 C123.484706,0.555041628 123.734245,0.92779253 123.734245,1.38760407 C123.734245,1.78172825 123.55091,2.11188951 123.304682,2.19817794 L123.176884,2.22016651 L-2.22044605e-16,2.22016651 C-0.307822238,2.22016651 -0.557361466,1.84741561 -0.557361466,1.38760407 C-0.557361466,0.993479893 -0.374026523,0.663318634 -0.12779787,0.577030196 L-2.22044605e-16,0.555041628 L123.176884,0.555041628 Z" id="Line-Copy-4"></path>
                            </g>
                            <g id="Group" transform="translate(51.277255, 115.448659)">
                                <path d="M8.91778345,0 L22.2944586,0 C23.5257476,0 24.5239045,0.994002406 24.5239045,2.22016651 C24.5239045,3.44633062 23.5257476,4.44033302 22.2944586,4.44033302 L8.91778345,4.44033302 C7.6864945,4.44033302 6.68833759,3.44633062 6.68833759,2.22016651 C6.68833759,0.994002406 7.6864945,0 8.91778345,0 Z" id="Rectangle-Copy-2" fill-opacity="0.35" fill="#67696F"></path>
                                <path d="M42.3594714,0 L55.7361466,0 C56.9674355,0 57.9655924,0.994002406 57.9655924,2.22016651 C57.9655924,3.44633062 56.9674355,4.44033302 55.7361466,4.44033302 L42.3594714,4.44033302 C41.1281824,4.44033302 40.1300255,3.44633062 40.1300255,2.22016651 C40.1300255,0.994002406 41.1281824,0 42.3594714,0 Z" id="Rectangle-Copy-5" fill-opacity="0.35" fill="#67696F"></path>
                                <path d="M2.22944586,0 C3.46073481,0 4.45889172,0.994002406 4.45889172,2.22016651 C4.45889172,3.44633062 3.46073481,4.44033302 2.22944586,4.44033302 C0.998156912,4.44033302 0,3.44633062 0,2.22016651 C0,0.994002406 0.998156912,0 2.22944586,0 Z" id="Rectangle-Copy-4" fill="#DFE0E1" opacity="0.647623698"></path>
                                <path d="M35.6711338,0 C36.9024227,0 37.9005797,0.994002406 37.9005797,2.22016651 C37.9005797,3.44633062 36.9024227,4.44033302 35.6711338,4.44033302 C34.4398448,4.44033302 33.4416879,3.44633062 33.4416879,2.22016651 C33.4416879,0.994002406 34.4398448,0 35.6711338,0 Z" id="Rectangle-Copy-6" fill="#ACAEB2" opacity="0.647623698"></path>
                            </g>
                        </g>
                    </g>
                </g>
            </g>
        </g>
    </g>
</svg>
