<?xml version="1.0" encoding="UTF-8"?>
<svg width="503px" height="316px" viewBox="0 0 503 316" version="1.1" xmlns="http://www.w3.org/2000/svg" xmlns:xlink="http://www.w3.org/1999/xlink">
    <defs>
        <path d="M11.4652233,5.68434189e-14 L131.804881,5.68434189e-14 C137.1647,5.68434189e-14 141.509692,4.33379729 141.509692,9.67980716 C141.509692,15.756575 141.509692,20.1931533 141.509692,22.989542 C141.509692,41.2736222 141.509692,68.4577473 141.509692,104.541917 C141.509692,109.887927 137.1647,114.221725 131.804881,114.221725 L11.4652233,114.221725 C6.10540414,114.221725 1.76041221,109.887927 1.76041221,104.541917 C1.76041221,68.1350871 1.76041221,40.950962 1.76041221,22.989542 C1.76041221,19.870493 1.76041221,15.4339148 1.76041221,9.67980716 C1.76041221,4.33379729 6.10540414,5.68434189e-14 11.4652233,5.68434189e-14 Z" id="path-1"></path>
        <filter x="-11.1%" y="-10.1%" width="122.2%" height="127.1%" filterUnits="objectBoundingBox" id="filter-2">
            <feOffset dx="0" dy="4" in="SourceAlpha" result="shadowOffsetOuter1"></feOffset>
            <feGaussianBlur stdDeviation="4.5" in="shadowOffsetOuter1" result="shadowBlurOuter1"></feGaussianBlur>
            <feColorMatrix values="0 0 0 0 0   0 0 0 0 0   0 0 0 0 0  0 0 0 0.07 0" type="matrix" in="shadowBlurOuter1"></feColorMatrix>
        </filter>
        <path d="M9.70481111,0 L130.044469,0 C135.404288,0 139.74928,4.33379729 139.74928,9.67980716 C139.74928,15.756575 139.74928,20.1931533 139.74928,22.989542 C139.74928,41.2736222 139.74928,68.4577473 139.74928,104.541917 C139.74928,109.887927 135.404288,114.221725 130.044469,114.221725 L9.70481111,114.221725 C4.34499193,114.221725 0,109.887927 0,104.541917 C0,68.1350871 0,40.950962 0,22.989542 C0,19.870493 0,15.4339148 0,9.67980716 C0,4.33379729 4.34499193,0 9.70481111,0 Z" id="path-3"></path>
        <filter x="-11.1%" y="-10.1%" width="122.2%" height="127.1%" filterUnits="objectBoundingBox" id="filter-4">
            <feOffset dx="0" dy="4" in="SourceAlpha" result="shadowOffsetOuter1"></feOffset>
            <feGaussianBlur stdDeviation="4.5" in="shadowOffsetOuter1" result="shadowBlurOuter1"></feGaussianBlur>
            <feColorMatrix values="0 0 0 0 0   0 0 0 0 0   0 0 0 0 0  0 0 0 0.07 0" type="matrix" in="shadowBlurOuter1"></feColorMatrix>
        </filter>
        <path d="M15.8739835,1.49681961 L74.3391214,1.49681961 C76.8233008,1.49681961 78.8371262,3.50226306 78.8371262,5.97610293 L78.8371262,102.280694 C78.8371262,104.754534 76.8233008,106.759978 74.3391214,106.759978 L6.86904922,106.759978 C4.38486976,106.759978 2.37104441,104.754534 2.37104441,102.280694 L2.37104441,13.4307241 L15.8739835,1.49681961 Z" id="path-5"></path>
        <filter x="-15.7%" y="-8.6%" width="131.4%" height="122.8%" filterUnits="objectBoundingBox" id="filter-6">
            <feOffset dx="0" dy="3" in="SourceAlpha" result="shadowOffsetOuter1"></feOffset>
            <feGaussianBlur stdDeviation="3.5" in="shadowOffsetOuter1" result="shadowBlurOuter1"></feGaussianBlur>
            <feColorMatrix values="0 0 0 0 0   0 0 0 0 0   0 0 0 0 0  0 0 0 0.05 0" type="matrix" in="shadowBlurOuter1"></feColorMatrix>
        </filter>
        <path d="M14.083702,2.50740417 L72.5488399,2.50740417 C75.0330194,2.50740417 77.0468447,4.51284762 77.0468447,6.98668748 L77.0468447,103.291279 C77.0468447,105.765119 75.0330194,107.770562 72.5488399,107.770562 L5.07876776,107.770562 C2.5945883,107.770562 0.58076295,105.765119 0.58076295,103.291279 L0.58076295,14.4413087 L14.083702,2.50740417 Z" id="path-7"></path>
        <filter x="-20.3%" y="-10.9%" width="140.5%" height="129.4%" filterUnits="objectBoundingBox" id="filter-8">
            <feOffset dx="0" dy="4" in="SourceAlpha" result="shadowOffsetOuter1"></feOffset>
            <feGaussianBlur stdDeviation="4.5" in="shadowOffsetOuter1" result="shadowBlurOuter1"></feGaussianBlur>
            <feColorMatrix values="0 0 0 0 0   0 0 0 0 0   0 0 0 0 0  0 0 0 0.07 0" type="matrix" in="shadowBlurOuter1"></feColorMatrix>
        </filter>
        <path d="M12.0126053,7.90047778 L22.4013794,16.9313013 L22.4013794,16.9313013 L0.841422776,17.0044628 L9.24122562,8.04221445 C9.97666088,7.2575349 11.2009549,7.19492083 12.0126053,7.90047778 Z" id="path-9"></path>
        <filter x="-9.3%" y="-21.5%" width="118.6%" height="131.1%" filterUnits="objectBoundingBox" id="filter-10">
            <feOffset dx="0" dy="-1" in="SourceAlpha" result="shadowOffsetOuter1"></feOffset>
            <feGaussianBlur stdDeviation="0.5" in="shadowOffsetOuter1" result="shadowBlurOuter1"></feGaussianBlur>
            <feColorMatrix values="0 0 0 0 0   0 0 0 0 0   0 0 0 0 0  0 0 0 0.17 0" type="matrix" in="shadowBlurOuter1"></feColorMatrix>
        </filter>
        <path d="M4.28367025,0.17297133 L91.0394826,0.17297133 C92.4914193,0.17297133 93.6684466,1.35986643 93.6684466,2.82397574 L93.6684466,127.421183 C93.6684466,128.885292 92.4914193,130.072187 91.0394826,130.072187 L4.28367025,130.072187 C2.83173352,130.072187 1.65470625,128.885292 1.65470625,127.421183 L1.65470625,2.82397574 C1.65470625,1.35986643 2.83173352,0.17297133 4.28367025,0.17297133 Z" id="path-11"></path>
        <filter x="-8.2%" y="-3.5%" width="116.3%" height="111.5%" filterUnits="objectBoundingBox" id="filter-12">
            <feOffset dx="0" dy="3" in="SourceAlpha" result="shadowOffsetOuter1"></feOffset>
            <feGaussianBlur stdDeviation="2" in="shadowOffsetOuter1" result="shadowBlurOuter1"></feGaussianBlur>
            <feColorMatrix values="0 0 0 0 0   0 0 0 0 0   0 0 0 0 0  0 0 0 0.07 0" type="matrix" in="shadowBlurOuter1"></feColorMatrix>
        </filter>
        <path d="M2.63175886,3.65373346 L89.3875712,3.65373346 C90.8395079,3.65373346 92.0165352,4.84062856 92.0165352,6.30473787 L92.0165352,130.901945 C92.0165352,132.366054 90.8395079,133.55295 89.3875712,133.55295 L2.63175886,133.55295 C1.17982213,133.55295 0.00279484908,132.366054 0.00279484908,130.901945 L0.00279484908,6.30473787 C0.00279484908,4.84062856 1.17982213,3.65373346 2.63175886,3.65373346 Z" id="path-13"></path>
        <filter x="-16.8%" y="-8.9%" width="133.7%" height="123.9%" filterUnits="objectBoundingBox" id="filter-14">
            <feOffset dx="0" dy="4" in="SourceAlpha" result="shadowOffsetOuter1"></feOffset>
            <feGaussianBlur stdDeviation="4.5" in="shadowOffsetOuter1" result="shadowBlurOuter1"></feGaussianBlur>
            <feColorMatrix values="0 0 0 0 0   0 0 0 0 0   0 0 0 0 0  0 0 0 0.07 0" type="matrix" in="shadowBlurOuter1"></feColorMatrix>
        </filter>
        <linearGradient x1="50%" y1="1.00031672%" x2="50%" y2="99.3243243%" id="linearGradient-15">
            <stop stop-color="#FFFFFF" stop-opacity="0" offset="0%"></stop>
            <stop stop-color="#FFFFFF" offset="100%"></stop>
        </linearGradient>
        <path d="M13.5875442,-4.26325641e-14 L152.730274,-4.26325641e-14 C158.927564,-4.26325641e-14 163.951461,5.01360862 163.951461,11.1982083 C163.951461,18.2281946 163.951461,23.3607067 163.951461,26.5957447 C163.951461,47.7479159 163.951461,79.1962175 163.951461,120.940649 C163.951461,127.125249 158.927564,132.138858 152.730274,132.138858 L13.5875442,132.138858 C7.39025328,132.138858 2.36635635,127.125249 2.36635635,120.940649 C2.36635635,78.8229439 2.36635635,47.3746423 2.36635635,26.5957447 C2.36635635,22.9874331 2.36635635,17.854921 2.36635635,11.1982083 C2.36635635,5.01360862 7.39025328,-4.26325641e-14 13.5875442,-4.26325641e-14 Z" id="path-16"></path>
        <filter x="-9.6%" y="-8.7%" width="119.2%" height="123.5%" filterUnits="objectBoundingBox" id="filter-17">
            <feOffset dx="0" dy="4" in="SourceAlpha" result="shadowOffsetOuter1"></feOffset>
            <feGaussianBlur stdDeviation="4.5" in="shadowOffsetOuter1" result="shadowBlurOuter1"></feGaussianBlur>
            <feColorMatrix values="0 0 0 0 0   0 0 0 0 0   0 0 0 0 0  0 0 0 0.07 0" type="matrix" in="shadowBlurOuter1"></feColorMatrix>
        </filter>
        <path d="M11.2211878,0 L150.363917,0 C156.561208,0 161.585105,5.01360862 161.585105,11.1982083 C161.585105,18.2281946 161.585105,23.3607067 161.585105,26.5957447 C161.585105,47.7479159 161.585105,79.1962175 161.585105,120.940649 C161.585105,127.125249 156.561208,132.138858 150.363917,132.138858 L11.2211878,132.138858 C5.02389692,132.138858 0,127.125249 0,120.940649 C0,78.8229439 0,47.3746423 0,26.5957447 C0,22.9874331 0,17.854921 0,11.1982083 C0,5.01360862 5.02389692,0 11.2211878,0 Z" id="path-18"></path>
        <filter x="-9.6%" y="-8.7%" width="119.2%" height="123.5%" filterUnits="objectBoundingBox" id="filter-19">
            <feOffset dx="0" dy="4" in="SourceAlpha" result="shadowOffsetOuter1"></feOffset>
            <feGaussianBlur stdDeviation="4.5" in="shadowOffsetOuter1" result="shadowBlurOuter1"></feGaussianBlur>
            <feColorMatrix values="0 0 0 0 0   0 0 0 0 0   0 0 0 0 0  0 0 0 0.07 0" type="matrix" in="shadowBlurOuter1"></feColorMatrix>
        </filter>
    </defs>
    <g id="In-App-generic-empty-states" stroke="none" stroke-width="1" fill="none" fill-rule="evenodd">
        <g id="Generic-Empty-State_No-data" transform="translate(-90.000000, -1297.000000)">
            <g id="Bright" transform="translate(88.000000, 70.000000)">
                <g id="No-data_XL" transform="translate(0.000000, 1192.000000)">
                    <g id="No-data-_XL-drawing" transform="translate(2.000000, 35.000000)">
                        <path d="M115.997355,4.52139707 C216.604857,7.75328034 322.341851,-0.866538527 418.496318,24.4758569 C493.162725,44.1548764 460.375113,228.874633 442.114957,277.787468 C423.854801,326.700303 352.254243,287.961128 260.111488,287.961128 C167.968734,287.961128 115.997355,331.443075 73.5439379,277.787468 C12.1154347,184.877325 15.3898526,1.28951381 115.997355,4.52139707 Z" id="Rectangle" fill="#CCCED3" opacity="0.08"></path>
                        <path d="M162.797759,1.58430689 C242.235504,-9.1848062 388.407024,36.3170377 477.266705,96.4561721 C546.268525,143.155751 436.203561,259.60308 396.674873,292.970165 C357.146185,326.337251 293.603111,319.27006 192.47935,296.342688 C91.3555893,273.415316 24.9481865,274.119739 3.62195512,212.165619 C-20.7965149,109.78855 83.3600143,12.35342 162.797759,1.58430689 Z" id="Rectangle-Copy" fill="#F1F2F5" opacity="0.22"></path>
                        <g id="Decorations" transform="translate(2.449258, 2.239642)" fill="#CCCED3">
                            <path d="M223.301638,117.441209 C223.645932,117.441209 223.932281,117.688795 223.991663,118.015292 L224.002962,118.141097 L224.002962,120.240761 C224.002962,120.627299 223.688969,120.940649 223.301638,120.940649 C222.957344,120.940649 222.670996,120.693064 222.611613,120.366567 L222.600314,120.240761 L222.600314,118.141097 C222.600314,117.75456 222.914307,117.441209 223.301638,117.441209 Z M225.684063,116.745247 L225.781194,116.826232 L227.268927,118.310919 C227.542811,118.584242 227.542811,119.027387 227.268927,119.30071 C227.025475,119.543664 226.647567,119.570659 226.374235,119.381695 L226.277105,119.30071 L224.789372,117.816023 C224.515487,117.5427 224.515487,117.099555 224.789372,116.826232 C225.002393,116.613647 225.318356,116.566406 225.577129,116.684509 L225.684063,116.745247 Z M221.813905,116.826232 C222.057357,117.069186 222.084408,117.44632 221.895056,117.719092 L221.813905,117.816023 L220.326171,119.30071 C220.052287,119.574033 219.608233,119.574033 219.334349,119.30071 C219.090897,119.057756 219.063846,118.680622 219.253198,118.40785 L219.334349,118.310919 L220.822083,116.826232 C221.095967,116.552909 221.540021,116.552909 221.813905,116.826232 Z M228.210908,114.641657 C228.598239,114.641657 228.912232,114.955008 228.912232,115.341545 C228.912232,115.685134 228.664138,115.970896 228.336972,116.030157 L228.210908,116.041433 L226.106935,116.041433 C225.719604,116.041433 225.405611,115.728083 225.405611,115.341545 C225.405611,114.997956 225.653705,114.712194 225.980871,114.652933 L226.106935,114.641657 L228.210908,114.641657 Z M220.496341,114.641657 C220.883672,114.641657 221.197665,114.955008 221.197665,115.341545 C221.197665,115.685134 220.949572,115.970896 220.622405,116.030157 L220.496341,116.041433 L218.392368,116.041433 C218.005038,116.041433 217.691044,115.728083 217.691044,115.341545 C217.691044,114.997956 217.939138,114.712194 218.266305,114.652933 L218.392368,114.641657 L220.496341,114.641657 Z M220.229041,111.301396 L220.326171,111.382381 L221.813905,112.867068 C222.087789,113.140391 222.087789,113.583535 221.813905,113.856859 C221.570452,114.099813 221.192544,114.126808 220.919213,113.937843 L220.822083,113.856859 L219.334349,112.372172 C219.060465,112.098849 219.060465,111.655704 219.334349,111.382381 C219.54737,111.169796 219.863333,111.122555 220.122106,111.240658 L220.229041,111.301396 Z M227.268927,111.382381 C227.51238,111.625335 227.53943,112.002469 227.350078,112.27524 L227.268927,112.372172 L225.781194,113.856859 C225.50731,114.130182 225.063256,114.130182 224.789372,113.856859 C224.545919,113.613905 224.518869,113.236771 224.708221,112.963999 L224.789372,112.867068 L226.277105,111.382381 C226.550989,111.109058 226.995043,111.109058 227.268927,111.382381 Z M223.301638,109.742441 C223.645932,109.742441 223.932281,109.990027 223.991663,110.316523 L224.002962,110.442329 L224.002962,112.541993 C224.002962,112.928531 223.688969,113.241881 223.301638,113.241881 C222.957344,113.241881 222.670996,112.994296 222.611613,112.667799 L222.600314,112.541993 L222.600314,110.442329 C222.600314,110.055792 222.914307,109.742441 223.301638,109.742441 Z" id="Combined-Shape-Copy-5" fill-rule="nonzero"></path>
                            <ellipse id="Oval" cx="448.242796" cy="182.530795" rx="5.61059392" ry="5.59910414"></ellipse>
                            <ellipse id="Oval-Copy-2" cx="270.430627" cy="165.596147" rx="3.36635635" ry="3.35946249"></ellipse>
                            <path d="M300.622421,38.0705273 L303.969781,38.0685123 C304.245923,38.0683461 304.469915,38.2920689 304.470082,38.5682112 C304.470082,38.5684121 304.470082,38.5686129 304.470082,38.5688137 L304.44367,82.3704237 C304.443504,82.6463308 304.219879,82.8699561 303.943971,82.8701222 L300.596612,82.8721372 C300.32047,82.8723034 300.096477,82.6485806 300.096311,82.3724382 C300.096311,82.3722374 300.096311,82.3720366 300.096311,82.3718358 L300.122722,38.5702258 C300.122889,38.2943187 300.346514,38.0706934 300.622421,38.0705273 Z" id="Rectangle-Copy-6" opacity="0.339076451" transform="translate(302.283196, 60.470325) scale(-1, 1) rotate(18.000000) translate(-302.283196, -60.470325) "></path>
                            <rect id="Rectangle-Copy-5" opacity="0.339076451" x="356.833774" y="217.245241" width="4.48847514" height="35.8342665" rx="0.5"></rect>
                            <ellipse id="Oval-Copy-3" cx="2.24423757" cy="79.3699431" rx="2.24423757" ry="2.23964166"></ellipse>
                            <ellipse id="Oval-Copy-4" cx="394.985812" cy="208.286674" rx="2.24423757" ry="2.23964166"></ellipse>
                            <ellipse id="Oval-Copy" cx="112.211878" cy="239.641657" rx="6.73271271" ry="6.71892497"></ellipse>
                            <g id="corner-llines" opacity="0.34" transform="translate(13.465425, 8.958567)">
                                <path d="M44.0683109,3.12232526 L47.5563888,3.12377807 C47.8323682,3.1243101 48.0560652,3.3480069 48.0565974,3.62398628 L48.0673961,29.5020703 C48.067928,29.7782125 47.8441638,30.0021635 47.5680215,30.0022787 C47.5678825,30.0022788 47.5677436,30.0022788 47.5676048,30.001862 L44.0795269,30.0004092 C43.8035475,29.9998771 43.5798505,29.7761803 43.5793183,29.500201 L43.5685196,3.62211696 C43.5679877,3.34597478 43.7917518,3.12202376 44.0678942,3.12190853 C44.0680332,3.12190847 44.0681721,3.12190847 44.0683109,3.12232526 Z" id="Rectangle-Copy" transform="translate(45.817958, 16.562094) rotate(-12.000000) translate(-45.817958, -16.562094) "></path>
                                <path d="M22.0489338,-4.50324424 L25.5329718,-4.49967546 C25.8087141,-4.49939301 26.0321769,-4.2759302 26.0324594,-4.00018792 L26.0773661,39.8369988 C26.077649,40.1131411 25.8540208,40.3372279 25.5778786,40.3375108 C25.5775371,40.3375111 25.5771957,40.3375111 25.5768542,40.3375108 L22.0928162,40.333942 C21.8170739,40.3336595 21.5936111,40.1101967 21.5933286,39.8344544 L21.5484219,-4.00273231 C21.548139,-4.27887454 21.7717672,-4.50296136 22.0479094,-4.50324424 C22.0482509,-4.50324459 22.0485923,-4.50324459 22.0489338,-4.50324424 Z" id="Rectangle-Copy-2" transform="translate(23.812894, 17.917133) rotate(-44.000000) translate(-23.812894, -17.917133) "></path>
                                <path d="M16.2052719,21.1040634 L19.6851706,21.1058484 C19.9611128,21.10599 20.1847727,21.3296501 20.184914,21.6055924 L20.2027856,56.5084672 C20.202927,56.7846095 19.979184,57.0085817 19.7030417,57.0087231 C19.7028709,57.0087232 19.7027,57.0087232 19.7025292,57.0087231 L16.2226306,57.0069381 C15.9466883,57.0067966 15.7230284,56.7831364 15.7228871,56.5071942 L15.7050155,21.6043194 C15.7048741,21.328177 15.9286171,21.1042048 16.2047594,21.1040634 C16.2049302,21.1040633 16.2051011,21.1040633 16.2052719,21.1040634 Z" id="Rectangle-Copy-4" transform="translate(17.953901, 39.056393) rotate(-75.000000) translate(-17.953901, -39.056393) "></path>
                            </g>
                            <path d="M128.578863,195.5048 C129.387875,194.697445 130.660876,194.635341 131.541271,195.318487 L131.752695,195.5048 L138.099159,201.836506 L144.448019,195.5048 C145.324449,194.630166 146.745421,194.630166 147.621851,195.5048 C148.49828,196.379435 148.49828,197.797497 147.621851,198.672132 L141.274755,205.005599 L147.621851,211.341458 C148.430862,212.148813 148.493094,213.419207 147.808546,214.297799 L147.621851,214.50879 C146.812839,215.316145 145.539838,215.378249 144.659443,214.695102 L144.448019,214.50879 L138.099159,208.174692 L131.752695,214.50879 C130.876265,215.383424 129.455293,215.383424 128.578863,214.50879 C127.702434,213.634155 127.702434,212.216093 128.578863,211.341458 L134.923563,205.005599 L128.578863,198.672132 C127.769852,197.864777 127.70762,196.594382 128.392168,195.715791 L128.578863,195.5048 Z" id="Path"></path>
                            <path d="M474.841715,143.626327 C475.228188,144.012008 475.228188,144.63732 474.841715,145.023001 L472.041254,147.816349 L474.841715,150.609698 C475.179878,150.947169 475.222149,151.468107 474.968526,151.851445 L474.841715,152.006372 C474.503552,152.343843 473.981544,152.386027 473.59742,152.132924 L473.442175,152.006372 L470.643094,149.211646 L467.844014,152.006372 C467.457541,152.392053 466.830946,152.392053 466.444473,152.006372 C466.058001,151.620691 466.058001,150.995379 466.444473,150.609698 L469.244934,147.816349 L466.444473,145.023001 C466.10631,144.68553 466.06404,144.164592 466.317662,143.781254 L466.444473,143.626327 C466.782637,143.288856 467.304644,143.246672 467.688769,143.499775 L467.844014,143.626327 L470.643094,146.421053 L473.442175,143.626327 C473.828647,143.240646 474.455243,143.240646 474.841715,143.626327 Z" id="Path"></path>
                            <path d="M225.873028,21.13926 C226.213006,21.13926 226.488613,21.4143023 226.488613,21.7535842 L226.488456,23.3385881 L227.614165,22.2188483 C227.854566,21.9789398 228.244333,21.9789398 228.484734,22.2188483 C228.725134,22.4587569 228.725134,22.8477254 228.484734,23.0876339 L227.356975,24.2098087 L228.950952,24.210881 C229.234268,24.210881 229.47288,24.4018826 229.544548,24.6618934 L229.566537,24.8252052 C229.566537,25.1160182 229.364051,25.3596348 229.0921,25.4233046 L228.950952,25.4395293 L227.35922,25.439372 L228.484734,26.5627763 C228.685068,26.7627001 228.718457,27.0661378 228.584901,27.3005662 L228.484734,27.4315619 C228.2844,27.6314857 227.980339,27.6648063 227.74543,27.5315238 L227.614165,27.4315619 L226.488456,26.308353 L226.488613,27.8968261 C226.488613,28.236108 226.213006,28.5111503 225.873028,28.5111503 C225.53305,28.5111503 225.257444,28.236108 225.257444,27.8968261 L225.256369,26.3061133 L224.131892,27.4315619 C223.891491,27.6714705 223.501724,27.6714705 223.261323,27.4315619 C223.020922,27.1916534 223.020922,26.8026849 223.261323,26.5627763 L224.383361,25.439372 L222.795104,25.4395293 C222.511789,25.4395293 222.273176,25.2485277 222.201509,24.9885169 L222.179519,24.8252052 C222.179519,24.5343921 222.382006,24.2907755 222.653956,24.2271057 L222.795104,24.210881 L224.385605,24.2098087 L223.261323,23.087634 C223.060989,22.8877102 223.0276,22.5842725 223.161156,22.3498441 L223.261323,22.2188484 C223.461657,22.0189246 223.765717,21.985604 224.000627,22.1188865 L224.131892,22.2188484 L225.256369,23.3408278 L225.257444,21.7535842 C225.257444,21.4143023 225.53305,21.13926 225.873028,21.13926 Z" id="Path"></path>
                            <path d="M16.8317818,106.245643 C17.1416463,106.245643 17.3928412,106.496323 17.3928412,106.805553 L17.3931217,108.01356 L18.4062646,107.003356 C18.6236553,106.78641 18.9761153,106.78641 19.193506,107.003356 C19.4108967,107.220301 19.4108967,107.572039 19.193506,107.788985 L17.9342635,109.044915 L19.6370787,109.045195 C19.9159568,109.045195 20.1473125,109.248246 20.1907948,109.514285 L20.1981381,109.605105 C20.1981381,109.886224 19.9905391,110.118954 19.719988,110.158945 L19.6370787,110.165016 L18.4249099,110.164456 L19.193506,110.931502 C19.3891576,111.126753 19.4087228,111.431186 19.2522015,111.648273 L19.193506,111.717131 C18.9978544,111.912382 18.6927966,111.931907 18.4752637,111.775707 L18.4062646,111.717131 L17.3931217,110.706169 L17.3928412,112.404658 C17.3928412,112.713888 17.1416463,112.964568 16.8317818,112.964568 C16.5219172,112.964568 16.2707224,112.713888 16.2707224,112.404658 L16.2704418,110.705329 L15.2572989,111.717131 C15.0399082,111.934077 14.6874483,111.934077 14.4700575,111.717131 C14.2526668,111.500186 14.2526668,111.148447 14.4700575,110.931502 L15.237812,110.164456 L14.0264848,110.165016 C13.7476067,110.165016 13.5162511,109.961965 13.4727687,109.695926 L13.4654254,109.605105 C13.4654254,109.323987 13.6730245,109.091257 13.9435756,109.051266 L14.0264848,109.045195 L15.7276169,109.044915 L14.4700575,107.788985 C14.2744059,107.593734 14.2548407,107.289301 14.411362,107.072214 L14.4700575,107.003356 C14.6657092,106.808105 14.9707669,106.78858 15.1882998,106.94478 L15.2572989,107.003356 L16.2704418,108.0144 L16.2707224,106.805553 C16.2707224,106.496323 16.5219172,106.245643 16.8317818,106.245643 Z" id="Path"></path>
                            <path d="M276.502517,69.2915557 C277.053387,69.2915557 277.511545,69.6876926 277.606557,70.2100873 L277.624636,70.4113765 L277.624636,73.770839 C277.624636,74.3892989 277.122246,74.8906598 276.502517,74.8906598 C275.951647,74.8906598 275.493489,74.4945228 275.398477,73.9721282 L275.380398,73.770839 L275.380398,70.4113765 C275.380398,69.7929165 275.882788,69.2915557 276.502517,69.2915557 Z M280.314397,68.1780164 L280.469806,68.3075919 L282.850179,70.6830906 C283.288394,71.1204078 283.288394,71.8294391 282.850179,72.2667564 C282.460655,72.6554828 281.856003,72.6986746 281.418672,72.3963319 L281.263264,72.2667564 L278.88289,69.8912577 C278.444676,69.4539404 278.444676,68.7449091 278.88289,68.3075919 C279.223724,67.9674562 279.729265,67.8918706 280.143302,68.0808348 L280.314397,68.1780164 Z M274.122143,68.3075919 C274.511668,68.6963183 274.554948,69.2997324 274.251985,69.7361672 L274.122143,69.8912577 L271.74177,72.2667564 C271.303555,72.7040736 270.593069,72.7040736 270.154854,72.2667564 C269.76533,71.87803 269.72205,71.2746158 270.025013,70.838181 L270.154854,70.6830906 L272.535228,68.3075919 C272.973442,67.8702746 273.683929,67.8702746 274.122143,68.3075919 Z M284.357348,64.8122723 C284.977077,64.8122723 285.479467,65.3136332 285.479467,65.9320932 C285.479467,66.4818354 285.082517,66.9390548 284.559051,67.0338722 L284.357348,67.051914 L280.990992,67.051914 C280.371263,67.051914 279.868873,66.5505531 279.868873,65.9320932 C279.868873,65.382351 280.265823,64.9251315 280.78929,64.8303142 L280.990992,64.8122723 L284.357348,64.8122723 Z M272.014042,64.8122723 C272.633771,64.8122723 273.13616,65.3136332 273.13616,65.9320932 C273.13616,66.4818354 272.739211,66.9390548 272.215744,67.0338722 L272.014042,67.051914 L268.647685,67.051914 C268.027956,67.051914 267.525567,66.5505531 267.525567,65.9320932 C267.525567,65.382351 267.922516,64.9251315 268.445983,64.8303142 L268.647685,64.8122723 L272.014042,64.8122723 Z M271.586361,59.4678545 L271.74177,59.59743 L274.122143,61.9729287 C274.560358,62.4102459 274.560358,63.1192772 274.122143,63.5565945 C273.732619,63.9453209 273.127967,63.9885127 272.690637,63.6861699 L272.535228,63.5565945 L270.154854,61.1810958 C269.71664,60.7437785 269.71664,60.0347472 270.154854,59.59743 C270.495688,59.2572943 271.001229,59.1817086 271.415266,59.3706729 L271.586361,59.4678545 Z M282.850179,59.59743 C283.239703,59.9861564 283.282984,60.5895705 282.980021,61.0260053 L282.850179,61.1810958 L280.469806,63.5565945 C280.031591,63.9939117 279.321105,63.9939117 278.88289,63.5565945 C278.493366,63.167868 278.450086,62.5644539 278.753049,62.1280191 L278.88289,61.9729287 L281.263264,59.59743 C281.701478,59.1601127 282.411965,59.1601127 282.850179,59.59743 Z M276.502517,56.9735265 C277.053387,56.9735265 277.511545,57.3696635 277.606557,57.8920582 L277.624636,58.0933474 L277.624636,61.4528099 C277.624636,62.0712698 277.122246,62.5726307 276.502517,62.5726307 C275.951647,62.5726307 275.493489,62.1764937 275.398477,61.6540991 L275.380398,61.4528099 L275.380398,58.0933474 C275.380398,57.4748874 275.882788,56.9735265 276.502517,56.9735265 Z" id="Combined-Shape" fill-rule="nonzero"></path>
                            <path d="M425.786394,12.3180291 C426.337264,12.3180291 426.795422,12.7141661 426.890434,13.2365607 L426.908513,13.4378499 L426.908513,16.7973124 C426.908513,17.4157724 426.406123,17.9171333 425.786394,17.9171333 C425.235524,17.9171333 424.777366,17.5209963 424.682354,16.9986016 L424.664275,16.7973124 L424.664275,13.4378499 C424.664275,12.81939 425.166665,12.3180291 425.786394,12.3180291 Z M429.598274,11.2044899 L429.753683,11.3340653 L432.134056,13.709564 C432.572271,14.1468813 432.572271,14.8559126 432.134056,15.2932298 C431.744532,15.6819563 431.13988,15.7251481 430.70255,15.4228053 L430.547141,15.2932298 L428.166767,12.9177311 C427.728553,12.4804139 427.728553,11.7713826 428.166767,11.3340653 C428.507601,10.9939297 429.013142,10.918344 429.427179,11.1073082 L429.598274,11.2044899 Z M423.406021,11.3340653 C423.795545,11.7227918 423.838825,12.3262059 423.535862,12.7626407 L423.406021,12.9177311 L421.025647,15.2932298 C420.587433,15.7305471 419.876946,15.7305471 419.438732,15.2932298 C419.049207,14.9045034 419.005927,14.3010893 419.30889,13.8646545 L419.438732,13.709564 L421.819105,11.3340653 C422.25732,10.8967481 422.967806,10.8967481 423.406021,11.3340653 Z M433.641226,7.8387458 C434.260955,7.8387458 434.763344,8.34010666 434.763344,8.95856663 C434.763344,9.50830882 434.366394,9.96552827 433.842928,10.0603456 L433.641226,10.0783875 L430.274869,10.0783875 C429.65514,10.0783875 429.15275,9.5770266 429.15275,8.95856663 C429.15275,8.40882444 429.5497,7.95160499 430.073167,7.85678761 L430.274869,7.8387458 L433.641226,7.8387458 Z M421.297919,7.8387458 C421.917648,7.8387458 422.420038,8.34010666 422.420038,8.95856663 C422.420038,9.50830882 422.023088,9.96552827 421.499621,10.0603456 L421.297919,10.0783875 L417.931563,10.0783875 C417.311833,10.0783875 416.809444,9.5770266 416.809444,8.95856663 C416.809444,8.40882444 417.206394,7.95160499 417.72986,7.85678761 L417.931563,7.8387458 L421.297919,7.8387458 Z M420.870238,2.49432794 L421.025647,2.62390342 L423.406021,4.99940212 C423.844235,5.43671936 423.844235,6.14575069 423.406021,6.58306792 C423.016496,6.97179436 422.411844,7.01498618 421.974514,6.7126434 L421.819105,6.58306792 L419.438732,4.20756922 C419.000517,3.77025198 419.000517,3.06122065 419.438732,2.62390342 C419.779565,2.28376779 420.285106,2.20818209 420.699143,2.39714633 L420.870238,2.49432794 Z M432.134056,2.62390342 C432.523581,3.01262985 432.566861,3.61604396 432.263898,4.05247877 L432.134056,4.20756922 L429.753683,6.58306792 C429.315468,7.02038516 428.604982,7.02038516 428.166767,6.58306792 C427.777243,6.19434149 427.733963,5.59092738 428.036926,5.15449257 L428.166767,4.99940212 L430.547141,2.62390342 C430.985355,2.18658618 431.695842,2.18658618 432.134056,2.62390342 Z M425.786394,1.93947135e-14 C426.337264,1.93947135e-14 426.795422,0.396136978 426.890434,0.918531618 L426.908513,1.11982083 L426.908513,4.47928331 C426.908513,5.09774328 426.406123,5.59910414 425.786394,5.59910414 C425.235524,5.59910414 424.777366,5.20296717 424.682354,4.68057252 L424.664275,4.47928331 L424.664275,1.11982083 C424.664275,0.501360862 425.166665,1.93947135e-14 425.786394,1.93947135e-14 Z" id="Combined-Shape-Copy-5" fill-rule="nonzero"></path>
                        </g>
                        <g id="Doughnut" transform="translate(58.555197, 49.272116)">
                            <g id="base">
                                <g id="Path">
                                    <use fill="black" fill-opacity="1" filter="url(#filter-2)" xlink:href="#path-1"></use>
                                    <use fill="#FFFFFF" fill-rule="evenodd" xlink:href="#path-1"></use>
                                </g>
                                <g id="Path">
                                    <use fill="black" fill-opacity="1" filter="url(#filter-4)" xlink:href="#path-3"></use>
                                    <use fill="#FFFFFF" fill-rule="evenodd" xlink:href="#path-3"></use>
                                </g>
                                <path d="M9.70481111,-1.37558333e-14 L130.044469,-1.37558333e-14 C135.404288,-1.37558333e-14 139.74928,4.33379729 139.74928,9.67980716 L139.74928,22.989542 L0,22.989542 L0,9.67980716 C0,4.33379729 4.34499193,-1.37558333e-14 9.70481111,-1.37558333e-14 Z" id="Path-Copy" fill="#E8E9EC"></path>
                            </g>
                            <g id="Group-3" opacity="0.815359933" transform="translate(81.795680, 36.254199)" fill="#CCCED3" fill-rule="nonzero">
                                <path d="M17.3165947,35.1021107 C17.3612539,31.8866502 18.1204598,29.4415604 19.5942126,27.7668414 L19.5942126,27.7668414 L23.7140214,23.7140214 C27.1081186,20.1859466 28.8051672,16.6020479 28.8051672,12.9623252 C28.8051672,8.87601083 27.5491279,5.69404468 25.0370494,3.41642681 C22.5249709,1.13880894 19.0248081,0 14.5365611,0 C10.1822917,0 6.68212891,1.14997373 4.03607285,3.44992119 C1.39001679,5.74986865 0.044659174,8.87601083 0,12.8283477 L0,12.8283477 L8.13913446,12.8283477 C8.13913446,10.974992 8.72528612,9.50682166 9.89758943,8.42383669 C11.0698927,7.34085172 12.6162166,6.79935924 14.5365611,6.79935924 C16.546224,6.79935924 18.0702183,7.35201652 19.1085441,8.45733107 C20.1468699,9.56264563 20.6660328,11.1647935 20.6660328,13.2637747 C20.6660328,14.8491753 20.219441,16.3229281 19.3262575,17.6850329 C18.7456883,18.5782164 17.3668363,20.0798811 15.1897015,22.1900271 C13.0125668,24.300173 11.5555613,26.2372647 10.8186849,28.0013021 C10.0818085,29.7653395 9.71337034,32.1322757 9.71337034,35.1021107 L9.71337034,35.1021107 L17.3165947,35.1021107 Z M13.732696,49.8396382 C15.2064487,49.8396382 16.3452577,49.4265408 17.1491228,48.6003461 C17.9529879,47.7741514 18.3549205,46.7469904 18.3549205,45.5188631 C18.3549205,44.2460766 17.9418231,43.1910036 17.1156284,42.3536441 C16.2894337,41.5162846 15.1617896,41.0976049 13.732696,41.0976049 C12.325932,41.0976049 11.2094527,41.5051198 10.3832579,42.3201497 C9.55706323,43.1351797 9.14396587,44.2014174 9.14396587,45.5188631 C9.14396587,46.7469904 9.54031604,47.7741514 10.3330164,48.6003461 C11.1257167,49.4265408 12.2589433,49.8396382 13.732696,49.8396382 Z" id="?"></path>
                            </g>
                            <path d="M15.3730274,50.3919373 L49.7098622,50.3919373 C50.7634016,50.3919373 51.6174641,51.394659 51.6174641,52.6315789 C51.6174641,53.8684989 50.7634016,54.8712206 49.7098622,54.8712206 L15.3730274,54.8712206 C14.3194879,54.8712206 13.4654254,53.8684989 13.4654254,52.6315789 C13.4654254,51.394659 14.3194879,50.3919373 15.3730274,50.3919373 Z" id="Rectangle" fill="#CCCED3" opacity="0.647623698"></path>
                            <path d="M15.3730274,40.3135498 L49.7098622,40.3135498 C50.7634016,40.3135498 51.6174641,41.3162716 51.6174641,42.5531915 C51.6174641,43.7901114 50.7634016,44.7928331 49.7098622,44.7928331 L15.3730274,44.7928331 C14.3194879,44.7928331 13.4654254,43.7901114 13.4654254,42.5531915 C13.4654254,41.3162716 14.3194879,40.3135498 15.3730274,40.3135498 Z" id="Rectangle-Copy-3" fill="#CCCED3" opacity="0.647623698"></path>
                            <path d="M15.5056414,60.4703247 L33.8675851,60.4703247 C34.9943653,60.4703247 35.9078011,61.4730465 35.9078011,62.7099664 C35.9078011,63.9468863 34.9943653,64.9496081 33.8675851,64.9496081 L15.5056414,64.9496081 C14.3788612,64.9496081 13.4654254,63.9468863 13.4654254,62.7099664 C13.4654254,61.4730465 14.3788612,60.4703247 15.5056414,60.4703247 Z" id="Rectangle-Copy-2" fill="#CCCED3" opacity="0.647623698"></path>
                        </g>
                        <g id="DOC-Copy-2" transform="translate(432.959365, 100.506600) rotate(30.000000) translate(-432.959365, -100.506600) translate(393.459365, 46.506600)">
                            <g id="Rectangle">
                                <use fill="black" fill-opacity="1" filter="url(#filter-6)" xlink:href="#path-5"></use>
                                <use fill="#FFFFFF" fill-rule="evenodd" xlink:href="#path-5"></use>
                            </g>
                            <g id="Rectangle">
                                <use fill="black" fill-opacity="1" filter="url(#filter-8)" xlink:href="#path-7"></use>
                                <use fill="#FFFFFF" fill-rule="evenodd" xlink:href="#path-7"></use>
                            </g>
                            <g id="Triangle" transform="translate(11.621401, 11.820519) rotate(139.000000) translate(-11.621401, -11.820519) ">
                                <use fill="black" fill-opacity="1" filter="url(#filter-10)" xlink:href="#path-9"></use>
                                <use fill="#CCCED3" fill-rule="evenodd" xlink:href="#path-9"></use>
                            </g>
                        </g>
                        <g id="Excel" transform="translate(370.627474, 83.659792) rotate(-17.000000) translate(-370.627474, -83.659792) translate(323.627474, 16.659792)">
                            <g id="Rectangle">
                                <use fill="black" fill-opacity="1" filter="url(#filter-12)" xlink:href="#path-11"></use>
                                <use fill="#FFFFFF" fill-rule="evenodd" xlink:href="#path-11"></use>
                            </g>
                            <g id="Rectangle">
                                <use fill="black" fill-opacity="1" filter="url(#filter-14)" xlink:href="#path-13"></use>
                                <use fill="#FFFFFF" fill-rule="evenodd" xlink:href="#path-13"></use>
                            </g>
                            <g id="List" transform="translate(0.330871, 5.942306)">
                                <path d="M51.2647982,7.86257178 L64.4096182,7.86257178 C65.1355866,7.86257178 65.7241002,8.44927066 65.7241002,9.17300041 L65.7241002,14.4147149 C65.7241002,15.1384447 65.1355866,15.7251436 64.4096182,15.7251436 L51.2647982,15.7251436 C50.5388298,15.7251436 49.9503162,15.1384447 49.9503162,14.4147149 L49.9503162,9.17300041 C49.9503162,8.44927066 50.5388298,7.86257178 51.2647982,7.86257178 Z" id="Rectangle" fill="#EBEBEC" opacity="0.0936104911"></path>
                                <path d="M9.20137403,7.86257178 L22.3461941,7.86257178 C23.0721624,7.86257178 23.6606761,8.44927066 23.6606761,9.17300041 L23.6606761,14.4147149 C23.6606761,15.1384447 23.0721624,15.7251436 22.3461941,15.7251436 L9.20137403,15.7251436 C8.47540567,15.7251436 7.88689203,15.1384447 7.88689203,14.4147149 L7.88689203,9.17300041 C7.88689203,8.44927066 8.47540567,7.86257178 9.20137403,7.86257178 Z" id="Rectangle-Copy-8" fill="#EBEBEC" opacity="0.0936104911"></path>
                                <path d="M72.2965103,7.86257178 L85.4413303,7.86257178 C86.1672987,7.86257178 86.7558123,8.44927066 86.7558123,9.17300041 L86.7558123,14.4147149 C86.7558123,15.1384447 86.1672987,15.7251436 85.4413303,15.7251436 L72.2965103,15.7251436 C71.5705419,15.7251436 70.9820283,15.1384447 70.9820283,14.4147149 L70.9820283,9.17300041 C70.9820283,8.44927066 71.5705419,7.86257178 72.2965103,7.86257178 Z" id="Rectangle-Copy-7" fill="#EBEBEC" opacity="0.0936104911"></path>
                                <path d="M30.2330861,7.86257178 L43.3779062,7.86257178 C44.1038745,7.86257178 44.6923882,8.44927066 44.6923882,9.17300041 L44.6923882,14.4147149 C44.6923882,15.1384447 44.1038745,15.7251436 43.3779062,15.7251436 L30.2330861,15.7251436 C29.5071177,15.7251436 28.9186041,15.1384447 28.9186041,14.4147149 L28.9186041,9.17300041 C28.9186041,8.44927066 29.5071177,7.86257178 30.2330861,7.86257178 Z" id="Rectangle-Copy-9" fill="#EBEBEC" opacity="0.0936104911"></path>
                                <path d="M51.2647982,20.9668581 L64.4096182,20.9668581 C65.1355866,20.9668581 65.7241002,21.553557 65.7241002,22.2772867 L65.7241002,27.5190012 C65.7241002,28.242731 65.1355866,28.8294298 64.4096182,28.8294298 L51.2647982,28.8294298 C50.5388298,28.8294298 49.9503162,28.242731 49.9503162,27.5190012 L49.9503162,22.2772867 C49.9503162,21.553557 50.5388298,20.9668581 51.2647982,20.9668581 Z" id="Rectangle" fill="#EBEBEC" opacity="0.0936104911"></path>
                                <path d="M9.20137403,20.9668581 L22.3461941,20.9668581 C23.0721624,20.9668581 23.6606761,21.553557 23.6606761,22.2772867 L23.6606761,27.5190012 C23.6606761,28.242731 23.0721624,28.8294298 22.3461941,28.8294298 L9.20137403,28.8294298 C8.47540567,28.8294298 7.88689203,28.242731 7.88689203,27.5190012 L7.88689203,22.2772867 C7.88689203,21.553557 8.47540567,20.9668581 9.20137403,20.9668581 Z" id="Rectangle-Copy-8" fill="#EBEBEC" opacity="0.0936104911"></path>
                                <path d="M72.2965103,20.9668581 L85.4413303,20.9668581 C86.1672987,20.9668581 86.7558123,21.553557 86.7558123,22.2772867 L86.7558123,27.5190012 C86.7558123,28.242731 86.1672987,28.8294298 85.4413303,28.8294298 L72.2965103,28.8294298 C71.5705419,28.8294298 70.9820283,28.242731 70.9820283,27.5190012 L70.9820283,22.2772867 C70.9820283,21.553557 71.5705419,20.9668581 72.2965103,20.9668581 Z" id="Rectangle-Copy-7" fill="#EBEBEC" opacity="0.0936104911"></path>
                                <path d="M30.2330861,20.9668581 L43.3779062,20.9668581 C44.1038745,20.9668581 44.6923882,21.553557 44.6923882,22.2772867 L44.6923882,27.5190012 C44.6923882,28.242731 44.1038745,28.8294298 43.3779062,28.8294298 L30.2330861,28.8294298 C29.5071177,28.8294298 28.9186041,28.242731 28.9186041,27.5190012 L28.9186041,22.2772867 C28.9186041,21.553557 29.5071177,20.9668581 30.2330861,20.9668581 Z" id="Rectangle-Copy-9" fill="#EBEBEC" opacity="0.0936104911"></path>
                                <path d="M51.2647982,34.0711444 L64.4096182,34.0711444 C65.1355866,34.0711444 65.7241002,34.6578432 65.7241002,35.381573 L65.7241002,40.6232875 C65.7241002,41.3470173 65.1355866,41.9337161 64.4096182,41.9337161 L51.2647982,41.9337161 C50.5388298,41.9337161 49.9503162,41.3470173 49.9503162,40.6232875 L49.9503162,35.381573 C49.9503162,34.6578432 50.5388298,34.0711444 51.2647982,34.0711444 Z" id="Rectangle" fill="#EBEBEC" opacity="0.0936104911"></path>
                                <path d="M9.20137403,34.0711444 L22.3461941,34.0711444 C23.0721624,34.0711444 23.6606761,34.6578432 23.6606761,35.381573 L23.6606761,40.6232875 C23.6606761,41.3470173 23.0721624,41.9337161 22.3461941,41.9337161 L9.20137403,41.9337161 C8.47540567,41.9337161 7.88689203,41.3470173 7.88689203,40.6232875 L7.88689203,35.381573 C7.88689203,34.6578432 8.47540567,34.0711444 9.20137403,34.0711444 Z" id="Rectangle-Copy-8" fill="#EBEBEC" opacity="0.0936104911"></path>
                                <path d="M72.2965103,34.0711444 L85.4413303,34.0711444 C86.1672987,34.0711444 86.7558123,34.6578432 86.7558123,35.381573 L86.7558123,40.6232875 C86.7558123,41.3470173 86.1672987,41.9337161 85.4413303,41.9337161 L72.2965103,41.9337161 C71.5705419,41.9337161 70.9820283,41.3470173 70.9820283,40.6232875 L70.9820283,35.381573 C70.9820283,34.6578432 71.5705419,34.0711444 72.2965103,34.0711444 Z" id="Rectangle-Copy-7" fill="#EBEBEC" opacity="0.0936104911"></path>
                                <path d="M30.2330861,34.0711444 L43.3779062,34.0711444 C44.1038745,34.0711444 44.6923882,34.6578432 44.6923882,35.381573 L44.6923882,40.6232875 C44.6923882,41.3470173 44.1038745,41.9337161 43.3779062,41.9337161 L30.2330861,41.9337161 C29.5071177,41.9337161 28.9186041,41.3470173 28.9186041,40.6232875 L28.9186041,35.381573 C28.9186041,34.6578432 29.5071177,34.0711444 30.2330861,34.0711444 Z" id="Rectangle-Copy-9" fill="#EBEBEC" opacity="0.0936104911"></path>
                                <path d="M51.2647982,47.1754307 L64.4096182,47.1754307 C65.1355866,47.1754307 65.7241002,47.7621295 65.7241002,48.4858593 L65.7241002,53.7275738 C65.7241002,54.4513035 65.1355866,55.0380024 64.4096182,55.0380024 L51.2647982,55.0380024 C50.5388298,55.0380024 49.9503162,54.4513035 49.9503162,53.7275738 L49.9503162,48.4858593 C49.9503162,47.7621295 50.5388298,47.1754307 51.2647982,47.1754307 Z" id="Rectangle" fill="#EBEBEC" opacity="0.0936104911"></path>
                                <path d="M9.20137403,47.1754307 L22.3461941,47.1754307 C23.0721624,47.1754307 23.6606761,47.7621295 23.6606761,48.4858593 L23.6606761,53.7275738 C23.6606761,54.4513035 23.0721624,55.0380024 22.3461941,55.0380024 L9.20137403,55.0380024 C8.47540567,55.0380024 7.88689203,54.4513035 7.88689203,53.7275738 L7.88689203,48.4858593 C7.88689203,47.7621295 8.47540567,47.1754307 9.20137403,47.1754307 Z" id="Rectangle-Copy-8" fill="#EBEBEC" opacity="0.0936104911"></path>
                                <path d="M72.2965103,47.1754307 L85.4413303,47.1754307 C86.1672987,47.1754307 86.7558123,47.7621295 86.7558123,48.4858593 L86.7558123,53.7275738 C86.7558123,54.4513035 86.1672987,55.0380024 85.4413303,55.0380024 L72.2965103,55.0380024 C71.5705419,55.0380024 70.9820283,54.4513035 70.9820283,53.7275738 L70.9820283,48.4858593 C70.9820283,47.7621295 71.5705419,47.1754307 72.2965103,47.1754307 Z" id="Rectangle-Copy-7" fill="#EBEBEC" opacity="0.0936104911"></path>
                                <path d="M30.2330861,47.1754307 L43.3779062,47.1754307 C44.1038745,47.1754307 44.6923882,47.7621295 44.6923882,48.4858593 L44.6923882,53.7275738 C44.6923882,54.4513035 44.1038745,55.0380024 43.3779062,55.0380024 L30.2330861,55.0380024 C29.5071177,55.0380024 28.9186041,54.4513035 28.9186041,53.7275738 L28.9186041,48.4858593 C28.9186041,47.7621295 29.5071177,47.1754307 30.2330861,47.1754307 Z" id="Rectangle-Copy-9" fill="#EBEBEC" opacity="0.0936104911"></path>
                                <path d="M51.2647982,60.2797169 L64.4096182,60.2797169 C65.1355866,60.2797169 65.7241002,60.8664158 65.7241002,61.5901456 L65.7241002,66.8318601 C65.7241002,67.5555898 65.1355866,68.1422887 64.4096182,68.1422887 L51.2647982,68.1422887 C50.5388298,68.1422887 49.9503162,67.5555898 49.9503162,66.8318601 L49.9503162,61.5901456 C49.9503162,60.8664158 50.5388298,60.2797169 51.2647982,60.2797169 Z" id="Rectangle" fill="#EBEBEC" opacity="0.0936104911"></path>
                                <path d="M9.20137403,60.2797169 L22.3461941,60.2797169 C23.0721624,60.2797169 23.6606761,60.8664158 23.6606761,61.5901456 L23.6606761,66.8318601 C23.6606761,67.5555898 23.0721624,68.1422887 22.3461941,68.1422887 L9.20137403,68.1422887 C8.47540567,68.1422887 7.88689203,67.5555898 7.88689203,66.8318601 L7.88689203,61.5901456 C7.88689203,60.8664158 8.47540567,60.2797169 9.20137403,60.2797169 Z" id="Rectangle-Copy-8" fill="#EBEBEC" opacity="0.0936104911"></path>
                                <path d="M72.2965103,60.2797169 L85.4413303,60.2797169 C86.1672987,60.2797169 86.7558123,60.8664158 86.7558123,61.5901456 L86.7558123,66.8318601 C86.7558123,67.5555898 86.1672987,68.1422887 85.4413303,68.1422887 L72.2965103,68.1422887 C71.5705419,68.1422887 70.9820283,67.5555898 70.9820283,66.8318601 L70.9820283,61.5901456 C70.9820283,60.8664158 71.5705419,60.2797169 72.2965103,60.2797169 Z" id="Rectangle-Copy-7" fill="#EBEBEC" opacity="0.0936104911"></path>
                                <path d="M30.2330861,60.2797169 L43.3779062,60.2797169 C44.1038745,60.2797169 44.6923882,60.8664158 44.6923882,61.5901456 L44.6923882,66.8318601 C44.6923882,67.5555898 44.1038745,68.1422887 43.3779062,68.1422887 L30.2330861,68.1422887 C29.5071177,68.1422887 28.9186041,67.5555898 28.9186041,66.8318601 L28.9186041,61.5901456 C28.9186041,60.8664158 29.5071177,60.2797169 30.2330861,60.2797169 Z" id="Rectangle-Copy-9" fill="#EBEBEC" opacity="0.0936104911"></path>
                                <path d="M51.2647982,73.3840032 L64.4096182,73.3840032 C65.1355866,73.3840032 65.7241002,73.9707021 65.7241002,74.6944319 L65.7241002,79.9361464 C65.7241002,80.6598761 65.1355866,81.246575 64.4096182,81.246575 L51.2647982,81.246575 C50.5388298,81.246575 49.9503162,80.6598761 49.9503162,79.9361464 L49.9503162,74.6944319 C49.9503162,73.9707021 50.5388298,73.3840032 51.2647982,73.3840032 Z" id="Rectangle" fill="#EBEBEC" opacity="0.0936104911"></path>
                                <path d="M9.20137403,73.3840032 L22.3461941,73.3840032 C23.0721624,73.3840032 23.6606761,73.9707021 23.6606761,74.6944319 L23.6606761,79.9361464 C23.6606761,80.6598761 23.0721624,81.246575 22.3461941,81.246575 L9.20137403,81.246575 C8.47540567,81.246575 7.88689203,80.6598761 7.88689203,79.9361464 L7.88689203,74.6944319 C7.88689203,73.9707021 8.47540567,73.3840032 9.20137403,73.3840032 Z" id="Rectangle-Copy-8" fill="#EBEBEC" opacity="0.0936104911"></path>
                                <path d="M72.2965103,73.3840032 L85.4413303,73.3840032 C86.1672987,73.3840032 86.7558123,73.9707021 86.7558123,74.6944319 L86.7558123,79.9361464 C86.7558123,80.6598761 86.1672987,81.246575 85.4413303,81.246575 L72.2965103,81.246575 C71.5705419,81.246575 70.9820283,80.6598761 70.9820283,79.9361464 L70.9820283,74.6944319 C70.9820283,73.9707021 71.5705419,73.3840032 72.2965103,73.3840032 Z" id="Rectangle-Copy-7" fill="#EBEBEC" opacity="0.0936104911"></path>
                                <path d="M30.2330861,73.3840032 L43.3779062,73.3840032 C44.1038745,73.3840032 44.6923882,73.9707021 44.6923882,74.6944319 L44.6923882,79.9361464 C44.6923882,80.6598761 44.1038745,81.246575 43.3779062,81.246575 L30.2330861,81.246575 C29.5071177,81.246575 28.9186041,80.6598761 28.9186041,79.9361464 L28.9186041,74.6944319 C28.9186041,73.9707021 29.5071177,73.3840032 30.2330861,73.3840032 Z" id="Rectangle-Copy-9" fill="#EBEBEC" opacity="0.0936104911"></path>
                                <path d="M51.2647982,86.4882895 L64.4096182,86.4882895 C65.1355866,86.4882895 65.7241002,87.0749884 65.7241002,87.7987182 L65.7241002,93.0404327 C65.7241002,93.7641624 65.1355866,94.3508613 64.4096182,94.3508613 L51.2647982,94.3508613 C50.5388298,94.3508613 49.9503162,93.7641624 49.9503162,93.0404327 L49.9503162,87.7987182 C49.9503162,87.0749884 50.5388298,86.4882895 51.2647982,86.4882895 Z" id="Rectangle" fill="#EBEBEC" opacity="0.0936104911"></path>
                                <path d="M9.20137403,86.4882895 L22.3461941,86.4882895 C23.0721624,86.4882895 23.6606761,87.0749884 23.6606761,87.7987182 L23.6606761,93.0404327 C23.6606761,93.7641624 23.0721624,94.3508613 22.3461941,94.3508613 L9.20137403,94.3508613 C8.47540567,94.3508613 7.88689203,93.7641624 7.88689203,93.0404327 L7.88689203,87.7987182 C7.88689203,87.0749884 8.47540567,86.4882895 9.20137403,86.4882895 Z" id="Rectangle-Copy-8" fill="#EBEBEC" opacity="0.0936104911"></path>
                                <path d="M72.2965103,86.4882895 L85.4413303,86.4882895 C86.1672987,86.4882895 86.7558123,87.0749884 86.7558123,87.7987182 L86.7558123,93.0404327 C86.7558123,93.7641624 86.1672987,94.3508613 85.4413303,94.3508613 L72.2965103,94.3508613 C71.5705419,94.3508613 70.9820283,93.7641624 70.9820283,93.0404327 L70.9820283,87.7987182 C70.9820283,87.0749884 71.5705419,86.4882895 72.2965103,86.4882895 Z" id="Rectangle-Copy-7" fill="#EBEBEC" opacity="0.0936104911"></path>
                                <path d="M30.2330861,86.4882895 L43.3779062,86.4882895 C44.1038745,86.4882895 44.6923882,87.0749884 44.6923882,87.7987182 L44.6923882,93.0404327 C44.6923882,93.7641624 44.1038745,94.3508613 43.3779062,94.3508613 L30.2330861,94.3508613 C29.5071177,94.3508613 28.9186041,93.7641624 28.9186041,93.0404327 L28.9186041,87.7987182 C28.9186041,87.0749884 29.5071177,86.4882895 30.2330861,86.4882895 Z" id="Rectangle-Copy-9" fill="#EBEBEC" opacity="0.0936104911"></path>
                                <path d="M51.2647982,99.5925758 L64.4096182,99.5925758 C65.1355866,99.5925758 65.7241002,100.179275 65.7241002,100.903004 L65.7241002,106.144719 C65.7241002,106.868449 65.1355866,107.455148 64.4096182,107.455148 L51.2647982,107.455148 C50.5388298,107.455148 49.9503162,106.868449 49.9503162,106.144719 L49.9503162,100.903004 C49.9503162,100.179275 50.5388298,99.5925758 51.2647982,99.5925758 Z" id="Rectangle" fill="#EBEBEC" opacity="0.0936104911"></path>
                                <path d="M9.20137403,99.5925758 L22.3461941,99.5925758 C23.0721624,99.5925758 23.6606761,100.179275 23.6606761,100.903004 L23.6606761,106.144719 C23.6606761,106.868449 23.0721624,107.455148 22.3461941,107.455148 L9.20137403,107.455148 C8.47540567,107.455148 7.88689203,106.868449 7.88689203,106.144719 L7.88689203,100.903004 C7.88689203,100.179275 8.47540567,99.5925758 9.20137403,99.5925758 Z" id="Rectangle-Copy-8" fill="#EBEBEC" opacity="0.0936104911"></path>
                                <path d="M72.2965103,99.5925758 L85.4413303,99.5925758 C86.1672987,99.5925758 86.7558123,100.179275 86.7558123,100.903004 L86.7558123,106.144719 C86.7558123,106.868449 86.1672987,107.455148 85.4413303,107.455148 L72.2965103,107.455148 C71.5705419,107.455148 70.9820283,106.868449 70.9820283,106.144719 L70.9820283,100.903004 C70.9820283,100.179275 71.5705419,99.5925758 72.2965103,99.5925758 Z" id="Rectangle-Copy-7" fill="#EBEBEC" opacity="0.0936104911"></path>
                                <path d="M30.2330861,99.5925758 L43.3779062,99.5925758 C44.1038745,99.5925758 44.6923882,100.179275 44.6923882,100.903004 L44.6923882,106.144719 C44.6923882,106.868449 44.1038745,107.455148 43.3779062,107.455148 L30.2330861,107.455148 C29.5071177,107.455148 28.9186041,106.868449 28.9186041,106.144719 L28.9186041,100.903004 C28.9186041,100.179275 29.5071177,99.5925758 30.2330861,99.5925758 Z" id="Rectangle-Copy-9" fill="#EBEBEC" opacity="0.0936104911"></path>
                                <path d="M51.2647982,112.696862 L64.4096182,112.696862 C65.1355866,112.696862 65.7241002,113.283561 65.7241002,114.007291 L65.7241002,119.249005 C65.7241002,119.972735 65.1355866,120.559434 64.4096182,120.559434 L51.2647982,120.559434 C50.5388298,120.559434 49.9503162,119.972735 49.9503162,119.249005 L49.9503162,114.007291 C49.9503162,113.283561 50.5388298,112.696862 51.2647982,112.696862 Z" id="Rectangle" fill="#EBEBEC" opacity="0.0936104911"></path>
                                <path d="M9.20137403,112.696862 L22.3461941,112.696862 C23.0721624,112.696862 23.6606761,113.283561 23.6606761,114.007291 L23.6606761,119.249005 C23.6606761,119.972735 23.0721624,120.559434 22.3461941,120.559434 L9.20137403,120.559434 C8.47540567,120.559434 7.88689203,119.972735 7.88689203,119.249005 L7.88689203,114.007291 C7.88689203,113.283561 8.47540567,112.696862 9.20137403,112.696862 Z" id="Rectangle-Copy-8" fill="#EBEBEC" opacity="0.0936104911"></path>
                                <path d="M72.2965103,112.696862 L85.4413303,112.696862 C86.1672987,112.696862 86.7558123,113.283561 86.7558123,114.007291 L86.7558123,119.249005 C86.7558123,119.972735 86.1672987,120.559434 85.4413303,120.559434 L72.2965103,120.559434 C71.5705419,120.559434 70.9820283,119.972735 70.9820283,119.249005 L70.9820283,114.007291 C70.9820283,113.283561 71.5705419,112.696862 72.2965103,112.696862 Z" id="Rectangle-Copy-7" fill="#EBEBEC" opacity="0.0936104911"></path>
                                <path d="M30.2330861,112.696862 L43.3779062,112.696862 C44.1038745,112.696862 44.6923882,113.283561 44.6923882,114.007291 L44.6923882,119.249005 C44.6923882,119.972735 44.1038745,120.559434 43.3779062,120.559434 L30.2330861,120.559434 C29.5071177,120.559434 28.9186041,119.972735 28.9186041,119.249005 L28.9186041,114.007291 C28.9186041,113.283561 29.5071177,112.696862 30.2330861,112.696862 Z" id="Rectangle-Copy-9" fill="#EBEBEC" opacity="0.0936104911"></path>
                                <polygon id="Rectangle" fill="url(#linearGradient-15)" points="2.49313241e-13 4.05134016e-13 92.0137403 4.05134016e-13 92.0137403 127.192982 2.49313241e-13 127.192982"></polygon>
                            </g>
                            <polygon id="X" fill-opacity="0.8" fill="#CCCED3" fill-rule="nonzero" points="18.9506726 123.337633 27.8881926 111.477643 36.8257126 123.337633 46.1312482 123.337633 33.1455573 107.531461 45.2112094 91.9826497 36.4314103 91.9826497 28.3087818 103.263581 20.0284323 91.9826497 11.0383386 91.9826497 22.9725566 107.166869 10.2234471 123.337633"></polygon>
                        </g>
                        <g id="Trend" transform="translate(186.476739, 141.097424)">
                            <g id="base">
                                <g id="Path">
                                    <use fill="black" fill-opacity="1" filter="url(#filter-17)" xlink:href="#path-16"></use>
                                    <use fill="#FFFFFF" fill-rule="evenodd" xlink:href="#path-16"></use>
                                </g>
                                <g id="Path">
                                    <use fill="black" fill-opacity="1" filter="url(#filter-19)" xlink:href="#path-18"></use>
                                    <use fill="#FFFFFF" fill-rule="evenodd" xlink:href="#path-18"></use>
                                </g>
                                <path d="M11.2211878,-1.59136111e-14 L150.363917,-1.59136111e-14 C156.561208,-1.59136111e-14 161.585105,5.01360862 161.585105,11.1982083 L161.585105,26.5957447 L0,26.5957447 L0,11.1982083 C0,5.01360862 5.02389692,-1.59136111e-14 11.2211878,-1.59136111e-14 Z" id="Path-Copy" fill="#E8E9EC"></path>
                            </g>
                            <g id="lines" transform="translate(17.953901, 47.032475)" fill="#CCCED3" fill-opacity="0.27" fill-rule="nonzero">
                                <path d="M123.994126,59.9104143 C124.30399,59.9104143 124.555185,60.286435 124.555185,60.75028 C124.555185,61.1478614 124.370634,61.4809188 124.122771,61.5679641 L123.994126,61.5901456 L3.33066907e-16,61.5901456 C-0.309864546,61.5901456 -0.561059392,61.2141249 -0.561059392,60.75028 C-0.561059392,60.3526985 -0.376508077,60.0196411 -0.128645771,59.9325958 L3.33066907e-16,59.9104143 L123.994126,59.9104143 Z" id="Line"></path>
                                <path d="M123.994126,45.0727884 C124.30399,45.0727884 124.555185,45.448809 124.555185,45.912654 C124.555185,46.3102354 124.370634,46.6432928 124.122771,46.7303381 L123.994126,46.7525196 L3.33066907e-16,46.7525196 C-0.309864546,46.7525196 -0.561059392,46.376499 -0.561059392,45.912654 C-0.561059392,45.5150726 -0.376508077,45.1820152 -0.128645771,45.0949698 L3.33066907e-16,45.0727884 L123.994126,45.0727884 Z" id="Line-Copy"></path>
                                <path d="M123.994126,30.2351624 C124.30399,30.2351624 124.555185,30.611183 124.555185,31.075028 C124.555185,31.4726094 124.370634,31.8056668 124.122771,31.8927122 L123.994126,31.9148936 L3.33066907e-16,31.9148936 C-0.309864546,31.9148936 -0.561059392,31.538873 -0.561059392,31.075028 C-0.561059392,30.6774466 -0.376508077,30.3443892 -0.128645771,30.2573438 L3.33066907e-16,30.2351624 L123.994126,30.2351624 Z" id="Line-Copy-2"></path>
                                <path d="M123.994126,15.3975364 C124.30399,15.3975364 124.555185,15.773557 124.555185,16.237402 C124.555185,16.6349834 124.370634,16.9680408 124.122771,17.0550862 L123.994126,17.0772676 L3.33066907e-16,17.0772676 C-0.309864546,17.0772676 -0.561059392,16.701247 -0.561059392,16.237402 C-0.561059392,15.8398206 -0.376508077,15.5067632 -0.128645771,15.4197178 L3.33066907e-16,15.3975364 L123.994126,15.3975364 Z" id="Line-Copy-3"></path>
                                <path d="M123.994126,0.559910414 C124.30399,0.559910414 124.555185,0.935931061 124.555185,1.39977604 C124.555185,1.79735744 124.370634,2.13041485 124.122771,2.21746021 L123.994126,2.23964166 L3.33066907e-16,2.23964166 C-0.309864546,2.23964166 -0.561059392,1.86362101 -0.561059392,1.39977604 C-0.561059392,1.00219463 -0.376508077,0.669137218 -0.128645771,0.582091864 L3.33066907e-16,0.559910414 L123.994126,0.559910414 Z" id="Line-Copy-4"></path>
                            </g>
                            <g id="Group" transform="translate(51.617464, 116.461366)">
                                <path d="M8.97695028,0 L22.4423757,0 C23.6818339,0 24.6866133,1.00272172 24.6866133,2.23964166 C24.6866133,3.47656159 23.6818339,4.47928331 22.4423757,4.47928331 L8.97695028,4.47928331 C7.73749209,4.47928331 6.73271271,3.47656159 6.73271271,2.23964166 C6.73271271,1.00272172 7.73749209,0 8.97695028,0 Z" id="Rectangle-Copy-2" fill-opacity="0.35" fill="#67696F"></path>
                                <path d="M42.6405138,0 L56.1059392,0 C57.3453974,0 58.3501768,1.00272172 58.3501768,2.23964166 C58.3501768,3.47656159 57.3453974,4.47928331 56.1059392,4.47928331 L42.6405138,4.47928331 C41.4010556,4.47928331 40.3962762,3.47656159 40.3962762,2.23964166 C40.3962762,1.00272172 41.4010556,0 42.6405138,0 Z" id="Rectangle-Copy-5" fill-opacity="0.35" fill="#67696F"></path>
                                <path d="M2.24423757,0 C3.48369575,0 4.48847514,1.00272172 4.48847514,2.23964166 C4.48847514,3.47656159 3.48369575,4.47928331 2.24423757,4.47928331 C1.00477938,4.47928331 0,3.47656159 0,2.23964166 C0,1.00272172 1.00477938,0 2.24423757,0 Z" id="Rectangle-Copy-4" fill="#DFE0E1" opacity="0.647623698"></path>
                                <path d="M35.9078011,0 C37.1472593,0 38.1520387,1.00272172 38.1520387,2.23964166 C38.1520387,3.47656159 37.1472593,4.47928331 35.9078011,4.47928331 C34.6683429,4.47928331 33.6635635,3.47656159 33.6635635,2.23964166 C33.6635635,1.00272172 34.6683429,0 35.9078011,0 Z" id="Rectangle-Copy-6" fill="#ACAEB2" opacity="0.647623698"></path>
                            </g>
                        </g>
                    </g>
                </g>
            </g>
        </g>
    </g>
</svg>
