<?xml version="1.0" encoding="UTF-8"?>
<svg width="110px" height="83px" viewBox="0 0 110 83" version="1.1" xmlns="http://www.w3.org/2000/svg" xmlns:xlink="http://www.w3.org/1999/xlink">
    <defs>
        <path d="M4.43461344,0 L46.7340031,0 C48.6179796,0 50.1452443,1.49238417 50.1452443,3.33333333 C50.1452443,5.42592593 50.1452443,6.9537037 50.1452443,7.91666667 C50.1452443,14.212963 50.1452443,23.5740741 50.1452443,36 C50.1452443,37.8409492 48.6179796,39.3333333 46.7340031,39.3333333 L4.43461344,39.3333333 C2.550637,39.3333333 1.02337233,37.8409492 1.02337233,36 C1.02337233,23.462963 1.02337233,14.1018519 1.02337233,7.91666667 C1.02337233,6.84259259 1.02337233,5.31481481 1.02337233,3.33333333 C1.02337233,1.49238417 2.550637,0 4.43461344,0 Z" id="path-1"></path>
        <filter x="-24.4%" y="-22.9%" width="148.9%" height="161.0%" filterUnits="objectBoundingBox" id="filter-2">
            <feOffset dx="0" dy="3" in="SourceAlpha" result="shadowOffsetOuter1"></feOffset>
            <feGaussianBlur stdDeviation="3.5" in="shadowOffsetOuter1" result="shadowBlurOuter1"></feGaussianBlur>
            <feColorMatrix values="0 0 0 0 0   0 0 0 0 0   0 0 0 0 0  0 0 0 0.07 0" type="matrix" in="shadowBlurOuter1"></feColorMatrix>
        </filter>
        <path d="M3.41124111,0 L45.7106308,0 C47.5946073,0 49.1218719,1.49238417 49.1218719,3.33333333 C49.1218719,5.42592593 49.1218719,6.9537037 49.1218719,7.91666667 C49.1218719,14.212963 49.1218719,23.5740741 49.1218719,36 C49.1218719,37.8409492 47.5946073,39.3333333 45.7106308,39.3333333 L3.41124111,39.3333333 C1.52726466,39.3333333 0,37.8409492 0,36 C0,23.462963 0,14.1018519 0,7.91666667 C0,6.84259259 0,5.31481481 0,3.33333333 C0,1.49238417 1.52726466,0 3.41124111,0 Z" id="path-3"></path>
        <filter x="-31.6%" y="-29.2%" width="163.1%" height="178.8%" filterUnits="objectBoundingBox" id="filter-4">
            <feOffset dx="0" dy="4" in="SourceAlpha" result="shadowOffsetOuter1"></feOffset>
            <feGaussianBlur stdDeviation="4.5" in="shadowOffsetOuter1" result="shadowBlurOuter1"></feGaussianBlur>
            <feColorMatrix values="0 0 0 0 0   0 0 0 0 0   0 0 0 0 0  0 0 0 0.07 0" type="matrix" in="shadowBlurOuter1"></feColorMatrix>
        </filter>
        <path d="M1.8969524,0.436183777 L28.2707194,0.436183777 C28.7121081,0.436183777 29.0699244,0.789482886 29.0699244,1.22529942 L29.0699244,38.3137348 C29.0699244,38.7495513 28.7121081,39.1028504 28.2707194,39.1028504 L1.8969524,39.1028504 C1.45556364,39.1028504 1.09774734,38.7495513 1.09774734,38.3137348 L1.09774734,1.22529942 C1.09774734,0.789482886 1.45556364,0.436183777 1.8969524,0.436183777 Z" id="path-5"></path>
        <filter x="-19.7%" y="-9.1%" width="139.3%" height="128.4%" filterUnits="objectBoundingBox" id="filter-6">
            <feOffset dx="0" dy="2" in="SourceAlpha" result="shadowOffsetOuter1"></feOffset>
            <feGaussianBlur stdDeviation="1.5" in="shadowOffsetOuter1" result="shadowBlurOuter1"></feGaussianBlur>
            <feColorMatrix values="0 0 0 0 0   0 0 0 0 0   0 0 0 0 0  0 0 0 0.07 0" type="matrix" in="shadowBlurOuter1"></feColorMatrix>
        </filter>
        <path d="M1.10405469,1.38526133 L27.4778216,1.38526133 C27.9192104,1.38526133 28.2770267,1.73856044 28.2770267,2.17437697 L28.2770267,39.2628123 C28.2770267,39.6986289 27.9192104,40.051928 27.4778216,40.051928 L1.10405469,40.051928 C0.662665927,40.051928 0.304849634,39.6986289 0.304849634,39.2628123 L0.304849634,2.17437697 C0.304849634,1.73856044 0.662665927,1.38526133 1.10405469,1.38526133 Z" id="path-7"></path>
        <filter x="-42.9%" y="-23.3%" width="185.8%" height="162.1%" filterUnits="objectBoundingBox" id="filter-8">
            <feOffset dx="0" dy="3" in="SourceAlpha" result="shadowOffsetOuter1"></feOffset>
            <feGaussianBlur stdDeviation="3.5" in="shadowOffsetOuter1" result="shadowBlurOuter1"></feGaussianBlur>
            <feColorMatrix values="0 0 0 0 0   0 0 0 0 0   0 0 0 0 0  0 0 0 0.07 0" type="matrix" in="shadowBlurOuter1"></feColorMatrix>
        </filter>
        <linearGradient x1="50%" y1="1.00031672%" x2="50%" y2="99.3243243%" id="linearGradient-9">
            <stop stop-color="#FFFFFF" stop-opacity="0" offset="0%"></stop>
            <stop stop-color="#FFFFFF" offset="100%"></stop>
        </linearGradient>
    </defs>
    <g id="In-App-generic-empty-states" stroke="none" stroke-width="1" fill="none" fill-rule="evenodd">
        <g id="Generic-Empty-State_No-data" transform="translate(-88.000000, -109.000000)">
            <g id="Bright" transform="translate(88.000000, 70.000000)">
                <g id="No-data_XS">
                    <g id="No-data-_XS-drawing" transform="translate(0.000000, 41.000000)">
                        <path d="M28.0315498,1.39542055 C50.6697077,2.22462773 74.4620762,0.0130330875 96.0982358,6.51515417 C112.899268,11.5642178 105.521577,58.9579312 101.412775,71.507541 C97.3039729,84.0571509 81.1928013,74.1178062 60.4593353,74.1178062 C39.7258693,74.1178062 28.0315498,85.2740083 18.4789108,71.507541 C4.65660017,47.6695025 5.39339202,0.566213366 28.0315498,1.39542055 Z" id="Rectangle" fill="#CCCED3" opacity="0.08"></path>
                        <path d="M35.8515628,0.941748887 C53.3454602,-1.79954265 85.5355684,9.78301004 105.104379,25.0915038 C120.300061,36.9789416 96.0613923,66.6207583 87.3563262,75.1143927 C78.6512601,83.6080271 64.6577106,81.8090646 42.3880867,75.9728727 C20.1184628,70.1366809 5.49412647,70.3159925 0.797632305,54.5454918 C-4.57983921,28.4852776 18.3576654,3.68304043 35.8515628,0.941748887 Z" id="Rectangle-Copy" fill="#F1F2F5" opacity="0.22"></path>
                        <g id="Decorations" transform="translate(4.000000, 8.153846)" fill="#CCCED3">
                            <circle id="Oval" cx="79.3461538" cy="6.34615385" r="2.11538462"></circle>
                            <circle id="Oval-Copy-2" cx="53.9615385" cy="16.8711904" r="1.26923077"></circle>
                            <path d="M6.5,8.84615385 L6.84879808,8.84615385 C7.12494046,8.84615385 7.34879808,9.07001147 7.34879808,9.34615385 L7.34879808,22.2692308 C7.34879808,22.5453732 7.12494046,22.7692308 6.84879808,22.7692308 L6.5,22.7692308 C6.22385763,22.7692308 6,22.5453732 6,22.2692308 L6,9.34615385 C6,9.07001147 6.22385763,8.84615385 6.5,8.84615385 Z" id="Rectangle-Copy-6" opacity="0.339076451" transform="translate(6.674399, 15.807692) scale(-1, 1) rotate(26.000000) translate(-6.674399, -15.807692) "></path>
                            <rect id="Rectangle-Copy-5" opacity="0.339076451" x="86.5384615" y="36.3846154" width="1.69230769" height="13.5384615" rx="0.5"></rect>
                            <circle id="Oval-Copy-4" cx="100.923077" cy="33" r="1"></circle>
                            <path d="M0.478601954,28.1709096 C0.783626845,27.8658848 1.26359158,27.8424213 1.5955303,28.1005193 L1.6752442,28.1709096 L4.06807692,30.5630769 L6.46181318,28.1709096 C6.79225681,27.840466 7.32801179,27.840466 7.65845542,28.1709096 C7.98889906,28.5013533 7.98889906,29.0371083 7.65845542,29.3675519 L5.26538462,31.7603846 L7.65845542,34.1541209 C7.96348032,34.4591458 7.98694377,34.9391105 7.72884578,35.2710492 L7.65845542,35.3507631 C7.35343053,35.655788 6.87346579,35.6792515 6.54152708,35.4211535 L6.46181318,35.3507631 L4.06807692,32.9576923 L1.6752442,35.3507631 C1.34480057,35.6812067 0.809045586,35.6812067 0.478601954,35.3507631 C0.148158323,35.0203195 0.148158323,34.4845645 0.478601954,34.1541209 L2.87076923,31.7603846 L0.478601954,29.3675519 C0.173577064,29.062527 0.150113611,28.5825623 0.408211595,28.2506235 L0.478601954,28.1709096 Z" id="Path"></path>
                            <path d="M25.5060997,56.8015926 C25.6518129,56.9473058 25.6518129,57.1835536 25.5060997,57.3292669 L24.4502308,58.3846154 L25.5060997,59.4399639 C25.6335988,59.567463 25.6495362,59.7642776 25.5539118,59.9091055 L25.5060997,59.9676382 C25.3786006,60.0951372 25.181786,60.1110746 25.0369581,60.0154503 L24.9784254,59.9676382 L23.9230769,58.9117692 L22.8677284,59.9676382 C22.7220152,60.1133514 22.4857674,60.1133514 22.3400541,59.9676382 C22.1943409,59.8219249 22.1943409,59.5856771 22.3400541,59.4399639 L23.3959231,58.3846154 L22.3400541,57.3292669 C22.2125551,57.2017678 22.1966177,57.0049532 22.292242,56.8601252 L22.3400541,56.8015926 C22.4675532,56.6740935 22.6643678,56.6581562 22.8091958,56.7537805 L22.8677284,56.8015926 L23.9230769,57.8574615 L24.9784254,56.8015926 C25.1241387,56.6558794 25.3603865,56.6558794 25.5060997,56.8015926 Z" id="Path"></path>
                            <path d="M52.6923077,4.65384615 C52.9000045,4.65384615 53.0727455,4.80350975 53.1085683,5.00087446 L53.1153846,5.07692308 L53.1153846,6.34615385 C53.1153846,6.57981278 52.9259666,6.76923077 52.6923077,6.76923077 C52.4846109,6.76923077 52.3118698,6.61956717 52.2760471,6.42220246 L52.2692308,6.34615385 L52.2692308,5.07692308 C52.2692308,4.84326414 52.4586488,4.65384615 52.6923077,4.65384615 Z M54.1295161,4.23314246 L54.1881105,4.28209707 L55.0855922,5.17957875 C55.250814,5.34480057 55.250814,5.61267806 55.0855922,5.77789987 C54.9387283,5.92476371 54.7107539,5.94108192 54.5458654,5.82685449 L54.4872711,5.77789987 L53.5897894,4.88041819 C53.4245676,4.71519638 53.4245676,4.44731888 53.5897894,4.28209707 C53.7182952,4.15359121 53.9089014,4.12503435 54.0650074,4.1964265 L54.1295161,4.23314246 Z M51.794826,4.28209707 C51.9416898,4.4289609 51.958008,4.6569354 51.8437806,4.82182382 L51.794826,4.88041819 L50.8973443,5.77789987 C50.7321225,5.94312169 50.464245,5.94312169 50.2990232,5.77789987 C50.1521594,5.63103604 50.1358412,5.40306155 50.2500686,5.23817312 L50.2990232,5.17957875 L51.1965049,4.28209707 C51.3617267,4.11687525 51.6296042,4.11687525 51.794826,4.28209707 Z M55.6538462,2.96153846 C55.8875051,2.96153846 56.0769231,3.15095645 56.0769231,3.38461538 C56.0769231,3.59231221 55.9272595,3.76505324 55.7298948,3.80087597 L55.6538462,3.80769231 L54.3846154,3.80769231 C54.1509565,3.80769231 53.9615385,3.61827432 53.9615385,3.38461538 C53.9615385,3.17691856 54.1112021,3.00417753 54.3085668,2.9683548 L54.3846154,2.96153846 L55.6538462,2.96153846 Z M51,2.96153846 C51.2336589,2.96153846 51.4230769,3.15095645 51.4230769,3.38461538 C51.4230769,3.59231221 51.2734133,3.76505324 51.0760486,3.80087597 L51,3.80769231 L49.7307692,3.80769231 C49.4971103,3.80769231 49.3076923,3.61827432 49.3076923,3.38461538 C49.3076923,3.17691856 49.4573559,3.00417753 49.6547206,2.9683548 L49.7307692,2.96153846 L51,2.96153846 Z M50.83875,0.942376282 L50.8973443,0.991330894 L51.794826,1.88881258 C51.9600478,2.05403439 51.9600478,2.32191189 51.794826,2.4871337 C51.6479622,2.63399754 51.4199877,2.65031574 51.2550993,2.53608831 L51.1965049,2.4871337 L50.2990232,1.58965202 C50.1338014,1.4244302 50.1338014,1.15655271 50.2990232,0.991330894 C50.4275291,0.862825038 50.6181353,0.834268181 50.7742413,0.905660323 L50.83875,0.942376282 Z M55.0855922,0.991330894 C55.232456,1.13819473 55.2487742,1.36616922 55.1345468,1.53105765 L55.0855922,1.58965202 L54.1881105,2.4871337 C54.0228887,2.65235552 53.7550112,2.65235552 53.5897894,2.4871337 C53.4429255,2.34026986 53.4266073,2.11229537 53.5408348,1.94740694 L53.5897894,1.88881258 L54.4872711,0.991330894 C54.6524929,0.826109079 54.9203704,0.826109079 55.0855922,0.991330894 Z M52.6923077,0 C52.9000045,0 53.0727455,0.149663597 53.1085683,0.347028311 L53.1153846,0.423076923 L53.1153846,1.69230769 C53.1153846,1.92596662 52.9259666,2.11538462 52.6923077,2.11538462 C52.4846109,2.11538462 52.3118698,1.96572102 52.2760471,1.7683563 L52.2692308,1.69230769 L52.2692308,0.423076923 C52.2692308,0.18941799 52.4586488,0 52.6923077,0 Z" id="Combined-Shape" fill-rule="nonzero"></path>
                        </g>
                        <g id="Trend" transform="translate(37.000000, 27.000000)">
                            <g id="base">
                                <g id="Path">
                                    <use fill="black" fill-opacity="1" filter="url(#filter-2)" xlink:href="#path-1"></use>
                                    <use fill="#FFFFFF" fill-rule="evenodd" xlink:href="#path-1"></use>
                                </g>
                                <g id="Path">
                                    <use fill="black" fill-opacity="1" filter="url(#filter-4)" xlink:href="#path-3"></use>
                                    <use fill="#FFFFFF" fill-rule="evenodd" xlink:href="#path-3"></use>
                                </g>
                                <path d="M3.41124111,-4.73695157e-15 L45.7106308,-4.73695157e-15 C47.5946073,-4.73695157e-15 49.1218719,1.49238417 49.1218719,3.33333333 L49.1218719,7.91666667 L0,7.91666667 L0,3.33333333 C0,1.49238417 1.52726466,-4.73695157e-15 3.41124111,-4.73695157e-15 Z" id="Path-Copy" fill="#E8E9EC"></path>
                            </g>
                            <g id="lines" transform="translate(5.457986, 14.000000)" fill="#CCCED3" fill-opacity="0.27" fill-rule="nonzero">
                                <path d="M37.6942142,17.8333333 C37.788413,17.8333333 37.8647763,17.9452621 37.8647763,18.0833333 C37.8647763,18.2016801 37.8086727,18.3008202 37.7333225,18.3267307 L37.6942142,18.3333333 L2.77555756e-17,18.3333333 C-0.094198822,18.3333333 -0.170562055,18.2214045 -0.170562055,18.0833333 C-0.170562055,17.9649866 -0.114458455,17.8658465 -0.0391083144,17.839936 L2.77555756e-17,17.8333333 L37.6942142,17.8333333 Z" id="Line"></path>
                                <path d="M37.6942142,13.4166667 C37.788413,13.4166667 37.8647763,13.5285955 37.8647763,13.6666667 C37.8647763,13.7850134 37.8086727,13.8841535 37.7333225,13.910064 L37.6942142,13.9166667 L2.77555756e-17,13.9166667 C-0.094198822,13.9166667 -0.170562055,13.8047379 -0.170562055,13.6666667 C-0.170562055,13.5483199 -0.114458455,13.4491798 -0.0391083144,13.4232693 L2.77555756e-17,13.4166667 L37.6942142,13.4166667 Z" id="Line-Copy"></path>
                                <path d="M37.6942142,9 C37.788413,9 37.8647763,9.11192881 37.8647763,9.25 C37.8647763,9.36834673 37.8086727,9.46748682 37.7333225,9.49339732 L37.6942142,9.5 L2.77555756e-17,9.5 C-0.094198822,9.5 -0.170562055,9.38807119 -0.170562055,9.25 C-0.170562055,9.13165327 -0.114458455,9.03251318 -0.0391083144,9.00660268 L2.77555756e-17,9 L37.6942142,9 Z" id="Line-Copy-2"></path>
                                <path d="M37.6942142,4.58333333 C37.788413,4.58333333 37.8647763,4.69526215 37.8647763,4.83333333 C37.8647763,4.95168007 37.8086727,5.05082015 37.7333225,5.07673066 L37.6942142,5.08333333 L2.77555756e-17,5.08333333 C-0.094198822,5.08333333 -0.170562055,4.97140452 -0.170562055,4.83333333 C-0.170562055,4.7149866 -0.114458455,4.61584651 -0.0391083144,4.58993601 L2.77555756e-17,4.58333333 L37.6942142,4.58333333 Z" id="Line-Copy-3"></path>
                                <path d="M37.6942142,0.166666667 C37.788413,0.166666667 37.8647763,0.278595479 37.8647763,0.416666667 C37.8647763,0.535013399 37.8086727,0.634153488 37.7333225,0.660063988 L37.6942142,0.666666667 L2.77555756e-17,0.666666667 C-0.094198822,0.666666667 -0.170562055,0.554737854 -0.170562055,0.416666667 C-0.170562055,0.298319935 -0.114458455,0.199179845 -0.0391083144,0.173269345 L2.77555756e-17,0.166666667 L37.6942142,0.166666667 Z" id="Line-Copy-4"></path>
                            </g>
                            <g id="Group" transform="translate(15.691709, 34.666667)">
                                <path d="M2.72899288,0 L6.82248221,0 C7.1992775,0 7.50473043,0.298476833 7.50473043,0.666666667 C7.50473043,1.0348565 7.1992775,1.33333333 6.82248221,1.33333333 L2.72899288,1.33333333 C2.3521976,1.33333333 2.04674466,1.0348565 2.04674466,0.666666667 C2.04674466,0.298476833 2.3521976,0 2.72899288,0 Z" id="Rectangle-Copy-2" fill-opacity="0.35" fill="#67696F"></path>
                                <path d="M12.9627162,0 L17.0562055,0 C17.4330008,0 17.7384537,0.298476833 17.7384537,0.666666667 C17.7384537,1.0348565 17.4330008,1.33333333 17.0562055,1.33333333 L12.9627162,1.33333333 C12.5859209,1.33333333 12.280468,1.0348565 12.280468,0.666666667 C12.280468,0.298476833 12.5859209,0 12.9627162,0 Z" id="Rectangle-Copy-5" fill-opacity="0.35" fill="#67696F"></path>
                                <path d="M0.682248221,0 C1.05904351,0 1.36449644,0.298476833 1.36449644,0.666666667 C1.36449644,1.0348565 1.05904351,1.33333333 0.682248221,1.33333333 C0.305452933,1.33333333 0,1.0348565 0,0.666666667 C0,0.298476833 0.305452933,0 0.682248221,0 Z" id="Rectangle-Copy-4" fill="#DFE0E1" opacity="0.647623698"></path>
                                <path d="M10.9159715,0 C11.2927668,0 11.5982198,0.298476833 11.5982198,0.666666667 C11.5982198,1.0348565 11.2927668,1.33333333 10.9159715,1.33333333 C10.5391762,1.33333333 10.2337233,1.0348565 10.2337233,0.666666667 C10.2337233,0.298476833 10.5391762,0 10.9159715,0 Z" id="Rectangle-Copy-6" fill="#ACAEB2" opacity="0.647623698"></path>
                            </g>
                        </g>
                        <g id="Excel" transform="translate(33.000000, 28.500000) rotate(-26.000000) translate(-33.000000, -28.500000) translate(18.000000, 8.000000)">
                            <g id="Rectangle">
                                <use fill="black" fill-opacity="1" filter="url(#filter-6)" xlink:href="#path-5"></use>
                                <use fill="#FFFFFF" fill-rule="evenodd" xlink:href="#path-5"></use>
                            </g>
                            <g id="Rectangle">
                                <use fill="black" fill-opacity="1" filter="url(#filter-8)" xlink:href="#path-7"></use>
                                <use fill="#FFFFFF" fill-rule="evenodd" xlink:href="#path-7"></use>
                            </g>
                            <g id="Table" transform="translate(0.404585, 2.066493)">
                                <path d="M15.5844987,2.34042553 L19.5805239,2.34042553 C19.8012183,2.34042553 19.9801265,2.51506623 19.9801265,2.73049645 L19.9801265,4.29078014 C19.9801265,4.50621036 19.8012183,4.68085106 19.5805239,4.68085106 L15.5844987,4.68085106 C15.3638043,4.68085106 15.1848961,4.50621036 15.1848961,4.29078014 L15.1848961,2.73049645 C15.1848961,2.51506623 15.3638043,2.34042553 15.5844987,2.34042553 Z" id="Rectangle" fill="#EBEBEC" opacity="0.09"></path>
                                <path d="M2.79721771,2.34042553 L6.793243,2.34042553 C7.01393738,2.34042553 7.19284553,2.51506623 7.19284553,2.73049645 L7.19284553,4.29078014 C7.19284553,4.50621036 7.01393738,4.68085106 6.793243,4.68085106 L2.79721771,4.68085106 C2.57652332,4.68085106 2.39761518,4.50621036 2.39761518,4.29078014 L2.39761518,2.73049645 C2.39761518,2.51506623 2.57652332,2.34042553 2.79721771,2.34042553 Z" id="Rectangle-Copy-8" fill="#EBEBEC" opacity="0.09"></path>
                                <path d="M21.9781391,2.34042553 L25.9741644,2.34042553 C26.1948588,2.34042553 26.3737669,2.51506623 26.3737669,2.73049645 L26.3737669,4.29078014 C26.3737669,4.50621036 26.1948588,4.68085106 25.9741644,4.68085106 L21.9781391,4.68085106 C21.7574447,4.68085106 21.5785366,4.50621036 21.5785366,4.29078014 L21.5785366,2.73049645 C21.5785366,2.51506623 21.7574447,2.34042553 21.9781391,2.34042553 Z" id="Rectangle-Copy-7" fill="#EBEBEC" opacity="0.09"></path>
                                <path d="M9.19085818,2.34042553 L13.1868835,2.34042553 C13.4075779,2.34042553 13.586486,2.51506623 13.586486,2.73049645 L13.586486,4.29078014 C13.586486,4.50621036 13.4075779,4.68085106 13.1868835,4.68085106 L9.19085818,4.68085106 C8.9701638,4.68085106 8.79125565,4.50621036 8.79125565,4.29078014 L8.79125565,2.73049645 C8.79125565,2.51506623 8.9701638,2.34042553 9.19085818,2.34042553 Z" id="Rectangle-Copy-9" fill="#EBEBEC" opacity="0.09"></path>
                                <path d="M15.5844987,6.24113475 L19.5805239,6.24113475 C19.8012183,6.24113475 19.9801265,6.41577545 19.9801265,6.63120567 L19.9801265,8.19148936 C19.9801265,8.40691958 19.8012183,8.58156028 19.5805239,8.58156028 L15.5844987,8.58156028 C15.3638043,8.58156028 15.1848961,8.40691958 15.1848961,8.19148936 L15.1848961,6.63120567 C15.1848961,6.41577545 15.3638043,6.24113475 15.5844987,6.24113475 Z" id="Rectangle" fill="#EBEBEC" opacity="0.09"></path>
                                <path d="M2.79721771,6.24113475 L6.793243,6.24113475 C7.01393738,6.24113475 7.19284553,6.41577545 7.19284553,6.63120567 L7.19284553,8.19148936 C7.19284553,8.40691958 7.01393738,8.58156028 6.793243,8.58156028 L2.79721771,8.58156028 C2.57652332,8.58156028 2.39761518,8.40691958 2.39761518,8.19148936 L2.39761518,6.63120567 C2.39761518,6.41577545 2.57652332,6.24113475 2.79721771,6.24113475 Z" id="Rectangle-Copy-8" fill="#EBEBEC" opacity="0.09"></path>
                                <path d="M21.9781391,6.24113475 L25.9741644,6.24113475 C26.1948588,6.24113475 26.3737669,6.41577545 26.3737669,6.63120567 L26.3737669,8.19148936 C26.3737669,8.40691958 26.1948588,8.58156028 25.9741644,8.58156028 L21.9781391,8.58156028 C21.7574447,8.58156028 21.5785366,8.40691958 21.5785366,8.19148936 L21.5785366,6.63120567 C21.5785366,6.41577545 21.7574447,6.24113475 21.9781391,6.24113475 Z" id="Rectangle-Copy-7" fill="#EBEBEC" opacity="0.09"></path>
                                <path d="M9.19085818,6.24113475 L13.1868835,6.24113475 C13.4075779,6.24113475 13.586486,6.41577545 13.586486,6.63120567 L13.586486,8.19148936 C13.586486,8.40691958 13.4075779,8.58156028 13.1868835,8.58156028 L9.19085818,8.58156028 C8.9701638,8.58156028 8.79125565,8.40691958 8.79125565,8.19148936 L8.79125565,6.63120567 C8.79125565,6.41577545 8.9701638,6.24113475 9.19085818,6.24113475 Z" id="Rectangle-Copy-9" fill="#EBEBEC" opacity="0.09"></path>
                                <path d="M15.5844987,10.141844 L19.5805239,10.141844 C19.8012183,10.141844 19.9801265,10.3164847 19.9801265,10.5319149 L19.9801265,12.0921986 C19.9801265,12.3076288 19.8012183,12.4822695 19.5805239,12.4822695 L15.5844987,12.4822695 C15.3638043,12.4822695 15.1848961,12.3076288 15.1848961,12.0921986 L15.1848961,10.5319149 C15.1848961,10.3164847 15.3638043,10.141844 15.5844987,10.141844 Z" id="Rectangle" fill="#EBEBEC" opacity="0.09"></path>
                                <path d="M2.79721771,10.141844 L6.793243,10.141844 C7.01393738,10.141844 7.19284553,10.3164847 7.19284553,10.5319149 L7.19284553,12.0921986 C7.19284553,12.3076288 7.01393738,12.4822695 6.793243,12.4822695 L2.79721771,12.4822695 C2.57652332,12.4822695 2.39761518,12.3076288 2.39761518,12.0921986 L2.39761518,10.5319149 C2.39761518,10.3164847 2.57652332,10.141844 2.79721771,10.141844 Z" id="Rectangle-Copy-8" fill="#EBEBEC" opacity="0.09"></path>
                                <path d="M21.9781391,10.141844 L25.9741644,10.141844 C26.1948588,10.141844 26.3737669,10.3164847 26.3737669,10.5319149 L26.3737669,12.0921986 C26.3737669,12.3076288 26.1948588,12.4822695 25.9741644,12.4822695 L21.9781391,12.4822695 C21.7574447,12.4822695 21.5785366,12.3076288 21.5785366,12.0921986 L21.5785366,10.5319149 C21.5785366,10.3164847 21.7574447,10.141844 21.9781391,10.141844 Z" id="Rectangle-Copy-7" fill="#EBEBEC" opacity="0.09"></path>
                                <path d="M9.19085818,10.141844 L13.1868835,10.141844 C13.4075779,10.141844 13.586486,10.3164847 13.586486,10.5319149 L13.586486,12.0921986 C13.586486,12.3076288 13.4075779,12.4822695 13.1868835,12.4822695 L9.19085818,12.4822695 C8.9701638,12.4822695 8.79125565,12.3076288 8.79125565,12.0921986 L8.79125565,10.5319149 C8.79125565,10.3164847 8.9701638,10.141844 9.19085818,10.141844 Z" id="Rectangle-Copy-9" fill="#EBEBEC" opacity="0.09"></path>
                                <path d="M15.5844987,14.0425532 L19.5805239,14.0425532 C19.8012183,14.0425532 19.9801265,14.2171939 19.9801265,14.4326241 L19.9801265,15.9929078 C19.9801265,16.208338 19.8012183,16.3829787 19.5805239,16.3829787 L15.5844987,16.3829787 C15.3638043,16.3829787 15.1848961,16.208338 15.1848961,15.9929078 L15.1848961,14.4326241 C15.1848961,14.2171939 15.3638043,14.0425532 15.5844987,14.0425532 Z" id="Rectangle" fill="#EBEBEC" opacity="0.09"></path>
                                <path d="M2.79721771,14.0425532 L6.793243,14.0425532 C7.01393738,14.0425532 7.19284553,14.2171939 7.19284553,14.4326241 L7.19284553,15.9929078 C7.19284553,16.208338 7.01393738,16.3829787 6.793243,16.3829787 L2.79721771,16.3829787 C2.57652332,16.3829787 2.39761518,16.208338 2.39761518,15.9929078 L2.39761518,14.4326241 C2.39761518,14.2171939 2.57652332,14.0425532 2.79721771,14.0425532 Z" id="Rectangle-Copy-8" fill="#EBEBEC" opacity="0.09"></path>
                                <path d="M21.9781391,14.0425532 L25.9741644,14.0425532 C26.1948588,14.0425532 26.3737669,14.2171939 26.3737669,14.4326241 L26.3737669,15.9929078 C26.3737669,16.208338 26.1948588,16.3829787 25.9741644,16.3829787 L21.9781391,16.3829787 C21.7574447,16.3829787 21.5785366,16.208338 21.5785366,15.9929078 L21.5785366,14.4326241 C21.5785366,14.2171939 21.7574447,14.0425532 21.9781391,14.0425532 Z" id="Rectangle-Copy-7" fill="#EBEBEC" opacity="0.09"></path>
                                <path d="M9.19085818,14.0425532 L13.1868835,14.0425532 C13.4075779,14.0425532 13.586486,14.2171939 13.586486,14.4326241 L13.586486,15.9929078 C13.586486,16.208338 13.4075779,16.3829787 13.1868835,16.3829787 L9.19085818,16.3829787 C8.9701638,16.3829787 8.79125565,16.208338 8.79125565,15.9929078 L8.79125565,14.4326241 C8.79125565,14.2171939 8.9701638,14.0425532 9.19085818,14.0425532 Z" id="Rectangle-Copy-9" fill="#EBEBEC" opacity="0.09"></path>
                                <path d="M15.5844987,17.9432624 L19.5805239,17.9432624 C19.8012183,17.9432624 19.9801265,18.1179031 19.9801265,18.3333333 L19.9801265,19.893617 C19.9801265,20.1090472 19.8012183,20.2836879 19.5805239,20.2836879 L15.5844987,20.2836879 C15.3638043,20.2836879 15.1848961,20.1090472 15.1848961,19.893617 L15.1848961,18.3333333 C15.1848961,18.1179031 15.3638043,17.9432624 15.5844987,17.9432624 Z" id="Rectangle" fill="#EBEBEC" opacity="0.09"></path>
                                <path d="M2.79721771,17.9432624 L6.793243,17.9432624 C7.01393738,17.9432624 7.19284553,18.1179031 7.19284553,18.3333333 L7.19284553,19.893617 C7.19284553,20.1090472 7.01393738,20.2836879 6.793243,20.2836879 L2.79721771,20.2836879 C2.57652332,20.2836879 2.39761518,20.1090472 2.39761518,19.893617 L2.39761518,18.3333333 C2.39761518,18.1179031 2.57652332,17.9432624 2.79721771,17.9432624 Z" id="Rectangle-Copy-8" fill="#EBEBEC" opacity="0.09"></path>
                                <path d="M21.9781391,17.9432624 L25.9741644,17.9432624 C26.1948588,17.9432624 26.3737669,18.1179031 26.3737669,18.3333333 L26.3737669,19.893617 C26.3737669,20.1090472 26.1948588,20.2836879 25.9741644,20.2836879 L21.9781391,20.2836879 C21.7574447,20.2836879 21.5785366,20.1090472 21.5785366,19.893617 L21.5785366,18.3333333 C21.5785366,18.1179031 21.7574447,17.9432624 21.9781391,17.9432624 Z" id="Rectangle-Copy-7" fill="#EBEBEC" opacity="0.09"></path>
                                <path d="M9.19085818,17.9432624 L13.1868835,17.9432624 C13.4075779,17.9432624 13.586486,18.1179031 13.586486,18.3333333 L13.586486,19.893617 C13.586486,20.1090472 13.4075779,20.2836879 13.1868835,20.2836879 L9.19085818,20.2836879 C8.9701638,20.2836879 8.79125565,20.1090472 8.79125565,19.893617 L8.79125565,18.3333333 C8.79125565,18.1179031 8.9701638,17.9432624 9.19085818,17.9432624 Z" id="Rectangle-Copy-9" fill="#EBEBEC" opacity="0.09"></path>
                                <path d="M15.5844987,21.8439716 L19.5805239,21.8439716 C19.8012183,21.8439716 19.9801265,22.0186123 19.9801265,22.2340426 L19.9801265,23.7943262 C19.9801265,24.0097565 19.8012183,24.1843972 19.5805239,24.1843972 L15.5844987,24.1843972 C15.3638043,24.1843972 15.1848961,24.0097565 15.1848961,23.7943262 L15.1848961,22.2340426 C15.1848961,22.0186123 15.3638043,21.8439716 15.5844987,21.8439716 Z" id="Rectangle" fill="#EBEBEC" opacity="0.09"></path>
                                <path d="M2.79721771,21.8439716 L6.793243,21.8439716 C7.01393738,21.8439716 7.19284553,22.0186123 7.19284553,22.2340426 L7.19284553,23.7943262 C7.19284553,24.0097565 7.01393738,24.1843972 6.793243,24.1843972 L2.79721771,24.1843972 C2.57652332,24.1843972 2.39761518,24.0097565 2.39761518,23.7943262 L2.39761518,22.2340426 C2.39761518,22.0186123 2.57652332,21.8439716 2.79721771,21.8439716 Z" id="Rectangle-Copy-8" fill="#EBEBEC" opacity="0.09"></path>
                                <path d="M21.9781391,21.8439716 L25.9741644,21.8439716 C26.1948588,21.8439716 26.3737669,22.0186123 26.3737669,22.2340426 L26.3737669,23.7943262 C26.3737669,24.0097565 26.1948588,24.1843972 25.9741644,24.1843972 L21.9781391,24.1843972 C21.7574447,24.1843972 21.5785366,24.0097565 21.5785366,23.7943262 L21.5785366,22.2340426 C21.5785366,22.0186123 21.7574447,21.8439716 21.9781391,21.8439716 Z" id="Rectangle-Copy-7" fill="#EBEBEC" opacity="0.09"></path>
                                <path d="M9.19085818,21.8439716 L13.1868835,21.8439716 C13.4075779,21.8439716 13.586486,22.0186123 13.586486,22.2340426 L13.586486,23.7943262 C13.586486,24.0097565 13.4075779,24.1843972 13.1868835,24.1843972 L9.19085818,24.1843972 C8.9701638,24.1843972 8.79125565,24.0097565 8.79125565,23.7943262 L8.79125565,22.2340426 C8.79125565,22.0186123 8.9701638,21.8439716 9.19085818,21.8439716 Z" id="Rectangle-Copy-9" fill="#EBEBEC" opacity="0.09"></path>
                                <path d="M15.5844987,25.7446809 L19.5805239,25.7446809 C19.8012183,25.7446809 19.9801265,25.9193216 19.9801265,26.1347518 L19.9801265,27.6950355 C19.9801265,27.9104657 19.8012183,28.0851064 19.5805239,28.0851064 L15.5844987,28.0851064 C15.3638043,28.0851064 15.1848961,27.9104657 15.1848961,27.6950355 L15.1848961,26.1347518 C15.1848961,25.9193216 15.3638043,25.7446809 15.5844987,25.7446809 Z" id="Rectangle" fill="#EBEBEC" opacity="0.09"></path>
                                <path d="M2.79721771,25.7446809 L6.793243,25.7446809 C7.01393738,25.7446809 7.19284553,25.9193216 7.19284553,26.1347518 L7.19284553,27.6950355 C7.19284553,27.9104657 7.01393738,28.0851064 6.793243,28.0851064 L2.79721771,28.0851064 C2.57652332,28.0851064 2.39761518,27.9104657 2.39761518,27.6950355 L2.39761518,26.1347518 C2.39761518,25.9193216 2.57652332,25.7446809 2.79721771,25.7446809 Z" id="Rectangle-Copy-8" fill="#EBEBEC" opacity="0.09"></path>
                                <path d="M21.9781391,25.7446809 L25.9741644,25.7446809 C26.1948588,25.7446809 26.3737669,25.9193216 26.3737669,26.1347518 L26.3737669,27.6950355 C26.3737669,27.9104657 26.1948588,28.0851064 25.9741644,28.0851064 L21.9781391,28.0851064 C21.7574447,28.0851064 21.5785366,27.9104657 21.5785366,27.6950355 L21.5785366,26.1347518 C21.5785366,25.9193216 21.7574447,25.7446809 21.9781391,25.7446809 Z" id="Rectangle-Copy-7" fill="#EBEBEC" opacity="0.09"></path>
                                <path d="M9.19085818,25.7446809 L13.1868835,25.7446809 C13.4075779,25.7446809 13.586486,25.9193216 13.586486,26.1347518 L13.586486,27.6950355 C13.586486,27.9104657 13.4075779,28.0851064 13.1868835,28.0851064 L9.19085818,28.0851064 C8.9701638,28.0851064 8.79125565,27.9104657 8.79125565,27.6950355 L8.79125565,26.1347518 C8.79125565,25.9193216 8.9701638,25.7446809 9.19085818,25.7446809 Z" id="Rectangle-Copy-9" fill="#EBEBEC" opacity="0.09"></path>
                                <path d="M15.5844987,29.6453901 L19.5805239,29.6453901 C19.8012183,29.6453901 19.9801265,29.8200308 19.9801265,30.035461 L19.9801265,31.5957447 C19.9801265,31.8111749 19.8012183,31.9858156 19.5805239,31.9858156 L15.5844987,31.9858156 C15.3638043,31.9858156 15.1848961,31.8111749 15.1848961,31.5957447 L15.1848961,30.035461 C15.1848961,29.8200308 15.3638043,29.6453901 15.5844987,29.6453901 Z" id="Rectangle" fill="#EBEBEC" opacity="0.09"></path>
                                <path d="M2.79721771,29.6453901 L6.793243,29.6453901 C7.01393738,29.6453901 7.19284553,29.8200308 7.19284553,30.035461 L7.19284553,31.5957447 C7.19284553,31.8111749 7.01393738,31.9858156 6.793243,31.9858156 L2.79721771,31.9858156 C2.57652332,31.9858156 2.39761518,31.8111749 2.39761518,31.5957447 L2.39761518,30.035461 C2.39761518,29.8200308 2.57652332,29.6453901 2.79721771,29.6453901 Z" id="Rectangle-Copy-8" fill="#EBEBEC" opacity="0.09"></path>
                                <path d="M21.9781391,29.6453901 L25.9741644,29.6453901 C26.1948588,29.6453901 26.3737669,29.8200308 26.3737669,30.035461 L26.3737669,31.5957447 C26.3737669,31.8111749 26.1948588,31.9858156 25.9741644,31.9858156 L21.9781391,31.9858156 C21.7574447,31.9858156 21.5785366,31.8111749 21.5785366,31.5957447 L21.5785366,30.035461 C21.5785366,29.8200308 21.7574447,29.6453901 21.9781391,29.6453901 Z" id="Rectangle-Copy-7" fill="#EBEBEC" opacity="0.09"></path>
                                <path d="M9.19085818,29.6453901 L13.1868835,29.6453901 C13.4075779,29.6453901 13.586486,29.8200308 13.586486,30.035461 L13.586486,31.5957447 C13.586486,31.8111749 13.4075779,31.9858156 13.1868835,31.9858156 L9.19085818,31.9858156 C8.9701638,31.9858156 8.79125565,31.8111749 8.79125565,31.5957447 L8.79125565,30.035461 C8.79125565,29.8200308 8.9701638,29.6453901 9.19085818,29.6453901 Z" id="Rectangle-Copy-9" fill="#EBEBEC" opacity="0.09"></path>
                                <path d="M15.5844987,33.5460993 L19.5805239,33.5460993 C19.8012183,33.5460993 19.9801265,33.72074 19.9801265,33.9361702 L19.9801265,35.4964539 C19.9801265,35.7118841 19.8012183,35.8865248 19.5805239,35.8865248 L15.5844987,35.8865248 C15.3638043,35.8865248 15.1848961,35.7118841 15.1848961,35.4964539 L15.1848961,33.9361702 C15.1848961,33.72074 15.3638043,33.5460993 15.5844987,33.5460993 Z" id="Rectangle" fill="#EBEBEC" opacity="0.09"></path>
                                <path d="M2.79721771,33.5460993 L6.793243,33.5460993 C7.01393738,33.5460993 7.19284553,33.72074 7.19284553,33.9361702 L7.19284553,35.4964539 C7.19284553,35.7118841 7.01393738,35.8865248 6.793243,35.8865248 L2.79721771,35.8865248 C2.57652332,35.8865248 2.39761518,35.7118841 2.39761518,35.4964539 L2.39761518,33.9361702 C2.39761518,33.72074 2.57652332,33.5460993 2.79721771,33.5460993 Z" id="Rectangle-Copy-8" fill="#EBEBEC" opacity="0.09"></path>
                                <path d="M21.9781391,33.5460993 L25.9741644,33.5460993 C26.1948588,33.5460993 26.3737669,33.72074 26.3737669,33.9361702 L26.3737669,35.4964539 C26.3737669,35.7118841 26.1948588,35.8865248 25.9741644,35.8865248 L21.9781391,35.8865248 C21.7574447,35.8865248 21.5785366,35.7118841 21.5785366,35.4964539 L21.5785366,33.9361702 C21.5785366,33.72074 21.7574447,33.5460993 21.9781391,33.5460993 Z" id="Rectangle-Copy-7" fill="#EBEBEC" opacity="0.09"></path>
                                <path d="M9.19085818,33.5460993 L13.1868835,33.5460993 C13.4075779,33.5460993 13.586486,33.72074 13.586486,33.9361702 L13.586486,35.4964539 C13.586486,35.7118841 13.4075779,35.8865248 13.1868835,35.8865248 L9.19085818,35.8865248 C8.9701638,35.8865248 8.79125565,35.7118841 8.79125565,35.4964539 L8.79125565,33.9361702 C8.79125565,33.72074 8.9701638,33.5460993 9.19085818,33.5460993 Z" id="Rectangle-Copy-9" fill="#EBEBEC" opacity="0.09"></path>
                                <polygon id="Rectangle" fill="url(#linearGradient-9)" points="0 0 27.9721771 0 27.9721771 36.6666667 0 36.6666667"></polygon>
                            </g>
                            <polygon id="X" fill-opacity="0.8" fill="#CCCED3" fill-rule="nonzero" points="6.06500446 37.0111687 8.78201055 33.480845 11.4990166 37.0111687 14.3278995 37.0111687 10.3802494 32.3061984 14.0482077 27.6778354 11.3791487 27.6778354 8.90986966 31.0357925 6.39264343 27.6778354 3.65965494 27.6778354 7.2876572 32.1976712 3.41192792 37.0111687"></polygon>
                        </g>
                    </g>
                </g>
            </g>
        </g>
    </g>
</svg>
