<?xml version="1.0" encoding="UTF-8"?>
<svg width="49px" height="65px" viewBox="0 0 49 65" version="1.1" xmlns="http://www.w3.org/2000/svg" xmlns:xlink="http://www.w3.org/1999/xlink">
    <title>9510B86A-0F99-47CC-B5B5-DB40AAA94A10@1.00x</title>
    <defs>
        <linearGradient x1="50%" y1="1.00031672%" x2="50%" y2="99.3243243%" id="excel-file-linearGradient">
            <stop stop-color="#FFFFFF" stop-opacity="0" offset="0%"></stop>
            <stop stop-color="#FFFFFF" offset="100%"></stop>
        </linearGradient>
    </defs>
    <g id="Installation-two-phases" stroke="none" stroke-width="1" fill="none" fill-rule="evenodd">
        <g id="Classification_upload-flow" transform="translate(-659.000000, -335.000000)">
            <g id="upload-a-classification-file-dialog" transform="translate(283.000000, 117.000000)">
                <g id="Drag-and-drop-or-browse" transform="translate(248.000000, 187.000000)">
                    <g id="Excel-Drawing" transform="translate(128.000000, 31.000000)">
                        <path d="M46.8974708,0.750236409 C47.1410031,0.750236409 47.362459,0.842544847 47.5223897,0.994859782 C47.6732748,1.13855993 47.7688994,1.33643234 47.7688994,1.55635886 L47.7688994,1.55635886 L47.7688994,62.944114 C47.7688994,63.1640405 47.6732748,63.3619129 47.5223897,63.505613 C47.362459,63.657928 47.1410031,63.7502364 46.8974708,63.7502364 L46.8974708,63.7502364 L1.64032797,63.7502364 C1.39679573,63.7502364 1.1753398,63.657928 1.01540911,63.505613 C0.864523962,63.3619129 0.768899399,63.1640405 0.768899399,62.944114 L0.768899399,62.944114 L0.768899399,1.55635886 C0.768899399,1.33643234 0.864523962,1.13855993 1.01540911,0.994859782 C1.1753398,0.842544847 1.39679573,0.750236409 1.64032797,0.750236409 L1.64032797,0.750236409 Z" id="Rectangle" stroke="#D6DEF7" fill="#FFFFFF"></path>
                        <g id="Table" transform="translate(2.277536, 2.798952)">
                            <path d="M24.3555257,1.47457406 L31.2454429,1.47457406 C31.6259626,1.47457406 31.9344347,1.76866632 31.9344347,2.13144752 L31.9344347,4.75894133 C31.9344347,5.12172252 31.6259626,5.41581479 31.2454429,5.41581479 L24.3555257,5.41581479 C23.9750061,5.41581479 23.666534,5.12172252 23.666534,4.75894133 L23.666534,2.13144752 C23.666534,1.76866632 23.9750061,1.47457406 24.3555257,1.47457406 Z" id="Rectangle" fill="#D6DEF7"></path>
                            <path d="M2.30779055,1.47457406 L9.19770778,1.47457406 C9.57822741,1.47457406 9.88669951,1.76866632 9.88669951,2.13144752 L9.88669951,4.75894133 C9.88669951,5.12172252 9.57822741,5.41581479 9.19770778,5.41581479 L2.30779055,5.41581479 C1.92727093,5.41581479 1.61879883,5.12172252 1.61879883,4.75894133 L1.61879883,2.13144752 C1.61879883,1.76866632 1.92727093,1.47457406 2.30779055,1.47457406 Z" id="Rectangle-Copy-8" fill="#D6DEF7"></path>
                            <path d="M35.3793933,1.47457406 L42.2693105,1.47457406 C42.6498301,1.47457406 42.9583022,1.76866632 42.9583022,2.13144752 L42.9583022,4.75894133 C42.9583022,5.12172252 42.6498301,5.41581479 42.2693105,5.41581479 L35.3793933,5.41581479 C34.9988737,5.41581479 34.6904016,5.12172252 34.6904016,4.75894133 L34.6904016,2.13144752 C34.6904016,1.76866632 34.9988737,1.47457406 35.3793933,1.47457406 Z" id="Rectangle-Copy-7" fill="#D6DEF7"></path>
                            <path d="M13.3316581,1.47457406 L20.2215754,1.47457406 C20.602095,1.47457406 20.9105671,1.76866632 20.9105671,2.13144752 L20.9105671,4.75894133 C20.9105671,5.12172252 20.602095,5.41581479 20.2215754,5.41581479 L13.3316581,5.41581479 C12.9511385,5.41581479 12.6426664,5.12172252 12.6426664,4.75894133 L12.6426664,2.13144752 C12.6426664,1.76866632 12.9511385,1.47457406 13.3316581,1.47457406 Z" id="Rectangle-Copy-9" fill="#D6DEF7"></path>
                            <path d="M24.3555257,8.04330861 L31.2454429,8.04330861 C31.6259626,8.04330861 31.9344347,8.33740087 31.9344347,8.70018206 L31.9344347,11.3276759 C31.9344347,11.6904571 31.6259626,11.9845493 31.2454429,11.9845493 L24.3555257,11.9845493 C23.9750061,11.9845493 23.666534,11.6904571 23.666534,11.3276759 L23.666534,8.70018206 C23.666534,8.33740087 23.9750061,8.04330861 24.3555257,8.04330861 Z" id="Rectangle" fill="#D6DEF7"></path>
                            <path d="M2.30779055,8.04330861 L9.19770778,8.04330861 C9.57822741,8.04330861 9.88669951,8.33740087 9.88669951,8.70018206 L9.88669951,11.3276759 C9.88669951,11.6904571 9.57822741,11.9845493 9.19770778,11.9845493 L2.30779055,11.9845493 C1.92727093,11.9845493 1.61879883,11.6904571 1.61879883,11.3276759 L1.61879883,8.70018206 C1.61879883,8.33740087 1.92727093,8.04330861 2.30779055,8.04330861 Z" id="Rectangle-Copy-8" fill="#D6DEF7"></path>
                            <path d="M35.3793933,8.04330861 L42.2693105,8.04330861 C42.6498301,8.04330861 42.9583022,8.33740087 42.9583022,8.70018206 L42.9583022,11.3276759 C42.9583022,11.6904571 42.6498301,11.9845493 42.2693105,11.9845493 L35.3793933,11.9845493 C34.9988737,11.9845493 34.6904016,11.6904571 34.6904016,11.3276759 L34.6904016,8.70018206 C34.6904016,8.33740087 34.9988737,8.04330861 35.3793933,8.04330861 Z" id="Rectangle-Copy-7" fill="#D6DEF7"></path>
                            <path d="M13.3316581,8.04330861 L20.2215754,8.04330861 C20.602095,8.04330861 20.9105671,8.33740087 20.9105671,8.70018206 L20.9105671,11.3276759 C20.9105671,11.6904571 20.602095,11.9845493 20.2215754,11.9845493 L13.3316581,11.9845493 C12.9511385,11.9845493 12.6426664,11.6904571 12.6426664,11.3276759 L12.6426664,8.70018206 C12.6426664,8.33740087 12.9511385,8.04330861 13.3316581,8.04330861 Z" id="Rectangle-Copy-9" fill="#D6DEF7"></path>
                            <path d="M24.3555257,14.6120432 L31.2454429,14.6120432 C31.6259626,14.6120432 31.9344347,14.9061354 31.9344347,15.2689166 L31.9344347,17.8964104 C31.9344347,18.2591916 31.6259626,18.5532839 31.2454429,18.5532839 L24.3555257,18.5532839 C23.9750061,18.5532839 23.666534,18.2591916 23.666534,17.8964104 L23.666534,15.2689166 C23.666534,14.9061354 23.9750061,14.6120432 24.3555257,14.6120432 Z" id="Rectangle" fill="#D6DEF7"></path>
                            <path d="M2.30779055,14.6120432 L9.19770778,14.6120432 C9.57822741,14.6120432 9.88669951,14.9061354 9.88669951,15.2689166 L9.88669951,17.8964104 C9.88669951,18.2591916 9.57822741,18.5532839 9.19770778,18.5532839 L2.30779055,18.5532839 C1.92727093,18.5532839 1.61879883,18.2591916 1.61879883,17.8964104 L1.61879883,15.2689166 C1.61879883,14.9061354 1.92727093,14.6120432 2.30779055,14.6120432 Z" id="Rectangle-Copy-8" fill="#D6DEF7"></path>
                            <path d="M35.3793933,14.6120432 L42.2693105,14.6120432 C42.6498301,14.6120432 42.9583022,14.9061354 42.9583022,15.2689166 L42.9583022,17.8964104 C42.9583022,18.2591916 42.6498301,18.5532839 42.2693105,18.5532839 L35.3793933,18.5532839 C34.9988737,18.5532839 34.6904016,18.2591916 34.6904016,17.8964104 L34.6904016,15.2689166 C34.6904016,14.9061354 34.9988737,14.6120432 35.3793933,14.6120432 Z" id="Rectangle-Copy-7" fill="#D6DEF7"></path>
                            <path d="M13.3316581,14.6120432 L20.2215754,14.6120432 C20.602095,14.6120432 20.9105671,14.9061354 20.9105671,15.2689166 L20.9105671,17.8964104 C20.9105671,18.2591916 20.602095,18.5532839 20.2215754,18.5532839 L13.3316581,18.5532839 C12.9511385,18.5532839 12.6426664,18.2591916 12.6426664,17.8964104 L12.6426664,15.2689166 C12.6426664,14.9061354 12.9511385,14.6120432 13.3316581,14.6120432 Z" id="Rectangle-Copy-9" fill="#D6DEF7"></path>
                            <path d="M24.3555257,21.1807777 L31.2454429,21.1807777 C31.6259626,21.1807777 31.9344347,21.47487 31.9344347,21.8376512 L31.9344347,24.465145 C31.9344347,24.8279262 31.6259626,25.1220184 31.2454429,25.1220184 L24.3555257,25.1220184 C23.9750061,25.1220184 23.666534,24.8279262 23.666534,24.465145 L23.666534,21.8376512 C23.666534,21.47487 23.9750061,21.1807777 24.3555257,21.1807777 Z" id="Rectangle" fill="#D6DEF7"></path>
                            <path d="M2.30779055,21.1807777 L9.19770778,21.1807777 C9.57822741,21.1807777 9.88669951,21.47487 9.88669951,21.8376512 L9.88669951,24.465145 C9.88669951,24.8279262 9.57822741,25.1220184 9.19770778,25.1220184 L2.30779055,25.1220184 C1.92727093,25.1220184 1.61879883,24.8279262 1.61879883,24.465145 L1.61879883,21.8376512 C1.61879883,21.47487 1.92727093,21.1807777 2.30779055,21.1807777 Z" id="Rectangle-Copy-8" fill="#D6DEF7"></path>
                            <path d="M35.3793933,21.1807777 L42.2693105,21.1807777 C42.6498301,21.1807777 42.9583022,21.47487 42.9583022,21.8376512 L42.9583022,24.465145 C42.9583022,24.8279262 42.6498301,25.1220184 42.2693105,25.1220184 L35.3793933,25.1220184 C34.9988737,25.1220184 34.6904016,24.8279262 34.6904016,24.465145 L34.6904016,21.8376512 C34.6904016,21.47487 34.9988737,21.1807777 35.3793933,21.1807777 Z" id="Rectangle-Copy-7" fill="#D6DEF7"></path>
                            <path d="M13.3316581,21.1807777 L20.2215754,21.1807777 C20.602095,21.1807777 20.9105671,21.47487 20.9105671,21.8376512 L20.9105671,24.465145 C20.9105671,24.8279262 20.602095,25.1220184 20.2215754,25.1220184 L13.3316581,25.1220184 C12.9511385,25.1220184 12.6426664,24.8279262 12.6426664,24.465145 L12.6426664,21.8376512 C12.6426664,21.47487 12.9511385,21.1807777 13.3316581,21.1807777 Z" id="Rectangle-Copy-9" fill="#D6DEF7"></path>
                            <path d="M24.3555257,27.7495122 L31.2454429,27.7495122 C31.6259626,27.7495122 31.9344347,28.0436045 31.9344347,28.4063857 L31.9344347,31.0338795 C31.9344347,31.3966607 31.6259626,31.690753 31.2454429,31.690753 L24.3555257,31.690753 C23.9750061,31.690753 23.666534,31.3966607 23.666534,31.0338795 L23.666534,28.4063857 C23.666534,28.0436045 23.9750061,27.7495122 24.3555257,27.7495122 Z" id="Rectangle" fill="#D6DEF7"></path>
                            <path d="M2.30779055,27.7495122 L9.19770778,27.7495122 C9.57822741,27.7495122 9.88669951,28.0436045 9.88669951,28.4063857 L9.88669951,31.0338795 C9.88669951,31.3966607 9.57822741,31.690753 9.19770778,31.690753 L2.30779055,31.690753 C1.92727093,31.690753 1.61879883,31.3966607 1.61879883,31.0338795 L1.61879883,28.4063857 C1.61879883,28.0436045 1.92727093,27.7495122 2.30779055,27.7495122 Z" id="Rectangle-Copy-8" fill="#D6DEF7"></path>
                            <path d="M35.3793933,27.7495122 L42.2693105,27.7495122 C42.6498301,27.7495122 42.9583022,28.0436045 42.9583022,28.4063857 L42.9583022,31.0338795 C42.9583022,31.3966607 42.6498301,31.690753 42.2693105,31.690753 L35.3793933,31.690753 C34.9988737,31.690753 34.6904016,31.3966607 34.6904016,31.0338795 L34.6904016,28.4063857 C34.6904016,28.0436045 34.9988737,27.7495122 35.3793933,27.7495122 Z" id="Rectangle-Copy-7" fill="#D6DEF7"></path>
                            <path d="M13.3316581,27.7495122 L20.2215754,27.7495122 C20.602095,27.7495122 20.9105671,28.0436045 20.9105671,28.4063857 L20.9105671,31.0338795 C20.9105671,31.3966607 20.602095,31.690753 20.2215754,31.690753 L13.3316581,31.690753 C12.9511385,31.690753 12.6426664,31.3966607 12.6426664,31.0338795 L12.6426664,28.4063857 C12.6426664,28.0436045 12.9511385,27.7495122 13.3316581,27.7495122 Z" id="Rectangle-Copy-9" fill="#D6DEF7"></path>
                            <path d="M24.3555257,34.3182468 L31.2454429,34.3182468 C31.6259626,34.3182468 31.9344347,34.612339 31.9344347,34.9751202 L31.9344347,37.6026141 C31.9344347,37.9653953 31.6259626,38.2594875 31.2454429,38.2594875 L24.3555257,38.2594875 C23.9750061,38.2594875 23.666534,37.9653953 23.666534,37.6026141 L23.666534,34.9751202 C23.666534,34.612339 23.9750061,34.3182468 24.3555257,34.3182468 Z" id="Rectangle" fill="#D6DEF7"></path>
                            <path d="M2.30779055,34.3182468 L9.19770778,34.3182468 C9.57822741,34.3182468 9.88669951,34.612339 9.88669951,34.9751202 L9.88669951,37.6026141 C9.88669951,37.9653953 9.57822741,38.2594875 9.19770778,38.2594875 L2.30779055,38.2594875 C1.92727093,38.2594875 1.61879883,37.9653953 1.61879883,37.6026141 L1.61879883,34.9751202 C1.61879883,34.612339 1.92727093,34.3182468 2.30779055,34.3182468 Z" id="Rectangle-Copy-8" fill="#D6DEF7"></path>
                            <path d="M35.3793933,34.3182468 L42.2693105,34.3182468 C42.6498301,34.3182468 42.9583022,34.612339 42.9583022,34.9751202 L42.9583022,37.6026141 C42.9583022,37.9653953 42.6498301,38.2594875 42.2693105,38.2594875 L35.3793933,38.2594875 C34.9988737,38.2594875 34.6904016,37.9653953 34.6904016,37.6026141 L34.6904016,34.9751202 C34.6904016,34.612339 34.9988737,34.3182468 35.3793933,34.3182468 Z" id="Rectangle-Copy-7" fill="#D6DEF7"></path>
                            <path d="M13.3316581,34.3182468 L20.2215754,34.3182468 C20.602095,34.3182468 20.9105671,34.612339 20.9105671,34.9751202 L20.9105671,37.6026141 C20.9105671,37.9653953 20.602095,38.2594875 20.2215754,38.2594875 L13.3316581,38.2594875 C12.9511385,38.2594875 12.6426664,37.9653953 12.6426664,37.6026141 L12.6426664,34.9751202 C12.6426664,34.612339 12.9511385,34.3182468 13.3316581,34.3182468 Z" id="Rectangle-Copy-9" fill="#D6DEF7"></path>
                            <path d="M24.3555257,40.8869813 L31.2454429,40.8869813 C31.6259626,40.8869813 31.9344347,41.1810736 31.9344347,41.5438548 L31.9344347,44.1713486 C31.9344347,44.5341298 31.6259626,44.8282221 31.2454429,44.8282221 L24.3555257,44.8282221 C23.9750061,44.8282221 23.666534,44.5341298 23.666534,44.1713486 L23.666534,41.5438548 C23.666534,41.1810736 23.9750061,40.8869813 24.3555257,40.8869813 Z" id="Rectangle" fill="#D6DEF7"></path>
                            <path d="M2.30779055,40.8869813 L9.19770778,40.8869813 C9.57822741,40.8869813 9.88669951,41.1810736 9.88669951,41.5438548 L9.88669951,44.1713486 C9.88669951,44.5341298 9.57822741,44.8282221 9.19770778,44.8282221 L2.30779055,44.8282221 C1.92727093,44.8282221 1.61879883,44.5341298 1.61879883,44.1713486 L1.61879883,41.5438548 C1.61879883,41.1810736 1.92727093,40.8869813 2.30779055,40.8869813 Z" id="Rectangle-Copy-8" fill="#D6DEF7"></path>
                            <path d="M35.3793933,40.8869813 L42.2693105,40.8869813 C42.6498301,40.8869813 42.9583022,41.1810736 42.9583022,41.5438548 L42.9583022,44.1713486 C42.9583022,44.5341298 42.6498301,44.8282221 42.2693105,44.8282221 L35.3793933,44.8282221 C34.9988737,44.8282221 34.6904016,44.5341298 34.6904016,44.1713486 L34.6904016,41.5438548 C34.6904016,41.1810736 34.9988737,40.8869813 35.3793933,40.8869813 Z" id="Rectangle-Copy-7" fill="#D6DEF7"></path>
                            <path d="M13.3316581,40.8869813 L20.2215754,40.8869813 C20.602095,40.8869813 20.9105671,41.1810736 20.9105671,41.5438548 L20.9105671,44.1713486 C20.9105671,44.5341298 20.602095,44.8282221 20.2215754,44.8282221 L13.3316581,44.8282221 C12.9511385,44.8282221 12.6426664,44.5341298 12.6426664,44.1713486 L12.6426664,41.5438548 C12.6426664,41.1810736 12.9511385,40.8869813 13.3316581,40.8869813 Z" id="Rectangle-Copy-9" fill="#D6DEF7"></path>
                            <path d="M24.3555257,47.4557159 L31.2454429,47.4557159 C31.6259626,47.4557159 31.9344347,47.7498081 31.9344347,48.1125893 L31.9344347,50.7400831 C31.9344347,51.1028643 31.6259626,51.3969566 31.2454429,51.3969566 L24.3555257,51.3969566 C23.9750061,51.3969566 23.666534,51.1028643 23.666534,50.7400831 L23.666534,48.1125893 C23.666534,47.7498081 23.9750061,47.4557159 24.3555257,47.4557159 Z" id="Rectangle" fill="#D6DEF7"></path>
                            <path d="M2.30779055,47.4557159 L9.19770778,47.4557159 C9.57822741,47.4557159 9.88669951,47.7498081 9.88669951,48.1125893 L9.88669951,50.7400831 C9.88669951,51.1028643 9.57822741,51.3969566 9.19770778,51.3969566 L2.30779055,51.3969566 C1.92727093,51.3969566 1.61879883,51.1028643 1.61879883,50.7400831 L1.61879883,48.1125893 C1.61879883,47.7498081 1.92727093,47.4557159 2.30779055,47.4557159 Z" id="Rectangle-Copy-8" fill="#D6DEF7"></path>
                            <path d="M35.3793933,47.4557159 L42.2693105,47.4557159 C42.6498301,47.4557159 42.9583022,47.7498081 42.9583022,48.1125893 L42.9583022,50.7400831 C42.9583022,51.1028643 42.6498301,51.3969566 42.2693105,51.3969566 L35.3793933,51.3969566 C34.9988737,51.3969566 34.6904016,51.1028643 34.6904016,50.7400831 L34.6904016,48.1125893 C34.6904016,47.7498081 34.9988737,47.4557159 35.3793933,47.4557159 Z" id="Rectangle-Copy-7" fill="#D6DEF7"></path>
                            <path d="M13.3316581,47.4557159 L20.2215754,47.4557159 C20.602095,47.4557159 20.9105671,47.7498081 20.9105671,48.1125893 L20.9105671,50.7400831 C20.9105671,51.1028643 20.602095,51.3969566 20.2215754,51.3969566 L13.3316581,51.3969566 C12.9511385,51.3969566 12.6426664,51.1028643 12.6426664,50.7400831 L12.6426664,48.1125893 C12.6426664,47.7498081 12.9511385,47.4557159 13.3316581,47.4557159 Z" id="Rectangle-Copy-9" fill="#D6DEF7"></path>
                            <path d="M24.3555257,54.0244504 L31.2454429,54.0244504 C31.6259626,54.0244504 31.9344347,54.3185427 31.9344347,54.6813239 L31.9344347,57.3088177 C31.9344347,57.6715989 31.6259626,57.9656911 31.2454429,57.9656911 L24.3555257,57.9656911 C23.9750061,57.9656911 23.666534,57.6715989 23.666534,57.3088177 L23.666534,54.6813239 C23.666534,54.3185427 23.9750061,54.0244504 24.3555257,54.0244504 Z" id="Rectangle" fill="#D6DEF7"></path>
                            <path d="M2.30779055,54.0244504 L9.19770778,54.0244504 C9.57822741,54.0244504 9.88669951,54.3185427 9.88669951,54.6813239 L9.88669951,57.3088177 C9.88669951,57.6715989 9.57822741,57.9656911 9.19770778,57.9656911 L2.30779055,57.9656911 C1.92727093,57.9656911 1.61879883,57.6715989 1.61879883,57.3088177 L1.61879883,54.6813239 C1.61879883,54.3185427 1.92727093,54.0244504 2.30779055,54.0244504 Z" id="Rectangle-Copy-8" fill="#D6DEF7"></path>
                            <path d="M35.3793933,54.0244504 L42.2693105,54.0244504 C42.6498301,54.0244504 42.9583022,54.3185427 42.9583022,54.6813239 L42.9583022,57.3088177 C42.9583022,57.6715989 42.6498301,57.9656911 42.2693105,57.9656911 L35.3793933,57.9656911 C34.9988737,57.9656911 34.6904016,57.6715989 34.6904016,57.3088177 L34.6904016,54.6813239 C34.6904016,54.3185427 34.9988737,54.0244504 35.3793933,54.0244504 Z" id="Rectangle-Copy-7" fill="#D6DEF7"></path>
                            <path d="M13.3316581,54.0244504 L20.2215754,54.0244504 C20.602095,54.0244504 20.9105671,54.3185427 20.9105671,54.6813239 L20.9105671,57.3088177 C20.9105671,57.6715989 20.602095,57.9656911 20.2215754,57.9656911 L13.3316581,57.9656911 C12.9511385,57.9656911 12.6426664,57.6715989 12.6426664,57.3088177 L12.6426664,54.6813239 C12.6426664,54.3185427 12.9511385,54.0244504 13.3316581,54.0244504 Z" id="Rectangle-Copy-9" fill="#D6DEF7"></path>
                            <polygon id="Rectangle" fill="url(#excel-file-linearGradient)" points="0 0 44 0 44 58 0 58"></polygon>
                        </g>
                        <polygon id="X" fill="#D6DEF7" fill-rule="nonzero" points="10.4235505 58.3447728 15.0704129 52.6483336 19.7172753 58.3447728 24.5554791 58.3447728 17.8038614 50.7529542 24.0771257 43.2847472 19.5122667 43.2847472 15.2890888 48.7030601 10.9839074 43.2847472 6.30971051 43.2847472 12.5146386 50.5778376 5.886026 58.3447728"></polygon>
                    </g>
                </g>
            </g>
        </g>
    </g>
</svg>
