<svg xmlns="http://www.w3.org/2000/svg" width="16" height="16" viewBox="0 0 22 22">
    <path transform="translate(-1819 -87)"
          fill-rule="evenodd" d="M1830.733 101.349l4.479-4.781a.773.773 0 0 1 1.034-.067.647.647 0 0 1 .073.96l-5.781 6.172a.77.77 0 0 1-1.114-.008l-5.607-6.172a.648.648 0 0 1 .088-.96.773.773 0 0 1 1.033.083l4.329 4.764V87.978a.733.733 0 1 1 1.466 0v13.371z"/>

    <path fill-rule="evenodd"
          transform="translate(-1819 -87)"
          d="M1830.733 101.349 m9.045 3.107c0-.325.22-.59.577-.59.356 0 .645.265.645.59v3.71c0 .326-.289.59-.645.59h-20.71c-.356 0-.645-.264-.645-.59v-3.71c0-.325.289-.59.645-.59.356 0 .577.265.577.59v3.12h19.556v-3.12z"/>
</svg>
