<?xml version="1.0" encoding="UTF-8"?>
<svg width="24px" height="24px" viewBox="0 0 24 24" version="1.1" xmlns="http://www.w3.org/2000/svg" xmlns:xlink="http://www.w3.org/1999/xlink">
    <defs>
        <path d="M13.5,4 C13.7761424,4 14,4.22385763 14,4.5 L14,6 L17.5185185,6 C17.7844334,6 18,6.22385763 18,6.5 C18,6.77614237 17.7844334,7 17.5185185,7 L17,7 L17,19.0178571 C17,19.2841373 16.7761424,19.5 16.5,19.5 L6.5,19.5 C6.22385763,19.5 6,19.2841373 6,19.0178571 L6,7 L5.48148148,7 C5.2155666,7 5,6.77614237 5,6.5 C5,6.22385763 5.2155666,6 5.48148148,6 L9,6 L9,4.5 C9,4.22385763 9.22385763,4 9.5,4 L13.5,4 Z M16,7 L7,7 L7,18.5357143 L16,18.5357143 L16,7 Z M9.5,8.5 C9.77614237,8.5 10,8.72385763 10,9 L10,16.5 C10,16.7761424 9.77614237,17 9.5,17 C9.22385763,17 9,16.7761424 9,16.5 L9,9 C9,8.72385763 9.22385763,8.5 9.5,8.5 Z M13.5,8.5 C13.7761424,8.5 14,8.72385763 14,9 L14,16.5 C14,16.7761424 13.7761424,17 13.5,17 C13.2238576,17 13,16.7761424 13,16.5 L13,9 C13,8.72385763 13.2238576,8.5 13.5,8.5 Z M13,5 L10,5 L10,6 L13,6 L13,5 Z" id="path-trash"></path>
    </defs>

    <g id="Symbols" stroke="none" stroke-width="1" fill="none" fill-rule="evenodd">
        <g id="icons/delete">
            <use id="Combined-Shape" class="p-400-fill" fill-rule="nonzero" xlink:href="#path-trash"></use>
        </g>
    </g>
</svg>
