<?xml version="1.0" encoding="UTF-8"?>
<svg width="24px" height="24px" viewBox="0 0 24 24" version="1.1" xmlns="http://www.w3.org/2000/svg" xmlns:xlink="http://www.w3.org/1999/xlink">
    <title>d5feddd0-ab7c-4d5e-a032-da09c02a21cf@1.00x</title>
    <defs>
        <path d="M9,1.10218212e-15 C13.9705627,4.93463743e-16 18,4.02943725 18,9 C18,13.9705627 13.9705627,18 9,18 C4.02943725,18 0,13.9705627 0,9 C0,4.02943725 4.02943725,1.7109005e-15 9,1.10218212e-15 Z M9.24750003,13.5 C8.80014937,13.5 8.4375,13.8626493 8.4375,14.31 C8.4375,14.7573506 8.80014937,15.12 9.24750003,15.12 C9.6948507,15.12 10.0575001,14.7573506 10.0575001,14.31 C10.0575001,13.8626493 9.6948507,13.5 9.24750003,13.5 Z M9.24749998,3.375 C8.80014934,3.375 8.4375,3.74408816 8.4375,4.18127203 L8.4375,10.668728 C8.4375,11.0797665 8.74384551,11.4189657 9.14528204,11.468718 L9.24749998,11.475 C9.69485061,11.475 10.0575,11.1059118 10.0575,10.668728 L10.0575,4.18127203 C10.0575,3.77023349 9.75115445,3.43103431 9.34971792,3.381282 L9.24749998,3.375 Z" id="warning-path"></path>
    </defs>
    <g id="Symbols" stroke="none" stroke-width="1" fill="none" fill-rule="evenodd">
        <g id="circle" transform="translate(3.000000, 3.000000)">
            <mask id="mask-2" fill="white">
                <use xlink:href="#warning-path"></use>
            </mask>
            <use id="Combined-Shape" fill="#FFFFFF" xlink:href="#warning-path"></use>
        </g>
    </g>
</svg>
