<?xml version="1.0" encoding="UTF-8"?>
<svg width="11px" height="14px" viewBox="0 0 11 14" version="1.1" xmlns="http://www.w3.org/2000/svg" xmlns:xlink="http://www.w3.org/1999/xlink">
    <!-- Generator: Sketch 53 (72520) - https://sketchapp.com -->
    <title>doublearrow-left</title>
    <desc>Created with Sketch.</desc>
    <g id="Page-1" stroke="none" stroke-width="1" fill="none" fill-rule="evenodd">
        <g id="doublearrow-left" transform="translate(5.500000, 7.000000) rotate(-90.000000) translate(-5.500000, -7.000000) translate(-1.000000, 2.000000)" fill="#9CA0A0">
            <path d="M5.1240936,0.00355696 C5.3770744,-0.0179829 5.6135982,0.1310733 5.7033253,0.36858612 C5.7930523,0.60609895 5.7141633,0.8743111 5.510131,1.02542067 L1.37725993,4.9993351 L5.510131,8.9732496 C5.7358749,9.1927228 5.7409582,9.5536426 5.521485,9.7793865 C5.3020118,10.0051304 4.941092,10.0102138 4.7153481,9.7907405 L0.17373156,5.3626644 C0.06271635,5.2556621 0,5.1081067 0,4.953919 C0,4.7997312 0.06271635,4.6521758 0.17373156,4.5451735 L4.7153481,0.11709737 C4.8318054,0.02785324 4.9782921,-0.0128375 5.1240936,0.00355696 Z M12.1240936,0.00355696 C12.3770744,-0.0179829 12.6135982,0.1310733 12.7033253,0.36858612 C12.7930523,0.60609895 12.7141633,0.8743111 12.510131,1.02542067 L8.3772599,4.9993351 L12.510131,8.9732496 C12.7358749,9.1927228 12.7409582,9.5536426 12.521485,9.7793865 C12.3020118,10.0051304 11.941092,10.0102138 11.7153481,9.7907405 L7.1737316,5.3626644 C7.0627164,5.2556621 7,5.1081067 7,4.953919 C7,4.7997312 7.0627164,4.6521758 7.1737316,4.5451735 L11.7153481,0.11709737 C11.8318054,0.02785324 11.9782921,-0.0128375 12.1240936,0.00355696 Z" id="path-1"></path>
        </g>
    </g>
</svg>