<?xml version="1.0" encoding="UTF-8"?>
<svg width="57px" height="57px" viewBox="0 0 57 57" version="1.1" xmlns="http://www.w3.org/2000/svg" xmlns:xlink="http://www.w3.org/1999/xlink">
    <!-- Generator: Sketch 53 (72520) - https://sketchapp.com -->
    <title>Slice</title>
    <desc>Created with Sketch.</desc>
    <g id="Page-1" stroke="none" stroke-width="1" fill="none" fill-rule="evenodd">
        <g id="arrow-down" transform="translate(6.000000, 6.000000)" fill="#000000" fill-rule="nonzero">
            <g id="noun_chevron_1025828" transform="translate(23.000000, 13.000000) rotate(90.000000) translate(-23.000000, -13.000000) translate(10.000000, -10.000000)">
                <g id="Group">
                    <g id="Path">
                        <path d="M31.232233,34.767767 C32.2085438,35.7440777 33.7914562,35.7440777 34.767767,34.767767 C35.7440777,33.7914562 35.7440777,32.2085438 34.767767,31.232233 L14.767767,11.232233 C13.7914562,10.2559223 12.2085438,10.2559223 11.232233,11.232233 L-8.767767,31.232233 C-9.7440777,32.2085438 -9.7440777,33.7914562 -8.767767,34.767767 C-7.7914562,35.7440777 -6.2085438,35.7440777 -5.232233,34.767767 L12.9997921,16.5357418 L31.232233,34.767767 Z" transform="translate(13.000000, 23.000000) rotate(90.000000) translate(-13.000000, -23.000000) "></path>
                    </g>
                </g>
            </g>
        </g>
        <g id="arrow-down" transform="translate(6.000000, 25.000000)" fill="#000000" fill-rule="nonzero">
            <g id="noun_chevron_1025828" transform="translate(23.000000, 13.000000) rotate(90.000000) translate(-23.000000, -13.000000) translate(10.000000, -10.000000)">
                <g id="Group">
                    <g id="Path">
                        <path d="M31.232233,34.767767 C32.2085438,35.7440777 33.7914562,35.7440777 34.767767,34.767767 C35.7440777,33.7914562 35.7440777,32.2085438 34.767767,31.232233 L14.767767,11.232233 C13.7914562,10.2559223 12.2085438,10.2559223 11.232233,11.232233 L-8.767767,31.232233 C-9.7440777,32.2085438 -9.7440777,33.7914562 -8.767767,34.767767 C-7.7914562,35.7440777 -6.2085438,35.7440777 -5.232233,34.767767 L12.9997921,16.5357418 L31.232233,34.767767 Z" transform="translate(13.000000, 23.000000) rotate(90.000000) translate(-13.000000, -23.000000) "></path>
                    </g>
                </g>
            </g>
        </g>
    </g>
</svg>