<svg xmlns="http://www.w3.org/2000/svg" xmlns:xlink="http://www.w3.org/1999/xlink" width="24" height="24" viewBox="0 0 24 24">
    <defs>
        <path id="a" d="M12.002 13.62l2.993-2.121-2.993-2.121V11h-7v1.029h7v1.59zm5.801-7.42A7.471 7.471 0 0 0 12.495 4c-1.92 0-3.839.732-5.306 2.2a.496.496 0 0 0 0 .706.498.498 0 0 0 .708 0A6.453 6.453 0 0 1 12.495 5c1.74 0 3.373.676 4.601 1.906 2.537 2.54 2.537 6.677 0 9.217a6.456 6.456 0 0 1-4.6 1.907 6.454 6.454 0 0 1-4.599-1.907.5.5 0 0 0-.708.705 7.475 7.475 0 0 0 5.306 2.204 7.474 7.474 0 0 0 5.308-2.204 7.523 7.523 0 0 0 0-10.627zM7.001 14h3v-1H7v1zm-4-4.002h7v-1H3v1z"/>
    </defs>
    <use fill="#9CA0A0" fill-rule="evenodd" xlink:href="#a"/>
</svg>
