<?xml version="1.0" encoding="UTF-8"?>
<svg width="24px" height="24px" viewBox="0 0 24 24" version="1.1" xmlns="http://www.w3.org/2000/svg" xmlns:xlink="http://www.w3.org/1999/xlink">
    <!-- Generator: Sketch 53 (72520) - https://sketchapp.com -->
    <title>icons/success-line green</title>
    <desc>Created with Sketch.</desc>
    <defs>
        <path d="M12,21 C7.02943725,21 3,16.9705627 3,12 C3,7.02943725 7.02943725,3 12,3 C16.9705627,3 21,7.02943725 21,12 C20.9933894,16.967822 16.967822,20.9933894 12,21 Z M12,4.2 C7.69217895,4.2 4.2,7.69217895 4.2,12 C4.2,16.307821 7.69217895,19.8 12,19.8 C16.307821,19.8 19.8,16.307821 19.8,12 C19.793392,7.69491903 16.305081,4.20660796 12,4.2 Z" id="path-1"></path>
    </defs>
    <g id="icons/success-line-green" stroke="none" stroke-width="1" fill="none" fill-rule="evenodd">
        <path d="M14.9903806,9.19038059 C15.2442214,8.9365398 15.6557786,8.9365398 15.9096194,9.19038059 C16.1634602,9.44422138 16.1634602,9.85577862 15.9096194,10.1096194 L10.7096194,15.3096194 C10.4557786,15.5634602 10.0442214,15.5634602 9.79038059,15.3096194 L7.19038059,12.7096194 C6.9365398,12.4557786 6.9365398,12.0442214 7.19038059,11.7903806 C7.44422138,11.5365398 7.85577862,11.5365398 8.10961941,11.7903806 L10.25,13.9307612 L14.9903806,9.19038059 Z" id="Path" fill="#0DB864" fill-rule="nonzero"></path>
        <mask id="mask-2" fill="white">
            <use xlink:href="#path-1"></use>
        </mask>
        <use id="Shape" fill="#0DB864" xlink:href="#path-1"></use>
    </g>
</svg>