<svg xmlns="http://www.w3.org/2000/svg" xmlns:xlink="http://www.w3.org/1999/xlink" width="24" height="24" viewBox="0 0 24 24">
    <defs>
        <path id="a" d="M12 16.2a.7.7 0 1 0 0 1.4.7.7 0 0 0 0-1.4zm-.06-1.094a.57.57 0 0 1-.57-.57v-1.359a1.997 1.997 0 0 1 1.403-1.495 2.842 2.842 0 0 0 1.426-1.142 1.816 1.816 0 0 0-.228-1.61 2.544 2.544 0 0 0-2.031-.775c-2.02 0-2.283 1.22-2.283 1.232a.587.587 0 1 1-1.14-.274c0-.09.547-2.1 3.423-2.1a3.617 3.617 0 0 1 2.955 1.142c.582.751.757 1.742.468 2.648a3.424 3.424 0 0 1-2.054 1.883c-.302.125-.586.29-.844.491v1.324a.57.57 0 0 1-.525.605z"/>
        <path id="b" d="M12 21.375A9.375 9.375 0 1 1 21.375 12 9.387 9.387 0 0 1 12 21.375zm0-17.5A8.125 8.125 0 1 0 20.125 12 8.138 8.138 0 0 0 12 3.875z"/>
    </defs>
    <g fill="none" fill-rule="evenodd">
        <use fill="#9EA0A5" xlink:href="#a"/>
        <use fill="#9CA0A0" xlink:href="#b"/>
    </g>
</svg>
