<svg id="pencil" xmlns="http://www.w3.org/2000/svg" width="16.64" height="17.24" viewBox="0 0 16.64 17.24">
    <path id="Shape" d="M15.43,3.46,13.06,1.22,2.27,12.51l-.9,3.31,3.29-1.09ZM13.22,1.05ZM5.13,15.75.73,17.21A.56.56,0,0,1,0,16.53l1.21-4.45a.53.53,0,0,1,.14-.24L12.41.28A.89.89,0,0,1,13,0a.87.87,0,0,1,.63.24l2.72,2.57a.93.93,0,0,1,.27.61.87.87,0,0,1-.24.63L5.36,15.6A.51.51,0,0,1,5.13,15.75Z" fill="#67696f"/>
    <path id="Shape-2" d="M10.67,2.91a.56.56,0,0,1,.76-.82l3.18,3a.56.56,0,1,1-.76.82Z" fill="#67696f"/>
    <path id="Shape-3" d="M1.41,12.63a.58.58,0,0,1,0-.8.56.56,0,0,1,.79,0l3.18,3a.56.56,0,0,1-.76.82Z" fill="#67696f"/>
</svg>
