<svg width="24px" height="24px" viewBox="0 0 24 24" version="1.1" xmlns="http://www.w3.org/2000/svg" xmlns:xlink="http://www.w3.org/1999/xlink">
    <defs>
        <path d="M12.9515937,12.0000417 L17.7985692,7.16984373 C18.0612851,6.90702214 18.0679193,6.47670284 17.8131645,6.20707239 C17.5570829,5.93744195 17.1377989,5.92927133 16.875083,6.19345469 L12.0002438,11.0522498 L7.12540448,6.19345469 C6.86268859,5.92927133 6.44207779,5.93744195 6.18732299,6.20707239 C5.93256819,6.47670284 5.93787558,6.90702214 6.20191832,7.16984373 L11.0488938,12.0000417 L6.20191832,16.8302396 C5.93787558,17.0930612 5.93256819,17.5233805 6.18732299,17.793011 C6.31735409,17.9305497 6.48984432,18 6.6636614,18 C6.82951739,18 6.99670023,17.9359968 7.12540448,17.8066287 L12.0002438,12.9478336 L16.875083,17.8066287 C17.0037873,17.9359968 17.1696433,18 17.3368261,18 C17.5093163,18 17.6818066,17.9305497 17.8131645,17.793011 C18.0679193,17.5233805 18.0612851,17.0930612 17.7985692,16.8302396 L12.9515937,12.0000417 Z" id="remove-path"></path>
    </defs>
    <g stroke="none" stroke-width="1" fill="none" fill-rule="evenodd">
        <g>
            <mask fill="white">
                <use xlink:href="#remove-path"></use>
            </mask>
            <use fill="#FFFFFF" xlink:href="#remove-path"></use>
        </g>
    </g>
</svg>
