<?xml version="1.0" encoding="UTF-8"?>
<svg width="100px" height="100px" viewBox="0 0 100 100" version="1.1" xmlns="http://www.w3.org/2000/svg" xmlns:xlink="http://www.w3.org/1999/xlink">
    <!-- Generator: Sketch 53 (72520) - https://sketchapp.com -->
    <title>noun_Contrast_1652539</title>
    <desc>Created with Sketch.</desc>
    <g id="Page-1" stroke="none" stroke-width="1" fill="none" fill-rule="evenodd">
        <g id="noun_Contrast_1652539" fill="#FFFFFF" fill-rule="nonzero">
            <g id="Group">
                <path d="M14,50 C14,69.85 30.15,86 50,86 L50,14 C30.15,14 14,30.15 14,50 Z" id="Path"></path>
                <path d="M50,0 C22.39,0 0,22.39 0,50 C0,77.61 22.39,100 50,100 C77.61,100 100,77.61 100,50 C100,22.39 77.61,0 50,0 Z M50,92 C26.84,92 8,73.16 8,50 C8,26.84 26.84,8 50,8 C73.16,8 92,26.84 92,50 C92,73.16 73.16,92 50,92 Z" id="Shape"></path>
            </g>
        </g>
    </g>
</svg>