<?xml version="1.0" encoding="UTF-8"?>
<svg width="341px" height="211px" viewBox="0 0 341 211" version="1.1" xmlns="http://www.w3.org/2000/svg" xmlns:xlink="http://www.w3.org/1999/xlink">
    <defs>
        <path d="M27.3463616,3.62886311 L52.8759306,26.2174488 C53.7952023,29.0983615 52.3215915,33.9904114 48.455098,40.8935986 C44.6841106,47.6262706 38.3510569,52.2165568 29.4559368,54.6644572 C29.0338599,54.7805659 28.5816757,54.6769545 28.252292,54.3886204 L3.45464,32.6813826 C3.34611014,32.5867018 3.33516171,32.4219485 3.43002565,32.313579 C3.47484157,32.2623827 3.53789211,32.2307295 3.60572166,32.2253744 C11.049073,31.6377315 17.1495483,27.7775322 21.9071476,20.6447765 C26.7971676,13.3134911 28.610239,7.64151999 27.3463616,3.62886311 Z" id="path-1"></path>
        <filter x="-8.0%" y="-3.9%" width="116.1%" height="115.7%" filterUnits="objectBoundingBox" id="filter-2">
            <feOffset dx="0" dy="2" in="SourceAlpha" result="shadowOffsetOuter1"></feOffset>
            <feGaussianBlur stdDeviation="1" in="shadowOffsetOuter1" result="shadowBlurOuter1"></feGaussianBlur>
            <feColorMatrix values="0 0 0 0 0   0 0 0 0 0   0 0 0 0 0  0 0 0 0.05 0" type="matrix" in="shadowBlurOuter1"></feColorMatrix>
        </filter>
        <path d="M26.0573651,11.6701864 L52.5783341,23.6219807 L52.5783341,23.6219807 C53.1514164,24.0960375 53.6363303,24.7223944 54.0330758,25.5010514 C54.4298214,26.2797084 54.4145649,27.3400757 53.9873063,28.6821532 L21.3010577,20.204065 C25.2668383,20.3112707 26.6241054,18.5136435 25.3728592,14.8111835 C25.1337532,14.1036645 24.9125682,13.4768452 24.7093042,12.9307255 C24.5166295,12.4131257 24.7800585,11.8373458 25.2976668,11.6446937 C25.5443839,11.5528664 25.8173588,11.5620265 26.0573651,11.6701864 Z" id="path-3"></path>
        <filter x="-13.6%" y="-11.2%" width="121.2%" height="130.1%" filterUnits="objectBoundingBox" id="filter-4">
            <feOffset dx="-1" dy="0" in="SourceAlpha" result="shadowOffsetOuter1"></feOffset>
            <feGaussianBlur stdDeviation="1" in="shadowOffsetOuter1" result="shadowBlurOuter1"></feGaussianBlur>
            <feColorMatrix values="0 0 0 0 0   0 0 0 0 0   0 0 0 0 0  0 0 0 0.07 0" type="matrix" in="shadowBlurOuter1"></feColorMatrix>
        </filter>
        <path d="M2.64761385,2.35010273 L40.7231475,2.35010273 C41.3603759,2.35010273 41.8769516,2.86191733 41.8769516,3.49327264 L41.8769516,57.2222585 C41.8769516,57.8536138 41.3603759,58.3654284 40.7231475,58.3654284 L2.64761385,58.3654284 C2.01038546,58.3654284 1.4938098,57.8536138 1.4938098,57.2222585 L1.4938098,3.49327264 C1.4938098,2.86191733 2.01038546,2.35010273 2.64761385,2.35010273 Z" id="path-5"></path>
        <filter x="-38.4%" y="-20.5%" width="176.8%" height="155.3%" filterUnits="objectBoundingBox" id="filter-6">
            <feOffset dx="0" dy="4" in="SourceAlpha" result="shadowOffsetOuter1"></feOffset>
            <feGaussianBlur stdDeviation="4.5" in="shadowOffsetOuter1" result="shadowBlurOuter1"></feGaussianBlur>
            <feColorMatrix values="0 0 0 0 0   0 0 0 0 0   0 0 0 0 0  0 0 0 0.07 0" type="matrix" in="shadowBlurOuter1"></feColorMatrix>
        </filter>
        <linearGradient x1="50%" y1="1.00031672%" x2="50%" y2="99.3243243%" id="linearGradient-7">
            <stop stop-color="#FFFFFF" stop-opacity="0" offset="0%"></stop>
            <stop stop-color="#FFFFFF" offset="100%"></stop>
        </linearGradient>
        <linearGradient x1="50%" y1="0%" x2="50%" y2="100%" id="linearGradient-8">
            <stop stop-color="#FFFFFF" offset="0%"></stop>
            <stop stop-color="#FFFFFF" offset="100%"></stop>
        </linearGradient>
        <path d="M146.862975,85.9770115 L180.685399,85.9770115 C181.237699,85.9769831 181.685427,86.4247111 181.685427,86.9770115 C181.685427,87.1405019 181.645344,87.3014989 181.568686,87.4459038 C177.538433,95.0379931 175.523306,102.896632 175.523306,111.021819 C175.523306,119.115352 177.522762,126.772918 181.521674,133.994518 C181.789193,134.477673 181.614409,135.086221 181.131265,135.353759 C180.983006,135.435856 180.816315,135.478927 180.646844,135.478927 L146.794844,135.478927 C146.447249,135.478932 146.124589,135.298433 145.942692,135.002231 C141.572213,127.885308 139.386973,120.291909 139.386973,112.222035 C139.386973,104.139527 141.57906,95.5790506 145.963235,86.5406058 C146.130418,86.1958925 146.479859,85.9770115 146.862975,85.9770115 Z" id="path-9"></path>
        <filter x="-27.9%" y="-16.2%" width="144.9%" height="140.4%" filterUnits="objectBoundingBox" id="filter-10">
            <feOffset dx="-2" dy="2" in="SourceAlpha" result="shadowOffsetOuter1"></feOffset>
            <feGaussianBlur stdDeviation="3" in="shadowOffsetOuter1" result="shadowBlurOuter1"></feGaussianBlur>
            <feColorMatrix values="0 0 0 0 0   0 0 0 0 0   0 0 0 0 0  0 0 0 0.05 0" type="matrix" in="shadowBlurOuter1"></feColorMatrix>
        </filter>
        <path d="M7.40462921,0 L78.8891524,0 C82.0730082,0 84.6540333,2.57437522 84.6540333,5.75002798 C84.6540333,9.35976777 84.6540333,11.9951973 84.6540333,13.6563165 C84.6540333,24.5174804 84.6540333,40.6654757 84.6540333,62.1003022 C84.6540333,65.2759549 82.0730082,67.8503302 78.8891524,67.8503302 L7.40462921,67.8503302 C4.2207734,67.8503302 1.63974831,65.2759549 1.63974831,62.1003022 C1.63974831,40.4738081 1.63974831,24.3258128 1.63974831,13.6563165 C1.63974831,11.8035297 1.63974831,9.16810017 1.63974831,5.75002798 C1.63974831,2.57437522 4.2207734,0 7.40462921,0 Z" id="path-11"></path>
        <filter x="-18.7%" y="-16.9%" width="137.3%" height="145.7%" filterUnits="objectBoundingBox" id="filter-12">
            <feOffset dx="0" dy="4" in="SourceAlpha" result="shadowOffsetOuter1"></feOffset>
            <feGaussianBlur stdDeviation="4.5" in="shadowOffsetOuter1" result="shadowBlurOuter1"></feGaussianBlur>
            <feColorMatrix values="0 0 0 0 0   0 0 0 0 0   0 0 0 0 0  0 0 0 0.07 0" type="matrix" in="shadowBlurOuter1"></feColorMatrix>
        </filter>
        <path d="M5.7648809,0 L77.249404,0 C80.4332599,0 83.0142849,2.57437522 83.0142849,5.75002798 C83.0142849,9.35976777 83.0142849,11.9951973 83.0142849,13.6563165 C83.0142849,24.5174804 83.0142849,40.6654757 83.0142849,62.1003022 C83.0142849,65.2759549 80.4332599,67.8503302 77.249404,67.8503302 L5.7648809,67.8503302 C2.58102509,67.8503302 0,65.2759549 0,62.1003022 C0,40.4738081 0,24.3258128 0,13.6563165 C0,11.8035297 0,9.16810017 0,5.75002798 C0,2.57437522 2.58102509,0 5.7648809,0 Z" id="path-13"></path>
        <filter x="-18.7%" y="-16.9%" width="137.3%" height="145.7%" filterUnits="objectBoundingBox" id="filter-14">
            <feOffset dx="0" dy="4" in="SourceAlpha" result="shadowOffsetOuter1"></feOffset>
            <feGaussianBlur stdDeviation="4.5" in="shadowOffsetOuter1" result="shadowBlurOuter1"></feGaussianBlur>
            <feColorMatrix values="0 0 0 0 0   0 0 0 0 0   0 0 0 0 0  0 0 0 0.07 0" type="matrix" in="shadowBlurOuter1"></feColorMatrix>
        </filter>
        <path d="M9.42788842,1.45842539 L43.8978148,1.45842539 C45.0023843,1.45842539 45.8978148,2.35385589 45.8978148,3.45842539 L45.8978148,60.684479 C45.8978148,61.7890485 45.0023843,62.684479 43.8978148,62.684479 L3.60662709,62.684479 C2.50205759,62.684479 1.60662709,61.7890485 1.60662709,60.684479 L1.60662709,8.39975124 L1.60662709,8.39975124 L9.42788842,1.45842539 Z" id="path-15"></path>
        <filter x="-35.0%" y="-18.8%" width="170.0%" height="150.6%" filterUnits="objectBoundingBox" id="filter-17">
            <feOffset dx="0" dy="4" in="SourceAlpha" result="shadowOffsetOuter1"></feOffset>
            <feGaussianBlur stdDeviation="4.5" in="shadowOffsetOuter1" result="shadowBlurOuter1"></feGaussianBlur>
            <feColorMatrix values="0 0 0 0 0   0 0 0 0 0   0 0 0 0 0  0 0 0 0.07 0" type="matrix" in="shadowBlurOuter1"></feColorMatrix>
        </filter>
        <path d="M7.28308169,5.28499287 L11.6311384,9.06470095 L11.6311384,9.06470095 L1.04895652,9.12249091 L4.51148912,5.42695668 C5.24688473,4.64207464 6.47134022,4.57935678 7.28308169,5.28499287 Z" id="path-18"></path>
        <filter x="-4.7%" y="-14.2%" width="109.4%" height="124.0%" filterUnits="objectBoundingBox" id="filter-19">
            <feOffset dx="0" dy="-1" in="SourceAlpha" result="shadowOffsetOuter1"></feOffset>
            <feColorMatrix values="0 0 0 0 0   0 0 0 0 0   0 0 0 0 0  0 0 0 0.02 0" type="matrix" in="shadowOffsetOuter1"></feColorMatrix>
        </filter>
        <path d="M2.10807756,2.70683248 L52.4660414,2.70683248 C53.3088274,2.70683248 53.9920403,3.39718706 53.9920403,4.24878259 L53.9920403,76.7204379 C53.9920403,77.5720335 53.3088274,78.262388 52.4660414,78.262388 L2.10807756,78.262388 C1.26529164,78.262388 0.582078658,77.5720335 0.582078658,76.7204379 L0.582078658,4.24878259 C0.582078658,3.39718706 1.26529164,2.70683248 2.10807756,2.70683248 Z" id="path-20"></path>
        <filter x="-29.0%" y="-15.2%" width="158.0%" height="141.0%" filterUnits="objectBoundingBox" id="filter-21">
            <feOffset dx="0" dy="4" in="SourceAlpha" result="shadowOffsetOuter1"></feOffset>
            <feGaussianBlur stdDeviation="4.5" in="shadowOffsetOuter1" result="shadowBlurOuter1"></feGaussianBlur>
            <feColorMatrix values="0 0 0 0 0   0 0 0 0 0   0 0 0 0 0  0 0 0 0.07 0" type="matrix" in="shadowBlurOuter1"></feColorMatrix>
        </filter>
        <linearGradient x1="50%" y1="1.00031672%" x2="50%" y2="99.3243243%" id="linearGradient-22">
            <stop stop-color="#FFFFFF" stop-opacity="0" offset="0%"></stop>
            <stop stop-color="#FFFFFF" offset="100%"></stop>
        </linearGradient>
        <path d="M8.6653366,0 L91.3193165,0 C95.0006498,0 97.98496,2.97819878 97.98496,6.65199315 C97.98496,10.8279666 97.98496,13.8767968 97.98496,15.7984837 C97.98496,28.3633597 97.98496,47.0443738 97.98496,71.841526 C97.98496,75.5153204 95.0006498,78.4935192 91.3193165,78.4935192 L8.6653366,78.4935192 C4.98400333,78.4935192 1.99969306,75.5153204 1.99969306,71.841526 C1.99969306,46.8226407 1.99969306,28.1416266 1.99969306,15.7984837 C1.99969306,13.6550637 1.99969306,10.6062335 1.99969306,6.65199315 C1.99969306,2.97819878 4.98400333,0 8.6653366,0 Z" id="path-23"></path>
        <filter x="-16.1%" y="-14.7%" width="132.3%" height="139.5%" filterUnits="objectBoundingBox" id="filter-24">
            <feOffset dx="0" dy="4" in="SourceAlpha" result="shadowOffsetOuter1"></feOffset>
            <feGaussianBlur stdDeviation="4.5" in="shadowOffsetOuter1" result="shadowBlurOuter1"></feGaussianBlur>
            <feColorMatrix values="0 0 0 0 0   0 0 0 0 0   0 0 0 0 0  0 0 0 0.07 0" type="matrix" in="shadowBlurOuter1"></feColorMatrix>
        </filter>
        <path d="M6.66564354,0 L89.3196234,0 C93.0009567,0 95.985267,2.97819878 95.985267,6.65199315 C95.985267,10.8279666 95.985267,13.8767968 95.985267,15.7984837 C95.985267,28.3633597 95.985267,47.0443738 95.985267,71.841526 C95.985267,75.5153204 93.0009567,78.4935192 89.3196234,78.4935192 L6.66564354,78.4935192 C2.98431026,78.4935192 0,75.5153204 0,71.841526 C0,46.8226407 0,28.1416266 0,15.7984837 C0,13.6550637 0,10.6062335 0,6.65199315 C0,2.97819878 2.98431026,0 6.66564354,0 Z" id="path-25"></path>
        <filter x="-16.1%" y="-14.7%" width="132.3%" height="139.5%" filterUnits="objectBoundingBox" id="filter-26">
            <feOffset dx="0" dy="4" in="SourceAlpha" result="shadowOffsetOuter1"></feOffset>
            <feGaussianBlur stdDeviation="4.5" in="shadowOffsetOuter1" result="shadowBlurOuter1"></feGaussianBlur>
            <feColorMatrix values="0 0 0 0 0   0 0 0 0 0   0 0 0 0 0  0 0 0 0.07 0" type="matrix" in="shadowBlurOuter1"></feColorMatrix>
        </filter>
        <linearGradient x1="50%" y1="0%" x2="50%" y2="100%" id="linearGradient-27">
            <stop stop-color="#FFFFFF" offset="0%"></stop>
            <stop stop-color="#FFFFFF" offset="100%"></stop>
        </linearGradient>
        <path d="M5.58768344,37.4924363 L28.0968581,2.8313469 C28.488723,2.22800841 29.2954843,2.056526 29.8988467,2.44835412 C30.0751513,2.56284766 30.2211273,2.71830946 30.3243092,2.90146396 C35.5312391,12.144095 42.3527297,19.5046283 50.7887809,24.983064 C59.1904915,30.4391987 68.4687793,33.5577943 78.6236442,34.3388507 C79.3409385,34.3940825 79.8776996,35.0202929 79.8225289,35.7375919 C79.8058196,35.9548367 79.7348833,36.1644197 79.6162138,36.3471547 L57.0857103,71.0410877 C56.8375483,71.4231373 56.4078491,71.6478262 55.952499,71.6342334 C45.6379674,71.3112444 36.2848111,68.4252257 27.8930301,62.9755394 C19.4868337,57.5164916 12.0453183,49.4849609 5.56848407,38.8809474 C5.30710332,38.4529928 5.31456719,37.9129984 5.58768344,37.4924363 Z" id="path-28"></path>
        <filter x="-16.1%" y="-11.5%" width="126.9%" height="128.8%" filterUnits="objectBoundingBox" id="filter-29">
            <feOffset dx="-2" dy="2" in="SourceAlpha" result="shadowOffsetOuter1"></feOffset>
            <feGaussianBlur stdDeviation="3" in="shadowOffsetOuter1" result="shadowBlurOuter1"></feGaussianBlur>
            <feColorMatrix values="0 0 0 0 0   0 0 0 0 0   0 0 0 0 0  0 0 0 0.05 0" type="matrix" in="shadowBlurOuter1"></feColorMatrix>
        </filter>
        <linearGradient x1="50%" y1="0%" x2="50%" y2="100%" id="linearGradient-30">
            <stop stop-color="#FFFFFF" offset="0%"></stop>
            <stop stop-color="#FFFFFF" offset="100%"></stop>
        </linearGradient>
        <path d="M10.4847771,21.809033 L46.2764038,1.14472767 C46.899468,0.78505208 47.696149,0.998522103 48.0558625,1.62156431 C48.1609721,1.80361941 48.2204595,2.00840863 48.2292449,2.2184441 C48.6725868,12.8175853 51.4089671,22.4727605 56.438386,31.1839695 C61.4473317,39.8597179 68.2985338,46.8506614 76.9919925,52.1568 C77.6060318,52.5316567 77.7999958,53.3332987 77.4251914,53.9473698 C77.3116763,54.1333504 77.1533228,54.2878859 76.9646276,54.3968291 L41.139086,75.0807152 C40.7445252,75.3084608 40.2596538,75.3135807 39.8603944,75.0941764 C30.8164238,70.1242601 23.7929256,63.3065545 18.7898998,54.6410596 C13.7782798,45.9606791 10.7940797,35.4261556 9.83729952,23.0374891 C9.79869487,22.5375144 10.0504975,22.0597644 10.4847771,21.809033 Z" id="path-31"></path>
        <filter x="-17.7%" y="-10.8%" width="129.5%" height="126.9%" filterUnits="objectBoundingBox" id="filter-32">
            <feOffset dx="-2" dy="2" in="SourceAlpha" result="shadowOffsetOuter1"></feOffset>
            <feGaussianBlur stdDeviation="3" in="shadowOffsetOuter1" result="shadowBlurOuter1"></feGaussianBlur>
            <feColorMatrix values="0 0 0 0 0   0 0 0 0 0   0 0 0 0 0  0 0 0 0.05 0" type="matrix" in="shadowBlurOuter1"></feColorMatrix>
        </filter>
        <path d="M41.0195424,5.44329466 L79.3138959,39.3261732 C80.6928035,43.6475422 78.4823872,50.9856171 72.682647,61.3403979 C67.0758127,71.3507671 57.6930445,78.2037211 44.5343423,81.8992598 C43.6867498,82.1372962 42.7762715,81.931184 42.1138387,81.3513071 L6.74781747,50.3927859 C6.20649708,49.9189012 6.15180684,49.0959164 6.62567652,48.5545829 C6.83295618,48.3177932 7.11894749,48.1640443 7.43078993,48.1217539 C17.6833243,46.7313598 26.1599682,41.0131635 32.8607214,30.9671648 C40.1957514,19.9702367 42.9153584,11.46228 41.0195424,5.44329466 Z" id="path-33"></path>
        <filter x="-21.1%" y="-15.0%" width="142.2%" height="140.5%" filterUnits="objectBoundingBox" id="filter-34">
            <feOffset dx="0" dy="4" in="SourceAlpha" result="shadowOffsetOuter1"></feOffset>
            <feGaussianBlur stdDeviation="4.5" in="shadowOffsetOuter1" result="shadowBlurOuter1"></feGaussianBlur>
            <feColorMatrix values="0 0 0 0 0   0 0 0 0 0   0 0 0 0 0  0 0 0 0.05 0" type="matrix" in="shadowBlurOuter1"></feColorMatrix>
        </filter>
        <path d="M41.8705463,18.7601264 L78.8675012,35.432971 L78.8675012,35.432971 C79.7271246,36.1440562 80.4544954,37.0835916 81.0496137,38.2515771 C81.6447321,39.4195626 81.6218473,41.0101135 80.9809594,43.0232298 L31.9515866,30.3060975 C37.9002574,30.466906 39.9361582,27.7704653 38.0592888,22.2167753 C38.0592888,22.2167753 38.0592888,22.2167753 38.0592888,22.2167753 C37.5631185,20.7485985 38.3510854,19.1561805 39.8192622,18.6600102 C40.4911093,18.4329595 41.224009,18.4687161 41.8705463,18.7601264 Z" id="path-35"></path>
        <filter x="-15.1%" y="-11.6%" width="122.2%" height="127.8%" filterUnits="objectBoundingBox" id="filter-36">
            <feOffset dx="-2" dy="-1" in="SourceAlpha" result="shadowOffsetOuter1"></feOffset>
            <feGaussianBlur stdDeviation="1.5" in="shadowOffsetOuter1" result="shadowBlurOuter1"></feGaussianBlur>
            <feColorMatrix values="0 0 0 0 0   0 0 0 0 0   0 0 0 0 0  0 0 0 0.07 0" type="matrix" in="shadowBlurOuter1"></feColorMatrix>
        </filter>
    </defs>
    <g id="In-App-generic-empty-states" stroke="none" stroke-width="1" fill="none" fill-rule="evenodd">
        <g id="Generic-Empty-State_Too-much-data-" transform="translate(-81.000000, -926.000000)">
            <g id="Bright" transform="translate(81.000000, 71.000000)">
                <g id="Too-much-data_L" transform="translate(0.000000, 814.000000)">
                    <g id="Too-much-data_L-drawing" transform="translate(0.000000, 41.000000)">
                        <path d="M86.6812601,26.0781352 C149.718277,27.9579521 215.969248,22.9442559 276.216155,37.6845971 C322.999421,49.1308497 302.455891,156.572636 291.014739,185.022665 C279.573586,213.472693 234.71127,190.940149 176.977957,190.940149 C119.244644,190.940149 86.6812601,216.231315 60.0814866,185.022665 C21.5926113,130.981712 23.6442429,24.1983184 86.6812601,26.0781352 Z" id="Rectangle" fill="#CCCED3" opacity="0.08"></path>
                        <path d="M113.168464,24.369784 C163.304231,18.1059562 255.557874,44.5719904 311.640135,79.5517682 C355.189447,106.714462 285.723837,174.445761 260.775985,193.853643 C235.828133,213.261525 195.724014,209.150911 131.90149,195.815262 C68.0789661,182.479614 26.1670751,182.889339 12.7073907,146.85388 C-2.70390702,87.3065123 63.0326963,30.6336118 113.168464,24.369784 Z" id="Rectangle-Copy" fill="#F1F2F5" opacity="0.22"></path>
                        <g id="Decorations" transform="translate(0.000000, 20.842912)">
                            <circle id="Oval" fill="#CCCED3" cx="336.743295" cy="110.076628" r="3.25670498"></circle>
                            <circle id="Oval-Copy-2" fill="#CCCED3" cx="185.632184" cy="100.226632" r="1.95402299"></circle>
                            <path d="M220.653257,26.0536398 L222.177203,26.0536398 C222.453345,26.0536398 222.677203,26.2774975 222.677203,26.5536398 L222.677203,51.6072797 C222.677203,51.8834221 222.453345,52.1072797 222.177203,52.1072797 L220.653257,52.1072797 C220.377114,52.1072797 220.153257,51.8834221 220.153257,51.6072797 L220.153257,26.5536398 C220.153257,26.2774975 220.377114,26.0536398 220.653257,26.0536398 Z" id="Rectangle-Copy-6" fill="#CCCED3" opacity="0.339076451" transform="translate(221.415230, 39.080460) scale(-1, 1) rotate(18.000000) translate(-221.415230, -39.080460) "></path>
                            <rect id="Rectangle-Copy-5" fill="#CCCED3" opacity="0.339076451" x="239.693487" y="147.203065" width="2.60536398" height="20.8429119" rx="0.5"></rect>
                            <circle id="Oval-Copy-3" fill="#CCCED3" cx="1.30268199" cy="50.0733757" r="1.30268199"></circle>
                            <circle id="Oval-Copy-4" fill="#CCCED3" cx="264.444444" cy="125.057471" r="1.30268199"></circle>
                            <circle id="Oval-Copy" fill="#CCCED3" cx="93.7931034" cy="143.295019" r="3.90804598"></circle>
                            <g id="corner-llines" opacity="0.34" transform="translate(22.796935, 17.586207) rotate(-13.000000) translate(-22.796935, -17.586207) translate(7.816092, 3.908046)" fill="#CCCED3">
                                <path d="M25.7926435,1.81720855 L27.3980075,1.81720855 C27.6741498,1.81720855 27.8980075,2.04106618 27.8980075,2.31720855 L27.8980075,16.9493925 C27.8980075,17.2255348 27.6741498,17.4493925 27.3980075,17.4493925 L25.7926435,17.4493925 C25.5165011,17.4493925 25.2926435,17.2255348 25.2926435,16.9493925 L25.2926435,2.31720855 C25.2926435,2.04106618 25.5165011,1.81720855 25.7926435,1.81720855 Z" id="Rectangle-Copy" transform="translate(26.595325, 9.633301) rotate(-12.000000) translate(-26.595325, -9.633301) "></path>
                                <path d="M13.019664,-2.60536398 L14.625028,-2.60536398 C14.9011704,-2.60536398 15.125028,-2.38150636 15.125028,-2.10536398 L15.125028,22.9482759 C15.125028,23.2244182 14.9011704,23.4482759 14.625028,23.4482759 L13.019664,23.4482759 C12.7435216,23.4482759 12.519664,23.2244182 12.519664,22.9482759 L12.519664,-2.10536398 C12.519664,-2.38150636 12.7435216,-2.60536398 13.019664,-2.60536398 Z" id="Rectangle-Copy-2" transform="translate(13.822346, 10.421456) rotate(-44.000000) translate(-13.822346, -10.421456) "></path>
                                <path d="M9.61877395,12.2955979 L11.2241379,12.2955979 C11.5002803,12.2955979 11.7241379,12.5194556 11.7241379,12.7955979 L11.7241379,32.6385098 C11.7241379,32.9146522 11.5002803,33.1385098 11.2241379,33.1385098 L9.61877395,33.1385098 C9.34263157,33.1385098 9.11877395,32.9146522 9.11877395,32.6385098 L9.11877395,12.7955979 C9.11877395,12.5194556 9.34263157,12.2955979 9.61877395,12.2955979 Z" id="Rectangle-Copy-4" transform="translate(10.421456, 22.717054) rotate(-75.000000) translate(-10.421456, -22.717054) "></path>
                            </g>
                            <path d="M21.2244586,144.979248 C21.6940546,144.509652 22.4329762,144.473529 22.9440069,144.87088 L23.0667291,144.979248 L26.7505747,148.662069 L30.4358113,144.979248 C30.9445403,144.470519 31.7693529,144.470519 32.2780818,144.979248 C32.7868108,145.487977 32.7868108,146.312789 32.2780818,146.821518 L28.5938697,150.505364 L32.2780818,154.190601 C32.7476778,154.660197 32.7838006,155.399118 32.3864501,155.910149 L32.2780818,156.032871 C31.8084859,156.502467 31.0695642,156.53859 30.5585335,156.141239 L30.4358113,156.032871 L26.7505747,152.348659 L23.0667291,156.032871 C22.5580002,156.5416 21.7331876,156.5416 21.2244586,156.032871 C20.7157296,155.524142 20.7157296,154.69933 21.2244586,154.190601 L24.9072797,150.505364 L21.2244586,146.821518 C20.7548626,146.351922 20.7187399,145.613001 21.1160903,145.10197 L21.2244586,144.979248 Z" id="Path" fill="#CCCED3"></path>
                            <path d="M317.686158,87.4479413 C317.910489,87.6722716 317.910489,88.035983 317.686158,88.2603133 L316.060613,89.8850575 L317.686158,91.5098016 C317.882447,91.7060907 317.906984,92.0090933 317.759767,92.2320608 L317.686158,92.3221737 C317.489869,92.5184628 317.186867,92.5429989 316.963899,92.3957821 L316.873786,92.3221737 L315.249042,90.6966284 L313.624298,92.3221737 C313.399968,92.546504 313.036256,92.546504 312.811926,92.3221737 C312.587596,92.0978433 312.587596,91.734132 312.811926,91.5098016 L314.437471,89.8850575 L312.811926,88.2603133 C312.615637,88.0640243 312.591101,87.7610216 312.738318,87.5380542 L312.811926,87.4479413 C313.008215,87.2516522 313.311218,87.2271161 313.534185,87.3743329 L313.624298,87.4479413 L315.249042,89.0734866 L316.873786,87.4479413 C317.098117,87.2236109 317.461828,87.2236109 317.686158,87.4479413 Z" id="Path" fill="#CCCED3"></path>
                            <path d="M26.7049808,83.9431075 C26.8848437,83.9431075 27.0306513,84.0889152 27.0306513,84.268778 L27.0308142,84.9714121 L27.6188994,84.3838293 C27.7450852,84.2576434 27.9496729,84.2576434 28.0758587,84.3838293 C28.2020445,84.5100151 28.2020445,84.7146027 28.0758587,84.8407886 L27.3449234,85.5712972 L28.3333333,85.57146 C28.4952099,85.57146 28.6295017,85.6895642 28.6547414,85.8443051 L28.6590038,85.8971305 C28.6590038,86.0606422 28.5385016,86.1960091 28.3814585,86.2192699 L28.3333333,86.222801 L27.6297222,86.2224753 L28.0758587,86.6686257 C28.189426,86.782193 28.2007827,86.9592657 28.1099289,87.085534 L28.0758587,87.125585 C27.9622915,87.2391523 27.7852188,87.250509 27.6589504,87.1596552 L27.6188994,87.125585 L27.0308142,86.5375615 L27.0306513,87.525483 C27.0306513,87.7053459 26.8848437,87.8511535 26.7049808,87.8511535 C26.525118,87.8511535 26.3793103,87.7053459 26.3793103,87.525483 L26.3791475,86.537073 L25.7910623,87.125585 C25.6648764,87.2517708 25.4602888,87.2517708 25.334103,87.125585 C25.2079171,86.9993992 25.2079171,86.7948115 25.334103,86.6686257 L25.779751,86.2224753 L25.0766284,86.222801 C24.9147518,86.222801 24.7804599,86.1046968 24.7552203,85.949956 L24.7509579,85.8971305 C24.7509579,85.7336188 24.87146,85.5982519 25.0285032,85.5749911 L25.0766284,85.57146 L26.0640613,85.5712972 L25.334103,84.8407886 C25.2205357,84.7272213 25.209179,84.5501486 25.3000328,84.4238803 L25.334103,84.3838293 C25.4476702,84.270262 25.6247429,84.2589053 25.7510113,84.3497591 L25.7910623,84.3838293 L26.3791475,84.9719006 L26.3793103,84.268778 C26.3793103,84.0889152 26.525118,83.9431075 26.7049808,83.9431075 Z" id="Path" fill="#CCCED3"></path>
                            <path d="M290.498084,7.16475096 C290.81784,7.16475096 291.083781,7.39516304 291.138931,7.69901259 L291.149425,7.81609195 L291.149425,9.77011494 C291.149425,10.1298406 290.85781,10.4214559 290.498084,10.4214559 C290.178328,10.4214559 289.912388,10.1910439 289.857237,9.88719431 L289.846743,9.77011494 L289.846743,7.81609195 C289.846743,7.45636625 290.138359,7.16475096 290.498084,7.16475096 Z M292.710714,6.51706362 L292.800922,6.59243088 L294.182625,7.97413378 C294.43699,8.22849826 294.43699,8.64090457 294.182625,8.89526905 C293.956524,9.12137081 293.605549,9.14649323 293.351698,8.97063631 L293.26149,8.89526905 L291.879787,7.51356615 C291.625423,7.25920166 291.625423,6.84679536 291.879787,6.59243088 C292.077626,6.39459183 292.371071,6.3506276 292.611401,6.46053818 L292.710714,6.51706362 Z M289.116381,6.59243088 C289.342483,6.81853264 289.367606,7.16950695 289.191749,7.42335817 L289.116381,7.51356615 L287.734678,8.89526905 C287.480314,9.14963353 287.067908,9.14963353 286.813543,8.89526905 C286.587441,8.66916729 286.562319,8.31819297 286.738176,8.06434176 L286.813543,7.97413378 L288.195246,6.59243088 C288.449611,6.33806639 288.862017,6.33806639 289.116381,6.59243088 Z M295.057471,4.55938697 C295.417197,4.55938697 295.708812,4.85100227 295.708812,5.21072797 C295.708812,5.53048415 295.4784,5.7964247 295.174551,5.85157499 L295.057471,5.86206897 L293.103448,5.86206897 C292.743723,5.86206897 292.452107,5.57045367 292.452107,5.21072797 C292.452107,4.89097179 292.682519,4.62503124 292.986369,4.56988095 L293.103448,4.55938697 L295.057471,4.55938697 Z M287.89272,4.55938697 C288.252446,4.55938697 288.544061,4.85100227 288.544061,5.21072797 C288.544061,5.53048415 288.313649,5.7964247 288.0098,5.85157499 L287.89272,5.86206897 L285.938697,5.86206897 C285.578972,5.86206897 285.287356,5.57045367 285.287356,5.21072797 C285.287356,4.89097179 285.517768,4.62503124 285.821618,4.56988095 L285.938697,4.55938697 L287.89272,4.55938697 Z M287.644471,1.45081963 L287.734678,1.52618689 L289.116381,2.90788979 C289.370746,3.16225427 289.370746,3.57466058 289.116381,3.82902506 C288.89028,4.05512682 288.539305,4.08024924 288.285454,3.90439232 L288.195246,3.82902506 L286.813543,2.44732216 C286.559179,2.19295768 286.559179,1.78055137 286.813543,1.52618689 C287.011382,1.32834785 287.304827,1.28438362 287.545157,1.39429419 L287.644471,1.45081963 Z M294.182625,1.52618689 C294.408727,1.75228865 294.43385,2.10326296 294.257993,2.35711418 L294.182625,2.44732216 L292.800922,3.82902506 C292.546558,4.08338954 292.134152,4.08338954 291.879787,3.82902506 C291.653685,3.6029233 291.628563,3.25194899 291.80442,2.99809777 L291.879787,2.90788979 L293.26149,1.52618689 C293.515855,1.27182241 293.928261,1.27182241 294.182625,1.52618689 Z M290.498084,0 C290.81784,0 291.083781,0.230412087 291.138931,0.534261628 L291.149425,0.651340996 L291.149425,2.60536398 C291.149425,2.96508968 290.85781,3.25670498 290.498084,3.25670498 C290.178328,3.25670498 289.912388,3.02629289 289.857237,2.72244335 L289.846743,2.60536398 L289.846743,0.651340996 C289.846743,0.291615297 290.138359,0 290.498084,0 Z" id="Combined-Shape-Copy-5" fill="#CCCED3" fill-rule="nonzero"></path>
                            <path d="M312.977366,138.185154 C313.608794,138.529986 313.841125,139.321401 313.496293,139.952829 C309.992687,146.368328 294.750297,156.939771 286.123397,157.456178 C285.405231,157.499167 284.788193,156.951829 284.745204,156.233663 C284.702214,155.515497 285.249553,154.898459 285.967719,154.855469 C293.655726,154.395264 308.118387,144.364607 311.209691,138.70408 C311.554524,138.072652 312.345939,137.840321 312.977366,138.185154 Z M274.47049,148.21864 L274.587161,148.333498 L277.382565,151.449632 C277.711646,151.816472 278.219569,151.966202 278.695018,151.83653 L280.806944,151.254633 C282.318415,150.832981 283.401749,150.516854 284.051387,150.308064 C284.736332,150.087927 285.470046,150.464728 285.690184,151.149673 C285.910321,151.834618 285.53352,152.568333 284.848575,152.78847 L284.256317,152.97272 C283.211428,153.289568 281.589116,153.747731 279.380555,154.350085 C278.03811,154.716218 276.609369,154.339856 275.622853,153.376801 L275.443193,153.18939 L272.64779,150.073257 C272.167369,149.537715 272.212053,148.714114 272.747596,148.233692 C273.200747,147.827182 273.860142,147.796635 274.343359,148.121303 L274.47049,148.21864 Z M302.780248,141.078203 C303.285111,141.590769 303.278865,142.415558 302.766299,142.920421 C299.327196,146.307833 296.516898,148.134853 291.321465,150.129705 C290.649822,150.387591 289.896289,150.052175 289.638403,149.380531 C289.380517,148.708887 289.715933,147.955355 290.387577,147.697469 C295.244853,145.832456 297.751635,144.202756 300.938031,141.064254 C301.450597,140.559391 302.275386,140.565637 302.780248,141.078203 Z" id="Shape" fill="#E7E9EB" fill-rule="nonzero" opacity="0.847632999"></path>
                        </g>
                        <g id="doc" transform="translate(139.386973, 33.869732) scale(-1, 1) rotate(7.000000) translate(-139.386973, -33.869732) translate(109.425287, 3.908046)">
                            <g id="Rectangle-Copy-11">
                                <use fill="black" fill-opacity="1" filter="url(#filter-2)" xlink:href="#path-1"></use>
                                <use fill="#FFFFFF" fill-rule="evenodd" xlink:href="#path-1"></use>
                            </g>
                            <g id="Rectangle-Copy-12" transform="translate(37.810337, 19.420529) scale(-1, -1) rotate(27.000000) translate(-37.810337, -19.420529) ">
                                <use fill="black" fill-opacity="1" filter="url(#filter-4)" xlink:href="#path-3"></use>
                                <use fill="#CCCED3" fill-rule="evenodd" xlink:href="#path-3"></use>
                            </g>
                        </g>
                        <g id="Excel-Copy" transform="translate(171.954023, 46.245211) rotate(14.000000) translate(-171.954023, -46.245211) translate(149.808429, 16.934866)">
                            <path d="M4.68692212,0.270169162 L42.7624558,0.270169162 C43.3996842,0.270169162 43.9162598,0.781983765 43.9162598,1.41333907 L43.9162598,55.1423249 C43.9162598,55.7736802 43.3996842,56.2854948 42.7624558,56.2854948 L4.68692212,56.2854948 C4.04969374,56.2854948 3.53311807,55.7736802 3.53311807,55.1423249 L3.53311807,1.41333907 C3.53311807,0.781983765 4.04969374,0.270169162 4.68692212,0.270169162 Z" id="Rectangle" fill="#FFFFFF"></path>
                            <g id="Rectangle">
                                <use fill="black" fill-opacity="1" filter="url(#filter-6)" xlink:href="#path-5"></use>
                                <use fill="#FFFFFF" fill-rule="evenodd" xlink:href="#path-5"></use>
                            </g>
                            <g id="List" transform="translate(1.069698, 2.421075)">
                                <path d="M22.499179,3.40914649 L28.2681992,3.40914649 C28.5868134,3.40914649 28.8451013,3.6635343 28.8451013,3.97733757 L28.8451013,6.2501019 C28.8451013,6.56390517 28.5868134,6.81829298 28.2681992,6.81829298 L22.499179,6.81829298 C22.1805648,6.81829298 21.922277,6.56390517 21.922277,6.2501019 L21.922277,3.97733757 C21.922277,3.6635343 22.1805648,3.40914649 22.499179,3.40914649 Z" id="Rectangle" fill="#EBEBEC"></path>
                                <path d="M4.03831418,3.40914649 L9.80733443,3.40914649 C10.1259486,3.40914649 10.3842365,3.6635343 10.3842365,3.97733757 L10.3842365,6.2501019 C10.3842365,6.56390517 10.1259486,6.81829298 9.80733443,6.81829298 L4.03831418,6.81829298 C3.71969999,6.81829298 3.46141215,6.56390517 3.46141215,6.2501019 L3.46141215,3.97733757 C3.46141215,3.6635343 3.71969999,3.40914649 4.03831418,3.40914649 Z" id="Rectangle-Copy-8" fill="#EBEBEC"></path>
                                <path d="M31.7296114,3.40914649 L37.4986316,3.40914649 C37.8172458,3.40914649 38.0755337,3.6635343 38.0755337,3.97733757 L38.0755337,6.2501019 C38.0755337,6.56390517 37.8172458,6.81829298 37.4986316,6.81829298 L31.7296114,6.81829298 C31.4109972,6.81829298 31.1527094,6.56390517 31.1527094,6.2501019 L31.1527094,3.97733757 C31.1527094,3.6635343 31.4109972,3.40914649 31.7296114,3.40914649 Z" id="Rectangle-Copy-7" fill="#EBEBEC"></path>
                                <path d="M13.2687466,3.40914649 L19.0377668,3.40914649 C19.356381,3.40914649 19.6146689,3.6635343 19.6146689,3.97733757 L19.6146689,6.2501019 C19.6146689,6.56390517 19.356381,6.81829298 19.0377668,6.81829298 L13.2687466,6.81829298 C12.9501324,6.81829298 12.6918446,6.56390517 12.6918446,6.2501019 L12.6918446,3.97733757 C12.6918446,3.6635343 12.9501324,3.40914649 13.2687466,3.40914649 Z" id="Rectangle-Copy-9" fill="#EBEBEC"></path>
                                <path d="M22.499179,9.09105731 L28.2681992,9.09105731 C28.5868134,9.09105731 28.8451013,9.34544512 28.8451013,9.65924839 L28.8451013,11.9320127 C28.8451013,12.245816 28.5868134,12.5002038 28.2681992,12.5002038 L22.499179,12.5002038 C22.1805648,12.5002038 21.922277,12.245816 21.922277,11.9320127 L21.922277,9.65924839 C21.922277,9.34544512 22.1805648,9.09105731 22.499179,9.09105731 Z" id="Rectangle" fill="#EBEBEC"></path>
                                <path d="M4.03831418,9.09105731 L9.80733443,9.09105731 C10.1259486,9.09105731 10.3842365,9.34544512 10.3842365,9.65924839 L10.3842365,11.9320127 C10.3842365,12.245816 10.1259486,12.5002038 9.80733443,12.5002038 L4.03831418,12.5002038 C3.71969999,12.5002038 3.46141215,12.245816 3.46141215,11.9320127 L3.46141215,9.65924839 C3.46141215,9.34544512 3.71969999,9.09105731 4.03831418,9.09105731 Z" id="Rectangle-Copy-8" fill="#EBEBEC"></path>
                                <path d="M31.7296114,9.09105731 L37.4986316,9.09105731 C37.8172458,9.09105731 38.0755337,9.34544512 38.0755337,9.65924839 L38.0755337,11.9320127 C38.0755337,12.245816 37.8172458,12.5002038 37.4986316,12.5002038 L31.7296114,12.5002038 C31.4109972,12.5002038 31.1527094,12.245816 31.1527094,11.9320127 L31.1527094,9.65924839 C31.1527094,9.34544512 31.4109972,9.09105731 31.7296114,9.09105731 Z" id="Rectangle-Copy-7" fill="#EBEBEC"></path>
                                <path d="M13.2687466,9.09105731 L19.0377668,9.09105731 C19.356381,9.09105731 19.6146689,9.34544512 19.6146689,9.65924839 L19.6146689,11.9320127 C19.6146689,12.245816 19.356381,12.5002038 19.0377668,12.5002038 L13.2687466,12.5002038 C12.9501324,12.5002038 12.6918446,12.245816 12.6918446,11.9320127 L12.6918446,9.65924839 C12.6918446,9.34544512 12.9501324,9.09105731 13.2687466,9.09105731 Z" id="Rectangle-Copy-9" fill="#EBEBEC"></path>
                                <path d="M22.499179,14.7729681 L28.2681992,14.7729681 C28.5868134,14.7729681 28.8451013,15.0273559 28.8451013,15.3411592 L28.8451013,17.6139235 C28.8451013,17.9277268 28.5868134,18.1821146 28.2681992,18.1821146 L22.499179,18.1821146 C22.1805648,18.1821146 21.922277,17.9277268 21.922277,17.6139235 L21.922277,15.3411592 C21.922277,15.0273559 22.1805648,14.7729681 22.499179,14.7729681 Z" id="Rectangle" fill="#EBEBEC"></path>
                                <path d="M4.03831418,14.7729681 L9.80733443,14.7729681 C10.1259486,14.7729681 10.3842365,15.0273559 10.3842365,15.3411592 L10.3842365,17.6139235 C10.3842365,17.9277268 10.1259486,18.1821146 9.80733443,18.1821146 L4.03831418,18.1821146 C3.71969999,18.1821146 3.46141215,17.9277268 3.46141215,17.6139235 L3.46141215,15.3411592 C3.46141215,15.0273559 3.71969999,14.7729681 4.03831418,14.7729681 Z" id="Rectangle-Copy-8" fill="#EBEBEC"></path>
                                <path d="M31.7296114,14.7729681 L37.4986316,14.7729681 C37.8172458,14.7729681 38.0755337,15.0273559 38.0755337,15.3411592 L38.0755337,17.6139235 C38.0755337,17.9277268 37.8172458,18.1821146 37.4986316,18.1821146 L31.7296114,18.1821146 C31.4109972,18.1821146 31.1527094,17.9277268 31.1527094,17.6139235 L31.1527094,15.3411592 C31.1527094,15.0273559 31.4109972,14.7729681 31.7296114,14.7729681 Z" id="Rectangle-Copy-7" fill="#EBEBEC"></path>
                                <path d="M13.2687466,14.7729681 L19.0377668,14.7729681 C19.356381,14.7729681 19.6146689,15.0273559 19.6146689,15.3411592 L19.6146689,17.6139235 C19.6146689,17.9277268 19.356381,18.1821146 19.0377668,18.1821146 L13.2687466,18.1821146 C12.9501324,18.1821146 12.6918446,17.9277268 12.6918446,17.6139235 L12.6918446,15.3411592 C12.6918446,15.0273559 12.9501324,14.7729681 13.2687466,14.7729681 Z" id="Rectangle-Copy-9" fill="#EBEBEC"></path>
                                <path d="M22.499179,20.4548789 L28.2681992,20.4548789 C28.5868134,20.4548789 28.8451013,20.7092668 28.8451013,21.02307 L28.8451013,23.2958344 C28.8451013,23.6096376 28.5868134,23.8640254 28.2681992,23.8640254 L22.499179,23.8640254 C22.1805648,23.8640254 21.922277,23.6096376 21.922277,23.2958344 L21.922277,21.02307 C21.922277,20.7092668 22.1805648,20.4548789 22.499179,20.4548789 Z" id="Rectangle" fill="#EBEBEC"></path>
                                <path d="M4.03831418,20.4548789 L9.80733443,20.4548789 C10.1259486,20.4548789 10.3842365,20.7092668 10.3842365,21.02307 L10.3842365,23.2958344 C10.3842365,23.6096376 10.1259486,23.8640254 9.80733443,23.8640254 L4.03831418,23.8640254 C3.71969999,23.8640254 3.46141215,23.6096376 3.46141215,23.2958344 L3.46141215,21.02307 C3.46141215,20.7092668 3.71969999,20.4548789 4.03831418,20.4548789 Z" id="Rectangle-Copy-8" fill="#EBEBEC"></path>
                                <path d="M31.7296114,20.4548789 L37.4986316,20.4548789 C37.8172458,20.4548789 38.0755337,20.7092668 38.0755337,21.02307 L38.0755337,23.2958344 C38.0755337,23.6096376 37.8172458,23.8640254 37.4986316,23.8640254 L31.7296114,23.8640254 C31.4109972,23.8640254 31.1527094,23.6096376 31.1527094,23.2958344 L31.1527094,21.02307 C31.1527094,20.7092668 31.4109972,20.4548789 31.7296114,20.4548789 Z" id="Rectangle-Copy-7" fill="#EBEBEC"></path>
                                <path d="M13.2687466,20.4548789 L19.0377668,20.4548789 C19.356381,20.4548789 19.6146689,20.7092668 19.6146689,21.02307 L19.6146689,23.2958344 C19.6146689,23.6096376 19.356381,23.8640254 19.0377668,23.8640254 L13.2687466,23.8640254 C12.9501324,23.8640254 12.6918446,23.6096376 12.6918446,23.2958344 L12.6918446,21.02307 C12.6918446,20.7092668 12.9501324,20.4548789 13.2687466,20.4548789 Z" id="Rectangle-Copy-9" fill="#EBEBEC"></path>
                                <path d="M22.499179,26.1367898 L28.2681992,26.1367898 C28.5868134,26.1367898 28.8451013,26.3911776 28.8451013,26.7049808 L28.8451013,28.9777452 C28.8451013,29.2915484 28.5868134,29.5459363 28.2681992,29.5459363 L22.499179,29.5459363 C22.1805648,29.5459363 21.922277,29.2915484 21.922277,28.9777452 L21.922277,26.7049808 C21.922277,26.3911776 22.1805648,26.1367898 22.499179,26.1367898 Z" id="Rectangle" fill="#EBEBEC"></path>
                                <path d="M4.03831418,26.1367898 L9.80733443,26.1367898 C10.1259486,26.1367898 10.3842365,26.3911776 10.3842365,26.7049808 L10.3842365,28.9777452 C10.3842365,29.2915484 10.1259486,29.5459363 9.80733443,29.5459363 L4.03831418,29.5459363 C3.71969999,29.5459363 3.46141215,29.2915484 3.46141215,28.9777452 L3.46141215,26.7049808 C3.46141215,26.3911776 3.71969999,26.1367898 4.03831418,26.1367898 Z" id="Rectangle-Copy-8" fill="#EBEBEC"></path>
                                <path d="M31.7296114,26.1367898 L37.4986316,26.1367898 C37.8172458,26.1367898 38.0755337,26.3911776 38.0755337,26.7049808 L38.0755337,28.9777452 C38.0755337,29.2915484 37.8172458,29.5459363 37.4986316,29.5459363 L31.7296114,29.5459363 C31.4109972,29.5459363 31.1527094,29.2915484 31.1527094,28.9777452 L31.1527094,26.7049808 C31.1527094,26.3911776 31.4109972,26.1367898 31.7296114,26.1367898 Z" id="Rectangle-Copy-7" fill="#EBEBEC"></path>
                                <path d="M13.2687466,26.1367898 L19.0377668,26.1367898 C19.356381,26.1367898 19.6146689,26.3911776 19.6146689,26.7049808 L19.6146689,28.9777452 C19.6146689,29.2915484 19.356381,29.5459363 19.0377668,29.5459363 L13.2687466,29.5459363 C12.9501324,29.5459363 12.6918446,29.2915484 12.6918446,28.9777452 L12.6918446,26.7049808 C12.6918446,26.3911776 12.9501324,26.1367898 13.2687466,26.1367898 Z" id="Rectangle-Copy-9" fill="#EBEBEC"></path>
                                <path d="M22.499179,31.8187006 L28.2681992,31.8187006 C28.5868134,31.8187006 28.8451013,32.0730884 28.8451013,32.3868917 L28.8451013,34.659656 C28.8451013,34.9734593 28.5868134,35.2278471 28.2681992,35.2278471 L22.499179,35.2278471 C22.1805648,35.2278471 21.922277,34.9734593 21.922277,34.659656 L21.922277,32.3868917 C21.922277,32.0730884 22.1805648,31.8187006 22.499179,31.8187006 Z" id="Rectangle" fill="#EBEBEC"></path>
                                <path d="M4.03831418,31.8187006 L9.80733443,31.8187006 C10.1259486,31.8187006 10.3842365,32.0730884 10.3842365,32.3868917 L10.3842365,34.659656 C10.3842365,34.9734593 10.1259486,35.2278471 9.80733443,35.2278471 L4.03831418,35.2278471 C3.71969999,35.2278471 3.46141215,34.9734593 3.46141215,34.659656 L3.46141215,32.3868917 C3.46141215,32.0730884 3.71969999,31.8187006 4.03831418,31.8187006 Z" id="Rectangle-Copy-8" fill="#EBEBEC"></path>
                                <path d="M31.7296114,31.8187006 L37.4986316,31.8187006 C37.8172458,31.8187006 38.0755337,32.0730884 38.0755337,32.3868917 L38.0755337,34.659656 C38.0755337,34.9734593 37.8172458,35.2278471 37.4986316,35.2278471 L31.7296114,35.2278471 C31.4109972,35.2278471 31.1527094,34.9734593 31.1527094,34.659656 L31.1527094,32.3868917 C31.1527094,32.0730884 31.4109972,31.8187006 31.7296114,31.8187006 Z" id="Rectangle-Copy-7" fill="#EBEBEC"></path>
                                <path d="M13.2687466,31.8187006 L19.0377668,31.8187006 C19.356381,31.8187006 19.6146689,32.0730884 19.6146689,32.3868917 L19.6146689,34.659656 C19.6146689,34.9734593 19.356381,35.2278471 19.0377668,35.2278471 L13.2687466,35.2278471 C12.9501324,35.2278471 12.6918446,34.9734593 12.6918446,34.659656 L12.6918446,32.3868917 C12.6918446,32.0730884 12.9501324,31.8187006 13.2687466,31.8187006 Z" id="Rectangle-Copy-9" fill="#EBEBEC"></path>
                                <path d="M22.499179,37.5006114 L28.2681992,37.5006114 C28.5868134,37.5006114 28.8451013,37.7549992 28.8451013,38.0688025 L28.8451013,40.3415668 C28.8451013,40.6553701 28.5868134,40.9097579 28.2681992,40.9097579 L22.499179,40.9097579 C22.1805648,40.9097579 21.922277,40.6553701 21.922277,40.3415668 L21.922277,38.0688025 C21.922277,37.7549992 22.1805648,37.5006114 22.499179,37.5006114 Z" id="Rectangle" fill="#EBEBEC"></path>
                                <path d="M4.03831418,37.5006114 L9.80733443,37.5006114 C10.1259486,37.5006114 10.3842365,37.7549992 10.3842365,38.0688025 L10.3842365,40.3415668 C10.3842365,40.6553701 10.1259486,40.9097579 9.80733443,40.9097579 L4.03831418,40.9097579 C3.71969999,40.9097579 3.46141215,40.6553701 3.46141215,40.3415668 L3.46141215,38.0688025 C3.46141215,37.7549992 3.71969999,37.5006114 4.03831418,37.5006114 Z" id="Rectangle-Copy-8" fill="#EBEBEC"></path>
                                <path d="M31.7296114,37.5006114 L37.4986316,37.5006114 C37.8172458,37.5006114 38.0755337,37.7549992 38.0755337,38.0688025 L38.0755337,40.3415668 C38.0755337,40.6553701 37.8172458,40.9097579 37.4986316,40.9097579 L31.7296114,40.9097579 C31.4109972,40.9097579 31.1527094,40.6553701 31.1527094,40.3415668 L31.1527094,38.0688025 C31.1527094,37.7549992 31.4109972,37.5006114 31.7296114,37.5006114 Z" id="Rectangle-Copy-7" fill="#EBEBEC"></path>
                                <path d="M13.2687466,37.5006114 L19.0377668,37.5006114 C19.356381,37.5006114 19.6146689,37.7549992 19.6146689,38.0688025 L19.6146689,40.3415668 C19.6146689,40.6553701 19.356381,40.9097579 19.0377668,40.9097579 L13.2687466,40.9097579 C12.9501324,40.9097579 12.6918446,40.6553701 12.6918446,40.3415668 L12.6918446,38.0688025 C12.6918446,37.7549992 12.9501324,37.5006114 13.2687466,37.5006114 Z" id="Rectangle-Copy-9" fill="#EBEBEC"></path>
                                <path d="M22.499179,43.1825222 L28.2681992,43.1825222 C28.5868134,43.1825222 28.8451013,43.43691 28.8451013,43.7507133 L28.8451013,46.0234776 C28.8451013,46.3372809 28.5868134,46.5916687 28.2681992,46.5916687 L22.499179,46.5916687 C22.1805648,46.5916687 21.922277,46.3372809 21.922277,46.0234776 L21.922277,43.7507133 C21.922277,43.43691 22.1805648,43.1825222 22.499179,43.1825222 Z" id="Rectangle" fill="#EBEBEC"></path>
                                <path d="M4.03831418,43.1825222 L9.80733443,43.1825222 C10.1259486,43.1825222 10.3842365,43.43691 10.3842365,43.7507133 L10.3842365,46.0234776 C10.3842365,46.3372809 10.1259486,46.5916687 9.80733443,46.5916687 L4.03831418,46.5916687 C3.71969999,46.5916687 3.46141215,46.3372809 3.46141215,46.0234776 L3.46141215,43.7507133 C3.46141215,43.43691 3.71969999,43.1825222 4.03831418,43.1825222 Z" id="Rectangle-Copy-8" fill="#EBEBEC"></path>
                                <path d="M31.7296114,43.1825222 L37.4986316,43.1825222 C37.8172458,43.1825222 38.0755337,43.43691 38.0755337,43.7507133 L38.0755337,46.0234776 C38.0755337,46.3372809 37.8172458,46.5916687 37.4986316,46.5916687 L31.7296114,46.5916687 C31.4109972,46.5916687 31.1527094,46.3372809 31.1527094,46.0234776 L31.1527094,43.7507133 C31.1527094,43.43691 31.4109972,43.1825222 31.7296114,43.1825222 Z" id="Rectangle-Copy-7" fill="#EBEBEC"></path>
                                <path d="M13.2687466,43.1825222 L19.0377668,43.1825222 C19.356381,43.1825222 19.6146689,43.43691 19.6146689,43.7507133 L19.6146689,46.0234776 C19.6146689,46.3372809 19.356381,46.5916687 19.0377668,46.5916687 L13.2687466,46.5916687 C12.9501324,46.5916687 12.6918446,46.3372809 12.6918446,46.0234776 L12.6918446,43.7507133 C12.6918446,43.43691 12.9501324,43.1825222 13.2687466,43.1825222 Z" id="Rectangle-Copy-9" fill="#EBEBEC"></path>
                                <path d="M22.499179,48.864433 L28.2681992,48.864433 C28.5868134,48.864433 28.8451013,49.1188208 28.8451013,49.4326241 L28.8451013,51.7053884 C28.8451013,52.0191917 28.5868134,52.2735795 28.2681992,52.2735795 L22.499179,52.2735795 C22.1805648,52.2735795 21.922277,52.0191917 21.922277,51.7053884 L21.922277,49.4326241 C21.922277,49.1188208 22.1805648,48.864433 22.499179,48.864433 Z" id="Rectangle" fill="#EBEBEC"></path>
                                <path d="M4.03831418,48.864433 L9.80733443,48.864433 C10.1259486,48.864433 10.3842365,49.1188208 10.3842365,49.4326241 L10.3842365,51.7053884 C10.3842365,52.0191917 10.1259486,52.2735795 9.80733443,52.2735795 L4.03831418,52.2735795 C3.71969999,52.2735795 3.46141215,52.0191917 3.46141215,51.7053884 L3.46141215,49.4326241 C3.46141215,49.1188208 3.71969999,48.864433 4.03831418,48.864433 Z" id="Rectangle-Copy-8" fill="#EBEBEC"></path>
                                <path d="M31.7296114,48.864433 L37.4986316,48.864433 C37.8172458,48.864433 38.0755337,49.1188208 38.0755337,49.4326241 L38.0755337,51.7053884 C38.0755337,52.0191917 37.8172458,52.2735795 37.4986316,52.2735795 L31.7296114,52.2735795 C31.4109972,52.2735795 31.1527094,52.0191917 31.1527094,51.7053884 L31.1527094,49.4326241 C31.1527094,49.1188208 31.4109972,48.864433 31.7296114,48.864433 Z" id="Rectangle-Copy-7" fill="#EBEBEC"></path>
                                <path d="M13.2687466,48.864433 L19.0377668,48.864433 C19.356381,48.864433 19.6146689,49.1188208 19.6146689,49.4326241 L19.6146689,51.7053884 C19.6146689,52.0191917 19.356381,52.2735795 19.0377668,52.2735795 L13.2687466,52.2735795 C12.9501324,52.2735795 12.6918446,52.0191917 12.6918446,51.7053884 L12.6918446,49.4326241 C12.6918446,49.1188208 12.9501324,48.864433 13.2687466,48.864433 Z" id="Rectangle-Copy-9" fill="#EBEBEC"></path>
                                <polygon id="Rectangle" fill="url(#linearGradient-7)" points="0 0 40.3831418 0 40.3831418 53.4099617 0 53.4099617"></polygon>
                            </g>
                            <polygon id="X" fill-opacity="0.8" fill="#CCCED3" fill-rule="nonzero" points="9.99643555 52.6014826 13.8873159 47.6741013 17.7781962 52.6014826 21.8292893 52.6014826 16.176069 46.034611 21.4287575 39.5746626 17.6065397 39.5746626 14.0704161 44.2614665 10.4656299 39.5746626 6.55186209 39.5746626 11.7473317 45.8831363 6.19710535 52.6014826"></polygon>
                        </g>
                        <g id="Page" transform="translate(160.881226, 110.727969) scale(-1, 1) rotate(-21.000000) translate(-160.881226, -110.727969) ">
                            <use fill="black" fill-opacity="1" filter="url(#filter-10)" xlink:href="#path-9"></use>
                            <use fill="url(#linearGradient-8)" fill-rule="evenodd" xlink:href="#path-9"></use>
                        </g>
                        <g id="Doughnut" transform="translate(40.383142, 84.674330)">
                            <g id="base">
                                <g id="Path">
                                    <use fill="black" fill-opacity="1" filter="url(#filter-12)" xlink:href="#path-11"></use>
                                    <use fill="#FFFFFF" fill-rule="evenodd" xlink:href="#path-11"></use>
                                </g>
                                <g id="Path">
                                    <use fill="black" fill-opacity="1" filter="url(#filter-14)" xlink:href="#path-13"></use>
                                    <use fill="#FFFFFF" fill-rule="evenodd" xlink:href="#path-13"></use>
                                </g>
                                <path d="M5.7648809,-8.17128122e-15 L77.249404,-8.17128122e-15 C80.4332599,-8.17128122e-15 83.0142849,2.57437522 83.0142849,5.75002798 L83.0142849,13.6563165 L0,13.6563165 L0,5.75002798 C0,2.57437522 2.58102509,-8.17128122e-15 5.7648809,-8.17128122e-15 Z" id="Path-Copy" fill="#E8E9EC"></path>
                            </g>
                            <g transform="translate(38.660733, 21.286378)">
                                <path d="M34.5000703,13.9518411 C33.8373827,14.9850052 33.492494,15.5015873 33.4654042,15.5015873 C32.1015107,15.5015873 30.1655907,15.1172687 27.6576441,14.3486314 C27.1853329,10.5685657 24.4210829,7.49880405 20.7964617,6.56798247 C20.0264811,3.93325431 19.6414908,1.96921834 19.6414908,0.675874552 C19.6414908,0.639584883 20.173487,0.414293366 21.2374793,8.60227625e-14 C27.6576441,0.621440049 33.8301428,6.85399623 34.5000703,13.9518411 Z" id="Path" fill-opacity="0.82" fill="#67696F" opacity="0.485212054"></path>
                                <path d="M33.4654042,15.5014899 L26.5022659,15.5016435 C26.0299547,11.7215778 23.2657046,8.6518162 19.6410834,7.72099462 L19.641316,0.675874552 C27.1064424,1.74140292 32.9273337,7.8936528 33.4654042,15.5014899 Z" id="Path" fill="#9EA0A5"></path>
                                <path d="M17.3103947,0.675874552 L17.3103947,7.72492402 C17.1893539,7.72492402 16.1753657,8.74695958 16.1753657,8.74695958 C12.0360596,8.99861799 7.82200377,12.6425402 7.82200377,17.1576005 C7.82200377,22.2519287 11.5575198,26.459602 17.908433,26.459602 C23.2145413,26.459602 24.3252144,23.1073742 25.4183914,19.1240689 C25.4183914,19.1240689 26.8014039,18.2327083 27.0798104,17.972158 C27.0798104,17.972158 29.3299212,17.9717909 33.8301428,17.9710567 C33.2372412,26.3475346 26.4529854,32.9602147 17.908433,32.9602147 C8.97506426,32.9602147 1.73313802,25.7331189 1.73313802,16.8180446 C1.73313802,16.6739148 -0.00338394324,16.7974742 -6.71123025e-13,16.6545995 C0.210301103,7.96003004 8.5214515,0.675874552 17.3103947,0.675874552 Z" id="Path" fill-opacity="0.7" fill="#9EA0A5" opacity="0.485212054"></path>
                                <path d="M16.1901207,7.7145593 L16.1550165,1.8288867 C16.7995324,1.80430862 17.4513891,0.675874552 18.1112733,0.675874552 L18.1463775,7.7145593 C17.9414344,7.7145593 16.2245755,8.73659485 16.2245755,8.73659485" id="Shape" fill-opacity="0.7" fill="#9EA0A5" opacity="0.653180804"></path>
                                <path d="M33.8287943,17.9710567 C33.2358928,26.3475346 26.451637,32.9602147 17.9070845,32.9602147 C17.7141635,32.9602147 17.5220313,32.9568442 17.3307439,32.950159 C25.4740863,32.6633192 31.5612626,27.1322105 32.3099622,19.1240689 L32.9792643,18.6529131 L33.8287943,17.9710567 Z" id="Path" fill-opacity="0.7" fill="#9EA0A5" opacity="0.653180804"></path>
                                <path d="M16.1753657,1.8288867 L16.1753657,8.74695958 C11.0705835,8.74695958 6.93233998,12.8767285 6.93233998,17.9710567 C6.93233998,23.0653849 11.0705835,27.1951539 16.1753657,27.1951539 C20.8884868,27.1951539 24.7776937,23.6747821 25.346743,19.1251701 L32.3099622,19.1250675 C31.7170607,27.5015454 24.7199181,34.1132268 16.1753657,34.1132268 C7.24199694,34.1132268 7.06979092e-05,26.8861311 7.06979092e-05,17.9710567 C7.06979092e-05,9.0559824 7.24199694,1.8288867 16.1753657,1.8288867 Z" id="Path" fill="#CCCED3"></path>
                            </g>
                            <path d="M9.13193165,29.9339692 L29.5288009,29.9339692 C30.1546275,29.9339692 30.6619603,30.5296089 30.6619603,31.2643678 C30.6619603,31.9991267 30.1546275,32.5947664 29.5288009,32.5947664 L9.13193165,32.5947664 C8.50610499,32.5947664 7.99877225,31.9991267 7.99877225,31.2643678 C7.99877225,30.5296089 8.50610499,29.9339692 9.13193165,29.9339692 Z" id="Rectangle" fill="#CCCED3" opacity="0.647623698"></path>
                            <path d="M9.13193165,23.9471753 L29.5288009,23.9471753 C30.1546275,23.9471753 30.6619603,24.5428151 30.6619603,25.277574 C30.6619603,26.0123329 30.1546275,26.6079726 29.5288009,26.6079726 L9.13193165,26.6079726 C8.50610499,26.6079726 7.99877225,26.0123329 7.99877225,25.277574 C7.99877225,24.5428151 8.50610499,23.9471753 9.13193165,23.9471753 Z" id="Rectangle-Copy-3" fill="#CCCED3" opacity="0.647623698"></path>
                            <path d="M9.21070744,35.920763 L20.1181241,35.920763 C20.7874575,35.920763 21.3300593,36.5164028 21.3300593,37.2511617 C21.3300593,37.9859205 20.7874575,38.5815603 20.1181241,38.5815603 L9.21070744,38.5815603 C8.54137411,38.5815603 7.99877225,37.9859205 7.99877225,37.2511617 C7.99877225,36.5164028 8.54137411,35.920763 9.21070744,35.920763 Z" id="Rectangle-Copy-2" fill="#CCCED3" opacity="0.647623698"></path>
                        </g>
                        <g id="DOC-Copy-2" transform="translate(295.589718, 82.977532) rotate(30.000000) translate(-295.589718, -82.977532) translate(271.490101, 51.061824)">
                            <path d="M10.5560441,0.807084395 L45.0259705,0.807084395 C46.13054,0.807084395 47.0259705,1.7025149 47.0259705,2.80708439 L47.0259705,60.033138 C47.0259705,61.1377075 46.13054,62.033138 45.0259705,62.033138 L4.73478279,62.033138 C3.63021329,62.033138 2.73478279,61.1377075 2.73478279,60.033138 L2.73478279,7.74841024 L2.73478279,7.74841024 L10.5560441,0.807084395 Z" id="Rectangle" fill="#FFFFFF"></path>
                            <mask id="mask-16" fill="white">
                                <use xlink:href="#path-15"></use>
                            </mask>
                            <g id="Rectangle">
                                <use fill="black" fill-opacity="1" filter="url(#filter-17)" xlink:href="#path-15"></use>
                                <use fill="#FFFFFF" fill-rule="evenodd" xlink:href="#path-15"></use>
                            </g>
                            <g id="Triangle" mask="url(#mask-16)" transform="translate(6.340047, 6.571692) rotate(139.000000) translate(-6.340047, -6.571692) ">
                                <use fill="black" fill-opacity="1" filter="url(#filter-19)" xlink:href="#path-18"></use>
                                <use fill="#E7E8EC" fill-rule="evenodd" xlink:href="#path-18"></use>
                            </g>
                            <circle id="Oval" fill="#9EA0A5" opacity="0.205915179" mask="url(#mask-16)" cx="13.8309618" cy="17.4926913" r="3.90804598"></circle>
                            <polygon id="Path" fill="#9EA0A5" opacity="0.205915179" mask="url(#mask-16)" points="6.4278035 41.3413704 18.4634523 27.0118684 24.7215015 34.4632094 29.0831425 29.0589401 38.9948533 41.3413704"></polygon>
                        </g>
                        <g id="Excel" transform="translate(259.856254, 72.237998) rotate(-17.000000) translate(-259.856254, -72.237998) translate(231.848591, 32.506197)">
                            <path d="M4.11557326,0.596177863 L54.4735371,0.596177863 C55.3163231,0.596177863 55.999536,1.28653244 55.999536,2.13812798 L55.999536,74.6097833 C55.999536,75.4613788 55.3163231,76.1517334 54.4735371,76.1517334 L4.11557326,76.1517334 C3.27278733,76.1517334 2.58957435,75.4613788 2.58957435,74.6097833 L2.58957435,2.13812798 C2.58957435,1.28653244 3.27278733,0.596177863 4.11557326,0.596177863 Z" id="Rectangle" fill="#FFFFFF"></path>
                            <g id="Rectangle">
                                <use fill="black" fill-opacity="1" filter="url(#filter-21)" xlink:href="#path-20"></use>
                                <use fill="#FFFFFF" fill-rule="evenodd" xlink:href="#path-20"></use>
                            </g>
                            <g id="List" transform="translate(0.772512, 4.037975)">
                                <path d="M29.7569787,4.57324529 L37.3869732,4.57324529 C37.8083661,4.57324529 38.1499726,4.91449724 38.1499726,5.33545284 L38.1499726,8.38428304 C38.1499726,8.80523864 37.8083661,9.14649058 37.3869732,9.14649058 L29.7569787,9.14649058 C29.3355857,9.14649058 28.9939792,8.80523864 28.9939792,8.38428304 L28.9939792,5.33545284 C28.9939792,4.91449724 29.3355857,4.57324529 29.7569787,4.57324529 Z" id="Rectangle" fill="#EBEBEC"></path>
                                <path d="M5.34099617,4.57324529 L12.9709907,4.57324529 C13.3923837,4.57324529 13.7339901,4.91449724 13.7339901,5.33545284 L13.7339901,8.38428304 C13.7339901,8.80523864 13.3923837,9.14649058 12.9709907,9.14649058 L5.34099617,9.14649058 C4.91960321,9.14649058 4.57799672,8.80523864 4.57799672,8.38428304 L4.57799672,5.33545284 C4.57799672,4.91449724 4.91960321,4.57324529 5.34099617,4.57324529 Z" id="Rectangle-Copy-8" fill="#EBEBEC"></path>
                                <path d="M41.9649699,4.57324529 L49.5949644,4.57324529 C50.0163574,4.57324529 50.3579639,4.91449724 50.3579639,5.33545284 L50.3579639,8.38428304 C50.3579639,8.80523864 50.0163574,9.14649058 49.5949644,9.14649058 L41.9649699,9.14649058 C41.5435769,9.14649058 41.2019704,8.80523864 41.2019704,8.38428304 L41.2019704,5.33545284 C41.2019704,4.91449724 41.5435769,4.57324529 41.9649699,4.57324529 Z" id="Rectangle-Copy-7" fill="#EBEBEC"></path>
                                <path d="M17.5489874,4.57324529 L25.1789819,4.57324529 C25.6003749,4.57324529 25.9419814,4.91449724 25.9419814,5.33545284 L25.9419814,8.38428304 C25.9419814,8.80523864 25.6003749,9.14649058 25.1789819,9.14649058 L17.5489874,9.14649058 C17.1275944,9.14649058 16.785988,8.80523864 16.785988,8.38428304 L16.785988,5.33545284 C16.785988,4.91449724 17.1275944,4.57324529 17.5489874,4.57324529 Z" id="Rectangle-Copy-9" fill="#EBEBEC"></path>
                                <path d="M29.7569787,12.1953208 L37.3869732,12.1953208 C37.8083661,12.1953208 38.1499726,12.5365727 38.1499726,12.9575283 L38.1499726,16.0063585 C38.1499726,16.4273141 37.8083661,16.7685661 37.3869732,16.7685661 L29.7569787,16.7685661 C29.3355857,16.7685661 28.9939792,16.4273141 28.9939792,16.0063585 L28.9939792,12.9575283 C28.9939792,12.5365727 29.3355857,12.1953208 29.7569787,12.1953208 Z" id="Rectangle" fill="#EBEBEC"></path>
                                <path d="M5.34099617,12.1953208 L12.9709907,12.1953208 C13.3923837,12.1953208 13.7339901,12.5365727 13.7339901,12.9575283 L13.7339901,16.0063585 C13.7339901,16.4273141 13.3923837,16.7685661 12.9709907,16.7685661 L5.34099617,16.7685661 C4.91960321,16.7685661 4.57799672,16.4273141 4.57799672,16.0063585 L4.57799672,12.9575283 C4.57799672,12.5365727 4.91960321,12.1953208 5.34099617,12.1953208 Z" id="Rectangle-Copy-8" fill="#EBEBEC"></path>
                                <path d="M41.9649699,12.1953208 L49.5949644,12.1953208 C50.0163574,12.1953208 50.3579639,12.5365727 50.3579639,12.9575283 L50.3579639,16.0063585 C50.3579639,16.4273141 50.0163574,16.7685661 49.5949644,16.7685661 L41.9649699,16.7685661 C41.5435769,16.7685661 41.2019704,16.4273141 41.2019704,16.0063585 L41.2019704,12.9575283 C41.2019704,12.5365727 41.5435769,12.1953208 41.9649699,12.1953208 Z" id="Rectangle-Copy-7" fill="#EBEBEC"></path>
                                <path d="M17.5489874,12.1953208 L25.1789819,12.1953208 C25.6003749,12.1953208 25.9419814,12.5365727 25.9419814,12.9575283 L25.9419814,16.0063585 C25.9419814,16.4273141 25.6003749,16.7685661 25.1789819,16.7685661 L17.5489874,16.7685661 C17.1275944,16.7685661 16.785988,16.4273141 16.785988,16.0063585 L16.785988,12.9575283 C16.785988,12.5365727 17.1275944,12.1953208 17.5489874,12.1953208 Z" id="Rectangle-Copy-9" fill="#EBEBEC"></path>
                                <path d="M29.7569787,19.8173963 L37.3869732,19.8173963 C37.8083661,19.8173963 38.1499726,20.1586482 38.1499726,20.5796038 L38.1499726,23.628434 C38.1499726,24.0493896 37.8083661,24.3906416 37.3869732,24.3906416 L29.7569787,24.3906416 C29.3355857,24.3906416 28.9939792,24.0493896 28.9939792,23.628434 L28.9939792,20.5796038 C28.9939792,20.1586482 29.3355857,19.8173963 29.7569787,19.8173963 Z" id="Rectangle" fill="#EBEBEC"></path>
                                <path d="M5.34099617,19.8173963 L12.9709907,19.8173963 C13.3923837,19.8173963 13.7339901,20.1586482 13.7339901,20.5796038 L13.7339901,23.628434 C13.7339901,24.0493896 13.3923837,24.3906416 12.9709907,24.3906416 L5.34099617,24.3906416 C4.91960321,24.3906416 4.57799672,24.0493896 4.57799672,23.628434 L4.57799672,20.5796038 C4.57799672,20.1586482 4.91960321,19.8173963 5.34099617,19.8173963 Z" id="Rectangle-Copy-8" fill="#EBEBEC"></path>
                                <path d="M41.9649699,19.8173963 L49.5949644,19.8173963 C50.0163574,19.8173963 50.3579639,20.1586482 50.3579639,20.5796038 L50.3579639,23.628434 C50.3579639,24.0493896 50.0163574,24.3906416 49.5949644,24.3906416 L41.9649699,24.3906416 C41.5435769,24.3906416 41.2019704,24.0493896 41.2019704,23.628434 L41.2019704,20.5796038 C41.2019704,20.1586482 41.5435769,19.8173963 41.9649699,19.8173963 Z" id="Rectangle-Copy-7" fill="#EBEBEC"></path>
                                <path d="M17.5489874,19.8173963 L25.1789819,19.8173963 C25.6003749,19.8173963 25.9419814,20.1586482 25.9419814,20.5796038 L25.9419814,23.628434 C25.9419814,24.0493896 25.6003749,24.3906416 25.1789819,24.3906416 L17.5489874,24.3906416 C17.1275944,24.3906416 16.785988,24.0493896 16.785988,23.628434 L16.785988,20.5796038 C16.785988,20.1586482 17.1275944,19.8173963 17.5489874,19.8173963 Z" id="Rectangle-Copy-9" fill="#EBEBEC"></path>
                                <path d="M29.7569787,27.4394718 L37.3869732,27.4394718 C37.8083661,27.4394718 38.1499726,27.7807237 38.1499726,28.2016793 L38.1499726,31.2505095 C38.1499726,31.6714651 37.8083661,32.012717 37.3869732,32.012717 L29.7569787,32.012717 C29.3355857,32.012717 28.9939792,31.6714651 28.9939792,31.2505095 L28.9939792,28.2016793 C28.9939792,27.7807237 29.3355857,27.4394718 29.7569787,27.4394718 Z" id="Rectangle" fill="#EBEBEC"></path>
                                <path d="M5.34099617,27.4394718 L12.9709907,27.4394718 C13.3923837,27.4394718 13.7339901,27.7807237 13.7339901,28.2016793 L13.7339901,31.2505095 C13.7339901,31.6714651 13.3923837,32.012717 12.9709907,32.012717 L5.34099617,32.012717 C4.91960321,32.012717 4.57799672,31.6714651 4.57799672,31.2505095 L4.57799672,28.2016793 C4.57799672,27.7807237 4.91960321,27.4394718 5.34099617,27.4394718 Z" id="Rectangle-Copy-8" fill="#EBEBEC"></path>
                                <path d="M41.9649699,27.4394718 L49.5949644,27.4394718 C50.0163574,27.4394718 50.3579639,27.7807237 50.3579639,28.2016793 L50.3579639,31.2505095 C50.3579639,31.6714651 50.0163574,32.012717 49.5949644,32.012717 L41.9649699,32.012717 C41.5435769,32.012717 41.2019704,31.6714651 41.2019704,31.2505095 L41.2019704,28.2016793 C41.2019704,27.7807237 41.5435769,27.4394718 41.9649699,27.4394718 Z" id="Rectangle-Copy-7" fill="#EBEBEC"></path>
                                <path d="M17.5489874,27.4394718 L25.1789819,27.4394718 C25.6003749,27.4394718 25.9419814,27.7807237 25.9419814,28.2016793 L25.9419814,31.2505095 C25.9419814,31.6714651 25.6003749,32.012717 25.1789819,32.012717 L17.5489874,32.012717 C17.1275944,32.012717 16.785988,31.6714651 16.785988,31.2505095 L16.785988,28.2016793 C16.785988,27.7807237 17.1275944,27.4394718 17.5489874,27.4394718 Z" id="Rectangle-Copy-9" fill="#EBEBEC"></path>
                                <path d="M29.7569787,35.0615472 L37.3869732,35.0615472 C37.8083661,35.0615472 38.1499726,35.4027992 38.1499726,35.8237548 L38.1499726,38.872585 C38.1499726,39.2935406 37.8083661,39.6347925 37.3869732,39.6347925 L29.7569787,39.6347925 C29.3355857,39.6347925 28.9939792,39.2935406 28.9939792,38.872585 L28.9939792,35.8237548 C28.9939792,35.4027992 29.3355857,35.0615472 29.7569787,35.0615472 Z" id="Rectangle" fill="#EBEBEC"></path>
                                <path d="M5.34099617,35.0615472 L12.9709907,35.0615472 C13.3923837,35.0615472 13.7339901,35.4027992 13.7339901,35.8237548 L13.7339901,38.872585 C13.7339901,39.2935406 13.3923837,39.6347925 12.9709907,39.6347925 L5.34099617,39.6347925 C4.91960321,39.6347925 4.57799672,39.2935406 4.57799672,38.872585 L4.57799672,35.8237548 C4.57799672,35.4027992 4.91960321,35.0615472 5.34099617,35.0615472 Z" id="Rectangle-Copy-8" fill="#EBEBEC"></path>
                                <path d="M41.9649699,35.0615472 L49.5949644,35.0615472 C50.0163574,35.0615472 50.3579639,35.4027992 50.3579639,35.8237548 L50.3579639,38.872585 C50.3579639,39.2935406 50.0163574,39.6347925 49.5949644,39.6347925 L41.9649699,39.6347925 C41.5435769,39.6347925 41.2019704,39.2935406 41.2019704,38.872585 L41.2019704,35.8237548 C41.2019704,35.4027992 41.5435769,35.0615472 41.9649699,35.0615472 Z" id="Rectangle-Copy-7" fill="#EBEBEC"></path>
                                <path d="M17.5489874,35.0615472 L25.1789819,35.0615472 C25.6003749,35.0615472 25.9419814,35.4027992 25.9419814,35.8237548 L25.9419814,38.872585 C25.9419814,39.2935406 25.6003749,39.6347925 25.1789819,39.6347925 L17.5489874,39.6347925 C17.1275944,39.6347925 16.785988,39.2935406 16.785988,38.872585 L16.785988,35.8237548 C16.785988,35.4027992 17.1275944,35.0615472 17.5489874,35.0615472 Z" id="Rectangle-Copy-9" fill="#EBEBEC"></path>
                                <path d="M29.7569787,42.6836227 L37.3869732,42.6836227 C37.8083661,42.6836227 38.1499726,43.0248747 38.1499726,43.4458303 L38.1499726,46.4946605 C38.1499726,46.9156161 37.8083661,47.256868 37.3869732,47.256868 L29.7569787,47.256868 C29.3355857,47.256868 28.9939792,46.9156161 28.9939792,46.4946605 L28.9939792,43.4458303 C28.9939792,43.0248747 29.3355857,42.6836227 29.7569787,42.6836227 Z" id="Rectangle" fill="#EBEBEC"></path>
                                <path d="M5.34099617,42.6836227 L12.9709907,42.6836227 C13.3923837,42.6836227 13.7339901,43.0248747 13.7339901,43.4458303 L13.7339901,46.4946605 C13.7339901,46.9156161 13.3923837,47.256868 12.9709907,47.256868 L5.34099617,47.256868 C4.91960321,47.256868 4.57799672,46.9156161 4.57799672,46.4946605 L4.57799672,43.4458303 C4.57799672,43.0248747 4.91960321,42.6836227 5.34099617,42.6836227 Z" id="Rectangle-Copy-8" fill="#EBEBEC"></path>
                                <path d="M41.9649699,42.6836227 L49.5949644,42.6836227 C50.0163574,42.6836227 50.3579639,43.0248747 50.3579639,43.4458303 L50.3579639,46.4946605 C50.3579639,46.9156161 50.0163574,47.256868 49.5949644,47.256868 L41.9649699,47.256868 C41.5435769,47.256868 41.2019704,46.9156161 41.2019704,46.4946605 L41.2019704,43.4458303 C41.2019704,43.0248747 41.5435769,42.6836227 41.9649699,42.6836227 Z" id="Rectangle-Copy-7" fill="#EBEBEC"></path>
                                <path d="M17.5489874,42.6836227 L25.1789819,42.6836227 C25.6003749,42.6836227 25.9419814,43.0248747 25.9419814,43.4458303 L25.9419814,46.4946605 C25.9419814,46.9156161 25.6003749,47.256868 25.1789819,47.256868 L17.5489874,47.256868 C17.1275944,47.256868 16.785988,46.9156161 16.785988,46.4946605 L16.785988,43.4458303 C16.785988,43.0248747 17.1275944,42.6836227 17.5489874,42.6836227 Z" id="Rectangle-Copy-9" fill="#EBEBEC"></path>
                                <path d="M29.7569787,50.3056982 L37.3869732,50.3056982 C37.8083661,50.3056982 38.1499726,50.6469502 38.1499726,51.0679058 L38.1499726,54.116736 C38.1499726,54.5376916 37.8083661,54.8789435 37.3869732,54.8789435 L29.7569787,54.8789435 C29.3355857,54.8789435 28.9939792,54.5376916 28.9939792,54.116736 L28.9939792,51.0679058 C28.9939792,50.6469502 29.3355857,50.3056982 29.7569787,50.3056982 Z" id="Rectangle" fill="#EBEBEC"></path>
                                <path d="M5.34099617,50.3056982 L12.9709907,50.3056982 C13.3923837,50.3056982 13.7339901,50.6469502 13.7339901,51.0679058 L13.7339901,54.116736 C13.7339901,54.5376916 13.3923837,54.8789435 12.9709907,54.8789435 L5.34099617,54.8789435 C4.91960321,54.8789435 4.57799672,54.5376916 4.57799672,54.116736 L4.57799672,51.0679058 C4.57799672,50.6469502 4.91960321,50.3056982 5.34099617,50.3056982 Z" id="Rectangle-Copy-8" fill="#EBEBEC"></path>
                                <path d="M41.9649699,50.3056982 L49.5949644,50.3056982 C50.0163574,50.3056982 50.3579639,50.6469502 50.3579639,51.0679058 L50.3579639,54.116736 C50.3579639,54.5376916 50.0163574,54.8789435 49.5949644,54.8789435 L41.9649699,54.8789435 C41.5435769,54.8789435 41.2019704,54.5376916 41.2019704,54.116736 L41.2019704,51.0679058 C41.2019704,50.6469502 41.5435769,50.3056982 41.9649699,50.3056982 Z" id="Rectangle-Copy-7" fill="#EBEBEC"></path>
                                <path d="M17.5489874,50.3056982 L25.1789819,50.3056982 C25.6003749,50.3056982 25.9419814,50.6469502 25.9419814,51.0679058 L25.9419814,54.116736 C25.9419814,54.5376916 25.6003749,54.8789435 25.1789819,54.8789435 L17.5489874,54.8789435 C17.1275944,54.8789435 16.785988,54.5376916 16.785988,54.116736 L16.785988,51.0679058 C16.785988,50.6469502 17.1275944,50.3056982 17.5489874,50.3056982 Z" id="Rectangle-Copy-9" fill="#EBEBEC"></path>
                                <path d="M29.7569787,57.9277737 L37.3869732,57.9277737 C37.8083661,57.9277737 38.1499726,58.2690256 38.1499726,58.6899813 L38.1499726,61.7388114 C38.1499726,62.1597671 37.8083661,62.501019 37.3869732,62.501019 L29.7569787,62.501019 C29.3355857,62.501019 28.9939792,62.1597671 28.9939792,61.7388114 L28.9939792,58.6899813 C28.9939792,58.2690256 29.3355857,57.9277737 29.7569787,57.9277737 Z" id="Rectangle" fill="#EBEBEC"></path>
                                <path d="M5.34099617,57.9277737 L12.9709907,57.9277737 C13.3923837,57.9277737 13.7339901,58.2690256 13.7339901,58.6899813 L13.7339901,61.7388114 C13.7339901,62.1597671 13.3923837,62.501019 12.9709907,62.501019 L5.34099617,62.501019 C4.91960321,62.501019 4.57799672,62.1597671 4.57799672,61.7388114 L4.57799672,58.6899813 C4.57799672,58.2690256 4.91960321,57.9277737 5.34099617,57.9277737 Z" id="Rectangle-Copy-8" fill="#EBEBEC"></path>
                                <path d="M41.9649699,57.9277737 L49.5949644,57.9277737 C50.0163574,57.9277737 50.3579639,58.2690256 50.3579639,58.6899813 L50.3579639,61.7388114 C50.3579639,62.1597671 50.0163574,62.501019 49.5949644,62.501019 L41.9649699,62.501019 C41.5435769,62.501019 41.2019704,62.1597671 41.2019704,61.7388114 L41.2019704,58.6899813 C41.2019704,58.2690256 41.5435769,57.9277737 41.9649699,57.9277737 Z" id="Rectangle-Copy-7" fill="#EBEBEC"></path>
                                <path d="M17.5489874,57.9277737 L25.1789819,57.9277737 C25.6003749,57.9277737 25.9419814,58.2690256 25.9419814,58.6899813 L25.9419814,61.7388114 C25.9419814,62.1597671 25.6003749,62.501019 25.1789819,62.501019 L17.5489874,62.501019 C17.1275944,62.501019 16.785988,62.1597671 16.785988,61.7388114 L16.785988,58.6899813 C16.785988,58.2690256 17.1275944,57.9277737 17.5489874,57.9277737 Z" id="Rectangle-Copy-9" fill="#EBEBEC"></path>
                                <path d="M29.7569787,65.5498492 L37.3869732,65.5498492 C37.8083661,65.5498492 38.1499726,65.8911011 38.1499726,66.3120567 L38.1499726,69.3608869 C38.1499726,69.7818425 37.8083661,70.1230945 37.3869732,70.1230945 L29.7569787,70.1230945 C29.3355857,70.1230945 28.9939792,69.7818425 28.9939792,69.3608869 L28.9939792,66.3120567 C28.9939792,65.8911011 29.3355857,65.5498492 29.7569787,65.5498492 Z" id="Rectangle" fill="#EBEBEC"></path>
                                <path d="M5.34099617,65.5498492 L12.9709907,65.5498492 C13.3923837,65.5498492 13.7339901,65.8911011 13.7339901,66.3120567 L13.7339901,69.3608869 C13.7339901,69.7818425 13.3923837,70.1230945 12.9709907,70.1230945 L5.34099617,70.1230945 C4.91960321,70.1230945 4.57799672,69.7818425 4.57799672,69.3608869 L4.57799672,66.3120567 C4.57799672,65.8911011 4.91960321,65.5498492 5.34099617,65.5498492 Z" id="Rectangle-Copy-8" fill="#EBEBEC"></path>
                                <path d="M41.9649699,65.5498492 L49.5949644,65.5498492 C50.0163574,65.5498492 50.3579639,65.8911011 50.3579639,66.3120567 L50.3579639,69.3608869 C50.3579639,69.7818425 50.0163574,70.1230945 49.5949644,70.1230945 L41.9649699,70.1230945 C41.5435769,70.1230945 41.2019704,69.7818425 41.2019704,69.3608869 L41.2019704,66.3120567 C41.2019704,65.8911011 41.5435769,65.5498492 41.9649699,65.5498492 Z" id="Rectangle-Copy-7" fill="#EBEBEC"></path>
                                <path d="M17.5489874,65.5498492 L25.1789819,65.5498492 C25.6003749,65.5498492 25.9419814,65.8911011 25.9419814,66.3120567 L25.9419814,69.3608869 C25.9419814,69.7818425 25.6003749,70.1230945 25.1789819,70.1230945 L17.5489874,70.1230945 C17.1275944,70.1230945 16.785988,69.7818425 16.785988,69.3608869 L16.785988,66.3120567 C16.785988,65.8911011 17.1275944,65.5498492 17.5489874,65.5498492 Z" id="Rectangle-Copy-9" fill="#EBEBEC"></path>
                                <polygon id="Rectangle" fill="url(#linearGradient-22)" points="0 0 53.4099617 0 53.4099617 71.6475096 0 71.6475096"></polygon>
                            </g>
                            <polygon id="X" fill-opacity="0.8" fill="#CCCED3" fill-rule="nonzero" points="11.580495 72.3206745 16.7683354 65.4223407 21.9561758 72.3206745 27.3576332 72.3206745 19.8200062 63.1270543 26.8235908 54.0831266 21.7273005 54.0831266 17.0124691 60.6446521 12.2060875 54.0831266 6.98773034 54.0831266 13.9150232 62.9149898 6.51472136 72.3206745"></polygon>
                        </g>
                        <g id="Trend" transform="translate(138.084291, 118.544061)">
                            <g id="base">
                                <g id="Path">
                                    <use fill="black" fill-opacity="1" filter="url(#filter-24)" xlink:href="#path-23"></use>
                                    <use fill="#FFFFFF" fill-rule="evenodd" xlink:href="#path-23"></use>
                                </g>
                                <g id="Path">
                                    <use fill="black" fill-opacity="1" filter="url(#filter-26)" xlink:href="#path-25"></use>
                                    <use fill="#FFFFFF" fill-rule="evenodd" xlink:href="#path-25"></use>
                                </g>
                                <path d="M6.66564354,-9.45305083e-15 L89.3196234,-9.45305083e-15 C93.0009567,-9.45305083e-15 95.985267,2.97819878 95.985267,6.65199315 L95.985267,15.7984837 L0,15.7984837 L0,6.65199315 C0,2.97819878 2.98431026,-9.45305083e-15 6.66564354,-9.45305083e-15 Z" id="Path-Copy" fill="#E8E9EC"></path>
                            </g>
                            <g id="lines" transform="translate(10.665030, 27.938371)" fill="#CCCED3" fill-opacity="0.27" fill-rule="nonzero">
                                <path d="M73.6553611,35.5881634 C73.8394278,35.5881634 73.9886433,35.8115283 73.9886433,36.0870629 C73.9886433,36.3232353 73.8790156,36.5210791 73.7317797,36.572786 L73.6553611,36.5859623 L0,36.5859623 C-0.184066664,36.5859623 -0.333282177,36.3625974 -0.333282177,36.0870629 C-0.333282177,35.8508904 -0.223654453,35.6530466 -0.0764185453,35.6013397 L0,35.5881634 L73.6553611,35.5881634 Z" id="Line"></path>
                                <path d="M73.6553611,26.7742724 C73.8394278,26.7742724 73.9886433,26.9976373 73.9886433,27.2731719 C73.9886433,27.5093444 73.8790156,27.7071882 73.7317797,27.7588951 L73.6553611,27.7720714 L0,27.7720714 C-0.184066664,27.7720714 -0.333282177,27.5487065 -0.333282177,27.2731719 C-0.333282177,27.0369994 -0.223654453,26.8391557 -0.0764185453,26.7874487 L0,26.7742724 L73.6553611,26.7742724 Z" id="Line-Copy"></path>
                                <path d="M73.6553611,17.9603815 C73.8394278,17.9603815 73.9886433,18.1837464 73.9886433,18.459281 C73.9886433,18.6954535 73.8790156,18.8932973 73.7317797,18.9450042 L73.6553611,18.9581805 L0,18.9581805 C-0.184066664,18.9581805 -0.333282177,18.7348156 -0.333282177,18.459281 C-0.333282177,18.2231085 -0.223654453,18.0252647 -0.0764185453,17.9735578 L0,17.9603815 L73.6553611,17.9603815 Z" id="Line-Copy-2"></path>
                                <path d="M73.6553611,9.14649058 C73.8394278,9.14649058 73.9886433,9.36985549 73.9886433,9.64539007 C73.9886433,9.88156257 73.8790156,10.0794063 73.7317797,10.1311133 L73.6553611,10.1442896 L0,10.1442896 C-0.184066664,10.1442896 -0.333282177,9.92092465 -0.333282177,9.64539007 C-0.333282177,9.40921758 -0.223654453,9.21137382 -0.0764185453,9.15966688 L0,9.14649058 L73.6553611,9.14649058 Z" id="Line-Copy-3"></path>
                                <path d="M73.6553611,0.332599658 C73.8394278,0.332599658 73.9886433,0.555964566 73.9886433,0.831499144 C73.9886433,1.06767164 73.8790156,1.2655154 73.7317797,1.31722234 L73.6553611,1.33039863 L0,1.33039863 C-0.184066664,1.33039863 -0.333282177,1.10703372 -0.333282177,0.831499144 C-0.333282177,0.595326649 -0.223654453,0.39748289 -0.0764185453,0.345775949 L0,0.332599658 L73.6553611,0.332599658 Z" id="Line-Copy-4"></path>
                            </g>
                            <g id="Group" transform="translate(30.661960, 69.180729)">
                                <path d="M5.33251483,0 L13.3312871,0 C14.0675537,0 14.6644158,0.595639756 14.6644158,1.33039863 C14.6644158,2.06515751 14.0675537,2.66079726 13.3312871,2.66079726 L5.33251483,2.66079726 C4.59624818,2.66079726 3.99938612,2.06515751 3.99938612,1.33039863 C3.99938612,0.595639756 4.59624818,0 5.33251483,0 Z" id="Rectangle-Copy-2" fill-opacity="0.35" fill="#67696F"></path>
                                <path d="M25.3294454,0 L33.3282177,0 C34.0644844,0 34.6613464,0.595639756 34.6613464,1.33039863 C34.6613464,2.06515751 34.0644844,2.66079726 33.3282177,2.66079726 L25.3294454,2.66079726 C24.5931788,2.66079726 23.9963167,2.06515751 23.9963167,1.33039863 C23.9963167,0.595639756 24.5931788,0 25.3294454,0 Z" id="Rectangle-Copy-5" fill-opacity="0.35" fill="#67696F"></path>
                                <path d="M1.33312871,0 C2.06939536,0 2.66625742,0.595639756 2.66625742,1.33039863 C2.66625742,2.06515751 2.06939536,2.66079726 1.33312871,2.66079726 C0.596862053,2.66079726 0,2.06515751 0,1.33039863 C0,0.595639756 0.596862053,0 1.33312871,0 Z" id="Rectangle-Copy-4" fill="#DFE0E1" opacity="0.647623698"></path>
                                <path d="M21.3300593,0 C22.066326,0 22.663188,0.595639756 22.663188,1.33039863 C22.663188,2.06515751 22.066326,2.66079726 21.3300593,2.66079726 C20.5937927,2.66079726 19.9969306,2.06515751 19.9969306,1.33039863 C19.9969306,0.595639756 20.5937927,0 21.3300593,0 Z" id="Rectangle-Copy-6" fill="#ACAEB2" opacity="0.647623698"></path>
                            </g>
                            <path d="M76.9881829,47.0961115 C72.1478877,47.0961115 68.7390297,43.4003104 65.6036693,36.4349211 L65.18434,35.4759096 C65.0807358,35.1691362 61.6159149,26.3371852 60.81466,25.1981731 C60.4625877,24.6976899 60.1723958,24.4793348 59.9621504,24.4793348 C58.9599135,24.4793348 57.790872,26.5523645 56.1412555,30.9667527 L54.6805863,34.9849756 L54.3784234,35.7847273 C54.0893288,36.5348401 53.8365801,37.1420921 53.5944493,37.6609831 C53.2034046,38.4989996 52.8465857,39.0901437 52.4840419,39.4570722 C51.971322,39.975993 51.358703,40.0951747 50.8222397,39.6595244 C50.3592273,39.2835221 49.9396912,38.8458517 49.4163987,38.2185519 L49.0576924,37.7793596 C48.8763563,37.5539468 48.5702521,37.1729004 48.4658187,37.0457676 C48.2053626,36.7286996 47.9972966,36.4918777 47.801106,36.2937108 C46.9201679,35.4038989 46.3858081,35.3535701 45.5574985,36.2759257 C45.1964758,36.6779388 44.7091062,37.5727678 44.0273007,39.0617647 L43.5277377,40.1823341 C42.9640741,41.4782536 41.6196131,44.6108861 41.1793573,45.6007147 L40.7092343,46.643923 C38.9363583,50.5231344 37.4903203,53.0334607 36.0371647,54.4605059 C34.9580403,55.5202405 33.873805,55.9360975 32.81034,55.5445004 C31.0973272,54.9137219 29.9119075,53.7430809 27.7723961,50.8912876 L27.0407578,49.9034628 C24.3346336,46.2282529 22.9273857,44.9342137 20.9967771,44.9342137 C18.0930379,44.9342137 14.7365574,49.9459617 11.167712,60.0065514 C11.0694308,60.2836066 10.7646995,60.4286947 10.4870757,60.3306148 C10.2094519,60.2325348 10.0640661,59.9284276 10.1623473,59.6513723 L10.5682463,58.5257491 C14.1470086,48.7662438 17.5514871,43.8698948 20.9967771,43.8698948 C23.261869,43.8698948 24.7725895,45.1247037 27.3509091,48.5363178 L28.6212474,50.2466707 C30.6296051,52.9225007 31.7282494,54.0115844 33.179531,54.5459863 C33.7823416,54.7679578 34.4734886,54.5028692 35.289121,53.7018921 C36.6804897,52.3355237 38.1466268,49.7392973 39.9742147,45.683513 L40.5620478,44.3535388 C41.2577386,42.7549241 42.4680224,39.9346822 42.7482147,39.3047637 L43.0706312,38.5898208 C43.7927694,37.0133661 44.310394,36.0698995 44.7632734,35.5656003 C46.0448118,34.1385564 47.2820526,34.2550864 48.5597758,35.5456802 C48.7384799,35.7261844 48.9200723,35.9282944 49.1286934,36.1761612 L50.0136811,37.2673176 L50.4307301,37.7673915 C50.8233265,38.2232922 51.1514773,38.5547119 51.4953886,38.8339948 C51.5487495,38.8773279 51.561558,38.8748361 51.7246234,38.7097985 C51.9804981,38.4508293 52.2841754,37.9477251 52.6276355,37.2116834 C52.8587752,36.7163465 53.1034841,36.12813 53.385382,35.3964673 L55.1433693,30.5886566 C57.0298147,25.5141962 58.2449187,23.4150159 59.9621504,23.4150159 C60.6032257,23.4150159 61.1558717,23.8308549 61.6875424,24.5866435 C62.5921431,25.8725653 66.2890104,35.3164141 66.1706773,35.0741717 L66.3697679,35.5337125 L66.7945215,36.4762689 C69.6348936,42.6159213 72.6623479,45.8708492 76.6846335,46.0259738 L76.9881829,46.0317926 L85.8643454,46.0317926 L85.8643454,47.0961115 L76.9881829,47.0961115 Z" id="Path-11" fill-opacity="0.328288899" fill="#9EA0A5" fill-rule="nonzero"></path>
                            <path d="M62.2033365,45.425468 L62.2982694,44.9008222 C63.9724718,35.4579694 69.3002923,33.9113084 70.9641192,41.4857455 L71.0287008,41.7935905 C72.0953206,47.1224546 75.0798152,51.0614948 78.3702359,53.2838944 C79.5724177,54.0958662 81.8988787,54.5228449 85.3202373,54.5228449 C85.614744,54.5228449 85.8534888,54.7611008 85.8534888,55.0550043 C85.8534888,55.3489079 85.614744,55.5871638 85.3202373,55.5871638 C81.7027457,55.5871638 79.1966152,55.1272101 77.772464,54.1653169 C74.3789374,51.8732779 71.313562,47.8980322 70.0981739,42.5422387 L69.9828581,42.0020687 C68.6972389,35.5790772 64.9854284,36.4716247 63.4192073,44.7012202 L63.3484604,45.0862575 C61.4521209,55.78201 58.2801507,60.3708823 51.6873789,60.3708823 C47.5836095,60.3708823 45.0301463,58.7640404 42.9727439,55.7284379 L42.7833197,55.4381073 C42.3111321,54.6965429 41.484853,53.3073282 41.2288247,52.9025286 L40.3317352,51.554676 C40.2377057,51.4165356 40.1490168,51.2881483 40.0605155,51.1621796 C38.1348234,48.4212359 36.3525388,47.1058725 33.7451459,47.1058725 C31.9156117,47.1058725 30.31928,48.7082796 27.4746436,52.8771003 L25.6641807,55.5348542 C25.1917608,56.210882 24.896172,56.5997087 24.4786768,57.1176448 C23.9990006,57.7127213 23.5476263,58.20575 23.1058701,58.6078694 C20.6975394,60.8001116 16.5776564,62.3028053 10.74161,63.147965 C10.4501561,63.1901725 10.1795998,62.9886023 10.1373057,62.6977452 C10.0950115,62.4068882 10.2969954,62.136886 10.5884493,62.0946785 C16.2328456,61.277273 20.1672819,59.8422195 22.3871471,57.8215327 C22.7047787,57.5324007 23.0343364,57.1839927 23.3827348,56.7717539 L23.9112766,56.1194729 C24.3881275,55.5115817 24.7839744,54.9490442 25.7509608,53.5219656 L26.3198378,52.6806826 C29.5739247,47.861861 31.3243513,46.0415536 33.7451459,46.0415536 C36.7780581,46.0415536 38.8287776,47.5550276 40.9337664,50.551174 L41.362263,51.1759376 L42.0712596,52.2423637 C42.2766484,52.5497194 43.3174034,54.3067599 43.7732107,55.0069476 L43.8561521,55.1321511 C45.7291394,57.8956577 47.9712366,59.3065634 51.6873789,59.3065634 C57.5052699,59.3065634 60.3813137,55.290922 62.2033365,45.425468 Z" id="Path-12" fill-opacity="0.851207386" fill="#9EA0A5" fill-rule="nonzero"></path>
                        </g>
                        <g id="Pages" transform="translate(27.356322, 22.145594)">
                            <g id="Rectangle-Copy-11">
                                <use fill="black" fill-opacity="1" filter="url(#filter-29)" xlink:href="#path-28"></use>
                                <use fill="url(#linearGradient-27)" fill-rule="evenodd" xlink:href="#path-28"></use>
                            </g>
                            <g id="Rectangle-Copy-11">
                                <use fill="black" fill-opacity="1" filter="url(#filter-32)" xlink:href="#path-31"></use>
                                <use fill="url(#linearGradient-30)" fill-rule="evenodd" xlink:href="#path-31"></use>
                            </g>
                        </g>
                        <g id="doc" transform="translate(235.785441, 85.977011)">
                            <g id="Rectangle-Copy-11">
                                <use fill="black" fill-opacity="1" filter="url(#filter-34)" xlink:href="#path-33"></use>
                                <use fill="#FFFFFF" fill-rule="evenodd" xlink:href="#path-33"></use>
                            </g>
                            <g id="Rectangle-Copy-12" transform="translate(56.715506, 29.130793) scale(-1, -1) rotate(27.000000) translate(-56.715506, -29.130793) ">
                                <use fill="black" fill-opacity="1" filter="url(#filter-36)" xlink:href="#path-35"></use>
                                <use fill="#CCCED3" fill-rule="evenodd" xlink:href="#path-35"></use>
                            </g>
                        </g>
                    </g>
                </g>
            </g>
        </g>
    </g>
</svg>
