<?xml version="1.0" encoding="UTF-8"?>
<svg width="176px" height="116px" viewBox="0 0 176 116" version="1.1" xmlns="http://www.w3.org/2000/svg" xmlns:xlink="http://www.w3.org/1999/xlink">
    <defs>
        <path d="M13.5123199,1.7930853 L26.1269304,12.9545041 C26.5811588,14.3780139 25.8530217,16.7952621 23.942519,20.2062487 C22.1973015,23.3221374 19.3415063,25.5093671 15.3751333,26.7679378 C14.6749352,26.9901001 13.9095446,26.8302482 13.3568062,26.346395 L3.18133209,17.4390421 C2.74501602,17.0570757 2.70093423,16.3937281 3.08288575,15.9573989 C3.22482198,15.7952555 3.41321023,15.6807103 3.62248129,15.6293099 C6.47793034,14.9279654 8.87867266,13.1185116 10.8247082,10.2009484 C13.2409534,6.57843091 14.136824,3.77580988 13.5123199,1.7930853 Z" id="path-1"></path>
        <filter x="-66.1%" y="-45.9%" width="232.3%" height="223.6%" filterUnits="objectBoundingBox" id="filter-2">
            <feOffset dx="0" dy="4" in="SourceAlpha" result="shadowOffsetOuter1"></feOffset>
            <feGaussianBlur stdDeviation="4.5" in="shadowOffsetOuter1" result="shadowBlurOuter1"></feGaussianBlur>
            <feColorMatrix values="0 0 0 0 0   0 0 0 0 0   0 0 0 0 0  0 0 0 0.25 0" type="matrix" in="shadowBlurOuter1"></feColorMatrix>
        </filter>
        <path d="M13.7926416,6.1798023 L25.9798827,11.6720375 L25.9798827,11.6720375 C26.2630528,11.9062774 26.5026573,12.2157714 26.6986963,12.6005195 C26.8947353,12.9852677 26.8871968,13.5092139 26.6760807,14.1723581 L10.5252285,9.98318505 C12.4847907,10.0361573 13.1554403,9.14791797 12.5371775,7.31846715 C12.5371775,7.31846715 12.5371775,7.31846715 12.5371775,7.31846715 C12.3737355,6.83483949 12.6332973,6.31028593 13.116925,6.14684398 C13.3382361,6.0720519 13.5796584,6.08383037 13.7926416,6.1798023 Z" id="path-3"></path>
        <filter x="-46.0%" y="-59.2%" width="167.4%" height="208.4%" filterUnits="objectBoundingBox" id="filter-4">
            <feOffset dx="-2" dy="-1" in="SourceAlpha" result="shadowOffsetOuter1"></feOffset>
            <feGaussianBlur stdDeviation="1.5" in="shadowOffsetOuter1" result="shadowBlurOuter1"></feGaussianBlur>
            <feColorMatrix values="0 0 0 0 0   0 0 0 0 0   0 0 0 0 0  0 0 0 0.15 0" type="matrix" in="shadowBlurOuter1"></feColorMatrix>
        </filter>
        <path d="M2.04516032,0.313817959 L20.6642379,0.313817959 C20.975845,0.313817959 21.2284524,0.568003492 21.2284524,0.881557236 L21.2284524,27.5653032 C21.2284524,27.878857 20.975845,28.1330425 20.6642379,28.1330425 L2.04516032,28.1330425 C1.73355327,28.1330425 1.48094584,27.878857 1.48094584,27.5653032 L1.48094584,0.881557236 C1.48094584,0.568003492 1.73355327,0.313817959 2.04516032,0.313817959 Z" id="path-5"></path>
        <filter x="-38.0%" y="-16.2%" width="176.0%" height="153.9%" filterUnits="objectBoundingBox" id="filter-6">
            <feOffset dx="0" dy="3" in="SourceAlpha" result="shadowOffsetOuter1"></feOffset>
            <feGaussianBlur stdDeviation="2" in="shadowOffsetOuter1" result="shadowBlurOuter1"></feGaussianBlur>
            <feColorMatrix values="0 0 0 0 0   0 0 0 0 0   0 0 0 0 0  0 0 0 0.25 0" type="matrix" in="shadowBlurOuter1"></feColorMatrix>
        </filter>
        <path d="M1.48539864,0.99664386 L20.1044762,0.99664386 C20.4160833,0.99664386 20.6686907,1.25082939 20.6686907,1.56438314 L20.6686907,28.2481291 C20.6686907,28.5616829 20.4160833,28.8158684 20.1044762,28.8158684 L1.48539864,28.8158684 C1.17379159,28.8158684 0.921184169,28.5616829 0.921184169,28.2481291 L0.921184169,1.56438314 C0.921184169,1.25082939 1.17379159,0.99664386 1.48539864,0.99664386 Z" id="path-7"></path>
        <filter x="-78.5%" y="-41.3%" width="257.0%" height="211.4%" filterUnits="objectBoundingBox" id="filter-9">
            <feOffset dx="0" dy="4" in="SourceAlpha" result="shadowOffsetOuter1"></feOffset>
            <feGaussianBlur stdDeviation="4.5" in="shadowOffsetOuter1" result="shadowBlurOuter1"></feGaussianBlur>
            <feColorMatrix values="0 0 0 0 0   0 0 0 0 0   0 0 0 0 0  0 0 0 0.25 0" type="matrix" in="shadowBlurOuter1"></feColorMatrix>
        </filter>
        <linearGradient x1="50%" y1="1.00031672%" x2="50%" y2="99.3243243%" id="linearGradient-10">
            <stop stop-color="#FFFFFF" stop-opacity="0" offset="0%"></stop>
            <stop stop-color="#F1F2F5" offset="100%"></stop>
        </linearGradient>
        <path d="M90.0170375,45.6519821 L74.7893872,39.8066348 C74.518683,39.7026322 74.2149618,39.8378575 74.1110367,40.1085916 C74.080385,40.1884421 74.0697034,40.2745717 74.079921,40.3594907 C74.5849494,44.5568287 74.1209253,48.5221439 72.6878486,52.2554363 C71.3602917,55.7138403 69.3075592,58.6958856 66.5296512,61.2015723 C66.099059,61.5899857 66.0648517,62.2539202 66.4532557,62.684521 C66.5640287,62.8073285 66.702245,62.9022321 66.8566456,62.9615009 L81.3169188,68.5122797 C81.6622997,68.6448607 82.0519651,68.5858989 82.3426608,68.3570722 C85.4859922,65.882738 87.7534245,62.8330369 89.1449578,59.2079688 C90.5418144,55.5690329 91.0560576,51.3503195 90.6876873,46.5518286 C90.656606,46.1475593 90.3955692,45.7972868 90.0170375,45.6519821 Z" id="path-11"></path>
        <filter x="-48.7%" y="-27.8%" width="181.2%" height="169.4%" filterUnits="objectBoundingBox" id="filter-12">
            <feOffset dx="-2" dy="2" in="SourceAlpha" result="shadowOffsetOuter1"></feOffset>
            <feGaussianBlur stdDeviation="3" in="shadowOffsetOuter1" result="shadowBlurOuter1"></feGaussianBlur>
            <feColorMatrix values="0 0 0 0 0   0 0 0 0 0   0 0 0 0 0  0 0 0 0.25 0" type="matrix" in="shadowBlurOuter1"></feColorMatrix>
        </filter>
        <path d="M3.66652603,0 L39.0632835,0 C40.639823,0 41.9178608,1.27204422 41.9178608,2.8411903 C41.9178608,4.62482643 41.9178608,5.92703864 41.9178608,6.74782695 C41.9178608,12.1145197 41.9178608,20.0935291 41.9178608,30.6848552 C41.9178608,32.2540013 40.639823,33.5260455 39.0632835,33.5260455 L3.66652603,33.5260455 C2.08998656,33.5260455 0.811948808,32.2540013 0.811948808,30.6848552 C0.811948808,19.9988228 0.811948808,12.0198134 0.811948808,6.74782695 C0.811948808,5.8323323 0.811948808,4.53012008 0.811948808,2.8411903 C0.811948808,1.27204422 2.08998656,0 3.66652603,0 Z" id="path-13"></path>
        <filter x="-37.7%" y="-34.3%" width="175.4%" height="192.5%" filterUnits="objectBoundingBox" id="filter-14">
            <feOffset dx="0" dy="4" in="SourceAlpha" result="shadowOffsetOuter1"></feOffset>
            <feGaussianBlur stdDeviation="4.5" in="shadowOffsetOuter1" result="shadowBlurOuter1"></feGaussianBlur>
            <feColorMatrix values="0 0 0 0 0   0 0 0 0 0   0 0 0 0 0  0 0 0 0.25 0" type="matrix" in="shadowBlurOuter1"></feColorMatrix>
        </filter>
        <path d="M2.85457722,0 L38.2513347,0 C39.8278742,0 41.1059119,1.27204422 41.1059119,2.8411903 C41.1059119,4.62482643 41.1059119,5.92703864 41.1059119,6.74782695 C41.1059119,12.1145197 41.1059119,20.0935291 41.1059119,30.6848552 C41.1059119,32.2540013 39.8278742,33.5260455 38.2513347,33.5260455 L2.85457722,33.5260455 C1.27803775,33.5260455 0,32.2540013 0,30.6848552 C0,19.9988228 0,12.0198134 0,6.74782695 C0,5.8323323 0,4.53012008 0,2.8411903 C0,1.27204422 1.27803775,0 2.85457722,0 Z" id="path-15"></path>
        <filter x="-37.7%" y="-34.3%" width="175.4%" height="192.5%" filterUnits="objectBoundingBox" id="filter-16">
            <feOffset dx="0" dy="4" in="SourceAlpha" result="shadowOffsetOuter1"></feOffset>
            <feGaussianBlur stdDeviation="4.5" in="shadowOffsetOuter1" result="shadowBlurOuter1"></feGaussianBlur>
            <feColorMatrix values="0 0 0 0 0   0 0 0 0 0   0 0 0 0 0  0 0 0 0.25 0" type="matrix" in="shadowBlurOuter1"></feColorMatrix>
        </filter>
        <path d="M5.55715938,0.292583743 L22.7176854,0.292583743 C23.4468349,0.292583743 24.0379273,0.881215972 24.0379273,1.60733063 L24.0379273,29.8743886 C24.0379273,30.6005032 23.4468349,31.1891355 22.7176854,31.1891355 L2.91405593,31.1891355 C2.18490642,31.1891355 1.59381396,30.6005032 1.59381396,29.8743886 L1.59381396,3.79539048 L5.55715938,0.292583743 Z" id="path-17"></path>
        <filter x="-69.1%" y="-37.2%" width="238.1%" height="200.3%" filterUnits="objectBoundingBox" id="filter-18">
            <feOffset dx="0" dy="4" in="SourceAlpha" result="shadowOffsetOuter1"></feOffset>
            <feGaussianBlur stdDeviation="4.5" in="shadowOffsetOuter1" result="shadowBlurOuter1"></feGaussianBlur>
            <feColorMatrix values="0 0 0 0 0   0 0 0 0 0   0 0 0 0 0  0 0 0 0.25 0" type="matrix" in="shadowBlurOuter1"></feColorMatrix>
        </filter>
        <path d="M4.77748752,0.735966355 L21.9380135,0.735966355 C22.667163,0.735966355 23.2582555,1.32459858 23.2582555,2.05071324 L23.2582555,30.3177712 C23.2582555,31.0438859 22.667163,31.6325181 21.9380135,31.6325181 L2.13438406,31.6325181 C1.40523456,31.6325181 0.8141421,31.0438859 0.8141421,30.3177712 L0.8141421,4.23877309 L4.77748752,0.735966355 Z" id="path-19"></path>
        <filter x="-69.1%" y="-37.2%" width="238.1%" height="200.3%" filterUnits="objectBoundingBox" id="filter-20">
            <feOffset dx="0" dy="4" in="SourceAlpha" result="shadowOffsetOuter1"></feOffset>
            <feGaussianBlur stdDeviation="4.5" in="shadowOffsetOuter1" result="shadowBlurOuter1"></feGaussianBlur>
            <feColorMatrix values="0 0 0 0 0   0 0 0 0 0   0 0 0 0 0  0 0 0 0.25 0" type="matrix" in="shadowBlurOuter1"></feColorMatrix>
        </filter>
        <path d="M5.19677842,3.21185211 L7.21886925,4.96962885 L7.21886925,4.96962885 L0.890650253,4.99110302 L2.4253987,3.35358878 C3.16083396,2.56890923 4.385128,2.50629516 5.19677842,3.21185211 Z" id="path-21"></path>
        <filter x="-31.6%" y="-73.2%" width="163.2%" height="206.0%" filterUnits="objectBoundingBox" id="filter-22">
            <feOffset dx="0" dy="-1" in="SourceAlpha" result="shadowOffsetOuter1"></feOffset>
            <feGaussianBlur stdDeviation="0.5" in="shadowOffsetOuter1" result="shadowBlurOuter1"></feGaussianBlur>
            <feColorMatrix values="0 0 0 0 0   0 0 0 0 0   0 0 0 0 0  0 0 0 0.17 0" type="matrix" in="shadowBlurOuter1"></feColorMatrix>
        </filter>
        <path d="M2.80299604,0.430103445 L28.3213871,0.430103445 C28.7484604,0.430103445 29.0946717,0.778477622 29.0946717,1.20821895 L29.0946717,37.7796475 C29.0946717,38.2093888 28.7484604,38.557763 28.3213871,38.557763 L2.80299604,38.557763 C2.37592276,38.557763 2.02971147,38.2093888 2.02971147,37.7796475 L2.02971147,1.20821895 C2.02971147,0.778477622 2.37592276,0.430103445 2.80299604,0.430103445 Z" id="path-23"></path>
        <filter x="-27.7%" y="-11.8%" width="155.4%" height="139.3%" filterUnits="objectBoundingBox" id="filter-24">
            <feOffset dx="0" dy="3" in="SourceAlpha" result="shadowOffsetOuter1"></feOffset>
            <feGaussianBlur stdDeviation="2" in="shadowOffsetOuter1" result="shadowBlurOuter1"></feGaussianBlur>
            <feColorMatrix values="0 0 0 0 0   0 0 0 0 0   0 0 0 0 0  0 0 0 0.25 0" type="matrix" in="shadowBlurOuter1"></feColorMatrix>
        </filter>
        <path d="M2.03581425,1.36595101 L27.5542053,1.36595101 C27.9812786,1.36595101 28.3274899,1.71432518 28.3274899,2.14406651 L28.3274899,38.7154951 C28.3274899,39.1452364 27.9812786,39.4936106 27.5542053,39.4936106 L2.03581425,39.4936106 C1.60874097,39.4936106 1.26252967,39.1452364 1.26252967,38.7154951 L1.26252967,2.14406651 C1.26252967,1.71432518 1.60874097,1.36595101 2.03581425,1.36595101 Z" id="path-25"></path>
        <filter x="-57.3%" y="-30.2%" width="214.5%" height="181.3%" filterUnits="objectBoundingBox" id="filter-27">
            <feOffset dx="0" dy="4" in="SourceAlpha" result="shadowOffsetOuter1"></feOffset>
            <feGaussianBlur stdDeviation="4.5" in="shadowOffsetOuter1" result="shadowBlurOuter1"></feGaussianBlur>
            <feColorMatrix values="0 0 0 0 0   0 0 0 0 0   0 0 0 0 0  0 0 0 0.25 0" type="matrix" in="shadowBlurOuter1"></feColorMatrix>
        </filter>
        <linearGradient x1="50%" y1="1.00031672%" x2="50%" y2="99.3243243%" id="linearGradient-28">
            <stop stop-color="#FFFFFF" stop-opacity="0" offset="0%"></stop>
            <stop stop-color="#F1F2F5" offset="100%"></stop>
        </linearGradient>
        <path d="M4.29078638,0 L45.2182873,0 C47.041161,0 48.5188922,1.47158057 48.5188922,3.2868672 C48.5188922,5.35028939 48.5188922,6.8567702 48.5188922,7.80630961 C48.5188922,14.0148366 48.5188922,23.2454553 48.5188922,35.4981658 C48.5188922,37.3134524 47.041161,38.785033 45.2182873,38.785033 L4.29078638,38.785033 C2.46791263,38.785033 0.990181473,37.3134524 0.990181473,35.4981658 C0.990181473,23.135893 0.990181473,13.9052743 0.990181473,7.80630961 C0.990181473,6.74720796 0.990181473,5.24072715 0.990181473,3.2868672 C0.990181473,1.47158057 2.46791263,0 4.29078638,0 Z" id="path-29"></path>
        <filter x="-32.6%" y="-29.7%" width="165.2%" height="179.9%" filterUnits="objectBoundingBox" id="filter-30">
            <feOffset dx="0" dy="4" in="SourceAlpha" result="shadowOffsetOuter1"></feOffset>
            <feGaussianBlur stdDeviation="4.5" in="shadowOffsetOuter1" result="shadowBlurOuter1"></feGaussianBlur>
            <feColorMatrix values="0 0 0 0 0   0 0 0 0 0   0 0 0 0 0  0 0 0 0.25 0" type="matrix" in="shadowBlurOuter1"></feColorMatrix>
        </filter>
        <path d="M3.30060491,0 L44.2281058,0 C46.0509795,0 47.5287107,1.47158057 47.5287107,3.2868672 C47.5287107,5.35028939 47.5287107,6.8567702 47.5287107,7.80630961 C47.5287107,14.0148366 47.5287107,23.2454553 47.5287107,35.4981658 C47.5287107,37.3134524 46.0509795,38.785033 44.2281058,38.785033 L3.30060491,38.785033 C1.47773115,38.785033 0,37.3134524 0,35.4981658 C0,23.135893 0,13.9052743 0,7.80630961 C0,6.74720796 0,5.24072715 0,3.2868672 C0,1.47158057 1.47773115,0 3.30060491,0 Z" id="path-31"></path>
        <filter x="-32.6%" y="-29.7%" width="165.2%" height="179.9%" filterUnits="objectBoundingBox" id="filter-32">
            <feOffset dx="0" dy="4" in="SourceAlpha" result="shadowOffsetOuter1"></feOffset>
            <feGaussianBlur stdDeviation="4.5" in="shadowOffsetOuter1" result="shadowBlurOuter1"></feGaussianBlur>
            <feColorMatrix values="0 0 0 0 0   0 0 0 0 0   0 0 0 0 0  0 0 0 0.25 0" type="matrix" in="shadowBlurOuter1"></feColorMatrix>
        </filter>
        <path d="M0.90075494,18.3104291 L11.9901777,1.2342155 C12.148073,0.991001301 12.4732465,0.921883543 12.716438,1.07981392 C12.7883019,1.12648286 12.8476514,1.19003125 12.8893068,1.26491273 C15.4739088,5.9111025 18.8760175,9.60432253 23.0956329,12.3445728 C27.3012076,15.075705 31.9512857,16.6214948 37.0458671,16.9819423 C37.3350365,17.0024936 37.5528741,17.2535026 37.5324145,17.5426785 C37.5261412,17.6313467 37.4974531,17.7169694 37.4490403,17.7915187 L26.3323062,34.9097879 C26.1307132,35.2202088 25.780573,35.4015611 25.4107187,35.387114 C20.4075226,35.1916805 15.8647625,33.7684176 11.7824384,31.1173253 C7.68773206,28.458192 4.05625912,24.5637695 0.888019558,19.4340581 C0.674624574,19.0885654 0.679586817,18.6509981 0.90075494,18.3104291 Z" id="path-33"></path>
        <filter x="-32.6%" y="-23.3%" width="154.3%" height="158.2%" filterUnits="objectBoundingBox" id="filter-34">
            <feOffset dx="-2" dy="2" in="SourceAlpha" result="shadowOffsetOuter1"></feOffset>
            <feGaussianBlur stdDeviation="3" in="shadowOffsetOuter1" result="shadowBlurOuter1"></feGaussianBlur>
            <feColorMatrix values="0 0 0 0 0   0 0 0 0 0   0 0 0 0 0  0 0 0 0.25 0" type="matrix" in="shadowBlurOuter1"></feColorMatrix>
        </filter>
        <path d="M3.40297936,10.6479028 L21.0361661,0.467377633 C21.2872688,0.322355186 21.6083793,0.408396487 21.7533656,0.659520088 C21.7962095,0.733727943 21.82024,0.817294113 21.8233598,0.902925151 C22.016931,6.2160953 23.3715452,11.0513035 25.8872025,15.4085497 C28.3944889,19.7512972 31.8359649,23.2396973 36.2116305,25.8737499 C36.4599522,26.0233414 36.5400912,26.3458883 36.3905785,26.5942574 C36.3447344,26.6704133 36.2803013,26.7336796 36.2033204,26.7781245 L18.5267063,36.9837225 C18.2061574,37.1687882 17.811848,37.1714139 17.4888643,36.9906311 C13.1197088,34.5450951 9.71822777,31.2145886 7.28442107,26.9991118 C4.84323231,22.7708488 3.375597,17.6522388 2.88151514,11.6432818 C2.84822921,11.2385663 3.05130201,10.8509438 3.40297936,10.6479028 Z" id="path-35"></path>
        <filter x="-35.7%" y="-21.8%" width="159.5%" height="154.5%" filterUnits="objectBoundingBox" id="filter-36">
            <feOffset dx="-2" dy="2" in="SourceAlpha" result="shadowOffsetOuter1"></feOffset>
            <feGaussianBlur stdDeviation="3" in="shadowOffsetOuter1" result="shadowBlurOuter1"></feGaussianBlur>
            <feColorMatrix values="0 0 0 0 0   0 0 0 0 0   0 0 0 0 0  0 0 0 0.25 0" type="matrix" in="shadowBlurOuter1"></feColorMatrix>
        </filter>
        <path d="M20.2684798,2.68962795 L39.1903956,19.4317562 C39.8717382,21.5670208 38.7795325,25.1928931 35.9137785,30.3093731 C33.2075616,35.1410177 28.7210832,38.4840174 22.4543434,40.3383722 C21.7639503,40.5426844 21.0170221,40.3790466 20.4752748,39.9048147 L2.77566836,24.4110266 C2.64467761,24.2964713 2.63144932,24.0974107 2.74606727,23.9664748 C2.79910717,23.9058837 2.87333308,23.8678998 2.95350233,23.8603233 C8.34304785,23.350977 12.7709012,20.4980101 16.2370624,15.3014226 C19.8614301,9.86764637 21.2052359,5.66371482 20.2684798,2.68962795 Z" id="path-37"></path>
        <filter x="-42.2%" y="-30.5%" width="184.4%" height="182.2%" filterUnits="objectBoundingBox" id="filter-38">
            <feOffset dx="0" dy="4" in="SourceAlpha" result="shadowOffsetOuter1"></feOffset>
            <feGaussianBlur stdDeviation="4.5" in="shadowOffsetOuter1" result="shadowBlurOuter1"></feGaussianBlur>
            <feColorMatrix values="0 0 0 0 0   0 0 0 0 0   0 0 0 0 0  0 0 0 0.25 0" type="matrix" in="shadowBlurOuter1"></feColorMatrix>
        </filter>
        <path d="M19.8718906,8.90148636 L38.9698241,17.5080563 L38.9698241,17.5080563 C39.3945792,17.859416 39.753986,18.323657 40.0480444,18.9007793 C40.3421029,19.4779015 40.3307951,20.2638208 40.0141211,21.2585371 L15.7878428,14.9747776 C18.727186,15.0542359 19.7331605,13.7218769 18.8057662,10.9777007 C18.7058469,10.6820378 18.61015,10.4053885 18.5186755,10.147753 C18.333913,9.62730425 18.6060162,9.05560597 19.1264572,8.87082135 C19.3695869,8.7844972 19.6366726,8.79548435 19.8718906,8.90148636 Z" id="path-39"></path>
        <filter x="-30.6%" y="-38.0%" width="144.9%" height="170.8%" filterUnits="objectBoundingBox" id="filter-40">
            <feOffset dx="-2" dy="-1" in="SourceAlpha" result="shadowOffsetOuter1"></feOffset>
            <feGaussianBlur stdDeviation="1.5" in="shadowOffsetOuter1" result="shadowBlurOuter1"></feGaussianBlur>
            <feColorMatrix values="0 0 0 0 0   0 0 0 0 0   0 0 0 0 0  0 0 0 0.15 0" type="matrix" in="shadowBlurOuter1"></feColorMatrix>
        </filter>
    </defs>
    <g id="In-App-generic-empty-states" stroke="none" stroke-width="1" fill="none" fill-rule="evenodd" opacity="0.5">
        <g id="Generic-Empty-State_Too-much-data-" transform="translate(-762.000000, -335.000000)">
            <g id="Dark" transform="translate(683.000000, -39.000000)">
                <g id="Too-much-data_S" transform="translate(79.000000, 338.000000)">
                    <g id="Too-much-data-dark_S-drawing" transform="translate(0.000000, 41.000000)">
                        <path d="M42.8307403,12.8856668 C73.9784429,13.8145175 106.714217,11.3371617 136.483276,18.6206244 C159.599714,24.2764199 149.448793,77.3653025 143.795518,91.4229637 C138.142243,105.480625 115.97498,94.3468972 87.4479315,94.3468972 C58.9208828,94.3468972 42.8307403,106.843709 29.6873228,91.4229637 C10.6692903,64.7203752 11.6830377,11.9568161 42.8307403,12.8856668 Z" id="Rectangle" fill="#CCCED3" opacity="0.08"></path>
                        <path d="M55.918535,12.0415403 C80.6915023,8.94647248 126.275655,22.023807 153.98689,39.3079325 C175.505374,52.7294989 141.18119,86.1967288 128.854016,95.7865058 C116.526842,105.376283 96.7106891,103.345156 65.1748538,96.7557767 C33.6390185,90.1663974 12.9296136,90.36885 6.27894598,72.5630935 C-1.33604817,43.1396884 31.1455676,15.1366082 55.918535,12.0415403 Z" id="Rectangle-Copy" fill="#F1F2F5" opacity="0.22"></path>
                        <g id="Decorations" opacity="0.6" transform="translate(0.000000, 10.298851)">
                            <circle id="Oval" fill="#CCCED3" cx="166.390805" cy="54.3908046" r="1.6091954"></circle>
                            <circle id="Oval-Copy-2" fill="#CCCED3" cx="91.7241379" cy="49.5237478" r="1"></circle>
                            <path d="M109.281609,12.8735632 L109.528736,12.8735632 C109.804878,12.8735632 110.028736,13.0974208 110.028736,13.3735632 L110.028736,25.2471264 C110.028736,25.5232688 109.804878,25.7471264 109.528736,25.7471264 L109.281609,25.7471264 C109.005467,25.7471264 108.781609,25.5232688 108.781609,25.2471264 L108.781609,13.3735632 C108.781609,13.0974208 109.005467,12.8735632 109.281609,12.8735632 Z" id="Rectangle-Copy-6" fill="#CCCED3" opacity="0.339076451" transform="translate(109.405172, 19.310345) scale(-1, 1) rotate(18.000000) translate(-109.405172, -19.310345) "></path>
                            <rect id="Rectangle-Copy-5" fill="#CCCED3" opacity="0.339076451" x="118.436782" y="72.7356322" width="1.28735632" height="10.2988506" rx="0.5"></rect>
                            <circle id="Oval-Copy-3" fill="#CCCED3" cx="0.643678161" cy="24.7421386" r="1"></circle>
                            <circle id="Oval-Copy-4" fill="#CCCED3" cx="130.666667" cy="61.7931034" r="1"></circle>
                            <circle id="Oval-Copy" fill="#CCCED3" cx="46.3448276" cy="70.8045977" r="1.93103448"></circle>
                            <g id="corner-llines" opacity="0.34" transform="translate(11.264368, 8.689655) rotate(-13.000000) translate(-11.264368, -8.689655) translate(3.862069, 1.931034)" fill="#CCCED3">
                                <path d="M12.9975415,0.897914815 L13.2848978,0.897914815 C13.5610402,0.897914815 13.7848978,1.12177244 13.7848978,1.39791482 L13.7848978,8.12205275 C13.7848978,8.39819512 13.5610402,8.62205275 13.2848978,8.62205275 L12.9975415,8.62205275 C12.7213991,8.62205275 12.4975415,8.39819512 12.4975415,8.12205275 L12.4975415,1.39791482 C12.4975415,1.12177244 12.7213991,0.897914815 12.9975415,0.897914815 Z" id="Rectangle-Copy" transform="translate(13.141220, 4.759984) rotate(-12.000000) translate(-13.141220, -4.759984) "></path>
                                <path d="M6.68618693,-1.28735632 L6.97354325,-1.28735632 C7.24968562,-1.28735632 7.47354325,-1.0634987 7.47354325,-0.787356322 L7.47354325,11.0862069 C7.47354325,11.3623493 7.24968562,11.5862069 6.97354325,11.5862069 L6.68618693,11.5862069 C6.41004455,11.5862069 6.18618693,11.3623493 6.18618693,11.0862069 L6.18618693,-0.787356322 C6.18618693,-1.0634987 6.41004455,-1.28735632 6.68618693,-1.28735632 Z" id="Rectangle-Copy-2" transform="translate(6.829865, 5.149425) rotate(-44.000000) translate(-6.829865, -5.149425) "></path>
                                <path d="M5.00574713,6.07547193 L5.29310345,6.07547193 C5.56924582,6.07547193 5.79310345,6.29932955 5.79310345,6.57547193 L5.79310345,15.8743225 C5.79310345,16.1504649 5.56924582,16.3743225 5.29310345,16.3743225 L5.00574713,16.3743225 C4.72960475,16.3743225 4.50574713,16.1504649 4.50574713,15.8743225 L4.50574713,6.57547193 C4.50574713,6.29932955 4.72960475,6.07547193 5.00574713,6.07547193 Z" id="Rectangle-Copy-4" transform="translate(5.149425, 11.224897) rotate(-75.000000) translate(-5.149425, -11.224897) "></path>
                            </g>
                            <path d="M10.4873795,71.6368048 C10.7194152,71.4047692 11.0845294,71.3869203 11.3370387,71.5832581 L11.3976779,71.6368048 L13.217931,73.4565517 L15.0388715,71.6368048 C15.2902434,71.3854329 15.6977979,71.3854329 15.9491699,71.6368048 C16.2005418,71.8881768 16.2005418,72.2957313 15.9491699,72.5471032 L14.1287356,74.3673563 L15.9491699,76.1882968 C16.1812055,76.4203324 16.1990544,76.7854467 16.0027165,77.0379559 L15.9491699,77.0985951 C15.7171342,77.3306308 15.35202,77.3484797 15.0995107,77.1521418 L15.0388715,77.0985951 L13.217931,75.2781609 L11.3976779,77.0985951 C11.146306,77.3499671 10.7387515,77.3499671 10.4873795,77.0985951 C10.2360076,76.8472232 10.2360076,76.4396687 10.4873795,76.1882968 L12.3071264,74.3673563 L10.4873795,72.5471032 C10.2553439,72.3150676 10.237495,71.9499533 10.4338329,71.697444 L10.4873795,71.6368048 Z" id="Path" fill="#CCCED3"></path>
                            <path d="M156.974337,43.209571 C157.085183,43.3204166 157.085183,43.5001328 156.974337,43.6109783 L156.171126,44.4137931 L156.974337,45.2166079 C157.071327,45.3135977 157.083451,45.4633167 157.010708,45.5734889 L156.974337,45.6180152 C156.877347,45.7150051 156.727628,45.7271289 156.617456,45.6543864 L156.57293,45.6180152 L155.770115,44.8148046 L154.9673,45.6180152 C154.856455,45.7288608 154.676738,45.7288608 154.565893,45.6180152 C154.455047,45.5071696 154.455047,45.3274534 154.565893,45.2166079 L155.369103,44.4137931 L154.565893,43.6109783 C154.468903,43.5139885 154.456779,43.3642695 154.529522,43.2540974 L154.565893,43.209571 C154.662883,43.1125811 154.812602,43.1004573 154.922774,43.1731998 L154.9673,43.209571 L155.770115,44.0127816 L156.57293,43.209571 C156.683775,43.0987254 156.863491,43.0987254 156.974337,43.209571 Z" id="Path" fill="#CCCED3"></path>
                            <path d="M13.1954023,41.4777708 C13.2842757,41.4777708 13.3563218,41.5498169 13.3563218,41.6386903 L13.3564023,41.9858742 L13.6469856,41.6955392 C13.7093362,41.6331885 13.8104266,41.6331885 13.8727772,41.6955392 C13.9351279,41.7578898 13.9351279,41.8589802 13.8727772,41.9213308 L13.5116092,42.282288 L14,42.2823685 C14.0799861,42.2823685 14.146342,42.3407258 14.1588134,42.417186 L14.1609195,42.443288 C14.1609195,42.524082 14.1013773,42.5909692 14.0237795,42.6024628 L14,42.6042076 L13.6523333,42.6040466 L13.8727772,42.8244974 C13.9288928,42.880613 13.9345044,42.9681077 13.8896119,43.0304992 L13.8727772,43.0502891 C13.8166617,43.1064046 13.7291669,43.1120162 13.6667755,43.0671237 L13.6469856,43.0502891 L13.3564023,42.7597363 L13.3563218,43.2478857 C13.3563218,43.3367591 13.2842757,43.4088053 13.1954023,43.4088053 C13.1065289,43.4088053 13.0344828,43.3367591 13.0344828,43.2478857 L13.0344023,42.7594949 L12.743819,43.0502891 C12.6814684,43.1126397 12.580378,43.1126397 12.5180273,43.0502891 C12.4556767,42.9879384 12.4556767,42.8868481 12.5180273,42.8244974 L12.7382299,42.6040466 L12.3908046,42.6042076 C12.3108185,42.6042076 12.2444626,42.5458502 12.2319912,42.46939 L12.2298851,42.443288 C12.2298851,42.362494 12.2894273,42.2956068 12.3670251,42.2841133 L12.3908046,42.2823685 L12.8787126,42.282288 L12.5180273,41.9213308 C12.4619118,41.8652152 12.4563002,41.7777205 12.5011927,41.7153291 L12.5180273,41.6955392 C12.5741429,41.6394236 12.6616377,41.633812 12.7240291,41.6787045 L12.743819,41.6955392 L13.0344023,41.9861156 L13.0344828,41.6386903 C13.0344828,41.5498169 13.1065289,41.4777708 13.1954023,41.4777708 Z" id="Path" fill="#CCCED3"></path>
                            <path d="M143.54023,3.54022989 C143.698227,3.54022989 143.829633,3.65408056 143.856884,3.80421798 L143.862069,3.86206897 L143.862069,4.82758621 C143.862069,5.00533302 143.717977,5.14942529 143.54023,5.14942529 C143.382233,5.14942529 143.250827,5.03557461 143.223576,4.88543719 L143.218391,4.82758621 L143.218391,3.86206897 C143.218391,3.68432215 143.362483,3.54022989 143.54023,3.54022989 Z M144.63353,3.22019614 L144.678103,3.25743643 L145.360827,3.94016022 C145.486513,4.0658462 145.486513,4.26962343 145.360827,4.39530941 C145.249106,4.50703028 145.075683,4.51944371 144.950251,4.4325497 L144.905677,4.39530941 L144.222954,3.71258562 C144.097268,3.58689965 144.097268,3.38312241 144.222954,3.25743643 C144.320709,3.15968067 144.465706,3.13795717 144.584457,3.19226592 L144.63353,3.22019614 Z M142.857506,3.25743643 C142.969227,3.3691573 142.98164,3.54257991 142.894746,3.66801227 L142.857506,3.71258562 L142.174782,4.39530941 C142.049096,4.52099539 141.845319,4.52099539 141.719633,4.39530941 C141.607912,4.28358854 141.595499,4.11016594 141.682393,3.98473357 L141.719633,3.94016022 L142.402357,3.25743643 C142.528043,3.13175045 142.73182,3.13175045 142.857506,3.25743643 Z M145.793103,2.25287356 C145.97085,2.25287356 146.114943,2.39696583 146.114943,2.57471264 C146.114943,2.73270981 146.001092,2.86411573 145.850954,2.89136647 L145.793103,2.89655172 L144.827586,2.89655172 C144.649839,2.89655172 144.505747,2.75245946 144.505747,2.57471264 C144.505747,2.41671547 144.619598,2.28530955 144.769735,2.25805882 L144.827586,2.25287356 L145.793103,2.25287356 Z M142.252874,2.25287356 C142.43062,2.25287356 142.574713,2.39696583 142.574713,2.57471264 C142.574713,2.73270981 142.460862,2.86411573 142.310725,2.89136647 L142.252874,2.89655172 L141.287356,2.89655172 C141.10961,2.89655172 140.965517,2.75245946 140.965517,2.57471264 C140.965517,2.41671547 141.079368,2.28530955 141.229505,2.25805882 L141.287356,2.25287356 L142.252874,2.25287356 Z M142.130209,0.716875584 L142.174782,0.754115874 L142.857506,1.43683966 C142.983192,1.56252564 142.983192,1.76630288 142.857506,1.89198885 C142.745785,2.00370973 142.572363,2.01612316 142.44693,1.92922915 L142.402357,1.89198885 L141.719633,1.20926507 C141.593947,1.08357909 141.593947,0.879801853 141.719633,0.754115874 C141.817389,0.656360112 141.962385,0.63463661 142.081137,0.688945366 L142.130209,0.716875584 Z M145.360827,0.754115874 C145.472548,0.865836744 145.484961,1.03925935 145.398067,1.16469171 L145.360827,1.20926507 L144.678103,1.89198885 C144.552417,2.01767483 144.34864,2.01767483 144.222954,1.89198885 C144.111233,1.78026798 144.098819,1.60684538 144.185713,1.48141302 L144.222954,1.43683966 L144.905677,0.754115874 C145.031363,0.628429895 145.235141,0.628429895 145.360827,0.754115874 Z M143.54023,0 C143.698227,0 143.829633,0.113850678 143.856884,0.263988099 L143.862069,0.32183908 L143.862069,1.28735632 C143.862069,1.46510314 143.717977,1.6091954 143.54023,1.6091954 C143.382233,1.6091954 143.250827,1.49534472 143.223576,1.3452073 L143.218391,1.28735632 L143.218391,0.32183908 C143.218391,0.144092264 143.362483,0 143.54023,0 Z" id="Combined-Shape-Copy-5" fill="#CCCED3" fill-rule="nonzero"></path>
                            <path d="M154.64764,68.2797229 C154.959639,68.4501108 155.074438,68.841163 154.90405,69.1531625 C153.172857,72.3231738 145.641323,77.5467102 141.37862,77.8018761 C141.023761,77.823118 140.718872,77.5526683 140.69763,77.1978099 C140.676388,76.8429514 140.946838,76.5380619 141.301696,76.51682 C145.100477,76.2894246 152.246733,71.3330998 153.7742,68.5361334 C153.944588,68.2241339 154.33564,68.109335 154.64764,68.2797229 Z M135.620713,73.2374457 L135.678362,73.2941989 L137.05962,74.8339358 C137.222225,75.0151977 137.473199,75.0891821 137.708126,75.0251089 L138.751666,74.7375836 C139.498511,74.5292375 140.033806,74.3730337 140.354803,74.269867 C140.693246,74.1610933 141.055788,74.3472774 141.164561,74.6857209 C141.273335,75.0241644 141.087151,75.3867056 140.748708,75.4954793 L140.456062,75.5865203 C139.939764,75.7430807 139.138151,75.9694672 138.046862,76.2671009 C137.383537,76.4480137 136.67757,76.2620463 136.190116,75.7861838 L136.101343,75.6935812 L134.720085,74.1538448 C134.4827,73.8892238 134.504779,73.4822679 134.7694,73.2448832 C134.99331,73.0440193 135.319129,73.0289254 135.557895,73.1893497 L135.620713,73.2374457 Z M149.609064,69.7092297 C149.858525,69.9624978 149.855439,70.3700406 149.602171,70.619502 C147.90285,72.2932821 146.514232,73.1960448 143.947077,74.1817366 C143.615206,74.3091627 143.242872,74.1434274 143.115446,73.8115565 C142.98802,73.4796855 143.153755,73.1073517 143.485626,72.9799257 C145.885692,72.0583898 147.124337,71.2531267 148.698792,69.7023371 C148.95206,69.4528757 149.359603,69.4559616 149.609064,69.7092297 Z" id="Shape" fill="#E7E9EB" fill-rule="nonzero" opacity="0.34"></path>
                        </g>
                        <g id="doc" transform="translate(69.028615, 17.140154) scale(-1, 1) rotate(7.000000) translate(-69.028615, -17.140154) translate(54.328615, 1.915154)">
                            <g id="Rectangle-Copy-11">
                                <use fill="black" fill-opacity="1" filter="url(#filter-2)" xlink:href="#path-1"></use>
                                <use fill="#D5D6DA" fill-rule="evenodd" xlink:href="#path-1"></use>
                            </g>
                            <g id="Rectangle-Copy-12" transform="translate(18.682755, 9.596026) scale(-1, -1) rotate(27.000000) translate(-18.682755, -9.596026) ">
                                <use fill="black" fill-opacity="1" filter="url(#filter-4)" xlink:href="#path-3"></use>
                                <use fill="#B0B2B6" fill-rule="evenodd" xlink:href="#path-3"></use>
                            </g>
                        </g>
                        <g id="Excel" transform="translate(84.965517, 23.116802) rotate(14.000000) translate(-84.965517, -23.116802) translate(74.022989, 8.367816)">
                            <g id="Rectangle">
                                <use fill="black" fill-opacity="1" filter="url(#filter-6)" xlink:href="#path-5"></use>
                                <use fill="#D5D6DA" fill-rule="evenodd" xlink:href="#path-5"></use>
                            </g>
                            <mask id="mask-8" fill="white">
                                <use xlink:href="#path-7"></use>
                            </mask>
                            <g id="Rectangle">
                                <use fill="black" fill-opacity="1" filter="url(#filter-9)" xlink:href="#path-7"></use>
                                <use fill="#D5D6DA" fill-rule="evenodd" xlink:href="#path-7"></use>
                            </g>
                            <g id="Grid" mask="url(#mask-8)">
                                <g transform="translate(0.285624, 1.486765)">
                                    <path d="M11.7081518,1.68384888 L14.5292242,1.68384888 C14.6850277,1.68384888 14.8113314,1.80949635 14.8113314,1.96449036 L14.8113314,3.08705628 C14.8113314,3.24205029 14.6850277,3.36769776 14.5292242,3.36769776 L11.7081518,3.36769776 C11.5523483,3.36769776 11.4260446,3.24205029 11.4260446,3.08705628 L11.4260446,1.96449036 C11.4260446,1.80949635 11.5523483,1.68384888 11.7081518,1.68384888 Z" id="Rectangle" fill-opacity="0.786276224" fill="#9EA0A5"></path>
                                    <path d="M2.68072025,1.68384888 L5.50179261,1.68384888 C5.65759614,1.68384888 5.78389985,1.80949635 5.78389985,1.96449036 L5.78389985,3.08705628 C5.78389985,3.24205029 5.65759614,3.36769776 5.50179261,3.36769776 L2.68072025,3.36769776 C2.52491673,3.36769776 2.39861301,3.24205029 2.39861301,3.08705628 L2.39861301,1.96449036 C2.39861301,1.80949635 2.52491673,1.68384888 2.68072025,1.68384888 Z" id="Rectangle-Copy-8" fill-opacity="0.786276224" fill="#9EA0A5"></path>
                                    <path d="M16.2218676,1.68384888 L19.04294,1.68384888 C19.1987435,1.68384888 19.3250472,1.80949635 19.3250472,1.96449036 L19.3250472,3.08705628 C19.3250472,3.24205029 19.1987435,3.36769776 19.04294,3.36769776 L16.2218676,3.36769776 C16.0660641,3.36769776 15.9397604,3.24205029 15.9397604,3.08705628 L15.9397604,1.96449036 C15.9397604,1.80949635 16.0660641,1.68384888 16.2218676,1.68384888 Z" id="Rectangle-Copy-7" fill-opacity="0.786276224" fill="#9EA0A5"></path>
                                    <path d="M7.19443603,1.68384888 L10.0155084,1.68384888 C10.1713119,1.68384888 10.2976156,1.80949635 10.2976156,1.96449036 L10.2976156,3.08705628 C10.2976156,3.24205029 10.1713119,3.36769776 10.0155084,3.36769776 L7.19443603,3.36769776 C7.03863251,3.36769776 6.91232879,3.24205029 6.91232879,3.08705628 L6.91232879,1.96449036 C6.91232879,1.80949635 7.03863251,1.68384888 7.19443603,1.68384888 Z" id="Rectangle-Copy-9" fill-opacity="0.786276224" fill="#9EA0A5"></path>
                                    <path d="M11.7081518,4.49026368 L14.5292242,4.49026368 C14.6850277,4.49026368 14.8113314,4.61591115 14.8113314,4.77090516 L14.8113314,5.89347108 C14.8113314,6.04846509 14.6850277,6.17411257 14.5292242,6.17411257 L11.7081518,6.17411257 C11.5523483,6.17411257 11.4260446,6.04846509 11.4260446,5.89347108 L11.4260446,4.77090516 C11.4260446,4.61591115 11.5523483,4.49026368 11.7081518,4.49026368 Z" id="Rectangle" fill-opacity="0.786276224" fill="#9EA0A5"></path>
                                    <path d="M2.68072025,4.49026368 L5.50179261,4.49026368 C5.65759614,4.49026368 5.78389985,4.61591115 5.78389985,4.77090516 L5.78389985,5.89347108 C5.78389985,6.04846509 5.65759614,6.17411257 5.50179261,6.17411257 L2.68072025,6.17411257 C2.52491673,6.17411257 2.39861301,6.04846509 2.39861301,5.89347108 L2.39861301,4.77090516 C2.39861301,4.61591115 2.52491673,4.49026368 2.68072025,4.49026368 Z" id="Rectangle-Copy-8" fill-opacity="0.786276224" fill="#9EA0A5"></path>
                                    <path d="M16.2218676,4.49026368 L19.04294,4.49026368 C19.1987435,4.49026368 19.3250472,4.61591115 19.3250472,4.77090516 L19.3250472,5.89347108 C19.3250472,6.04846509 19.1987435,6.17411257 19.04294,6.17411257 L16.2218676,6.17411257 C16.0660641,6.17411257 15.9397604,6.04846509 15.9397604,5.89347108 L15.9397604,4.77090516 C15.9397604,4.61591115 16.0660641,4.49026368 16.2218676,4.49026368 Z" id="Rectangle-Copy-7" fill-opacity="0.786276224" fill="#9EA0A5"></path>
                                    <path d="M7.19443603,4.49026368 L10.0155084,4.49026368 C10.1713119,4.49026368 10.2976156,4.61591115 10.2976156,4.77090516 L10.2976156,5.89347108 C10.2976156,6.04846509 10.1713119,6.17411257 10.0155084,6.17411257 L7.19443603,6.17411257 C7.03863251,6.17411257 6.91232879,6.04846509 6.91232879,5.89347108 L6.91232879,4.77090516 C6.91232879,4.61591115 7.03863251,4.49026368 7.19443603,4.49026368 Z" id="Rectangle-Copy-9" fill-opacity="0.786276224" fill="#9EA0A5"></path>
                                    <path d="M11.7081518,7.29667849 L14.5292242,7.29667849 C14.6850277,7.29667849 14.8113314,7.42232596 14.8113314,7.57731997 L14.8113314,8.69988589 C14.8113314,8.8548799 14.6850277,8.98052737 14.5292242,8.98052737 L11.7081518,8.98052737 C11.5523483,8.98052737 11.4260446,8.8548799 11.4260446,8.69988589 L11.4260446,7.57731997 C11.4260446,7.42232596 11.5523483,7.29667849 11.7081518,7.29667849 Z" id="Rectangle" fill-opacity="0.786276224" fill="#9EA0A5"></path>
                                    <path d="M2.68072025,7.29667849 L5.50179261,7.29667849 C5.65759614,7.29667849 5.78389985,7.42232596 5.78389985,7.57731997 L5.78389985,8.69988589 C5.78389985,8.8548799 5.65759614,8.98052737 5.50179261,8.98052737 L2.68072025,8.98052737 C2.52491673,8.98052737 2.39861301,8.8548799 2.39861301,8.69988589 L2.39861301,7.57731997 C2.39861301,7.42232596 2.52491673,7.29667849 2.68072025,7.29667849 Z" id="Rectangle-Copy-8" fill-opacity="0.786276224" fill="#9EA0A5"></path>
                                    <path d="M16.2218676,7.29667849 L19.04294,7.29667849 C19.1987435,7.29667849 19.3250472,7.42232596 19.3250472,7.57731997 L19.3250472,8.69988589 C19.3250472,8.8548799 19.1987435,8.98052737 19.04294,8.98052737 L16.2218676,8.98052737 C16.0660641,8.98052737 15.9397604,8.8548799 15.9397604,8.69988589 L15.9397604,7.57731997 C15.9397604,7.42232596 16.0660641,7.29667849 16.2218676,7.29667849 Z" id="Rectangle-Copy-7" fill-opacity="0.786276224" fill="#9EA0A5"></path>
                                    <path d="M7.19443603,7.29667849 L10.0155084,7.29667849 C10.1713119,7.29667849 10.2976156,7.42232596 10.2976156,7.57731997 L10.2976156,8.69988589 C10.2976156,8.8548799 10.1713119,8.98052737 10.0155084,8.98052737 L7.19443603,8.98052737 C7.03863251,8.98052737 6.91232879,8.8548799 6.91232879,8.69988589 L6.91232879,7.57731997 C6.91232879,7.42232596 7.03863251,7.29667849 7.19443603,7.29667849 Z" id="Rectangle-Copy-9" fill-opacity="0.786276224" fill="#9EA0A5"></path>
                                    <path d="M11.7081518,10.1030933 L14.5292242,10.1030933 C14.6850277,10.1030933 14.8113314,10.2287408 14.8113314,10.3837348 L14.8113314,11.5063007 C14.8113314,11.6612947 14.6850277,11.7869422 14.5292242,11.7869422 L11.7081518,11.7869422 C11.5523483,11.7869422 11.4260446,11.6612947 11.4260446,11.5063007 L11.4260446,10.3837348 C11.4260446,10.2287408 11.5523483,10.1030933 11.7081518,10.1030933 Z" id="Rectangle" fill-opacity="0.786276224" fill="#9EA0A5"></path>
                                    <path d="M2.68072025,10.1030933 L5.50179261,10.1030933 C5.65759614,10.1030933 5.78389985,10.2287408 5.78389985,10.3837348 L5.78389985,11.5063007 C5.78389985,11.6612947 5.65759614,11.7869422 5.50179261,11.7869422 L2.68072025,11.7869422 C2.52491673,11.7869422 2.39861301,11.6612947 2.39861301,11.5063007 L2.39861301,10.3837348 C2.39861301,10.2287408 2.52491673,10.1030933 2.68072025,10.1030933 Z" id="Rectangle-Copy-8" fill-opacity="0.786276224" fill="#9EA0A5"></path>
                                    <path d="M16.2218676,10.1030933 L19.04294,10.1030933 C19.1987435,10.1030933 19.3250472,10.2287408 19.3250472,10.3837348 L19.3250472,11.5063007 C19.3250472,11.6612947 19.1987435,11.7869422 19.04294,11.7869422 L16.2218676,11.7869422 C16.0660641,11.7869422 15.9397604,11.6612947 15.9397604,11.5063007 L15.9397604,10.3837348 C15.9397604,10.2287408 16.0660641,10.1030933 16.2218676,10.1030933 Z" id="Rectangle-Copy-7" fill-opacity="0.786276224" fill="#9EA0A5"></path>
                                    <path d="M7.19443603,10.1030933 L10.0155084,10.1030933 C10.1713119,10.1030933 10.2976156,10.2287408 10.2976156,10.3837348 L10.2976156,11.5063007 C10.2976156,11.6612947 10.1713119,11.7869422 10.0155084,11.7869422 L7.19443603,11.7869422 C7.03863251,11.7869422 6.91232879,11.6612947 6.91232879,11.5063007 L6.91232879,10.3837348 C6.91232879,10.2287408 7.03863251,10.1030933 7.19443603,10.1030933 Z" id="Rectangle-Copy-9" fill-opacity="0.786276224" fill="#9EA0A5"></path>
                                    <path d="M11.7081518,12.9095081 L14.5292242,12.9095081 C14.6850277,12.9095081 14.8113314,13.0351556 14.8113314,13.1901496 L14.8113314,14.3127155 C14.8113314,14.4677095 14.6850277,14.593357 14.5292242,14.593357 L11.7081518,14.593357 C11.5523483,14.593357 11.4260446,14.4677095 11.4260446,14.3127155 L11.4260446,13.1901496 C11.4260446,13.0351556 11.5523483,12.9095081 11.7081518,12.9095081 Z" id="Rectangle" fill-opacity="0.786276224" fill="#9EA0A5"></path>
                                    <path d="M2.68072025,12.9095081 L5.50179261,12.9095081 C5.65759614,12.9095081 5.78389985,13.0351556 5.78389985,13.1901496 L5.78389985,14.3127155 C5.78389985,14.4677095 5.65759614,14.593357 5.50179261,14.593357 L2.68072025,14.593357 C2.52491673,14.593357 2.39861301,14.4677095 2.39861301,14.3127155 L2.39861301,13.1901496 C2.39861301,13.0351556 2.52491673,12.9095081 2.68072025,12.9095081 Z" id="Rectangle-Copy-8" fill-opacity="0.786276224" fill="#9EA0A5"></path>
                                    <path d="M16.2218676,12.9095081 L19.04294,12.9095081 C19.1987435,12.9095081 19.3250472,13.0351556 19.3250472,13.1901496 L19.3250472,14.3127155 C19.3250472,14.4677095 19.1987435,14.593357 19.04294,14.593357 L16.2218676,14.593357 C16.0660641,14.593357 15.9397604,14.4677095 15.9397604,14.3127155 L15.9397604,13.1901496 C15.9397604,13.0351556 16.0660641,12.9095081 16.2218676,12.9095081 Z" id="Rectangle-Copy-7" fill-opacity="0.786276224" fill="#9EA0A5"></path>
                                    <path d="M7.19443603,12.9095081 L10.0155084,12.9095081 C10.1713119,12.9095081 10.2976156,13.0351556 10.2976156,13.1901496 L10.2976156,14.3127155 C10.2976156,14.4677095 10.1713119,14.593357 10.0155084,14.593357 L7.19443603,14.593357 C7.03863251,14.593357 6.91232879,14.4677095 6.91232879,14.3127155 L6.91232879,13.1901496 C6.91232879,13.0351556 7.03863251,12.9095081 7.19443603,12.9095081 Z" id="Rectangle-Copy-9" fill-opacity="0.786276224" fill="#9EA0A5"></path>
                                    <path d="M11.7081518,15.7159229 L14.5292242,15.7159229 C14.6850277,15.7159229 14.8113314,15.8415704 14.8113314,15.9965644 L14.8113314,17.1191303 C14.8113314,17.2741243 14.6850277,17.3997718 14.5292242,17.3997718 L11.7081518,17.3997718 C11.5523483,17.3997718 11.4260446,17.2741243 11.4260446,17.1191303 L11.4260446,15.9965644 C11.4260446,15.8415704 11.5523483,15.7159229 11.7081518,15.7159229 Z" id="Rectangle" fill-opacity="0.786276224" fill="#9EA0A5"></path>
                                    <path d="M2.68072025,15.7159229 L5.50179261,15.7159229 C5.65759614,15.7159229 5.78389985,15.8415704 5.78389985,15.9965644 L5.78389985,17.1191303 C5.78389985,17.2741243 5.65759614,17.3997718 5.50179261,17.3997718 L2.68072025,17.3997718 C2.52491673,17.3997718 2.39861301,17.2741243 2.39861301,17.1191303 L2.39861301,15.9965644 C2.39861301,15.8415704 2.52491673,15.7159229 2.68072025,15.7159229 Z" id="Rectangle-Copy-8" fill-opacity="0.786276224" fill="#9EA0A5"></path>
                                    <path d="M16.2218676,15.7159229 L19.04294,15.7159229 C19.1987435,15.7159229 19.3250472,15.8415704 19.3250472,15.9965644 L19.3250472,17.1191303 C19.3250472,17.2741243 19.1987435,17.3997718 19.04294,17.3997718 L16.2218676,17.3997718 C16.0660641,17.3997718 15.9397604,17.2741243 15.9397604,17.1191303 L15.9397604,15.9965644 C15.9397604,15.8415704 16.0660641,15.7159229 16.2218676,15.7159229 Z" id="Rectangle-Copy-7" fill-opacity="0.786276224" fill="#9EA0A5"></path>
                                    <path d="M7.19443603,15.7159229 L10.0155084,15.7159229 C10.1713119,15.7159229 10.2976156,15.8415704 10.2976156,15.9965644 L10.2976156,17.1191303 C10.2976156,17.2741243 10.1713119,17.3997718 10.0155084,17.3997718 L7.19443603,17.3997718 C7.03863251,17.3997718 6.91232879,17.2741243 6.91232879,17.1191303 L6.91232879,15.9965644 C6.91232879,15.8415704 7.03863251,15.7159229 7.19443603,15.7159229 Z" id="Rectangle-Copy-9" fill-opacity="0.786276224" fill="#9EA0A5"></path>
                                    <path d="M11.7081518,18.5223377 L14.5292242,18.5223377 C14.6850277,18.5223377 14.8113314,18.6479852 14.8113314,18.8029792 L14.8113314,19.9255451 C14.8113314,20.0805391 14.6850277,20.2061866 14.5292242,20.2061866 L11.7081518,20.2061866 C11.5523483,20.2061866 11.4260446,20.0805391 11.4260446,19.9255451 L11.4260446,18.8029792 C11.4260446,18.6479852 11.5523483,18.5223377 11.7081518,18.5223377 Z" id="Rectangle" fill-opacity="0.786276224" fill="#9EA0A5"></path>
                                    <path d="M2.68072025,18.5223377 L5.50179261,18.5223377 C5.65759614,18.5223377 5.78389985,18.6479852 5.78389985,18.8029792 L5.78389985,19.9255451 C5.78389985,20.0805391 5.65759614,20.2061866 5.50179261,20.2061866 L2.68072025,20.2061866 C2.52491673,20.2061866 2.39861301,20.0805391 2.39861301,19.9255451 L2.39861301,18.8029792 C2.39861301,18.6479852 2.52491673,18.5223377 2.68072025,18.5223377 Z" id="Rectangle-Copy-8" fill-opacity="0.786276224" fill="#9EA0A5"></path>
                                    <path d="M16.2218676,18.5223377 L19.04294,18.5223377 C19.1987435,18.5223377 19.3250472,18.6479852 19.3250472,18.8029792 L19.3250472,19.9255451 C19.3250472,20.0805391 19.1987435,20.2061866 19.04294,20.2061866 L16.2218676,20.2061866 C16.0660641,20.2061866 15.9397604,20.0805391 15.9397604,19.9255451 L15.9397604,18.8029792 C15.9397604,18.6479852 16.0660641,18.5223377 16.2218676,18.5223377 Z" id="Rectangle-Copy-7" fill-opacity="0.786276224" fill="#9EA0A5"></path>
                                    <path d="M7.19443603,18.5223377 L10.0155084,18.5223377 C10.1713119,18.5223377 10.2976156,18.6479852 10.2976156,18.8029792 L10.2976156,19.9255451 C10.2976156,20.0805391 10.1713119,20.2061866 10.0155084,20.2061866 L7.19443603,20.2061866 C7.03863251,20.2061866 6.91232879,20.0805391 6.91232879,19.9255451 L6.91232879,18.8029792 C6.91232879,18.6479852 7.03863251,18.5223377 7.19443603,18.5223377 Z" id="Rectangle-Copy-9" fill-opacity="0.786276224" fill="#9EA0A5"></path>
                                    <path d="M11.7081518,21.3287525 L14.5292242,21.3287525 C14.6850277,21.3287525 14.8113314,21.4544 14.8113314,21.609394 L14.8113314,22.7319599 C14.8113314,22.8869539 14.6850277,23.0126014 14.5292242,23.0126014 L11.7081518,23.0126014 C11.5523483,23.0126014 11.4260446,22.8869539 11.4260446,22.7319599 L11.4260446,21.609394 C11.4260446,21.4544 11.5523483,21.3287525 11.7081518,21.3287525 Z" id="Rectangle" fill-opacity="0.786276224" fill="#9EA0A5"></path>
                                    <path d="M2.68072025,21.3287525 L5.50179261,21.3287525 C5.65759614,21.3287525 5.78389985,21.4544 5.78389985,21.609394 L5.78389985,22.7319599 C5.78389985,22.8869539 5.65759614,23.0126014 5.50179261,23.0126014 L2.68072025,23.0126014 C2.52491673,23.0126014 2.39861301,22.8869539 2.39861301,22.7319599 L2.39861301,21.609394 C2.39861301,21.4544 2.52491673,21.3287525 2.68072025,21.3287525 Z" id="Rectangle-Copy-8" fill-opacity="0.786276224" fill="#9EA0A5"></path>
                                    <path d="M16.2218676,21.3287525 L19.04294,21.3287525 C19.1987435,21.3287525 19.3250472,21.4544 19.3250472,21.609394 L19.3250472,22.7319599 C19.3250472,22.8869539 19.1987435,23.0126014 19.04294,23.0126014 L16.2218676,23.0126014 C16.0660641,23.0126014 15.9397604,22.8869539 15.9397604,22.7319599 L15.9397604,21.609394 C15.9397604,21.4544 16.0660641,21.3287525 16.2218676,21.3287525 Z" id="Rectangle-Copy-7" fill-opacity="0.786276224" fill="#9EA0A5"></path>
                                    <path d="M7.19443603,21.3287525 L10.0155084,21.3287525 C10.1713119,21.3287525 10.2976156,21.4544 10.2976156,21.609394 L10.2976156,22.7319599 C10.2976156,22.8869539 10.1713119,23.0126014 10.0155084,23.0126014 L7.19443603,23.0126014 C7.03863251,23.0126014 6.91232879,22.8869539 6.91232879,22.7319599 L6.91232879,21.609394 C6.91232879,21.4544 7.03863251,21.3287525 7.19443603,21.3287525 Z" id="Rectangle-Copy-9" fill-opacity="0.786276224" fill="#9EA0A5"></path>
                                    <path d="M11.7081518,24.1351673 L14.5292242,24.1351673 C14.6850277,24.1351673 14.8113314,24.2608148 14.8113314,24.4158088 L14.8113314,25.5383747 C14.8113314,25.6933687 14.6850277,25.8190162 14.5292242,25.8190162 L11.7081518,25.8190162 C11.5523483,25.8190162 11.4260446,25.6933687 11.4260446,25.5383747 L11.4260446,24.4158088 C11.4260446,24.2608148 11.5523483,24.1351673 11.7081518,24.1351673 Z" id="Rectangle" fill-opacity="0.786276224" fill="#9EA0A5"></path>
                                    <path d="M2.68072025,24.1351673 L5.50179261,24.1351673 C5.65759614,24.1351673 5.78389985,24.2608148 5.78389985,24.4158088 L5.78389985,25.5383747 C5.78389985,25.6933687 5.65759614,25.8190162 5.50179261,25.8190162 L2.68072025,25.8190162 C2.52491673,25.8190162 2.39861301,25.6933687 2.39861301,25.5383747 L2.39861301,24.4158088 C2.39861301,24.2608148 2.52491673,24.1351673 2.68072025,24.1351673 Z" id="Rectangle-Copy-8" fill-opacity="0.786276224" fill="#9EA0A5"></path>
                                    <path d="M16.2218676,24.1351673 L19.04294,24.1351673 C19.1987435,24.1351673 19.3250472,24.2608148 19.3250472,24.4158088 L19.3250472,25.5383747 C19.3250472,25.6933687 19.1987435,25.8190162 19.04294,25.8190162 L16.2218676,25.8190162 C16.0660641,25.8190162 15.9397604,25.6933687 15.9397604,25.5383747 L15.9397604,24.4158088 C15.9397604,24.2608148 16.0660641,24.1351673 16.2218676,24.1351673 Z" id="Rectangle-Copy-7" fill-opacity="0.786276224" fill="#9EA0A5"></path>
                                    <path d="M7.19443603,24.1351673 L10.0155084,24.1351673 C10.1713119,24.1351673 10.2976156,24.2608148 10.2976156,24.4158088 L10.2976156,25.5383747 C10.2976156,25.6933687 10.1713119,25.8190162 10.0155084,25.8190162 L7.19443603,25.8190162 C7.03863251,25.8190162 6.91232879,25.6933687 6.91232879,25.5383747 L6.91232879,24.4158088 C6.91232879,24.2608148 7.03863251,24.1351673 7.19443603,24.1351673 Z" id="Rectangle-Copy-9" fill-opacity="0.786276224" fill="#9EA0A5"></path>
                                    <polygon id="Rectangle" fill="url(#linearGradient-10)" points="0.346924022 -6.64571697e-14 20.8125217 -6.64571697e-14 20.8125217 27.3395827 0.346924022 27.3395827"></polygon>
                                </g>
                            </g>
                            <polygon id="X" fill="#9EA0A5" fill-rule="nonzero" mask="url(#mask-8)" points="4.98767834 26.6281555 6.90580203 24.0882193 8.82392573 26.6281555 10.821031 26.6281555 8.03411009 23.2431048 10.6235771 19.9131703 8.73930262 19.9131703 6.99606668 22.3290952 5.21898149 19.9131703 3.28957472 19.9131703 5.850834 23.1650236 3.11468697 26.6281555"></polygon>
                        </g>
                        <g id="Page">
                            <use fill="black" fill-opacity="1" filter="url(#filter-12)" xlink:href="#path-11"></use>
                            <use fill="#CCCED3" fill-rule="evenodd" xlink:href="#path-11"></use>
                        </g>
                        <g id="Doughnut" transform="translate(19.954023, 41.839080)">
                            <g id="base">
                                <g id="Path">
                                    <use fill="black" fill-opacity="1" filter="url(#filter-14)" xlink:href="#path-13"></use>
                                    <use fill="#D5D6DA" fill-rule="evenodd" xlink:href="#path-13"></use>
                                </g>
                                <g id="Path">
                                    <use fill="black" fill-opacity="1" filter="url(#filter-16)" xlink:href="#path-15"></use>
                                    <use fill="#D5D6DA" fill-rule="evenodd" xlink:href="#path-15"></use>
                                </g>
                                <path d="M2.85457722,-4.03757425e-15 L38.2513347,-4.03757425e-15 C39.8278742,-4.03757425e-15 41.1059119,1.27204422 41.1059119,2.8411903 L41.1059119,6.74782695 L0,6.74782695 L0,2.8411903 C0,1.27204422 1.27803775,-4.03757425e-15 2.85457722,-4.03757425e-15 Z" id="Path-Copy" fill="#9EA0A5"></path>
                            </g>
                            <g transform="translate(19.143508, 10.517975)">
                                <path d="M17.083287,6.89385088 C16.7551461,7.40435553 16.5843687,7.65960786 16.5709547,7.65960786 C15.8956,7.65960786 14.9369969,7.46970923 13.6951452,7.08991197 C13.4612724,5.22211482 12.0925077,3.70529141 10.2977159,3.24535604 C9.91644713,1.94349037 9.72581274,0.973025533 9.72581274,0.333961543 C9.72581274,0.316030178 9.98923955,0.204709663 10.5160932,4.2505365e-14 C13.6951452,0.307064495 16.7515611,3.38668049 17.083287,6.89385088 Z" id="Path" fill-opacity="0.82" fill="#67696F" opacity="0.485212054"></path>
                                <path d="M16.5709547,7.65955972 L13.1230403,7.65963561 C12.8891675,5.79183847 11.5204029,4.27501506 9.72561104,3.81507969 L9.72572622,0.333961543 C13.4222084,0.860457914 16.3045201,3.90039315 16.5709547,7.65955972 Z" id="Path" fill="#9EA0A5"></path>
                                <path d="M8.57153152,0.333961543 L8.57153152,3.81702128 C8.51159616,3.81702128 8.00950292,4.32202708 8.00950292,4.32202708 C5.95985628,4.44637595 3.87319602,6.24690223 3.87319602,8.47787318 C3.87319602,10.9950706 5.72289928,13.0741563 8.8676602,13.0741563 C11.4950685,13.0741563 12.0450368,11.4177614 12.5863417,9.44953992 C12.5863417,9.44953992 13.2711635,9.00910293 13.4090211,8.8803604 C13.4090211,8.8803604 14.5232011,8.88017903 16.7515611,8.87981628 C16.457976,13.0187818 13.0986383,16.2862237 8.8676602,16.2862237 C4.44415321,16.2862237 0.858192284,12.7151882 0.858192284,8.31009263 C0.858192284,8.23887555 -0.00167561611,8.29992844 -3.32317793e-13,8.22933151 C0.104134109,3.93319131 4.21953927,0.333961543 8.57153152,0.333961543 Z" id="Path" fill-opacity="0.7" fill="#9EA0A5" opacity="0.485212054"></path>
                                <path d="M8.01793634,3.81189989 L7.99942667,0.903685192 C8.33926546,0.891540732 8.68297487,0.333961543 9.03091699,0.333961543 L9.04942667,3.81189989 C8.94136476,3.81189989 8.03610356,4.31690569 8.03610356,4.31690569" id="Shape" fill-opacity="0.7" fill="#9EA0A5" opacity="0.653180804"></path>
                                <path d="M16.7508934,8.87981628 C16.4573083,13.0187818 13.0979706,16.2862237 8.86699248,16.2862237 C8.77146441,16.2862237 8.67632695,16.2845583 8.58160777,16.281255 C12.61392,16.1395225 15.6280871,13.406504 15.9988183,9.44953992 L16.3302344,9.21673354 L16.7508934,8.87981628 Z" id="Path" fill-opacity="0.7" fill="#9EA0A5" opacity="0.653180804"></path>
                                <path d="M8.00950292,0.903685192 L8.00950292,4.32202708 C5.48178464,4.32202708 3.43266411,6.36261881 3.43266411,8.87981628 C3.43266411,11.3970137 5.48178464,13.4376055 8.00950292,13.4376055 C10.3432837,13.4376055 12.2690896,11.6981276 12.5508638,9.45008405 L15.9988183,9.45003334 C15.7052332,13.5889989 12.240481,16.8559474 8.00950292,16.8559474 C3.58599594,16.8559474 3.50072524e-05,13.2849118 3.50072524e-05,8.87981628 C3.50072524e-05,4.47472072 3.58599594,0.903685192 8.00950292,0.903685192 Z" id="Path" fill="#7B7D82"></path>
                            </g>
                            <path d="M4.52182873,14.7909024 L14.6216797,14.7909024 C14.9315683,14.7909024 15.1827826,15.0852185 15.1827826,15.4482759 C15.1827826,15.8113332 14.9315683,16.1056493 14.6216797,16.1056493 L4.52182873,16.1056493 C4.21194019,16.1056493 3.96072589,15.8113332 3.96072589,15.4482759 C3.96072589,15.0852185 4.21194019,14.7909024 4.52182873,14.7909024 Z" id="Rectangle" fill="#9EA0A5" opacity="0.647623698"></path>
                            <path d="M4.52182873,11.8327219 L14.6216797,11.8327219 C14.9315683,11.8327219 15.1827826,12.1270381 15.1827826,12.4900954 C15.1827826,12.8531527 14.9315683,13.1474688 14.6216797,13.1474688 L4.52182873,13.1474688 C4.21194019,13.1474688 3.96072589,12.8531527 3.96072589,12.4900954 C3.96072589,12.1270381 4.21194019,11.8327219 4.52182873,11.8327219 Z" id="Rectangle-Copy-3" fill="#9EA0A5" opacity="0.647623698"></path>
                            <path d="M4.56083587,17.7490829 L9.96182572,17.7490829 C10.2932573,17.7490829 10.5619357,18.043399 10.5619357,18.4064563 C10.5619357,18.7695137 10.2932573,19.0638298 9.96182572,19.0638298 L4.56083587,19.0638298 C4.22940428,19.0638298 3.96072589,18.7695137 3.96072589,18.4064563 C3.96072589,18.043399 4.22940428,17.7490829 4.56083587,17.7490829 Z" id="Rectangle-Copy-2" fill="#9EA0A5" opacity="0.647623698"></path>
                        </g>
                        <g id="DOC-Copy-2" transform="translate(145.979647, 40.729763) rotate(30.000000) translate(-145.979647, -40.729763) translate(133.885057, 24.459770)">
                            <g id="Rectangle">
                                <use fill="black" fill-opacity="1" filter="url(#filter-18)" xlink:href="#path-17"></use>
                                <use fill="#D5D6DA" fill-rule="evenodd" xlink:href="#path-17"></use>
                            </g>
                            <g id="Rectangle">
                                <use fill="black" fill-opacity="1" filter="url(#filter-20)" xlink:href="#path-19"></use>
                                <use fill="#D5D6DA" fill-rule="evenodd" xlink:href="#path-19"></use>
                            </g>
                            <g id="Triangle" transform="translate(4.054760, 3.469526) rotate(139.000000) translate(-4.054760, -3.469526) ">
                                <use fill="black" fill-opacity="1" filter="url(#filter-22)" xlink:href="#path-21"></use>
                                <use fill="#9EA0A5" fill-rule="evenodd" xlink:href="#path-21"></use>
                            </g>
                            <ellipse id="Oval" fill="#9EA0A5" opacity="0.683221726" cx="7.00870062" cy="8.82735059" rx="1.98036295" ry="1.97212032"></ellipse>
                            <polygon id="Path" fill="#9EA0A5" opacity="0.683221726" points="3.2572247 20.8621283 9.35616855 13.6310205 12.5273719 17.3911966 14.7375896 14.6640359 19.7602492 20.8621283"></polygon>
                        </g>
                        <g id="Excel" transform="translate(128.284647, 35.662509) rotate(-17.000000) translate(-128.284647, -35.662509) translate(113.287356, 15.448276)">
                            <g id="Rectangle">
                                <use fill="black" fill-opacity="1" filter="url(#filter-24)" xlink:href="#path-23"></use>
                                <use fill="#D5D6DA" fill-rule="evenodd" xlink:href="#path-23"></use>
                            </g>
                            <mask id="mask-26" fill="white">
                                <use xlink:href="#path-25"></use>
                            </mask>
                            <g id="Rectangle">
                                <use fill="black" fill-opacity="1" filter="url(#filter-27)" xlink:href="#path-25"></use>
                                <use fill="#D5D6DA" fill-rule="evenodd" xlink:href="#path-25"></use>
                            </g>
                            <g id="Grid" mask="url(#mask-26)">
                                <g transform="translate(0.391463, 2.037686)">
                                    <path d="M16.0466165,2.30780038 L19.9130393,2.30780038 C20.126576,2.30780038 20.2996816,2.48000662 20.2996816,2.69243377 L20.2996816,4.23096736 C20.2996816,4.44339452 20.126576,4.61560076 19.9130393,4.61560076 L16.0466165,4.61560076 C15.8330798,4.61560076 15.6599742,4.44339452 15.6599742,4.23096736 L15.6599742,2.69243377 C15.6599742,2.48000662 15.8330798,2.30780038 16.0466165,2.30780038 Z" id="Rectangle" fill-opacity="0.786276224" fill="#9EA0A5"></path>
                                    <path d="M3.6740632,2.30780038 L7.54048609,2.30780038 C7.75402273,2.30780038 7.92712838,2.48000662 7.92712838,2.69243377 L7.92712838,4.23096736 C7.92712838,4.44339452 7.75402273,4.61560076 7.54048609,4.61560076 L3.6740632,4.61560076 C3.46052656,4.61560076 3.28742091,4.44339452 3.28742091,4.23096736 L3.28742091,2.69243377 C3.28742091,2.48000662 3.46052656,2.30780038 3.6740632,2.30780038 Z" id="Rectangle-Copy-8" fill-opacity="0.786276224" fill="#9EA0A5"></path>
                                    <path d="M22.2328931,2.30780038 L26.099316,2.30780038 C26.3128526,2.30780038 26.4859583,2.48000662 26.4859583,2.69243377 L26.4859583,4.23096736 C26.4859583,4.44339452 26.3128526,4.61560076 26.099316,4.61560076 L22.2328931,4.61560076 C22.0193564,4.61560076 21.8462508,4.44339452 21.8462508,4.23096736 L21.8462508,2.69243377 C21.8462508,2.48000662 22.0193564,2.30780038 22.2328931,2.30780038 Z" id="Rectangle-Copy-7" fill-opacity="0.786276224" fill="#9EA0A5"></path>
                                    <path d="M9.86033983,2.30780038 L13.7267627,2.30780038 C13.9402994,2.30780038 14.113405,2.48000662 14.113405,2.69243377 L14.113405,4.23096736 C14.113405,4.44339452 13.9402994,4.61560076 13.7267627,4.61560076 L9.86033983,4.61560076 C9.64680319,4.61560076 9.47369754,4.44339452 9.47369754,4.23096736 L9.47369754,2.69243377 C9.47369754,2.48000662 9.64680319,2.30780038 9.86033983,2.30780038 Z" id="Rectangle-Copy-9" fill-opacity="0.786276224" fill="#9EA0A5"></path>
                                    <path d="M16.0466165,6.15413434 L19.9130393,6.15413434 C20.126576,6.15413434 20.2996816,6.32634058 20.2996816,6.53876774 L20.2996816,8.07730132 C20.2996816,8.28972848 20.126576,8.46193472 19.9130393,8.46193472 L16.0466165,8.46193472 C15.8330798,8.46193472 15.6599742,8.28972848 15.6599742,8.07730132 L15.6599742,6.53876774 C15.6599742,6.32634058 15.8330798,6.15413434 16.0466165,6.15413434 Z" id="Rectangle" fill-opacity="0.786276224" fill="#9EA0A5"></path>
                                    <path d="M3.6740632,6.15413434 L7.54048609,6.15413434 C7.75402273,6.15413434 7.92712838,6.32634058 7.92712838,6.53876774 L7.92712838,8.07730132 C7.92712838,8.28972848 7.75402273,8.46193472 7.54048609,8.46193472 L3.6740632,8.46193472 C3.46052656,8.46193472 3.28742091,8.28972848 3.28742091,8.07730132 L3.28742091,6.53876774 C3.28742091,6.32634058 3.46052656,6.15413434 3.6740632,6.15413434 Z" id="Rectangle-Copy-8" fill-opacity="0.786276224" fill="#9EA0A5"></path>
                                    <path d="M22.2328931,6.15413434 L26.099316,6.15413434 C26.3128526,6.15413434 26.4859583,6.32634058 26.4859583,6.53876774 L26.4859583,8.07730132 C26.4859583,8.28972848 26.3128526,8.46193472 26.099316,8.46193472 L22.2328931,8.46193472 C22.0193564,8.46193472 21.8462508,8.28972848 21.8462508,8.07730132 L21.8462508,6.53876774 C21.8462508,6.32634058 22.0193564,6.15413434 22.2328931,6.15413434 Z" id="Rectangle-Copy-7" fill-opacity="0.786276224" fill="#9EA0A5"></path>
                                    <path d="M9.86033983,6.15413434 L13.7267627,6.15413434 C13.9402994,6.15413434 14.113405,6.32634058 14.113405,6.53876774 L14.113405,8.07730132 C14.113405,8.28972848 13.9402994,8.46193472 13.7267627,8.46193472 L9.86033983,8.46193472 C9.64680319,8.46193472 9.47369754,8.28972848 9.47369754,8.07730132 L9.47369754,6.53876774 C9.47369754,6.32634058 9.64680319,6.15413434 9.86033983,6.15413434 Z" id="Rectangle-Copy-9" fill-opacity="0.786276224" fill="#9EA0A5"></path>
                                    <path d="M16.0466165,10.0004683 L19.9130393,10.0004683 C20.126576,10.0004683 20.2996816,10.1726745 20.2996816,10.3851017 L20.2996816,11.9236353 C20.2996816,12.1360624 20.126576,12.3082687 19.9130393,12.3082687 L16.0466165,12.3082687 C15.8330798,12.3082687 15.6599742,12.1360624 15.6599742,11.9236353 L15.6599742,10.3851017 C15.6599742,10.1726745 15.8330798,10.0004683 16.0466165,10.0004683 Z" id="Rectangle" fill-opacity="0.786276224" fill="#9EA0A5"></path>
                                    <path d="M3.6740632,10.0004683 L7.54048609,10.0004683 C7.75402273,10.0004683 7.92712838,10.1726745 7.92712838,10.3851017 L7.92712838,11.9236353 C7.92712838,12.1360624 7.75402273,12.3082687 7.54048609,12.3082687 L3.6740632,12.3082687 C3.46052656,12.3082687 3.28742091,12.1360624 3.28742091,11.9236353 L3.28742091,10.3851017 C3.28742091,10.1726745 3.46052656,10.0004683 3.6740632,10.0004683 Z" id="Rectangle-Copy-8" fill-opacity="0.786276224" fill="#9EA0A5"></path>
                                    <path d="M22.2328931,10.0004683 L26.099316,10.0004683 C26.3128526,10.0004683 26.4859583,10.1726745 26.4859583,10.3851017 L26.4859583,11.9236353 C26.4859583,12.1360624 26.3128526,12.3082687 26.099316,12.3082687 L22.2328931,12.3082687 C22.0193564,12.3082687 21.8462508,12.1360624 21.8462508,11.9236353 L21.8462508,10.3851017 C21.8462508,10.1726745 22.0193564,10.0004683 22.2328931,10.0004683 Z" id="Rectangle-Copy-7" fill-opacity="0.786276224" fill="#9EA0A5"></path>
                                    <path d="M9.86033983,10.0004683 L13.7267627,10.0004683 C13.9402994,10.0004683 14.113405,10.1726745 14.113405,10.3851017 L14.113405,11.9236353 C14.113405,12.1360624 13.9402994,12.3082687 13.7267627,12.3082687 L9.86033983,12.3082687 C9.64680319,12.3082687 9.47369754,12.1360624 9.47369754,11.9236353 L9.47369754,10.3851017 C9.47369754,10.1726745 9.64680319,10.0004683 9.86033983,10.0004683 Z" id="Rectangle-Copy-9" fill-opacity="0.786276224" fill="#9EA0A5"></path>
                                    <path d="M16.0466165,13.8468023 L19.9130393,13.8468023 C20.126576,13.8468023 20.2996816,14.0190085 20.2996816,14.2314357 L20.2996816,15.7699692 C20.2996816,15.9823964 20.126576,16.1546026 19.9130393,16.1546026 L16.0466165,16.1546026 C15.8330798,16.1546026 15.6599742,15.9823964 15.6599742,15.7699692 L15.6599742,14.2314357 C15.6599742,14.0190085 15.8330798,13.8468023 16.0466165,13.8468023 Z" id="Rectangle" fill-opacity="0.786276224" fill="#9EA0A5"></path>
                                    <path d="M3.6740632,13.8468023 L7.54048609,13.8468023 C7.75402273,13.8468023 7.92712838,14.0190085 7.92712838,14.2314357 L7.92712838,15.7699692 C7.92712838,15.9823964 7.75402273,16.1546026 7.54048609,16.1546026 L3.6740632,16.1546026 C3.46052656,16.1546026 3.28742091,15.9823964 3.28742091,15.7699692 L3.28742091,14.2314357 C3.28742091,14.0190085 3.46052656,13.8468023 3.6740632,13.8468023 Z" id="Rectangle-Copy-8" fill-opacity="0.786276224" fill="#9EA0A5"></path>
                                    <path d="M22.2328931,13.8468023 L26.099316,13.8468023 C26.3128526,13.8468023 26.4859583,14.0190085 26.4859583,14.2314357 L26.4859583,15.7699692 C26.4859583,15.9823964 26.3128526,16.1546026 26.099316,16.1546026 L22.2328931,16.1546026 C22.0193564,16.1546026 21.8462508,15.9823964 21.8462508,15.7699692 L21.8462508,14.2314357 C21.8462508,14.0190085 22.0193564,13.8468023 22.2328931,13.8468023 Z" id="Rectangle-Copy-7" fill-opacity="0.786276224" fill="#9EA0A5"></path>
                                    <path d="M9.86033983,13.8468023 L13.7267627,13.8468023 C13.9402994,13.8468023 14.113405,14.0190085 14.113405,14.2314357 L14.113405,15.7699692 C14.113405,15.9823964 13.9402994,16.1546026 13.7267627,16.1546026 L9.86033983,16.1546026 C9.64680319,16.1546026 9.47369754,15.9823964 9.47369754,15.7699692 L9.47369754,14.2314357 C9.47369754,14.0190085 9.64680319,13.8468023 9.86033983,13.8468023 Z" id="Rectangle-Copy-9" fill-opacity="0.786276224" fill="#9EA0A5"></path>
                                    <path d="M16.0466165,17.6931362 L19.9130393,17.6931362 C20.126576,17.6931362 20.2996816,17.8653425 20.2996816,18.0777696 L20.2996816,19.6163032 C20.2996816,19.8287304 20.126576,20.0009366 19.9130393,20.0009366 L16.0466165,20.0009366 C15.8330798,20.0009366 15.6599742,19.8287304 15.6599742,19.6163032 L15.6599742,18.0777696 C15.6599742,17.8653425 15.8330798,17.6931362 16.0466165,17.6931362 Z" id="Rectangle" fill-opacity="0.786276224" fill="#9EA0A5"></path>
                                    <path d="M3.6740632,17.6931362 L7.54048609,17.6931362 C7.75402273,17.6931362 7.92712838,17.8653425 7.92712838,18.0777696 L7.92712838,19.6163032 C7.92712838,19.8287304 7.75402273,20.0009366 7.54048609,20.0009366 L3.6740632,20.0009366 C3.46052656,20.0009366 3.28742091,19.8287304 3.28742091,19.6163032 L3.28742091,18.0777696 C3.28742091,17.8653425 3.46052656,17.6931362 3.6740632,17.6931362 Z" id="Rectangle-Copy-8" fill-opacity="0.786276224" fill="#9EA0A5"></path>
                                    <path d="M22.2328931,17.6931362 L26.099316,17.6931362 C26.3128526,17.6931362 26.4859583,17.8653425 26.4859583,18.0777696 L26.4859583,19.6163032 C26.4859583,19.8287304 26.3128526,20.0009366 26.099316,20.0009366 L22.2328931,20.0009366 C22.0193564,20.0009366 21.8462508,19.8287304 21.8462508,19.6163032 L21.8462508,18.0777696 C21.8462508,17.8653425 22.0193564,17.6931362 22.2328931,17.6931362 Z" id="Rectangle-Copy-7" fill-opacity="0.786276224" fill="#9EA0A5"></path>
                                    <path d="M9.86033983,17.6931362 L13.7267627,17.6931362 C13.9402994,17.6931362 14.113405,17.8653425 14.113405,18.0777696 L14.113405,19.6163032 C14.113405,19.8287304 13.9402994,20.0009366 13.7267627,20.0009366 L9.86033983,20.0009366 C9.64680319,20.0009366 9.47369754,19.8287304 9.47369754,19.6163032 L9.47369754,18.0777696 C9.47369754,17.8653425 9.64680319,17.6931362 9.86033983,17.6931362 Z" id="Rectangle-Copy-9" fill-opacity="0.786276224" fill="#9EA0A5"></path>
                                    <path d="M16.0466165,21.5394702 L19.9130393,21.5394702 C20.126576,21.5394702 20.2996816,21.7116764 20.2996816,21.9241036 L20.2996816,23.4626372 C20.2996816,23.6750643 20.126576,23.8472706 19.9130393,23.8472706 L16.0466165,23.8472706 C15.8330798,23.8472706 15.6599742,23.6750643 15.6599742,23.4626372 L15.6599742,21.9241036 C15.6599742,21.7116764 15.8330798,21.5394702 16.0466165,21.5394702 Z" id="Rectangle" fill-opacity="0.786276224" fill="#9EA0A5"></path>
                                    <path d="M3.6740632,21.5394702 L7.54048609,21.5394702 C7.75402273,21.5394702 7.92712838,21.7116764 7.92712838,21.9241036 L7.92712838,23.4626372 C7.92712838,23.6750643 7.75402273,23.8472706 7.54048609,23.8472706 L3.6740632,23.8472706 C3.46052656,23.8472706 3.28742091,23.6750643 3.28742091,23.4626372 L3.28742091,21.9241036 C3.28742091,21.7116764 3.46052656,21.5394702 3.6740632,21.5394702 Z" id="Rectangle-Copy-8" fill-opacity="0.786276224" fill="#9EA0A5"></path>
                                    <path d="M22.2328931,21.5394702 L26.099316,21.5394702 C26.3128526,21.5394702 26.4859583,21.7116764 26.4859583,21.9241036 L26.4859583,23.4626372 C26.4859583,23.6750643 26.3128526,23.8472706 26.099316,23.8472706 L22.2328931,23.8472706 C22.0193564,23.8472706 21.8462508,23.6750643 21.8462508,23.4626372 L21.8462508,21.9241036 C21.8462508,21.7116764 22.0193564,21.5394702 22.2328931,21.5394702 Z" id="Rectangle-Copy-7" fill-opacity="0.786276224" fill="#9EA0A5"></path>
                                    <path d="M9.86033983,21.5394702 L13.7267627,21.5394702 C13.9402994,21.5394702 14.113405,21.7116764 14.113405,21.9241036 L14.113405,23.4626372 C14.113405,23.6750643 13.9402994,23.8472706 13.7267627,23.8472706 L9.86033983,23.8472706 C9.64680319,23.8472706 9.47369754,23.6750643 9.47369754,23.4626372 L9.47369754,21.9241036 C9.47369754,21.7116764 9.64680319,21.5394702 9.86033983,21.5394702 Z" id="Rectangle-Copy-9" fill-opacity="0.786276224" fill="#9EA0A5"></path>
                                    <path d="M16.0466165,25.3858042 L19.9130393,25.3858042 C20.126576,25.3858042 20.2996816,25.5580104 20.2996816,25.7704376 L20.2996816,27.3089711 C20.2996816,27.5213983 20.126576,27.6936045 19.9130393,27.6936045 L16.0466165,27.6936045 C15.8330798,27.6936045 15.6599742,27.5213983 15.6599742,27.3089711 L15.6599742,25.7704376 C15.6599742,25.5580104 15.8330798,25.3858042 16.0466165,25.3858042 Z" id="Rectangle" fill-opacity="0.786276224" fill="#9EA0A5"></path>
                                    <path d="M3.6740632,25.3858042 L7.54048609,25.3858042 C7.75402273,25.3858042 7.92712838,25.5580104 7.92712838,25.7704376 L7.92712838,27.3089711 C7.92712838,27.5213983 7.75402273,27.6936045 7.54048609,27.6936045 L3.6740632,27.6936045 C3.46052656,27.6936045 3.28742091,27.5213983 3.28742091,27.3089711 L3.28742091,25.7704376 C3.28742091,25.5580104 3.46052656,25.3858042 3.6740632,25.3858042 Z" id="Rectangle-Copy-8" fill-opacity="0.786276224" fill="#9EA0A5"></path>
                                    <path d="M22.2328931,25.3858042 L26.099316,25.3858042 C26.3128526,25.3858042 26.4859583,25.5580104 26.4859583,25.7704376 L26.4859583,27.3089711 C26.4859583,27.5213983 26.3128526,27.6936045 26.099316,27.6936045 L22.2328931,27.6936045 C22.0193564,27.6936045 21.8462508,27.5213983 21.8462508,27.3089711 L21.8462508,25.7704376 C21.8462508,25.5580104 22.0193564,25.3858042 22.2328931,25.3858042 Z" id="Rectangle-Copy-7" fill-opacity="0.786276224" fill="#9EA0A5"></path>
                                    <path d="M9.86033983,25.3858042 L13.7267627,25.3858042 C13.9402994,25.3858042 14.113405,25.5580104 14.113405,25.7704376 L14.113405,27.3089711 C14.113405,27.5213983 13.9402994,27.6936045 13.7267627,27.6936045 L9.86033983,27.6936045 C9.64680319,27.6936045 9.47369754,27.5213983 9.47369754,27.3089711 L9.47369754,25.7704376 C9.47369754,25.5580104 9.64680319,25.3858042 9.86033983,25.3858042 Z" id="Rectangle-Copy-9" fill-opacity="0.786276224" fill="#9EA0A5"></path>
                                    <path d="M16.0466165,29.2321381 L19.9130393,29.2321381 C20.126576,29.2321381 20.2996816,29.4043444 20.2996816,29.6167715 L20.2996816,31.1553051 C20.2996816,31.3677323 20.126576,31.5399385 19.9130393,31.5399385 L16.0466165,31.5399385 C15.8330798,31.5399385 15.6599742,31.3677323 15.6599742,31.1553051 L15.6599742,29.6167715 C15.6599742,29.4043444 15.8330798,29.2321381 16.0466165,29.2321381 Z" id="Rectangle" fill-opacity="0.786276224" fill="#9EA0A5"></path>
                                    <path d="M3.6740632,29.2321381 L7.54048609,29.2321381 C7.75402273,29.2321381 7.92712838,29.4043444 7.92712838,29.6167715 L7.92712838,31.1553051 C7.92712838,31.3677323 7.75402273,31.5399385 7.54048609,31.5399385 L3.6740632,31.5399385 C3.46052656,31.5399385 3.28742091,31.3677323 3.28742091,31.1553051 L3.28742091,29.6167715 C3.28742091,29.4043444 3.46052656,29.2321381 3.6740632,29.2321381 Z" id="Rectangle-Copy-8" fill-opacity="0.786276224" fill="#9EA0A5"></path>
                                    <path d="M22.2328931,29.2321381 L26.099316,29.2321381 C26.3128526,29.2321381 26.4859583,29.4043444 26.4859583,29.6167715 L26.4859583,31.1553051 C26.4859583,31.3677323 26.3128526,31.5399385 26.099316,31.5399385 L22.2328931,31.5399385 C22.0193564,31.5399385 21.8462508,31.3677323 21.8462508,31.1553051 L21.8462508,29.6167715 C21.8462508,29.4043444 22.0193564,29.2321381 22.2328931,29.2321381 Z" id="Rectangle-Copy-7" fill-opacity="0.786276224" fill="#9EA0A5"></path>
                                    <path d="M9.86033983,29.2321381 L13.7267627,29.2321381 C13.9402994,29.2321381 14.113405,29.4043444 14.113405,29.6167715 L14.113405,31.1553051 C14.113405,31.3677323 13.9402994,31.5399385 13.7267627,31.5399385 L9.86033983,31.5399385 C9.64680319,31.5399385 9.47369754,31.3677323 9.47369754,31.1553051 L9.47369754,29.6167715 C9.47369754,29.4043444 9.64680319,29.2321381 9.86033983,29.2321381 Z" id="Rectangle-Copy-9" fill-opacity="0.786276224" fill="#9EA0A5"></path>
                                    <path d="M16.0466165,33.0784721 L19.9130393,33.0784721 C20.126576,33.0784721 20.2996816,33.2506783 20.2996816,33.4631055 L20.2996816,35.0016391 C20.2996816,35.2140662 20.126576,35.3862725 19.9130393,35.3862725 L16.0466165,35.3862725 C15.8330798,35.3862725 15.6599742,35.2140662 15.6599742,35.0016391 L15.6599742,33.4631055 C15.6599742,33.2506783 15.8330798,33.0784721 16.0466165,33.0784721 Z" id="Rectangle" fill-opacity="0.786276224" fill="#9EA0A5"></path>
                                    <path d="M3.6740632,33.0784721 L7.54048609,33.0784721 C7.75402273,33.0784721 7.92712838,33.2506783 7.92712838,33.4631055 L7.92712838,35.0016391 C7.92712838,35.2140662 7.75402273,35.3862725 7.54048609,35.3862725 L3.6740632,35.3862725 C3.46052656,35.3862725 3.28742091,35.2140662 3.28742091,35.0016391 L3.28742091,33.4631055 C3.28742091,33.2506783 3.46052656,33.0784721 3.6740632,33.0784721 Z" id="Rectangle-Copy-8" fill-opacity="0.786276224" fill="#9EA0A5"></path>
                                    <path d="M22.2328931,33.0784721 L26.099316,33.0784721 C26.3128526,33.0784721 26.4859583,33.2506783 26.4859583,33.4631055 L26.4859583,35.0016391 C26.4859583,35.2140662 26.3128526,35.3862725 26.099316,35.3862725 L22.2328931,35.3862725 C22.0193564,35.3862725 21.8462508,35.2140662 21.8462508,35.0016391 L21.8462508,33.4631055 C21.8462508,33.2506783 22.0193564,33.0784721 22.2328931,33.0784721 Z" id="Rectangle-Copy-7" fill-opacity="0.786276224" fill="#9EA0A5"></path>
                                    <path d="M9.86033983,33.0784721 L13.7267627,33.0784721 C13.9402994,33.0784721 14.113405,33.2506783 14.113405,33.4631055 L14.113405,35.0016391 C14.113405,35.2140662 13.9402994,35.3862725 13.7267627,35.3862725 L9.86033983,35.3862725 C9.64680319,35.3862725 9.47369754,35.2140662 9.47369754,35.0016391 L9.47369754,33.4631055 C9.47369754,33.2506783 9.64680319,33.0784721 9.86033983,33.0784721 Z" id="Rectangle-Copy-9" fill-opacity="0.786276224" fill="#9EA0A5"></path>
                                    <polygon id="Rectangle" fill="url(#linearGradient-28)" points="0.475476985 -9.1082925e-14 28.5246176 -9.1082925e-14 28.5246176 37.4702861 0.475476985 37.4702861"></polygon>
                                </g>
                            </g>
                            <polygon id="X" fill="#9EA0A5" fill-rule="nonzero" mask="url(#mask-26)" points="6.83586638 36.495239 9.46475228 33.0141274 12.0936382 36.495239 14.8307723 36.495239 11.0111558 31.8558552 14.5601517 27.2920108 11.9776579 27.2920108 9.58846456 30.6031586 7.15287909 27.2920108 4.50852916 27.2920108 8.01886504 31.7488409 4.26883662 36.495239"></polygon>
                        </g>
                        <g id="Trend" transform="translate(68.229885, 58.574713)">
                            <g id="base">
                                <g id="Path">
                                    <use fill="black" fill-opacity="1" filter="url(#filter-30)" xlink:href="#path-29"></use>
                                    <use fill="#D5D6DA" fill-rule="evenodd" xlink:href="#path-29"></use>
                                </g>
                                <g id="Path">
                                    <use fill="black" fill-opacity="1" filter="url(#filter-32)" xlink:href="#path-31"></use>
                                    <use fill="#D5D6DA" fill-rule="evenodd" xlink:href="#path-31"></use>
                                </g>
                                <path d="M3.30060491,-4.67091923e-15 L44.2281058,-4.67091923e-15 C46.0509795,-4.67091923e-15 47.5287107,1.47158057 47.5287107,3.2868672 L47.5287107,7.80630961 L0,7.80630961 L0,3.2868672 C0,1.47158057 1.47773115,-4.67091923e-15 3.30060491,-4.67091923e-15 Z" id="Path-Copy" fill="#9EA0A5"></path>
                            </g>
                            <g id="lines" transform="translate(5.280968, 13.804842)" fill="#9EA0A5" fill-opacity="0.387155813" fill-rule="nonzero">
                                <path d="M36.4716842,17.5847395 C36.5628279,17.5847395 36.6367145,17.7022648 36.6367145,17.8472395 C36.6367145,17.9715036 36.5824305,18.0756007 36.5095242,18.1028067 L36.4716842,18.1097395 L0,18.1097395 C-0.0911436878,18.1097395 -0.165030245,17.9922143 -0.165030245,17.8472395 C-0.165030245,17.7229755 -0.110746244,17.6188784 -0.0378399211,17.5916724 L0,17.5847395 L36.4716842,17.5847395 Z" id="Line"></path>
                                <path d="M36.4716842,13.2296405 C36.5628279,13.2296405 36.6367145,13.3471658 36.6367145,13.4921405 C36.6367145,13.6164046 36.5824305,13.7205017 36.5095242,13.7477077 L36.4716842,13.7546405 L0,13.7546405 C-0.0911436878,13.7546405 -0.165030245,13.6371152 -0.165030245,13.4921405 C-0.165030245,13.3678764 -0.110746244,13.2637793 -0.0378399211,13.2365733 L0,13.2296405 L36.4716842,13.2296405 Z" id="Line-Copy"></path>
                                <path d="M36.4716842,8.87454145 C36.5628279,8.87454145 36.6367145,8.99206671 36.6367145,9.13704145 C36.6367145,9.26130552 36.5824305,9.36540262 36.5095242,9.39260864 L36.4716842,9.39954145 L0,9.39954145 C-0.0911436878,9.39954145 -0.165030245,9.2820162 -0.165030245,9.13704145 C-0.165030245,9.01277738 -0.110746244,8.90868029 -0.0378399211,8.88147426 L0,8.87454145 L36.4716842,8.87454145 Z" id="Line-Copy-2"></path>
                                <path d="M36.4716842,4.51944241 C36.5628279,4.51944241 36.6367145,4.63696766 36.6367145,4.78194241 C36.6367145,4.90620648 36.5824305,5.01030357 36.5095242,5.03750959 L36.4716842,5.04444241 L0,5.04444241 C-0.0911436878,5.04444241 -0.165030245,4.92691715 -0.165030245,4.78194241 C-0.165030245,4.65767834 -0.110746244,4.55358124 -0.0378399211,4.52637522 L0,4.51944241 L36.4716842,4.51944241 Z" id="Line-Copy-3"></path>
                                <path d="M36.4716842,0.16434336 C36.5628279,0.16434336 36.6367145,0.281868613 36.6367145,0.42684336 C36.6367145,0.551107429 36.5824305,0.655204523 36.5095242,0.682410548 L36.4716842,0.68934336 L0,0.68934336 C-0.0911436878,0.68934336 -0.165030245,0.571818107 -0.165030245,0.42684336 C-0.165030245,0.302579292 -0.110746244,0.198482198 -0.0378399211,0.171276172 L0,0.16434336 L36.4716842,0.16434336 Z" id="Line-Copy-4"></path>
                            </g>
                            <g id="Group" transform="translate(15.182783, 34.183419)">
                                <path d="M2.64048393,0 L6.60120982,0 C6.96578457,0 7.2613308,0.294316115 7.2613308,0.657373441 C7.2613308,1.02043077 6.96578457,1.31474688 6.60120982,1.31474688 L2.64048393,1.31474688 C2.27590918,1.31474688 1.98036295,1.02043077 1.98036295,0.657373441 C1.98036295,0.294316115 2.27590918,0 2.64048393,0 Z" id="Rectangle-Copy-2" fill-opacity="0.35" fill="#67696F"></path>
                                <path d="M12.5422987,0 L16.5030245,0 C16.8675993,0 17.1631455,0.294316115 17.1631455,0.657373441 C17.1631455,1.02043077 16.8675993,1.31474688 16.5030245,1.31474688 L12.5422987,1.31474688 C12.1777239,1.31474688 11.8821777,1.02043077 11.8821777,0.657373441 C11.8821777,0.294316115 12.1777239,0 12.5422987,0 Z" id="Rectangle-Copy-5" fill-opacity="0.35" fill="#67696F"></path>
                                <path d="M0.660120982,0 C1.02469573,0 1.32024196,0.294316115 1.32024196,0.657373441 C1.32024196,1.02043077 1.02469573,1.31474688 0.660120982,1.31474688 C0.29554623,1.31474688 0,1.02043077 0,0.657373441 C0,0.294316115 0.29554623,0 0.660120982,0 Z" id="Rectangle-Copy-4" fill="#DFE0E1" opacity="0.647623698"></path>
                                <path d="M10.5619357,0 C10.9265105,0 11.2220567,0.294316115 11.2220567,0.657373441 C11.2220567,1.02043077 10.9265105,1.31474688 10.5619357,1.31474688 C10.197361,1.31474688 9.90181473,1.02043077 9.90181473,0.657373441 C9.90181473,0.294316115 10.197361,0 10.5619357,0 Z" id="Rectangle-Copy-6" fill="#ACAEB2" opacity="0.647623698"></path>
                            </g>
                            <path d="M38.1219867,23.2710198 C35.7252336,23.2710198 34.0372805,21.4448593 32.4847543,18.0031375 L32.2771164,17.529273 C32.2258151,17.3776908 30.510151,13.013668 30.1133963,12.450862 C29.9390618,12.2035644 29.7953684,12.0956713 29.6912619,12.0956713 C29.1949875,12.0956713 28.6161171,13.1199919 27.7992818,15.301219 L27.0760071,17.2866938 L26.9263861,17.6818652 C26.783236,18.0525092 26.6580833,18.3525632 26.5381882,18.6089564 C26.3445558,19.0230351 26.167871,19.3151298 25.9883514,19.4964357 C25.7344695,19.7528436 25.431121,19.8117334 25.1654822,19.5964709 C24.9362139,19.4106815 24.7284735,19.1944209 24.4693565,18.884461 L24.2917371,18.6674483 C24.2019455,18.5560679 24.0503729,18.3677861 23.9986609,18.3049675 C23.8696917,18.1482986 23.7666644,18.0312807 23.6695173,17.933363 C23.233306,17.4936912 22.9687089,17.4688229 22.5585575,17.9245751 C22.3797911,18.1232168 22.1384619,18.5653676 21.8008545,19.3011072 L21.5534875,19.8548004 C21.27438,20.4951371 20.6086477,22.0430261 20.3906477,22.5321179 L20.1578584,23.0475855 C19.2799892,24.9643723 18.5639593,26.2047688 17.844405,26.909897 C17.3100585,27.4335306 16.7731812,27.6390129 16.2465888,27.4455178 C15.3983618,27.133839 14.8113814,26.5554047 13.7519665,25.1462833 L13.3896836,24.6581816 C12.0497009,22.8421956 11.3528786,22.202788 10.3969055,22.202788 C8.95907039,22.202788 7.29705293,24.6791811 5.52987942,29.650296 C5.48121382,29.7871939 5.33032104,29.8588845 5.19285098,29.8104214 C5.05538091,29.7619584 4.98339068,29.6116936 5.03205628,29.4747957 L5.23304396,28.9186055 C7.005128,24.0962616 8.69091246,21.6768892 10.3969055,21.6768892 C11.5185036,21.6768892 12.2665621,22.2969124 13.5432602,23.9826511 L14.1722894,24.8277667 C15.1667614,26.1499415 15.7107735,26.688077 16.4293998,26.9521344 C16.7278916,27.0618144 17.0701246,26.9308295 17.4739986,26.5350526 C18.1629581,25.8599058 18.8889404,24.5770645 19.7939011,22.57303 L20.0849765,21.9158662 C20.4294595,21.1259625 21.0287517,19.7324312 21.1674936,19.4211773 L21.3271436,19.0679114 C21.6847224,18.2889574 21.9410329,17.8227739 22.1652837,17.5735908 C22.7998589,16.8684632 23.4124993,16.9260427 24.0451853,17.5637479 C24.1336737,17.6529382 24.2235922,17.7528043 24.3268944,17.8752797 L24.7651109,18.4144393 L24.9716197,18.6615346 C25.1660204,18.8868032 25.3285097,19.0505635 25.4988032,19.1885621 C25.5252257,19.2099738 25.531568,19.2087426 25.6123126,19.1271946 C25.7390132,18.9992333 25.8893841,18.7506407 26.0594541,18.3869495 C26.1739068,18.1421948 26.2950785,17.8515466 26.434665,17.4900192 L27.3051618,15.114395 C28.2392668,12.6070146 28.8409459,11.5697726 29.6912619,11.5697726 C30.008701,11.5697726 30.282353,11.7752459 30.5456186,12.1486944 C30.9935468,12.7840911 32.8241124,17.4504635 32.7655179,17.3307672 L32.8641009,17.5578344 L33.0744248,18.0235682 C34.4808825,21.0572787 35.9799772,22.6655961 37.9716792,22.7422459 L38.1219867,22.7451211 L42.5171671,22.7451211 L42.5171671,23.2710198 L38.1219867,23.2710198 Z" id="Path-11" fill="#7B7D82" fill-rule="nonzero"></path>
                            <path d="M30.8010227,22.4455254 L30.8480303,22.1862886 C31.6770396,17.5204084 34.3151991,16.7561759 35.1390708,20.4988389 L35.1710494,20.6509506 C35.6992041,23.2840364 37.1770265,25.2303856 38.8063334,26.3285125 C39.4016138,26.7297221 40.5535999,26.9406998 42.2477428,26.9406998 C42.3935727,26.9406998 42.5117912,27.0584263 42.5117912,27.2036492 C42.5117912,27.3488721 42.3935727,27.4665986 42.2477428,27.4665986 C40.4564814,27.4665986 39.2155289,27.2393273 38.5103366,26.764039 C36.8299751,25.631502 35.3121032,23.667263 34.7102835,21.0208709 L34.653183,20.7539634 C34.0165871,17.5802499 32.178622,18.0212734 31.4030815,22.0876618 L31.3680499,22.2779155 C30.4290457,27.5628756 28.8583916,29.8303183 25.5938703,29.8303183 C23.5618203,29.8303183 22.2974303,29.0363494 21.2786731,27.5364046 L21.1848765,27.3929471 C20.9510649,27.0265271 20.541919,26.3400916 20.4151423,26.1400729 L19.9709334,25.4740752 C19.9243731,25.4058176 19.8804573,25.3423792 19.8366344,25.2801358 C18.8830958,23.9257872 18.0005677,23.2758429 16.7094735,23.2758429 C15.8035491,23.2758429 15.0130987,24.0676205 13.6045294,26.1275084 L12.7080484,27.4407515 C12.4741218,27.7747888 12.327756,27.9669149 12.1210263,28.2228362 C11.8835066,28.5168741 11.6600011,28.7604882 11.4412581,28.9591825 C10.2487329,30.0424081 8.20870389,30.7849155 5.31888788,31.2025239 C5.1745696,31.2233794 5.04059915,31.1237799 5.0196565,30.9800623 C4.99871384,30.8363447 5.09872955,30.7029319 5.24304783,30.6820764 C8.03796508,30.2781819 9.98616701,29.5690967 11.0853704,28.5706397 C11.242651,28.4277744 11.405837,28.2556199 11.5783523,28.0519254 L11.8400686,27.7296219 C12.0761893,27.4292521 12.2721995,27.1512924 12.751019,26.4461477 L13.032708,26.0304549 C14.6440236,23.6493901 15.5107766,22.7499441 16.7094735,22.7499441 C18.2112707,22.7499441 19.2267188,23.4977783 20.2690392,24.9782271 L20.4812165,25.2869339 L20.832288,25.8138738 C20.9339897,25.9657437 21.4493369,26.8339284 21.6750376,27.1799035 L21.7161074,27.2417688 C22.6435484,28.6072662 23.7537603,29.3044196 25.5938703,29.3044196 C28.4746964,29.3044196 29.8988176,27.3202203 30.8010227,22.4455254 Z" id="Path-12" fill-opacity="0.851207386" fill="#9EA0A5" fill-rule="nonzero"></path>
                        </g>
                        <g id="Pages" transform="translate(15.517241, 10.942529)">
                            <g id="Rectangle-Copy-11">
                                <use fill="black" fill-opacity="1" filter="url(#filter-34)" xlink:href="#path-33"></use>
                                <use fill="#CCCED3" fill-rule="evenodd" xlink:href="#path-33"></use>
                            </g>
                            <g id="Rectangle-Copy-11">
                                <use fill="black" fill-opacity="1" filter="url(#filter-36)" xlink:href="#path-35"></use>
                                <use fill="#CCCED3" fill-rule="evenodd" xlink:href="#path-35"></use>
                            </g>
                        </g>
                        <g id="doc" transform="translate(116.505747, 42.482759)">
                            <g id="Rectangle-Copy-11">
                                <use fill="black" fill-opacity="1" filter="url(#filter-38)" xlink:href="#path-37"></use>
                                <use fill="#D5D6DA" fill-rule="evenodd" xlink:href="#path-37"></use>
                            </g>
                            <g id="Rectangle-Copy-12" transform="translate(28.024132, 14.394039) scale(-1, -1) rotate(27.000000) translate(-28.024132, -14.394039) ">
                                <use fill="black" fill-opacity="1" filter="url(#filter-40)" xlink:href="#path-39"></use>
                                <use fill="#B0B2B6" fill-rule="evenodd" xlink:href="#path-39"></use>
                            </g>
                        </g>
                    </g>
                </g>
            </g>
        </g>
    </g>
</svg>
