<?xml version="1.0" encoding="UTF-8"?>
<svg width="174px" height="112px" viewBox="0 0 174 112" version="1.1" xmlns="http://www.w3.org/2000/svg" xmlns:xlink="http://www.w3.org/1999/xlink">
    <defs>
        <path d="M13.5123199,1.7930853 L26.1269304,12.9545041 C26.5811588,14.3780139 25.8530217,16.7952621 23.942519,20.2062487 C22.0792076,23.5329808 18.949934,25.8011222 14.5546982,27.010673 C14.3461425,27.0680443 14.1227103,27.0168481 13.9599561,26.8743772 L1.70699859,16.1484479 C1.65337207,16.1016644 1.64796225,16.0202569 1.6948362,15.9667096 C1.71698054,15.9414126 1.74813492,15.9257722 1.7816507,15.9231262 C5.45954196,15.6327615 8.47389447,13.7253689 10.8247082,10.2009484 C13.2409534,6.57843091 14.136824,3.77580988 13.5123199,1.7930853 Z" id="path-1"></path>
        <filter x="-16.3%" y="-7.9%" width="132.5%" height="131.7%" filterUnits="objectBoundingBox" id="filter-2">
            <feOffset dx="0" dy="2" in="SourceAlpha" result="shadowOffsetOuter1"></feOffset>
            <feGaussianBlur stdDeviation="1" in="shadowOffsetOuter1" result="shadowBlurOuter1"></feGaussianBlur>
            <feColorMatrix values="0 0 0 0 0   0 0 0 0 0   0 0 0 0 0  0 0 0 0.05 0" type="matrix" in="shadowBlurOuter1"></feColorMatrix>
        </filter>
        <path d="M13.7926416,6.1798023 L25.9798827,11.6720375 L25.9798827,11.6720375 C26.2630528,11.9062774 26.5026573,12.2157714 26.6986963,12.6005195 C26.8947353,12.9852677 26.8871968,13.5092139 26.6760807,14.1723581 L10.5252285,9.98318505 C12.4847907,10.0361573 13.1554403,9.14791797 12.5371775,7.31846715 C12.5371775,7.31846715 12.5371775,7.31846715 12.5371775,7.31846715 C12.3737355,6.83483949 12.6332973,6.31028593 13.116925,6.14684398 C13.3382361,6.0720519 13.5796584,6.08383037 13.7926416,6.1798023 Z" id="path-3"></path>
        <filter x="-27.6%" y="-26.5%" width="142.9%" height="164.7%" filterUnits="objectBoundingBox" id="filter-4">
            <feOffset dx="-1" dy="0" in="SourceAlpha" result="shadowOffsetOuter1"></feOffset>
            <feGaussianBlur stdDeviation="1" in="shadowOffsetOuter1" result="shadowBlurOuter1"></feGaussianBlur>
            <feColorMatrix values="0 0 0 0 0   0 0 0 0 0   0 0 0 0 0  0 0 0 0.07 0" type="matrix" in="shadowBlurOuter1"></feColorMatrix>
        </filter>
        <path d="M1.30823272,1.16122723 L20.1220258,1.16122723 C20.4368916,1.16122723 20.6921408,1.41412386 20.6921408,1.72608766 L20.6921408,28.2745277 C20.6921408,28.5864915 20.4368916,28.8393881 20.1220258,28.8393881 L1.30823272,28.8393881 C0.993366935,28.8393881 0.738117781,28.5864915 0.738117781,28.2745277 L0.738117781,1.72608766 C0.738117781,1.41412386 0.993366935,1.16122723 1.30823272,1.16122723 Z" id="path-5"></path>
        <filter x="-77.7%" y="-41.5%" width="255.4%" height="212.0%" filterUnits="objectBoundingBox" id="filter-6">
            <feOffset dx="0" dy="4" in="SourceAlpha" result="shadowOffsetOuter1"></feOffset>
            <feGaussianBlur stdDeviation="4.5" in="shadowOffsetOuter1" result="shadowBlurOuter1"></feGaussianBlur>
            <feColorMatrix values="0 0 0 0 0   0 0 0 0 0   0 0 0 0 0  0 0 0 0.07 0" type="matrix" in="shadowBlurOuter1"></feColorMatrix>
        </filter>
        <linearGradient x1="50%" y1="1.00031672%" x2="50%" y2="99.3243243%" id="linearGradient-7">
            <stop stop-color="#FFFFFF" stop-opacity="0" offset="0%"></stop>
            <stop stop-color="#FFFFFF" offset="100%"></stop>
        </linearGradient>
        <linearGradient x1="50%" y1="0%" x2="50%" y2="100%" id="linearGradient-8">
            <stop stop-color="#FFFFFF" offset="0%"></stop>
            <stop stop-color="#FFFFFF" offset="100%"></stop>
        </linearGradient>
        <path d="M72.8858198,42.4827586 L88.4519387,42.4827586 C89.0042407,42.4827274 89.4519699,42.9304566 89.4519699,43.4827586 C89.4519699,43.6366162 89.4164689,43.788399 89.3482295,43.9262958 C87.6021852,47.4546656 86.729163,51.0985137 86.729163,54.8578401 C86.729163,58.5881718 87.5887703,62.1310725 89.3079849,65.4865421 C89.5598154,65.978066 89.3655128,66.5806761 88.873992,66.8325126 C88.7328678,66.9048193 88.5765713,66.9425287 88.4180017,66.9425287 L72.8188561,66.9425287 C72.466973,66.9424826 72.1409891,66.7575292 71.9604857,66.4554693 C69.9025374,63.0116357 68.8735632,59.3434419 68.8735632,55.4508879 C68.8735632,51.5443264 69.9099563,47.4117871 71.9827424,43.05327 C72.1484818,42.7047893 72.4999334,42.4827586 72.8858198,42.4827586 Z" id="path-9"></path>
        <filter x="-56.5%" y="-32.7%" width="191.0%" height="181.8%" filterUnits="objectBoundingBox" id="filter-10">
            <feOffset dx="-2" dy="2" in="SourceAlpha" result="shadowOffsetOuter1"></feOffset>
            <feGaussianBlur stdDeviation="3" in="shadowOffsetOuter1" result="shadowBlurOuter1"></feGaussianBlur>
            <feColorMatrix values="0 0 0 0 0   0 0 0 0 0   0 0 0 0 0  0 0 0 0.05 0" type="matrix" in="shadowBlurOuter1"></feColorMatrix>
        </filter>
        <path d="M3.65875796,0 L38.9805223,0 C40.5537217,0 41.8290517,1.27204422 41.8290517,2.8411903 C41.8290517,4.62482643 41.8290517,5.92703864 41.8290517,6.74782695 C41.8290517,12.1145197 41.8290517,20.0935291 41.8290517,30.6848552 C41.8290517,32.2540013 40.5537217,33.5260455 38.9805223,33.5260455 L3.65875796,33.5260455 C2.08555862,33.5260455 0.810228577,32.2540013 0.810228577,30.6848552 C0.810228577,19.9988228 0.810228577,12.0198134 0.810228577,6.74782695 C0.810228577,5.8323323 0.810228577,4.53012008 0.810228577,2.8411903 C0.810228577,1.27204422 2.08555862,0 3.65875796,0 Z" id="path-11"></path>
        <filter x="-37.8%" y="-34.3%" width="175.6%" height="192.5%" filterUnits="objectBoundingBox" id="filter-12">
            <feOffset dx="0" dy="4" in="SourceAlpha" result="shadowOffsetOuter1"></feOffset>
            <feGaussianBlur stdDeviation="4.5" in="shadowOffsetOuter1" result="shadowBlurOuter1"></feGaussianBlur>
            <feColorMatrix values="0 0 0 0 0   0 0 0 0 0   0 0 0 0 0  0 0 0 0.07 0" type="matrix" in="shadowBlurOuter1"></feColorMatrix>
        </filter>
        <path d="M2.84852939,0 L38.1702938,0 C39.7434931,0 41.0188231,1.27204422 41.0188231,2.8411903 C41.0188231,4.62482643 41.0188231,5.92703864 41.0188231,6.74782695 C41.0188231,12.1145197 41.0188231,20.0935291 41.0188231,30.6848552 C41.0188231,32.2540013 39.7434931,33.5260455 38.1702938,33.5260455 L2.84852939,33.5260455 C1.27533005,33.5260455 0,32.2540013 0,30.6848552 C0,19.9988228 0,12.0198134 0,6.74782695 C0,5.8323323 0,4.53012008 0,2.8411903 C0,1.27204422 1.27533005,0 2.84852939,0 Z" id="path-13"></path>
        <filter x="-37.8%" y="-34.3%" width="175.6%" height="192.5%" filterUnits="objectBoundingBox" id="filter-14">
            <feOffset dx="0" dy="4" in="SourceAlpha" result="shadowOffsetOuter1"></feOffset>
            <feGaussianBlur stdDeviation="4.5" in="shadowOffsetOuter1" result="shadowBlurOuter1"></feGaussianBlur>
            <feColorMatrix values="0 0 0 0 0   0 0 0 0 0   0 0 0 0 0  0 0 0 0.07 0" type="matrix" in="shadowBlurOuter1"></feColorMatrix>
        </filter>
        <path d="M4.65848604,0.720633723 L20.6789203,0.720633723 C21.7834898,0.720633723 22.6789203,1.61606422 22.6789203,2.72063372 L22.6789203,28.9735073 C22.6789203,30.0780768 21.7834898,30.9735073 20.6789203,30.9735073 L2.7938628,30.9735073 C1.6892933,30.9735073 0.793862798,30.0780768 0.793862798,28.9735073 L0.793862798,4.15046532 L0.793862798,4.15046532 L4.65848604,0.720633723 Z" id="path-15"></path>
        <filter x="-70.8%" y="-38.0%" width="241.6%" height="202.5%" filterUnits="objectBoundingBox" id="filter-17">
            <feOffset dx="0" dy="4" in="SourceAlpha" result="shadowOffsetOuter1"></feOffset>
            <feGaussianBlur stdDeviation="4.5" in="shadowOffsetOuter1" result="shadowBlurOuter1"></feGaussianBlur>
            <feColorMatrix values="0 0 0 0 0   0 0 0 0 0   0 0 0 0 0  0 0 0 0.07 0" type="matrix" in="shadowBlurOuter1"></feColorMatrix>
        </filter>
        <path d="M4.33434346,3.25089405 L5.74715076,4.4790287 L5.74715076,4.4790287 L0.518307926,4.50758375 L1.56275089,3.39285786 C2.2981465,2.60797582 3.52260199,2.54525796 4.33434346,3.25089405 Z" id="path-18"></path>
        <filter x="-9.6%" y="-28.8%" width="119.1%" height="148.7%" filterUnits="objectBoundingBox" id="filter-19">
            <feOffset dx="0" dy="-1" in="SourceAlpha" result="shadowOffsetOuter1"></feOffset>
            <feColorMatrix values="0 0 0 0 0   0 0 0 0 0   0 0 0 0 0  0 0 0 0.02 0" type="matrix" in="shadowOffsetOuter1"></feColorMatrix>
        </filter>
        <path d="M1.04163833,1.33749369 L25.9243969,1.33749369 C26.3408323,1.33749369 26.6784199,1.67861008 26.6784199,2.09939846 L26.6784199,37.9089223 C26.6784199,38.3297106 26.3408323,38.670827 25.9243969,38.670827 L1.04163833,38.670827 C0.625202928,38.670827 0.287615337,38.3297106 0.287615337,37.9089223 L0.287615337,2.09939846 C0.287615337,1.67861008 0.625202928,1.33749369 1.04163833,1.33749369 Z" id="path-20"></path>
        <filter x="-58.7%" y="-30.8%" width="217.5%" height="183.0%" filterUnits="objectBoundingBox" id="filter-21">
            <feOffset dx="0" dy="4" in="SourceAlpha" result="shadowOffsetOuter1"></feOffset>
            <feGaussianBlur stdDeviation="4.5" in="shadowOffsetOuter1" result="shadowBlurOuter1"></feGaussianBlur>
            <feColorMatrix values="0 0 0 0 0   0 0 0 0 0   0 0 0 0 0  0 0 0 0.07 0" type="matrix" in="shadowBlurOuter1"></feColorMatrix>
        </filter>
        <linearGradient x1="50%" y1="1.00031672%" x2="50%" y2="99.3243243%" id="linearGradient-22">
            <stop stop-color="#FFFFFF" stop-opacity="0" offset="0%"></stop>
            <stop stop-color="#FFFFFF" offset="100%"></stop>
        </linearGradient>
        <path d="M4.28169573,0 L45.1224858,0 C46.9414975,0 48.4160979,1.47158057 48.4160979,3.2868672 C48.4160979,5.35028939 48.4160979,6.8567702 48.4160979,7.80630961 C48.4160979,14.0148366 48.4160979,23.2454553 48.4160979,35.4981658 C48.4160979,37.3134524 46.9414975,38.785033 45.1224858,38.785033 L4.28169573,38.785033 C2.462684,38.785033 0.988083631,37.3134524 0.988083631,35.4981658 C0.988083631,23.135893 0.988083631,13.9052743 0.988083631,7.80630961 C0.988083631,6.74720796 0.988083631,5.24072715 0.988083631,3.2868672 C0.988083631,1.47158057 2.462684,0 4.28169573,0 Z" id="path-23"></path>
        <filter x="-32.7%" y="-29.7%" width="165.4%" height="179.9%" filterUnits="objectBoundingBox" id="filter-24">
            <feOffset dx="0" dy="4" in="SourceAlpha" result="shadowOffsetOuter1"></feOffset>
            <feGaussianBlur stdDeviation="4.5" in="shadowOffsetOuter1" result="shadowBlurOuter1"></feGaussianBlur>
            <feColorMatrix values="0 0 0 0 0   0 0 0 0 0   0 0 0 0 0  0 0 0 0.07 0" type="matrix" in="shadowBlurOuter1"></feColorMatrix>
        </filter>
        <path d="M3.2936121,0 L44.1344022,0 C45.9534139,0 47.4280143,1.47158057 47.4280143,3.2868672 C47.4280143,5.35028939 47.4280143,6.8567702 47.4280143,7.80630961 C47.4280143,14.0148366 47.4280143,23.2454553 47.4280143,35.4981658 C47.4280143,37.3134524 45.9534139,38.785033 44.1344022,38.785033 L3.2936121,38.785033 C1.47460037,38.785033 0,37.3134524 0,35.4981658 C0,23.135893 0,13.9052743 0,7.80630961 C0,6.74720796 0,5.24072715 0,3.2868672 C0,1.47158057 1.47460037,0 3.2936121,0 Z" id="path-25"></path>
        <filter x="-32.7%" y="-29.7%" width="165.4%" height="179.9%" filterUnits="objectBoundingBox" id="filter-26">
            <feOffset dx="0" dy="4" in="SourceAlpha" result="shadowOffsetOuter1"></feOffset>
            <feGaussianBlur stdDeviation="4.5" in="shadowOffsetOuter1" result="shadowBlurOuter1"></feGaussianBlur>
            <feColorMatrix values="0 0 0 0 0   0 0 0 0 0   0 0 0 0 0  0 0 0 0.07 0" type="matrix" in="shadowBlurOuter1"></feColorMatrix>
        </filter>
        <linearGradient x1="50%" y1="0%" x2="50%" y2="100%" id="linearGradient-27">
            <stop stop-color="#FFFFFF" offset="0%"></stop>
            <stop stop-color="#FFFFFF" offset="100%"></stop>
        </linearGradient>
        <path d="M2.76097299,18.5256744 L13.8831534,1.39901847 C14.0767808,1.10089827 14.4754158,1.01616579 14.7735478,1.20977498 C14.860663,1.26634826 14.9327923,1.34316468 14.9837763,1.43366455 C17.5566123,6.00061163 20.9272311,9.63758105 25.0956329,12.3445728 C29.2470664,15.0405452 33.8316321,16.5814983 38.8493301,16.9674321 C39.2037579,16.9947231 39.468981,17.3041447 39.4417201,17.6585748 C39.4334638,17.7659193 39.3984129,17.869478 39.3397762,17.9597705 L28.2070569,35.1026551 C28.0844357,35.2914325 27.8721137,35.4024553 27.6471171,35.3957389 C22.550525,35.2361443 17.9289655,33.8101115 13.7824384,31.1173253 C9.6287884,28.4199135 5.95180435,24.4513925 2.75148625,19.2117622 C2.62233341,19.0003023 2.62602143,18.7334816 2.76097299,18.5256744 Z" id="path-28"></path>
        <filter x="-32.6%" y="-23.3%" width="154.4%" height="158.3%" filterUnits="objectBoundingBox" id="filter-29">
            <feOffset dx="-2" dy="2" in="SourceAlpha" result="shadowOffsetOuter1"></feOffset>
            <feGaussianBlur stdDeviation="3" in="shadowOffsetOuter1" result="shadowBlurOuter1"></feGaussianBlur>
            <feColorMatrix values="0 0 0 0 0   0 0 0 0 0   0 0 0 0 0  0 0 0 0.05 0" type="matrix" in="shadowBlurOuter1"></feColorMatrix>
        </filter>
        <linearGradient x1="50%" y1="0%" x2="50%" y2="100%" id="linearGradient-30">
            <stop stop-color="#FFFFFF" offset="0%"></stop>
            <stop stop-color="#FFFFFF" offset="100%"></stop>
        </linearGradient>
        <path d="M5.18071341,10.7762281 L22.8659878,0.56563014 C23.1738548,0.387908086 23.5675089,0.493387392 23.7452497,0.801243539 C23.7971862,0.891200181 23.82658,0.992390145 23.830921,1.09617238 C24.049984,6.33339511 25.4020779,11.1041875 27.8872025,15.4085497 C30.3622109,19.69539 33.7475108,23.1497386 38.0431022,25.7715953 C38.3465098,25.9568186 38.4423509,26.3529241 38.2571534,26.6563474 C38.2010636,26.7482437 38.1228183,26.8246025 38.0295807,26.8784332 L20.3275484,37.0987063 C20.1325889,37.2112394 19.8930054,37.2137693 19.6957243,37.1053578 C15.2269388,34.6496344 11.7565044,31.2808857 9.28442107,26.9991118 C6.80809118,22.7099826 5.33354525,17.5046886 4.86078329,11.3832299 C4.84170806,11.1361836 4.9661282,10.9001189 5.18071341,10.7762281 Z" id="path-31"></path>
        <filter x="-35.8%" y="-21.8%" width="159.7%" height="154.5%" filterUnits="objectBoundingBox" id="filter-32">
            <feOffset dx="-2" dy="2" in="SourceAlpha" result="shadowOffsetOuter1"></feOffset>
            <feGaussianBlur stdDeviation="3" in="shadowOffsetOuter1" result="shadowBlurOuter1"></feGaussianBlur>
            <feColorMatrix values="0 0 0 0 0   0 0 0 0 0   0 0 0 0 0  0 0 0 0.05 0" type="matrix" in="shadowBlurOuter1"></feColorMatrix>
        </filter>
        <path d="M20.2684798,2.68962795 L39.1903956,19.4317562 C39.8717382,21.5670208 38.7795325,25.1928931 35.9137785,30.3093731 C33.1433428,35.2556732 28.5071514,38.6418387 22.0052044,40.4678696 C21.586394,40.5854876 21.1365106,40.4836439 20.8091909,40.1971164 L3.33421569,24.8999648 C3.06673974,24.66581 3.03971632,24.2591587 3.27386369,23.9916762 C3.37628423,23.8746743 3.51759758,23.7987042 3.67168444,23.7778078 C8.73764261,23.0907896 12.9261019,20.2653278 16.2370624,15.3014226 C19.8614301,9.86764637 21.2052359,5.66371482 20.2684798,2.68962795 Z" id="path-33"></path>
        <filter x="-42.7%" y="-30.4%" width="185.5%" height="182.0%" filterUnits="objectBoundingBox" id="filter-34">
            <feOffset dx="0" dy="4" in="SourceAlpha" result="shadowOffsetOuter1"></feOffset>
            <feGaussianBlur stdDeviation="4.5" in="shadowOffsetOuter1" result="shadowBlurOuter1"></feGaussianBlur>
            <feColorMatrix values="0 0 0 0 0   0 0 0 0 0   0 0 0 0 0  0 0 0 0.05 0" type="matrix" in="shadowBlurOuter1"></feColorMatrix>
        </filter>
        <path d="M19.8718906,8.90148636 L38.9698241,17.5080563 L38.9698241,17.5080563 C39.3945792,17.859416 39.753986,18.323657 40.0480444,18.9007793 C40.3421029,19.4779015 40.3307951,20.2638208 40.0141211,21.2585371 L15.7878428,14.9747776 C18.727186,15.0542359 19.7331605,13.7218769 18.8057662,10.9777007 C18.7058469,10.6820378 18.61015,10.4053885 18.5186755,10.147753 C18.333913,9.62730425 18.6060162,9.05560597 19.1264572,8.87082135 C19.3695869,8.7844972 19.6366726,8.79548435 19.8718906,8.90148636 Z" id="path-35"></path>
        <filter x="-30.6%" y="-38.0%" width="144.9%" height="170.8%" filterUnits="objectBoundingBox" id="filter-36">
            <feOffset dx="-2" dy="-1" in="SourceAlpha" result="shadowOffsetOuter1"></feOffset>
            <feGaussianBlur stdDeviation="1.5" in="shadowOffsetOuter1" result="shadowBlurOuter1"></feGaussianBlur>
            <feColorMatrix values="0 0 0 0 0   0 0 0 0 0   0 0 0 0 0  0 0 0 0.07 0" type="matrix" in="shadowBlurOuter1"></feColorMatrix>
        </filter>
    </defs>
    <g id="In-App-generic-empty-states" stroke="none" stroke-width="1" fill="none" fill-rule="evenodd">
        <g id="Generic-Empty-State_Too-much-data-" transform="translate(-81.000000, -340.000000)">
            <g id="Bright" transform="translate(81.000000, 71.000000)">
                <g id="Too-much-data_S" transform="translate(0.000000, 229.000000)">
                    <g id="Too-much-data_S-drawing" transform="translate(0.000000, 41.000000)">
                        <path d="M42.8307403,12.8856668 C73.9784429,13.8145175 106.714217,11.3371617 136.483276,18.6206244 C159.599714,24.2764199 149.448793,77.3653025 143.795518,91.4229637 C138.142243,105.480625 115.97498,94.3468972 87.4479315,94.3468972 C58.9208828,94.3468972 42.8307403,106.843709 29.6873228,91.4229637 C10.6692903,64.7203752 11.6830377,11.9568161 42.8307403,12.8856668 Z" id="Rectangle" fill="#CCCED3" opacity="0.08"></path>
                        <path d="M55.918535,12.0415403 C80.6915023,8.94647248 126.275655,22.023807 153.98689,39.3079325 C175.505374,52.7294989 141.18119,86.1967288 128.854016,95.7865058 C116.526842,105.376283 96.7106891,103.345156 65.1748538,96.7557767 C33.6390185,90.1663974 12.9296136,90.36885 6.27894598,72.5630935 C-1.33604817,43.1396884 31.1455676,15.1366082 55.918535,12.0415403 Z" id="Rectangle-Copy" fill="#F1F2F5" opacity="0.22"></path>
                        <g id="Decorations" transform="translate(0.000000, 10.298851)">
                            <circle id="Oval" fill="#CCCED3" cx="166.390805" cy="54.3908046" r="1.6091954"></circle>
                            <circle id="Oval-Copy-2" fill="#CCCED3" cx="91.7241379" cy="49.5237478" r="1"></circle>
                            <path d="M109.281609,12.8735632 L109.528736,12.8735632 C109.804878,12.8735632 110.028736,13.0974208 110.028736,13.3735632 L110.028736,25.2471264 C110.028736,25.5232688 109.804878,25.7471264 109.528736,25.7471264 L109.281609,25.7471264 C109.005467,25.7471264 108.781609,25.5232688 108.781609,25.2471264 L108.781609,13.3735632 C108.781609,13.0974208 109.005467,12.8735632 109.281609,12.8735632 Z" id="Rectangle-Copy-6" fill="#CCCED3" opacity="0.339076451" transform="translate(109.405172, 19.310345) scale(-1, 1) rotate(18.000000) translate(-109.405172, -19.310345) "></path>
                            <rect id="Rectangle-Copy-5" fill="#CCCED3" opacity="0.339076451" x="118.436782" y="72.7356322" width="1.28735632" height="10.2988506" rx="0.5"></rect>
                            <circle id="Oval-Copy-3" fill="#CCCED3" cx="0.643678161" cy="24.7421386" r="1"></circle>
                            <circle id="Oval-Copy-4" fill="#CCCED3" cx="130.666667" cy="61.7931034" r="1"></circle>
                            <circle id="Oval-Copy" fill="#CCCED3" cx="46.3448276" cy="70.8045977" r="1.93103448"></circle>
                            <g id="corner-llines" opacity="0.34" transform="translate(11.264368, 8.689655) rotate(-13.000000) translate(-11.264368, -8.689655) translate(3.862069, 1.931034)" fill="#CCCED3">
                                <path d="M12.9975415,0.897914815 L13.2848978,0.897914815 C13.5610402,0.897914815 13.7848978,1.12177244 13.7848978,1.39791482 L13.7848978,8.12205275 C13.7848978,8.39819512 13.5610402,8.62205275 13.2848978,8.62205275 L12.9975415,8.62205275 C12.7213991,8.62205275 12.4975415,8.39819512 12.4975415,8.12205275 L12.4975415,1.39791482 C12.4975415,1.12177244 12.7213991,0.897914815 12.9975415,0.897914815 Z" id="Rectangle-Copy" transform="translate(13.141220, 4.759984) rotate(-12.000000) translate(-13.141220, -4.759984) "></path>
                                <path d="M6.68618693,-1.28735632 L6.97354325,-1.28735632 C7.24968562,-1.28735632 7.47354325,-1.0634987 7.47354325,-0.787356322 L7.47354325,11.0862069 C7.47354325,11.3623493 7.24968562,11.5862069 6.97354325,11.5862069 L6.68618693,11.5862069 C6.41004455,11.5862069 6.18618693,11.3623493 6.18618693,11.0862069 L6.18618693,-0.787356322 C6.18618693,-1.0634987 6.41004455,-1.28735632 6.68618693,-1.28735632 Z" id="Rectangle-Copy-2" transform="translate(6.829865, 5.149425) rotate(-44.000000) translate(-6.829865, -5.149425) "></path>
                                <path d="M5.00574713,6.07547193 L5.29310345,6.07547193 C5.56924582,6.07547193 5.79310345,6.29932955 5.79310345,6.57547193 L5.79310345,15.8743225 C5.79310345,16.1504649 5.56924582,16.3743225 5.29310345,16.3743225 L5.00574713,16.3743225 C4.72960475,16.3743225 4.50574713,16.1504649 4.50574713,15.8743225 L4.50574713,6.57547193 C4.50574713,6.29932955 4.72960475,6.07547193 5.00574713,6.07547193 Z" id="Rectangle-Copy-4" transform="translate(5.149425, 11.224897) rotate(-75.000000) translate(-5.149425, -11.224897) "></path>
                            </g>
                            <path d="M10.4873795,71.6368048 C10.7194152,71.4047692 11.0845294,71.3869203 11.3370387,71.5832581 L11.3976779,71.6368048 L13.217931,73.4565517 L15.0388715,71.6368048 C15.2902434,71.3854329 15.6977979,71.3854329 15.9491699,71.6368048 C16.2005418,71.8881768 16.2005418,72.2957313 15.9491699,72.5471032 L14.1287356,74.3673563 L15.9491699,76.1882968 C16.1812055,76.4203324 16.1990544,76.7854467 16.0027165,77.0379559 L15.9491699,77.0985951 C15.7171342,77.3306308 15.35202,77.3484797 15.0995107,77.1521418 L15.0388715,77.0985951 L13.217931,75.2781609 L11.3976779,77.0985951 C11.146306,77.3499671 10.7387515,77.3499671 10.4873795,77.0985951 C10.2360076,76.8472232 10.2360076,76.4396687 10.4873795,76.1882968 L12.3071264,74.3673563 L10.4873795,72.5471032 C10.2553439,72.3150676 10.237495,71.9499533 10.4338329,71.697444 L10.4873795,71.6368048 Z" id="Path" fill="#CCCED3"></path>
                            <path d="M156.974337,43.209571 C157.085183,43.3204166 157.085183,43.5001328 156.974337,43.6109783 L156.171126,44.4137931 L156.974337,45.2166079 C157.071327,45.3135977 157.083451,45.4633167 157.010708,45.5734889 L156.974337,45.6180152 C156.877347,45.7150051 156.727628,45.7271289 156.617456,45.6543864 L156.57293,45.6180152 L155.770115,44.8148046 L154.9673,45.6180152 C154.856455,45.7288608 154.676738,45.7288608 154.565893,45.6180152 C154.455047,45.5071696 154.455047,45.3274534 154.565893,45.2166079 L155.369103,44.4137931 L154.565893,43.6109783 C154.468903,43.5139885 154.456779,43.3642695 154.529522,43.2540974 L154.565893,43.209571 C154.662883,43.1125811 154.812602,43.1004573 154.922774,43.1731998 L154.9673,43.209571 L155.770115,44.0127816 L156.57293,43.209571 C156.683775,43.0987254 156.863491,43.0987254 156.974337,43.209571 Z" id="Path" fill="#CCCED3"></path>
                            <path d="M13.1954023,41.4777708 C13.2842757,41.4777708 13.3563218,41.5498169 13.3563218,41.6386903 L13.3564023,41.9858742 L13.6469856,41.6955392 C13.7093362,41.6331885 13.8104266,41.6331885 13.8727772,41.6955392 C13.9351279,41.7578898 13.9351279,41.8589802 13.8727772,41.9213308 L13.5116092,42.282288 L14,42.2823685 C14.0799861,42.2823685 14.146342,42.3407258 14.1588134,42.417186 L14.1609195,42.443288 C14.1609195,42.524082 14.1013773,42.5909692 14.0237795,42.6024628 L14,42.6042076 L13.6523333,42.6040466 L13.8727772,42.8244974 C13.9288928,42.880613 13.9345044,42.9681077 13.8896119,43.0304992 L13.8727772,43.0502891 C13.8166617,43.1064046 13.7291669,43.1120162 13.6667755,43.0671237 L13.6469856,43.0502891 L13.3564023,42.7597363 L13.3563218,43.2478857 C13.3563218,43.3367591 13.2842757,43.4088053 13.1954023,43.4088053 C13.1065289,43.4088053 13.0344828,43.3367591 13.0344828,43.2478857 L13.0344023,42.7594949 L12.743819,43.0502891 C12.6814684,43.1126397 12.580378,43.1126397 12.5180273,43.0502891 C12.4556767,42.9879384 12.4556767,42.8868481 12.5180273,42.8244974 L12.7382299,42.6040466 L12.3908046,42.6042076 C12.3108185,42.6042076 12.2444626,42.5458502 12.2319912,42.46939 L12.2298851,42.443288 C12.2298851,42.362494 12.2894273,42.2956068 12.3670251,42.2841133 L12.3908046,42.2823685 L12.8787126,42.282288 L12.5180273,41.9213308 C12.4619118,41.8652152 12.4563002,41.7777205 12.5011927,41.7153291 L12.5180273,41.6955392 C12.5741429,41.6394236 12.6616377,41.633812 12.7240291,41.6787045 L12.743819,41.6955392 L13.0344023,41.9861156 L13.0344828,41.6386903 C13.0344828,41.5498169 13.1065289,41.4777708 13.1954023,41.4777708 Z" id="Path" fill="#CCCED3"></path>
                            <path d="M143.54023,3.54022989 C143.698227,3.54022989 143.829633,3.65408056 143.856884,3.80421798 L143.862069,3.86206897 L143.862069,4.82758621 C143.862069,5.00533302 143.717977,5.14942529 143.54023,5.14942529 C143.382233,5.14942529 143.250827,5.03557461 143.223576,4.88543719 L143.218391,4.82758621 L143.218391,3.86206897 C143.218391,3.68432215 143.362483,3.54022989 143.54023,3.54022989 Z M144.63353,3.22019614 L144.678103,3.25743643 L145.360827,3.94016022 C145.486513,4.0658462 145.486513,4.26962343 145.360827,4.39530941 C145.249106,4.50703028 145.075683,4.51944371 144.950251,4.4325497 L144.905677,4.39530941 L144.222954,3.71258562 C144.097268,3.58689965 144.097268,3.38312241 144.222954,3.25743643 C144.320709,3.15968067 144.465706,3.13795717 144.584457,3.19226592 L144.63353,3.22019614 Z M142.857506,3.25743643 C142.969227,3.3691573 142.98164,3.54257991 142.894746,3.66801227 L142.857506,3.71258562 L142.174782,4.39530941 C142.049096,4.52099539 141.845319,4.52099539 141.719633,4.39530941 C141.607912,4.28358854 141.595499,4.11016594 141.682393,3.98473357 L141.719633,3.94016022 L142.402357,3.25743643 C142.528043,3.13175045 142.73182,3.13175045 142.857506,3.25743643 Z M145.793103,2.25287356 C145.97085,2.25287356 146.114943,2.39696583 146.114943,2.57471264 C146.114943,2.73270981 146.001092,2.86411573 145.850954,2.89136647 L145.793103,2.89655172 L144.827586,2.89655172 C144.649839,2.89655172 144.505747,2.75245946 144.505747,2.57471264 C144.505747,2.41671547 144.619598,2.28530955 144.769735,2.25805882 L144.827586,2.25287356 L145.793103,2.25287356 Z M142.252874,2.25287356 C142.43062,2.25287356 142.574713,2.39696583 142.574713,2.57471264 C142.574713,2.73270981 142.460862,2.86411573 142.310725,2.89136647 L142.252874,2.89655172 L141.287356,2.89655172 C141.10961,2.89655172 140.965517,2.75245946 140.965517,2.57471264 C140.965517,2.41671547 141.079368,2.28530955 141.229505,2.25805882 L141.287356,2.25287356 L142.252874,2.25287356 Z M142.130209,0.716875584 L142.174782,0.754115874 L142.857506,1.43683966 C142.983192,1.56252564 142.983192,1.76630288 142.857506,1.89198885 C142.745785,2.00370973 142.572363,2.01612316 142.44693,1.92922915 L142.402357,1.89198885 L141.719633,1.20926507 C141.593947,1.08357909 141.593947,0.879801853 141.719633,0.754115874 C141.817389,0.656360112 141.962385,0.63463661 142.081137,0.688945366 L142.130209,0.716875584 Z M145.360827,0.754115874 C145.472548,0.865836744 145.484961,1.03925935 145.398067,1.16469171 L145.360827,1.20926507 L144.678103,1.89198885 C144.552417,2.01767483 144.34864,2.01767483 144.222954,1.89198885 C144.111233,1.78026798 144.098819,1.60684538 144.185713,1.48141302 L144.222954,1.43683966 L144.905677,0.754115874 C145.031363,0.628429895 145.235141,0.628429895 145.360827,0.754115874 Z M143.54023,0 C143.698227,0 143.829633,0.113850678 143.856884,0.263988099 L143.862069,0.32183908 L143.862069,1.28735632 C143.862069,1.46510314 143.717977,1.6091954 143.54023,1.6091954 C143.382233,1.6091954 143.250827,1.49534472 143.223576,1.3452073 L143.218391,1.28735632 L143.218391,0.32183908 C143.218391,0.144092264 143.362483,0 143.54023,0 Z" id="Combined-Shape-Copy-5" fill="#CCCED3" fill-rule="nonzero"></path>
                            <path d="M154.64764,68.2797229 C154.959639,68.4501108 155.074438,68.841163 154.90405,69.1531625 C153.172857,72.3231738 145.641323,77.5467102 141.37862,77.8018761 C141.023761,77.823118 140.718872,77.5526683 140.69763,77.1978099 C140.676388,76.8429514 140.946838,76.5380619 141.301696,76.51682 C145.100477,76.2894246 152.246733,71.3330998 153.7742,68.5361334 C153.944588,68.2241339 154.33564,68.109335 154.64764,68.2797229 Z M135.620713,73.2374457 L135.678362,73.2941989 L137.05962,74.8339358 C137.222225,75.0151977 137.473199,75.0891821 137.708126,75.0251089 L138.751666,74.7375836 C139.498511,74.5292375 140.033806,74.3730337 140.354803,74.269867 C140.693246,74.1610933 141.055788,74.3472774 141.164561,74.6857209 C141.273335,75.0241644 141.087151,75.3867056 140.748708,75.4954793 L140.456062,75.5865203 C139.939764,75.7430807 139.138151,75.9694672 138.046862,76.2671009 C137.383537,76.4480137 136.67757,76.2620463 136.190116,75.7861838 L136.101343,75.6935812 L134.720085,74.1538448 C134.4827,73.8892238 134.504779,73.4822679 134.7694,73.2448832 C134.99331,73.0440193 135.319129,73.0289254 135.557895,73.1893497 L135.620713,73.2374457 Z M149.609064,69.7092297 C149.858525,69.9624978 149.855439,70.3700406 149.602171,70.619502 C147.90285,72.2932821 146.514232,73.1960448 143.947077,74.1817366 C143.615206,74.3091627 143.242872,74.1434274 143.115446,73.8115565 C142.98802,73.4796855 143.153755,73.1073517 143.485626,72.9799257 C145.885692,72.0583898 147.124337,71.2531267 148.698792,69.7023371 C148.95206,69.4528757 149.359603,69.4559616 149.609064,69.7092297 Z" id="Shape" fill="#E7E9EB" fill-rule="nonzero" opacity="0.847632999"></path>
                        </g>
                        <g id="doc" transform="translate(68.873563, 16.735632) scale(-1, 1) rotate(7.000000) translate(-68.873563, -16.735632) translate(54.068966, 1.931034)">
                            <g id="Rectangle-Copy-11">
                                <use fill="black" fill-opacity="1" filter="url(#filter-2)" xlink:href="#path-1"></use>
                                <use fill="#FFFFFF" fill-rule="evenodd" xlink:href="#path-1"></use>
                            </g>
                            <g id="Rectangle-Copy-12" transform="translate(18.682755, 9.596026) scale(-1, -1) rotate(27.000000) translate(-18.682755, -9.596026) ">
                                <use fill="black" fill-opacity="1" filter="url(#filter-4)" xlink:href="#path-3"></use>
                                <use fill="#CCCED3" fill-rule="evenodd" xlink:href="#path-3"></use>
                            </g>
                        </g>
                        <g id="Excel-Copy" transform="translate(84.965517, 22.850575) rotate(14.000000) translate(-84.965517, -22.850575) translate(74.022989, 8.367816)">
                            <path d="M2.31589093,0.133495351 L21.129684,0.133495351 C21.4445498,0.133495351 21.699799,0.386391978 21.699799,0.698355778 L21.699799,27.2467958 C21.699799,27.5587596 21.4445498,27.8116563 21.129684,27.8116563 L2.31589093,27.8116563 C2.00102514,27.8116563 1.74577599,27.5587596 1.74577599,27.2467958 L1.74577599,0.698355778 C1.74577599,0.386391978 2.00102514,0.133495351 2.31589093,0.133495351 Z" id="Rectangle" fill="#FFFFFF"></path>
                            <g id="Rectangle">
                                <use fill="black" fill-opacity="1" filter="url(#filter-6)" xlink:href="#path-5"></use>
                                <use fill="#FFFFFF" fill-rule="evenodd" xlink:href="#path-5"></use>
                            </g>
                            <g id="Grid" transform="translate(0.528557, 1.196296)">
                                <path d="M11.1172414,1.68451944 L13.9678161,1.68451944 C14.125249,1.68451944 14.2528736,1.81021695 14.2528736,1.96527268 L14.2528736,3.08828564 C14.2528736,3.24334138 14.125249,3.36903888 13.9678161,3.36903888 L11.1172414,3.36903888 C10.9598085,3.36903888 10.8321839,3.24334138 10.8321839,3.08828564 L10.8321839,1.96527268 C10.8321839,1.81021695 10.9598085,1.68451944 11.1172414,1.68451944 Z" id="Rectangle" fill="#EBEBEC"></path>
                                <path d="M1.9954023,1.68451944 L4.84597701,1.68451944 C5.00340991,1.68451944 5.13103448,1.81021695 5.13103448,1.96527268 L5.13103448,3.08828564 C5.13103448,3.24334138 5.00340991,3.36903888 4.84597701,3.36903888 L1.9954023,3.36903888 C1.8379694,3.36903888 1.71034483,3.24334138 1.71034483,3.08828564 L1.71034483,1.96527268 C1.71034483,1.81021695 1.8379694,1.68451944 1.9954023,1.68451944 Z" id="Rectangle-Copy-8" fill="#EBEBEC"></path>
                                <path d="M15.6781609,1.68451944 L18.5287356,1.68451944 C18.6861685,1.68451944 18.8137931,1.81021695 18.8137931,1.96527268 L18.8137931,3.08828564 C18.8137931,3.24334138 18.6861685,3.36903888 18.5287356,3.36903888 L15.6781609,3.36903888 C15.520728,3.36903888 15.3931034,3.24334138 15.3931034,3.08828564 L15.3931034,1.96527268 C15.3931034,1.81021695 15.520728,1.68451944 15.6781609,1.68451944 Z" id="Rectangle-Copy-7" fill="#EBEBEC"></path>
                                <path d="M6.55632184,1.68451944 L9.40689655,1.68451944 C9.56432945,1.68451944 9.69195402,1.81021695 9.69195402,1.96527268 L9.69195402,3.08828564 C9.69195402,3.24334138 9.56432945,3.36903888 9.40689655,3.36903888 L6.55632184,3.36903888 C6.39888894,3.36903888 6.27126437,3.24334138 6.27126437,3.08828564 L6.27126437,1.96527268 C6.27126437,1.81021695 6.39888894,1.68451944 6.55632184,1.68451944 Z" id="Rectangle-Copy-9" fill="#EBEBEC"></path>
                                <path d="M11.1172414,4.49205185 L13.9678161,4.49205185 C14.125249,4.49205185 14.2528736,4.61774935 14.2528736,4.77280509 L14.2528736,5.89581805 C14.2528736,6.05087378 14.125249,6.17657129 13.9678161,6.17657129 L11.1172414,6.17657129 C10.9598085,6.17657129 10.8321839,6.05087378 10.8321839,5.89581805 L10.8321839,4.77280509 C10.8321839,4.61774935 10.9598085,4.49205185 11.1172414,4.49205185 Z" id="Rectangle" fill="#EBEBEC"></path>
                                <path d="M1.9954023,4.49205185 L4.84597701,4.49205185 C5.00340991,4.49205185 5.13103448,4.61774935 5.13103448,4.77280509 L5.13103448,5.89581805 C5.13103448,6.05087378 5.00340991,6.17657129 4.84597701,6.17657129 L1.9954023,6.17657129 C1.8379694,6.17657129 1.71034483,6.05087378 1.71034483,5.89581805 L1.71034483,4.77280509 C1.71034483,4.61774935 1.8379694,4.49205185 1.9954023,4.49205185 Z" id="Rectangle-Copy-8" fill="#EBEBEC"></path>
                                <path d="M15.6781609,4.49205185 L18.5287356,4.49205185 C18.6861685,4.49205185 18.8137931,4.61774935 18.8137931,4.77280509 L18.8137931,5.89581805 C18.8137931,6.05087378 18.6861685,6.17657129 18.5287356,6.17657129 L15.6781609,6.17657129 C15.520728,6.17657129 15.3931034,6.05087378 15.3931034,5.89581805 L15.3931034,4.77280509 C15.3931034,4.61774935 15.520728,4.49205185 15.6781609,4.49205185 Z" id="Rectangle-Copy-7" fill="#EBEBEC"></path>
                                <path d="M6.55632184,4.49205185 L9.40689655,4.49205185 C9.56432945,4.49205185 9.69195402,4.61774935 9.69195402,4.77280509 L9.69195402,5.89581805 C9.69195402,6.05087378 9.56432945,6.17657129 9.40689655,6.17657129 L6.55632184,6.17657129 C6.39888894,6.17657129 6.27126437,6.05087378 6.27126437,5.89581805 L6.27126437,4.77280509 C6.27126437,4.61774935 6.39888894,4.49205185 6.55632184,4.49205185 Z" id="Rectangle-Copy-9" fill="#EBEBEC"></path>
                                <path d="M11.1172414,7.29958425 L13.9678161,7.29958425 C14.125249,7.29958425 14.2528736,7.42528176 14.2528736,7.58033749 L14.2528736,8.70335045 C14.2528736,8.85840619 14.125249,8.98410369 13.9678161,8.98410369 L11.1172414,8.98410369 C10.9598085,8.98410369 10.8321839,8.85840619 10.8321839,8.70335045 L10.8321839,7.58033749 C10.8321839,7.42528176 10.9598085,7.29958425 11.1172414,7.29958425 Z" id="Rectangle" fill="#EBEBEC"></path>
                                <path d="M1.9954023,7.29958425 L4.84597701,7.29958425 C5.00340991,7.29958425 5.13103448,7.42528176 5.13103448,7.58033749 L5.13103448,8.70335045 C5.13103448,8.85840619 5.00340991,8.98410369 4.84597701,8.98410369 L1.9954023,8.98410369 C1.8379694,8.98410369 1.71034483,8.85840619 1.71034483,8.70335045 L1.71034483,7.58033749 C1.71034483,7.42528176 1.8379694,7.29958425 1.9954023,7.29958425 Z" id="Rectangle-Copy-8" fill="#EBEBEC"></path>
                                <path d="M15.6781609,7.29958425 L18.5287356,7.29958425 C18.6861685,7.29958425 18.8137931,7.42528176 18.8137931,7.58033749 L18.8137931,8.70335045 C18.8137931,8.85840619 18.6861685,8.98410369 18.5287356,8.98410369 L15.6781609,8.98410369 C15.520728,8.98410369 15.3931034,8.85840619 15.3931034,8.70335045 L15.3931034,7.58033749 C15.3931034,7.42528176 15.520728,7.29958425 15.6781609,7.29958425 Z" id="Rectangle-Copy-7" fill="#EBEBEC"></path>
                                <path d="M6.55632184,7.29958425 L9.40689655,7.29958425 C9.56432945,7.29958425 9.69195402,7.42528176 9.69195402,7.58033749 L9.69195402,8.70335045 C9.69195402,8.85840619 9.56432945,8.98410369 9.40689655,8.98410369 L6.55632184,8.98410369 C6.39888894,8.98410369 6.27126437,8.85840619 6.27126437,8.70335045 L6.27126437,7.58033749 C6.27126437,7.42528176 6.39888894,7.29958425 6.55632184,7.29958425 Z" id="Rectangle-Copy-9" fill="#EBEBEC"></path>
                                <path d="M11.1172414,10.1071167 L13.9678161,10.1071167 C14.125249,10.1071167 14.2528736,10.2328142 14.2528736,10.3878699 L14.2528736,11.5108829 C14.2528736,11.6659386 14.125249,11.7916361 13.9678161,11.7916361 L11.1172414,11.7916361 C10.9598085,11.7916361 10.8321839,11.6659386 10.8321839,11.5108829 L10.8321839,10.3878699 C10.8321839,10.2328142 10.9598085,10.1071167 11.1172414,10.1071167 Z" id="Rectangle" fill="#EBEBEC"></path>
                                <path d="M1.9954023,10.1071167 L4.84597701,10.1071167 C5.00340991,10.1071167 5.13103448,10.2328142 5.13103448,10.3878699 L5.13103448,11.5108829 C5.13103448,11.6659386 5.00340991,11.7916361 4.84597701,11.7916361 L1.9954023,11.7916361 C1.8379694,11.7916361 1.71034483,11.6659386 1.71034483,11.5108829 L1.71034483,10.3878699 C1.71034483,10.2328142 1.8379694,10.1071167 1.9954023,10.1071167 Z" id="Rectangle-Copy-8" fill="#EBEBEC"></path>
                                <path d="M15.6781609,10.1071167 L18.5287356,10.1071167 C18.6861685,10.1071167 18.8137931,10.2328142 18.8137931,10.3878699 L18.8137931,11.5108829 C18.8137931,11.6659386 18.6861685,11.7916361 18.5287356,11.7916361 L15.6781609,11.7916361 C15.520728,11.7916361 15.3931034,11.6659386 15.3931034,11.5108829 L15.3931034,10.3878699 C15.3931034,10.2328142 15.520728,10.1071167 15.6781609,10.1071167 Z" id="Rectangle-Copy-7" fill="#EBEBEC"></path>
                                <path d="M6.55632184,10.1071167 L9.40689655,10.1071167 C9.56432945,10.1071167 9.69195402,10.2328142 9.69195402,10.3878699 L9.69195402,11.5108829 C9.69195402,11.6659386 9.56432945,11.7916361 9.40689655,11.7916361 L6.55632184,11.7916361 C6.39888894,11.7916361 6.27126437,11.6659386 6.27126437,11.5108829 L6.27126437,10.3878699 C6.27126437,10.2328142 6.39888894,10.1071167 6.55632184,10.1071167 Z" id="Rectangle-Copy-9" fill="#EBEBEC"></path>
                                <path d="M11.1172414,12.9146491 L13.9678161,12.9146491 C14.125249,12.9146491 14.2528736,13.0403466 14.2528736,13.1954023 L14.2528736,14.3184153 C14.2528736,14.473471 14.125249,14.5991685 13.9678161,14.5991685 L11.1172414,14.5991685 C10.9598085,14.5991685 10.8321839,14.473471 10.8321839,14.3184153 L10.8321839,13.1954023 C10.8321839,13.0403466 10.9598085,12.9146491 11.1172414,12.9146491 Z" id="Rectangle" fill="#EBEBEC"></path>
                                <path d="M1.9954023,12.9146491 L4.84597701,12.9146491 C5.00340991,12.9146491 5.13103448,13.0403466 5.13103448,13.1954023 L5.13103448,14.3184153 C5.13103448,14.473471 5.00340991,14.5991685 4.84597701,14.5991685 L1.9954023,14.5991685 C1.8379694,14.5991685 1.71034483,14.473471 1.71034483,14.3184153 L1.71034483,13.1954023 C1.71034483,13.0403466 1.8379694,12.9146491 1.9954023,12.9146491 Z" id="Rectangle-Copy-8" fill="#EBEBEC"></path>
                                <path d="M15.6781609,12.9146491 L18.5287356,12.9146491 C18.6861685,12.9146491 18.8137931,13.0403466 18.8137931,13.1954023 L18.8137931,14.3184153 C18.8137931,14.473471 18.6861685,14.5991685 18.5287356,14.5991685 L15.6781609,14.5991685 C15.520728,14.5991685 15.3931034,14.473471 15.3931034,14.3184153 L15.3931034,13.1954023 C15.3931034,13.0403466 15.520728,12.9146491 15.6781609,12.9146491 Z" id="Rectangle-Copy-7" fill="#EBEBEC"></path>
                                <path d="M6.55632184,12.9146491 L9.40689655,12.9146491 C9.56432945,12.9146491 9.69195402,13.0403466 9.69195402,13.1954023 L9.69195402,14.3184153 C9.69195402,14.473471 9.56432945,14.5991685 9.40689655,14.5991685 L6.55632184,14.5991685 C6.39888894,14.5991685 6.27126437,14.473471 6.27126437,14.3184153 L6.27126437,13.1954023 C6.27126437,13.0403466 6.39888894,12.9146491 6.55632184,12.9146491 Z" id="Rectangle-Copy-9" fill="#EBEBEC"></path>
                                <path d="M11.1172414,15.7221815 L13.9678161,15.7221815 C14.125249,15.7221815 14.2528736,15.847879 14.2528736,16.0029347 L14.2528736,17.1259477 C14.2528736,17.2810034 14.125249,17.4067009 13.9678161,17.4067009 L11.1172414,17.4067009 C10.9598085,17.4067009 10.8321839,17.2810034 10.8321839,17.1259477 L10.8321839,16.0029347 C10.8321839,15.847879 10.9598085,15.7221815 11.1172414,15.7221815 Z" id="Rectangle" fill="#EBEBEC"></path>
                                <path d="M1.9954023,15.7221815 L4.84597701,15.7221815 C5.00340991,15.7221815 5.13103448,15.847879 5.13103448,16.0029347 L5.13103448,17.1259477 C5.13103448,17.2810034 5.00340991,17.4067009 4.84597701,17.4067009 L1.9954023,17.4067009 C1.8379694,17.4067009 1.71034483,17.2810034 1.71034483,17.1259477 L1.71034483,16.0029347 C1.71034483,15.847879 1.8379694,15.7221815 1.9954023,15.7221815 Z" id="Rectangle-Copy-8" fill="#EBEBEC"></path>
                                <path d="M15.6781609,15.7221815 L18.5287356,15.7221815 C18.6861685,15.7221815 18.8137931,15.847879 18.8137931,16.0029347 L18.8137931,17.1259477 C18.8137931,17.2810034 18.6861685,17.4067009 18.5287356,17.4067009 L15.6781609,17.4067009 C15.520728,17.4067009 15.3931034,17.2810034 15.3931034,17.1259477 L15.3931034,16.0029347 C15.3931034,15.847879 15.520728,15.7221815 15.6781609,15.7221815 Z" id="Rectangle-Copy-7" fill="#EBEBEC"></path>
                                <path d="M6.55632184,15.7221815 L9.40689655,15.7221815 C9.56432945,15.7221815 9.69195402,15.847879 9.69195402,16.0029347 L9.69195402,17.1259477 C9.69195402,17.2810034 9.56432945,17.4067009 9.40689655,17.4067009 L6.55632184,17.4067009 C6.39888894,17.4067009 6.27126437,17.2810034 6.27126437,17.1259477 L6.27126437,16.0029347 C6.27126437,15.847879 6.39888894,15.7221815 6.55632184,15.7221815 Z" id="Rectangle-Copy-9" fill="#EBEBEC"></path>
                                <path d="M11.1172414,18.5297139 L13.9678161,18.5297139 C14.125249,18.5297139 14.2528736,18.6554114 14.2528736,18.8104671 L14.2528736,19.9334801 C14.2528736,20.0885358 14.125249,20.2142333 13.9678161,20.2142333 L11.1172414,20.2142333 C10.9598085,20.2142333 10.8321839,20.0885358 10.8321839,19.9334801 L10.8321839,18.8104671 C10.8321839,18.6554114 10.9598085,18.5297139 11.1172414,18.5297139 Z" id="Rectangle" fill="#EBEBEC"></path>
                                <path d="M1.9954023,18.5297139 L4.84597701,18.5297139 C5.00340991,18.5297139 5.13103448,18.6554114 5.13103448,18.8104671 L5.13103448,19.9334801 C5.13103448,20.0885358 5.00340991,20.2142333 4.84597701,20.2142333 L1.9954023,20.2142333 C1.8379694,20.2142333 1.71034483,20.0885358 1.71034483,19.9334801 L1.71034483,18.8104671 C1.71034483,18.6554114 1.8379694,18.5297139 1.9954023,18.5297139 Z" id="Rectangle-Copy-8" fill="#EBEBEC"></path>
                                <path d="M15.6781609,18.5297139 L18.5287356,18.5297139 C18.6861685,18.5297139 18.8137931,18.6554114 18.8137931,18.8104671 L18.8137931,19.9334801 C18.8137931,20.0885358 18.6861685,20.2142333 18.5287356,20.2142333 L15.6781609,20.2142333 C15.520728,20.2142333 15.3931034,20.0885358 15.3931034,19.9334801 L15.3931034,18.8104671 C15.3931034,18.6554114 15.520728,18.5297139 15.6781609,18.5297139 Z" id="Rectangle-Copy-7" fill="#EBEBEC"></path>
                                <path d="M6.55632184,18.5297139 L9.40689655,18.5297139 C9.56432945,18.5297139 9.69195402,18.6554114 9.69195402,18.8104671 L9.69195402,19.9334801 C9.69195402,20.0885358 9.56432945,20.2142333 9.40689655,20.2142333 L6.55632184,20.2142333 C6.39888894,20.2142333 6.27126437,20.0885358 6.27126437,19.9334801 L6.27126437,18.8104671 C6.27126437,18.6554114 6.39888894,18.5297139 6.55632184,18.5297139 Z" id="Rectangle-Copy-9" fill="#EBEBEC"></path>
                                <path d="M11.1172414,21.3372463 L13.9678161,21.3372463 C14.125249,21.3372463 14.2528736,21.4629438 14.2528736,21.6179995 L14.2528736,22.7410125 C14.2528736,22.8960682 14.125249,23.0217657 13.9678161,23.0217657 L11.1172414,23.0217657 C10.9598085,23.0217657 10.8321839,22.8960682 10.8321839,22.7410125 L10.8321839,21.6179995 C10.8321839,21.4629438 10.9598085,21.3372463 11.1172414,21.3372463 Z" id="Rectangle" fill="#EBEBEC"></path>
                                <path d="M1.9954023,21.3372463 L4.84597701,21.3372463 C5.00340991,21.3372463 5.13103448,21.4629438 5.13103448,21.6179995 L5.13103448,22.7410125 C5.13103448,22.8960682 5.00340991,23.0217657 4.84597701,23.0217657 L1.9954023,23.0217657 C1.8379694,23.0217657 1.71034483,22.8960682 1.71034483,22.7410125 L1.71034483,21.6179995 C1.71034483,21.4629438 1.8379694,21.3372463 1.9954023,21.3372463 Z" id="Rectangle-Copy-8" fill="#EBEBEC"></path>
                                <path d="M15.6781609,21.3372463 L18.5287356,21.3372463 C18.6861685,21.3372463 18.8137931,21.4629438 18.8137931,21.6179995 L18.8137931,22.7410125 C18.8137931,22.8960682 18.6861685,23.0217657 18.5287356,23.0217657 L15.6781609,23.0217657 C15.520728,23.0217657 15.3931034,22.8960682 15.3931034,22.7410125 L15.3931034,21.6179995 C15.3931034,21.4629438 15.520728,21.3372463 15.6781609,21.3372463 Z" id="Rectangle-Copy-7" fill="#EBEBEC"></path>
                                <path d="M6.55632184,21.3372463 L9.40689655,21.3372463 C9.56432945,21.3372463 9.69195402,21.4629438 9.69195402,21.6179995 L9.69195402,22.7410125 C9.69195402,22.8960682 9.56432945,23.0217657 9.40689655,23.0217657 L6.55632184,23.0217657 C6.39888894,23.0217657 6.27126437,22.8960682 6.27126437,22.7410125 L6.27126437,21.6179995 C6.27126437,21.4629438 6.39888894,21.3372463 6.55632184,21.3372463 Z" id="Rectangle-Copy-9" fill="#EBEBEC"></path>
                                <path d="M11.1172414,24.1447787 L13.9678161,24.1447787 C14.125249,24.1447787 14.2528736,24.2704762 14.2528736,24.4255319 L14.2528736,25.5485449 C14.2528736,25.7036006 14.125249,25.8292981 13.9678161,25.8292981 L11.1172414,25.8292981 C10.9598085,25.8292981 10.8321839,25.7036006 10.8321839,25.5485449 L10.8321839,24.4255319 C10.8321839,24.2704762 10.9598085,24.1447787 11.1172414,24.1447787 Z" id="Rectangle" fill="#EBEBEC"></path>
                                <path d="M1.9954023,24.1447787 L4.84597701,24.1447787 C5.00340991,24.1447787 5.13103448,24.2704762 5.13103448,24.4255319 L5.13103448,25.5485449 C5.13103448,25.7036006 5.00340991,25.8292981 4.84597701,25.8292981 L1.9954023,25.8292981 C1.8379694,25.8292981 1.71034483,25.7036006 1.71034483,25.5485449 L1.71034483,24.4255319 C1.71034483,24.2704762 1.8379694,24.1447787 1.9954023,24.1447787 Z" id="Rectangle-Copy-8" fill="#EBEBEC"></path>
                                <path d="M15.6781609,24.1447787 L18.5287356,24.1447787 C18.6861685,24.1447787 18.8137931,24.2704762 18.8137931,24.4255319 L18.8137931,25.5485449 C18.8137931,25.7036006 18.6861685,25.8292981 18.5287356,25.8292981 L15.6781609,25.8292981 C15.520728,25.8292981 15.3931034,25.7036006 15.3931034,25.5485449 L15.3931034,24.4255319 C15.3931034,24.2704762 15.520728,24.1447787 15.6781609,24.1447787 Z" id="Rectangle-Copy-7" fill="#EBEBEC"></path>
                                <path d="M6.55632184,24.1447787 L9.40689655,24.1447787 C9.56432945,24.1447787 9.69195402,24.2704762 9.69195402,24.4255319 L9.69195402,25.5485449 C9.69195402,25.7036006 9.56432945,25.8292981 9.40689655,25.8292981 L6.55632184,25.8292981 C6.39888894,25.8292981 6.27126437,25.7036006 6.27126437,25.5485449 L6.27126437,24.4255319 C6.27126437,24.2704762 6.39888894,24.1447787 6.55632184,24.1447787 Z" id="Rectangle-Copy-9" fill="#EBEBEC"></path>
                                <polygon id="Rectangle" fill="url(#linearGradient-7)" points="0 0 19.954023 0 19.954023 26.3908046 0 26.3908046"></polygon>
                            </g>
                            <polygon id="X" fill-opacity="0.8" fill="#CCCED3" fill-rule="nonzero" points="4.93941521 25.9913208 6.86196785 23.5566148 8.78452048 25.9913208 10.786237 25.9913208 7.99288116 22.7465137 10.5883272 19.5545392 8.69970198 19.5545392 6.95244091 21.8703717 5.17125244 19.5545392 3.23739068 19.5545392 5.8045639 22.6716674 3.06209911 25.9913208"></polygon>
                        </g>
                        <g id="Page" transform="translate(79.494253, 54.712644) scale(-1, 1) rotate(-21.000000) translate(-79.494253, -54.712644) ">
                            <use fill="black" fill-opacity="1" filter="url(#filter-10)" xlink:href="#path-9"></use>
                            <use fill="url(#linearGradient-8)" fill-rule="evenodd" xlink:href="#path-9"></use>
                        </g>
                        <g id="Doughnut" transform="translate(19.954023, 41.839080)">
                            <g id="base">
                                <g id="Path">
                                    <use fill="black" fill-opacity="1" filter="url(#filter-12)" xlink:href="#path-11"></use>
                                    <use fill="#FFFFFF" fill-rule="evenodd" xlink:href="#path-11"></use>
                                </g>
                                <g id="Path">
                                    <use fill="black" fill-opacity="1" filter="url(#filter-14)" xlink:href="#path-13"></use>
                                    <use fill="#FFFFFF" fill-rule="evenodd" xlink:href="#path-13"></use>
                                </g>
                                <path d="M2.84852939,-4.03757425e-15 L38.1702938,-4.03757425e-15 C39.7434931,-4.03757425e-15 41.0188231,1.27204422 41.0188231,2.8411903 L41.0188231,6.74782695 L0,6.74782695 L0,2.8411903 C0,1.27204422 1.27533005,-4.03757425e-15 2.84852939,-4.03757425e-15 Z" id="Path-Copy" fill="#E8E9EC"></path>
                            </g>
                            <g transform="translate(19.102950, 10.517975)">
                                <path d="M17.0470936,6.89385088 C16.7196479,7.40435553 16.5492323,7.65960786 16.5358468,7.65960786 C15.8619229,7.65960786 14.9053507,7.46970923 13.66613,7.08991197 C13.4327527,5.22211482 12.066888,3.70529141 10.2758987,3.24535604 C9.8954377,1.94349037 9.70520721,0.973025533 9.70520721,0.333961543 C9.70520721,0.316030178 9.96807591,0.204709663 10.4938133,4.2505365e-14 C13.66613,0.307064495 16.7160706,3.38668049 17.0470936,6.89385088 Z" id="Path" fill-opacity="0.82" fill="#67696F" opacity="0.485212054"></path>
                                <path d="M16.5358468,7.65955972 L13.0952373,7.65963561 C12.86186,5.79183847 11.4959952,4.27501506 9.70500594,3.81507969 L9.70512087,0.333961543 C13.3937715,0.860457914 16.2699766,3.90039315 16.5358468,7.65955972 Z" id="Path" fill="#9EA0A5"></path>
                                <path d="M8.55337149,0.333961543 L8.55337149,3.81702128 C8.49356312,3.81702128 7.99253363,4.32202708 7.99253363,4.32202708 C5.94722947,4.44637595 3.8649901,6.24690223 3.8649901,8.47787318 C3.8649901,10.9950706 5.71077449,13.0741563 8.84887278,13.0741563 C11.4707145,13.0741563 12.0195177,11.4177614 12.5596757,9.44953992 C12.5596757,9.44953992 13.2430467,9.00910293 13.3806122,8.8803604 C13.3806122,8.8803604 14.4924316,8.88017903 16.7160706,8.87981628 C16.4231074,13.0187818 13.0708869,16.2862237 8.84887278,16.2862237 C4.43473763,16.2862237 0.85637408,12.7151882 0.85637408,8.31009263 C0.85637408,8.23887555 -0.00167206607,8.29992844 -3.3161373e-13,8.22933151 C0.103913486,3.93319131 4.21059957,0.333961543 8.55337149,0.333961543 Z" id="Path" fill-opacity="0.7" fill="#9EA0A5" opacity="0.485212054"></path>
                                <path d="M8.0009884,3.81189989 L7.98247873,0.903685192 C8.32231752,0.891540732 8.66602693,0.333961543 9.01396906,0.333961543 L9.03247873,3.81189989 C8.92441682,3.81189989 8.01915563,4.31690569 8.01915563,4.31690569" id="Shape" fill-opacity="0.7" fill="#9EA0A5" opacity="0.653180804"></path>
                                <path d="M16.7154043,8.87981628 C16.4224411,13.0187818 13.0702206,16.2862237 8.84820648,16.2862237 C8.7528808,16.2862237 8.6579449,16.2845583 8.5634264,16.281255 C12.5871956,16.1395225 15.5949768,13.406504 15.9649225,9.44953992 L16.2956365,9.21673354 L16.7154043,8.87981628 Z" id="Path" fill-opacity="0.7" fill="#9EA0A5" opacity="0.653180804"></path>
                                <path d="M7.99253363,0.903685192 L7.99253363,4.32202708 C5.47017069,4.32202708 3.42539152,6.36261881 3.42539152,8.87981628 C3.42539152,11.3970137 5.47017069,13.4376055 7.99253363,13.4376055 C10.3213699,13.4376055 12.2430957,11.6981276 12.524273,9.45008405 L15.9649225,9.45003334 C15.6719594,13.5889989 12.2145478,16.8559474 7.99253363,16.8559474 C3.57839849,16.8559474 3.49330845e-05,13.2849118 3.49330845e-05,8.87981628 C3.49330845e-05,4.47472072 3.57839849,0.903685192 7.99253363,0.903685192 Z" id="Path" fill="#CCCED3"></path>
                            </g>
                            <path d="M4.51224858,14.7909024 L14.5907016,14.7909024 C14.8999336,14.7909024 15.1506157,15.0852185 15.1506157,15.4482759 C15.1506157,15.8113332 14.8999336,16.1056493 14.5907016,16.1056493 L4.51224858,16.1056493 C4.20301658,16.1056493 3.95233452,15.8113332 3.95233452,15.4482759 C3.95233452,15.0852185 4.20301658,14.7909024 4.51224858,14.7909024 Z" id="Rectangle" fill="#CCCED3" opacity="0.647623698"></path>
                            <path d="M4.51224858,11.8327219 L14.5907016,11.8327219 C14.8999336,11.8327219 15.1506157,12.1270381 15.1506157,12.4900954 C15.1506157,12.8531527 14.8999336,13.1474688 14.5907016,13.1474688 L4.51224858,13.1474688 C4.20301658,13.1474688 3.95233452,12.8531527 3.95233452,12.4900954 C3.95233452,12.1270381 4.20301658,11.8327219 4.51224858,11.8327219 Z" id="Rectangle-Copy-3" fill="#CCCED3" opacity="0.647623698"></path>
                            <path d="M4.55117309,17.7490829 L9.94072016,17.7490829 C10.2714496,17.7490829 10.5395587,18.043399 10.5395587,18.4064563 C10.5395587,18.7695137 10.2714496,19.0638298 9.94072016,19.0638298 L4.55117309,19.0638298 C4.22044368,19.0638298 3.95233452,18.7695137 3.95233452,18.4064563 C3.95233452,18.043399 4.22044368,17.7490829 4.55117309,17.7490829 Z" id="Rectangle-Copy-2" fill="#CCCED3" opacity="0.647623698"></path>
                        </g>
                        <g id="DOC-Copy-2" transform="translate(146.056096, 41.000663) rotate(30.000000) translate(-146.056096, -41.000663) translate(134.148050, 25.230548)">
                            <path d="M5.21592768,0.398794642 L21.2363619,0.398794642 C22.3409314,0.398794642 23.2363619,1.29422514 23.2363619,2.39879464 L23.2363619,28.6516682 C23.2363619,29.7562377 22.3409314,30.6516682 21.2363619,30.6516682 L3.35130444,30.6516682 C2.24673494,30.6516682 1.35130444,29.7562377 1.35130444,28.6516682 L1.35130444,3.82862624 L1.35130444,3.82862624 L5.21592768,0.398794642 Z" id="Rectangle" fill="#FFFFFF"></path>
                            <mask id="mask-16" fill="white">
                                <use xlink:href="#path-15"></use>
                            </mask>
                            <g id="Rectangle">
                                <use fill="black" fill-opacity="1" filter="url(#filter-17)" xlink:href="#path-15"></use>
                                <use fill="#FFFFFF" fill-rule="evenodd" xlink:href="#path-15"></use>
                            </g>
                            <g id="Triangle" mask="url(#mask-16)" transform="translate(3.132729, 3.247189) rotate(139.000000) translate(-3.132729, -3.247189) ">
                                <use fill="black" fill-opacity="1" filter="url(#filter-19)" xlink:href="#path-18"></use>
                                <use fill="#E7E8EC" fill-rule="evenodd" xlink:href="#path-18"></use>
                            </g>
                            <circle id="Oval" fill="#9EA0A5" opacity="0.205915179" mask="url(#mask-16)" cx="6.83412231" cy="8.64344746" r="1.93103448"></circle>
                            <polygon id="Path" fill="#9EA0A5" opacity="0.205915179" mask="url(#mask-16)" points="3.17609114 20.4275006 9.12311763 13.3470409 12.2153301 17.02888 14.3704939 14.3585351 19.2680452 20.4275006"></polygon>
                        </g>
                        <g id="Excel" transform="translate(128.399561, 35.694070) rotate(-17.000000) translate(-128.399561, -35.694070) translate(114.560480, 16.061886)">
                            <path d="M2.03357737,0.294582003 L26.916336,0.294582003 C27.3327714,0.294582003 27.670359,0.635698384 27.670359,1.05648676 L27.670359,36.8660106 C27.670359,37.286799 27.3327714,37.6279153 26.916336,37.6279153 L2.03357737,37.6279153 C1.61714198,37.6279153 1.27955439,37.286799 1.27955439,36.8660106 L1.27955439,1.05648676 C1.27955439,0.635698384 1.61714198,0.294582003 2.03357737,0.294582003 Z" id="Rectangle" fill="#FFFFFF"></path>
                            <g id="Rectangle">
                                <use fill="black" fill-opacity="1" filter="url(#filter-21)" xlink:href="#path-20"></use>
                                <use fill="#FFFFFF" fill-rule="evenodd" xlink:href="#path-20"></use>
                            </g>
                            <g id="Grid" transform="translate(0.381712, 1.995235)">
                                <path d="M14.7034483,2.2597212 L18.4735632,2.2597212 C18.6817809,2.2597212 18.8505747,2.42833981 18.8505747,2.6363414 L18.8505747,4.14282221 C18.8505747,4.3508238 18.6817809,4.51944241 18.4735632,4.51944241 L14.7034483,4.51944241 C14.4952306,4.51944241 14.3264368,4.3508238 14.3264368,4.14282221 L14.3264368,2.6363414 C14.3264368,2.42833981 14.4952306,2.2597212 14.7034483,2.2597212 Z" id="Rectangle" fill="#EBEBEC"></path>
                                <path d="M2.63908046,2.2597212 L6.4091954,2.2597212 C6.6174131,2.2597212 6.7862069,2.42833981 6.7862069,2.6363414 L6.7862069,4.14282221 C6.7862069,4.3508238 6.6174131,4.51944241 6.4091954,4.51944241 L2.63908046,4.51944241 C2.43086276,4.51944241 2.26206897,4.3508238 2.26206897,4.14282221 L2.26206897,2.6363414 C2.26206897,2.42833981 2.43086276,2.2597212 2.63908046,2.2597212 Z" id="Rectangle-Copy-8" fill="#EBEBEC"></path>
                                <path d="M20.7356322,2.2597212 L24.5057471,2.2597212 C24.7139648,2.2597212 24.8827586,2.42833981 24.8827586,2.6363414 L24.8827586,4.14282221 C24.8827586,4.3508238 24.7139648,4.51944241 24.5057471,4.51944241 L20.7356322,4.51944241 C20.5274145,4.51944241 20.3586207,4.3508238 20.3586207,4.14282221 L20.3586207,2.6363414 C20.3586207,2.42833981 20.5274145,2.2597212 20.7356322,2.2597212 Z" id="Rectangle-Copy-7" fill="#EBEBEC"></path>
                                <path d="M8.67126437,2.2597212 L12.4413793,2.2597212 C12.649597,2.2597212 12.8183908,2.42833981 12.8183908,2.6363414 L12.8183908,4.14282221 C12.8183908,4.3508238 12.649597,4.51944241 12.4413793,4.51944241 L8.67126437,4.51944241 C8.46304667,4.51944241 8.29425287,4.3508238 8.29425287,4.14282221 L8.29425287,2.6363414 C8.29425287,2.42833981 8.46304667,2.2597212 8.67126437,2.2597212 Z" id="Rectangle-Copy-9" fill="#EBEBEC"></path>
                                <path d="M14.7034483,6.02592321 L18.4735632,6.02592321 C18.6817809,6.02592321 18.8505747,6.19454182 18.8505747,6.40254341 L18.8505747,7.90902421 C18.8505747,8.1170258 18.6817809,8.28564441 18.4735632,8.28564441 L14.7034483,8.28564441 C14.4952306,8.28564441 14.3264368,8.1170258 14.3264368,7.90902421 L14.3264368,6.40254341 C14.3264368,6.19454182 14.4952306,6.02592321 14.7034483,6.02592321 Z" id="Rectangle" fill="#EBEBEC"></path>
                                <path d="M2.63908046,6.02592321 L6.4091954,6.02592321 C6.6174131,6.02592321 6.7862069,6.19454182 6.7862069,6.40254341 L6.7862069,7.90902421 C6.7862069,8.1170258 6.6174131,8.28564441 6.4091954,8.28564441 L2.63908046,8.28564441 C2.43086276,8.28564441 2.26206897,8.1170258 2.26206897,7.90902421 L2.26206897,6.40254341 C2.26206897,6.19454182 2.43086276,6.02592321 2.63908046,6.02592321 Z" id="Rectangle-Copy-8" fill="#EBEBEC"></path>
                                <path d="M20.7356322,6.02592321 L24.5057471,6.02592321 C24.7139648,6.02592321 24.8827586,6.19454182 24.8827586,6.40254341 L24.8827586,7.90902421 C24.8827586,8.1170258 24.7139648,8.28564441 24.5057471,8.28564441 L20.7356322,8.28564441 C20.5274145,8.28564441 20.3586207,8.1170258 20.3586207,7.90902421 L20.3586207,6.40254341 C20.3586207,6.19454182 20.5274145,6.02592321 20.7356322,6.02592321 Z" id="Rectangle-Copy-7" fill="#EBEBEC"></path>
                                <path d="M8.67126437,6.02592321 L12.4413793,6.02592321 C12.649597,6.02592321 12.8183908,6.19454182 12.8183908,6.40254341 L12.8183908,7.90902421 C12.8183908,8.1170258 12.649597,8.28564441 12.4413793,8.28564441 L8.67126437,8.28564441 C8.46304667,8.28564441 8.29425287,8.1170258 8.29425287,7.90902421 L8.29425287,6.40254341 C8.29425287,6.19454182 8.46304667,6.02592321 8.67126437,6.02592321 Z" id="Rectangle-Copy-9" fill="#EBEBEC"></path>
                                <path d="M14.7034483,9.79212521 L18.4735632,9.79212521 C18.6817809,9.79212521 18.8505747,9.96074382 18.8505747,10.1687454 L18.8505747,11.6752262 C18.8505747,11.8832278 18.6817809,12.0518464 18.4735632,12.0518464 L14.7034483,12.0518464 C14.4952306,12.0518464 14.3264368,11.8832278 14.3264368,11.6752262 L14.3264368,10.1687454 C14.3264368,9.96074382 14.4952306,9.79212521 14.7034483,9.79212521 Z" id="Rectangle" fill="#EBEBEC"></path>
                                <path d="M2.63908046,9.79212521 L6.4091954,9.79212521 C6.6174131,9.79212521 6.7862069,9.96074382 6.7862069,10.1687454 L6.7862069,11.6752262 C6.7862069,11.8832278 6.6174131,12.0518464 6.4091954,12.0518464 L2.63908046,12.0518464 C2.43086276,12.0518464 2.26206897,11.8832278 2.26206897,11.6752262 L2.26206897,10.1687454 C2.26206897,9.96074382 2.43086276,9.79212521 2.63908046,9.79212521 Z" id="Rectangle-Copy-8" fill="#EBEBEC"></path>
                                <path d="M20.7356322,9.79212521 L24.5057471,9.79212521 C24.7139648,9.79212521 24.8827586,9.96074382 24.8827586,10.1687454 L24.8827586,11.6752262 C24.8827586,11.8832278 24.7139648,12.0518464 24.5057471,12.0518464 L20.7356322,12.0518464 C20.5274145,12.0518464 20.3586207,11.8832278 20.3586207,11.6752262 L20.3586207,10.1687454 C20.3586207,9.96074382 20.5274145,9.79212521 20.7356322,9.79212521 Z" id="Rectangle-Copy-7" fill="#EBEBEC"></path>
                                <path d="M8.67126437,9.79212521 L12.4413793,9.79212521 C12.649597,9.79212521 12.8183908,9.96074382 12.8183908,10.1687454 L12.8183908,11.6752262 C12.8183908,11.8832278 12.649597,12.0518464 12.4413793,12.0518464 L8.67126437,12.0518464 C8.46304667,12.0518464 8.29425287,11.8832278 8.29425287,11.6752262 L8.29425287,10.1687454 C8.29425287,9.96074382 8.46304667,9.79212521 8.67126437,9.79212521 Z" id="Rectangle-Copy-9" fill="#EBEBEC"></path>
                                <path d="M14.7034483,13.5583272 L18.4735632,13.5583272 C18.6817809,13.5583272 18.8505747,13.7269458 18.8505747,13.9349474 L18.8505747,15.4414282 C18.8505747,15.6494298 18.6817809,15.8180484 18.4735632,15.8180484 L14.7034483,15.8180484 C14.4952306,15.8180484 14.3264368,15.6494298 14.3264368,15.4414282 L14.3264368,13.9349474 C14.3264368,13.7269458 14.4952306,13.5583272 14.7034483,13.5583272 Z" id="Rectangle" fill="#EBEBEC"></path>
                                <path d="M2.63908046,13.5583272 L6.4091954,13.5583272 C6.6174131,13.5583272 6.7862069,13.7269458 6.7862069,13.9349474 L6.7862069,15.4414282 C6.7862069,15.6494298 6.6174131,15.8180484 6.4091954,15.8180484 L2.63908046,15.8180484 C2.43086276,15.8180484 2.26206897,15.6494298 2.26206897,15.4414282 L2.26206897,13.9349474 C2.26206897,13.7269458 2.43086276,13.5583272 2.63908046,13.5583272 Z" id="Rectangle-Copy-8" fill="#EBEBEC"></path>
                                <path d="M20.7356322,13.5583272 L24.5057471,13.5583272 C24.7139648,13.5583272 24.8827586,13.7269458 24.8827586,13.9349474 L24.8827586,15.4414282 C24.8827586,15.6494298 24.7139648,15.8180484 24.5057471,15.8180484 L20.7356322,15.8180484 C20.5274145,15.8180484 20.3586207,15.6494298 20.3586207,15.4414282 L20.3586207,13.9349474 C20.3586207,13.7269458 20.5274145,13.5583272 20.7356322,13.5583272 Z" id="Rectangle-Copy-7" fill="#EBEBEC"></path>
                                <path d="M8.67126437,13.5583272 L12.4413793,13.5583272 C12.649597,13.5583272 12.8183908,13.7269458 12.8183908,13.9349474 L12.8183908,15.4414282 C12.8183908,15.6494298 12.649597,15.8180484 12.4413793,15.8180484 L8.67126437,15.8180484 C8.46304667,15.8180484 8.29425287,15.6494298 8.29425287,15.4414282 L8.29425287,13.9349474 C8.29425287,13.7269458 8.46304667,13.5583272 8.67126437,13.5583272 Z" id="Rectangle-Copy-9" fill="#EBEBEC"></path>
                                <path d="M14.7034483,17.3245292 L18.4735632,17.3245292 C18.6817809,17.3245292 18.8505747,17.4931478 18.8505747,17.7011494 L18.8505747,19.2076302 C18.8505747,19.4156318 18.6817809,19.5842504 18.4735632,19.5842504 L14.7034483,19.5842504 C14.4952306,19.5842504 14.3264368,19.4156318 14.3264368,19.2076302 L14.3264368,17.7011494 C14.3264368,17.4931478 14.4952306,17.3245292 14.7034483,17.3245292 Z" id="Rectangle" fill="#EBEBEC"></path>
                                <path d="M2.63908046,17.3245292 L6.4091954,17.3245292 C6.6174131,17.3245292 6.7862069,17.4931478 6.7862069,17.7011494 L6.7862069,19.2076302 C6.7862069,19.4156318 6.6174131,19.5842504 6.4091954,19.5842504 L2.63908046,19.5842504 C2.43086276,19.5842504 2.26206897,19.4156318 2.26206897,19.2076302 L2.26206897,17.7011494 C2.26206897,17.4931478 2.43086276,17.3245292 2.63908046,17.3245292 Z" id="Rectangle-Copy-8" fill="#EBEBEC"></path>
                                <path d="M20.7356322,17.3245292 L24.5057471,17.3245292 C24.7139648,17.3245292 24.8827586,17.4931478 24.8827586,17.7011494 L24.8827586,19.2076302 C24.8827586,19.4156318 24.7139648,19.5842504 24.5057471,19.5842504 L20.7356322,19.5842504 C20.5274145,19.5842504 20.3586207,19.4156318 20.3586207,19.2076302 L20.3586207,17.7011494 C20.3586207,17.4931478 20.5274145,17.3245292 20.7356322,17.3245292 Z" id="Rectangle-Copy-7" fill="#EBEBEC"></path>
                                <path d="M8.67126437,17.3245292 L12.4413793,17.3245292 C12.649597,17.3245292 12.8183908,17.4931478 12.8183908,17.7011494 L12.8183908,19.2076302 C12.8183908,19.4156318 12.649597,19.5842504 12.4413793,19.5842504 L8.67126437,19.5842504 C8.46304667,19.5842504 8.29425287,19.4156318 8.29425287,19.2076302 L8.29425287,17.7011494 C8.29425287,17.4931478 8.46304667,17.3245292 8.67126437,17.3245292 Z" id="Rectangle-Copy-9" fill="#EBEBEC"></path>
                                <path d="M14.7034483,21.0907312 L18.4735632,21.0907312 C18.6817809,21.0907312 18.8505747,21.2593498 18.8505747,21.4673514 L18.8505747,22.9738322 C18.8505747,23.1818338 18.6817809,23.3504524 18.4735632,23.3504524 L14.7034483,23.3504524 C14.4952306,23.3504524 14.3264368,23.1818338 14.3264368,22.9738322 L14.3264368,21.4673514 C14.3264368,21.2593498 14.4952306,21.0907312 14.7034483,21.0907312 Z" id="Rectangle" fill="#EBEBEC"></path>
                                <path d="M2.63908046,21.0907312 L6.4091954,21.0907312 C6.6174131,21.0907312 6.7862069,21.2593498 6.7862069,21.4673514 L6.7862069,22.9738322 C6.7862069,23.1818338 6.6174131,23.3504524 6.4091954,23.3504524 L2.63908046,23.3504524 C2.43086276,23.3504524 2.26206897,23.1818338 2.26206897,22.9738322 L2.26206897,21.4673514 C2.26206897,21.2593498 2.43086276,21.0907312 2.63908046,21.0907312 Z" id="Rectangle-Copy-8" fill="#EBEBEC"></path>
                                <path d="M20.7356322,21.0907312 L24.5057471,21.0907312 C24.7139648,21.0907312 24.8827586,21.2593498 24.8827586,21.4673514 L24.8827586,22.9738322 C24.8827586,23.1818338 24.7139648,23.3504524 24.5057471,23.3504524 L20.7356322,23.3504524 C20.5274145,23.3504524 20.3586207,23.1818338 20.3586207,22.9738322 L20.3586207,21.4673514 C20.3586207,21.2593498 20.5274145,21.0907312 20.7356322,21.0907312 Z" id="Rectangle-Copy-7" fill="#EBEBEC"></path>
                                <path d="M8.67126437,21.0907312 L12.4413793,21.0907312 C12.649597,21.0907312 12.8183908,21.2593498 12.8183908,21.4673514 L12.8183908,22.9738322 C12.8183908,23.1818338 12.649597,23.3504524 12.4413793,23.3504524 L8.67126437,23.3504524 C8.46304667,23.3504524 8.29425287,23.1818338 8.29425287,22.9738322 L8.29425287,21.4673514 C8.29425287,21.2593498 8.46304667,21.0907312 8.67126437,21.0907312 Z" id="Rectangle-Copy-9" fill="#EBEBEC"></path>
                                <path d="M14.7034483,24.8569332 L18.4735632,24.8569332 C18.6817809,24.8569332 18.8505747,25.0255518 18.8505747,25.2335534 L18.8505747,26.7400342 C18.8505747,26.9480358 18.6817809,27.1166544 18.4735632,27.1166544 L14.7034483,27.1166544 C14.4952306,27.1166544 14.3264368,26.9480358 14.3264368,26.7400342 L14.3264368,25.2335534 C14.3264368,25.0255518 14.4952306,24.8569332 14.7034483,24.8569332 Z" id="Rectangle" fill="#EBEBEC"></path>
                                <path d="M2.63908046,24.8569332 L6.4091954,24.8569332 C6.6174131,24.8569332 6.7862069,25.0255518 6.7862069,25.2335534 L6.7862069,26.7400342 C6.7862069,26.9480358 6.6174131,27.1166544 6.4091954,27.1166544 L2.63908046,27.1166544 C2.43086276,27.1166544 2.26206897,26.9480358 2.26206897,26.7400342 L2.26206897,25.2335534 C2.26206897,25.0255518 2.43086276,24.8569332 2.63908046,24.8569332 Z" id="Rectangle-Copy-8" fill="#EBEBEC"></path>
                                <path d="M20.7356322,24.8569332 L24.5057471,24.8569332 C24.7139648,24.8569332 24.8827586,25.0255518 24.8827586,25.2335534 L24.8827586,26.7400342 C24.8827586,26.9480358 24.7139648,27.1166544 24.5057471,27.1166544 L20.7356322,27.1166544 C20.5274145,27.1166544 20.3586207,26.9480358 20.3586207,26.7400342 L20.3586207,25.2335534 C20.3586207,25.0255518 20.5274145,24.8569332 20.7356322,24.8569332 Z" id="Rectangle-Copy-7" fill="#EBEBEC"></path>
                                <path d="M8.67126437,24.8569332 L12.4413793,24.8569332 C12.649597,24.8569332 12.8183908,25.0255518 12.8183908,25.2335534 L12.8183908,26.7400342 C12.8183908,26.9480358 12.649597,27.1166544 12.4413793,27.1166544 L8.67126437,27.1166544 C8.46304667,27.1166544 8.29425287,26.9480358 8.29425287,26.7400342 L8.29425287,25.2335534 C8.29425287,25.0255518 8.46304667,24.8569332 8.67126437,24.8569332 Z" id="Rectangle-Copy-9" fill="#EBEBEC"></path>
                                <path d="M14.7034483,28.6231352 L18.4735632,28.6231352 C18.6817809,28.6231352 18.8505747,28.7917538 18.8505747,28.9997554 L18.8505747,30.5062362 C18.8505747,30.7142378 18.6817809,30.8828564 18.4735632,30.8828564 L14.7034483,30.8828564 C14.4952306,30.8828564 14.3264368,30.7142378 14.3264368,30.5062362 L14.3264368,28.9997554 C14.3264368,28.7917538 14.4952306,28.6231352 14.7034483,28.6231352 Z" id="Rectangle" fill="#EBEBEC"></path>
                                <path d="M2.63908046,28.6231352 L6.4091954,28.6231352 C6.6174131,28.6231352 6.7862069,28.7917538 6.7862069,28.9997554 L6.7862069,30.5062362 C6.7862069,30.7142378 6.6174131,30.8828564 6.4091954,30.8828564 L2.63908046,30.8828564 C2.43086276,30.8828564 2.26206897,30.7142378 2.26206897,30.5062362 L2.26206897,28.9997554 C2.26206897,28.7917538 2.43086276,28.6231352 2.63908046,28.6231352 Z" id="Rectangle-Copy-8" fill="#EBEBEC"></path>
                                <path d="M20.7356322,28.6231352 L24.5057471,28.6231352 C24.7139648,28.6231352 24.8827586,28.7917538 24.8827586,28.9997554 L24.8827586,30.5062362 C24.8827586,30.7142378 24.7139648,30.8828564 24.5057471,30.8828564 L20.7356322,30.8828564 C20.5274145,30.8828564 20.3586207,30.7142378 20.3586207,30.5062362 L20.3586207,28.9997554 C20.3586207,28.7917538 20.5274145,28.6231352 20.7356322,28.6231352 Z" id="Rectangle-Copy-7" fill="#EBEBEC"></path>
                                <path d="M8.67126437,28.6231352 L12.4413793,28.6231352 C12.649597,28.6231352 12.8183908,28.7917538 12.8183908,28.9997554 L12.8183908,30.5062362 C12.8183908,30.7142378 12.649597,30.8828564 12.4413793,30.8828564 L8.67126437,30.8828564 C8.46304667,30.8828564 8.29425287,30.7142378 8.29425287,30.5062362 L8.29425287,28.9997554 C8.29425287,28.7917538 8.46304667,28.6231352 8.67126437,28.6231352 Z" id="Rectangle-Copy-9" fill="#EBEBEC"></path>
                                <path d="M14.7034483,32.3893372 L18.4735632,32.3893372 C18.6817809,32.3893372 18.8505747,32.5579559 18.8505747,32.7659574 L18.8505747,34.2724382 C18.8505747,34.4804398 18.6817809,34.6490584 18.4735632,34.6490584 L14.7034483,34.6490584 C14.4952306,34.6490584 14.3264368,34.4804398 14.3264368,34.2724382 L14.3264368,32.7659574 C14.3264368,32.5579559 14.4952306,32.3893372 14.7034483,32.3893372 Z" id="Rectangle" fill="#EBEBEC"></path>
                                <path d="M2.63908046,32.3893372 L6.4091954,32.3893372 C6.6174131,32.3893372 6.7862069,32.5579559 6.7862069,32.7659574 L6.7862069,34.2724382 C6.7862069,34.4804398 6.6174131,34.6490584 6.4091954,34.6490584 L2.63908046,34.6490584 C2.43086276,34.6490584 2.26206897,34.4804398 2.26206897,34.2724382 L2.26206897,32.7659574 C2.26206897,32.5579559 2.43086276,32.3893372 2.63908046,32.3893372 Z" id="Rectangle-Copy-8" fill="#EBEBEC"></path>
                                <path d="M20.7356322,32.3893372 L24.5057471,32.3893372 C24.7139648,32.3893372 24.8827586,32.5579559 24.8827586,32.7659574 L24.8827586,34.2724382 C24.8827586,34.4804398 24.7139648,34.6490584 24.5057471,34.6490584 L20.7356322,34.6490584 C20.5274145,34.6490584 20.3586207,34.4804398 20.3586207,34.2724382 L20.3586207,32.7659574 C20.3586207,32.5579559 20.5274145,32.3893372 20.7356322,32.3893372 Z" id="Rectangle-Copy-7" fill="#EBEBEC"></path>
                                <path d="M8.67126437,32.3893372 L12.4413793,32.3893372 C12.649597,32.3893372 12.8183908,32.5579559 12.8183908,32.7659574 L12.8183908,34.2724382 C12.8183908,34.4804398 12.649597,34.6490584 12.4413793,34.6490584 L8.67126437,34.6490584 C8.46304667,34.6490584 8.29425287,34.4804398 8.29425287,34.2724382 L8.29425287,32.7659574 C8.29425287,32.5579559 8.46304667,32.3893372 8.67126437,32.3893372 Z" id="Rectangle-Copy-9" fill="#EBEBEC"></path>
                                <polygon id="Rectangle" fill="url(#linearGradient-22)" points="0 0 26.3908046 0 26.3908046 35.4022989 0 35.4022989"></polygon>
                            </g>
                            <polygon id="X" fill-opacity="0.8" fill="#CCCED3" fill-rule="nonzero" points="5.72212692 35.7349215 8.28553043 32.3263331 10.8489339 35.7349215 13.5178894 35.7349215 9.79341485 31.1921915 13.2540096 26.7234273 10.7358426 26.7234273 8.40616119 29.9655928 6.03124323 26.7234273 3.45276087 26.7234273 6.8756585 31.0874067 3.21903879 35.7349215"></polygon>
                        </g>
                        <g id="Trend" transform="translate(68.229885, 58.574713)">
                            <g id="base">
                                <g id="Path">
                                    <use fill="black" fill-opacity="1" filter="url(#filter-24)" xlink:href="#path-23"></use>
                                    <use fill="#FFFFFF" fill-rule="evenodd" xlink:href="#path-23"></use>
                                </g>
                                <g id="Path">
                                    <use fill="black" fill-opacity="1" filter="url(#filter-26)" xlink:href="#path-25"></use>
                                    <use fill="#FFFFFF" fill-rule="evenodd" xlink:href="#path-25"></use>
                                </g>
                                <path d="M3.2936121,-4.67091923e-15 L44.1344022,-4.67091923e-15 C45.9534139,-4.67091923e-15 47.4280143,1.47158057 47.4280143,3.2868672 L47.4280143,7.80630961 L0,7.80630961 L0,3.2868672 C0,1.47158057 1.47460037,-4.67091923e-15 3.2936121,-4.67091923e-15 Z" id="Path-Copy" fill="#E8E9EC"></path>
                            </g>
                            <g id="lines" transform="translate(5.269779, 13.804842)" fill="#CCCED3" fill-opacity="0.27" fill-rule="nonzero">
                                <path d="M36.3944137,17.5847395 C36.4853643,17.5847395 36.5590943,17.7022648 36.5590943,17.8472395 C36.5590943,17.9715036 36.5049253,18.0756007 36.4321735,18.1028067 L36.3944137,18.1097395 L5.55111512e-17,18.1097395 C-0.0909505868,18.1097395 -0.164680605,17.9922143 -0.164680605,17.8472395 C-0.164680605,17.7229755 -0.110511612,17.6188784 -0.0377597518,17.5916724 L5.55111512e-17,17.5847395 L36.3944137,17.5847395 Z" id="Line"></path>
                                <path d="M36.3944137,13.2296405 C36.4853643,13.2296405 36.5590943,13.3471658 36.5590943,13.4921405 C36.5590943,13.6164046 36.5049253,13.7205017 36.4321735,13.7477077 L36.3944137,13.7546405 L5.55111512e-17,13.7546405 C-0.0909505868,13.7546405 -0.164680605,13.6371152 -0.164680605,13.4921405 C-0.164680605,13.3678764 -0.110511612,13.2637793 -0.0377597518,13.2365733 L5.55111512e-17,13.2296405 L36.3944137,13.2296405 Z" id="Line-Copy"></path>
                                <path d="M36.3944137,8.87454145 C36.4853643,8.87454145 36.5590943,8.99206671 36.5590943,9.13704145 C36.5590943,9.26130552 36.5049253,9.36540262 36.4321735,9.39260864 L36.3944137,9.39954145 L5.55111512e-17,9.39954145 C-0.0909505868,9.39954145 -0.164680605,9.2820162 -0.164680605,9.13704145 C-0.164680605,9.01277738 -0.110511612,8.90868029 -0.0377597518,8.88147426 L5.55111512e-17,8.87454145 L36.3944137,8.87454145 Z" id="Line-Copy-2"></path>
                                <path d="M36.3944137,4.51944241 C36.4853643,4.51944241 36.5590943,4.63696766 36.5590943,4.78194241 C36.5590943,4.90620648 36.5049253,5.01030357 36.4321735,5.03750959 L36.3944137,5.04444241 L5.55111512e-17,5.04444241 C-0.0909505868,5.04444241 -0.164680605,4.92691715 -0.164680605,4.78194241 C-0.164680605,4.65767834 -0.110511612,4.55358124 -0.0377597518,4.52637522 L5.55111512e-17,4.51944241 L36.3944137,4.51944241 Z" id="Line-Copy-3"></path>
                                <path d="M36.3944137,0.16434336 C36.4853643,0.16434336 36.5590943,0.281868613 36.5590943,0.42684336 C36.5590943,0.551107429 36.5049253,0.655204523 36.4321735,0.682410548 L36.3944137,0.68934336 L5.55111512e-17,0.68934336 C-0.0909505868,0.68934336 -0.164680605,0.571818107 -0.164680605,0.42684336 C-0.164680605,0.302579292 -0.110511612,0.198482198 -0.0377597518,0.171276172 L5.55111512e-17,0.16434336 L36.3944137,0.16434336 Z" id="Line-Copy-4"></path>
                            </g>
                            <g id="Group" transform="translate(15.150616, 34.183419)">
                                <path d="M2.63488968,0 L6.5872242,0 C6.95102655,0 7.24594662,0.294316115 7.24594662,0.657373441 C7.24594662,1.02043077 6.95102655,1.31474688 6.5872242,1.31474688 L2.63488968,1.31474688 C2.27108733,1.31474688 1.97616726,1.02043077 1.97616726,0.657373441 C1.97616726,0.294316115 2.27108733,0 2.63488968,0 Z" id="Rectangle-Copy-2" fill-opacity="0.35" fill="#67696F"></path>
                                <path d="M12.515726,0 L16.4680605,0 C16.8318629,0 17.1267829,0.294316115 17.1267829,0.657373441 C17.1267829,1.02043077 16.8318629,1.31474688 16.4680605,1.31474688 L12.515726,1.31474688 C12.1519236,1.31474688 11.8570036,1.02043077 11.8570036,0.657373441 C11.8570036,0.294316115 12.1519236,0 12.515726,0 Z" id="Rectangle-Copy-5" fill-opacity="0.35" fill="#67696F"></path>
                                <path d="M0.65872242,0 C1.02252477,0 1.31744484,0.294316115 1.31744484,0.657373441 C1.31744484,1.02043077 1.02252477,1.31474688 0.65872242,1.31474688 C0.294920073,1.31474688 0,1.02043077 0,0.657373441 C0,0.294316115 0.294920073,0 0.65872242,0 Z" id="Rectangle-Copy-4" fill="#DFE0E1" opacity="0.647623698"></path>
                                <path d="M10.5395587,0 C10.9033611,0 11.1982811,0.294316115 11.1982811,0.657373441 C11.1982811,1.02043077 10.9033611,1.31474688 10.5395587,1.31474688 C10.1757564,1.31474688 9.88083631,1.02043077 9.88083631,0.657373441 C9.88083631,0.294316115 10.1757564,0 10.5395587,0 Z" id="Rectangle-Copy-6" fill="#ACAEB2" opacity="0.647623698"></path>
                            </g>
                            <path d="M38.0412198,23.2710198 C35.6495445,23.2710198 33.9651676,21.4448593 32.4159307,18.0031375 L32.2087327,17.529273 C32.15754,17.3776908 30.4455109,13.013668 30.0495967,12.450862 C29.8756316,12.2035644 29.7322427,12.0956713 29.6283567,12.0956713 C29.1331337,12.0956713 28.5554897,13.1199919 27.7403851,15.301219 L27.0186426,17.2866938 L26.8693386,17.6818652 C26.7264919,18.0525092 26.6016043,18.3525632 26.4819632,18.6089564 C26.2887411,19.0230351 26.1124306,19.3151298 25.9332913,19.4964357 C25.6799473,19.7528436 25.3772415,19.8117334 25.1121655,19.5964709 C24.8833829,19.4106815 24.6760827,19.1944209 24.4175146,18.884461 L24.2402715,18.6674483 C24.1506702,18.5560679 23.9994187,18.3677861 23.9478163,18.3049675 C23.8191204,18.1482986 23.7163113,18.0312807 23.61937,17.933363 C23.1840829,17.4936912 22.9200464,17.4688229 22.5107639,17.9245751 C22.3323763,18.1232168 22.0915583,18.5653676 21.7546662,19.3011072 L21.5078233,19.8548004 C21.2293072,20.4951371 20.5649853,22.0430261 20.3474472,22.5321179 L20.1151511,23.0475855 C19.2391417,24.9643723 18.5246289,26.2047688 17.806599,26.909897 C17.2733846,27.4335306 16.7376448,27.6390129 16.212168,27.4455178 C15.3657382,27.133839 14.7800014,26.5554047 13.722831,25.1462833 L13.3613156,24.6581816 C12.0241719,22.8421956 11.3288259,22.202788 10.3748781,22.202788 C8.94008931,22.202788 7.28159307,24.6791811 5.51816358,29.650296 C5.46960108,29.7871939 5.31902799,29.8588845 5.18184918,29.8104214 C5.04467036,29.7619584 4.97283265,29.6116936 5.02139515,29.4747957 L5.22195701,28.9186055 C6.99028663,24.0962616 8.67249951,21.6768892 10.3748781,21.6768892 C11.4941,21.6768892 12.2405736,22.2969124 13.5145668,23.9826511 L14.1422634,24.8277667 C15.1346284,26.1499415 15.6774879,26.688077 16.3945918,26.9521344 C16.6924511,27.0618144 17.033959,26.9308295 17.4369775,26.5350526 C18.1244773,25.8599058 18.8489215,24.5770645 19.7519649,22.57303 L20.0424236,21.9158662 C20.3861767,21.1259625 20.9841993,19.7324312 21.1226473,19.4211773 L21.2819589,19.0679114 C21.6387802,18.2889574 21.8945476,17.8227739 22.1183233,17.5735908 C22.7515541,16.8684632 23.3628966,16.9260427 23.9942421,17.5637479 C24.082543,17.6529382 24.172271,17.7528043 24.2753544,17.8752797 L24.7126424,18.4144393 L24.9187137,18.6615346 C25.1127025,18.8868032 25.2748476,19.0505635 25.4447803,19.1885621 C25.4711468,19.2099738 25.4774757,19.2087426 25.5580492,19.1271946 C25.6844814,18.9992333 25.8345337,18.7506407 26.0042434,18.3869495 C26.1184536,18.1421948 26.2393686,17.8515466 26.3786593,17.4900192 L27.2473119,15.114395 C28.1794378,12.6070146 28.7798422,11.5697726 29.6283567,11.5697726 C29.9451233,11.5697726 30.2181954,11.7752459 30.4809033,12.1486944 C30.9278825,12.7840911 32.7545698,17.4504635 32.6960994,17.3307672 L32.7944735,17.5578344 L33.0043518,18.0235682 C34.4078298,21.0572787 35.9037484,22.6655961 37.8912307,22.7422459 L38.0412198,22.7451211 L42.4270883,22.7451211 L42.4270883,23.2710198 L38.0412198,23.2710198 Z" id="Path-11" fill-opacity="0.328288899" fill="#9EA0A5" fill-rule="nonzero"></path>
                            <path d="M30.7357663,22.4455254 L30.7826743,22.1862886 C31.6099272,17.5204084 34.2424974,16.7561759 35.0646236,20.4988389 L35.0965345,20.6509506 C35.6235702,23.2840364 37.0982616,25.2303856 38.7241165,26.3285125 C39.3181358,26.7297221 40.4676813,26.9406998 42.1582349,26.9406998 C42.3037558,26.9406998 42.4217239,27.0584263 42.4217239,27.2036492 C42.4217239,27.3488721 42.3037558,27.4665986 42.1582349,27.4665986 C40.3707685,27.4665986 39.1324452,27.2393273 38.4287469,26.764039 C36.7519455,25.631502 35.2372894,23.667263 34.6367448,21.0208709 L34.5797652,20.7539634 C33.944518,17.5802499 32.110447,18.0212734 31.3365495,22.0876618 L31.3015922,22.2779155 C30.3645774,27.5628756 28.7972509,29.8303183 25.539646,29.8303183 C23.5119012,29.8303183 22.2501899,29.0363494 21.2335911,27.5364046 L21.1399932,27.3929471 C20.906677,27.0265271 20.498398,26.3400916 20.3718899,26.1400729 L19.9286221,25.4740752 C19.8821605,25.4058176 19.8383377,25.3423792 19.7946077,25.2801358 C18.8430892,23.9257872 17.9624309,23.2758429 16.6740721,23.2758429 C15.770067,23.2758429 14.9812913,24.0676205 13.5757063,26.1275084 L12.6811246,27.4407515 C12.4476936,27.7747888 12.3016379,27.9669149 12.0953462,28.2228362 C11.8583297,28.5168741 11.6352977,28.7604882 11.4170182,28.9591825 C10.2270195,30.0424081 8.19131257,30.7849155 5.30761905,31.2025239 C5.16360653,31.2233794 5.02991991,31.1237799 5.00902163,30.9800623 C4.98812335,30.8363447 5.08792716,30.7029319 5.23193968,30.6820764 C8.02093549,30.2781819 9.96500988,29.5690967 11.0618844,28.5706397 C11.2188318,28.4277744 11.3816721,28.2556199 11.5538219,28.0519254 L11.8149837,27.7296219 C12.0506042,27.4292521 12.2461991,27.1512924 12.7240042,26.4461477 L13.0050963,26.0304549 C14.6129981,23.6493901 15.4779147,22.7499441 16.6740721,22.7499441 C18.1726875,22.7499441 19.1859842,23.4977783 20.2260963,24.9782271 L20.4378241,25.2869339 L20.7881518,25.8138738 C20.889638,25.9657437 21.4038934,26.8339284 21.6291159,27.1799035 L21.6700987,27.2417688 C22.5955748,28.6072662 23.7034345,29.3044196 25.539646,29.3044196 C28.4143687,29.3044196 29.8354727,27.3202203 30.7357663,22.4455254 Z" id="Path-12" fill-opacity="0.851207386" fill="#9EA0A5" fill-rule="nonzero"></path>
                        </g>
                        <g id="Pages" transform="translate(13.517241, 10.942529)">
                            <g id="Rectangle-Copy-11">
                                <use fill="black" fill-opacity="1" filter="url(#filter-29)" xlink:href="#path-28"></use>
                                <use fill="url(#linearGradient-27)" fill-rule="evenodd" xlink:href="#path-28"></use>
                            </g>
                            <g id="Rectangle-Copy-11">
                                <use fill="black" fill-opacity="1" filter="url(#filter-32)" xlink:href="#path-31"></use>
                                <use fill="url(#linearGradient-30)" fill-rule="evenodd" xlink:href="#path-31"></use>
                            </g>
                        </g>
                        <g id="doc" transform="translate(116.505747, 42.482759)">
                            <g id="Rectangle-Copy-11">
                                <use fill="black" fill-opacity="1" filter="url(#filter-34)" xlink:href="#path-33"></use>
                                <use fill="#FFFFFF" fill-rule="evenodd" xlink:href="#path-33"></use>
                            </g>
                            <g id="Rectangle-Copy-12" transform="translate(28.024132, 14.394039) scale(-1, -1) rotate(27.000000) translate(-28.024132, -14.394039) ">
                                <use fill="black" fill-opacity="1" filter="url(#filter-36)" xlink:href="#path-35"></use>
                                <use fill="#CCCED3" fill-rule="evenodd" xlink:href="#path-35"></use>
                            </g>
                        </g>
                    </g>
                </g>
            </g>
        </g>
    </g>
</svg>
