<?xml version="1.0" encoding="UTF-8"?>
<svg width="274px" height="177px" viewBox="0 0 274 177" version="1.1" xmlns="http://www.w3.org/2000/svg" xmlns:xlink="http://www.w3.org/1999/xlink">
    <defs>
        <path d="M10.7141976,7.02796204 L37.2150064,11.4638324 C39.0328644,13.0056306 40.0912268,16.8913062 40.3900937,23.1208591 C40.6741659,29.0420331 38.4816498,34.6194559 33.8125453,39.8531275 C33.3579013,40.3627786 32.6746157,40.6051781 32.0004295,40.4960069 L19.7259693,38.5083996 C15.1083928,37.7606739 11.9712589,33.4112372 12.7189845,28.7936607 C12.7925046,28.3396376 12.902885,27.8923574 13.0490533,27.4562645 C13.7331688,25.4148556 14.1121036,23.1542373 14.1858579,20.6744095 C14.392362,13.7311614 13.2351419,9.18234552 10.7141976,7.02796204 Z" id="path-1"></path>
        <filter x="-32.8%" y="-34.2%" width="178.4%" height="191.7%" filterUnits="objectBoundingBox" id="filter-2">
            <feOffset dx="0" dy="4" in="SourceAlpha" result="shadowOffsetOuter1"></feOffset>
            <feGaussianBlur stdDeviation="4.5" in="shadowOffsetOuter1" result="shadowBlurOuter1"></feGaussianBlur>
            <feColorMatrix values="0 0 0 0 0   0 0 0 0 0   0 0 0 0 0  0 0 0 0.25 0" type="matrix" in="shadowBlurOuter1"></feColorMatrix>
        </filter>
        <path d="M20.9975806,9.40536328 L41.4440987,18.6196789 L41.4440987,18.6196789 C41.8958223,18.9933472 42.2780486,19.4870638 42.5907774,20.1008287 C42.9035063,20.7145937 42.8914805,21.5504126 42.5547002,22.6082855 L16.7902455,15.9255571 C19.9162137,16.0100604 20.9860596,14.5931072 19.9997831,11.6746976 C19.8755087,11.3069672 19.7573759,10.9668934 19.6453849,10.6544762 C19.4590537,10.13459 19.7294237,9.56207371 20.2493002,9.37571553 C20.4931517,9.288303 20.7614094,9.29893169 20.9975806,9.40536328 Z" id="path-3"></path>
        <filter x="-28.8%" y="-35.6%" width="142.3%" height="166.4%" filterUnits="objectBoundingBox" id="filter-4">
            <feOffset dx="-2" dy="-1" in="SourceAlpha" result="shadowOffsetOuter1"></feOffset>
            <feGaussianBlur stdDeviation="1.5" in="shadowOffsetOuter1" result="shadowBlurOuter1"></feGaussianBlur>
            <feColorMatrix values="0 0 0 0 0   0 0 0 0 0   0 0 0 0 0  0 0 0 0.15 0" type="matrix" in="shadowBlurOuter1"></feColorMatrix>
        </filter>
        <path d="M3.26251765,0.500614364 L32.9643795,0.500614364 C33.461467,0.500614364 33.8644359,0.906100808 33.8644359,1.40629369 L33.8644359,43.9732218 C33.8644359,44.4734147 33.461467,44.8789011 32.9643795,44.8789011 L3.26251765,44.8789011 C2.76543021,44.8789011 2.36246123,44.4734147 2.36246123,43.9732218 L2.36246123,1.40629369 C2.36246123,0.906100808 2.76543021,0.500614364 3.26251765,0.500614364 Z" id="path-5"></path>
        <filter x="-23.8%" y="-10.1%" width="147.6%" height="133.8%" filterUnits="objectBoundingBox" id="filter-6">
            <feOffset dx="0" dy="3" in="SourceAlpha" result="shadowOffsetOuter1"></feOffset>
            <feGaussianBlur stdDeviation="2" in="shadowOffsetOuter1" result="shadowBlurOuter1"></feGaussianBlur>
            <feColorMatrix values="0 0 0 0 0   0 0 0 0 0   0 0 0 0 0  0 0 0 0.25 0" type="matrix" in="shadowBlurOuter1"></feColorMatrix>
        </filter>
        <path d="M2.3695645,1.58988425 L32.0714264,1.58988425 C32.5685138,1.58988425 32.9714828,1.9953707 32.9714828,2.49556357 L32.9714828,45.0624917 C32.9714828,45.5626846 32.5685138,45.968171 32.0714264,45.968171 L2.3695645,45.968171 C1.87247706,45.968171 1.46950808,45.5626846 1.46950808,45.0624917 L1.46950808,2.49556357 C1.46950808,1.9953707 1.87247706,1.58988425 2.3695645,1.58988425 Z" id="path-7"></path>
        <filter x="-49.2%" y="-25.9%" width="198.4%" height="169.9%" filterUnits="objectBoundingBox" id="filter-9">
            <feOffset dx="0" dy="4" in="SourceAlpha" result="shadowOffsetOuter1"></feOffset>
            <feGaussianBlur stdDeviation="4.5" in="shadowOffsetOuter1" result="shadowBlurOuter1"></feGaussianBlur>
            <feColorMatrix values="0 0 0 0 0   0 0 0 0 0   0 0 0 0 0  0 0 0 0.25 0" type="matrix" in="shadowBlurOuter1"></feColorMatrix>
        </filter>
        <linearGradient x1="50%" y1="1.00031672%" x2="50%" y2="99.3243243%" id="linearGradient-10">
            <stop stop-color="#FFFFFF" stop-opacity="0" offset="0%"></stop>
            <stop stop-color="#F1F2F5" offset="100%"></stop>
        </linearGradient>
        <path d="M115.895402,67.7701149 L142.071949,67.7701149 C142.62424,67.7701031 143.071961,68.2178236 143.071961,68.7701149 C143.071961,68.931055 143.033117,69.0896177 142.958728,69.2323343 C139.888686,75.1222846 138.353665,81.2152787 138.353665,87.5113164 C138.353665,93.7763943 139.873626,99.7100558 142.91355,105.312301 C143.176995,105.797726 142.997005,106.404793 142.511563,106.668206 C142.365144,106.747657 142.201197,106.789272 142.034611,106.789272 L115.827531,106.789272 C115.478834,106.789254 115.155319,106.607615 114.973772,106.309907 C111.571079,100.730027 109.869732,94.7791809 109.869732,88.4573688 C109.869732,82.1225509 111.578086,75.415239 114.994795,68.3354331 C115.161654,67.9897942 115.511595,67.7701149 115.895402,67.7701149 Z" id="path-11"></path>
        <filter x="-35.4%" y="-20.5%" width="157.0%" height="151.3%" filterUnits="objectBoundingBox" id="filter-12">
            <feOffset dx="-2" dy="2" in="SourceAlpha" result="shadowOffsetOuter1"></feOffset>
            <feGaussianBlur stdDeviation="3" in="shadowOffsetOuter1" result="shadowBlurOuter1"></feGaussianBlur>
            <feColorMatrix values="0 0 0 0 0   0 0 0 0 0   0 0 0 0 0  0 0 0 0.25 0" type="matrix" in="shadowBlurOuter1"></feColorMatrix>
        </filter>
        <path d="M5.84898199,0 L62.315238,0 C64.8301938,0 66.8689683,2.0292134 66.8689683,4.532375 C66.8689683,7.3776993 66.8689683,9.45503784 66.8689683,10.7643906 C66.8689683,19.3255434 66.8689683,32.0539632 66.8689683,48.9496499 C66.8689683,51.4528115 64.8301938,53.4820249 62.315238,53.4820249 L5.84898199,53.4820249 C3.33402618,53.4820249 1.29525167,51.4528115 1.29525167,48.9496499 C1.29525167,31.902884 1.29525167,19.1744642 1.29525167,10.7643906 C1.29525167,9.30395867 1.29525167,7.22662013 1.29525167,4.532375 C1.29525167,2.0292134 3.33402618,0 5.84898199,0 Z" id="path-13"></path>
        <filter x="-23.6%" y="-21.5%" width="147.3%" height="158.0%" filterUnits="objectBoundingBox" id="filter-14">
            <feOffset dx="0" dy="4" in="SourceAlpha" result="shadowOffsetOuter1"></feOffset>
            <feGaussianBlur stdDeviation="4.5" in="shadowOffsetOuter1" result="shadowBlurOuter1"></feGaussianBlur>
            <feColorMatrix values="0 0 0 0 0   0 0 0 0 0   0 0 0 0 0  0 0 0 0.25 0" type="matrix" in="shadowBlurOuter1"></feColorMatrix>
        </filter>
        <path d="M4.55373032,0 L61.0199864,0 C63.5349422,0 65.5737167,2.0292134 65.5737167,4.532375 C65.5737167,7.3776993 65.5737167,9.45503784 65.5737167,10.7643906 C65.5737167,19.3255434 65.5737167,32.0539632 65.5737167,48.9496499 C65.5737167,51.4528115 63.5349422,53.4820249 61.0199864,53.4820249 L4.55373032,53.4820249 C2.03877451,53.4820249 0,51.4528115 0,48.9496499 C0,31.902884 0,19.1744642 0,10.7643906 C0,9.30395867 0,7.22662013 0,4.532375 C0,2.0292134 2.03877451,0 4.55373032,0 Z" id="path-15"></path>
        <filter x="-23.6%" y="-21.5%" width="147.3%" height="158.0%" filterUnits="objectBoundingBox" id="filter-16">
            <feOffset dx="0" dy="4" in="SourceAlpha" result="shadowOffsetOuter1"></feOffset>
            <feGaussianBlur stdDeviation="4.5" in="shadowOffsetOuter1" result="shadowBlurOuter1"></feGaussianBlur>
            <feColorMatrix values="0 0 0 0 0   0 0 0 0 0   0 0 0 0 0  0 0 0 0.25 0" type="matrix" in="shadowBlurOuter1"></feColorMatrix>
        </filter>
        <path d="M8.86499235,0.466740733 L36.2401172,0.466740733 C37.4032842,0.466740733 38.3462174,1.40574929 38.3462174,2.56407504 L38.3462174,47.6567627 C38.3462174,48.8150885 37.4032842,49.7540971 36.2401172,49.7540971 L4.64861303,49.7540971 C3.48544596,49.7540971 2.54251275,48.8150885 2.54251275,47.6567627 L2.54251275,6.05455148 L8.86499235,0.466740733 Z" id="path-17"></path>
        <filter x="-43.3%" y="-23.3%" width="186.6%" height="162.9%" filterUnits="objectBoundingBox" id="filter-18">
            <feOffset dx="0" dy="4" in="SourceAlpha" result="shadowOffsetOuter1"></feOffset>
            <feGaussianBlur stdDeviation="4.5" in="shadowOffsetOuter1" result="shadowBlurOuter1"></feGaussianBlur>
            <feColorMatrix values="0 0 0 0 0   0 0 0 0 0   0 0 0 0 0  0 0 0 0.25 0" type="matrix" in="shadowBlurOuter1"></feColorMatrix>
        </filter>
        <path d="M7.62123009,1.17404157 L34.9963549,1.17404157 C36.159522,1.17404157 37.1024552,2.11305012 37.1024552,3.27137588 L37.1024552,48.3640636 C37.1024552,49.5223893 36.159522,50.4613979 34.9963549,50.4613979 L3.40485077,50.4613979 C2.2416837,50.4613979 1.29875049,49.5223893 1.29875049,48.3640636 L1.29875049,6.76185231 L7.62123009,1.17404157 Z" id="path-19"></path>
        <filter x="-43.3%" y="-23.3%" width="186.6%" height="162.9%" filterUnits="objectBoundingBox" id="filter-20">
            <feOffset dx="0" dy="4" in="SourceAlpha" result="shadowOffsetOuter1"></feOffset>
            <feGaussianBlur stdDeviation="4.5" in="shadowOffsetOuter1" result="shadowBlurOuter1"></feGaussianBlur>
            <feColorMatrix values="0 0 0 0 0   0 0 0 0 0   0 0 0 0 0  0 0 0 0.25 0" type="matrix" in="shadowBlurOuter1"></feColorMatrix>
        </filter>
        <path d="M7.42465006,4.37134564 L11.5158152,7.92774127 L11.5158152,7.92774127 L1.42079921,7.96199768 L4.65327034,4.51308231 C5.3887056,3.72840276 6.61299964,3.66578869 7.42465006,4.37134564 Z" id="path-21"></path>
        <filter x="-19.8%" y="-45.9%" width="139.6%" height="166.5%" filterUnits="objectBoundingBox" id="filter-22">
            <feOffset dx="0" dy="-1" in="SourceAlpha" result="shadowOffsetOuter1"></feOffset>
            <feGaussianBlur stdDeviation="0.5" in="shadowOffsetOuter1" result="shadowBlurOuter1"></feGaussianBlur>
            <feColorMatrix values="0 0 0 0 0   0 0 0 0 0   0 0 0 0 0  0 0 0 0.17 0" type="matrix" in="shadowBlurOuter1"></feColorMatrix>
        </filter>
        <path d="M4.47144607,0.686117401 L45.1793557,0.686117401 C45.8606392,0.686117401 46.4129287,1.24185716 46.4129287,1.92739689 L46.4129287,60.2675329 C46.4129287,60.9530727 45.8606392,61.5088124 45.1793557,61.5088124 L4.47144607,61.5088124 C3.7901625,61.5088124 3.23787305,60.9530727 3.23787305,60.2675329 L3.23787305,1.92739689 C3.23787305,1.24185716 3.7901625,0.686117401 4.47144607,0.686117401 Z" id="path-23"></path>
        <filter x="-17.4%" y="-7.4%" width="134.7%" height="124.7%" filterUnits="objectBoundingBox" id="filter-24">
            <feOffset dx="0" dy="3" in="SourceAlpha" result="shadowOffsetOuter1"></feOffset>
            <feGaussianBlur stdDeviation="2" in="shadowOffsetOuter1" result="shadowBlurOuter1"></feGaussianBlur>
            <feColorMatrix values="0 0 0 0 0   0 0 0 0 0   0 0 0 0 0  0 0 0 0.25 0" type="matrix" in="shadowBlurOuter1"></feColorMatrix>
        </filter>
        <path d="M3.24760844,2.17901708 L43.955518,2.17901708 C44.6368016,2.17901708 45.1890911,2.73475684 45.1890911,3.42029657 L45.1890911,61.7604326 C45.1890911,62.4459724 44.6368016,63.0017121 43.955518,63.0017121 L3.24760844,63.0017121 C2.56632488,63.0017121 2.01403543,62.4459724 2.01403543,61.7604326 L2.01403543,3.42029657 C2.01403543,2.73475684 2.56632488,2.17901708 3.24760844,2.17901708 Z" id="path-25"></path>
        <filter x="-35.9%" y="-18.9%" width="171.8%" height="151.0%" filterUnits="objectBoundingBox" id="filter-27">
            <feOffset dx="0" dy="4" in="SourceAlpha" result="shadowOffsetOuter1"></feOffset>
            <feGaussianBlur stdDeviation="4.5" in="shadowOffsetOuter1" result="shadowBlurOuter1"></feGaussianBlur>
            <feColorMatrix values="0 0 0 0 0   0 0 0 0 0   0 0 0 0 0  0 0 0 0.25 0" type="matrix" in="shadowBlurOuter1"></feColorMatrix>
        </filter>
        <linearGradient x1="50%" y1="1.00031672%" x2="50%" y2="99.3243243%" id="linearGradient-28">
            <stop stop-color="#FFFFFF" stop-opacity="0" offset="0%"></stop>
            <stop stop-color="#F1F2F5" offset="100%"></stop>
        </linearGradient>
        <path d="M6.84482589,0 L72.1339344,0 C75.0418521,0 77.3991851,2.34752139 77.3991851,5.24333578 C77.3991851,8.53498546 77.3991851,10.938181 77.3991851,12.4529225 C77.3991851,22.3570012 77.3991851,37.0820358 77.3991851,56.6280264 C77.3991851,59.5238408 75.0418521,61.8713622 72.1339344,61.8713622 L6.84482589,61.8713622 C3.93690824,61.8713622 1.57957521,59.5238408 1.57957521,56.6280264 C1.57957521,36.907258 1.57957521,22.1822233 1.57957521,12.4529225 C1.57957521,10.7634032 1.57957521,8.3602076 1.57957521,5.24333578 C1.57957521,2.34752139 3.93690824,0 6.84482589,0 Z" id="path-29"></path>
        <filter x="-20.4%" y="-18.6%" width="140.9%" height="150.1%" filterUnits="objectBoundingBox" id="filter-30">
            <feOffset dx="0" dy="4" in="SourceAlpha" result="shadowOffsetOuter1"></feOffset>
            <feGaussianBlur stdDeviation="4.5" in="shadowOffsetOuter1" result="shadowBlurOuter1"></feGaussianBlur>
            <feColorMatrix values="0 0 0 0 0   0 0 0 0 0   0 0 0 0 0  0 0 0 0.25 0" type="matrix" in="shadowBlurOuter1"></feColorMatrix>
        </filter>
        <path d="M5.26525069,0 L70.5543592,0 C73.4622769,0 75.8196099,2.34752139 75.8196099,5.24333578 C75.8196099,8.53498546 75.8196099,10.938181 75.8196099,12.4529225 C75.8196099,22.3570012 75.8196099,37.0820358 75.8196099,56.6280264 C75.8196099,59.5238408 73.4622769,61.8713622 70.5543592,61.8713622 L5.26525069,61.8713622 C2.35733303,61.8713622 0,59.5238408 0,56.6280264 C0,36.907258 0,22.1822233 0,12.4529225 C0,10.7634032 0,8.3602076 0,5.24333578 C0,2.34752139 2.35733303,0 5.26525069,0 Z" id="path-31"></path>
        <filter x="-20.4%" y="-18.6%" width="140.9%" height="150.1%" filterUnits="objectBoundingBox" id="filter-32">
            <feOffset dx="0" dy="4" in="SourceAlpha" result="shadowOffsetOuter1"></feOffset>
            <feGaussianBlur stdDeviation="4.5" in="shadowOffsetOuter1" result="shadowBlurOuter1"></feGaussianBlur>
            <feColorMatrix values="0 0 0 0 0   0 0 0 0 0   0 0 0 0 0  0 0 0 0.25 0" type="matrix" in="shadowBlurOuter1"></feColorMatrix>
        </filter>
        <path d="M18.5484446,7.18773946 L51.1862861,7.18773946 C51.7385768,7.18772869 52.1862968,7.63544876 52.1862968,8.18773946 C52.1862968,8.34937839 52.1471148,8.50860844 52.0721069,8.65179003 C48.1839862,16.0737798 46.2399258,23.7560156 46.2399258,31.6984974 C46.2399258,39.6094727 48.1685932,47.0948516 52.0259281,54.1546341 C52.2907076,54.6392933 52.1124882,55.2468417 51.6278414,55.5116438 C51.4808016,55.5919836 51.3159312,55.6340873 51.1483748,55.6340873 L18.4806184,55.6340873 C18.1309925,55.6341098 17.8067529,55.4515154 17.62549,55.152547 C13.4051761,48.1917168 11.2950192,40.7652411 11.2950192,32.8731199 C11.2950192,24.9678651 13.4122052,16.5954138 17.6465772,7.75576585 C17.8128197,7.40862805 18.1635535,7.18773946 18.5484446,7.18773946 Z" id="path-33"></path>
        <filter x="-28.9%" y="-16.5%" width="146.5%" height="141.3%" filterUnits="objectBoundingBox" id="filter-34">
            <feOffset dx="-2" dy="2" in="SourceAlpha" result="shadowOffsetOuter1"></feOffset>
            <feGaussianBlur stdDeviation="3" in="shadowOffsetOuter1" result="shadowBlurOuter1"></feGaussianBlur>
            <feColorMatrix values="0 0 0 0 0   0 0 0 0 0   0 0 0 0 0  0 0 0 0.25 0" type="matrix" in="shadowBlurOuter1"></feColorMatrix>
        </filter>
        <path d="M18.5484446,7.18773946 L51.1862861,7.18773946 C51.7385768,7.18772869 52.1862968,7.63544876 52.1862968,8.18773946 C52.1862968,8.34937839 52.1471148,8.50860844 52.0721069,8.65179003 C48.1839862,16.0737798 46.2399258,23.7560156 46.2399258,31.6984974 C46.2399258,39.6094727 48.1685932,47.0948516 52.0259281,54.1546341 C52.2907076,54.6392933 52.1124882,55.2468417 51.6278414,55.5116438 C51.4808016,55.5919836 51.3159312,55.6340873 51.1483748,55.6340873 L18.4806184,55.6340873 C18.1309925,55.6341098 17.8067529,55.4515154 17.62549,55.152547 C13.4051761,48.1917168 11.2950192,40.7652411 11.2950192,32.8731199 C11.2950192,24.9678651 13.4122052,16.5954138 17.6465772,7.75576585 C17.8128197,7.40862805 18.1635535,7.18773946 18.5484446,7.18773946 Z" id="path-35"></path>
        <filter x="-28.9%" y="-16.5%" width="146.5%" height="141.3%" filterUnits="objectBoundingBox" id="filter-36">
            <feOffset dx="-2" dy="2" in="SourceAlpha" result="shadowOffsetOuter1"></feOffset>
            <feGaussianBlur stdDeviation="3" in="shadowOffsetOuter1" result="shadowBlurOuter1"></feGaussianBlur>
            <feColorMatrix values="0 0 0 0 0   0 0 0 0 0   0 0 0 0 0  0 0 0 0.25 0" type="matrix" in="shadowBlurOuter1"></feColorMatrix>
        </filter>
        <path d="M16.0712964,10.5419431 L55.8225096,17.1957486 C58.5492965,19.5084459 60.1368402,25.3369593 60.5851406,34.6812886 C61.0189342,43.7232418 57.602633,52.2308007 50.336237,60.2039652 C49.8812775,60.7031876 49.2050766,60.9390445 48.5383275,60.8310776 L11.879177,54.8948495 C11.3339855,54.8065782 10.9635893,54.2930474 11.0518721,53.7478578 C11.0906006,53.5086896 11.2148422,53.2917152 11.4015076,53.1372569 C17.7027311,47.9232442 20.9951576,40.54803 21.2787869,31.0116143 C21.588543,20.596742 19.8527129,13.7735183 16.0712964,10.5419431 Z" id="path-37"></path>
        <filter x="-27.5%" y="-22.8%" width="157.9%" height="161.1%" filterUnits="objectBoundingBox" id="filter-38">
            <feOffset dx="0" dy="4" in="SourceAlpha" result="shadowOffsetOuter1"></feOffset>
            <feGaussianBlur stdDeviation="4.5" in="shadowOffsetOuter1" result="shadowBlurOuter1"></feGaussianBlur>
            <feColorMatrix values="0 0 0 0 0   0 0 0 0 0   0 0 0 0 0  0 0 0 0.25 0" type="matrix" in="shadowBlurOuter1"></feColorMatrix>
        </filter>
        <path d="M30.4083809,13.6177373 L62.166148,27.9295183 L62.166148,27.9295183 C62.8437335,28.4900208 63.4170729,29.2305957 63.8861661,30.1512431 C64.3552594,31.0718905 64.3372208,32.3256189 63.8320504,33.9124282 L25.1853682,23.8883356 C29.8743206,24.0150906 31.4790894,21.8896608 29.9996747,17.5120464 C29.6563601,16.4961724 29.3442933,15.6210094 29.0634743,14.8865574 C28.8662513,14.3706971 29.1245412,13.7926214 29.6403958,13.5953835 C29.8891539,13.5002705 30.1655762,13.5083163 30.4083809,13.6177373 Z" id="path-39"></path>
        <filter x="-19.2%" y="-22.7%" width="128.2%" height="143.3%" filterUnits="objectBoundingBox" id="filter-40">
            <feOffset dx="-2" dy="-1" in="SourceAlpha" result="shadowOffsetOuter1"></feOffset>
            <feGaussianBlur stdDeviation="1.5" in="shadowOffsetOuter1" result="shadowBlurOuter1"></feGaussianBlur>
            <feColorMatrix values="0 0 0 0 0   0 0 0 0 0   0 0 0 0 0  0 0 0 0.15 0" type="matrix" in="shadowBlurOuter1"></feColorMatrix>
        </filter>
    </defs>
    <g id="In-App-generic-empty-states" stroke="none" stroke-width="1" fill="none" fill-rule="evenodd" opacity="0.5">
        <g id="Generic-Empty-State_Too-much-data-" transform="translate(-762.000000, -589.000000)">
            <g id="Dark" transform="translate(683.000000, -39.000000)">
                <g id="Too-much-data_M" transform="translate(79.000000, 595.000000)">
                    <g id="Too-much-data-dark_M-drawing" transform="translate(0.000000, 41.000000)">
                        <path d="M68.3252285,20.5557066 C118.01323,22.0374446 170.234584,18.0854723 217.723322,29.7043294 C254.599544,38.7266698 238.406408,123.416078 229.388088,145.841395 C220.369768,168.266711 185.007707,150.505765 139.500272,150.505765 C93.9928368,150.505765 68.3252285,170.441154 47.3583483,145.841395 C17.0200583,103.244408 18.6372268,19.0739686 68.3252285,20.5557066 Z" id="Rectangle" fill="#CCCED3" opacity="0.08"></path>
                        <path d="M89.2033772,19.2091239 C128.722158,14.2717537 201.439736,35.1332159 245.645753,62.7055114 C279.972859,84.1161054 225.217613,137.504305 205.552835,152.802283 C185.888057,168.100261 154.276575,164.86013 103.96941,154.348501 C53.6622438,143.836872 20.6258121,144.159832 10.0164138,115.755411 C-2.13131494,68.8180744 49.6845959,24.146494 89.2033772,19.2091239 Z" id="Rectangle-Copy" fill="#F1F2F5" opacity="0.22"></path>
                        <g id="Decorations" opacity="0.6" transform="translate(0.000000, 16.429119)">
                            <circle id="Oval" fill="#CCCED3" cx="265.43295" cy="86.7662835" r="2.56704981"></circle>
                            <circle id="Oval-Copy-2" fill="#CCCED3" cx="146.321839" cy="79.0021691" r="1.54022989"></circle>
                            <path d="M174.032567,20.5363985 L175.022031,20.5363985 C175.298173,20.5363985 175.522031,20.7602561 175.522031,21.0363985 L175.522031,40.5727969 C175.522031,40.8489393 175.298173,41.0727969 175.022031,41.0727969 L174.032567,41.0727969 C173.756425,41.0727969 173.532567,40.8489393 173.532567,40.5727969 L173.532567,21.0363985 C173.532567,20.7602561 173.756425,20.5363985 174.032567,20.5363985 Z" id="Rectangle-Copy-6" fill="#CCCED3" opacity="0.339076451" transform="translate(174.527299, 30.804598) scale(-1, 1) rotate(18.000000) translate(-174.527299, -30.804598) "></path>
                            <rect id="Rectangle-Copy-5" fill="#CCCED3" opacity="0.339076451" x="188.934866" y="116.030651" width="2.05363985" height="16.4291188" rx="0.5"></rect>
                            <circle id="Oval-Copy-3" fill="#CCCED3" cx="1.02681992" cy="39.469602" r="1.02681992"></circle>
                            <circle id="Oval-Copy-4" fill="#CCCED3" cx="208.444444" cy="98.5747126" r="1.02681992"></circle>
                            <circle id="Oval-Copy" fill="#CCCED3" cx="73.9310345" cy="112.950192" r="3.08045977"></circle>
                            <g id="corner-llines" opacity="0.34" transform="translate(17.969349, 13.862069) rotate(-13.000000) translate(-17.969349, -13.862069) translate(6.160920, 3.080460)" fill="#CCCED3">
                                <path d="M20.4365543,1.43238792 L21.4901941,1.43238792 C21.7663365,1.43238792 21.9901941,1.65624554 21.9901941,1.93238792 L21.9901941,13.254227 C21.9901941,13.5303694 21.7663365,13.754227 21.4901941,13.754227 L20.4365543,13.754227 C20.1604119,13.754227 19.9365543,13.5303694 19.9365543,13.254227 L19.9365543,1.93238792 C19.9365543,1.65624554 20.1604119,1.43238792 20.4365543,1.43238792 Z" id="Rectangle-Copy" transform="translate(20.963374, 7.593307) rotate(-12.000000) translate(-20.963374, -7.593307) "></path>
                                <path d="M10.368441,-2.05363985 L11.4220809,-2.05363985 C11.6982233,-2.05363985 11.9220809,-1.82978222 11.9220809,-1.55363985 L11.9220809,17.9827586 C11.9220809,18.258901 11.6982233,18.4827586 11.4220809,18.4827586 L10.368441,18.4827586 C10.0922987,18.4827586 9.86844105,18.258901 9.86844105,17.9827586 L9.86844105,-1.55363985 C9.86844105,-1.82978222 10.0922987,-2.05363985 10.368441,-2.05363985 Z" id="Rectangle-Copy-2" transform="translate(10.895261, 8.214559) rotate(-44.000000) translate(-10.895261, -8.214559) "></path>
                                <path d="M7.68773946,9.69182426 L8.74137931,9.69182426 C9.01752169,9.69182426 9.24137931,9.91568189 9.24137931,10.1918243 L9.24137931,25.620943 C9.24137931,25.8970854 9.01752169,26.120943 8.74137931,26.120943 L7.68773946,26.120943 C7.41159709,26.120943 7.18773946,25.8970854 7.18773946,25.620943 L7.18773946,10.1918243 C7.18773946,9.91568189 7.41159709,9.69182426 7.68773946,9.69182426 Z" id="Rectangle-Copy-4" transform="translate(8.214559, 17.906384) rotate(-75.000000) translate(-8.214559, -17.906384) "></path>
                            </g>
                            <path d="M16.7298674,114.27776 C17.1000195,113.907608 17.6824636,113.879135 18.0852761,114.19234 L18.18201,114.27776 L21.0857471,117.18069 L23.9905807,114.27776 C24.3915788,113.876762 25.0417252,113.876762 25.4427233,114.27776 C25.8437215,114.678758 25.8437215,115.328905 25.4427233,115.729903 L22.5386973,118.63364 L25.4427233,121.538473 C25.8128755,121.908626 25.8413487,122.49107 25.5281431,122.893882 L25.4427233,122.990616 C25.0725712,123.360768 24.4901271,123.389241 24.0873146,123.076036 L23.9905807,122.990616 L21.0857471,120.08659 L18.18201,122.990616 C17.7810119,123.391614 17.1308655,123.391614 16.7298674,122.990616 C16.3288692,122.589618 16.3288692,121.939472 16.7298674,121.538473 L19.6327969,118.63364 L16.7298674,115.729903 C16.3597153,115.359751 16.331242,114.777306 16.6444476,114.374494 L16.7298674,114.27776 Z" id="Path" fill="#CCCED3"></path>
                            <path d="M250.411442,68.9295537 C250.588268,69.1063788 250.588268,69.3930689 250.411442,69.569894 L249.13013,70.8505747 L250.411442,72.1312554 C250.566164,72.2859774 250.585505,72.5248147 250.469463,72.7005656 L250.411442,72.7715957 C250.256721,72.9263177 250.017883,72.9456579 249.842132,72.8296165 L249.771102,72.7715957 L248.490421,71.4902835 L247.209741,72.7715957 C247.032916,72.9484208 246.746226,72.9484208 246.5694,72.7715957 C246.392575,72.5947706 246.392575,72.3080805 246.5694,72.1312554 L247.850713,70.8505747 L246.5694,69.569894 C246.414678,69.4151721 246.395338,69.1763347 246.51138,69.0005839 L246.5694,68.9295537 C246.724122,68.7748317 246.96296,68.7554915 247.138711,68.871533 L247.209741,68.9295537 L248.490421,70.2108659 L249.771102,68.9295537 C249.947927,68.7527286 250.234617,68.7527286 250.411442,68.9295537 Z" id="Path" fill="#CCCED3"></path>
                            <path d="M21.0498084,66.16692 C21.1915827,66.16692 21.3065134,66.2818508 21.3065134,66.423625 L21.3066418,66.977466 L21.7701913,66.5143125 C21.8696554,66.4148484 22.0309186,66.4148484 22.1303828,66.5143125 C22.2298469,66.6137766 22.2298469,66.7750398 22.1303828,66.8745039 L21.5542337,67.4503166 L22.3333333,67.450445 C22.4609302,67.450445 22.5667837,67.5435388 22.5866785,67.6655111 L22.5900383,67.7071499 C22.5900383,67.8360356 22.4950542,67.9427366 22.3712673,67.9610716 L22.3333333,67.9638549 L21.7787222,67.9635982 L22.1303828,68.3152697 C22.2199005,68.4047874 22.2288522,68.5443624 22.1572381,68.6438915 L22.1303828,68.6754611 C22.040865,68.7649788 21.9012901,68.7739306 21.8017609,68.7023164 L21.7701913,68.6754611 L21.3066418,68.2119603 L21.3065134,68.9906748 C21.3065134,69.1324491 21.1915827,69.2473798 21.0498084,69.2473798 C20.9080342,69.2473798 20.7931034,69.1324491 20.7931034,68.9906748 L20.7929751,68.2115752 L20.3294255,68.6754611 C20.2299614,68.7749252 20.0686982,68.7749252 19.9692341,68.6754611 C19.86977,68.575997 19.86977,68.4147338 19.9692341,68.3152697 L20.3205096,67.9635982 L19.7662835,67.9638549 C19.6386867,67.9638549 19.5328331,67.870761 19.5129384,67.7487888 L19.5095785,67.7071499 C19.5095785,67.5782643 19.6045626,67.4715633 19.7283495,67.4532283 L19.7662835,67.450445 L20.544613,67.4503166 L19.9692341,66.8745039 C19.8797164,66.7849862 19.8707646,66.6454113 19.9423788,66.5458821 L19.9692341,66.5143125 C20.0587518,66.4247948 20.1983268,66.415843 20.2978559,66.4874572 L20.3294255,66.5143125 L20.7929751,66.9778511 L20.7931034,66.423625 C20.7931034,66.2818508 20.9080342,66.16692 21.0498084,66.16692 Z" id="Path" fill="#CCCED3"></path>
                            <path d="M228.980843,5.64750958 C229.232886,5.64750958 229.44251,5.82912852 229.485981,6.06863345 L229.494253,6.16091954 L229.494253,7.70114943 C229.494253,7.98469792 229.264391,8.21455939 228.980843,8.21455939 C228.7288,8.21455939 228.519176,8.03294045 228.475705,7.79343552 L228.467433,7.70114943 L228.467433,6.16091954 C228.467433,5.87737105 228.697294,5.64750958 228.980843,5.64750958 Z M230.724916,5.13697956 L230.796021,5.19638669 L231.885128,6.28549369 C232.085627,6.48599275 232.085627,6.81106596 231.885128,7.01156502 C231.706907,7.18978641 231.430257,7.20958878 231.230162,7.07097215 L231.159057,7.01156502 L230.06995,5.92245802 C229.869451,5.72195896 229.869451,5.39688575 230.06995,5.19638669 C230.225894,5.04044298 230.457197,5.00578882 230.646634,5.09242421 L230.724916,5.13697956 Z M227.891736,5.19638669 C228.069957,5.37460808 228.08976,5.65125842 227.951143,5.85135291 L227.891736,5.92245802 L226.802629,7.01156502 C226.60213,7.21206408 226.277057,7.21206408 226.076558,7.01156502 C225.898336,6.83334363 225.878534,6.55669329 226.01715,6.3565988 L226.076558,6.28549369 L227.165665,5.19638669 C227.366164,4.99588763 227.691237,4.99588763 227.891736,5.19638669 Z M232.574713,3.59386973 C232.858261,3.59386973 233.088123,3.8237312 233.088123,4.10727969 C233.088123,4.3593228 232.906504,4.56894653 232.666999,4.61241793 L232.574713,4.62068966 L231.034483,4.62068966 C230.750934,4.62068966 230.521073,4.39082819 230.521073,4.10727969 C230.521073,3.85523659 230.702692,3.64561286 230.942197,3.60214145 L231.034483,3.59386973 L232.574713,3.59386973 Z M226.927203,3.59386973 C227.210752,3.59386973 227.440613,3.8237312 227.440613,4.10727969 C227.440613,4.3593228 227.258994,4.56894653 227.019489,4.61241793 L226.927203,4.62068966 L225.386973,4.62068966 C225.103425,4.62068966 224.873563,4.39082819 224.873563,4.10727969 C224.873563,3.85523659 225.055182,3.64561286 225.294687,3.60214145 L225.386973,3.59386973 L226.927203,3.59386973 Z M226.731524,1.14358724 L226.802629,1.20299437 L227.891736,2.29210137 C228.092235,2.49260043 228.092235,2.81767364 227.891736,3.0181727 C227.713515,3.19639409 227.436864,3.21619646 227.23677,3.07757983 L227.165665,3.0181727 L226.076558,1.9290657 C225.876059,1.72856664 225.876059,1.40349343 226.076558,1.20299437 C226.232501,1.04705066 226.463805,1.0123965 226.653242,1.09903189 L226.731524,1.14358724 Z M231.885128,1.20299437 C232.06335,1.38121576 232.083152,1.6578661 231.944535,1.85796059 L231.885128,1.9290657 L230.796021,3.0181727 C230.595522,3.21867176 230.270449,3.21867176 230.06995,3.0181727 C229.891729,2.83995131 229.871926,2.56330097 230.010543,2.36320648 L230.06995,2.29210137 L231.159057,1.20299437 C231.359556,1.00249531 231.684629,1.00249531 231.885128,1.20299437 Z M228.980843,0 C229.232886,0 229.44251,0.181618939 229.485981,0.421123872 L229.494253,0.513409962 L229.494253,2.05363985 C229.494253,2.33718834 229.264391,2.56704981 228.980843,2.56704981 C228.7288,2.56704981 228.519176,2.38543087 228.475705,2.14592594 L228.467433,2.05363985 L228.467433,0.513409962 C228.467433,0.229861469 228.697294,0 228.980843,0 Z" id="Combined-Shape-Copy-5" fill="#CCCED3" fill-rule="nonzero"></path>
                            <path d="M246.699807,108.922415 C247.19752,109.194224 247.380652,109.818046 247.108842,110.315759 C244.347177,115.372682 232.332587,123.705466 225.53256,124.112517 C224.966477,124.146402 224.480105,123.714971 224.446219,123.148887 C224.412333,122.582803 224.843765,122.096432 225.409849,122.062546 C231.469808,121.699796 242.869788,113.793278 245.306462,109.331451 C245.578272,108.833737 246.202093,108.650606 246.699807,108.922415 Z M216.347327,116.831163 L216.439292,116.921698 L218.642727,119.377945 C218.902121,119.667101 219.302483,119.785124 219.677249,119.682912 L221.341944,119.224241 C222.533339,118.891879 223.387261,118.642697 223.899329,118.478121 C224.439227,118.304601 225.017566,118.601609 225.191086,119.141507 C225.364606,119.681405 225.067598,120.259745 224.5277,120.433265 L224.060861,120.578497 C223.237243,120.828248 221.95848,121.189388 220.217614,121.664185 C219.159451,121.952784 218.033267,121.656121 217.255661,120.897007 L217.114046,120.749284 L214.910611,118.293038 C214.531926,117.870905 214.567148,117.221713 214.989281,116.843028 C215.346471,116.522602 215.866229,116.498524 216.247118,116.754439 L216.347327,116.831163 Z M238.662078,111.202819 C239.060028,111.606842 239.055106,112.25697 238.651083,112.65492 C235.94026,115.324998 233.725084,116.765119 229.629861,118.337532 C229.100448,118.540807 228.506487,118.27642 228.303212,117.747007 C228.099937,117.217594 228.364324,116.623633 228.893737,116.420358 C232.722414,114.950289 234.698348,113.665702 237.209977,111.191823 C237.614,110.793873 238.264128,110.798796 238.662078,111.202819 Z" id="Shape" fill="#E7E9EB" fill-rule="nonzero" opacity="0.34"></path>
                        </g>
                        <g id="doc" transform="translate(109.869732, 26.697318) scale(-1, 1) rotate(7.000000) translate(-109.869732, -26.697318) translate(86.252874, 3.080460)">
                            <g id="Rectangle-Copy-11" transform="translate(23.401794, 23.848006) rotate(32.000000) translate(-23.401794, -23.848006) ">
                                <use fill="black" fill-opacity="1" filter="url(#filter-2)" xlink:href="#path-1"></use>
                                <use fill="#D5D6DA" fill-rule="evenodd" xlink:href="#path-1"></use>
                            </g>
                            <g id="Rectangle-Copy-12" transform="translate(29.803442, 15.307946) scale(-1, -1) rotate(27.000000) translate(-29.803442, -15.307946) ">
                                <use fill="black" fill-opacity="1" filter="url(#filter-4)" xlink:href="#path-3"></use>
                                <use fill="#B0B2B6" fill-rule="evenodd" xlink:href="#path-3"></use>
                            </g>
                        </g>
                        <g id="Excel" transform="translate(135.540230, 36.876802) rotate(14.000000) translate(-135.540230, -36.876802) translate(118.084291, 13.348659)">
                            <g id="Rectangle">
                                <use fill="black" fill-opacity="1" filter="url(#filter-6)" xlink:href="#path-5"></use>
                                <use fill="#D5D6DA" fill-rule="evenodd" xlink:href="#path-5"></use>
                            </g>
                            <mask id="mask-8" fill="white">
                                <use xlink:href="#path-7"></use>
                            </mask>
                            <g id="Rectangle">
                                <use fill="black" fill-opacity="1" filter="url(#filter-9)" xlink:href="#path-7"></use>
                                <use fill="#D5D6DA" fill-rule="evenodd" xlink:href="#path-7"></use>
                            </g>
                            <g id="List" mask="url(#mask-8)">
                                <g transform="translate(0.455639, 2.371744)">
                                    <path d="M18.6772898,2.68613988 L23.1775719,2.68613988 C23.4261156,2.68613988 23.6276001,2.88657751 23.6276001,3.13382986 L23.6276001,4.92458978 C23.6276001,5.17184213 23.4261156,5.37227976 23.1775719,5.37227976 L18.6772898,5.37227976 C18.4287461,5.37227976 18.2272616,5.17184213 18.2272616,4.92458978 L18.2272616,3.13382986 C18.2272616,2.88657751 18.4287461,2.68613988 18.6772898,2.68613988 Z" id="Rectangle" fill-opacity="0.786276224" fill="#9EA0A5"></path>
                                    <path d="M4.27638706,2.68613988 L8.77666917,2.68613988 C9.02521288,2.68613988 9.22669738,2.88657751 9.22669738,3.13382986 L9.22669738,4.92458978 C9.22669738,5.17184213 9.02521288,5.37227976 8.77666917,5.37227976 L4.27638706,5.37227976 C4.02784335,5.37227976 3.82635885,5.17184213 3.82635885,4.92458978 L3.82635885,3.13382986 C3.82635885,2.88657751 4.02784335,2.68613988 4.27638706,2.68613988 Z" id="Rectangle-Copy-8" fill-opacity="0.786276224" fill="#9EA0A5"></path>
                                    <path d="M25.8777412,2.68613988 L30.3780233,2.68613988 C30.626567,2.68613988 30.8280515,2.88657751 30.8280515,3.13382986 L30.8280515,4.92458978 C30.8280515,5.17184213 30.626567,5.37227976 30.3780233,5.37227976 L25.8777412,5.37227976 C25.6291974,5.37227976 25.4277129,5.17184213 25.4277129,4.92458978 L25.4277129,3.13382986 C25.4277129,2.88657751 25.6291974,2.68613988 25.8777412,2.68613988 Z" id="Rectangle-Copy-7" fill-opacity="0.786276224" fill="#9EA0A5"></path>
                                    <path d="M11.4768384,2.68613988 L15.9771205,2.68613988 C16.2256642,2.68613988 16.4271487,2.88657751 16.4271487,3.13382986 L16.4271487,4.92458978 C16.4271487,5.17184213 16.2256642,5.37227976 15.9771205,5.37227976 L11.4768384,5.37227976 C11.2282947,5.37227976 11.0268102,5.17184213 11.0268102,4.92458978 L11.0268102,3.13382986 C11.0268102,2.88657751 11.2282947,2.68613988 11.4768384,2.68613988 Z" id="Rectangle-Copy-9" fill-opacity="0.786276224" fill="#9EA0A5"></path>
                                    <path d="M18.6772898,7.16303969 L23.1775719,7.16303969 C23.4261156,7.16303969 23.6276001,7.36347732 23.6276001,7.61072967 L23.6276001,9.40148959 C23.6276001,9.64874194 23.4261156,9.84917957 23.1775719,9.84917957 L18.6772898,9.84917957 C18.4287461,9.84917957 18.2272616,9.64874194 18.2272616,9.40148959 L18.2272616,7.61072967 C18.2272616,7.36347732 18.4287461,7.16303969 18.6772898,7.16303969 Z" id="Rectangle" fill-opacity="0.786276224" fill="#9EA0A5"></path>
                                    <path d="M4.27638706,7.16303969 L8.77666917,7.16303969 C9.02521288,7.16303969 9.22669738,7.36347732 9.22669738,7.61072967 L9.22669738,9.40148959 C9.22669738,9.64874194 9.02521288,9.84917957 8.77666917,9.84917957 L4.27638706,9.84917957 C4.02784335,9.84917957 3.82635885,9.64874194 3.82635885,9.40148959 L3.82635885,7.61072967 C3.82635885,7.36347732 4.02784335,7.16303969 4.27638706,7.16303969 Z" id="Rectangle-Copy-8" fill-opacity="0.786276224" fill="#9EA0A5"></path>
                                    <path d="M25.8777412,7.16303969 L30.3780233,7.16303969 C30.626567,7.16303969 30.8280515,7.36347732 30.8280515,7.61072967 L30.8280515,9.40148959 C30.8280515,9.64874194 30.626567,9.84917957 30.3780233,9.84917957 L25.8777412,9.84917957 C25.6291974,9.84917957 25.4277129,9.64874194 25.4277129,9.40148959 L25.4277129,7.61072967 C25.4277129,7.36347732 25.6291974,7.16303969 25.8777412,7.16303969 Z" id="Rectangle-Copy-7" fill-opacity="0.786276224" fill="#9EA0A5"></path>
                                    <path d="M11.4768384,7.16303969 L15.9771205,7.16303969 C16.2256642,7.16303969 16.4271487,7.36347732 16.4271487,7.61072967 L16.4271487,9.40148959 C16.4271487,9.64874194 16.2256642,9.84917957 15.9771205,9.84917957 L11.4768384,9.84917957 C11.2282947,9.84917957 11.0268102,9.64874194 11.0268102,9.40148959 L11.0268102,7.61072967 C11.0268102,7.36347732 11.2282947,7.16303969 11.4768384,7.16303969 Z" id="Rectangle-Copy-9" fill-opacity="0.786276224" fill="#9EA0A5"></path>
                                    <path d="M18.6772898,11.6399395 L23.1775719,11.6399395 C23.4261156,11.6399395 23.6276001,11.8403771 23.6276001,12.0876295 L23.6276001,13.8783894 C23.6276001,14.1256417 23.4261156,14.3260794 23.1775719,14.3260794 L18.6772898,14.3260794 C18.4287461,14.3260794 18.2272616,14.1256417 18.2272616,13.8783894 L18.2272616,12.0876295 C18.2272616,11.8403771 18.4287461,11.6399395 18.6772898,11.6399395 Z" id="Rectangle" fill-opacity="0.786276224" fill="#9EA0A5"></path>
                                    <path d="M4.27638706,11.6399395 L8.77666917,11.6399395 C9.02521288,11.6399395 9.22669738,11.8403771 9.22669738,12.0876295 L9.22669738,13.8783894 C9.22669738,14.1256417 9.02521288,14.3260794 8.77666917,14.3260794 L4.27638706,14.3260794 C4.02784335,14.3260794 3.82635885,14.1256417 3.82635885,13.8783894 L3.82635885,12.0876295 C3.82635885,11.8403771 4.02784335,11.6399395 4.27638706,11.6399395 Z" id="Rectangle-Copy-8" fill-opacity="0.786276224" fill="#9EA0A5"></path>
                                    <path d="M25.8777412,11.6399395 L30.3780233,11.6399395 C30.626567,11.6399395 30.8280515,11.8403771 30.8280515,12.0876295 L30.8280515,13.8783894 C30.8280515,14.1256417 30.626567,14.3260794 30.3780233,14.3260794 L25.8777412,14.3260794 C25.6291974,14.3260794 25.4277129,14.1256417 25.4277129,13.8783894 L25.4277129,12.0876295 C25.4277129,11.8403771 25.6291974,11.6399395 25.8777412,11.6399395 Z" id="Rectangle-Copy-7" fill-opacity="0.786276224" fill="#9EA0A5"></path>
                                    <path d="M11.4768384,11.6399395 L15.9771205,11.6399395 C16.2256642,11.6399395 16.4271487,11.8403771 16.4271487,12.0876295 L16.4271487,13.8783894 C16.4271487,14.1256417 16.2256642,14.3260794 15.9771205,14.3260794 L11.4768384,14.3260794 C11.2282947,14.3260794 11.0268102,14.1256417 11.0268102,13.8783894 L11.0268102,12.0876295 C11.0268102,11.8403771 11.2282947,11.6399395 11.4768384,11.6399395 Z" id="Rectangle-Copy-9" fill-opacity="0.786276224" fill="#9EA0A5"></path>
                                    <path d="M18.6772898,16.1168393 L23.1775719,16.1168393 C23.4261156,16.1168393 23.6276001,16.3172769 23.6276001,16.5645293 L23.6276001,18.3552892 C23.6276001,18.6025415 23.4261156,18.8029792 23.1775719,18.8029792 L18.6772898,18.8029792 C18.4287461,18.8029792 18.2272616,18.6025415 18.2272616,18.3552892 L18.2272616,16.5645293 C18.2272616,16.3172769 18.4287461,16.1168393 18.6772898,16.1168393 Z" id="Rectangle" fill-opacity="0.786276224" fill="#9EA0A5"></path>
                                    <path d="M4.27638706,16.1168393 L8.77666917,16.1168393 C9.02521288,16.1168393 9.22669738,16.3172769 9.22669738,16.5645293 L9.22669738,18.3552892 C9.22669738,18.6025415 9.02521288,18.8029792 8.77666917,18.8029792 L4.27638706,18.8029792 C4.02784335,18.8029792 3.82635885,18.6025415 3.82635885,18.3552892 L3.82635885,16.5645293 C3.82635885,16.3172769 4.02784335,16.1168393 4.27638706,16.1168393 Z" id="Rectangle-Copy-8" fill-opacity="0.786276224" fill="#9EA0A5"></path>
                                    <path d="M25.8777412,16.1168393 L30.3780233,16.1168393 C30.626567,16.1168393 30.8280515,16.3172769 30.8280515,16.5645293 L30.8280515,18.3552892 C30.8280515,18.6025415 30.626567,18.8029792 30.3780233,18.8029792 L25.8777412,18.8029792 C25.6291974,18.8029792 25.4277129,18.6025415 25.4277129,18.3552892 L25.4277129,16.5645293 C25.4277129,16.3172769 25.6291974,16.1168393 25.8777412,16.1168393 Z" id="Rectangle-Copy-7" fill-opacity="0.786276224" fill="#9EA0A5"></path>
                                    <path d="M11.4768384,16.1168393 L15.9771205,16.1168393 C16.2256642,16.1168393 16.4271487,16.3172769 16.4271487,16.5645293 L16.4271487,18.3552892 C16.4271487,18.6025415 16.2256642,18.8029792 15.9771205,18.8029792 L11.4768384,18.8029792 C11.2282947,18.8029792 11.0268102,18.6025415 11.0268102,18.3552892 L11.0268102,16.5645293 C11.0268102,16.3172769 11.2282947,16.1168393 11.4768384,16.1168393 Z" id="Rectangle-Copy-9" fill-opacity="0.786276224" fill="#9EA0A5"></path>
                                    <path d="M18.6772898,20.5937391 L23.1775719,20.5937391 C23.4261156,20.5937391 23.6276001,20.7941767 23.6276001,21.0414291 L23.6276001,22.832189 C23.6276001,23.0794413 23.4261156,23.279879 23.1775719,23.279879 L18.6772898,23.279879 C18.4287461,23.279879 18.2272616,23.0794413 18.2272616,22.832189 L18.2272616,21.0414291 C18.2272616,20.7941767 18.4287461,20.5937391 18.6772898,20.5937391 Z" id="Rectangle" fill-opacity="0.786276224" fill="#9EA0A5"></path>
                                    <path d="M4.27638706,20.5937391 L8.77666917,20.5937391 C9.02521288,20.5937391 9.22669738,20.7941767 9.22669738,21.0414291 L9.22669738,22.832189 C9.22669738,23.0794413 9.02521288,23.279879 8.77666917,23.279879 L4.27638706,23.279879 C4.02784335,23.279879 3.82635885,23.0794413 3.82635885,22.832189 L3.82635885,21.0414291 C3.82635885,20.7941767 4.02784335,20.5937391 4.27638706,20.5937391 Z" id="Rectangle-Copy-8" fill-opacity="0.786276224" fill="#9EA0A5"></path>
                                    <path d="M25.8777412,20.5937391 L30.3780233,20.5937391 C30.626567,20.5937391 30.8280515,20.7941767 30.8280515,21.0414291 L30.8280515,22.832189 C30.8280515,23.0794413 30.626567,23.279879 30.3780233,23.279879 L25.8777412,23.279879 C25.6291974,23.279879 25.4277129,23.0794413 25.4277129,22.832189 L25.4277129,21.0414291 C25.4277129,20.7941767 25.6291974,20.5937391 25.8777412,20.5937391 Z" id="Rectangle-Copy-7" fill-opacity="0.786276224" fill="#9EA0A5"></path>
                                    <path d="M11.4768384,20.5937391 L15.9771205,20.5937391 C16.2256642,20.5937391 16.4271487,20.7941767 16.4271487,21.0414291 L16.4271487,22.832189 C16.4271487,23.0794413 16.2256642,23.279879 15.9771205,23.279879 L11.4768384,23.279879 C11.2282947,23.279879 11.0268102,23.0794413 11.0268102,22.832189 L11.0268102,21.0414291 C11.0268102,20.7941767 11.2282947,20.5937391 11.4768384,20.5937391 Z" id="Rectangle-Copy-9" fill-opacity="0.786276224" fill="#9EA0A5"></path>
                                    <path d="M18.6772898,25.0706389 L23.1775719,25.0706389 C23.4261156,25.0706389 23.6276001,25.2710765 23.6276001,25.5183289 L23.6276001,27.3090888 C23.6276001,27.5563412 23.4261156,27.7567788 23.1775719,27.7567788 L18.6772898,27.7567788 C18.4287461,27.7567788 18.2272616,27.5563412 18.2272616,27.3090888 L18.2272616,25.5183289 C18.2272616,25.2710765 18.4287461,25.0706389 18.6772898,25.0706389 Z" id="Rectangle" fill-opacity="0.786276224" fill="#9EA0A5"></path>
                                    <path d="M4.27638706,25.0706389 L8.77666917,25.0706389 C9.02521288,25.0706389 9.22669738,25.2710765 9.22669738,25.5183289 L9.22669738,27.3090888 C9.22669738,27.5563412 9.02521288,27.7567788 8.77666917,27.7567788 L4.27638706,27.7567788 C4.02784335,27.7567788 3.82635885,27.5563412 3.82635885,27.3090888 L3.82635885,25.5183289 C3.82635885,25.2710765 4.02784335,25.0706389 4.27638706,25.0706389 Z" id="Rectangle-Copy-8" fill-opacity="0.786276224" fill="#9EA0A5"></path>
                                    <path d="M25.8777412,25.0706389 L30.3780233,25.0706389 C30.626567,25.0706389 30.8280515,25.2710765 30.8280515,25.5183289 L30.8280515,27.3090888 C30.8280515,27.5563412 30.626567,27.7567788 30.3780233,27.7567788 L25.8777412,27.7567788 C25.6291974,27.7567788 25.4277129,27.5563412 25.4277129,27.3090888 L25.4277129,25.5183289 C25.4277129,25.2710765 25.6291974,25.0706389 25.8777412,25.0706389 Z" id="Rectangle-Copy-7" fill-opacity="0.786276224" fill="#9EA0A5"></path>
                                    <path d="M11.4768384,25.0706389 L15.9771205,25.0706389 C16.2256642,25.0706389 16.4271487,25.2710765 16.4271487,25.5183289 L16.4271487,27.3090888 C16.4271487,27.5563412 16.2256642,27.7567788 15.9771205,27.7567788 L11.4768384,27.7567788 C11.2282947,27.7567788 11.0268102,27.5563412 11.0268102,27.3090888 L11.0268102,25.5183289 C11.0268102,25.2710765 11.2282947,25.0706389 11.4768384,25.0706389 Z" id="Rectangle-Copy-9" fill-opacity="0.786276224" fill="#9EA0A5"></path>
                                    <path d="M18.6772898,29.5475387 L23.1775719,29.5475387 C23.4261156,29.5475387 23.6276001,29.7479763 23.6276001,29.9952287 L23.6276001,31.7859886 C23.6276001,32.033241 23.4261156,32.2336786 23.1775719,32.2336786 L18.6772898,32.2336786 C18.4287461,32.2336786 18.2272616,32.033241 18.2272616,31.7859886 L18.2272616,29.9952287 C18.2272616,29.7479763 18.4287461,29.5475387 18.6772898,29.5475387 Z" id="Rectangle" fill-opacity="0.786276224" fill="#9EA0A5"></path>
                                    <path d="M4.27638706,29.5475387 L8.77666917,29.5475387 C9.02521288,29.5475387 9.22669738,29.7479763 9.22669738,29.9952287 L9.22669738,31.7859886 C9.22669738,32.033241 9.02521288,32.2336786 8.77666917,32.2336786 L4.27638706,32.2336786 C4.02784335,32.2336786 3.82635885,32.033241 3.82635885,31.7859886 L3.82635885,29.9952287 C3.82635885,29.7479763 4.02784335,29.5475387 4.27638706,29.5475387 Z" id="Rectangle-Copy-8" fill-opacity="0.786276224" fill="#9EA0A5"></path>
                                    <path d="M25.8777412,29.5475387 L30.3780233,29.5475387 C30.626567,29.5475387 30.8280515,29.7479763 30.8280515,29.9952287 L30.8280515,31.7859886 C30.8280515,32.033241 30.626567,32.2336786 30.3780233,32.2336786 L25.8777412,32.2336786 C25.6291974,32.2336786 25.4277129,32.033241 25.4277129,31.7859886 L25.4277129,29.9952287 C25.4277129,29.7479763 25.6291974,29.5475387 25.8777412,29.5475387 Z" id="Rectangle-Copy-7" fill-opacity="0.786276224" fill="#9EA0A5"></path>
                                    <path d="M11.4768384,29.5475387 L15.9771205,29.5475387 C16.2256642,29.5475387 16.4271487,29.7479763 16.4271487,29.9952287 L16.4271487,31.7859886 C16.4271487,32.033241 16.2256642,32.2336786 15.9771205,32.2336786 L11.4768384,32.2336786 C11.2282947,32.2336786 11.0268102,32.033241 11.0268102,31.7859886 L11.0268102,29.9952287 C11.0268102,29.7479763 11.2282947,29.5475387 11.4768384,29.5475387 Z" id="Rectangle-Copy-9" fill-opacity="0.786276224" fill="#9EA0A5"></path>
                                    <path d="M18.6772898,34.0244385 L23.1775719,34.0244385 C23.4261156,34.0244385 23.6276001,34.2248761 23.6276001,34.4721285 L23.6276001,36.2628884 C23.6276001,36.5101408 23.4261156,36.7105784 23.1775719,36.7105784 L18.6772898,36.7105784 C18.4287461,36.7105784 18.2272616,36.5101408 18.2272616,36.2628884 L18.2272616,34.4721285 C18.2272616,34.2248761 18.4287461,34.0244385 18.6772898,34.0244385 Z" id="Rectangle" fill-opacity="0.786276224" fill="#9EA0A5"></path>
                                    <path d="M4.27638706,34.0244385 L8.77666917,34.0244385 C9.02521288,34.0244385 9.22669738,34.2248761 9.22669738,34.4721285 L9.22669738,36.2628884 C9.22669738,36.5101408 9.02521288,36.7105784 8.77666917,36.7105784 L4.27638706,36.7105784 C4.02784335,36.7105784 3.82635885,36.5101408 3.82635885,36.2628884 L3.82635885,34.4721285 C3.82635885,34.2248761 4.02784335,34.0244385 4.27638706,34.0244385 Z" id="Rectangle-Copy-8" fill-opacity="0.786276224" fill="#9EA0A5"></path>
                                    <path d="M25.8777412,34.0244385 L30.3780233,34.0244385 C30.626567,34.0244385 30.8280515,34.2248761 30.8280515,34.4721285 L30.8280515,36.2628884 C30.8280515,36.5101408 30.626567,36.7105784 30.3780233,36.7105784 L25.8777412,36.7105784 C25.6291974,36.7105784 25.4277129,36.5101408 25.4277129,36.2628884 L25.4277129,34.4721285 C25.4277129,34.2248761 25.6291974,34.0244385 25.8777412,34.0244385 Z" id="Rectangle-Copy-7" fill-opacity="0.786276224" fill="#9EA0A5"></path>
                                    <path d="M11.4768384,34.0244385 L15.9771205,34.0244385 C16.2256642,34.0244385 16.4271487,34.2248761 16.4271487,34.4721285 L16.4271487,36.2628884 C16.4271487,36.5101408 16.2256642,36.7105784 15.9771205,36.7105784 L11.4768384,36.7105784 C11.2282947,36.7105784 11.0268102,36.5101408 11.0268102,36.2628884 L11.0268102,34.4721285 C11.0268102,34.2248761 11.2282947,34.0244385 11.4768384,34.0244385 Z" id="Rectangle-Copy-9" fill-opacity="0.786276224" fill="#9EA0A5"></path>
                                    <path d="M18.6772898,38.5013383 L23.1775719,38.5013383 C23.4261156,38.5013383 23.6276001,38.7017759 23.6276001,38.9490283 L23.6276001,40.7397882 C23.6276001,40.9870406 23.4261156,41.1874782 23.1775719,41.1874782 L18.6772898,41.1874782 C18.4287461,41.1874782 18.2272616,40.9870406 18.2272616,40.7397882 L18.2272616,38.9490283 C18.2272616,38.7017759 18.4287461,38.5013383 18.6772898,38.5013383 Z" id="Rectangle" fill-opacity="0.786276224" fill="#9EA0A5"></path>
                                    <path d="M4.27638706,38.5013383 L8.77666917,38.5013383 C9.02521288,38.5013383 9.22669738,38.7017759 9.22669738,38.9490283 L9.22669738,40.7397882 C9.22669738,40.9870406 9.02521288,41.1874782 8.77666917,41.1874782 L4.27638706,41.1874782 C4.02784335,41.1874782 3.82635885,40.9870406 3.82635885,40.7397882 L3.82635885,38.9490283 C3.82635885,38.7017759 4.02784335,38.5013383 4.27638706,38.5013383 Z" id="Rectangle-Copy-8" fill-opacity="0.786276224" fill="#9EA0A5"></path>
                                    <path d="M25.8777412,38.5013383 L30.3780233,38.5013383 C30.626567,38.5013383 30.8280515,38.7017759 30.8280515,38.9490283 L30.8280515,40.7397882 C30.8280515,40.9870406 30.626567,41.1874782 30.3780233,41.1874782 L25.8777412,41.1874782 C25.6291974,41.1874782 25.4277129,40.9870406 25.4277129,40.7397882 L25.4277129,38.9490283 C25.4277129,38.7017759 25.6291974,38.5013383 25.8777412,38.5013383 Z" id="Rectangle-Copy-7" fill-opacity="0.786276224" fill="#9EA0A5"></path>
                                    <path d="M11.4768384,38.5013383 L15.9771205,38.5013383 C16.2256642,38.5013383 16.4271487,38.7017759 16.4271487,38.9490283 L16.4271487,40.7397882 C16.4271487,40.9870406 16.2256642,41.1874782 15.9771205,41.1874782 L11.4768384,41.1874782 C11.2282947,41.1874782 11.0268102,40.9870406 11.0268102,40.7397882 L11.0268102,38.9490283 C11.0268102,38.7017759 11.2282947,38.5013383 11.4768384,38.5013383 Z" id="Rectangle-Copy-9" fill-opacity="0.786276224" fill="#9EA0A5"></path>
                                    <polygon id="Rectangle" fill="url(#linearGradient-10)" points="0.553426417 -1.06015009e-13 33.2009275 -1.06015009e-13 33.2009275 43.6131439 0.553426417 43.6131439"></polygon>
                                </g>
                            </g>
                            <polygon id="X" fill="#9EA0A5" fill-rule="nonzero" mask="url(#mask-8)" points="7.95653449 42.4782481 11.0163985 38.426445 14.0762625 42.4782481 17.2621209 42.4782481 12.8163185 37.0782863 16.9471349 31.7662478 13.9412685 31.7662478 11.1603921 35.6202233 8.32551809 31.7662478 5.24765491 31.7662478 9.33347329 36.9537281 4.96866731 42.4782481"></polygon>
                        </g>
                        <g id="Page" transform="translate(126.812261, 87.279693) scale(-1, 1) rotate(-21.000000) translate(-126.812261, -87.279693) ">
                            <use fill="black" fill-opacity="1" filter="url(#filter-12)" xlink:href="#path-11"></use>
                            <use fill="#CCCED3" fill-rule="evenodd" xlink:href="#path-11"></use>
                        </g>
                        <g id="Doughnut" transform="translate(31.831418, 66.743295)">
                            <g id="base">
                                <g id="Path">
                                    <use fill="black" fill-opacity="1" filter="url(#filter-14)" xlink:href="#path-13"></use>
                                    <use fill="#D5D6DA" fill-rule="evenodd" xlink:href="#path-13"></use>
                                </g>
                                <g id="Path">
                                    <use fill="black" fill-opacity="1" filter="url(#filter-16)" xlink:href="#path-15"></use>
                                    <use fill="#D5D6DA" fill-rule="evenodd" xlink:href="#path-15"></use>
                                </g>
                                <path d="M4.55373032,-6.44089226e-15 L61.0199864,-6.44089226e-15 C63.5349422,-6.44089226e-15 65.5737167,2.0292134 65.5737167,4.532375 L65.5737167,10.7643906 L0,10.7643906 L0,4.532375 C0,2.0292134 2.03877451,-6.44089226e-15 4.55373032,-6.44089226e-15 Z" id="Path-Copy" fill="#9EA0A5"></path>
                            </g>
                            <g transform="translate(30.538454, 16.778674)">
                                <path d="M27.2519102,10.9973335 C26.7284474,11.81171 26.4560167,12.2188982 26.4346183,12.2188982 C25.3572667,12.2188982 23.8280664,11.9159647 21.8470173,11.3100977 C21.4739345,8.33051649 19.290429,5.91082202 16.4273087,5.1771156 C15.8190942,3.10032987 15.514987,1.5522074 15.514987,0.532748176 C15.514987,0.504143378 15.9352155,0.326560653 16.7756724,6.78061775e-14 C21.8470173,0.48984098 26.7227285,5.40256174 27.2519102,10.9973335 Z" id="Path" fill-opacity="0.82" fill="#67696F" opacity="0.485212054"></path>
                                <path d="M26.4346183,12.2188215 L20.9343739,12.2189425 C20.5612911,9.23936136 18.3777855,6.81966688 15.5146652,6.08596046 L15.514849,0.532748176 C21.4116182,1.37263524 26.0095916,6.22205573 26.4346183,12.2188215 Z" id="Path" fill="#9EA0A5"></path>
                                <path d="M13.6736336,0.532748176 L13.6736336,6.08905776 C13.5780224,6.08905776 12.7770642,6.89466225 12.7770642,6.89466225 C9.50738978,7.0930283 6.17866984,9.96529641 6.17866984,13.5242263 C6.17866984,17.5397556 9.12938694,20.8563921 14.1460294,20.8563921 C18.3373712,20.8563921 19.2147016,18.2140479 20.0782118,15.0742661 C20.0782118,15.0742661 21.1706656,14.3716642 21.3905813,14.1662892 C21.3905813,14.1662892 23.1679637,14.1659999 26.7227285,14.1654212 C26.2543903,20.7680567 20.8954468,25.9804045 14.1460294,25.9804045 C7.08948251,25.9804045 1.36902102,20.2837526 1.36902102,13.2565763 C1.36902102,13.1429681 -0.00267300664,13.240362 -5.30126004e-13,13.1277431 C0.166118698,6.27437662 6.73116979,0.532748176 13.6736336,0.532748176 Z" id="Path" fill-opacity="0.7" fill="#9EA0A5" opacity="0.485212054"></path>
                                <path d="M12.7887193,6.08088792 L12.7609902,1.44159304 C13.270099,1.42221974 13.7850063,0.532748176 14.3062547,0.532748176 L14.3339838,6.08088792 C14.1720974,6.08088792 12.8159354,6.88649241 12.8159354,6.88649241" id="Shape" fill-opacity="0.7" fill="#9EA0A5" opacity="0.653180804"></path>
                                <path d="M26.7216633,14.1654212 C26.2533252,20.7680567 20.8943816,25.9804045 14.1449642,25.9804045 C13.9925742,25.9804045 13.8408073,25.9777478 13.6897076,25.9724783 C20.1222057,25.7463811 24.93052,21.3865659 25.5219245,15.0742661 L26.0506121,14.7028845 L26.7216633,14.1654212 Z" id="Path" fill-opacity="0.7" fill="#9EA0A5" opacity="0.653180804"></path>
                                <path d="M12.7770642,1.44159304 L12.7770642,6.89466225 C8.74475169,6.89466225 5.47591656,10.1498919 5.47591656,14.1654212 C5.47591656,18.1809505 8.74475169,21.4361801 12.7770642,21.4361801 C16.5000002,21.4361801 19.5721191,18.6612989 20.0216161,15.0751341 L25.5219245,15.0750532 C25.0535863,21.6776887 19.5264816,26.8892494 12.7770642,26.8892494 C5.72051733,26.8892494 5.58449027e-05,21.1925975 5.58449027e-05,14.1654212 C5.58449027e-05,7.13824495 5.72051733,1.44159304 12.7770642,1.44159304 Z" id="Path" fill="#7B7D82"></path>
                            </g>
                            <path d="M7.21339344,23.595011 L23.3250605,23.595011 C23.8194065,23.595011 24.2201532,24.0645153 24.2201532,24.6436782 C24.2201532,25.222841 23.8194065,25.6923453 23.3250605,25.6923453 L7.21339344,25.6923453 C6.71904744,25.6923453 6.31830083,25.222841 6.31830083,24.6436782 C6.31830083,24.0645153 6.71904744,23.595011 7.21339344,23.595011 Z" id="Rectangle" fill="#9EA0A5" opacity="0.647623698"></path>
                            <path d="M7.21339344,18.8760088 L23.3250605,18.8760088 C23.8194065,18.8760088 24.2201532,19.3455131 24.2201532,19.924676 C24.2201532,20.5038388 23.8194065,20.9733431 23.3250605,20.9733431 L7.21339344,20.9733431 C6.71904744,20.9733431 6.31830083,20.5038388 6.31830083,19.924676 C6.31830083,19.3455131 6.71904744,18.8760088 7.21339344,18.8760088 Z" id="Rectangle-Copy-3" fill="#9EA0A5" opacity="0.647623698"></path>
                            <path d="M7.27561913,28.3140132 L15.8914839,28.3140132 C16.4201962,28.3140132 16.8488022,28.7835175 16.8488022,29.3626804 C16.8488022,29.9418432 16.4201962,30.4113475 15.8914839,30.4113475 L7.27561913,30.4113475 C6.74690683,30.4113475 6.31830083,29.9418432 6.31830083,29.3626804 C6.31830083,28.7835175 6.74690683,28.3140132 7.27561913,28.3140132 Z" id="Rectangle-Copy-2" fill="#9EA0A5" opacity="0.647623698"></path>
                        </g>
                        <g id="DOC-Copy-2" transform="translate(232.872294, 64.973669) rotate(30.000000) translate(-232.872294, -64.973669) translate(213.578544, 39.019157)">
                            <g id="Rectangle">
                                <use fill="black" fill-opacity="1" filter="url(#filter-18)" xlink:href="#path-17"></use>
                                <use fill="#D5D6DA" fill-rule="evenodd" xlink:href="#path-17"></use>
                            </g>
                            <g id="Rectangle">
                                <use fill="black" fill-opacity="1" filter="url(#filter-20)" xlink:href="#path-19"></use>
                                <use fill="#D5D6DA" fill-rule="evenodd" xlink:href="#path-19"></use>
                            </g>
                            <g id="Triangle" transform="translate(6.468307, 5.534720) rotate(139.000000) translate(-6.468307, -5.534720) ">
                                <use fill="black" fill-opacity="1" filter="url(#filter-22)" xlink:href="#path-21"></use>
                                <use fill="#9EA0A5" fill-rule="evenodd" xlink:href="#path-21"></use>
                            </g>
                            <ellipse id="Oval" fill="#9EA0A5" opacity="0.683221726" cx="11.1805462" cy="14.0817259" rx="3.15915041" ry="3.14600147"></ellipse>
                            <polygon id="Path" fill="#9EA0A5" opacity="0.683221726" points="5.19604892 33.2800618 14.9253165 21.7447231 19.9841409 27.7430993 23.5099644 23.3926287 31.5223024 33.2800618"></polygon>
                        </g>
                        <g id="Excel" transform="translate(204.644557, 56.890193) rotate(-17.000000) translate(-204.644557, -56.890193) translate(180.720307, 24.643678)">
                            <g id="Rectangle">
                                <use fill="black" fill-opacity="1" filter="url(#filter-24)" xlink:href="#path-23"></use>
                                <use fill="#D5D6DA" fill-rule="evenodd" xlink:href="#path-23"></use>
                            </g>
                            <mask id="mask-26" fill="white">
                                <use xlink:href="#path-25"></use>
                            </mask>
                            <g id="Rectangle">
                                <use fill="black" fill-opacity="1" filter="url(#filter-27)" xlink:href="#path-25"></use>
                                <use fill="#D5D6DA" fill-rule="evenodd" xlink:href="#path-25"></use>
                            </g>
                            <g id="List" mask="url(#mask-26)">
                                <g transform="translate(0.624476, 3.250595)">
                                    <path d="M25.5981739,3.68149108 L31.766039,3.68149108 C32.1066807,3.68149108 32.3828255,3.95620103 32.3828255,4.29507293 L32.3828255,6.74940031 C32.3828255,7.08827221 32.1066807,7.36298216 31.766039,7.36298216 L25.5981739,7.36298216 C25.2575321,7.36298216 24.9813874,7.08827221 24.9813874,6.74940031 L24.9813874,4.29507293 C24.9813874,3.95620103 25.2575321,3.68149108 25.5981739,3.68149108 Z" id="Rectangle" fill-opacity="0.786276224" fill="#9EA0A5"></path>
                                    <path d="M5.86100558,3.68149108 L12.0288707,3.68149108 C12.3695125,3.68149108 12.6456572,3.95620103 12.6456572,4.29507293 L12.6456572,6.74940031 C12.6456572,7.08827221 12.3695125,7.36298216 12.0288707,7.36298216 L5.86100558,7.36298216 C5.52036379,7.36298216 5.24421907,7.08827221 5.24421907,6.74940031 L5.24421907,4.29507293 C5.24421907,3.95620103 5.52036379,3.68149108 5.86100558,3.68149108 Z" id="Rectangle-Copy-8" fill-opacity="0.786276224" fill="#9EA0A5"></path>
                                    <path d="M35.466758,3.68149108 L41.6346231,3.68149108 C41.9752649,3.68149108 42.2514096,3.95620103 42.2514096,4.29507293 L42.2514096,6.74940031 C42.2514096,7.08827221 41.9752649,7.36298216 41.6346231,7.36298216 L35.466758,7.36298216 C35.1261162,7.36298216 34.8499715,7.08827221 34.8499715,6.74940031 L34.8499715,4.29507293 C34.8499715,3.95620103 35.1261162,3.68149108 35.466758,3.68149108 Z" id="Rectangle-Copy-7" fill-opacity="0.786276224" fill="#9EA0A5"></path>
                                    <path d="M15.7295897,3.68149108 L21.8974548,3.68149108 C22.2380966,3.68149108 22.5142413,3.95620103 22.5142413,4.29507293 L22.5142413,6.74940031 C22.5142413,7.08827221 22.2380966,7.36298216 21.8974548,7.36298216 L15.7295897,7.36298216 C15.3889479,7.36298216 15.1128032,7.08827221 15.1128032,6.74940031 L15.1128032,4.29507293 C15.1128032,3.95620103 15.3889479,3.68149108 15.7295897,3.68149108 Z" id="Rectangle-Copy-9" fill-opacity="0.786276224" fill="#9EA0A5"></path>
                                    <path d="M25.5981739,9.81730954 L31.766039,9.81730954 C32.1066807,9.81730954 32.3828255,10.0920195 32.3828255,10.4308914 L32.3828255,12.8852188 C32.3828255,13.2240907 32.1066807,13.4988006 31.766039,13.4988006 L25.5981739,13.4988006 C25.2575321,13.4988006 24.9813874,13.2240907 24.9813874,12.8852188 L24.9813874,10.4308914 C24.9813874,10.0920195 25.2575321,9.81730954 25.5981739,9.81730954 Z" id="Rectangle" fill-opacity="0.786276224" fill="#9EA0A5"></path>
                                    <path d="M5.86100558,9.81730954 L12.0288707,9.81730954 C12.3695125,9.81730954 12.6456572,10.0920195 12.6456572,10.4308914 L12.6456572,12.8852188 C12.6456572,13.2240907 12.3695125,13.4988006 12.0288707,13.4988006 L5.86100558,13.4988006 C5.52036379,13.4988006 5.24421907,13.2240907 5.24421907,12.8852188 L5.24421907,10.4308914 C5.24421907,10.0920195 5.52036379,9.81730954 5.86100558,9.81730954 Z" id="Rectangle-Copy-8" fill-opacity="0.786276224" fill="#9EA0A5"></path>
                                    <path d="M35.466758,9.81730954 L41.6346231,9.81730954 C41.9752649,9.81730954 42.2514096,10.0920195 42.2514096,10.4308914 L42.2514096,12.8852188 C42.2514096,13.2240907 41.9752649,13.4988006 41.6346231,13.4988006 L35.466758,13.4988006 C35.1261162,13.4988006 34.8499715,13.2240907 34.8499715,12.8852188 L34.8499715,10.4308914 C34.8499715,10.0920195 35.1261162,9.81730954 35.466758,9.81730954 Z" id="Rectangle-Copy-7" fill-opacity="0.786276224" fill="#9EA0A5"></path>
                                    <path d="M15.7295897,9.81730954 L21.8974548,9.81730954 C22.2380966,9.81730954 22.5142413,10.0920195 22.5142413,10.4308914 L22.5142413,12.8852188 C22.5142413,13.2240907 22.2380966,13.4988006 21.8974548,13.4988006 L15.7295897,13.4988006 C15.3889479,13.4988006 15.1128032,13.2240907 15.1128032,12.8852188 L15.1128032,10.4308914 C15.1128032,10.0920195 15.3889479,9.81730954 15.7295897,9.81730954 Z" id="Rectangle-Copy-9" fill-opacity="0.786276224" fill="#9EA0A5"></path>
                                    <path d="M25.5981739,15.953128 L31.766039,15.953128 C32.1066807,15.953128 32.3828255,16.227838 32.3828255,16.5667099 L32.3828255,19.0210372 C32.3828255,19.3599091 32.1066807,19.6346191 31.766039,19.6346191 L25.5981739,19.6346191 C25.2575321,19.6346191 24.9813874,19.3599091 24.9813874,19.0210372 L24.9813874,16.5667099 C24.9813874,16.227838 25.2575321,15.953128 25.5981739,15.953128 Z" id="Rectangle" fill-opacity="0.786276224" fill="#9EA0A5"></path>
                                    <path d="M5.86100558,15.953128 L12.0288707,15.953128 C12.3695125,15.953128 12.6456572,16.227838 12.6456572,16.5667099 L12.6456572,19.0210372 C12.6456572,19.3599091 12.3695125,19.6346191 12.0288707,19.6346191 L5.86100558,19.6346191 C5.52036379,19.6346191 5.24421907,19.3599091 5.24421907,19.0210372 L5.24421907,16.5667099 C5.24421907,16.227838 5.52036379,15.953128 5.86100558,15.953128 Z" id="Rectangle-Copy-8" fill-opacity="0.786276224" fill="#9EA0A5"></path>
                                    <path d="M35.466758,15.953128 L41.6346231,15.953128 C41.9752649,15.953128 42.2514096,16.227838 42.2514096,16.5667099 L42.2514096,19.0210372 C42.2514096,19.3599091 41.9752649,19.6346191 41.6346231,19.6346191 L35.466758,19.6346191 C35.1261162,19.6346191 34.8499715,19.3599091 34.8499715,19.0210372 L34.8499715,16.5667099 C34.8499715,16.227838 35.1261162,15.953128 35.466758,15.953128 Z" id="Rectangle-Copy-7" fill-opacity="0.786276224" fill="#9EA0A5"></path>
                                    <path d="M15.7295897,15.953128 L21.8974548,15.953128 C22.2380966,15.953128 22.5142413,16.227838 22.5142413,16.5667099 L22.5142413,19.0210372 C22.5142413,19.3599091 22.2380966,19.6346191 21.8974548,19.6346191 L15.7295897,19.6346191 C15.3889479,19.6346191 15.1128032,19.3599091 15.1128032,19.0210372 L15.1128032,16.5667099 C15.1128032,16.227838 15.3889479,15.953128 15.7295897,15.953128 Z" id="Rectangle-Copy-9" fill-opacity="0.786276224" fill="#9EA0A5"></path>
                                    <path d="M25.5981739,22.0889465 L31.766039,22.0889465 C32.1066807,22.0889465 32.3828255,22.3636564 32.3828255,22.7025283 L32.3828255,25.1568557 C32.3828255,25.4957276 32.1066807,25.7704376 31.766039,25.7704376 L25.5981739,25.7704376 C25.2575321,25.7704376 24.9813874,25.4957276 24.9813874,25.1568557 L24.9813874,22.7025283 C24.9813874,22.3636564 25.2575321,22.0889465 25.5981739,22.0889465 Z" id="Rectangle" fill-opacity="0.786276224" fill="#9EA0A5"></path>
                                    <path d="M5.86100558,22.0889465 L12.0288707,22.0889465 C12.3695125,22.0889465 12.6456572,22.3636564 12.6456572,22.7025283 L12.6456572,25.1568557 C12.6456572,25.4957276 12.3695125,25.7704376 12.0288707,25.7704376 L5.86100558,25.7704376 C5.52036379,25.7704376 5.24421907,25.4957276 5.24421907,25.1568557 L5.24421907,22.7025283 C5.24421907,22.3636564 5.52036379,22.0889465 5.86100558,22.0889465 Z" id="Rectangle-Copy-8" fill-opacity="0.786276224" fill="#9EA0A5"></path>
                                    <path d="M35.466758,22.0889465 L41.6346231,22.0889465 C41.9752649,22.0889465 42.2514096,22.3636564 42.2514096,22.7025283 L42.2514096,25.1568557 C42.2514096,25.4957276 41.9752649,25.7704376 41.6346231,25.7704376 L35.466758,25.7704376 C35.1261162,25.7704376 34.8499715,25.4957276 34.8499715,25.1568557 L34.8499715,22.7025283 C34.8499715,22.3636564 35.1261162,22.0889465 35.466758,22.0889465 Z" id="Rectangle-Copy-7" fill-opacity="0.786276224" fill="#9EA0A5"></path>
                                    <path d="M15.7295897,22.0889465 L21.8974548,22.0889465 C22.2380966,22.0889465 22.5142413,22.3636564 22.5142413,22.7025283 L22.5142413,25.1568557 C22.5142413,25.4957276 22.2380966,25.7704376 21.8974548,25.7704376 L15.7295897,25.7704376 C15.3889479,25.7704376 15.1128032,25.4957276 15.1128032,25.1568557 L15.1128032,22.7025283 C15.1128032,22.3636564 15.3889479,22.0889465 15.7295897,22.0889465 Z" id="Rectangle-Copy-9" fill-opacity="0.786276224" fill="#9EA0A5"></path>
                                    <path d="M25.5981739,28.2247649 L31.766039,28.2247649 C32.1066807,28.2247649 32.3828255,28.4994749 32.3828255,28.8383468 L32.3828255,31.2926742 C32.3828255,31.6315461 32.1066807,31.906256 31.766039,31.906256 L25.5981739,31.906256 C25.2575321,31.906256 24.9813874,31.6315461 24.9813874,31.2926742 L24.9813874,28.8383468 C24.9813874,28.4994749 25.2575321,28.2247649 25.5981739,28.2247649 Z" id="Rectangle" fill-opacity="0.786276224" fill="#9EA0A5"></path>
                                    <path d="M5.86100558,28.2247649 L12.0288707,28.2247649 C12.3695125,28.2247649 12.6456572,28.4994749 12.6456572,28.8383468 L12.6456572,31.2926742 C12.6456572,31.6315461 12.3695125,31.906256 12.0288707,31.906256 L5.86100558,31.906256 C5.52036379,31.906256 5.24421907,31.6315461 5.24421907,31.2926742 L5.24421907,28.8383468 C5.24421907,28.4994749 5.52036379,28.2247649 5.86100558,28.2247649 Z" id="Rectangle-Copy-8" fill-opacity="0.786276224" fill="#9EA0A5"></path>
                                    <path d="M35.466758,28.2247649 L41.6346231,28.2247649 C41.9752649,28.2247649 42.2514096,28.4994749 42.2514096,28.8383468 L42.2514096,31.2926742 C42.2514096,31.6315461 41.9752649,31.906256 41.6346231,31.906256 L35.466758,31.906256 C35.1261162,31.906256 34.8499715,31.6315461 34.8499715,31.2926742 L34.8499715,28.8383468 C34.8499715,28.4994749 35.1261162,28.2247649 35.466758,28.2247649 Z" id="Rectangle-Copy-7" fill-opacity="0.786276224" fill="#9EA0A5"></path>
                                    <path d="M15.7295897,28.2247649 L21.8974548,28.2247649 C22.2380966,28.2247649 22.5142413,28.4994749 22.5142413,28.8383468 L22.5142413,31.2926742 C22.5142413,31.6315461 22.2380966,31.906256 21.8974548,31.906256 L15.7295897,31.906256 C15.3889479,31.906256 15.1128032,31.6315461 15.1128032,31.2926742 L15.1128032,28.8383468 C15.1128032,28.4994749 15.3889479,28.2247649 15.7295897,28.2247649 Z" id="Rectangle-Copy-9" fill-opacity="0.786276224" fill="#9EA0A5"></path>
                                    <path d="M25.5981739,34.3605834 L31.766039,34.3605834 C32.1066807,34.3605834 32.3828255,34.6352934 32.3828255,34.9741652 L32.3828255,37.4284926 C32.3828255,37.7673645 32.1066807,38.0420745 31.766039,38.0420745 L25.5981739,38.0420745 C25.2575321,38.0420745 24.9813874,37.7673645 24.9813874,37.4284926 L24.9813874,34.9741652 C24.9813874,34.6352934 25.2575321,34.3605834 25.5981739,34.3605834 Z" id="Rectangle" fill-opacity="0.786276224" fill="#9EA0A5"></path>
                                    <path d="M5.86100558,34.3605834 L12.0288707,34.3605834 C12.3695125,34.3605834 12.6456572,34.6352934 12.6456572,34.9741652 L12.6456572,37.4284926 C12.6456572,37.7673645 12.3695125,38.0420745 12.0288707,38.0420745 L5.86100558,38.0420745 C5.52036379,38.0420745 5.24421907,37.7673645 5.24421907,37.4284926 L5.24421907,34.9741652 C5.24421907,34.6352934 5.52036379,34.3605834 5.86100558,34.3605834 Z" id="Rectangle-Copy-8" fill-opacity="0.786276224" fill="#9EA0A5"></path>
                                    <path d="M35.466758,34.3605834 L41.6346231,34.3605834 C41.9752649,34.3605834 42.2514096,34.6352934 42.2514096,34.9741652 L42.2514096,37.4284926 C42.2514096,37.7673645 41.9752649,38.0420745 41.6346231,38.0420745 L35.466758,38.0420745 C35.1261162,38.0420745 34.8499715,37.7673645 34.8499715,37.4284926 L34.8499715,34.9741652 C34.8499715,34.6352934 35.1261162,34.3605834 35.466758,34.3605834 Z" id="Rectangle-Copy-7" fill-opacity="0.786276224" fill="#9EA0A5"></path>
                                    <path d="M15.7295897,34.3605834 L21.8974548,34.3605834 C22.2380966,34.3605834 22.5142413,34.6352934 22.5142413,34.9741652 L22.5142413,37.4284926 C22.5142413,37.7673645 22.2380966,38.0420745 21.8974548,38.0420745 L15.7295897,38.0420745 C15.3889479,38.0420745 15.1128032,37.7673645 15.1128032,37.4284926 L15.1128032,34.9741652 C15.1128032,34.6352934 15.3889479,34.3605834 15.7295897,34.3605834 Z" id="Rectangle-Copy-9" fill-opacity="0.786276224" fill="#9EA0A5"></path>
                                    <path d="M25.5981739,40.4964019 L31.766039,40.4964019 C32.1066807,40.4964019 32.3828255,40.7711118 32.3828255,41.1099837 L32.3828255,43.5643111 C32.3828255,43.903183 32.1066807,44.1778929 31.766039,44.1778929 L25.5981739,44.1778929 C25.2575321,44.1778929 24.9813874,43.903183 24.9813874,43.5643111 L24.9813874,41.1099837 C24.9813874,40.7711118 25.2575321,40.4964019 25.5981739,40.4964019 Z" id="Rectangle" fill-opacity="0.786276224" fill="#9EA0A5"></path>
                                    <path d="M5.86100558,40.4964019 L12.0288707,40.4964019 C12.3695125,40.4964019 12.6456572,40.7711118 12.6456572,41.1099837 L12.6456572,43.5643111 C12.6456572,43.903183 12.3695125,44.1778929 12.0288707,44.1778929 L5.86100558,44.1778929 C5.52036379,44.1778929 5.24421907,43.903183 5.24421907,43.5643111 L5.24421907,41.1099837 C5.24421907,40.7711118 5.52036379,40.4964019 5.86100558,40.4964019 Z" id="Rectangle-Copy-8" fill-opacity="0.786276224" fill="#9EA0A5"></path>
                                    <path d="M35.466758,40.4964019 L41.6346231,40.4964019 C41.9752649,40.4964019 42.2514096,40.7711118 42.2514096,41.1099837 L42.2514096,43.5643111 C42.2514096,43.903183 41.9752649,44.1778929 41.6346231,44.1778929 L35.466758,44.1778929 C35.1261162,44.1778929 34.8499715,43.903183 34.8499715,43.5643111 L34.8499715,41.1099837 C34.8499715,40.7711118 35.1261162,40.4964019 35.466758,40.4964019 Z" id="Rectangle-Copy-7" fill-opacity="0.786276224" fill="#9EA0A5"></path>
                                    <path d="M15.7295897,40.4964019 L21.8974548,40.4964019 C22.2380966,40.4964019 22.5142413,40.7711118 22.5142413,41.1099837 L22.5142413,43.5643111 C22.5142413,43.903183 22.2380966,44.1778929 21.8974548,44.1778929 L15.7295897,44.1778929 C15.3889479,44.1778929 15.1128032,43.903183 15.1128032,43.5643111 L15.1128032,41.1099837 C15.1128032,40.7711118 15.3889479,40.4964019 15.7295897,40.4964019 Z" id="Rectangle-Copy-9" fill-opacity="0.786276224" fill="#9EA0A5"></path>
                                    <path d="M25.5981739,46.6322203 L31.766039,46.6322203 C32.1066807,46.6322203 32.3828255,46.9069303 32.3828255,47.2458022 L32.3828255,49.7001296 C32.3828255,50.0390015 32.1066807,50.3137114 31.766039,50.3137114 L25.5981739,50.3137114 C25.2575321,50.3137114 24.9813874,50.0390015 24.9813874,49.7001296 L24.9813874,47.2458022 C24.9813874,46.9069303 25.2575321,46.6322203 25.5981739,46.6322203 Z" id="Rectangle" fill-opacity="0.786276224" fill="#9EA0A5"></path>
                                    <path d="M5.86100558,46.6322203 L12.0288707,46.6322203 C12.3695125,46.6322203 12.6456572,46.9069303 12.6456572,47.2458022 L12.6456572,49.7001296 C12.6456572,50.0390015 12.3695125,50.3137114 12.0288707,50.3137114 L5.86100558,50.3137114 C5.52036379,50.3137114 5.24421907,50.0390015 5.24421907,49.7001296 L5.24421907,47.2458022 C5.24421907,46.9069303 5.52036379,46.6322203 5.86100558,46.6322203 Z" id="Rectangle-Copy-8" fill-opacity="0.786276224" fill="#9EA0A5"></path>
                                    <path d="M35.466758,46.6322203 L41.6346231,46.6322203 C41.9752649,46.6322203 42.2514096,46.9069303 42.2514096,47.2458022 L42.2514096,49.7001296 C42.2514096,50.0390015 41.9752649,50.3137114 41.6346231,50.3137114 L35.466758,50.3137114 C35.1261162,50.3137114 34.8499715,50.0390015 34.8499715,49.7001296 L34.8499715,47.2458022 C34.8499715,46.9069303 35.1261162,46.6322203 35.466758,46.6322203 Z" id="Rectangle-Copy-7" fill-opacity="0.786276224" fill="#9EA0A5"></path>
                                    <path d="M15.7295897,46.6322203 L21.8974548,46.6322203 C22.2380966,46.6322203 22.5142413,46.9069303 22.5142413,47.2458022 L22.5142413,49.7001296 C22.5142413,50.0390015 22.2380966,50.3137114 21.8974548,50.3137114 L15.7295897,50.3137114 C15.3889479,50.3137114 15.1128032,50.0390015 15.1128032,49.7001296 L15.1128032,47.2458022 C15.1128032,46.9069303 15.3889479,46.6322203 15.7295897,46.6322203 Z" id="Rectangle-Copy-9" fill-opacity="0.786276224" fill="#9EA0A5"></path>
                                    <path d="M25.5981739,52.7680388 L31.766039,52.7680388 C32.1066807,52.7680388 32.3828255,53.0427487 32.3828255,53.3816206 L32.3828255,55.835948 C32.3828255,56.1748199 32.1066807,56.4495299 31.766039,56.4495299 L25.5981739,56.4495299 C25.2575321,56.4495299 24.9813874,56.1748199 24.9813874,55.835948 L24.9813874,53.3816206 C24.9813874,53.0427487 25.2575321,52.7680388 25.5981739,52.7680388 Z" id="Rectangle" fill-opacity="0.786276224" fill="#9EA0A5"></path>
                                    <path d="M5.86100558,52.7680388 L12.0288707,52.7680388 C12.3695125,52.7680388 12.6456572,53.0427487 12.6456572,53.3816206 L12.6456572,55.835948 C12.6456572,56.1748199 12.3695125,56.4495299 12.0288707,56.4495299 L5.86100558,56.4495299 C5.52036379,56.4495299 5.24421907,56.1748199 5.24421907,55.835948 L5.24421907,53.3816206 C5.24421907,53.0427487 5.52036379,52.7680388 5.86100558,52.7680388 Z" id="Rectangle-Copy-8" fill-opacity="0.786276224" fill="#9EA0A5"></path>
                                    <path d="M35.466758,52.7680388 L41.6346231,52.7680388 C41.9752649,52.7680388 42.2514096,53.0427487 42.2514096,53.3816206 L42.2514096,55.835948 C42.2514096,56.1748199 41.9752649,56.4495299 41.6346231,56.4495299 L35.466758,56.4495299 C35.1261162,56.4495299 34.8499715,56.1748199 34.8499715,55.835948 L34.8499715,53.3816206 C34.8499715,53.0427487 35.1261162,52.7680388 35.466758,52.7680388 Z" id="Rectangle-Copy-7" fill-opacity="0.786276224" fill="#9EA0A5"></path>
                                    <path d="M15.7295897,52.7680388 L21.8974548,52.7680388 C22.2380966,52.7680388 22.5142413,53.0427487 22.5142413,53.3816206 L22.5142413,55.835948 C22.5142413,56.1748199 22.2380966,56.4495299 21.8974548,56.4495299 L15.7295897,56.4495299 C15.3889479,56.4495299 15.1128032,56.1748199 15.1128032,55.835948 L15.1128032,53.3816206 C15.1128032,53.0427487 15.3889479,52.7680388 15.7295897,52.7680388 Z" id="Rectangle-Copy-9" fill-opacity="0.786276224" fill="#9EA0A5"></path>
                                    <polygon id="Rectangle" fill="url(#linearGradient-28)" points="0.758499001 -1.45298952e-13 45.5035567 -1.45298952e-13 45.5035567 59.7740279 0.758499001 59.7740279"></polygon>
                                </g>
                            </g>
                            <polygon id="X" fill="#9EA0A5" fill-rule="nonzero" mask="url(#mask-26)" points="10.9048345 58.2185956 15.0985334 52.6653937 19.2922323 58.2185956 23.658613 58.2185956 17.5654151 50.8176737 23.2269087 43.5372554 19.1072162 43.5372554 15.2958839 48.8193244 11.4105452 43.5372554 7.19217746 43.5372554 12.791999 50.6469605 6.8098108 58.2185956"></polygon>
                        </g>
                        <g id="Trend" transform="translate(108.842912, 93.440613)">
                            <g id="base">
                                <g id="Path">
                                    <use fill="black" fill-opacity="1" filter="url(#filter-30)" xlink:href="#path-29"></use>
                                    <use fill="#D5D6DA" fill-rule="evenodd" xlink:href="#path-29"></use>
                                </g>
                                <g id="Path">
                                    <use fill="black" fill-opacity="1" filter="url(#filter-32)" xlink:href="#path-31"></use>
                                    <use fill="#D5D6DA" fill-rule="evenodd" xlink:href="#path-31"></use>
                                </g>
                                <path d="M5.26525069,-7.4512283e-15 L70.5543592,-7.4512283e-15 C73.4622769,-7.4512283e-15 75.8196099,2.34752139 75.8196099,5.24333578 L75.8196099,12.4529225 L0,12.4529225 L0,5.24333578 C0,2.34752139 2.35733303,-7.4512283e-15 5.26525069,-7.4512283e-15 Z" id="Path-Copy" fill="#9EA0A5"></path>
                            </g>
                            <g id="lines" transform="translate(8.424401, 22.022010)" fill="#9EA0A5" fill-opacity="0.387155813" fill-rule="nonzero">
                                <path d="M58.1810201,28.0518464 C58.326416,28.0518464 58.4442826,28.2279105 58.4442826,28.4450966 C58.4442826,28.6312561 58.3576867,28.7872035 58.2413838,28.8279608 L58.1810201,28.8383468 L-5.55111512e-17,28.8383468 C-0.145395883,28.8383468 -0.263262534,28.6622827 -0.263262534,28.4450966 C-0.263262534,28.2589371 -0.176666627,28.1029897 -0.0603636837,28.0622324 L-5.55111512e-17,28.0518464 L58.1810201,28.0518464 Z" id="Line"></path>
                                <path d="M58.1810201,21.1044265 C58.326416,21.1044265 58.4442826,21.2804906 58.4442826,21.4976767 C58.4442826,21.6838362 58.3576867,21.8397836 58.2413838,21.8805409 L58.1810201,21.8909269 L-5.55111512e-17,21.8909269 C-0.145395883,21.8909269 -0.263262534,21.7148628 -0.263262534,21.4976767 C-0.263262534,21.3115172 -0.176666627,21.1555698 -0.0603636837,21.1148125 L-5.55111512e-17,21.1044265 L58.1810201,21.1044265 Z" id="Line-Copy"></path>
                                <path d="M58.1810201,14.1570066 C58.326416,14.1570066 58.4442826,14.3330707 58.4442826,14.5502568 C58.4442826,14.7364163 58.3576867,14.8923637 58.2413838,14.933121 L58.1810201,14.943507 L-5.55111512e-17,14.943507 C-0.145395883,14.943507 -0.263262534,14.7674429 -0.263262534,14.5502568 C-0.263262534,14.3640973 -0.176666627,14.2081499 -0.0603636837,14.1673926 L-5.55111512e-17,14.1570066 L58.1810201,14.1570066 Z" id="Line-Copy-2"></path>
                                <path d="M58.1810201,7.2095867 C58.326416,7.2095867 58.4442826,7.3856508 58.4442826,7.60283688 C58.4442826,7.78899638 58.3576867,7.94494381 58.2413838,7.98570105 L58.1810201,7.99608706 L-5.55111512e-17,7.99608706 C-0.145395883,7.99608706 -0.263262534,7.82002296 -0.263262534,7.60283688 C-0.263262534,7.41667738 -0.176666627,7.26072995 -0.0603636837,7.21997271 L-5.55111512e-17,7.2095867 L58.1810201,7.2095867 Z" id="Line-Copy-3"></path>
                                <path d="M58.1810201,0.262166789 C58.326416,0.262166789 58.4442826,0.438230893 58.4442826,0.655416972 C58.4442826,0.841576469 58.3576867,0.997523902 58.2413838,1.03828114 L58.1810201,1.04866716 L-5.55111512e-17,1.04866716 C-0.145395883,1.04866716 -0.263262534,0.872603052 -0.263262534,0.655416972 C-0.263262534,0.469257476 -0.176666627,0.313310043 -0.0603636837,0.272552807 L-5.55111512e-17,0.262166789 L58.1810201,0.262166789 Z" id="Line-Copy-4"></path>
                            </g>
                            <g id="Group" transform="translate(24.220153, 54.530692)">
                                <path d="M4.21220055,0 L10.5305014,0 C11.1120849,0 11.5835515,0.469504278 11.5835515,1.04866716 C11.5835515,1.62783003 11.1120849,2.09733431 10.5305014,2.09733431 L4.21220055,2.09733431 C3.63061702,2.09733431 3.15915041,1.62783003 3.15915041,1.04866716 C3.15915041,0.469504278 3.63061702,0 4.21220055,0 Z" id="Rectangle-Copy-2" fill-opacity="0.35" fill="#67696F"></path>
                                <path d="M20.0079526,0 L26.3262534,0 C26.907837,0 27.3793036,0.469504278 27.3793036,1.04866716 C27.3793036,1.62783003 26.907837,2.09733431 26.3262534,2.09733431 L20.0079526,2.09733431 C19.4263691,2.09733431 18.9549025,1.62783003 18.9549025,1.04866716 C18.9549025,0.469504278 19.4263691,0 20.0079526,0 Z" id="Rectangle-Copy-5" fill-opacity="0.35" fill="#67696F"></path>
                                <path d="M1.05305014,0 C1.63463367,0 2.10610028,0.469504278 2.10610028,1.04866716 C2.10610028,1.62783003 1.63463367,2.09733431 1.05305014,2.09733431 C0.471466606,2.09733431 0,1.62783003 0,1.04866716 C0,0.469504278 0.471466606,0 1.05305014,0 Z" id="Rectangle-Copy-4" fill="#DFE0E1" opacity="0.647623698"></path>
                                <path d="M16.8488022,0 C17.4303857,0 17.9018523,0.469504278 17.9018523,1.04866716 C17.9018523,1.62783003 17.4303857,2.09733431 16.8488022,2.09733431 C16.2672187,2.09733431 15.7957521,1.62783003 15.7957521,1.04866716 C15.7957521,0.469504278 16.2672187,0 16.8488022,0 Z" id="Rectangle-Copy-6" fill="#ACAEB2" opacity="0.647623698"></path>
                            </g>
                            <path d="M60.8136454,37.1228173 C56.9902535,37.1228173 54.2975665,34.2096564 51.8209176,28.7192908 L51.4896857,27.963364 C51.4078478,27.7215544 48.6709552,20.7598989 48.0380369,19.8620894 C47.7599319,19.4675908 47.5307068,19.2954757 47.3646321,19.2954757 C46.5729563,19.2954757 45.6495201,20.9295108 44.3464734,24.4090874 L43.1926779,27.5763925 L42.9539968,28.206785 C42.7256384,28.7980505 42.52599,29.2767079 42.3347288,29.6857161 C42.0258391,30.3462703 41.7439847,30.8122309 41.4576081,31.1014569 C41.0526061,31.5104886 40.568693,31.6044318 40.1449359,31.2610369 C39.7791983,30.9646586 39.447803,30.6196714 39.0344497,30.1252115 L38.7511044,29.7790247 C38.6078654,29.6013463 38.366071,29.3009921 38.2835781,29.2007815 C38.0778416,28.9508574 37.9134884,28.7641859 37.7585157,28.6079838 C37.0626549,27.9066027 36.6405594,27.8669317 35.9862703,28.593965 C35.7010953,28.9108458 35.3161177,29.6161817 34.7775536,30.7898615 L34.3829443,31.6731339 C33.9377015,32.6946235 32.8756998,35.1638749 32.527938,35.9440928 L32.1565836,36.7663863 C30.7561732,39.8241177 29.6139351,41.8028455 28.4660746,42.9276929 C27.6136647,43.7630131 26.7572177,44.0908063 25.9171773,43.7821356 C24.5640534,43.2849337 23.6276799,42.3621932 21.9376609,40.114309 L21.3597334,39.3356707 C19.2221419,36.4387405 18.1105444,35.4187332 16.5855397,35.4187332 C14.2918504,35.4187332 11.6405368,39.3691698 8.82147432,47.2992817 C8.74384109,47.5176664 8.50313119,47.63203 8.2838337,47.5547199 C8.06453622,47.4774098 7.94969465,47.2377017 8.02732788,47.019317 L8.34795109,46.1320611 C11.174847,38.4392745 13.8640746,34.5797995 16.5855397,34.5797995 C18.3747557,34.5797995 19.5680871,35.5688841 21.6047246,38.2580387 L22.608176,39.6061993 C24.1945956,41.7153829 25.0624244,42.5738371 26.2088045,42.9950715 C26.6849699,43.1700373 27.230913,42.9610852 27.8751883,42.3297267 C28.9742427,41.2527069 30.1323574,39.2062696 31.5759852,36.0093573 L32.0403197,34.9610247 C32.589852,33.7009402 33.5458659,31.4779259 33.7671922,30.981402 L34.0218719,30.4178587 C34.5922952,29.1752415 35.0011715,28.4315678 35.3589049,28.0340614 C36.3712034,26.9092151 37.3485109,27.0010681 38.3577957,28.0183597 C38.4989556,28.1606395 38.6423971,28.3199497 38.8071887,28.5153271 L39.5062483,29.375415 L39.835679,29.7695909 C40.1457944,30.128948 40.4050036,30.3901846 40.6766622,30.6103253 C40.7188124,30.644482 40.7289299,30.6425179 40.8577367,30.5124294 C41.0598544,30.3083007 41.2997318,29.9117363 41.571034,29.3315622 C41.7536132,28.9411202 41.946911,28.4774672 42.1695846,27.9007448 L43.5582343,24.1110587 C45.0483542,20.1111899 46.0081756,18.4565419 47.3646321,18.4565419 C47.8710231,18.4565419 48.3075631,18.7843209 48.7275344,19.3800602 C49.4420865,20.3936691 52.3622746,27.8376441 52.2688023,27.6467001 L52.4260657,28.0089263 L52.7615823,28.7518825 C55.0052173,33.5913732 57.3966302,36.1570223 60.5738691,36.279297 L60.8136454,36.2838836 L67.8250046,36.2838836 L67.8250046,37.1228173 L60.8136454,37.1228173 Z" id="Path-11" fill="#7B7D82" fill-rule="nonzero"></path>
                            <path d="M49.1349648,35.8059572 L49.2099531,35.3924128 C50.5324203,27.9492229 54.7409128,26.7300901 56.0551843,32.7005288 L56.1061979,32.9431831 C56.9487303,37.1435819 59.3062089,40.2484723 61.9053413,42.0002462 C62.8549554,42.640271 64.6926475,42.9768307 67.3952088,42.9768307 C67.6278422,42.9768307 67.8164289,43.1646324 67.8164289,43.3962975 C67.8164289,43.6279627 67.6278422,43.8157644 67.3952088,43.8157644 C64.5377203,43.8157644 62.5581056,43.4532126 61.4331561,42.6950145 C58.7525794,40.8883485 56.3312123,37.7549195 55.3711665,33.533294 L55.2800776,33.107513 C54.2645556,28.0446844 51.3325637,28.7482218 50.0953919,35.2350795 L50.0395082,35.5385795 C48.5415729,43.9693491 46.0360056,47.5864602 40.828317,47.5864602 C37.5867133,47.5864602 35.5697102,46.3198906 33.9445499,43.9271216 L33.794922,43.6982728 C33.4219369,43.1137456 32.7692517,42.0187175 32.5670127,41.6996402 L31.8583938,40.6372152 C31.784119,40.528328 31.7140629,40.4271287 31.6441549,40.3278356 C30.1230337,38.1673271 28.7151914,37.1305113 26.6555887,37.1305113 C25.2104235,37.1305113 23.9494669,38.3935851 21.7024636,41.6795967 L20.2723629,43.7745322 C19.8991943,44.3074011 19.6657061,44.613888 19.335923,45.0221435 C18.9570225,45.4912039 18.6004779,45.8798265 18.2515308,46.1967912 C16.3491691,47.9247939 13.0948372,49.10927 8.48489257,49.7754548 C8.25467056,49.8087242 8.04095579,49.6498394 8.00754727,49.4205756 C7.97413875,49.1913119 8.13368762,48.9784866 8.36390963,48.9452171 C12.8224681,48.3009093 15.930314,47.1697495 17.6838051,45.5769728 C17.9347052,45.3490688 18.1950257,45.0744413 18.4702287,44.7495001 L18.8877285,44.2353492 C19.2643973,43.7561879 19.5770802,43.312776 20.3409113,42.1879023 L20.7902723,41.5247734 C23.3607042,37.7264081 24.7433817,36.2915775 26.6555887,36.2915775 C29.0513128,36.2915775 30.6711943,37.4845512 32.3339435,39.8462195 L32.6724168,40.3386802 L33.2324594,41.1792749 C33.3946979,41.4215435 34.2167994,42.8065048 34.5768457,43.3584175 L34.6423618,43.4571074 C36.121851,45.6354008 37.8929033,46.7475264 40.828317,46.7475264 C45.4239205,46.7475264 47.6957329,43.5822562 49.1349648,35.8059572 Z" id="Path-12" fill-opacity="0.851207386" fill="#9EA0A5" fill-rule="nonzero"></path>
                        </g>
                        <g id="Pages" transform="translate(21.563218, 17.455939)">
                            <g id="Rectangle-Copy-11" transform="translate(32.080600, 31.410913) rotate(-57.000000) translate(-32.080600, -31.410913) ">
                                <use fill="black" fill-opacity="1" filter="url(#filter-34)" xlink:href="#path-33"></use>
                                <use fill="#CCCED3" fill-rule="evenodd" xlink:href="#path-33"></use>
                            </g>
                            <g id="Rectangle-Copy-11" transform="translate(32.080600, 31.410913) rotate(-30.000000) translate(-32.080600, -31.410913) ">
                                <use fill="black" fill-opacity="1" filter="url(#filter-36)" xlink:href="#path-35"></use>
                                <use fill="#CCCED3" fill-rule="evenodd" xlink:href="#path-35"></use>
                            </g>
                        </g>
                        <g id="doc" transform="translate(185.854406, 67.770115)">
                            <g id="Rectangle-Copy-11" transform="translate(35.102691, 35.772009) rotate(32.000000) translate(-35.102691, -35.772009) ">
                                <use fill="black" fill-opacity="1" filter="url(#filter-38)" xlink:href="#path-37"></use>
                                <use fill="#D5D6DA" fill-rule="evenodd" xlink:href="#path-37"></use>
                            </g>
                            <g id="Rectangle-Copy-12" transform="translate(44.705163, 22.961919) scale(-1, -1) rotate(27.000000) translate(-44.705163, -22.961919) ">
                                <use fill="black" fill-opacity="1" filter="url(#filter-40)" xlink:href="#path-39"></use>
                                <use fill="#B0B2B6" fill-rule="evenodd" xlink:href="#path-39"></use>
                            </g>
                        </g>
                    </g>
                </g>
            </g>
        </g>
    </g>
</svg>
