<?xml version="1.0" encoding="UTF-8"?>
<svg width="520px" height="317px" viewBox="0 0 520 317" version="1.1" xmlns="http://www.w3.org/2000/svg" xmlns:xlink="http://www.w3.org/1999/xlink">
    <defs>
        <path d="M41.8238472,5.55002593 L80.8690703,40.0972747 C82.2750153,44.5033764 80.0212575,51.9853351 74.107797,62.5431508 C68.3404045,72.8401786 58.6545575,79.8606163 45.0502562,83.604464 C44.4047269,83.782042 43.713151,83.6235775 43.2093878,83.182596 L5.28356707,49.983291 C5.11758022,49.8384851 5.10083555,49.5865095 5.24592158,49.4207679 C5.31446358,49.3424677 5.41089381,49.2940569 5.51463313,49.2858668 C16.8985823,48.3871188 26.228721,42.4832846 33.5050493,31.5743641 C40.9839034,20.36181 43.7568361,11.6870306 41.8238472,5.55002593 Z" id="path-1"></path>
        <filter x="-5.3%" y="-2.6%" width="110.5%" height="110.2%" filterUnits="objectBoundingBox" id="filter-2">
            <feOffset dx="0" dy="2" in="SourceAlpha" result="shadowOffsetOuter1"></feOffset>
            <feGaussianBlur stdDeviation="1" in="shadowOffsetOuter1" result="shadowBlurOuter1"></feGaussianBlur>
            <feColorMatrix values="0 0 0 0 0   0 0 0 0 0   0 0 0 0 0  0 0 0 0.05 0" type="matrix" in="shadowBlurOuter1"></feColorMatrix>
        </filter>
        <path d="M42.6915374,19.127972 L80.4139228,36.1277352 L80.4139228,36.1277352 C81.2904015,36.8527632 82.0320345,37.8107209 82.6388218,39.001608 C83.2456092,40.1924952 83.2222757,41.8142334 82.5688214,43.8668225 L32.5780883,30.9003347 C38.6433997,31.0642963 40.7192201,28.3149842 38.8055494,22.6523983 C38.8055494,22.6523983 38.8055494,22.6523983 38.8055494,22.6523983 C38.2996502,21.1554338 39.1030675,19.5317919 40.6000321,19.0258928 C41.2850526,18.7943901 42.0323229,18.8308478 42.6915374,19.127972 Z" id="path-3"></path>
        <filter x="-8.9%" y="-0.6%" width="113.9%" height="112.9%" filterUnits="objectBoundingBox" id="filter-4">
            <feOffset dx="-1" dy="0" in="SourceAlpha" result="shadowOffsetOuter1"></feOffset>
            <feGaussianBlur stdDeviation="1" in="shadowOffsetOuter1" result="shadowBlurOuter1"></feGaussianBlur>
            <feColorMatrix values="0 0 0 0 0   0 0 0 0 0   0 0 0 0 0  0 0 0 0.07 0" type="matrix" in="shadowBlurOuter1"></feColorMatrix>
        </filter>
        <path d="M4.04929176,3.59427476 L62.2824609,3.59427476 C63.2570455,3.59427476 64.0471024,4.37705004 64.0471024,5.34265227 L64.0471024,87.5163953 C64.0471024,88.4819976 63.2570455,89.2647728 62.2824609,89.2647728 L4.04929176,89.2647728 C3.07470718,89.2647728 2.28465028,88.4819976 2.28465028,87.5163953 L2.28465028,5.34265227 C2.28465028,4.37705004 3.07470718,3.59427476 4.04929176,3.59427476 Z" id="path-5"></path>
        <filter x="-25.1%" y="-13.4%" width="150.2%" height="136.2%" filterUnits="objectBoundingBox" id="filter-6">
            <feOffset dx="0" dy="4" in="SourceAlpha" result="shadowOffsetOuter1"></feOffset>
            <feGaussianBlur stdDeviation="4.5" in="shadowOffsetOuter1" result="shadowBlurOuter1"></feGaussianBlur>
            <feColorMatrix values="0 0 0 0 0   0 0 0 0 0   0 0 0 0 0  0 0 0 0.07 0" type="matrix" in="shadowBlurOuter1"></feColorMatrix>
        </filter>
        <linearGradient x1="50%" y1="1.00031672%" x2="50%" y2="99.3243243%" id="linearGradient-7">
            <stop stop-color="#FFFFFF" stop-opacity="0" offset="0%"></stop>
            <stop stop-color="#FFFFFF" offset="100%"></stop>
        </linearGradient>
        <linearGradient x1="50%" y1="0%" x2="50%" y2="100%" id="linearGradient-8">
            <stop stop-color="#FFFFFF" offset="0%"></stop>
            <stop stop-color="#FFFFFF" offset="100%"></stop>
        </linearGradient>
        <path d="M224.28283,131.494253 L277.227759,131.494253 C277.780029,131.49428 278.227732,131.941983 278.227732,132.494253 C278.227732,132.661036 278.186016,132.825171 278.106381,132.971715 C271.667067,144.821291 268.447409,157.096745 268.447409,169.798077 C268.447409,182.466796 271.650554,194.437094 278.056844,205.708969 C278.329714,206.189124 278.161698,206.799577 277.681553,207.072464 C277.530944,207.158062 277.360682,207.203065 277.187448,207.203065 L224.214264,207.203065 C223.868085,207.203049 223.546529,207.024002 223.364207,206.729725 C216.574787,195.771242 213.180077,184.072567 213.180077,171.633701 C213.180077,159.18263 216.581451,145.989915 223.384201,132.055555 C223.551863,131.712098 223.900634,131.494253 224.28283,131.494253 Z" id="path-9"></path>
        <filter x="-18.3%" y="-10.6%" width="129.4%" height="126.4%" filterUnits="objectBoundingBox" id="filter-10">
            <feOffset dx="-2" dy="2" in="SourceAlpha" result="shadowOffsetOuter1"></feOffset>
            <feGaussianBlur stdDeviation="3" in="shadowOffsetOuter1" result="shadowBlurOuter1"></feGaussianBlur>
            <feColorMatrix values="0 0 0 0 0   0 0 0 0 0   0 0 0 0 0  0 0 0 0.05 0" type="matrix" in="shadowBlurOuter1"></feColorMatrix>
        </filter>
        <path d="M11.324727,0 L120.653998,0 C125.523424,0 129.470874,3.93727974 129.470874,8.79416044 C129.470874,14.3149389 129.470874,18.3455958 129.470874,20.886131 C129.470874,37.497323 129.470874,62.1942569 129.470874,94.9769327 C129.470874,99.8338134 125.523424,103.771093 120.653998,103.771093 L11.324727,103.771093 C6.4553005,103.771093 2.50785036,99.8338134 2.50785036,94.9769327 C2.50785036,61.9011182 2.50785036,37.2041843 2.50785036,20.886131 C2.50785036,18.0524571 2.50785036,14.0218003 2.50785036,8.79416044 C2.50785036,3.93727974 6.4553005,0 11.324727,0 Z" id="path-11"></path>
        <filter x="-12.2%" y="-11.1%" width="124.4%" height="129.9%" filterUnits="objectBoundingBox" id="filter-12">
            <feOffset dx="0" dy="4" in="SourceAlpha" result="shadowOffsetOuter1"></feOffset>
            <feGaussianBlur stdDeviation="4.5" in="shadowOffsetOuter1" result="shadowBlurOuter1"></feGaussianBlur>
            <feColorMatrix values="0 0 0 0 0   0 0 0 0 0   0 0 0 0 0  0 0 0 0.07 0" type="matrix" in="shadowBlurOuter1"></feColorMatrix>
        </filter>
        <path d="M8.81687667,0 L118.146147,0 C123.015574,0 126.963024,3.93727974 126.963024,8.79416044 C126.963024,14.3149389 126.963024,18.3455958 126.963024,20.886131 C126.963024,37.497323 126.963024,62.1942569 126.963024,94.9769327 C126.963024,99.8338134 123.015574,103.771093 118.146147,103.771093 L8.81687667,103.771093 C3.94745014,103.771093 0,99.8338134 0,94.9769327 C0,61.9011182 0,37.2041843 0,20.886131 C0,18.0524571 0,14.0218003 0,8.79416044 C0,3.93727974 3.94745014,0 8.81687667,0 Z" id="path-13"></path>
        <filter x="-12.2%" y="-11.1%" width="124.4%" height="129.9%" filterUnits="objectBoundingBox" id="filter-14">
            <feOffset dx="0" dy="4" in="SourceAlpha" result="shadowOffsetOuter1"></feOffset>
            <feGaussianBlur stdDeviation="4.5" in="shadowOffsetOuter1" result="shadowBlurOuter1"></feGaussianBlur>
            <feColorMatrix values="0 0 0 0 0   0 0 0 0 0   0 0 0 0 0  0 0 0 0.07 0" type="matrix" in="shadowBlurOuter1"></feColorMatrix>
        </filter>
        <path d="M14.4191235,2.23053295 L68.196658,2.23053295 C69.3012275,2.23053295 70.196658,3.12596345 70.196658,4.23053295 L70.196658,93.8703797 C70.196658,94.9749492 69.3012275,95.8703797 68.196658,95.8703797 L4.45719437,95.8703797 C3.35262487,95.8703797 2.45719437,94.9749492 2.45719437,93.8703797 L2.45719437,12.8466784 L2.45719437,12.8466784 L14.4191235,2.23053295 Z" id="path-15"></path>
        <filter x="-22.9%" y="-12.3%" width="145.8%" height="133.1%" filterUnits="objectBoundingBox" id="filter-17">
            <feOffset dx="0" dy="4" in="SourceAlpha" result="shadowOffsetOuter1"></feOffset>
            <feGaussianBlur stdDeviation="4.5" in="shadowOffsetOuter1" result="shadowBlurOuter1"></feGaussianBlur>
            <feColorMatrix values="0 0 0 0 0   0 0 0 0 0   0 0 0 0 0  0 0 0 0.07 0" type="matrix" in="shadowBlurOuter1"></feColorMatrix>
        </filter>
        <path d="M10.3689705,7.41370094 L17.7888,13.8636603 L17.7888,13.8636603 L1.60428644,13.9520449 L7.59737796,7.55566474 C8.33277357,6.77078271 9.55722906,6.70806484 10.3689705,7.41370094 Z" id="path-18"></path>
        <filter x="-3.1%" y="-9.3%" width="106.2%" height="115.7%" filterUnits="objectBoundingBox" id="filter-19">
            <feOffset dx="0" dy="-1" in="SourceAlpha" result="shadowOffsetOuter1"></feOffset>
            <feColorMatrix values="0 0 0 0 0   0 0 0 0 0   0 0 0 0 0  0 0 0 0.02 0" type="matrix" in="shadowOffsetOuter1"></feColorMatrix>
        </filter>
        <path d="M3.22411863,4.13986144 L80.242181,4.13986144 C81.5311477,4.13986144 82.5760617,5.19569785 82.5760617,6.49813808 L82.5760617,117.33714 C82.5760617,118.639581 81.5311477,119.695417 80.242181,119.695417 L3.22411863,119.695417 C1.93515192,119.695417 0.890237947,118.639581 0.890237947,117.33714 L0.890237947,6.49813808 C0.890237947,5.19569785 1.93515192,4.13986144 3.22411863,4.13986144 Z" id="path-20"></path>
        <filter x="-19.0%" y="-10.0%" width="138.0%" height="126.8%" filterUnits="objectBoundingBox" id="filter-21">
            <feOffset dx="0" dy="4" in="SourceAlpha" result="shadowOffsetOuter1"></feOffset>
            <feGaussianBlur stdDeviation="4.5" in="shadowOffsetOuter1" result="shadowBlurOuter1"></feGaussianBlur>
            <feColorMatrix values="0 0 0 0 0   0 0 0 0 0   0 0 0 0 0  0 0 0 0.07 0" type="matrix" in="shadowBlurOuter1"></feColorMatrix>
        </filter>
        <linearGradient x1="50%" y1="1.00031672%" x2="50%" y2="99.3243243%" id="linearGradient-22">
            <stop stop-color="#FFFFFF" stop-opacity="0" offset="0%"></stop>
            <stop stop-color="#FFFFFF" offset="100%"></stop>
        </linearGradient>
        <path d="M13.2528677,0 L139.664837,0 C145.295111,0 149.859351,4.55489225 149.859351,10.1736366 C149.859351,16.5604196 149.859351,21.2233363 149.859351,24.1623869 C149.859351,43.379256 149.859351,71.9502187 149.859351,109.875275 C149.859351,115.494019 145.295111,120.048912 139.664837,120.048912 L13.2528677,120.048912 C7.62259332,120.048912 3.05835409,115.494019 3.05835409,109.875275 C3.05835409,71.6110975 3.05835409,43.0401348 3.05835409,24.1623869 C3.05835409,20.8842151 3.05835409,16.2212983 3.05835409,10.1736366 C3.05835409,4.55489225 7.62259332,0 13.2528677,0 Z" id="path-23"></path>
        <filter x="-10.6%" y="-9.6%" width="121.1%" height="125.8%" filterUnits="objectBoundingBox" id="filter-24">
            <feOffset dx="0" dy="4" in="SourceAlpha" result="shadowOffsetOuter1"></feOffset>
            <feGaussianBlur stdDeviation="4.5" in="shadowOffsetOuter1" result="shadowBlurOuter1"></feGaussianBlur>
            <feColorMatrix values="0 0 0 0 0   0 0 0 0 0   0 0 0 0 0  0 0 0 0.07 0" type="matrix" in="shadowBlurOuter1"></feColorMatrix>
        </filter>
        <path d="M10.1945136,0 L136.606483,0 C142.236757,0 146.800997,4.55489225 146.800997,10.1736366 C146.800997,16.5604196 146.800997,21.2233363 146.800997,24.1623869 C146.800997,43.379256 146.800997,71.9502187 146.800997,109.875275 C146.800997,115.494019 142.236757,120.048912 136.606483,120.048912 L10.1945136,120.048912 C4.56423923,120.048912 0,115.494019 0,109.875275 C0,71.6110975 0,43.0401348 0,24.1623869 C0,20.8842151 0,16.2212983 0,10.1736366 C0,4.55489225 4.56423923,0 10.1945136,0 Z" id="path-25"></path>
        <filter x="-10.6%" y="-9.6%" width="121.1%" height="125.8%" filterUnits="objectBoundingBox" id="filter-26">
            <feOffset dx="0" dy="4" in="SourceAlpha" result="shadowOffsetOuter1"></feOffset>
            <feGaussianBlur stdDeviation="4.5" in="shadowOffsetOuter1" result="shadowBlurOuter1"></feGaussianBlur>
            <feColorMatrix values="0 0 0 0 0   0 0 0 0 0   0 0 0 0 0  0 0 0 0.07 0" type="matrix" in="shadowBlurOuter1"></feColorMatrix>
        </filter>
        <linearGradient x1="50%" y1="0%" x2="50%" y2="100%" id="linearGradient-27">
            <stop stop-color="#FFFFFF" offset="0%"></stop>
            <stop stop-color="#FFFFFF" offset="100%"></stop>
        </linearGradient>
        <path d="M8.54586879,57.3413731 L42.9716653,4.33029526 C43.5709881,3.40754227 44.8048583,3.14527506 45.7276478,3.74454159 C45.9972902,3.91964937 46.2205476,4.15741447 46.3783553,4.43753312 C54.3418952,18.5733217 64.7747631,29.830608 77.676959,38.209392 C90.5266341,46.5540686 104.716957,51.3236853 120.247926,52.5182423 C121.344965,52.6027144 122.165893,53.560448 122.081515,54.6574935 C122.055959,54.9897502 121.947469,55.310289 121.765974,55.5897659 L87.3075569,108.651075 C86.9280151,109.235386 86.2708281,109.579028 85.5744102,109.558239 C69.7992442,109.064256 55.4944169,104.650345 42.6599284,96.3155308 C29.8033927,87.9663989 18.4222516,75.6828814 8.51650506,59.4649783 C8.11674626,58.8104596 8.12816158,57.9845858 8.54586879,57.3413731 Z" id="path-28"></path>
        <filter x="-10.5%" y="-7.5%" width="117.6%" height="118.8%" filterUnits="objectBoundingBox" id="filter-29">
            <feOffset dx="-2" dy="2" in="SourceAlpha" result="shadowOffsetOuter1"></feOffset>
            <feGaussianBlur stdDeviation="3" in="shadowOffsetOuter1" result="shadowBlurOuter1"></feGaussianBlur>
            <feColorMatrix values="0 0 0 0 0   0 0 0 0 0   0 0 0 0 0  0 0 0 0.05 0" type="matrix" in="shadowBlurOuter1"></feColorMatrix>
        </filter>
        <linearGradient x1="50%" y1="0%" x2="50%" y2="100%" id="linearGradient-30">
            <stop stop-color="#FFFFFF" offset="0%"></stop>
            <stop stop-color="#FFFFFF" offset="100%"></stop>
        </linearGradient>
        <path d="M16.0355415,33.3549916 L70.7756765,1.75075996 C71.7285981,1.20066789 72.9470513,1.52715145 73.4972015,2.48003953 C73.6579573,2.75847675 73.7489381,3.07168378 73.7623746,3.39291451 C74.4404268,19.6033658 78.6254791,34.3701043 86.3175315,47.6931299 C93.978272,60.9619215 104.456581,71.6539528 117.752459,79.7692236 C118.691578,80.3425337 118.988229,81.5685744 118.414999,82.5077421 C118.241387,82.792183 117.9992,83.0285314 117.710607,83.1951504 L62.9186021,114.829329 C62.3151562,115.177646 61.5735881,115.185476 60.9629561,114.849917 C47.1310011,107.248868 36.3891803,96.8217892 28.7374938,83.5686794 C21.0726632,70.2928033 16.5085925,54.1811791 15.0452816,35.2338069 C14.9862392,34.4691397 15.3713492,33.7384632 16.0355415,33.3549916 Z" id="path-31"></path>
        <filter x="-11.6%" y="-7.0%" width="119.3%" height="117.6%" filterUnits="objectBoundingBox" id="filter-32">
            <feOffset dx="-2" dy="2" in="SourceAlpha" result="shadowOffsetOuter1"></feOffset>
            <feGaussianBlur stdDeviation="3" in="shadowOffsetOuter1" result="shadowBlurOuter1"></feGaussianBlur>
            <feColorMatrix values="0 0 0 0 0   0 0 0 0 0   0 0 0 0 0  0 0 0 0.05 0" type="matrix" in="shadowBlurOuter1"></feColorMatrix>
        </filter>
        <path d="M62.7357708,8.32503889 L121.303605,60.145912 C123.412523,66.7550645 120.031886,77.9780026 111.161695,93.8147262 C102.586537,109.124703 88.236421,119.605691 68.1113471,125.257692 C66.8150291,125.621747 65.4225329,125.306517 64.4094004,124.419646 L10.3201914,77.0713196 C9.49228966,76.3465548 9.40864575,75.0878721 10.1333876,74.2599502 C10.4504036,73.8978014 10.887802,73.662656 11.3647375,73.5979765 C27.0450843,71.4714915 40.0093631,62.7260147 50.2575739,47.3615462 C61.4758552,30.542715 65.6352541,17.5305459 62.7357708,8.32503889 Z" id="path-33"></path>
        <filter x="-13.8%" y="-9.8%" width="127.6%" height="126.5%" filterUnits="objectBoundingBox" id="filter-34">
            <feOffset dx="0" dy="4" in="SourceAlpha" result="shadowOffsetOuter1"></feOffset>
            <feGaussianBlur stdDeviation="4.5" in="shadowOffsetOuter1" result="shadowBlurOuter1"></feGaussianBlur>
            <feColorMatrix values="0 0 0 0 0   0 0 0 0 0   0 0 0 0 0  0 0 0 0.05 0" type="matrix" in="shadowBlurOuter1"></feColorMatrix>
        </filter>
        <path d="M64.0372852,28.6919487 L120.620884,54.1916027 L120.620884,54.1916027 C121.935602,55.2791448 123.048052,56.7160813 123.958233,58.502412 C124.868414,60.2887428 124.833413,62.72135 123.853232,65.8002338 L48.8671324,46.350502 C57.9650996,46.5964444 61.0788301,42.4724763 58.208324,33.9785975 C58.208324,33.9785975 58.208324,33.9785975 58.208324,33.9785975 C57.4494809,31.733167 58.654598,29.297722 60.9000285,28.5388788 C61.9275518,28.1916274 63.0484491,28.2463135 64.0372852,28.6919487 Z" id="path-35"></path>
        <filter x="-9.9%" y="-3.5%" width="114.5%" height="114.1%" filterUnits="objectBoundingBox" id="filter-36">
            <feOffset dx="-2" dy="-1" in="SourceAlpha" result="shadowOffsetOuter1"></feOffset>
            <feGaussianBlur stdDeviation="1.5" in="shadowOffsetOuter1" result="shadowBlurOuter1"></feGaussianBlur>
            <feColorMatrix values="0 0 0 0 0   0 0 0 0 0   0 0 0 0 0  0 0 0 0.07 0" type="matrix" in="shadowBlurOuter1"></feColorMatrix>
        </filter>
    </defs>
    <g id="In-App-generic-empty-states" stroke="none" stroke-width="1" fill="none" fill-rule="evenodd">
        <g id="Generic-Empty-State_Too-much-data-" transform="translate(-83.000000, -1304.000000)">
            <g id="Bright" transform="translate(81.000000, 71.000000)">
                <g id="Too-much-data_XL" transform="translate(0.000000, 1192.000000)">
                    <g id="Too-much-data_XL-drawing" transform="translate(2.000000, 41.000000)">
                        <path d="M132.571339,39.8842068 C228.980895,42.7592208 330.305909,35.0912149 422.448236,57.6352661 C493.999115,75.1412996 462.579598,239.464032 445.081365,282.97584 C427.583132,326.487649 358.970177,292.02611 270.672169,292.02611 C182.374161,292.02611 132.571339,330.706717 91.8893325,282.97584 C33.0239937,200.324971 36.1617833,37.0091928 132.571339,39.8842068 Z" id="Rectangle" fill="#CCCED3" opacity="0.08"></path>
                        <path d="M173.08118,37.2714344 C249.759412,27.6914624 390.853219,68.1689265 476.626088,121.66741 C543.23092,163.210354 436.989397,266.799399 398.833859,296.482042 C360.67832,326.164685 299.342609,319.877864 201.73169,299.482166 C104.120772,279.086468 40.0202325,279.713107 19.4348328,224.600051 C-4.1353872,133.527607 96.4029473,46.8514063 173.08118,37.2714344 Z" id="Rectangle-Copy" fill="#F1F2F5" opacity="0.22"></path>
                        <g id="Decorations" transform="translate(0.000000, 31.877395)">
                            <circle id="Oval" fill="#CCCED3" cx="515.019157" cy="168.35249" r="4.98084291"></circle>
                            <circle id="Oval-Copy-2" fill="#CCCED3" cx="283.908046" cy="153.287791" r="2.98850575"></circle>
                            <path d="M337.204981,39.8467433 L340.065134,39.8467433 C340.341276,39.8467433 340.565134,40.0706009 340.565134,40.3467433 L340.565134,79.1934866 C340.565134,79.469629 340.341276,79.6934866 340.065134,79.6934866 L337.204981,79.6934866 C336.928838,79.6934866 336.704981,79.469629 336.704981,79.1934866 L336.704981,40.3467433 C336.704981,40.0706009 336.928838,39.8467433 337.204981,39.8467433 Z" id="Rectangle-Copy-6" fill="#CCCED3" opacity="0.339076451" transform="translate(338.635057, 59.770115) scale(-1, 1) rotate(18.000000) translate(-338.635057, -59.770115) "></path>
                            <rect id="Rectangle-Copy-5" fill="#CCCED3" opacity="0.339076451" x="366.590038" y="225.1341" width="3.98467433" height="31.8773946" rx="0.5"></rect>
                            <circle id="Oval-Copy-3" fill="#CCCED3" cx="1.99233716" cy="76.5828099" r="1.99233716"></circle>
                            <circle id="Oval-Copy-4" fill="#CCCED3" cx="404.444444" cy="191.264368" r="1.99233716"></circle>
                            <circle id="Oval-Copy" fill="#CCCED3" cx="143.448276" cy="219.157088" r="5.97701149"></circle>
                            <g id="corner-llines" opacity="0.34" transform="translate(34.865900, 26.896552) rotate(-13.000000) translate(-34.865900, -26.896552) translate(11.954023, 5.977011)" fill="#CCCED3">
                                <path d="M39.1828665,2.77926014 L42.1675408,2.77926014 C42.4436832,2.77926014 42.6675408,3.00311777 42.6675408,3.27926014 L42.6675408,26.1873061 C42.6675408,26.4634485 42.4436832,26.6873061 42.1675408,26.6873061 L39.1828665,26.6873061 C38.9067241,26.6873061 38.6828665,26.4634485 38.6828665,26.1873061 L38.6828665,3.27926014 C38.6828665,3.00311777 38.9067241,2.77926014 39.1828665,2.77926014 Z" id="Rectangle-Copy" transform="translate(40.675204, 14.733283) rotate(-12.000000) translate(-40.675204, -14.733283) "></path>
                                <path d="M19.6477214,-3.98467433 L22.6323958,-3.98467433 C22.9085381,-3.98467433 23.1323958,-3.7608167 23.1323958,-3.48467433 L23.1323958,35.362069 C23.1323958,35.6382113 22.9085381,35.862069 22.6323958,35.862069 L19.6477214,35.862069 C19.3715791,35.862069 19.1477214,35.6382113 19.1477214,35.362069 L19.1477214,-3.48467433 C19.1477214,-3.7608167 19.3715791,-3.98467433 19.6477214,-3.98467433 Z" id="Rectangle-Copy-2" transform="translate(21.140059, 15.938697) rotate(-44.000000) translate(-21.140059, -15.938697) "></path>
                                <path d="M14.4463602,18.8050322 L17.4310345,18.8050322 C17.7071769,18.8050322 17.9310345,19.0288898 17.9310345,19.3050322 L17.9310345,50.1824268 C17.9310345,50.4585692 17.7071769,50.6824268 17.4310345,50.6824268 L14.4463602,50.6824268 C14.1702178,50.6824268 13.9463602,50.4585692 13.9463602,50.1824268 L13.9463602,19.3050322 C13.9463602,19.0288898 14.1702178,18.8050322 14.4463602,18.8050322 Z" id="Rectangle-Copy-4" transform="translate(15.938697, 34.743729) rotate(-75.000000) translate(-15.938697, -34.743729) "></path>
                            </g>
                            <path d="M32.4609367,221.732967 C33.1791423,221.014762 34.3092578,220.959515 35.0908341,221.567228 L35.2785269,221.732967 L40.9126437,227.365517 L46.5488879,221.732967 C47.3269439,220.954911 48.5884221,220.954911 49.3664781,221.732967 C50.1445342,222.511023 50.1445342,223.772502 49.3664781,224.550558 L43.7318008,230.184674 L49.3664781,235.820919 C50.0846837,236.539124 50.1399303,237.66924 49.5322179,238.450816 L49.3664781,238.638509 C48.6482725,239.356714 47.518157,239.411961 46.7365807,238.804249 L46.5488879,238.638509 L40.9126437,233.003831 L35.2785269,238.638509 C34.5004709,239.416565 33.2389927,239.416565 32.4609367,238.638509 C31.6828806,237.860453 31.6828806,236.598975 32.4609367,235.820919 L38.0934866,230.184674 L32.4609367,224.550558 C31.7427311,223.832352 31.6874845,222.702236 32.2951969,221.92066 L32.4609367,221.732967 Z" id="Path" fill="#CCCED3"></path>
                            <path d="M485.872948,133.74391 C486.216042,134.087004 486.216042,134.643268 485.872948,134.986362 L483.38682,137.471264 L485.872948,139.956167 C486.173155,140.256374 486.210681,140.71979 485.985526,141.060799 L485.872948,141.198619 C485.572741,141.498825 485.109325,141.536351 484.768316,141.311196 L484.630497,141.198619 L482.145594,138.71249 L479.660691,141.198619 C479.317598,141.541712 478.761333,141.541712 478.41824,141.198619 C478.075146,140.855525 478.075146,140.299261 478.41824,139.956167 L480.904368,137.471264 L478.41824,134.986362 C478.118033,134.686155 478.080507,134.222739 478.305662,133.88173 L478.41824,133.74391 C478.718446,133.443703 479.181862,133.406178 479.522871,133.631333 L479.660691,133.74391 L482.145594,136.230038 L484.630497,133.74391 C484.97359,133.400817 485.529855,133.400817 485.872948,133.74391 Z" id="Path" fill="#CCCED3"></path>
                            <path d="M40.8429119,128.383576 C41.1179962,128.383576 41.3409962,128.606576 41.3409962,128.881661 L41.3412452,129.956277 L42.2406697,129.057621 C42.4336598,128.864631 42.7465585,128.864631 42.9395486,129.057621 C43.1325387,129.250611 43.1325387,129.56351 42.9395486,129.7565 L41.8216475,130.873749 L43.3333333,130.873998 C43.5809093,130.873998 43.7862968,131.054628 43.8248985,131.29129 L43.8314176,131.372082 C43.8314176,131.622159 43.6471202,131.82919 43.4069366,131.864766 L43.3333333,131.870166 L42.2572222,131.869668 L42.9395486,132.552016 C43.1132397,132.725707 43.1306088,132.996524 42.9916559,133.18964 L42.9395486,133.250895 C42.7658575,133.424586 42.4950405,133.441955 42.3019242,133.303002 L42.2406697,133.250895 L41.3412452,132.351565 L41.3409962,133.862503 C41.3409962,134.137588 41.1179962,134.360588 40.8429119,134.360588 C40.5678275,134.360588 40.3448276,134.137588 40.3448276,133.862503 L40.3445785,132.350818 L39.445154,133.250895 C39.252164,133.443885 38.9392652,133.443885 38.7462751,133.250895 C38.553285,133.057905 38.553285,132.745006 38.7462751,132.552016 L39.4278544,131.869668 L38.3524904,131.870166 C38.1049145,131.870166 37.899527,131.689536 37.8609252,131.452874 L37.8544061,131.372082 C37.8544061,131.122005 38.0387036,130.914974 38.2788872,130.879398 L38.3524904,130.873998 L39.862682,130.873749 L38.7462751,129.7565 C38.5725841,129.582809 38.5552149,129.311992 38.6941678,129.118876 L38.7462751,129.057621 C38.9199662,128.88393 39.1907833,128.866561 39.3838996,129.005514 L39.445154,129.057621 L40.3445785,129.957024 L40.3448276,128.881661 C40.3448276,128.606576 40.5678275,128.383576 40.8429119,128.383576 Z" id="Path" fill="#CCCED3"></path>
                            <path d="M444.291188,10.9578544 C444.780227,10.9578544 445.186959,11.3102494 445.271307,11.7749604 L445.287356,11.954023 L445.287356,14.9425287 C445.287356,15.4926975 444.841356,15.9386973 444.291188,15.9386973 C443.802149,15.9386973 443.395416,15.5863024 443.311069,15.1215913 L443.295019,14.9425287 L443.295019,11.954023 C443.295019,11.4038543 443.741019,10.9578544 444.291188,10.9578544 Z M447.67521,9.96727377 L447.813176,10.0825413 L449.926368,12.195734 C450.315396,12.584762 450.315396,13.2155011 449.926368,13.6045291 C449.580566,13.9503318 449.043781,13.9887544 448.655538,13.7197967 L448.517573,13.6045291 L446.40438,11.4913365 C446.015352,11.1023084 446.015352,10.4715694 446.40438,10.0825413 C446.706958,9.77996398 447.155755,9.71272457 447.52332,9.8808231 L447.67521,9.96727377 Z M442.177995,10.0825413 C442.523798,10.428344 442.56222,10.9651283 442.293263,11.3533713 L442.177995,11.4913365 L440.064802,13.6045291 C439.675774,13.9935572 439.045035,13.9935572 438.656007,13.6045291 C438.310205,13.2587264 438.271782,12.7219422 438.54074,12.3336992 L438.656007,12.195734 L440.7692,10.0825413 C441.158228,9.69351331 441.788967,9.69351331 442.177995,10.0825413 Z M451.264368,6.97318008 C451.814537,6.97318008 452.260536,7.41917994 452.260536,7.96934866 C452.260536,8.45838752 451.908141,8.86512012 451.44343,8.94946763 L451.264368,8.96551724 L448.275862,8.96551724 C447.725693,8.96551724 447.279693,8.51951738 447.279693,7.96934866 C447.279693,7.4803098 447.632088,7.07357719 448.0968,6.98922969 L448.275862,6.97318008 L451.264368,6.97318008 Z M440.306513,6.97318008 C440.856682,6.97318008 441.302682,7.41917994 441.302682,7.96934866 C441.302682,8.45838752 440.950287,8.86512012 440.485576,8.94946763 L440.306513,8.96551724 L437.318008,8.96551724 C436.767839,8.96551724 436.321839,8.51951738 436.321839,7.96934866 C436.321839,7.4803098 436.674234,7.07357719 437.138945,6.98922969 L437.318008,6.97318008 L440.306513,6.97318008 Z M439.926837,2.21890062 L440.064802,2.33416818 L442.177995,4.44736086 C442.567023,4.83638889 442.567023,5.46712795 442.177995,5.85615598 C441.832192,6.20195867 441.295408,6.24038119 440.907165,5.97142354 L440.7692,5.85615598 L438.656007,3.7429633 C438.266979,3.35393527 438.266979,2.72319621 438.656007,2.33416818 C438.958585,2.03159082 439.407382,1.96435141 439.774946,2.13244994 L439.926837,2.21890062 Z M449.926368,2.33416818 C450.272171,2.67997087 450.310593,3.21675512 450.041636,3.60499816 L449.926368,3.7429633 L447.813176,5.85615598 C447.424148,6.24518401 446.793408,6.24518401 446.40438,5.85615598 C446.058578,5.51035329 446.020155,4.97356904 446.289113,4.585326 L446.40438,4.44736086 L448.517573,2.33416818 C448.906601,1.94514015 449.53734,1.94514015 449.926368,2.33416818 Z M444.291188,0 C444.780227,0 445.186959,0.352394956 445.271307,0.81710602 L445.287356,0.996168582 L445.287356,3.98467433 C445.287356,4.53484305 444.841356,4.98084291 444.291188,4.98084291 C443.802149,4.98084291 443.395416,4.62844796 443.311069,4.16373689 L443.295019,3.98467433 L443.295019,0.996168582 C443.295019,0.445999866 443.741019,0 444.291188,0 Z" id="Combined-Shape-Copy-5" fill="#CCCED3" fill-rule="nonzero"></path>
                            <path d="M478.671266,211.341999 C479.636979,211.869391 479.992309,213.07979 479.464918,214.045503 C474.106462,223.857443 450.794572,240.025531 437.60049,240.815331 C436.502119,240.881079 435.558413,240.043973 435.492664,238.945602 C435.426916,237.847231 436.264022,236.903525 437.362393,236.837776 C449.120523,236.133933 471.239886,220.792928 475.967763,212.135651 C476.495154,211.169938 477.705554,210.814608 478.671266,211.341999 Z M419.778396,226.687332 L419.956834,226.862997 L424.232158,231.628849 C424.735459,232.189898 425.512281,232.418897 426.239439,232.220575 L429.469443,231.330616 C431.781106,230.685735 433.43797,230.202247 434.431533,229.882922 C435.479096,229.546241 436.601248,230.122525 436.937928,231.170088 C437.274609,232.217652 436.698325,233.339803 435.650761,233.676484 L434.744955,233.958277 C433.14689,234.442869 430.665707,235.143589 427.287907,236.064836 C425.234756,236.624804 423.049623,236.049191 421.540835,234.576283 L421.26606,234.289656 L416.990738,229.523805 C416.255976,228.70474 416.324317,227.445115 417.143382,226.710353 C417.836437,226.088631 418.844923,226.041912 419.58396,226.538463 L419.778396,226.687332 Z M463.075674,215.766663 C463.847816,216.550589 463.838265,217.81203 463.05434,218.584173 C457.794535,223.764921 453.496432,226.559186 445.550476,229.610137 C444.523256,230.004551 443.370795,229.491561 442.976381,228.464341 C442.581967,227.437122 443.094957,226.28466 444.122176,225.890246 C451.550952,223.037873 455.384854,220.545392 460.258165,215.745329 C461.04209,214.973187 462.303532,214.982738 463.075674,215.766663 Z" id="Shape" fill="#E7E9EB" fill-rule="nonzero" opacity="0.847632999"></path>
                        </g>
                        <g id="doc" transform="translate(213.180077, 51.800766) scale(-1, 1) rotate(7.000000) translate(-213.180077, -51.800766) translate(167.356322, 5.977011)">
                            <g id="Rectangle-Copy-11">
                                <use fill="black" fill-opacity="1" filter="url(#filter-2)" xlink:href="#path-1"></use>
                                <use fill="#FFFFFF" fill-rule="evenodd" xlink:href="#path-1"></use>
                            </g>
                            <g id="Rectangle-Copy-12" transform="translate(57.827574, 29.701985) scale(-1, -1) rotate(27.000000) translate(-57.827574, -29.701985) ">
                                <use fill="black" fill-opacity="1" filter="url(#filter-4)" xlink:href="#path-3"></use>
                                <use fill="#CCCED3" fill-rule="evenodd" xlink:href="#path-3"></use>
                            </g>
                        </g>
                        <g id="Excel-Copy" transform="translate(262.988506, 70.727969) rotate(14.000000) translate(-262.988506, -70.727969) translate(229.118774, 25.900383)">
                            <path d="M7.16823383,0.413199895 L65.401403,0.413199895 C66.3759875,0.413199895 67.1660444,1.19597517 67.1660444,2.16157741 L67.1660444,84.3353205 C67.1660444,85.3009227 66.3759875,86.083698 65.401403,86.083698 L7.16823383,86.083698 C6.19364924,86.083698 5.40359234,85.3009227 5.40359234,84.3353205 L5.40359234,2.16157741 C5.40359234,1.19597517 6.19364924,0.413199895 7.16823383,0.413199895 Z" id="Rectangle" fill="#FFFFFF"></path>
                            <g id="Rectangle">
                                <use fill="black" fill-opacity="1" filter="url(#filter-6)" xlink:href="#path-5"></use>
                                <use fill="#FFFFFF" fill-rule="evenodd" xlink:href="#path-5"></use>
                            </g>
                            <g id="Grid" transform="translate(1.636009, 3.702820)">
                                <path d="M34.410509,5.21398875 L43.2337165,5.21398875 C43.7210088,5.21398875 44.1160372,5.60305246 44.1160372,6.08298688 L44.1160372,9.55897938 C44.1160372,10.0389138 43.7210088,10.4279775 43.2337165,10.4279775 L34.410509,10.4279775 C33.9232167,10.4279775 33.5281883,10.0389138 33.5281883,9.55897938 L33.5281883,6.08298688 C33.5281883,5.60305246 33.9232167,5.21398875 34.410509,5.21398875 Z" id="Rectangle" fill="#EBEBEC"></path>
                                <path d="M6.17624521,5.21398875 L14.9994527,5.21398875 C15.4867449,5.21398875 15.8817734,5.60305246 15.8817734,6.08298688 L15.8817734,9.55897938 C15.8817734,10.0389138 15.4867449,10.4279775 14.9994527,10.4279775 L6.17624521,10.4279775 C5.68895292,10.4279775 5.29392447,10.0389138 5.29392447,9.55897938 L5.29392447,6.08298688 C5.29392447,5.60305246 5.68895292,5.21398875 6.17624521,5.21398875 Z" id="Rectangle-Copy-8" fill="#EBEBEC"></path>
                                <path d="M48.5276409,5.21398875 L57.3508484,5.21398875 C57.8381407,5.21398875 58.2331691,5.60305246 58.2331691,6.08298688 L58.2331691,9.55897938 C58.2331691,10.0389138 57.8381407,10.4279775 57.3508484,10.4279775 L48.5276409,10.4279775 C48.0403486,10.4279775 47.6453202,10.0389138 47.6453202,9.55897938 L47.6453202,6.08298688 C47.6453202,5.60305246 48.0403486,5.21398875 48.5276409,5.21398875 Z" id="Rectangle-Copy-7" fill="#EBEBEC"></path>
                                <path d="M20.2933771,5.21398875 L29.1165846,5.21398875 C29.6038769,5.21398875 29.9989053,5.60305246 29.9989053,6.08298688 L29.9989053,9.55897938 C29.9989053,10.0389138 29.6038769,10.4279775 29.1165846,10.4279775 L20.2933771,10.4279775 C19.8060848,10.4279775 19.4110564,10.0389138 19.4110564,9.55897938 L19.4110564,6.08298688 C19.4110564,5.60305246 19.8060848,5.21398875 20.2933771,5.21398875 Z" id="Rectangle-Copy-9" fill="#EBEBEC"></path>
                                <path d="M34.410509,13.90397 L43.2337165,13.90397 C43.7210088,13.90397 44.1160372,14.2930337 44.1160372,14.7729681 L44.1160372,18.2489606 C44.1160372,18.728895 43.7210088,19.1179588 43.2337165,19.1179588 L34.410509,19.1179588 C33.9232167,19.1179588 33.5281883,18.728895 33.5281883,18.2489606 L33.5281883,14.7729681 C33.5281883,14.2930337 33.9232167,13.90397 34.410509,13.90397 Z" id="Rectangle" fill="#EBEBEC"></path>
                                <path d="M6.17624521,13.90397 L14.9994527,13.90397 C15.4867449,13.90397 15.8817734,14.2930337 15.8817734,14.7729681 L15.8817734,18.2489606 C15.8817734,18.728895 15.4867449,19.1179588 14.9994527,19.1179588 L6.17624521,19.1179588 C5.68895292,19.1179588 5.29392447,18.728895 5.29392447,18.2489606 L5.29392447,14.7729681 C5.29392447,14.2930337 5.68895292,13.90397 6.17624521,13.90397 Z" id="Rectangle-Copy-8" fill="#EBEBEC"></path>
                                <path d="M48.5276409,13.90397 L57.3508484,13.90397 C57.8381407,13.90397 58.2331691,14.2930337 58.2331691,14.7729681 L58.2331691,18.2489606 C58.2331691,18.728895 57.8381407,19.1179588 57.3508484,19.1179588 L48.5276409,19.1179588 C48.0403486,19.1179588 47.6453202,18.728895 47.6453202,18.2489606 L47.6453202,14.7729681 C47.6453202,14.2930337 48.0403486,13.90397 48.5276409,13.90397 Z" id="Rectangle-Copy-7" fill="#EBEBEC"></path>
                                <path d="M20.2933771,13.90397 L29.1165846,13.90397 C29.6038769,13.90397 29.9989053,14.2930337 29.9989053,14.7729681 L29.9989053,18.2489606 C29.9989053,18.728895 29.6038769,19.1179588 29.1165846,19.1179588 L20.2933771,19.1179588 C19.8060848,19.1179588 19.4110564,18.728895 19.4110564,18.2489606 L19.4110564,14.7729681 C19.4110564,14.2930337 19.8060848,13.90397 20.2933771,13.90397 Z" id="Rectangle-Copy-9" fill="#EBEBEC"></path>
                                <path d="M34.410509,22.5939513 L43.2337165,22.5939513 C43.7210088,22.5939513 44.1160372,22.983015 44.1160372,23.4629494 L44.1160372,26.9389419 C44.1160372,27.4188763 43.7210088,27.80794 43.2337165,27.80794 L34.410509,27.80794 C33.9232167,27.80794 33.5281883,27.4188763 33.5281883,26.9389419 L33.5281883,23.4629494 C33.5281883,22.983015 33.9232167,22.5939513 34.410509,22.5939513 Z" id="Rectangle" fill="#EBEBEC"></path>
                                <path d="M6.17624521,22.5939513 L14.9994527,22.5939513 C15.4867449,22.5939513 15.8817734,22.983015 15.8817734,23.4629494 L15.8817734,26.9389419 C15.8817734,27.4188763 15.4867449,27.80794 14.9994527,27.80794 L6.17624521,27.80794 C5.68895292,27.80794 5.29392447,27.4188763 5.29392447,26.9389419 L5.29392447,23.4629494 C5.29392447,22.983015 5.68895292,22.5939513 6.17624521,22.5939513 Z" id="Rectangle-Copy-8" fill="#EBEBEC"></path>
                                <path d="M48.5276409,22.5939513 L57.3508484,22.5939513 C57.8381407,22.5939513 58.2331691,22.983015 58.2331691,23.4629494 L58.2331691,26.9389419 C58.2331691,27.4188763 57.8381407,27.80794 57.3508484,27.80794 L48.5276409,27.80794 C48.0403486,27.80794 47.6453202,27.4188763 47.6453202,26.9389419 L47.6453202,23.4629494 C47.6453202,22.983015 48.0403486,22.5939513 48.5276409,22.5939513 Z" id="Rectangle-Copy-7" fill="#EBEBEC"></path>
                                <path d="M20.2933771,22.5939513 L29.1165846,22.5939513 C29.6038769,22.5939513 29.9989053,22.983015 29.9989053,23.4629494 L29.9989053,26.9389419 C29.9989053,27.4188763 29.6038769,27.80794 29.1165846,27.80794 L20.2933771,27.80794 C19.8060848,27.80794 19.4110564,27.4188763 19.4110564,26.9389419 L19.4110564,23.4629494 C19.4110564,22.983015 19.8060848,22.5939513 20.2933771,22.5939513 Z" id="Rectangle-Copy-9" fill="#EBEBEC"></path>
                                <path d="M34.410509,31.2839325 L43.2337165,31.2839325 C43.7210088,31.2839325 44.1160372,31.6729962 44.1160372,32.1529306 L44.1160372,35.6289231 C44.1160372,36.1088575 43.7210088,36.4979213 43.2337165,36.4979213 L34.410509,36.4979213 C33.9232167,36.4979213 33.5281883,36.1088575 33.5281883,35.6289231 L33.5281883,32.1529306 C33.5281883,31.6729962 33.9232167,31.2839325 34.410509,31.2839325 Z" id="Rectangle" fill="#EBEBEC"></path>
                                <path d="M6.17624521,31.2839325 L14.9994527,31.2839325 C15.4867449,31.2839325 15.8817734,31.6729962 15.8817734,32.1529306 L15.8817734,35.6289231 C15.8817734,36.1088575 15.4867449,36.4979213 14.9994527,36.4979213 L6.17624521,36.4979213 C5.68895292,36.4979213 5.29392447,36.1088575 5.29392447,35.6289231 L5.29392447,32.1529306 C5.29392447,31.6729962 5.68895292,31.2839325 6.17624521,31.2839325 Z" id="Rectangle-Copy-8" fill="#EBEBEC"></path>
                                <path d="M48.5276409,31.2839325 L57.3508484,31.2839325 C57.8381407,31.2839325 58.2331691,31.6729962 58.2331691,32.1529306 L58.2331691,35.6289231 C58.2331691,36.1088575 57.8381407,36.4979213 57.3508484,36.4979213 L48.5276409,36.4979213 C48.0403486,36.4979213 47.6453202,36.1088575 47.6453202,35.6289231 L47.6453202,32.1529306 C47.6453202,31.6729962 48.0403486,31.2839325 48.5276409,31.2839325 Z" id="Rectangle-Copy-7" fill="#EBEBEC"></path>
                                <path d="M20.2933771,31.2839325 L29.1165846,31.2839325 C29.6038769,31.2839325 29.9989053,31.6729962 29.9989053,32.1529306 L29.9989053,35.6289231 C29.9989053,36.1088575 29.6038769,36.4979213 29.1165846,36.4979213 L20.2933771,36.4979213 C19.8060848,36.4979213 19.4110564,36.1088575 19.4110564,35.6289231 L19.4110564,32.1529306 C19.4110564,31.6729962 19.8060848,31.2839325 20.2933771,31.2839325 Z" id="Rectangle-Copy-9" fill="#EBEBEC"></path>
                                <path d="M34.410509,39.9739138 L43.2337165,39.9739138 C43.7210088,39.9739138 44.1160372,40.3629775 44.1160372,40.8429119 L44.1160372,44.3189044 C44.1160372,44.7988388 43.7210088,45.1879025 43.2337165,45.1879025 L34.410509,45.1879025 C33.9232167,45.1879025 33.5281883,44.7988388 33.5281883,44.3189044 L33.5281883,40.8429119 C33.5281883,40.3629775 33.9232167,39.9739138 34.410509,39.9739138 Z" id="Rectangle" fill="#EBEBEC"></path>
                                <path d="M6.17624521,39.9739138 L14.9994527,39.9739138 C15.4867449,39.9739138 15.8817734,40.3629775 15.8817734,40.8429119 L15.8817734,44.3189044 C15.8817734,44.7988388 15.4867449,45.1879025 14.9994527,45.1879025 L6.17624521,45.1879025 C5.68895292,45.1879025 5.29392447,44.7988388 5.29392447,44.3189044 L5.29392447,40.8429119 C5.29392447,40.3629775 5.68895292,39.9739138 6.17624521,39.9739138 Z" id="Rectangle-Copy-8" fill="#EBEBEC"></path>
                                <path d="M48.5276409,39.9739138 L57.3508484,39.9739138 C57.8381407,39.9739138 58.2331691,40.3629775 58.2331691,40.8429119 L58.2331691,44.3189044 C58.2331691,44.7988388 57.8381407,45.1879025 57.3508484,45.1879025 L48.5276409,45.1879025 C48.0403486,45.1879025 47.6453202,44.7988388 47.6453202,44.3189044 L47.6453202,40.8429119 C47.6453202,40.3629775 48.0403486,39.9739138 48.5276409,39.9739138 Z" id="Rectangle-Copy-7" fill="#EBEBEC"></path>
                                <path d="M20.2933771,39.9739138 L29.1165846,39.9739138 C29.6038769,39.9739138 29.9989053,40.3629775 29.9989053,40.8429119 L29.9989053,44.3189044 C29.9989053,44.7988388 29.6038769,45.1879025 29.1165846,45.1879025 L20.2933771,45.1879025 C19.8060848,45.1879025 19.4110564,44.7988388 19.4110564,44.3189044 L19.4110564,40.8429119 C19.4110564,40.3629775 19.8060848,39.9739138 20.2933771,39.9739138 Z" id="Rectangle-Copy-9" fill="#EBEBEC"></path>
                                <path d="M34.410509,48.663895 L43.2337165,48.663895 C43.7210088,48.663895 44.1160372,49.0529587 44.1160372,49.5328931 L44.1160372,53.0088856 C44.1160372,53.48882 43.7210088,53.8778838 43.2337165,53.8778838 L34.410509,53.8778838 C33.9232167,53.8778838 33.5281883,53.48882 33.5281883,53.0088856 L33.5281883,49.5328931 C33.5281883,49.0529587 33.9232167,48.663895 34.410509,48.663895 Z" id="Rectangle" fill="#EBEBEC"></path>
                                <path d="M6.17624521,48.663895 L14.9994527,48.663895 C15.4867449,48.663895 15.8817734,49.0529587 15.8817734,49.5328931 L15.8817734,53.0088856 C15.8817734,53.48882 15.4867449,53.8778838 14.9994527,53.8778838 L6.17624521,53.8778838 C5.68895292,53.8778838 5.29392447,53.48882 5.29392447,53.0088856 L5.29392447,49.5328931 C5.29392447,49.0529587 5.68895292,48.663895 6.17624521,48.663895 Z" id="Rectangle-Copy-8" fill="#EBEBEC"></path>
                                <path d="M48.5276409,48.663895 L57.3508484,48.663895 C57.8381407,48.663895 58.2331691,49.0529587 58.2331691,49.5328931 L58.2331691,53.0088856 C58.2331691,53.48882 57.8381407,53.8778838 57.3508484,53.8778838 L48.5276409,53.8778838 C48.0403486,53.8778838 47.6453202,53.48882 47.6453202,53.0088856 L47.6453202,49.5328931 C47.6453202,49.0529587 48.0403486,48.663895 48.5276409,48.663895 Z" id="Rectangle-Copy-7" fill="#EBEBEC"></path>
                                <path d="M20.2933771,48.663895 L29.1165846,48.663895 C29.6038769,48.663895 29.9989053,49.0529587 29.9989053,49.5328931 L29.9989053,53.0088856 C29.9989053,53.48882 29.6038769,53.8778838 29.1165846,53.8778838 L20.2933771,53.8778838 C19.8060848,53.8778838 19.4110564,53.48882 19.4110564,53.0088856 L19.4110564,49.5328931 C19.4110564,49.0529587 19.8060848,48.663895 20.2933771,48.663895 Z" id="Rectangle-Copy-9" fill="#EBEBEC"></path>
                                <path d="M34.410509,57.3538763 L43.2337165,57.3538763 C43.7210088,57.3538763 44.1160372,57.74294 44.1160372,58.2228744 L44.1160372,61.6988669 C44.1160372,62.1788013 43.7210088,62.567865 43.2337165,62.567865 L34.410509,62.567865 C33.9232167,62.567865 33.5281883,62.1788013 33.5281883,61.6988669 L33.5281883,58.2228744 C33.5281883,57.74294 33.9232167,57.3538763 34.410509,57.3538763 Z" id="Rectangle" fill="#EBEBEC"></path>
                                <path d="M6.17624521,57.3538763 L14.9994527,57.3538763 C15.4867449,57.3538763 15.8817734,57.74294 15.8817734,58.2228744 L15.8817734,61.6988669 C15.8817734,62.1788013 15.4867449,62.567865 14.9994527,62.567865 L6.17624521,62.567865 C5.68895292,62.567865 5.29392447,62.1788013 5.29392447,61.6988669 L5.29392447,58.2228744 C5.29392447,57.74294 5.68895292,57.3538763 6.17624521,57.3538763 Z" id="Rectangle-Copy-8" fill="#EBEBEC"></path>
                                <path d="M48.5276409,57.3538763 L57.3508484,57.3538763 C57.8381407,57.3538763 58.2331691,57.74294 58.2331691,58.2228744 L58.2331691,61.6988669 C58.2331691,62.1788013 57.8381407,62.567865 57.3508484,62.567865 L48.5276409,62.567865 C48.0403486,62.567865 47.6453202,62.1788013 47.6453202,61.6988669 L47.6453202,58.2228744 C47.6453202,57.74294 48.0403486,57.3538763 48.5276409,57.3538763 Z" id="Rectangle-Copy-7" fill="#EBEBEC"></path>
                                <path d="M20.2933771,57.3538763 L29.1165846,57.3538763 C29.6038769,57.3538763 29.9989053,57.74294 29.9989053,58.2228744 L29.9989053,61.6988669 C29.9989053,62.1788013 29.6038769,62.567865 29.1165846,62.567865 L20.2933771,62.567865 C19.8060848,62.567865 19.4110564,62.1788013 19.4110564,61.6988669 L19.4110564,58.2228744 C19.4110564,57.74294 19.8060848,57.3538763 20.2933771,57.3538763 Z" id="Rectangle-Copy-9" fill="#EBEBEC"></path>
                                <path d="M34.410509,66.0438575 L43.2337165,66.0438575 C43.7210088,66.0438575 44.1160372,66.4329212 44.1160372,66.9128556 L44.1160372,70.3888481 C44.1160372,70.8687825 43.7210088,71.2578463 43.2337165,71.2578463 L34.410509,71.2578463 C33.9232167,71.2578463 33.5281883,70.8687825 33.5281883,70.3888481 L33.5281883,66.9128556 C33.5281883,66.4329212 33.9232167,66.0438575 34.410509,66.0438575 Z" id="Rectangle" fill="#EBEBEC"></path>
                                <path d="M6.17624521,66.0438575 L14.9994527,66.0438575 C15.4867449,66.0438575 15.8817734,66.4329212 15.8817734,66.9128556 L15.8817734,70.3888481 C15.8817734,70.8687825 15.4867449,71.2578463 14.9994527,71.2578463 L6.17624521,71.2578463 C5.68895292,71.2578463 5.29392447,70.8687825 5.29392447,70.3888481 L5.29392447,66.9128556 C5.29392447,66.4329212 5.68895292,66.0438575 6.17624521,66.0438575 Z" id="Rectangle-Copy-8" fill="#EBEBEC"></path>
                                <path d="M48.5276409,66.0438575 L57.3508484,66.0438575 C57.8381407,66.0438575 58.2331691,66.4329212 58.2331691,66.9128556 L58.2331691,70.3888481 C58.2331691,70.8687825 57.8381407,71.2578463 57.3508484,71.2578463 L48.5276409,71.2578463 C48.0403486,71.2578463 47.6453202,70.8687825 47.6453202,70.3888481 L47.6453202,66.9128556 C47.6453202,66.4329212 48.0403486,66.0438575 48.5276409,66.0438575 Z" id="Rectangle-Copy-7" fill="#EBEBEC"></path>
                                <path d="M20.2933771,66.0438575 L29.1165846,66.0438575 C29.6038769,66.0438575 29.9989053,66.4329212 29.9989053,66.9128556 L29.9989053,70.3888481 C29.9989053,70.8687825 29.6038769,71.2578463 29.1165846,71.2578463 L20.2933771,71.2578463 C19.8060848,71.2578463 19.4110564,70.8687825 19.4110564,70.3888481 L19.4110564,66.9128556 C19.4110564,66.4329212 19.8060848,66.0438575 20.2933771,66.0438575 Z" id="Rectangle-Copy-9" fill="#EBEBEC"></path>
                                <path d="M34.410509,74.7338388 L43.2337165,74.7338388 C43.7210088,74.7338388 44.1160372,75.1229025 44.1160372,75.6028369 L44.1160372,79.0788294 C44.1160372,79.5587638 43.7210088,79.9478275 43.2337165,79.9478275 L34.410509,79.9478275 C33.9232167,79.9478275 33.5281883,79.5587638 33.5281883,79.0788294 L33.5281883,75.6028369 C33.5281883,75.1229025 33.9232167,74.7338388 34.410509,74.7338388 Z" id="Rectangle" fill="#EBEBEC"></path>
                                <path d="M6.17624521,74.7338388 L14.9994527,74.7338388 C15.4867449,74.7338388 15.8817734,75.1229025 15.8817734,75.6028369 L15.8817734,79.0788294 C15.8817734,79.5587638 15.4867449,79.9478275 14.9994527,79.9478275 L6.17624521,79.9478275 C5.68895292,79.9478275 5.29392447,79.5587638 5.29392447,79.0788294 L5.29392447,75.6028369 C5.29392447,75.1229025 5.68895292,74.7338388 6.17624521,74.7338388 Z" id="Rectangle-Copy-8" fill="#EBEBEC"></path>
                                <path d="M48.5276409,74.7338388 L57.3508484,74.7338388 C57.8381407,74.7338388 58.2331691,75.1229025 58.2331691,75.6028369 L58.2331691,79.0788294 C58.2331691,79.5587638 57.8381407,79.9478275 57.3508484,79.9478275 L48.5276409,79.9478275 C48.0403486,79.9478275 47.6453202,79.5587638 47.6453202,79.0788294 L47.6453202,75.6028369 C47.6453202,75.1229025 48.0403486,74.7338388 48.5276409,74.7338388 Z" id="Rectangle-Copy-7" fill="#EBEBEC"></path>
                                <path d="M20.2933771,74.7338388 L29.1165846,74.7338388 C29.6038769,74.7338388 29.9989053,75.1229025 29.9989053,75.6028369 L29.9989053,79.0788294 C29.9989053,79.5587638 29.6038769,79.9478275 29.1165846,79.9478275 L20.2933771,79.9478275 C19.8060848,79.9478275 19.4110564,79.5587638 19.4110564,79.0788294 L19.4110564,75.6028369 C19.4110564,75.1229025 19.8060848,74.7338388 20.2933771,74.7338388 Z" id="Rectangle-Copy-9" fill="#EBEBEC"></path>
                                <polygon id="Rectangle" fill="url(#linearGradient-7)" points="0 0 61.7624521 0 61.7624521 81.6858238 0 81.6858238"></polygon>
                            </g>
                            <polygon id="X" fill-opacity="0.8" fill="#CCCED3" fill-rule="nonzero" points="15.2886661 80.4493263 21.2394243 72.9133314 27.1901824 80.4493263 33.3859718 80.4493263 24.7398703 70.4058756 32.7733938 60.5259546 26.927649 60.5259546 21.51946 67.6940076 16.0062576 60.5259546 10.020495 60.5259546 17.9665073 70.1742085 9.47792583 80.4493263"></polygon>
                        </g>
                        <g id="Page" transform="translate(246.053640, 169.348659) scale(-1, 1) rotate(-21.000000) translate(-246.053640, -169.348659) ">
                            <use fill="black" fill-opacity="1" filter="url(#filter-10)" xlink:href="#path-9"></use>
                            <use fill="url(#linearGradient-8)" fill-rule="evenodd" xlink:href="#path-9"></use>
                        </g>
                        <g id="Doughnut" transform="translate(61.762452, 129.501916)">
                            <g id="base">
                                <g id="Path">
                                    <use fill="black" fill-opacity="1" filter="url(#filter-12)" xlink:href="#path-11"></use>
                                    <use fill="#FFFFFF" fill-rule="evenodd" xlink:href="#path-11"></use>
                                </g>
                                <g id="Path">
                                    <use fill="black" fill-opacity="1" filter="url(#filter-14)" xlink:href="#path-13"></use>
                                    <use fill="#FFFFFF" fill-rule="evenodd" xlink:href="#path-13"></use>
                                </g>
                                <path d="M8.81687667,-1.24972536e-14 L118.146147,-1.24972536e-14 C123.015574,-1.24972536e-14 126.963024,3.93727974 126.963024,8.79416044 L126.963024,20.886131 L0,20.886131 L0,8.79416044 C0,3.93727974 3.94745014,-1.24972536e-14 8.81687667,-1.24972536e-14 Z" id="Path-Copy" fill="#E8E9EC"></path>
                            </g>
                            <g transform="translate(59.128179, 32.555637)">
                                <path d="M52.7648135,21.3381099 C51.7512912,22.9182433 51.2238144,23.70831 51.1823829,23.70831 C49.0964281,23.70831 46.1356092,23.1205286 42.2999263,21.9449656 C41.577568,16.1636887 37.3498914,11.4687591 31.8063531,10.0451497 C30.6287358,6.01556542 30.0399271,3.0117457 30.0399271,1.03369049 C30.0399271,0.978188645 30.8535683,0.633625148 32.4808507,1.31564225e-13 C42.2999263,0.950437722 51.7402184,10.4825825 52.7648135,21.3381099 Z" id="Path" fill-opacity="0.82" fill="#67696F" opacity="0.485212054"></path>
                                <path d="M51.1823829,23.708161 L40.5328773,23.7083959 C39.810519,17.9271191 35.5828424,13.2321895 30.0393041,11.80858 L30.0396598,1.03369049 C41.4569119,2.66332212 50.3594515,12.0726455 51.1823829,23.708161 Z" id="Path" fill="#9EA0A5"></path>
                                <path d="M26.4747213,1.03369049 L26.4747213,11.8145897 C26.2896001,11.8145897 24.7387946,13.3777029 24.7387946,13.3777029 C18.4080912,13.7625922 11.9630646,19.3356497 11.9630646,26.241036 C11.9630646,34.0323615 17.6762068,40.4676266 27.3893681,40.4676266 C35.5045926,40.4676266 37.2032691,35.3406899 38.8751868,29.248576 C38.8751868,29.248576 40.9903825,27.8853186 41.4161805,27.4868298 C41.4161805,27.4868298 44.8575265,27.4862684 51.7402184,27.4851456 C50.8334277,40.2962294 40.4575071,50.4097401 27.3893681,50.4097401 C13.7265689,50.4097401 2.65068167,39.3565349 2.65068167,25.7217153 C2.65068167,25.5012815 -0.0051754426,25.6902547 -1.02642345e-12,25.4717404 C0.32163698,12.1741636 13.0328082,1.03369049 26.4747213,1.03369049 Z" id="Path" fill-opacity="0.7" fill="#9EA0A5" opacity="0.485212054"></path>
                                <path d="M24.7613611,11.7987377 L24.7076723,2.79712083 C25.6934025,2.75953084 26.6903598,1.03369049 27.6995944,1.03369049 L27.7532832,11.7987377 C27.4398408,11.7987377 24.8140566,13.361851 24.8140566,13.361851" id="Shape" fill-opacity="0.7" fill="#9EA0A5" opacity="0.653180804"></path>
                                <path d="M51.738156,27.4851456 C50.8313654,40.2962294 40.4554448,50.4097401 27.3873058,50.4097401 C27.0922501,50.4097401 26.7984009,50.4045852 26.5058436,50.3943608 C38.9603673,49.9556647 48.2701663,41.4963219 49.4152364,29.248576 L50.4388748,28.5279848 L51.738156,27.4851456 Z" id="Path" fill-opacity="0.7" fill="#9EA0A5" opacity="0.653180804"></path>
                                <path d="M24.7387946,2.79712083 L24.7387946,13.3777029 C16.9314807,13.3777029 10.6024023,19.6938201 10.6024023,27.4851456 C10.6024023,35.2764711 16.9314807,41.5925883 24.7387946,41.5925883 C31.9470974,41.5925883 37.8952963,36.2084903 38.765607,29.2502602 L49.4152364,29.2501032 C48.5084457,42.061187 37.8069336,52.1731704 24.7387946,52.1731704 C11.0759953,52.1731704 0.000108126214,41.1199652 0.000108126214,27.4851456 C0.000108126214,13.850326 11.0759953,2.79712083 24.7387946,2.79712083 Z" id="Path" fill="#CCCED3"></path>
                            </g>
                            <path d="M13.9664837,45.7813646 L45.1616955,45.7813646 C46.1188421,45.7813646 46.8947628,46.6923431 46.8947628,47.816092 C46.8947628,48.9398408 46.1188421,49.8508193 45.1616955,49.8508193 L13.9664837,49.8508193 C13.009337,49.8508193 12.2334164,48.9398408 12.2334164,47.816092 C12.2334164,46.6923431 13.009337,45.7813646 13.9664837,45.7813646 Z" id="Rectangle" fill="#CCCED3" opacity="0.647623698"></path>
                            <path d="M13.9664837,36.6250917 L45.1616955,36.6250917 C46.1188421,36.6250917 46.8947628,37.5360702 46.8947628,38.659819 C46.8947628,39.7835679 46.1188421,40.6945463 45.1616955,40.6945463 L13.9664837,40.6945463 C13.009337,40.6945463 12.2334164,39.7835679 12.2334164,38.659819 C12.2334164,37.5360702 13.009337,36.6250917 13.9664837,36.6250917 Z" id="Rectangle-Copy-3" fill="#CCCED3" opacity="0.647623698"></path>
                            <path d="M14.0869643,54.9376376 L30.7688957,54.9376376 C31.792582,54.9376376 32.6224437,55.848616 32.6224437,56.9723649 C32.6224437,58.0961137 31.792582,59.0070922 30.7688957,59.0070922 L14.0869643,59.0070922 C13.0632781,59.0070922 12.2334164,58.0961137 12.2334164,56.9723649 C12.2334164,55.848616 13.0632781,54.9376376 14.0869643,54.9376376 Z" id="Rectangle-Copy-2" fill="#CCCED3" opacity="0.647623698"></path>
                        </g>
                        <g id="DOC-Copy-2" transform="translate(452.078392, 126.906814) rotate(30.000000) translate(-452.078392, -126.906814) translate(415.220155, 78.094554)">
                            <path d="M16.1445381,1.23436437 L69.9220726,1.23436437 C71.0266421,1.23436437 71.9220726,2.12979487 71.9220726,3.23436437 L71.9220726,92.8742111 C71.9220726,93.9787806 71.0266421,94.8742111 69.9220726,94.8742111 L6.18260897,94.8742111 C5.07803947,94.8742111 4.18260897,93.9787806 4.18260897,92.8742111 L4.18260897,11.8505098 L4.18260897,11.8505098 L16.1445381,1.23436437 Z" id="Rectangle" fill="#FFFFFF"></path>
                            <mask id="mask-16" fill="white">
                                <use xlink:href="#path-15"></use>
                            </mask>
                            <g id="Rectangle">
                                <use fill="black" fill-opacity="1" filter="url(#filter-17)" xlink:href="#path-15"></use>
                                <use fill="#FFFFFF" fill-rule="evenodd" xlink:href="#path-15"></use>
                            </g>
                            <g id="Triangle" mask="url(#mask-16)" transform="translate(9.696543, 10.050823) rotate(139.000000) translate(-9.696543, -10.050823) ">
                                <use fill="black" fill-opacity="1" filter="url(#filter-19)" xlink:href="#path-18"></use>
                                <use fill="#E7E8EC" fill-rule="evenodd" xlink:href="#path-18"></use>
                            </g>
                            <circle id="Oval" fill="#9EA0A5" opacity="0.205915179" mask="url(#mask-16)" cx="21.1532357" cy="26.7535278" r="5.97701149"></circle>
                            <polygon id="Path" fill="#9EA0A5" opacity="0.205915179" mask="url(#mask-16)" points="9.8307583 63.2279782 28.2382212 41.3122694 37.8093552 52.708438 44.4801003 44.4430849 59.6391874 63.2279782"></polygon>
                        </g>
                        <g id="Excel" transform="translate(397.427212, 110.481644) rotate(-17.000000) translate(-397.427212, -110.481644) translate(354.591963, 49.715360)">
                            <path d="M6.29440616,0.911801438 L83.3124686,0.911801438 C84.6014353,0.911801438 85.6463492,1.96763786 85.6463492,3.27007808 L85.6463492,114.10908 C85.6463492,115.411521 84.6014353,116.467357 83.3124686,116.467357 L6.29440616,116.467357 C5.00543945,116.467357 3.96052548,115.411521 3.96052548,114.10908 L3.96052548,3.27007808 C3.96052548,1.96763786 5.00543945,0.911801438 6.29440616,0.911801438 Z" id="Rectangle" fill="#FFFFFF"></path>
                            <g id="Rectangle">
                                <use fill="black" fill-opacity="1" filter="url(#filter-21)" xlink:href="#path-20"></use>
                                <use fill="#FFFFFF" fill-rule="evenodd" xlink:href="#path-20"></use>
                            </g>
                            <g id="Grid" transform="translate(1.181489, 6.175726)">
                                <path d="M45.5106732,6.99437515 L57.1800766,6.99437515 C57.82456,6.99437515 58.347017,7.51628989 58.347017,8.16010434 L58.347017,12.8230211 C58.347017,13.4668356 57.82456,13.9887503 57.1800766,13.9887503 L45.5106732,13.9887503 C44.8661899,13.9887503 44.3437329,13.4668356 44.3437329,12.8230211 L44.3437329,8.16010434 C44.3437329,7.51628989 44.8661899,6.99437515 45.5106732,6.99437515 Z" id="Rectangle" fill="#EBEBEC"></path>
                                <path d="M8.16858238,6.99437515 L19.8379858,6.99437515 C20.4824691,6.99437515 21.0049261,7.51628989 21.0049261,8.16010434 L21.0049261,12.8230211 C21.0049261,13.4668356 20.4824691,13.9887503 19.8379858,13.9887503 L8.16858238,13.9887503 C7.52409902,13.9887503 7.00164204,13.4668356 7.00164204,12.8230211 L7.00164204,8.16010434 C7.00164204,7.51628989 7.52409902,6.99437515 8.16858238,6.99437515 Z" id="Rectangle-Copy-8" fill="#EBEBEC"></path>
                                <path d="M64.1817187,6.99437515 L75.8511221,6.99437515 C76.4956054,6.99437515 77.0180624,7.51628989 77.0180624,8.16010434 L77.0180624,12.8230211 C77.0180624,13.4668356 76.4956054,13.9887503 75.8511221,13.9887503 L64.1817187,13.9887503 C63.5372353,13.9887503 63.0147783,13.4668356 63.0147783,12.8230211 L63.0147783,8.16010434 C63.0147783,7.51628989 63.5372353,6.99437515 64.1817187,6.99437515 Z" id="Rectangle-Copy-7" fill="#EBEBEC"></path>
                                <path d="M26.8396278,6.99437515 L38.5090312,6.99437515 C39.1535146,6.99437515 39.6759715,7.51628989 39.6759715,8.16010434 L39.6759715,12.8230211 C39.6759715,13.4668356 39.1535146,13.9887503 38.5090312,13.9887503 L26.8396278,13.9887503 C26.1951445,13.9887503 25.6726875,13.4668356 25.6726875,12.8230211 L25.6726875,8.16010434 C25.6726875,7.51628989 26.1951445,6.99437515 26.8396278,6.99437515 Z" id="Rectangle-Copy-9" fill="#EBEBEC"></path>
                                <path d="M45.5106732,18.6516671 L57.1800766,18.6516671 C57.82456,18.6516671 58.347017,19.1735818 58.347017,19.8173963 L58.347017,24.480313 C58.347017,25.1241275 57.82456,25.6460422 57.1800766,25.6460422 L45.5106732,25.6460422 C44.8661899,25.6460422 44.3437329,25.1241275 44.3437329,24.480313 L44.3437329,19.8173963 C44.3437329,19.1735818 44.8661899,18.6516671 45.5106732,18.6516671 Z" id="Rectangle" fill="#EBEBEC"></path>
                                <path d="M8.16858238,18.6516671 L19.8379858,18.6516671 C20.4824691,18.6516671 21.0049261,19.1735818 21.0049261,19.8173963 L21.0049261,24.480313 C21.0049261,25.1241275 20.4824691,25.6460422 19.8379858,25.6460422 L8.16858238,25.6460422 C7.52409902,25.6460422 7.00164204,25.1241275 7.00164204,24.480313 L7.00164204,19.8173963 C7.00164204,19.1735818 7.52409902,18.6516671 8.16858238,18.6516671 Z" id="Rectangle-Copy-8" fill="#EBEBEC"></path>
                                <path d="M64.1817187,18.6516671 L75.8511221,18.6516671 C76.4956054,18.6516671 77.0180624,19.1735818 77.0180624,19.8173963 L77.0180624,24.480313 C77.0180624,25.1241275 76.4956054,25.6460422 75.8511221,25.6460422 L64.1817187,25.6460422 C63.5372353,25.6460422 63.0147783,25.1241275 63.0147783,24.480313 L63.0147783,19.8173963 C63.0147783,19.1735818 63.5372353,18.6516671 64.1817187,18.6516671 Z" id="Rectangle-Copy-7" fill="#EBEBEC"></path>
                                <path d="M26.8396278,18.6516671 L38.5090312,18.6516671 C39.1535146,18.6516671 39.6759715,19.1735818 39.6759715,19.8173963 L39.6759715,24.480313 C39.6759715,25.1241275 39.1535146,25.6460422 38.5090312,25.6460422 L26.8396278,25.6460422 C26.1951445,25.6460422 25.6726875,25.1241275 25.6726875,24.480313 L25.6726875,19.8173963 C25.6726875,19.1735818 26.1951445,18.6516671 26.8396278,18.6516671 Z" id="Rectangle-Copy-9" fill="#EBEBEC"></path>
                                <path d="M45.5106732,30.308959 L57.1800766,30.308959 C57.82456,30.308959 58.347017,30.8308737 58.347017,31.4746882 L58.347017,36.137605 C58.347017,36.7814194 57.82456,37.3033341 57.1800766,37.3033341 L45.5106732,37.3033341 C44.8661899,37.3033341 44.3437329,36.7814194 44.3437329,36.137605 L44.3437329,31.4746882 C44.3437329,30.8308737 44.8661899,30.308959 45.5106732,30.308959 Z" id="Rectangle" fill="#EBEBEC"></path>
                                <path d="M8.16858238,30.308959 L19.8379858,30.308959 C20.4824691,30.308959 21.0049261,30.8308737 21.0049261,31.4746882 L21.0049261,36.137605 C21.0049261,36.7814194 20.4824691,37.3033341 19.8379858,37.3033341 L8.16858238,37.3033341 C7.52409902,37.3033341 7.00164204,36.7814194 7.00164204,36.137605 L7.00164204,31.4746882 C7.00164204,30.8308737 7.52409902,30.308959 8.16858238,30.308959 Z" id="Rectangle-Copy-8" fill="#EBEBEC"></path>
                                <path d="M64.1817187,30.308959 L75.8511221,30.308959 C76.4956054,30.308959 77.0180624,30.8308737 77.0180624,31.4746882 L77.0180624,36.137605 C77.0180624,36.7814194 76.4956054,37.3033341 75.8511221,37.3033341 L64.1817187,37.3033341 C63.5372353,37.3033341 63.0147783,36.7814194 63.0147783,36.137605 L63.0147783,31.4746882 C63.0147783,30.8308737 63.5372353,30.308959 64.1817187,30.308959 Z" id="Rectangle-Copy-7" fill="#EBEBEC"></path>
                                <path d="M26.8396278,30.308959 L38.5090312,30.308959 C39.1535146,30.308959 39.6759715,30.8308737 39.6759715,31.4746882 L39.6759715,36.137605 C39.6759715,36.7814194 39.1535146,37.3033341 38.5090312,37.3033341 L26.8396278,37.3033341 C26.1951445,37.3033341 25.6726875,36.7814194 25.6726875,36.137605 L25.6726875,31.4746882 C25.6726875,30.8308737 26.1951445,30.308959 26.8396278,30.308959 Z" id="Rectangle-Copy-9" fill="#EBEBEC"></path>
                                <path d="M45.5106732,41.9662509 L57.1800766,41.9662509 C57.82456,41.9662509 58.347017,42.4881657 58.347017,43.1319801 L58.347017,47.7948969 C58.347017,48.4387113 57.82456,48.9606261 57.1800766,48.9606261 L45.5106732,48.9606261 C44.8661899,48.9606261 44.3437329,48.4387113 44.3437329,47.7948969 L44.3437329,43.1319801 C44.3437329,42.4881657 44.8661899,41.9662509 45.5106732,41.9662509 Z" id="Rectangle" fill="#EBEBEC"></path>
                                <path d="M8.16858238,41.9662509 L19.8379858,41.9662509 C20.4824691,41.9662509 21.0049261,42.4881657 21.0049261,43.1319801 L21.0049261,47.7948969 C21.0049261,48.4387113 20.4824691,48.9606261 19.8379858,48.9606261 L8.16858238,48.9606261 C7.52409902,48.9606261 7.00164204,48.4387113 7.00164204,47.7948969 L7.00164204,43.1319801 C7.00164204,42.4881657 7.52409902,41.9662509 8.16858238,41.9662509 Z" id="Rectangle-Copy-8" fill="#EBEBEC"></path>
                                <path d="M64.1817187,41.9662509 L75.8511221,41.9662509 C76.4956054,41.9662509 77.0180624,42.4881657 77.0180624,43.1319801 L77.0180624,47.7948969 C77.0180624,48.4387113 76.4956054,48.9606261 75.8511221,48.9606261 L64.1817187,48.9606261 C63.5372353,48.9606261 63.0147783,48.4387113 63.0147783,47.7948969 L63.0147783,43.1319801 C63.0147783,42.4881657 63.5372353,41.9662509 64.1817187,41.9662509 Z" id="Rectangle-Copy-7" fill="#EBEBEC"></path>
                                <path d="M26.8396278,41.9662509 L38.5090312,41.9662509 C39.1535146,41.9662509 39.6759715,42.4881657 39.6759715,43.1319801 L39.6759715,47.7948969 C39.6759715,48.4387113 39.1535146,48.9606261 38.5090312,48.9606261 L26.8396278,48.9606261 C26.1951445,48.9606261 25.6726875,48.4387113 25.6726875,47.7948969 L25.6726875,43.1319801 C25.6726875,42.4881657 26.1951445,41.9662509 26.8396278,41.9662509 Z" id="Rectangle-Copy-9" fill="#EBEBEC"></path>
                                <path d="M45.5106732,53.6235428 L57.1800766,53.6235428 C57.82456,53.6235428 58.347017,54.1454576 58.347017,54.789272 L58.347017,59.4521888 C58.347017,60.0960033 57.82456,60.617918 57.1800766,60.617918 L45.5106732,60.617918 C44.8661899,60.617918 44.3437329,60.0960033 44.3437329,59.4521888 L44.3437329,54.789272 C44.3437329,54.1454576 44.8661899,53.6235428 45.5106732,53.6235428 Z" id="Rectangle" fill="#EBEBEC"></path>
                                <path d="M8.16858238,53.6235428 L19.8379858,53.6235428 C20.4824691,53.6235428 21.0049261,54.1454576 21.0049261,54.789272 L21.0049261,59.4521888 C21.0049261,60.0960033 20.4824691,60.617918 19.8379858,60.617918 L8.16858238,60.617918 C7.52409902,60.617918 7.00164204,60.0960033 7.00164204,59.4521888 L7.00164204,54.789272 C7.00164204,54.1454576 7.52409902,53.6235428 8.16858238,53.6235428 Z" id="Rectangle-Copy-8" fill="#EBEBEC"></path>
                                <path d="M64.1817187,53.6235428 L75.8511221,53.6235428 C76.4956054,53.6235428 77.0180624,54.1454576 77.0180624,54.789272 L77.0180624,59.4521888 C77.0180624,60.0960033 76.4956054,60.617918 75.8511221,60.617918 L64.1817187,60.617918 C63.5372353,60.617918 63.0147783,60.0960033 63.0147783,59.4521888 L63.0147783,54.789272 C63.0147783,54.1454576 63.5372353,53.6235428 64.1817187,53.6235428 Z" id="Rectangle-Copy-7" fill="#EBEBEC"></path>
                                <path d="M26.8396278,53.6235428 L38.5090312,53.6235428 C39.1535146,53.6235428 39.6759715,54.1454576 39.6759715,54.789272 L39.6759715,59.4521888 C39.6759715,60.0960033 39.1535146,60.617918 38.5090312,60.617918 L26.8396278,60.617918 C26.1951445,60.617918 25.6726875,60.0960033 25.6726875,59.4521888 L25.6726875,54.789272 C25.6726875,54.1454576 26.1951445,53.6235428 26.8396278,53.6235428 Z" id="Rectangle-Copy-9" fill="#EBEBEC"></path>
                                <path d="M45.5106732,65.2808348 L57.1800766,65.2808348 C57.82456,65.2808348 58.347017,65.8027495 58.347017,66.446564 L58.347017,71.1094807 C58.347017,71.7532952 57.82456,72.2752099 57.1800766,72.2752099 L45.5106732,72.2752099 C44.8661899,72.2752099 44.3437329,71.7532952 44.3437329,71.1094807 L44.3437329,66.446564 C44.3437329,65.8027495 44.8661899,65.2808348 45.5106732,65.2808348 Z" id="Rectangle" fill="#EBEBEC"></path>
                                <path d="M8.16858238,65.2808348 L19.8379858,65.2808348 C20.4824691,65.2808348 21.0049261,65.8027495 21.0049261,66.446564 L21.0049261,71.1094807 C21.0049261,71.7532952 20.4824691,72.2752099 19.8379858,72.2752099 L8.16858238,72.2752099 C7.52409902,72.2752099 7.00164204,71.7532952 7.00164204,71.1094807 L7.00164204,66.446564 C7.00164204,65.8027495 7.52409902,65.2808348 8.16858238,65.2808348 Z" id="Rectangle-Copy-8" fill="#EBEBEC"></path>
                                <path d="M64.1817187,65.2808348 L75.8511221,65.2808348 C76.4956054,65.2808348 77.0180624,65.8027495 77.0180624,66.446564 L77.0180624,71.1094807 C77.0180624,71.7532952 76.4956054,72.2752099 75.8511221,72.2752099 L64.1817187,72.2752099 C63.5372353,72.2752099 63.0147783,71.7532952 63.0147783,71.1094807 L63.0147783,66.446564 C63.0147783,65.8027495 63.5372353,65.2808348 64.1817187,65.2808348 Z" id="Rectangle-Copy-7" fill="#EBEBEC"></path>
                                <path d="M26.8396278,65.2808348 L38.5090312,65.2808348 C39.1535146,65.2808348 39.6759715,65.8027495 39.6759715,66.446564 L39.6759715,71.1094807 C39.6759715,71.7532952 39.1535146,72.2752099 38.5090312,72.2752099 L26.8396278,72.2752099 C26.1951445,72.2752099 25.6726875,71.7532952 25.6726875,71.1094807 L25.6726875,66.446564 C25.6726875,65.8027495 26.1951445,65.2808348 26.8396278,65.2808348 Z" id="Rectangle-Copy-9" fill="#EBEBEC"></path>
                                <path d="M45.5106732,76.9381267 L57.1800766,76.9381267 C57.82456,76.9381267 58.347017,77.4600414 58.347017,78.1038559 L58.347017,82.7667726 C58.347017,83.4105871 57.82456,83.9325018 57.1800766,83.9325018 L45.5106732,83.9325018 C44.8661899,83.9325018 44.3437329,83.4105871 44.3437329,82.7667726 L44.3437329,78.1038559 C44.3437329,77.4600414 44.8661899,76.9381267 45.5106732,76.9381267 Z" id="Rectangle" fill="#EBEBEC"></path>
                                <path d="M8.16858238,76.9381267 L19.8379858,76.9381267 C20.4824691,76.9381267 21.0049261,77.4600414 21.0049261,78.1038559 L21.0049261,82.7667726 C21.0049261,83.4105871 20.4824691,83.9325018 19.8379858,83.9325018 L8.16858238,83.9325018 C7.52409902,83.9325018 7.00164204,83.4105871 7.00164204,82.7667726 L7.00164204,78.1038559 C7.00164204,77.4600414 7.52409902,76.9381267 8.16858238,76.9381267 Z" id="Rectangle-Copy-8" fill="#EBEBEC"></path>
                                <path d="M64.1817187,76.9381267 L75.8511221,76.9381267 C76.4956054,76.9381267 77.0180624,77.4600414 77.0180624,78.1038559 L77.0180624,82.7667726 C77.0180624,83.4105871 76.4956054,83.9325018 75.8511221,83.9325018 L64.1817187,83.9325018 C63.5372353,83.9325018 63.0147783,83.4105871 63.0147783,82.7667726 L63.0147783,78.1038559 C63.0147783,77.4600414 63.5372353,76.9381267 64.1817187,76.9381267 Z" id="Rectangle-Copy-7" fill="#EBEBEC"></path>
                                <path d="M26.8396278,76.9381267 L38.5090312,76.9381267 C39.1535146,76.9381267 39.6759715,77.4600414 39.6759715,78.1038559 L39.6759715,82.7667726 C39.6759715,83.4105871 39.1535146,83.9325018 38.5090312,83.9325018 L26.8396278,83.9325018 C26.1951445,83.9325018 25.6726875,83.4105871 25.6726875,82.7667726 L25.6726875,78.1038559 C25.6726875,77.4600414 26.1951445,76.9381267 26.8396278,76.9381267 Z" id="Rectangle-Copy-9" fill="#EBEBEC"></path>
                                <path d="M45.5106732,88.5954186 L57.1800766,88.5954186 C57.82456,88.5954186 58.347017,89.1173333 58.347017,89.7611478 L58.347017,94.4240646 C58.347017,95.067879 57.82456,95.5897938 57.1800766,95.5897938 L45.5106732,95.5897938 C44.8661899,95.5897938 44.3437329,95.067879 44.3437329,94.4240646 L44.3437329,89.7611478 C44.3437329,89.1173333 44.8661899,88.5954186 45.5106732,88.5954186 Z" id="Rectangle" fill="#EBEBEC"></path>
                                <path d="M8.16858238,88.5954186 L19.8379858,88.5954186 C20.4824691,88.5954186 21.0049261,89.1173333 21.0049261,89.7611478 L21.0049261,94.4240646 C21.0049261,95.067879 20.4824691,95.5897938 19.8379858,95.5897938 L8.16858238,95.5897938 C7.52409902,95.5897938 7.00164204,95.067879 7.00164204,94.4240646 L7.00164204,89.7611478 C7.00164204,89.1173333 7.52409902,88.5954186 8.16858238,88.5954186 Z" id="Rectangle-Copy-8" fill="#EBEBEC"></path>
                                <path d="M64.1817187,88.5954186 L75.8511221,88.5954186 C76.4956054,88.5954186 77.0180624,89.1173333 77.0180624,89.7611478 L77.0180624,94.4240646 C77.0180624,95.067879 76.4956054,95.5897938 75.8511221,95.5897938 L64.1817187,95.5897938 C63.5372353,95.5897938 63.0147783,95.067879 63.0147783,94.4240646 L63.0147783,89.7611478 C63.0147783,89.1173333 63.5372353,88.5954186 64.1817187,88.5954186 Z" id="Rectangle-Copy-7" fill="#EBEBEC"></path>
                                <path d="M26.8396278,88.5954186 L38.5090312,88.5954186 C39.1535146,88.5954186 39.6759715,89.1173333 39.6759715,89.7611478 L39.6759715,94.4240646 C39.6759715,95.067879 39.1535146,95.5897938 38.5090312,95.5897938 L26.8396278,95.5897938 C26.1951445,95.5897938 25.6726875,95.067879 25.6726875,94.4240646 L25.6726875,89.7611478 C25.6726875,89.1173333 26.1951445,88.5954186 26.8396278,88.5954186 Z" id="Rectangle-Copy-9" fill="#EBEBEC"></path>
                                <path d="M45.5106732,100.252711 L57.1800766,100.252711 C57.82456,100.252711 58.347017,100.774625 58.347017,101.41844 L58.347017,106.081356 C58.347017,106.725171 57.82456,107.247086 57.1800766,107.247086 L45.5106732,107.247086 C44.8661899,107.247086 44.3437329,106.725171 44.3437329,106.081356 L44.3437329,101.41844 C44.3437329,100.774625 44.8661899,100.252711 45.5106732,100.252711 Z" id="Rectangle" fill="#EBEBEC"></path>
                                <path d="M8.16858238,100.252711 L19.8379858,100.252711 C20.4824691,100.252711 21.0049261,100.774625 21.0049261,101.41844 L21.0049261,106.081356 C21.0049261,106.725171 20.4824691,107.247086 19.8379858,107.247086 L8.16858238,107.247086 C7.52409902,107.247086 7.00164204,106.725171 7.00164204,106.081356 L7.00164204,101.41844 C7.00164204,100.774625 7.52409902,100.252711 8.16858238,100.252711 Z" id="Rectangle-Copy-8" fill="#EBEBEC"></path>
                                <path d="M64.1817187,100.252711 L75.8511221,100.252711 C76.4956054,100.252711 77.0180624,100.774625 77.0180624,101.41844 L77.0180624,106.081356 C77.0180624,106.725171 76.4956054,107.247086 75.8511221,107.247086 L64.1817187,107.247086 C63.5372353,107.247086 63.0147783,106.725171 63.0147783,106.081356 L63.0147783,101.41844 C63.0147783,100.774625 63.5372353,100.252711 64.1817187,100.252711 Z" id="Rectangle-Copy-7" fill="#EBEBEC"></path>
                                <path d="M26.8396278,100.252711 L38.5090312,100.252711 C39.1535146,100.252711 39.6759715,100.774625 39.6759715,101.41844 L39.6759715,106.081356 C39.6759715,106.725171 39.1535146,107.247086 38.5090312,107.247086 L26.8396278,107.247086 C26.1951445,107.247086 25.6726875,106.725171 25.6726875,106.081356 L25.6726875,101.41844 C25.6726875,100.774625 26.1951445,100.252711 26.8396278,100.252711 Z" id="Rectangle-Copy-9" fill="#EBEBEC"></path>
                                <polygon id="Rectangle" fill="url(#linearGradient-22)" points="0 0 81.6858238 0 81.6858238 109.578544 0 109.578544"></polygon>
                            </g>
                            <polygon id="X" fill-opacity="0.8" fill="#CCCED3" fill-rule="nonzero" points="17.7113452 110.60809 25.6456894 100.057698 33.5800336 110.60809 41.8410861 110.60809 30.3129507 96.5472595 41.0243154 82.7153701 33.229989 82.7153701 26.0190703 92.7506443 18.6681338 82.7153701 10.687117 82.7153701 21.2818001 96.2229255 9.96369149 110.60809"></polygon>
                        </g>
                        <g id="Trend" transform="translate(211.187739, 181.302682)">
                            <g id="base">
                                <g id="Path">
                                    <use fill="black" fill-opacity="1" filter="url(#filter-24)" xlink:href="#path-23"></use>
                                    <use fill="#FFFFFF" fill-rule="evenodd" xlink:href="#path-23"></use>
                                </g>
                                <g id="Path">
                                    <use fill="black" fill-opacity="1" filter="url(#filter-26)" xlink:href="#path-25"></use>
                                    <use fill="#FFFFFF" fill-rule="evenodd" xlink:href="#path-25"></use>
                                </g>
                                <path d="M10.1945136,-1.44576071e-14 L136.606483,-1.44576071e-14 C142.236757,-1.44576071e-14 146.800997,4.55489225 146.800997,10.1736366 L146.800997,24.1623869 L0,24.1623869 L0,10.1736366 C0,4.55489225 4.56423923,-1.44576071e-14 10.1945136,-1.44576071e-14 Z" id="Path-Copy" fill="#E8E9EC"></path>
                            </g>
                            <g id="lines" transform="translate(16.311222, 42.729274)" fill="#CCCED3" fill-opacity="0.27" fill-rule="nonzero">
                                <path d="M112.649376,54.4289557 C112.93089,54.4289557 113.159101,54.7705727 113.159101,55.1919785 C113.159101,55.5531835 112.991436,55.855768 112.766251,55.9348492 L112.649376,55.9550012 L3.33066907e-16,55.9550012 C-0.281513721,55.9550012 -0.509725682,55.6133843 -0.509725682,55.1919785 C-0.509725682,54.8307735 -0.342059752,54.5281889 -0.116875422,54.4491077 L3.33066907e-16,54.4289557 L112.649376,54.4289557 Z" id="Line"></path>
                                <path d="M112.649376,40.9488873 C112.93089,40.9488873 113.159101,41.2905042 113.159101,41.71191 C113.159101,42.073115 112.991436,42.3756996 112.766251,42.4547808 L112.649376,42.4749327 L3.33066907e-16,42.4749327 C-0.281513721,42.4749327 -0.509725682,42.1333158 -0.509725682,41.71191 C-0.509725682,41.350705 -0.342059752,41.0481204 -0.116875422,40.9690392 L3.33066907e-16,40.9488873 L112.649376,40.9488873 Z" id="Line-Copy"></path>
                                <path d="M112.649376,27.4688188 C112.93089,27.4688188 113.159101,27.8104357 113.159101,28.2318415 C113.159101,28.5930465 112.991436,28.8956311 112.766251,28.9747123 L112.649376,28.9948643 L3.33066907e-16,28.9948643 C-0.281513721,28.9948643 -0.509725682,28.6532474 -0.509725682,28.2318415 C-0.509725682,27.8706365 -0.342059752,27.568052 -0.116875422,27.4889708 L3.33066907e-16,27.4688188 L112.649376,27.4688188 Z" id="Line-Copy-2"></path>
                                <path d="M112.649376,13.9887503 C112.93089,13.9887503 113.159101,14.3303672 113.159101,14.751773 C113.159101,15.112978 112.991436,15.4155626 112.766251,15.4946438 L112.649376,15.5147958 L3.33066907e-16,15.5147958 C-0.281513721,15.5147958 -0.509725682,15.1731789 -0.509725682,14.751773 C-0.509725682,14.3905681 -0.342059752,14.0879835 -0.116875422,14.0089023 L3.33066907e-16,13.9887503 L112.649376,13.9887503 Z" id="Line-Copy-3"></path>
                                <path d="M112.649376,0.508681829 C112.93089,0.508681829 113.159101,0.850298748 113.159101,1.27170457 C113.159101,1.63290957 112.991436,1.93549414 112.766251,2.01457534 L112.649376,2.03472732 L3.33066907e-16,2.03472732 C-0.281513721,2.03472732 -0.509725682,1.6931104 -0.509725682,1.27170457 C-0.509725682,0.91049958 -0.342059752,0.607915008 -0.116875422,0.528833804 L3.33066907e-16,0.508681829 L112.649376,0.508681829 Z" id="Line-Copy-4"></path>
                            </g>
                            <g id="Group" transform="translate(46.894763, 105.805820)">
                                <path d="M8.15561092,0 L20.3890273,0 C21.5150822,0 22.42793,0.91097845 22.42793,2.03472732 C22.42793,3.15847618 21.5150822,4.06945463 20.3890273,4.06945463 L8.15561092,4.06945463 C7.02955603,4.06945463 6.11670819,3.15847618 6.11670819,2.03472732 C6.11670819,0.91097845 7.02955603,0 8.15561092,0 Z" id="Rectangle-Copy-2" fill-opacity="0.35" fill="#67696F"></path>
                                <path d="M38.7391519,0 L50.9725682,0 C52.0986231,0 53.011471,0.91097845 53.011471,2.03472732 C53.011471,3.15847618 52.0986231,4.06945463 50.9725682,4.06945463 L38.7391519,4.06945463 C37.613097,4.06945463 36.7002491,3.15847618 36.7002491,2.03472732 C36.7002491,0.91097845 37.613097,0 38.7391519,0 Z" id="Rectangle-Copy-5" fill-opacity="0.35" fill="#67696F"></path>
                                <path d="M2.03890273,0 C3.16495761,0 4.07780546,0.91097845 4.07780546,2.03472732 C4.07780546,3.15847618 3.16495761,4.06945463 2.03890273,4.06945463 C0.912847846,4.06945463 0,3.15847618 0,2.03472732 C0,0.91097845 0.912847846,0 2.03890273,0 Z" id="Rectangle-Copy-4" fill="#DFE0E1" opacity="0.647623698"></path>
                                <path d="M32.6224437,0 C33.7484986,0 34.6613464,0.91097845 34.6613464,2.03472732 C34.6613464,3.15847618 33.7484986,4.06945463 32.6224437,4.06945463 C31.4963888,4.06945463 30.5835409,3.15847618 30.5835409,2.03472732 C30.5835409,0.91097845 31.4963888,0 32.6224437,0 Z" id="Rectangle-Copy-6" fill="#ACAEB2" opacity="0.647623698"></path>
                            </g>
                            <path d="M117.746633,72.029347 C110.343828,72.029347 105.130281,66.3769453 100.335024,55.723997 L99.6936964,54.2572734 C99.535243,53.7880906 94.2361051,40.2804009 93.0106565,38.5383824 C92.4721929,37.7729375 92.0283701,37.4389826 91.7068183,37.4389826 C90.1739854,37.4389826 88.3860395,40.6094987 85.8630966,47.3609158 L83.629132,53.5064332 L83.1670005,54.7295829 C82.7248558,55.8768143 82.338299,56.8055526 81.9679813,57.5991507 C81.369913,58.880823 80.8241899,59.7849257 80.2697111,60.3461104 C79.4855513,61.139754 78.5486047,61.3220319 77.7281313,60.6557432 C77.0199947,60.0806809 76.3783513,59.4113027 75.5780215,58.4519029 L75.0294118,57.7801971 C74.7520743,57.4354481 74.283915,56.8526711 74.1241933,56.6582328 C73.7258487,56.1733053 73.4076301,55.8111071 73.1075738,55.5080283 C71.7602567,54.1471395 70.9430006,54.070166 69.6761741,55.4808276 C69.1240218,56.0956711 68.3786329,57.4642332 67.3358716,59.7415224 L66.5718341,61.4553345 C65.7097604,63.4373291 63.6535259,68.228414 62.9801936,69.7422696 L62.2611818,71.3377645 C59.5497245,77.2706762 57.338137,81.1099988 55.1156636,83.2925385 C53.4652381,84.913309 51.806996,85.5493256 50.18052,84.9504124 C47.5606181,83.9856923 45.7476233,82.1953003 42.4754293,77.8337339 L41.3564532,76.3229431 C37.2176749,70.7020338 35.0654135,68.7229151 32.112718,68.7229151 C27.671705,68.7229151 22.5382643,76.3879414 17.0800301,91.7747256 C16.9297176,92.1984572 16.4636581,92.4203567 16.039057,92.270352 C15.6144559,92.1203473 15.392101,91.6552422 15.5424136,91.2315106 L16.1632003,89.5099693 C21.6366015,74.583667 26.8434509,67.0951333 32.112718,67.0951333 C35.5769761,67.0951333 37.8874898,69.0142527 41.8308021,74.2320155 L43.7736724,76.8478493 C46.8452784,80.9402951 48.5255579,82.6059526 50.7451651,83.4232731 C51.6671107,83.7627589 52.724159,83.3573294 53.9715969,82.1323055 C56.0995725,80.0425656 58.3418999,76.0718664 61.1370343,69.8689022 L62.036073,67.8348241 C63.1000708,65.389884 64.951093,61.0765727 65.3796225,60.113168 L65.8727301,59.0197259 C66.9771767,56.6086776 67.7688379,55.1657286 68.4614769,54.3944476 C70.4214769,52.2119098 72.3137275,52.3901321 74.2678924,54.3639814 C74.5412046,54.6400468 74.8189342,54.9491561 75.1380017,55.3282465 L76.4915123,56.9970739 L77.1293519,57.7618928 C77.7297935,58.4591528 78.2316712,58.9660299 78.7576532,59.3931685 C78.8392639,59.4594427 78.8588533,59.4556317 79.1082475,59.2032213 C79.4995853,58.8071507 79.964033,58.0376973 80.4893249,56.9119864 C80.8428326,56.1544124 81.2170934,55.2547871 81.6482313,54.1357736 L84.3369178,46.7826512 C87.2220695,39.0217118 89.0804639,35.8112008 91.7068183,35.8112008 C92.6872864,35.8112008 93.5325097,36.4471898 94.3456531,37.6031018 C95.7291601,39.5698058 101.383192,54.0133393 101.202212,53.6428509 L101.506704,54.3456779 L102.156327,55.7872348 C106.500425,65.1772913 111.13065,70.1554164 117.282381,70.3926658 L117.746633,70.4015652 L131.32194,70.4015652 L131.32194,72.029347 L117.746633,72.029347 Z" id="Path-11" fill-opacity="0.328288899" fill="#9EA0A5" fill-rule="nonzero"></path>
                            <path d="M95.1345147,69.4742452 L95.2797062,68.6718457 C97.840251,54.2298355 105.988682,51.8643539 108.533359,63.4487872 L108.632131,63.9196089 C110.263432,72.0696365 114.827953,78.0940508 119.860361,81.493015 C121.698992,82.7348541 125.257109,83.3878804 130.489775,83.3878804 C130.940197,83.3878804 131.305336,83.7522718 131.305336,84.2017713 C131.305336,84.6512709 130.940197,85.0156622 130.489775,85.0156622 C124.957141,85.0156622 121.124235,84.3122036 118.946121,82.841073 C113.756022,79.3356015 109.067801,73.2558139 107.208972,65.0646003 L107.032607,64.238458 C105.066365,54.4150593 99.3894787,55.7801319 96.9940818,68.3665721 L96.8858806,68.9554527 C93.9855967,85.3136624 89.1343481,92.3319376 79.0512853,92.3319376 C72.7749322,92.3319376 68.8696355,89.8744147 65.7230201,85.2317285 L65.4333124,84.7876935 C64.7111432,83.6535363 63.4474223,81.5288549 63.0558496,80.9097496 L61.6838304,78.848328 C61.5400205,78.6370544 61.4043787,78.4406974 61.2690238,78.2480393 C58.3238475,74.0560078 55.5980005,72.0442756 51.6102231,72.0442756 C48.812112,72.0442756 46.3706635,74.4950158 42.0200432,80.8708592 L39.2510999,84.9356594 C38.5285754,85.9695843 38.0764983,86.5642604 37.4379763,87.3563979 C36.7043539,88.2665149 36.0140167,89.0205588 35.3383896,89.635565 C31.6550603,92.988406 25.3540627,95.2866434 16.4283447,96.5792406 C15.9825916,96.6437933 15.5687997,96.3355093 15.5041146,95.8906692 C15.4394294,95.445829 15.748346,95.0328845 16.194099,94.9683318 C24.8267051,93.7181822 30.8440782,91.5233945 34.2391661,88.4329324 C34.7249557,87.9907304 35.228985,87.4578712 35.7618297,86.8273883 L36.5701877,85.8297821 C37.2994892,84.9000661 37.904902,84.0397147 39.3838224,81.8571238 L40.2538695,80.5704558 C45.2307084,73.2004933 47.9078314,70.4164937 51.6102231,70.4164937 C56.2487948,70.4164937 59.3851893,72.7312187 62.6045838,77.3135602 L63.2599317,78.269081 L64.3442794,79.9000857 C64.6584035,80.3701591 66.2501463,83.0573974 66.9472635,84.1282728 L67.0741149,84.3197605 C69.9386838,88.5463 73.3677736,90.7041558 79.0512853,90.7041558 C87.9492363,90.7041558 92.3478916,84.5625866 95.1345147,69.4742452 Z" id="Path-12" fill-opacity="0.851207386" fill="#9EA0A5" fill-rule="nonzero"></path>
                        </g>
                        <g id="Pages" transform="translate(41.839080, 33.869732)">
                            <g id="Rectangle-Copy-11">
                                <use fill="black" fill-opacity="1" filter="url(#filter-29)" xlink:href="#path-28"></use>
                                <use fill="url(#linearGradient-27)" fill-rule="evenodd" xlink:href="#path-28"></use>
                            </g>
                            <g id="Rectangle-Copy-11">
                                <use fill="black" fill-opacity="1" filter="url(#filter-32)" xlink:href="#path-31"></use>
                                <use fill="url(#linearGradient-30)" fill-rule="evenodd" xlink:href="#path-31"></use>
                            </g>
                        </g>
                        <g id="doc" transform="translate(360.613027, 131.494253)">
                            <g id="Rectangle-Copy-11">
                                <use fill="black" fill-opacity="1" filter="url(#filter-34)" xlink:href="#path-33"></use>
                                <use fill="#FFFFFF" fill-rule="evenodd" xlink:href="#path-33"></use>
                            </g>
                            <g id="Rectangle-Copy-12" transform="translate(86.741361, 44.552978) scale(-1, -1) rotate(27.000000) translate(-86.741361, -44.552978) ">
                                <use fill="black" fill-opacity="1" filter="url(#filter-36)" xlink:href="#path-35"></use>
                                <use fill="#CCCED3" fill-rule="evenodd" xlink:href="#path-35"></use>
                            </g>
                        </g>
                    </g>
                </g>
            </g>
        </g>
    </g>
</svg>
