<?xml version="1.0" encoding="UTF-8"?>
<svg width="520px" height="326px" viewBox="0 0 520 326" version="1.1" xmlns="http://www.w3.org/2000/svg" xmlns:xlink="http://www.w3.org/1999/xlink">
    <defs>
        <path d="M20.7887416,13.6363443 L72.2082213,22.2432569 C75.7354085,25.2348057 77.7889475,32.7741762 78.3688385,44.8613684 C78.9343482,56.6487968 74.4415208,67.7341265 64.8903563,78.1173575 C64.4353008,78.6120304 63.7622021,78.8450595 63.0987013,78.7376186 L14.7198794,70.9036203 C14.1747177,70.8153111 13.8043371,70.301802 13.8926161,69.7566354 C13.9323015,69.5115585 14.0617357,69.2900078 14.2557375,69.1350855 C22.7275754,62.3698076 27.1505959,52.6962878 27.524799,40.114526 C27.9254786,26.6425519 25.6801261,17.8164913 20.7887416,13.6363443 Z" id="path-1"></path>
        <filter x="-21.2%" y="-17.6%" width="144.7%" height="147.3%" filterUnits="objectBoundingBox" id="filter-2">
            <feOffset dx="0" dy="4" in="SourceAlpha" result="shadowOffsetOuter1"></feOffset>
            <feGaussianBlur stdDeviation="4.5" in="shadowOffsetOuter1" result="shadowBlurOuter1"></feGaussianBlur>
            <feColorMatrix values="0 0 0 0 0   0 0 0 0 0   0 0 0 0 0  0 0 0 0.25 0" type="matrix" in="shadowBlurOuter1"></feColorMatrix>
        </filter>
        <path d="M42.6915374,19.127972 L80.4139228,36.1277352 L80.4139228,36.1277352 C81.2904015,36.8527632 82.0320345,37.8107209 82.6388218,39.001608 C83.2456092,40.1924952 83.2222757,41.8142334 82.5688214,43.8668225 L32.5780883,30.9003347 C38.6433997,31.0642963 40.7192201,28.3149842 38.8055494,22.6523983 C38.8055494,22.6523983 38.8055494,22.6523983 38.8055494,22.6523983 C38.2996502,21.1554338 39.1030675,19.5317919 40.6000321,19.0258928 C41.2850526,18.7943901 42.0323229,18.8308478 42.6915374,19.127972 Z" id="path-3"></path>
        <filter x="-14.9%" y="-11.2%" width="121.8%" height="127.0%" filterUnits="objectBoundingBox" id="filter-4">
            <feOffset dx="-2" dy="-1" in="SourceAlpha" result="shadowOffsetOuter1"></feOffset>
            <feGaussianBlur stdDeviation="1.5" in="shadowOffsetOuter1" result="shadowBlurOuter1"></feGaussianBlur>
            <feColorMatrix values="0 0 0 0 0   0 0 0 0 0   0 0 0 0 0  0 0 0 0.15 0" type="matrix" in="shadowBlurOuter1"></feColorMatrix>
        </filter>
        <path d="M6.33025813,0.971341303 L63.9607364,0.971341303 C64.9252344,0.971341303 65.7071145,1.75810605 65.7071145,2.72862954 L65.7071145,85.3211767 C65.7071145,86.2917002 64.9252344,87.0784649 63.9607364,87.0784649 L6.33025813,87.0784649 C5.36576012,87.0784649 4.58388,86.2917002 4.58388,85.3211767 L4.58388,2.72862954 C4.58388,1.75810605 5.36576012,0.971341303 6.33025813,0.971341303 Z" id="path-5"></path>
        <filter x="-12.3%" y="-5.2%" width="124.5%" height="117.4%" filterUnits="objectBoundingBox" id="filter-6">
            <feOffset dx="0" dy="3" in="SourceAlpha" result="shadowOffsetOuter1"></feOffset>
            <feGaussianBlur stdDeviation="2" in="shadowOffsetOuter1" result="shadowBlurOuter1"></feGaussianBlur>
            <feColorMatrix values="0 0 0 0 0   0 0 0 0 0   0 0 0 0 0  0 0 0 0.25 0" type="matrix" in="shadowBlurOuter1"></feColorMatrix>
        </filter>
        <path d="M4.59766246,3.08485004 L62.2281407,3.08485004 C63.1926387,3.08485004 63.9745189,3.87161478 63.9745189,4.84213828 L63.9745189,87.4346854 C63.9745189,88.4052089 63.1926387,89.1919736 62.2281407,89.1919736 L4.59766246,89.1919736 C3.63316445,89.1919736 2.85128433,88.4052089 2.85128433,87.4346854 L2.85128433,4.84213828 C2.85128433,3.87161478 3.63316445,3.08485004 4.59766246,3.08485004 Z" id="path-7"></path>
        <filter x="-25.4%" y="-13.4%" width="150.7%" height="136.0%" filterUnits="objectBoundingBox" id="filter-9">
            <feOffset dx="0" dy="4" in="SourceAlpha" result="shadowOffsetOuter1"></feOffset>
            <feGaussianBlur stdDeviation="4.5" in="shadowOffsetOuter1" result="shadowBlurOuter1"></feGaussianBlur>
            <feColorMatrix values="0 0 0 0 0   0 0 0 0 0   0 0 0 0 0  0 0 0 0.25 0" type="matrix" in="shadowBlurOuter1"></feColorMatrix>
        </filter>
        <linearGradient x1="50%" y1="1.00031672%" x2="50%" y2="99.3243243%" id="linearGradient-10">
            <stop stop-color="#FFFFFF" stop-opacity="0" offset="0%"></stop>
            <stop stop-color="#F1F2F5" offset="100%"></stop>
        </linearGradient>
        <path d="M224.28283,131.494253 L277.227759,131.494253 C277.780029,131.49428 278.227732,131.941983 278.227732,132.494253 C278.227732,132.661036 278.186016,132.825171 278.106381,132.971715 C271.667067,144.821291 268.447409,157.096745 268.447409,169.798077 C268.447409,182.466796 271.650554,194.437094 278.056844,205.708969 C278.329714,206.189124 278.161698,206.799577 277.681553,207.072464 C277.530944,207.158062 277.360682,207.203065 277.187448,207.203065 L224.214264,207.203065 C223.868085,207.203049 223.546529,207.024002 223.364207,206.729725 C216.574787,195.771242 213.180077,184.072567 213.180077,171.633701 C213.180077,159.18263 216.581451,145.989915 223.384201,132.055555 C223.551863,131.712098 223.900634,131.494253 224.28283,131.494253 Z" id="path-11"></path>
        <filter x="-18.3%" y="-10.6%" width="129.4%" height="126.4%" filterUnits="objectBoundingBox" id="filter-12">
            <feOffset dx="-2" dy="2" in="SourceAlpha" result="shadowOffsetOuter1"></feOffset>
            <feGaussianBlur stdDeviation="3" in="shadowOffsetOuter1" result="shadowBlurOuter1"></feGaussianBlur>
            <feColorMatrix values="0 0 0 0 0   0 0 0 0 0   0 0 0 0 0  0 0 0 0.25 0" type="matrix" in="shadowBlurOuter1"></feColorMatrix>
        </filter>
        <path d="M11.348771,0 L120.910163,0 C125.789928,0 129.745759,3.93727974 129.745759,8.79416044 C129.745759,14.3149389 129.745759,18.3455958 129.745759,20.886131 C129.745759,37.497323 129.745759,62.1942569 129.745759,94.9769327 C129.745759,99.8338134 125.789928,103.771093 120.910163,103.771093 L11.348771,103.771093 C6.46900602,103.771093 2.51317488,99.8338134 2.51317488,94.9769327 C2.51317488,61.9011182 2.51317488,37.2041843 2.51317488,20.886131 C2.51317488,18.0524571 2.51317488,14.0218003 2.51317488,8.79416044 C2.51317488,3.93727974 6.46900602,0 11.348771,0 Z" id="path-13"></path>
        <filter x="-12.2%" y="-11.1%" width="124.4%" height="129.9%" filterUnits="objectBoundingBox" id="filter-14">
            <feOffset dx="0" dy="4" in="SourceAlpha" result="shadowOffsetOuter1"></feOffset>
            <feGaussianBlur stdDeviation="4.5" in="shadowOffsetOuter1" result="shadowBlurOuter1"></feGaussianBlur>
            <feColorMatrix values="0 0 0 0 0   0 0 0 0 0   0 0 0 0 0  0 0 0 0.25 0" type="matrix" in="shadowBlurOuter1"></feColorMatrix>
        </filter>
        <path d="M8.83559615,0 L118.396988,0 C123.276753,0 127.232585,3.93727974 127.232585,8.79416044 C127.232585,14.3149389 127.232585,18.3455958 127.232585,20.886131 C127.232585,37.497323 127.232585,62.1942569 127.232585,94.9769327 C127.232585,99.8338134 123.276753,103.771093 118.396988,103.771093 L8.83559615,103.771093 C3.95583114,103.771093 0,99.8338134 0,94.9769327 C0,61.9011182 0,37.2041843 0,20.886131 C0,18.0524571 0,14.0218003 0,8.79416044 C0,3.93727974 3.95583114,0 8.83559615,0 Z" id="path-15"></path>
        <filter x="-12.2%" y="-11.1%" width="124.4%" height="129.9%" filterUnits="objectBoundingBox" id="filter-16">
            <feOffset dx="0" dy="4" in="SourceAlpha" result="shadowOffsetOuter1"></feOffset>
            <feGaussianBlur stdDeviation="4.5" in="shadowOffsetOuter1" result="shadowBlurOuter1"></feGaussianBlur>
            <feColorMatrix values="0 0 0 0 0   0 0 0 0 0   0 0 0 0 0  0 0 0 0.25 0" type="matrix" in="shadowBlurOuter1"></feColorMatrix>
        </filter>
        <path d="M17.2007314,0.905616348 L70.3166452,0.905616348 C72.5735365,0.905616348 74.4031084,2.72757325 74.4031084,4.97507098 L74.4031084,92.4683456 C74.4031084,94.7158434 72.5735365,96.5378003 70.3166452,96.5378003 L9.01969692,96.5378003 C6.7628056,96.5378003 4.9332337,94.7158434 4.9332337,92.4683456 L4.9332337,11.7476372 L17.2007314,0.905616348 Z" id="path-17"></path>
        <filter x="-22.3%" y="-12.0%" width="144.6%" height="132.4%" filterUnits="objectBoundingBox" id="filter-18">
            <feOffset dx="0" dy="4" in="SourceAlpha" result="shadowOffsetOuter1"></feOffset>
            <feGaussianBlur stdDeviation="4.5" in="shadowOffsetOuter1" result="shadowBlurOuter1"></feGaussianBlur>
            <feColorMatrix values="0 0 0 0 0   0 0 0 0 0   0 0 0 0 0  0 0 0 0.25 0" type="matrix" in="shadowBlurOuter1"></feColorMatrix>
        </filter>
        <path d="M14.7874614,2.2779911 L67.9033752,2.2779911 C70.1602665,2.2779911 71.9898384,4.099948 71.9898384,6.34744573 L71.9898384,93.8407204 C71.9898384,96.0882181 70.1602665,97.910175 67.9033752,97.910175 L6.60642686,97.910175 C4.34953555,97.910175 2.51996364,96.0882181 2.51996364,93.8407204 L2.51996364,13.1200119 L14.7874614,2.2779911 Z" id="path-19"></path>
        <filter x="-22.3%" y="-12.0%" width="144.6%" height="132.4%" filterUnits="objectBoundingBox" id="filter-20">
            <feOffset dx="0" dy="4" in="SourceAlpha" result="shadowOffsetOuter1"></feOffset>
            <feGaussianBlur stdDeviation="4.5" in="shadowOffsetOuter1" result="shadowBlurOuter1"></feGaussianBlur>
            <feColorMatrix values="0 0 0 0 0   0 0 0 0 0   0 0 0 0 0  0 0 0 0.25 0" type="matrix" in="shadowBlurOuter1"></feColorMatrix>
        </filter>
        <path d="M13.0388866,7.29326933 L22.3441191,15.3821845 L22.3441191,15.3821845 L2.75677459,15.4486522 L10.2675069,7.43500599 C11.0029421,6.65032645 12.2272362,6.58771238 13.0388866,7.29326933 Z" id="path-21"></path>
        <filter x="-10.2%" y="-23.6%" width="120.4%" height="134.3%" filterUnits="objectBoundingBox" id="filter-22">
            <feOffset dx="0" dy="-1" in="SourceAlpha" result="shadowOffsetOuter1"></feOffset>
            <feGaussianBlur stdDeviation="0.5" in="shadowOffsetOuter1" result="shadowBlurOuter1"></feGaussianBlur>
            <feColorMatrix values="0 0 0 0 0   0 0 0 0 0   0 0 0 0 0  0 0 0 0.17 0" type="matrix" in="shadowBlurOuter1"></feColorMatrix>
        </filter>
        <path d="M8.67594014,1.33127257 L87.6614364,1.33127257 C88.9833299,1.33127257 90.0549363,2.40957359 90.0549363,3.73972531 L90.0549363,116.937004 C90.0549363,118.267156 88.9833299,119.345457 87.6614364,119.345457 L8.67594014,119.345457 C7.35404665,119.345457 6.28244025,118.267156 6.28244025,116.937004 L6.28244025,3.73972531 C6.28244025,2.40957359 7.35404665,1.33127257 8.67594014,1.33127257 Z" id="path-23"></path>
        <filter x="-9.0%" y="-3.8%" width="117.9%" height="112.7%" filterUnits="objectBoundingBox" id="filter-24">
            <feOffset dx="0" dy="3" in="SourceAlpha" result="shadowOffsetOuter1"></feOffset>
            <feGaussianBlur stdDeviation="2" in="shadowOffsetOuter1" result="shadowBlurOuter1"></feGaussianBlur>
            <feColorMatrix values="0 0 0 0 0   0 0 0 0 0   0 0 0 0 0  0 0 0 0.25 0" type="matrix" in="shadowBlurOuter1"></feColorMatrix>
        </filter>
        <path d="M6.30132982,4.22794359 L85.2868261,4.22794359 C86.6087196,4.22794359 87.680326,5.30624462 87.680326,6.63639634 L87.680326,119.833675 C87.680326,121.163827 86.6087196,122.242128 85.2868261,122.242128 L6.30132982,122.242128 C4.97943633,122.242128 3.90782993,121.163827 3.90782993,119.833675 L3.90782993,6.63639634 C3.90782993,5.30624462 4.97943633,4.22794359 6.30132982,4.22794359 Z" id="path-25"></path>
        <filter x="-18.5%" y="-9.7%" width="137.0%" height="126.3%" filterUnits="objectBoundingBox" id="filter-27">
            <feOffset dx="0" dy="4" in="SourceAlpha" result="shadowOffsetOuter1"></feOffset>
            <feGaussianBlur stdDeviation="4.5" in="shadowOffsetOuter1" result="shadowBlurOuter1"></feGaussianBlur>
            <feColorMatrix values="0 0 0 0 0   0 0 0 0 0   0 0 0 0 0  0 0 0 0.25 0" type="matrix" in="shadowBlurOuter1"></feColorMatrix>
        </filter>
        <linearGradient x1="50%" y1="1.00031672%" x2="50%" y2="99.3243243%" id="linearGradient-28">
            <stop stop-color="#FFFFFF" stop-opacity="0" offset="0%"></stop>
            <stop stop-color="#F1F2F5" offset="100%"></stop>
        </linearGradient>
        <path d="M13.2810055,0 L139.961365,0 C145.603594,0 150.177523,4.55489225 150.177523,10.1736366 C150.177523,16.5604196 150.177523,21.2233363 150.177523,24.1623869 C150.177523,43.379256 150.177523,71.9502187 150.177523,109.875275 C150.177523,115.494019 145.603594,120.048912 139.961365,120.048912 L13.2810055,120.048912 C7.63877717,120.048912 3.06484742,115.494019 3.06484742,109.875275 C3.06484742,71.6110975 3.06484742,43.0401348 3.06484742,24.1623869 C3.06484742,20.8842151 3.06484742,16.2212983 3.06484742,10.1736366 C3.06484742,4.55489225 7.63877717,0 13.2810055,0 Z" id="path-29"></path>
        <filter x="-10.5%" y="-9.6%" width="121.1%" height="125.8%" filterUnits="objectBoundingBox" id="filter-30">
            <feOffset dx="0" dy="4" in="SourceAlpha" result="shadowOffsetOuter1"></feOffset>
            <feGaussianBlur stdDeviation="4.5" in="shadowOffsetOuter1" result="shadowBlurOuter1"></feGaussianBlur>
            <feColorMatrix values="0 0 0 0 0   0 0 0 0 0   0 0 0 0 0  0 0 0 0.25 0" type="matrix" in="shadowBlurOuter1"></feColorMatrix>
        </filter>
        <path d="M10.2161581,0 L136.896518,0 C142.538746,0 147.112676,4.55489225 147.112676,10.1736366 C147.112676,16.5604196 147.112676,21.2233363 147.112676,24.1623869 C147.112676,43.379256 147.112676,71.9502187 147.112676,109.875275 C147.112676,115.494019 142.538746,120.048912 136.896518,120.048912 L10.2161581,120.048912 C4.57392976,120.048912 0,115.494019 0,109.875275 C0,71.6110975 0,43.0401348 0,24.1623869 C0,20.8842151 0,16.2212983 0,10.1736366 C0,4.55489225 4.57392976,0 10.2161581,0 Z" id="path-31"></path>
        <filter x="-10.5%" y="-9.6%" width="121.1%" height="125.8%" filterUnits="objectBoundingBox" id="filter-32">
            <feOffset dx="0" dy="4" in="SourceAlpha" result="shadowOffsetOuter1"></feOffset>
            <feGaussianBlur stdDeviation="4.5" in="shadowOffsetOuter1" result="shadowBlurOuter1"></feGaussianBlur>
            <feColorMatrix values="0 0 0 0 0   0 0 0 0 0   0 0 0 0 0  0 0 0 0.25 0" type="matrix" in="shadowBlurOuter1"></feColorMatrix>
        </filter>
        <path d="M35.3985639,13.9463602 L100.883047,13.9463602 C101.435315,13.9463911 101.883016,14.3940925 101.883016,14.9463602 C101.883016,15.1126743 101.841534,15.2763622 101.762326,15.4226032 C93.7336146,30.2458604 89.719259,45.6065084 89.719259,61.5045472 C89.719259,77.3697075 93.7170278,92.3526857 101.712565,106.453482 C101.984985,106.933907 101.816358,107.544208 101.33593,107.816623 C101.185526,107.901907 101.015579,107.946737 100.842678,107.946737 L35.3300634,107.946737 C34.9824752,107.946706 34.6598226,107.766208 34.4779338,107.470009 C26.1031171,93.8319239 21.9157088,79.2698096 21.9157088,63.7836655 C21.9157088,48.2849922 26.1098957,31.8607933 34.4982693,14.511069 C34.665236,14.1657538 35.0150011,13.9463602 35.3985639,13.9463602 Z" id="path-33"></path>
        <filter x="-14.9%" y="-8.5%" width="123.9%" height="121.3%" filterUnits="objectBoundingBox" id="filter-34">
            <feOffset dx="-2" dy="2" in="SourceAlpha" result="shadowOffsetOuter1"></feOffset>
            <feGaussianBlur stdDeviation="3" in="shadowOffsetOuter1" result="shadowBlurOuter1"></feGaussianBlur>
            <feColorMatrix values="0 0 0 0 0   0 0 0 0 0   0 0 0 0 0  0 0 0 0.25 0" type="matrix" in="shadowBlurOuter1"></feColorMatrix>
        </filter>
        <path d="M35.3985639,13.9463602 L100.883047,13.9463602 C101.435315,13.9463911 101.883016,14.3940925 101.883016,14.9463602 C101.883016,15.1126743 101.841534,15.2763622 101.762326,15.4226032 C93.7336146,30.2458604 89.719259,45.6065084 89.719259,61.5045472 C89.719259,77.3697075 93.7170278,92.3526857 101.712565,106.453482 C101.984985,106.933907 101.816358,107.544208 101.33593,107.816623 C101.185526,107.901907 101.015579,107.946737 100.842678,107.946737 L35.3300634,107.946737 C34.9824752,107.946706 34.6598226,107.766208 34.4779338,107.470009 C26.1031171,93.8319239 21.9157088,79.2698096 21.9157088,63.7836655 C21.9157088,48.2849922 26.1098957,31.8607933 34.4982693,14.511069 C34.665236,14.1657538 35.0150011,13.9463602 35.3985639,13.9463602 Z" id="path-35"></path>
        <filter x="-14.9%" y="-8.5%" width="123.9%" height="121.3%" filterUnits="objectBoundingBox" id="filter-36">
            <feOffset dx="-2" dy="2" in="SourceAlpha" result="shadowOffsetOuter1"></feOffset>
            <feGaussianBlur stdDeviation="3" in="shadowOffsetOuter1" result="shadowBlurOuter1"></feGaussianBlur>
            <feColorMatrix values="0 0 0 0 0   0 0 0 0 0   0 0 0 0 0  0 0 0 0.25 0" type="matrix" in="shadowBlurOuter1"></feColorMatrix>
        </filter>
        <path d="M31.1831123,20.4545164 L108.312332,33.3648853 C113.603113,37.8522085 116.683421,49.1612643 117.553258,67.2920526 C118.408851,85.1259496 111.545269,101.888423 96.9625121,117.579472 C96.5074016,118.06915 95.83773,118.299073 95.1778131,118.192212 L20.9509123,106.172626 C20.4057587,106.084307 20.0353824,105.570804 20.1236604,105.025643 C20.1644555,104.773713 20.3000337,104.546915 20.5026242,104.391705 C33.7848715,94.2158143 40.7130629,79.4758423 41.2871985,60.1717889 C41.8882179,39.9638278 38.5201891,26.724737 31.1831123,20.4545164 Z" id="path-37"></path>
        <filter x="-14.1%" y="-11.7%" width="129.8%" height="131.5%" filterUnits="objectBoundingBox" id="filter-38">
            <feOffset dx="0" dy="4" in="SourceAlpha" result="shadowOffsetOuter1"></feOffset>
            <feGaussianBlur stdDeviation="4.5" in="shadowOffsetOuter1" result="shadowBlurOuter1"></feGaussianBlur>
            <feColorMatrix values="0 0 0 0 0   0 0 0 0 0   0 0 0 0 0  0 0 0 0.25 0" type="matrix" in="shadowBlurOuter1"></feColorMatrix>
        </filter>
        <path d="M64.0372852,28.6919487 L120.620884,54.1916027 L120.620884,54.1916027 C121.935602,55.2791448 123.048052,56.7160813 123.958233,58.502412 C124.868414,60.2887428 124.833413,62.72135 123.853232,65.8002338 L48.8671324,46.350502 C57.9650996,46.5964444 61.0788301,42.4724763 58.208324,33.9785975 C58.208324,33.9785975 58.208324,33.9785975 58.208324,33.9785975 C57.4494809,31.733167 58.654598,29.297722 60.9000285,28.5388788 C61.9275518,28.1916274 63.0484491,28.2463135 64.0372852,28.6919487 Z" id="path-39"></path>
        <filter x="-9.9%" y="-3.5%" width="114.5%" height="114.1%" filterUnits="objectBoundingBox" id="filter-40">
            <feOffset dx="-2" dy="-1" in="SourceAlpha" result="shadowOffsetOuter1"></feOffset>
            <feGaussianBlur stdDeviation="1.5" in="shadowOffsetOuter1" result="shadowBlurOuter1"></feGaussianBlur>
            <feColorMatrix values="0 0 0 0 0   0 0 0 0 0   0 0 0 0 0  0 0 0 0.15 0" type="matrix" in="shadowBlurOuter1"></feColorMatrix>
        </filter>
    </defs>
    <g id="In-App-generic-empty-states" stroke="none" stroke-width="1" fill="none" fill-rule="evenodd" opacity="0.5">
        <g id="Generic-Empty-State_Too-much-data-" transform="translate(-762.000000, -1294.000000)">
            <g id="Dark" transform="translate(683.000000, -39.000000)">
                <g id="Too-much-data_XL" transform="translate(79.000000, 1301.000000)">
                    <g id="Too-much-data-dark_XL-drawing" transform="translate(0.000000, 41.000000)">
                        <path d="M132.571339,39.8842068 C228.980895,42.7592208 330.305909,35.0912149 422.448236,57.6352661 C493.999115,75.1412996 462.579598,239.464032 445.081365,282.97584 C427.583132,326.487649 358.970177,292.02611 270.672169,292.02611 C182.374161,292.02611 132.571339,330.706717 91.8893325,282.97584 C33.0239937,200.324971 36.1617833,37.0091928 132.571339,39.8842068 Z" id="Rectangle" fill="#CCCED3" opacity="0.08"></path>
                        <path d="M173.08118,37.2714344 C249.759412,27.6914624 390.853219,68.1689265 476.626088,121.66741 C543.23092,163.210354 436.989397,266.799399 398.833859,296.482042 C360.67832,326.164685 299.342609,319.877864 201.73169,299.482166 C104.120772,279.086468 40.0202325,279.713107 19.4348328,224.600051 C-4.1353872,133.527607 96.4029473,46.8514063 173.08118,37.2714344 Z" id="Rectangle-Copy" fill="#F1F2F5" opacity="0.22"></path>
                        <g id="Decorations" opacity="0.6" transform="translate(0.000000, 31.877395)">
                            <circle id="Oval" fill="#CCCED3" cx="515.019157" cy="168.35249" r="4.98084291"></circle>
                            <circle id="Oval-Copy-2" fill="#CCCED3" cx="283.908046" cy="153.287791" r="2.98850575"></circle>
                            <path d="M337.204981,39.8467433 L340.065134,39.8467433 C340.341276,39.8467433 340.565134,40.0706009 340.565134,40.3467433 L340.565134,79.1934866 C340.565134,79.469629 340.341276,79.6934866 340.065134,79.6934866 L337.204981,79.6934866 C336.928838,79.6934866 336.704981,79.469629 336.704981,79.1934866 L336.704981,40.3467433 C336.704981,40.0706009 336.928838,39.8467433 337.204981,39.8467433 Z" id="Rectangle-Copy-6" fill="#CCCED3" opacity="0.339076451" transform="translate(338.635057, 59.770115) scale(-1, 1) rotate(18.000000) translate(-338.635057, -59.770115) "></path>
                            <rect id="Rectangle-Copy-5" fill="#CCCED3" opacity="0.339076451" x="366.590038" y="225.1341" width="3.98467433" height="31.8773946" rx="0.5"></rect>
                            <circle id="Oval-Copy-3" fill="#CCCED3" cx="1.99233716" cy="76.5828099" r="1.99233716"></circle>
                            <circle id="Oval-Copy-4" fill="#CCCED3" cx="404.444444" cy="191.264368" r="1.99233716"></circle>
                            <circle id="Oval-Copy" fill="#CCCED3" cx="143.448276" cy="219.157088" r="5.97701149"></circle>
                            <g id="corner-llines" opacity="0.34" transform="translate(34.865900, 26.896552) rotate(-13.000000) translate(-34.865900, -26.896552) translate(11.954023, 5.977011)" fill="#CCCED3">
                                <path d="M39.1828665,2.77926014 L42.1675408,2.77926014 C42.4436832,2.77926014 42.6675408,3.00311777 42.6675408,3.27926014 L42.6675408,26.1873061 C42.6675408,26.4634485 42.4436832,26.6873061 42.1675408,26.6873061 L39.1828665,26.6873061 C38.9067241,26.6873061 38.6828665,26.4634485 38.6828665,26.1873061 L38.6828665,3.27926014 C38.6828665,3.00311777 38.9067241,2.77926014 39.1828665,2.77926014 Z" id="Rectangle-Copy" transform="translate(40.675204, 14.733283) rotate(-12.000000) translate(-40.675204, -14.733283) "></path>
                                <path d="M19.6477214,-3.98467433 L22.6323958,-3.98467433 C22.9085381,-3.98467433 23.1323958,-3.7608167 23.1323958,-3.48467433 L23.1323958,35.362069 C23.1323958,35.6382113 22.9085381,35.862069 22.6323958,35.862069 L19.6477214,35.862069 C19.3715791,35.862069 19.1477214,35.6382113 19.1477214,35.362069 L19.1477214,-3.48467433 C19.1477214,-3.7608167 19.3715791,-3.98467433 19.6477214,-3.98467433 Z" id="Rectangle-Copy-2" transform="translate(21.140059, 15.938697) rotate(-44.000000) translate(-21.140059, -15.938697) "></path>
                                <path d="M14.4463602,18.8050322 L17.4310345,18.8050322 C17.7071769,18.8050322 17.9310345,19.0288898 17.9310345,19.3050322 L17.9310345,50.1824268 C17.9310345,50.4585692 17.7071769,50.6824268 17.4310345,50.6824268 L14.4463602,50.6824268 C14.1702178,50.6824268 13.9463602,50.4585692 13.9463602,50.1824268 L13.9463602,19.3050322 C13.9463602,19.0288898 14.1702178,18.8050322 14.4463602,18.8050322 Z" id="Rectangle-Copy-4" transform="translate(15.938697, 34.743729) rotate(-75.000000) translate(-15.938697, -34.743729) "></path>
                            </g>
                            <path d="M32.4609367,221.732967 C33.1791423,221.014762 34.3092578,220.959515 35.0908341,221.567228 L35.2785269,221.732967 L40.9126437,227.365517 L46.5488879,221.732967 C47.3269439,220.954911 48.5884221,220.954911 49.3664781,221.732967 C50.1445342,222.511023 50.1445342,223.772502 49.3664781,224.550558 L43.7318008,230.184674 L49.3664781,235.820919 C50.0846837,236.539124 50.1399303,237.66924 49.5322179,238.450816 L49.3664781,238.638509 C48.6482725,239.356714 47.518157,239.411961 46.7365807,238.804249 L46.5488879,238.638509 L40.9126437,233.003831 L35.2785269,238.638509 C34.5004709,239.416565 33.2389927,239.416565 32.4609367,238.638509 C31.6828806,237.860453 31.6828806,236.598975 32.4609367,235.820919 L38.0934866,230.184674 L32.4609367,224.550558 C31.7427311,223.832352 31.6874845,222.702236 32.2951969,221.92066 L32.4609367,221.732967 Z" id="Path" fill="#CCCED3"></path>
                            <path d="M485.872948,133.74391 C486.216042,134.087004 486.216042,134.643268 485.872948,134.986362 L483.38682,137.471264 L485.872948,139.956167 C486.173155,140.256374 486.210681,140.71979 485.985526,141.060799 L485.872948,141.198619 C485.572741,141.498825 485.109325,141.536351 484.768316,141.311196 L484.630497,141.198619 L482.145594,138.71249 L479.660691,141.198619 C479.317598,141.541712 478.761333,141.541712 478.41824,141.198619 C478.075146,140.855525 478.075146,140.299261 478.41824,139.956167 L480.904368,137.471264 L478.41824,134.986362 C478.118033,134.686155 478.080507,134.222739 478.305662,133.88173 L478.41824,133.74391 C478.718446,133.443703 479.181862,133.406178 479.522871,133.631333 L479.660691,133.74391 L482.145594,136.230038 L484.630497,133.74391 C484.97359,133.400817 485.529855,133.400817 485.872948,133.74391 Z" id="Path" fill="#CCCED3"></path>
                            <path d="M40.8429119,128.383576 C41.1179962,128.383576 41.3409962,128.606576 41.3409962,128.881661 L41.3412452,129.956277 L42.2406697,129.057621 C42.4336598,128.864631 42.7465585,128.864631 42.9395486,129.057621 C43.1325387,129.250611 43.1325387,129.56351 42.9395486,129.7565 L41.8216475,130.873749 L43.3333333,130.873998 C43.5809093,130.873998 43.7862968,131.054628 43.8248985,131.29129 L43.8314176,131.372082 C43.8314176,131.622159 43.6471202,131.82919 43.4069366,131.864766 L43.3333333,131.870166 L42.2572222,131.869668 L42.9395486,132.552016 C43.1132397,132.725707 43.1306088,132.996524 42.9916559,133.18964 L42.9395486,133.250895 C42.7658575,133.424586 42.4950405,133.441955 42.3019242,133.303002 L42.2406697,133.250895 L41.3412452,132.351565 L41.3409962,133.862503 C41.3409962,134.137588 41.1179962,134.360588 40.8429119,134.360588 C40.5678275,134.360588 40.3448276,134.137588 40.3448276,133.862503 L40.3445785,132.350818 L39.445154,133.250895 C39.252164,133.443885 38.9392652,133.443885 38.7462751,133.250895 C38.553285,133.057905 38.553285,132.745006 38.7462751,132.552016 L39.4278544,131.869668 L38.3524904,131.870166 C38.1049145,131.870166 37.899527,131.689536 37.8609252,131.452874 L37.8544061,131.372082 C37.8544061,131.122005 38.0387036,130.914974 38.2788872,130.879398 L38.3524904,130.873998 L39.862682,130.873749 L38.7462751,129.7565 C38.5725841,129.582809 38.5552149,129.311992 38.6941678,129.118876 L38.7462751,129.057621 C38.9199662,128.88393 39.1907833,128.866561 39.3838996,129.005514 L39.445154,129.057621 L40.3445785,129.957024 L40.3448276,128.881661 C40.3448276,128.606576 40.5678275,128.383576 40.8429119,128.383576 Z" id="Path" fill="#CCCED3"></path>
                            <path d="M444.291188,10.9578544 C444.780227,10.9578544 445.186959,11.3102494 445.271307,11.7749604 L445.287356,11.954023 L445.287356,14.9425287 C445.287356,15.4926975 444.841356,15.9386973 444.291188,15.9386973 C443.802149,15.9386973 443.395416,15.5863024 443.311069,15.1215913 L443.295019,14.9425287 L443.295019,11.954023 C443.295019,11.4038543 443.741019,10.9578544 444.291188,10.9578544 Z M447.67521,9.96727377 L447.813176,10.0825413 L449.926368,12.195734 C450.315396,12.584762 450.315396,13.2155011 449.926368,13.6045291 C449.580566,13.9503318 449.043781,13.9887544 448.655538,13.7197967 L448.517573,13.6045291 L446.40438,11.4913365 C446.015352,11.1023084 446.015352,10.4715694 446.40438,10.0825413 C446.706958,9.77996398 447.155755,9.71272457 447.52332,9.8808231 L447.67521,9.96727377 Z M442.177995,10.0825413 C442.523798,10.428344 442.56222,10.9651283 442.293263,11.3533713 L442.177995,11.4913365 L440.064802,13.6045291 C439.675774,13.9935572 439.045035,13.9935572 438.656007,13.6045291 C438.310205,13.2587264 438.271782,12.7219422 438.54074,12.3336992 L438.656007,12.195734 L440.7692,10.0825413 C441.158228,9.69351331 441.788967,9.69351331 442.177995,10.0825413 Z M451.264368,6.97318008 C451.814537,6.97318008 452.260536,7.41917994 452.260536,7.96934866 C452.260536,8.45838752 451.908141,8.86512012 451.44343,8.94946763 L451.264368,8.96551724 L448.275862,8.96551724 C447.725693,8.96551724 447.279693,8.51951738 447.279693,7.96934866 C447.279693,7.4803098 447.632088,7.07357719 448.0968,6.98922969 L448.275862,6.97318008 L451.264368,6.97318008 Z M440.306513,6.97318008 C440.856682,6.97318008 441.302682,7.41917994 441.302682,7.96934866 C441.302682,8.45838752 440.950287,8.86512012 440.485576,8.94946763 L440.306513,8.96551724 L437.318008,8.96551724 C436.767839,8.96551724 436.321839,8.51951738 436.321839,7.96934866 C436.321839,7.4803098 436.674234,7.07357719 437.138945,6.98922969 L437.318008,6.97318008 L440.306513,6.97318008 Z M439.926837,2.21890062 L440.064802,2.33416818 L442.177995,4.44736086 C442.567023,4.83638889 442.567023,5.46712795 442.177995,5.85615598 C441.832192,6.20195867 441.295408,6.24038119 440.907165,5.97142354 L440.7692,5.85615598 L438.656007,3.7429633 C438.266979,3.35393527 438.266979,2.72319621 438.656007,2.33416818 C438.958585,2.03159082 439.407382,1.96435141 439.774946,2.13244994 L439.926837,2.21890062 Z M449.926368,2.33416818 C450.272171,2.67997087 450.310593,3.21675512 450.041636,3.60499816 L449.926368,3.7429633 L447.813176,5.85615598 C447.424148,6.24518401 446.793408,6.24518401 446.40438,5.85615598 C446.058578,5.51035329 446.020155,4.97356904 446.289113,4.585326 L446.40438,4.44736086 L448.517573,2.33416818 C448.906601,1.94514015 449.53734,1.94514015 449.926368,2.33416818 Z M444.291188,0 C444.780227,0 445.186959,0.352394956 445.271307,0.81710602 L445.287356,0.996168582 L445.287356,3.98467433 C445.287356,4.53484305 444.841356,4.98084291 444.291188,4.98084291 C443.802149,4.98084291 443.395416,4.62844796 443.311069,4.16373689 L443.295019,3.98467433 L443.295019,0.996168582 C443.295019,0.445999866 443.741019,0 444.291188,0 Z" id="Combined-Shape-Copy-5" fill="#CCCED3" fill-rule="nonzero"></path>
                            <path d="M478.671266,211.341999 C479.636979,211.869391 479.992309,213.07979 479.464918,214.045503 C474.106462,223.857443 450.794572,240.025531 437.60049,240.815331 C436.502119,240.881079 435.558413,240.043973 435.492664,238.945602 C435.426916,237.847231 436.264022,236.903525 437.362393,236.837776 C449.120523,236.133933 471.239886,220.792928 475.967763,212.135651 C476.495154,211.169938 477.705554,210.814608 478.671266,211.341999 Z M419.778396,226.687332 L419.956834,226.862997 L424.232158,231.628849 C424.735459,232.189898 425.512281,232.418897 426.239439,232.220575 L429.469443,231.330616 C431.781106,230.685735 433.43797,230.202247 434.431533,229.882922 C435.479096,229.546241 436.601248,230.122525 436.937928,231.170088 C437.274609,232.217652 436.698325,233.339803 435.650761,233.676484 L434.744955,233.958277 C433.14689,234.442869 430.665707,235.143589 427.287907,236.064836 C425.234756,236.624804 423.049623,236.049191 421.540835,234.576283 L421.26606,234.289656 L416.990738,229.523805 C416.255976,228.70474 416.324317,227.445115 417.143382,226.710353 C417.836437,226.088631 418.844923,226.041912 419.58396,226.538463 L419.778396,226.687332 Z M463.075674,215.766663 C463.847816,216.550589 463.838265,217.81203 463.05434,218.584173 C457.794535,223.764921 453.496432,226.559186 445.550476,229.610137 C444.523256,230.004551 443.370795,229.491561 442.976381,228.464341 C442.581967,227.437122 443.094957,226.28466 444.122176,225.890246 C451.550952,223.037873 455.384854,220.545392 460.258165,215.745329 C461.04209,214.973187 462.303532,214.982738 463.075674,215.766663 Z" id="Shape" fill="#E7E9EB" fill-rule="nonzero" opacity="0.847632999"></path>
                        </g>
                        <g id="doc" transform="translate(213.180077, 51.800766) scale(-1, 1) rotate(7.000000) translate(-213.180077, -51.800766) translate(167.356322, 5.977011)">
                            <g id="Rectangle-Copy-11" transform="translate(45.406466, 46.272251) rotate(32.000000) translate(-45.406466, -46.272251) ">
                                <use fill="black" fill-opacity="1" filter="url(#filter-2)" xlink:href="#path-1"></use>
                                <use fill="#D5D6DA" fill-rule="evenodd" xlink:href="#path-1"></use>
                            </g>
                            <g id="Rectangle-Copy-12" transform="translate(57.827574, 29.701985) scale(-1, -1) rotate(27.000000) translate(-57.827574, -29.701985) ">
                                <use fill="black" fill-opacity="1" filter="url(#filter-4)" xlink:href="#path-3"></use>
                                <use fill="#B0B2B6" fill-rule="evenodd" xlink:href="#path-3"></use>
                            </g>
                        </g>
                        <g id="Excel" transform="translate(262.988506, 71.552005) rotate(14.000000) translate(-262.988506, -71.552005) translate(229.118774, 25.900383)">
                            <g id="Rectangle">
                                <use fill="black" fill-opacity="1" filter="url(#filter-6)" xlink:href="#path-5"></use>
                                <use fill="#D5D6DA" fill-rule="evenodd" xlink:href="#path-5"></use>
                            </g>
                            <mask id="mask-8" fill="white">
                                <use xlink:href="#path-7"></use>
                            </mask>
                            <g id="Rectangle">
                                <use fill="black" fill-opacity="1" filter="url(#filter-9)" xlink:href="#path-7"></use>
                                <use fill="#D5D6DA" fill-rule="evenodd" xlink:href="#path-7"></use>
                            </g>
                            <g id="List" mask="url(#mask-8)">
                                <g transform="translate(0.884076, 4.601891)">
                                    <path d="M36.2395175,5.2119132 L44.9714082,5.2119132 C45.4536572,5.2119132 45.8445972,5.60082204 45.8445972,6.08056541 L45.8445972,9.55517421 C45.8445972,10.0349176 45.4536572,10.4238264 44.9714082,10.4238264 L36.2395175,10.4238264 C35.7572685,10.4238264 35.3663284,10.0349176 35.3663284,9.55517421 L35.3663284,6.08056541 C35.3663284,5.60082204 35.7572685,5.2119132 36.2395175,5.2119132 Z" id="Rectangle" fill-opacity="0.786276224" fill="#9EA0A5"></path>
                                    <path d="M8.29746744,5.2119132 L17.0293581,5.2119132 C17.5116071,5.2119132 17.9025471,5.60082204 17.9025471,6.08056541 L17.9025471,9.55517421 C17.9025471,10.0349176 17.5116071,10.4238264 17.0293581,10.4238264 L8.29746744,10.4238264 C7.81521844,10.4238264 7.42427837,10.0349176 7.42427837,9.55517421 L7.42427837,6.08056541 C7.42427837,5.60082204 7.81521844,5.2119132 8.29746744,5.2119132 Z" id="Rectangle-Copy-8" fill-opacity="0.786276224" fill="#9EA0A5"></path>
                                    <path d="M50.2105425,5.2119132 L58.9424332,5.2119132 C59.4246822,5.2119132 59.8156222,5.60082204 59.8156222,6.08056541 L59.8156222,9.55517421 C59.8156222,10.0349176 59.4246822,10.4238264 58.9424332,10.4238264 L50.2105425,10.4238264 C49.7282935,10.4238264 49.3373535,10.0349176 49.3373535,9.55517421 L49.3373535,6.08056541 C49.3373535,5.60082204 49.7282935,5.2119132 50.2105425,5.2119132 Z" id="Rectangle-Copy-7" fill-opacity="0.786276224" fill="#9EA0A5"></path>
                                    <path d="M22.2684925,5.2119132 L31.0003831,5.2119132 C31.4826321,5.2119132 31.8735722,5.60082204 31.8735722,6.08056541 L31.8735722,9.55517421 C31.8735722,10.0349176 31.4826321,10.4238264 31.0003831,10.4238264 L22.2684925,10.4238264 C21.7862435,10.4238264 21.3953034,10.0349176 21.3953034,9.55517421 L21.3953034,6.08056541 C21.3953034,5.60082204 21.7862435,5.2119132 22.2684925,5.2119132 Z" id="Rectangle-Copy-9" fill-opacity="0.786276224" fill="#9EA0A5"></path>
                                    <path d="M36.2395175,13.8984352 L44.9714082,13.8984352 C45.4536572,13.8984352 45.8445972,14.287344 45.8445972,14.7670874 L45.8445972,18.2416962 C45.8445972,18.7214396 45.4536572,19.1103484 44.9714082,19.1103484 L36.2395175,19.1103484 C35.7572685,19.1103484 35.3663284,18.7214396 35.3663284,18.2416962 L35.3663284,14.7670874 C35.3663284,14.287344 35.7572685,13.8984352 36.2395175,13.8984352 Z" id="Rectangle" fill-opacity="0.786276224" fill="#9EA0A5"></path>
                                    <path d="M8.29746744,13.8984352 L17.0293581,13.8984352 C17.5116071,13.8984352 17.9025471,14.287344 17.9025471,14.7670874 L17.9025471,18.2416962 C17.9025471,18.7214396 17.5116071,19.1103484 17.0293581,19.1103484 L8.29746744,19.1103484 C7.81521844,19.1103484 7.42427837,18.7214396 7.42427837,18.2416962 L7.42427837,14.7670874 C7.42427837,14.287344 7.81521844,13.8984352 8.29746744,13.8984352 Z" id="Rectangle-Copy-8" fill-opacity="0.786276224" fill="#9EA0A5"></path>
                                    <path d="M50.2105425,13.8984352 L58.9424332,13.8984352 C59.4246822,13.8984352 59.8156222,14.287344 59.8156222,14.7670874 L59.8156222,18.2416962 C59.8156222,18.7214396 59.4246822,19.1103484 58.9424332,19.1103484 L50.2105425,19.1103484 C49.7282935,19.1103484 49.3373535,18.7214396 49.3373535,18.2416962 L49.3373535,14.7670874 C49.3373535,14.287344 49.7282935,13.8984352 50.2105425,13.8984352 Z" id="Rectangle-Copy-7" fill-opacity="0.786276224" fill="#9EA0A5"></path>
                                    <path d="M22.2684925,13.8984352 L31.0003831,13.8984352 C31.4826321,13.8984352 31.8735722,14.287344 31.8735722,14.7670874 L31.8735722,18.2416962 C31.8735722,18.7214396 31.4826321,19.1103484 31.0003831,19.1103484 L22.2684925,19.1103484 C21.7862435,19.1103484 21.3953034,18.7214396 21.3953034,18.2416962 L21.3953034,14.7670874 C21.3953034,14.287344 21.7862435,13.8984352 22.2684925,13.8984352 Z" id="Rectangle-Copy-9" fill-opacity="0.786276224" fill="#9EA0A5"></path>
                                    <path d="M36.2395175,22.5849572 L44.9714082,22.5849572 C45.4536572,22.5849572 45.8445972,22.9738661 45.8445972,23.4536094 L45.8445972,26.9282182 C45.8445972,27.4079616 45.4536572,27.7968704 44.9714082,27.7968704 L36.2395175,27.7968704 C35.7572685,27.7968704 35.3663284,27.4079616 35.3663284,26.9282182 L35.3663284,23.4536094 C35.3663284,22.9738661 35.7572685,22.5849572 36.2395175,22.5849572 Z" id="Rectangle" fill-opacity="0.786276224" fill="#9EA0A5"></path>
                                    <path d="M8.29746744,22.5849572 L17.0293581,22.5849572 C17.5116071,22.5849572 17.9025471,22.9738661 17.9025471,23.4536094 L17.9025471,26.9282182 C17.9025471,27.4079616 17.5116071,27.7968704 17.0293581,27.7968704 L8.29746744,27.7968704 C7.81521844,27.7968704 7.42427837,27.4079616 7.42427837,26.9282182 L7.42427837,23.4536094 C7.42427837,22.9738661 7.81521844,22.5849572 8.29746744,22.5849572 Z" id="Rectangle-Copy-8" fill-opacity="0.786276224" fill="#9EA0A5"></path>
                                    <path d="M50.2105425,22.5849572 L58.9424332,22.5849572 C59.4246822,22.5849572 59.8156222,22.9738661 59.8156222,23.4536094 L59.8156222,26.9282182 C59.8156222,27.4079616 59.4246822,27.7968704 58.9424332,27.7968704 L50.2105425,27.7968704 C49.7282935,27.7968704 49.3373535,27.4079616 49.3373535,26.9282182 L49.3373535,23.4536094 C49.3373535,22.9738661 49.7282935,22.5849572 50.2105425,22.5849572 Z" id="Rectangle-Copy-7" fill-opacity="0.786276224" fill="#9EA0A5"></path>
                                    <path d="M22.2684925,22.5849572 L31.0003831,22.5849572 C31.4826321,22.5849572 31.8735722,22.9738661 31.8735722,23.4536094 L31.8735722,26.9282182 C31.8735722,27.4079616 31.4826321,27.7968704 31.0003831,27.7968704 L22.2684925,27.7968704 C21.7862435,27.7968704 21.3953034,27.4079616 21.3953034,26.9282182 L21.3953034,23.4536094 C21.3953034,22.9738661 21.7862435,22.5849572 22.2684925,22.5849572 Z" id="Rectangle-Copy-9" fill-opacity="0.786276224" fill="#9EA0A5"></path>
                                    <path d="M36.2395175,31.2714792 L44.9714082,31.2714792 C45.4536572,31.2714792 45.8445972,31.6603881 45.8445972,32.1401314 L45.8445972,35.6147402 C45.8445972,36.0944836 45.4536572,36.4833924 44.9714082,36.4833924 L36.2395175,36.4833924 C35.7572685,36.4833924 35.3663284,36.0944836 35.3663284,35.6147402 L35.3663284,32.1401314 C35.3663284,31.6603881 35.7572685,31.2714792 36.2395175,31.2714792 Z" id="Rectangle" fill-opacity="0.786276224" fill="#9EA0A5"></path>
                                    <path d="M8.29746744,31.2714792 L17.0293581,31.2714792 C17.5116071,31.2714792 17.9025471,31.6603881 17.9025471,32.1401314 L17.9025471,35.6147402 C17.9025471,36.0944836 17.5116071,36.4833924 17.0293581,36.4833924 L8.29746744,36.4833924 C7.81521844,36.4833924 7.42427837,36.0944836 7.42427837,35.6147402 L7.42427837,32.1401314 C7.42427837,31.6603881 7.81521844,31.2714792 8.29746744,31.2714792 Z" id="Rectangle-Copy-8" fill-opacity="0.786276224" fill="#9EA0A5"></path>
                                    <path d="M50.2105425,31.2714792 L58.9424332,31.2714792 C59.4246822,31.2714792 59.8156222,31.6603881 59.8156222,32.1401314 L59.8156222,35.6147402 C59.8156222,36.0944836 59.4246822,36.4833924 58.9424332,36.4833924 L50.2105425,36.4833924 C49.7282935,36.4833924 49.3373535,36.0944836 49.3373535,35.6147402 L49.3373535,32.1401314 C49.3373535,31.6603881 49.7282935,31.2714792 50.2105425,31.2714792 Z" id="Rectangle-Copy-7" fill-opacity="0.786276224" fill="#9EA0A5"></path>
                                    <path d="M22.2684925,31.2714792 L31.0003831,31.2714792 C31.4826321,31.2714792 31.8735722,31.6603881 31.8735722,32.1401314 L31.8735722,35.6147402 C31.8735722,36.0944836 31.4826321,36.4833924 31.0003831,36.4833924 L22.2684925,36.4833924 C21.7862435,36.4833924 21.3953034,36.0944836 21.3953034,35.6147402 L21.3953034,32.1401314 C21.3953034,31.6603881 21.7862435,31.2714792 22.2684925,31.2714792 Z" id="Rectangle-Copy-9" fill-opacity="0.786276224" fill="#9EA0A5"></path>
                                    <path d="M36.2395175,39.9580012 L44.9714082,39.9580012 C45.4536572,39.9580012 45.8445972,40.3469101 45.8445972,40.8266534 L45.8445972,44.3012622 C45.8445972,44.7810056 45.4536572,45.1699144 44.9714082,45.1699144 L36.2395175,45.1699144 C35.7572685,45.1699144 35.3663284,44.7810056 35.3663284,44.3012622 L35.3663284,40.8266534 C35.3663284,40.3469101 35.7572685,39.9580012 36.2395175,39.9580012 Z" id="Rectangle" fill-opacity="0.786276224" fill="#9EA0A5"></path>
                                    <path d="M8.29746744,39.9580012 L17.0293581,39.9580012 C17.5116071,39.9580012 17.9025471,40.3469101 17.9025471,40.8266534 L17.9025471,44.3012622 C17.9025471,44.7810056 17.5116071,45.1699144 17.0293581,45.1699144 L8.29746744,45.1699144 C7.81521844,45.1699144 7.42427837,44.7810056 7.42427837,44.3012622 L7.42427837,40.8266534 C7.42427837,40.3469101 7.81521844,39.9580012 8.29746744,39.9580012 Z" id="Rectangle-Copy-8" fill-opacity="0.786276224" fill="#9EA0A5"></path>
                                    <path d="M50.2105425,39.9580012 L58.9424332,39.9580012 C59.4246822,39.9580012 59.8156222,40.3469101 59.8156222,40.8266534 L59.8156222,44.3012622 C59.8156222,44.7810056 59.4246822,45.1699144 58.9424332,45.1699144 L50.2105425,45.1699144 C49.7282935,45.1699144 49.3373535,44.7810056 49.3373535,44.3012622 L49.3373535,40.8266534 C49.3373535,40.3469101 49.7282935,39.9580012 50.2105425,39.9580012 Z" id="Rectangle-Copy-7" fill-opacity="0.786276224" fill="#9EA0A5"></path>
                                    <path d="M22.2684925,39.9580012 L31.0003831,39.9580012 C31.4826321,39.9580012 31.8735722,40.3469101 31.8735722,40.8266534 L31.8735722,44.3012622 C31.8735722,44.7810056 31.4826321,45.1699144 31.0003831,45.1699144 L22.2684925,45.1699144 C21.7862435,45.1699144 21.3953034,44.7810056 21.3953034,44.3012622 L21.3953034,40.8266534 C21.3953034,40.3469101 21.7862435,39.9580012 22.2684925,39.9580012 Z" id="Rectangle-Copy-9" fill-opacity="0.786276224" fill="#9EA0A5"></path>
                                    <path d="M36.2395175,48.6445232 L44.9714082,48.6445232 C45.4536572,48.6445232 45.8445972,49.0334321 45.8445972,49.5131754 L45.8445972,52.9877842 C45.8445972,53.4675276 45.4536572,53.8564364 44.9714082,53.8564364 L36.2395175,53.8564364 C35.7572685,53.8564364 35.3663284,53.4675276 35.3663284,52.9877842 L35.3663284,49.5131754 C35.3663284,49.0334321 35.7572685,48.6445232 36.2395175,48.6445232 Z" id="Rectangle" fill-opacity="0.786276224" fill="#9EA0A5"></path>
                                    <path d="M8.29746744,48.6445232 L17.0293581,48.6445232 C17.5116071,48.6445232 17.9025471,49.0334321 17.9025471,49.5131754 L17.9025471,52.9877842 C17.9025471,53.4675276 17.5116071,53.8564364 17.0293581,53.8564364 L8.29746744,53.8564364 C7.81521844,53.8564364 7.42427837,53.4675276 7.42427837,52.9877842 L7.42427837,49.5131754 C7.42427837,49.0334321 7.81521844,48.6445232 8.29746744,48.6445232 Z" id="Rectangle-Copy-8" fill-opacity="0.786276224" fill="#9EA0A5"></path>
                                    <path d="M50.2105425,48.6445232 L58.9424332,48.6445232 C59.4246822,48.6445232 59.8156222,49.0334321 59.8156222,49.5131754 L59.8156222,52.9877842 C59.8156222,53.4675276 59.4246822,53.8564364 58.9424332,53.8564364 L50.2105425,53.8564364 C49.7282935,53.8564364 49.3373535,53.4675276 49.3373535,52.9877842 L49.3373535,49.5131754 C49.3373535,49.0334321 49.7282935,48.6445232 50.2105425,48.6445232 Z" id="Rectangle-Copy-7" fill-opacity="0.786276224" fill="#9EA0A5"></path>
                                    <path d="M22.2684925,48.6445232 L31.0003831,48.6445232 C31.4826321,48.6445232 31.8735722,49.0334321 31.8735722,49.5131754 L31.8735722,52.9877842 C31.8735722,53.4675276 31.4826321,53.8564364 31.0003831,53.8564364 L22.2684925,53.8564364 C21.7862435,53.8564364 21.3953034,53.4675276 21.3953034,52.9877842 L21.3953034,49.5131754 C21.3953034,49.0334321 21.7862435,48.6445232 22.2684925,48.6445232 Z" id="Rectangle-Copy-9" fill-opacity="0.786276224" fill="#9EA0A5"></path>
                                    <path d="M36.2395175,57.3310452 L44.9714082,57.3310452 C45.4536572,57.3310452 45.8445972,57.7199541 45.8445972,58.1996974 L45.8445972,61.6743063 C45.8445972,62.1540496 45.4536572,62.5429585 44.9714082,62.5429585 L36.2395175,62.5429585 C35.7572685,62.5429585 35.3663284,62.1540496 35.3663284,61.6743063 L35.3663284,58.1996974 C35.3663284,57.7199541 35.7572685,57.3310452 36.2395175,57.3310452 Z" id="Rectangle" fill-opacity="0.786276224" fill="#9EA0A5"></path>
                                    <path d="M8.29746744,57.3310452 L17.0293581,57.3310452 C17.5116071,57.3310452 17.9025471,57.7199541 17.9025471,58.1996974 L17.9025471,61.6743063 C17.9025471,62.1540496 17.5116071,62.5429585 17.0293581,62.5429585 L8.29746744,62.5429585 C7.81521844,62.5429585 7.42427837,62.1540496 7.42427837,61.6743063 L7.42427837,58.1996974 C7.42427837,57.7199541 7.81521844,57.3310452 8.29746744,57.3310452 Z" id="Rectangle-Copy-8" fill-opacity="0.786276224" fill="#9EA0A5"></path>
                                    <path d="M50.2105425,57.3310452 L58.9424332,57.3310452 C59.4246822,57.3310452 59.8156222,57.7199541 59.8156222,58.1996974 L59.8156222,61.6743063 C59.8156222,62.1540496 59.4246822,62.5429585 58.9424332,62.5429585 L50.2105425,62.5429585 C49.7282935,62.5429585 49.3373535,62.1540496 49.3373535,61.6743063 L49.3373535,58.1996974 C49.3373535,57.7199541 49.7282935,57.3310452 50.2105425,57.3310452 Z" id="Rectangle-Copy-7" fill-opacity="0.786276224" fill="#9EA0A5"></path>
                                    <path d="M22.2684925,57.3310452 L31.0003831,57.3310452 C31.4826321,57.3310452 31.8735722,57.7199541 31.8735722,58.1996974 L31.8735722,61.6743063 C31.8735722,62.1540496 31.4826321,62.5429585 31.0003831,62.5429585 L22.2684925,62.5429585 C21.7862435,62.5429585 21.3953034,62.1540496 21.3953034,61.6743063 L21.3953034,58.1996974 C21.3953034,57.7199541 21.7862435,57.3310452 22.2684925,57.3310452 Z" id="Rectangle-Copy-9" fill-opacity="0.786276224" fill="#9EA0A5"></path>
                                    <path d="M36.2395175,66.0175673 L44.9714082,66.0175673 C45.4536572,66.0175673 45.8445972,66.4064761 45.8445972,66.8862195 L45.8445972,70.3608283 C45.8445972,70.8405716 45.4536572,71.2294805 44.9714082,71.2294805 L36.2395175,71.2294805 C35.7572685,71.2294805 35.3663284,70.8405716 35.3663284,70.3608283 L35.3663284,66.8862195 C35.3663284,66.4064761 35.7572685,66.0175673 36.2395175,66.0175673 Z" id="Rectangle" fill-opacity="0.786276224" fill="#9EA0A5"></path>
                                    <path d="M8.29746744,66.0175673 L17.0293581,66.0175673 C17.5116071,66.0175673 17.9025471,66.4064761 17.9025471,66.8862195 L17.9025471,70.3608283 C17.9025471,70.8405716 17.5116071,71.2294805 17.0293581,71.2294805 L8.29746744,71.2294805 C7.81521844,71.2294805 7.42427837,70.8405716 7.42427837,70.3608283 L7.42427837,66.8862195 C7.42427837,66.4064761 7.81521844,66.0175673 8.29746744,66.0175673 Z" id="Rectangle-Copy-8" fill-opacity="0.786276224" fill="#9EA0A5"></path>
                                    <path d="M50.2105425,66.0175673 L58.9424332,66.0175673 C59.4246822,66.0175673 59.8156222,66.4064761 59.8156222,66.8862195 L59.8156222,70.3608283 C59.8156222,70.8405716 59.4246822,71.2294805 58.9424332,71.2294805 L50.2105425,71.2294805 C49.7282935,71.2294805 49.3373535,70.8405716 49.3373535,70.3608283 L49.3373535,66.8862195 C49.3373535,66.4064761 49.7282935,66.0175673 50.2105425,66.0175673 Z" id="Rectangle-Copy-7" fill-opacity="0.786276224" fill="#9EA0A5"></path>
                                    <path d="M22.2684925,66.0175673 L31.0003831,66.0175673 C31.4826321,66.0175673 31.8735722,66.4064761 31.8735722,66.8862195 L31.8735722,70.3608283 C31.8735722,70.8405716 31.4826321,71.2294805 31.0003831,71.2294805 L22.2684925,71.2294805 C21.7862435,71.2294805 21.3953034,70.8405716 21.3953034,70.3608283 L21.3953034,66.8862195 C21.3953034,66.4064761 21.7862435,66.0175673 22.2684925,66.0175673 Z" id="Rectangle-Copy-9" fill-opacity="0.786276224" fill="#9EA0A5"></path>
                                    <path d="M36.2395175,74.7040893 L44.9714082,74.7040893 C45.4536572,74.7040893 45.8445972,75.0929981 45.8445972,75.5727415 L45.8445972,79.0473503 C45.8445972,79.5270936 45.4536572,79.9160025 44.9714082,79.9160025 L36.2395175,79.9160025 C35.7572685,79.9160025 35.3663284,79.5270936 35.3663284,79.0473503 L35.3663284,75.5727415 C35.3663284,75.0929981 35.7572685,74.7040893 36.2395175,74.7040893 Z" id="Rectangle" fill-opacity="0.786276224" fill="#9EA0A5"></path>
                                    <path d="M8.29746744,74.7040893 L17.0293581,74.7040893 C17.5116071,74.7040893 17.9025471,75.0929981 17.9025471,75.5727415 L17.9025471,79.0473503 C17.9025471,79.5270936 17.5116071,79.9160025 17.0293581,79.9160025 L8.29746744,79.9160025 C7.81521844,79.9160025 7.42427837,79.5270936 7.42427837,79.0473503 L7.42427837,75.5727415 C7.42427837,75.0929981 7.81521844,74.7040893 8.29746744,74.7040893 Z" id="Rectangle-Copy-8" fill-opacity="0.786276224" fill="#9EA0A5"></path>
                                    <path d="M50.2105425,74.7040893 L58.9424332,74.7040893 C59.4246822,74.7040893 59.8156222,75.0929981 59.8156222,75.5727415 L59.8156222,79.0473503 C59.8156222,79.5270936 59.4246822,79.9160025 58.9424332,79.9160025 L50.2105425,79.9160025 C49.7282935,79.9160025 49.3373535,79.5270936 49.3373535,79.0473503 L49.3373535,75.5727415 C49.3373535,75.0929981 49.7282935,74.7040893 50.2105425,74.7040893 Z" id="Rectangle-Copy-7" fill-opacity="0.786276224" fill="#9EA0A5"></path>
                                    <path d="M22.2684925,74.7040893 L31.0003831,74.7040893 C31.4826321,74.7040893 31.8735722,75.0929981 31.8735722,75.5727415 L31.8735722,79.0473503 C31.8735722,79.5270936 31.4826321,79.9160025 31.0003831,79.9160025 L22.2684925,79.9160025 C21.7862435,79.9160025 21.3953034,79.5270936 21.3953034,79.0473503 L21.3953034,75.5727415 C21.3953034,75.0929981 21.7862435,74.7040893 22.2684925,74.7040893 Z" id="Rectangle-Copy-9" fill-opacity="0.786276224" fill="#9EA0A5"></path>
                                    <polygon id="Rectangle" fill="url(#linearGradient-10)" points="1.07381245 -2.05700763e-13 64.41971 -2.05700763e-13 64.41971 84.622518 1.07381245 84.622518"></polygon>
                                </g>
                            </g>
                            <polygon id="X" fill="#9EA0A5" fill-rule="nonzero" mask="url(#mask-8)" points="15.438052 82.4204814 21.3751015 74.5587739 27.3121511 82.4204814 33.4936673 82.4204814 24.8674836 71.9429435 32.8825005 61.6360033 27.0502224 61.6360033 21.6544921 69.1138661 16.1539903 61.6360033 10.182017 61.6360033 18.1097243 71.7012635 9.64069776 82.4204814"></polygon>
                        </g>
                        <g id="Page" transform="translate(246.053640, 169.348659) scale(-1, 1) rotate(-21.000000) translate(-246.053640, -169.348659) ">
                            <use fill="black" fill-opacity="1" filter="url(#filter-12)" xlink:href="#path-11"></use>
                            <use fill="#CCCED3" fill-rule="evenodd" xlink:href="#path-11"></use>
                        </g>
                        <g id="Doughnut" transform="translate(61.762452, 129.501916)">
                            <g id="base">
                                <g id="Path">
                                    <use fill="black" fill-opacity="1" filter="url(#filter-14)" xlink:href="#path-13"></use>
                                    <use fill="#D5D6DA" fill-rule="evenodd" xlink:href="#path-13"></use>
                                </g>
                                <g id="Path">
                                    <use fill="black" fill-opacity="1" filter="url(#filter-16)" xlink:href="#path-15"></use>
                                    <use fill="#D5D6DA" fill-rule="evenodd" xlink:href="#path-15"></use>
                                </g>
                                <path d="M8.83559615,-1.24972536e-14 L118.396988,-1.24972536e-14 C123.276753,-1.24972536e-14 127.232585,3.93727974 127.232585,8.79416044 L127.232585,20.886131 L0,20.886131 L0,8.79416044 C0,3.93727974 3.95583114,-1.24972536e-14 8.83559615,-1.24972536e-14 Z" id="Path-Copy" fill="#9EA0A5"></path>
                            </g>
                            <g transform="translate(59.253717, 32.555637)">
                                <path d="M52.8768407,21.3381099 C51.8611666,22.9182433 51.3325698,23.70831 51.2910504,23.70831 C49.2006668,23.70831 46.2335617,23.1205286 42.3897351,21.9449656 C41.6658431,16.1636887 37.4291906,11.4687591 31.8738825,10.0451497 C30.6937649,6.01556542 30.1037061,3.0117457 30.1037061,1.03369049 C30.1037061,0.978188645 30.9190748,0.633625148 32.5498122,1.31564225e-13 C42.3897351,0.950437722 51.8500702,10.4825825 52.8768407,21.3381099 Z" id="Path" fill-opacity="0.82" fill="#67696F" opacity="0.485212054"></path>
                                <path d="M51.2910504,23.708161 L40.6189344,23.7083959 C39.8950424,17.9271191 35.6583898,13.2321895 30.1030818,11.80858 L30.1034383,1.03369049 C41.5449308,2.66332212 50.4663718,12.0726455 51.2910504,23.708161 Z" id="Path" fill="#9EA0A5"></path>
                                <path d="M26.5309309,1.03369049 L26.5309309,11.8145897 C26.3454167,11.8145897 24.7913186,13.3777029 24.7913186,13.3777029 C18.4471742,13.7625922 11.9884639,19.3356497 11.9884639,26.241036 C11.9884639,34.0323615 17.7137359,40.4676266 27.4475197,40.4676266 C35.5799739,40.4676266 37.2822569,35.3406899 38.9577244,29.248576 C38.9577244,29.248576 41.0774109,27.8853186 41.504113,27.4868298 C41.504113,27.4868298 44.9527654,27.4862684 51.8500702,27.4851456 C50.9413543,40.2962294 40.5434042,50.4097401 27.4475197,50.4097401 C13.7557123,50.4097401 2.65630945,39.3565349 2.65630945,25.7217153 C2.65630945,25.5012815 -0.0051864308,25.6902547 -1.02860269e-12,25.4717404 C0.322319861,12.1741636 13.0604787,1.03369049 26.5309309,1.03369049 Z" id="Path" fill-opacity="0.7" fill="#9EA0A5" opacity="0.485212054"></path>
                                <path d="M24.813933,11.7987377 L24.7601302,2.79712083 C25.7479532,2.75953084 26.7470272,1.03369049 27.7584046,1.03369049 L27.8122074,11.7987377 C27.4980995,11.7987377 24.8667404,13.361851 24.8667404,13.361851" id="Shape" fill-opacity="0.7" fill="#9EA0A5" opacity="0.653180804"></path>
                                <path d="M51.8480035,27.4851456 C50.9392876,40.2962294 40.5413374,50.4097401 27.4454529,50.4097401 C27.1497708,50.4097401 26.8552977,50.4045852 26.5621193,50.3943608 C39.0430857,49.9556647 48.3726507,41.4963219 49.520152,29.248576 L50.5459637,28.5279848 L51.8480035,27.4851456 Z" id="Path" fill-opacity="0.7" fill="#9EA0A5" opacity="0.653180804"></path>
                                <path d="M24.7913186,2.79712083 L24.7913186,13.3777029 C16.9674287,13.3777029 10.6249127,19.6938201 10.6249127,27.4851456 C10.6249127,35.2764711 16.9674287,41.5925883 24.7913186,41.5925883 C32.0149257,41.5925883 37.9757534,36.2084903 38.8479119,29.2502602 L49.520152,29.2501032 C48.6114361,42.061187 37.8872031,52.1731704 24.7913186,52.1731704 C11.0995112,52.1731704 0.000108355781,41.1199652 0.000108355781,27.4851456 C0.000108355781,13.850326 11.0995112,2.79712083 24.7913186,2.79712083 Z" id="Path" fill="#7B7D82"></path>
                            </g>
                            <path d="M13.9961365,45.7813646 L45.2575802,45.7813646 C46.216759,45.7813646 46.994327,46.6923431 46.994327,47.816092 C46.994327,48.9398408 46.216759,49.8508193 45.2575802,49.8508193 L13.9961365,49.8508193 C13.0369577,49.8508193 12.2593897,48.9398408 12.2593897,47.816092 C12.2593897,46.6923431 13.0369577,45.7813646 13.9961365,45.7813646 Z" id="Rectangle" fill="#9EA0A5" opacity="0.647623698"></path>
                            <path d="M13.9961365,36.6250917 L45.2575802,36.6250917 C46.216759,36.6250917 46.994327,37.5360702 46.994327,38.659819 C46.994327,39.7835679 46.216759,40.6945463 45.2575802,40.6945463 L13.9961365,40.6945463 C13.0369577,40.6945463 12.2593897,39.7835679 12.2593897,38.659819 C12.2593897,37.5360702 13.0369577,36.6250917 13.9961365,36.6250917 Z" id="Rectangle-Copy-3" fill="#9EA0A5" opacity="0.647623698"></path>
                            <path d="M14.1168729,54.9376376 L30.8342225,54.9376376 C31.8600822,54.9376376 32.6917058,55.848616 32.6917058,56.9723649 C32.6917058,58.0961137 31.8600822,59.0070922 30.8342225,59.0070922 L14.1168729,59.0070922 C13.0910133,59.0070922 12.2593897,58.0961137 12.2593897,56.9723649 C12.2593897,55.848616 13.0910133,54.9376376 14.1168729,54.9376376 Z" id="Rectangle-Copy-2" fill="#9EA0A5" opacity="0.647623698"></path>
                        </g>
                        <g id="DOC-Copy-2" transform="translate(451.841765, 126.068313) rotate(30.000000) translate(-451.841765, -126.068313) translate(414.406130, 75.708812)">
                            <g id="Rectangle">
                                <use fill="black" fill-opacity="1" filter="url(#filter-18)" xlink:href="#path-17"></use>
                                <use fill="#D5D6DA" fill-rule="evenodd" xlink:href="#path-17"></use>
                            </g>
                            <g id="Rectangle">
                                <use fill="black" fill-opacity="1" filter="url(#filter-20)" xlink:href="#path-19"></use>
                                <use fill="#D5D6DA" fill-rule="evenodd" xlink:href="#path-19"></use>
                            </g>
                            <g id="Triangle" transform="translate(12.550447, 10.739009) rotate(139.000000) translate(-12.550447, -10.739009) ">
                                <use fill="black" fill-opacity="1" filter="url(#filter-22)" xlink:href="#path-21"></use>
                                <use fill="#9EA0A5" fill-rule="evenodd" xlink:href="#path-21"></use>
                            </g>
                            <ellipse id="Oval" fill="#9EA0A5" opacity="0.683221726" cx="21.6935972" cy="27.3227518" rx="6.12969483" ry="6.10418195"></ellipse>
                            <polygon id="Path" fill="#9EA0A5" opacity="0.683221726" points="10.081886 64.5732543 28.9595693 42.1912538 38.7751988 53.8298941 45.6163488 45.3886825 61.1626762 64.5732543"></polygon>
                        </g>
                        <g id="Excel" transform="translate(397.071528, 110.383957) rotate(-17.000000) translate(-397.071528, -110.383957) translate(350.651341, 47.816092)">
                            <g id="Rectangle">
                                <use fill="black" fill-opacity="1" filter="url(#filter-24)" xlink:href="#path-23"></use>
                                <use fill="#D5D6DA" fill-rule="evenodd" xlink:href="#path-23"></use>
                            </g>
                            <mask id="mask-26" fill="white">
                                <use xlink:href="#path-25"></use>
                            </mask>
                            <g id="Rectangle">
                                <use fill="black" fill-opacity="1" filter="url(#filter-27)" xlink:href="#path-25"></use>
                                <use fill="#D5D6DA" fill-rule="evenodd" xlink:href="#path-25"></use>
                            </g>
                            <g id="List" mask="url(#mask-26)">
                                <g transform="translate(1.211671, 6.307125)">
                                    <path d="M49.6680986,7.14319165 L61.635598,7.14319165 C62.2965447,7.14319165 62.8323479,7.67621095 62.8323479,8.33372359 L62.8323479,13.0958514 C62.8323479,13.753364 62.2965447,14.2863833 61.635598,14.2863833 L49.6680986,14.2863833 C49.0071518,14.2863833 48.4713486,13.753364 48.4713486,13.0958514 L48.4713486,8.33372359 C48.4713486,7.67621095 49.0071518,7.14319165 49.6680986,7.14319165 Z" id="Rectangle" fill-opacity="0.786276224" fill="#9EA0A5"></path>
                                    <path d="M11.3721004,7.14319165 L23.3395998,7.14319165 C24.0005465,7.14319165 24.5363497,7.67621095 24.5363497,8.33372359 L24.5363497,13.0958514 C24.5363497,13.753364 24.0005465,14.2863833 23.3395998,14.2863833 L11.3721004,14.2863833 C10.7111536,14.2863833 10.1753504,13.753364 10.1753504,13.0958514 L10.1753504,8.33372359 C10.1753504,7.67621095 10.7111536,7.14319165 11.3721004,7.14319165 Z" id="Rectangle-Copy-8" fill-opacity="0.786276224" fill="#9EA0A5"></path>
                                    <path d="M68.8160976,7.14319165 L80.7835971,7.14319165 C81.4445438,7.14319165 81.980347,7.67621095 81.980347,8.33372359 L81.980347,13.0958514 C81.980347,13.753364 81.4445438,14.2863833 80.7835971,14.2863833 L68.8160976,14.2863833 C68.1551509,14.2863833 67.6193477,13.753364 67.6193477,13.0958514 L67.6193477,8.33372359 C67.6193477,7.67621095 68.1551509,7.14319165 68.8160976,7.14319165 Z" id="Rectangle-Copy-7" fill-opacity="0.786276224" fill="#9EA0A5"></path>
                                    <path d="M30.5200995,7.14319165 L42.4875989,7.14319165 C43.1485456,7.14319165 43.6843488,7.67621095 43.6843488,8.33372359 L43.6843488,13.0958514 C43.6843488,13.753364 43.1485456,14.2863833 42.4875989,14.2863833 L30.5200995,14.2863833 C29.8591527,14.2863833 29.3233495,13.753364 29.3233495,13.0958514 L29.3233495,8.33372359 C29.3233495,7.67621095 29.8591527,7.14319165 30.5200995,7.14319165 Z" id="Rectangle-Copy-9" fill-opacity="0.786276224" fill="#9EA0A5"></path>
                                    <path d="M49.6680986,19.0485111 L61.635598,19.0485111 C62.2965447,19.0485111 62.8323479,19.5815304 62.8323479,20.239043 L62.8323479,25.0011708 C62.8323479,25.6586834 62.2965447,26.1917027 61.635598,26.1917027 L49.6680986,26.1917027 C49.0071518,26.1917027 48.4713486,25.6586834 48.4713486,25.0011708 L48.4713486,20.239043 C48.4713486,19.5815304 49.0071518,19.0485111 49.6680986,19.0485111 Z" id="Rectangle" fill-opacity="0.786276224" fill="#9EA0A5"></path>
                                    <path d="M11.3721004,19.0485111 L23.3395998,19.0485111 C24.0005465,19.0485111 24.5363497,19.5815304 24.5363497,20.239043 L24.5363497,25.0011708 C24.5363497,25.6586834 24.0005465,26.1917027 23.3395998,26.1917027 L11.3721004,26.1917027 C10.7111536,26.1917027 10.1753504,25.6586834 10.1753504,25.0011708 L10.1753504,20.239043 C10.1753504,19.5815304 10.7111536,19.0485111 11.3721004,19.0485111 Z" id="Rectangle-Copy-8" fill-opacity="0.786276224" fill="#9EA0A5"></path>
                                    <path d="M68.8160976,19.0485111 L80.7835971,19.0485111 C81.4445438,19.0485111 81.980347,19.5815304 81.980347,20.239043 L81.980347,25.0011708 C81.980347,25.6586834 81.4445438,26.1917027 80.7835971,26.1917027 L68.8160976,26.1917027 C68.1551509,26.1917027 67.6193477,25.6586834 67.6193477,25.0011708 L67.6193477,20.239043 C67.6193477,19.5815304 68.1551509,19.0485111 68.8160976,19.0485111 Z" id="Rectangle-Copy-7" fill-opacity="0.786276224" fill="#9EA0A5"></path>
                                    <path d="M30.5200995,19.0485111 L42.4875989,19.0485111 C43.1485456,19.0485111 43.6843488,19.5815304 43.6843488,20.239043 L43.6843488,25.0011708 C43.6843488,25.6586834 43.1485456,26.1917027 42.4875989,26.1917027 L30.5200995,26.1917027 C29.8591527,26.1917027 29.3233495,25.6586834 29.3233495,25.0011708 L29.3233495,20.239043 C29.3233495,19.5815304 29.8591527,19.0485111 30.5200995,19.0485111 Z" id="Rectangle-Copy-9" fill-opacity="0.786276224" fill="#9EA0A5"></path>
                                    <path d="M49.6680986,30.9538305 L61.635598,30.9538305 C62.2965447,30.9538305 62.8323479,31.4868498 62.8323479,32.1443624 L62.8323479,36.9064902 C62.8323479,37.5640028 62.2965447,38.0970221 61.635598,38.0970221 L49.6680986,38.0970221 C49.0071518,38.0970221 48.4713486,37.5640028 48.4713486,36.9064902 L48.4713486,32.1443624 C48.4713486,31.4868498 49.0071518,30.9538305 49.6680986,30.9538305 Z" id="Rectangle" fill-opacity="0.786276224" fill="#9EA0A5"></path>
                                    <path d="M11.3721004,30.9538305 L23.3395998,30.9538305 C24.0005465,30.9538305 24.5363497,31.4868498 24.5363497,32.1443624 L24.5363497,36.9064902 C24.5363497,37.5640028 24.0005465,38.0970221 23.3395998,38.0970221 L11.3721004,38.0970221 C10.7111536,38.0970221 10.1753504,37.5640028 10.1753504,36.9064902 L10.1753504,32.1443624 C10.1753504,31.4868498 10.7111536,30.9538305 11.3721004,30.9538305 Z" id="Rectangle-Copy-8" fill-opacity="0.786276224" fill="#9EA0A5"></path>
                                    <path d="M68.8160976,30.9538305 L80.7835971,30.9538305 C81.4445438,30.9538305 81.980347,31.4868498 81.980347,32.1443624 L81.980347,36.9064902 C81.980347,37.5640028 81.4445438,38.0970221 80.7835971,38.0970221 L68.8160976,38.0970221 C68.1551509,38.0970221 67.6193477,37.5640028 67.6193477,36.9064902 L67.6193477,32.1443624 C67.6193477,31.4868498 68.1551509,30.9538305 68.8160976,30.9538305 Z" id="Rectangle-Copy-7" fill-opacity="0.786276224" fill="#9EA0A5"></path>
                                    <path d="M30.5200995,30.9538305 L42.4875989,30.9538305 C43.1485456,30.9538305 43.6843488,31.4868498 43.6843488,32.1443624 L43.6843488,36.9064902 C43.6843488,37.5640028 43.1485456,38.0970221 42.4875989,38.0970221 L30.5200995,38.0970221 C29.8591527,38.0970221 29.3233495,37.5640028 29.3233495,36.9064902 L29.3233495,32.1443624 C29.3233495,31.4868498 29.8591527,30.9538305 30.5200995,30.9538305 Z" id="Rectangle-Copy-9" fill-opacity="0.786276224" fill="#9EA0A5"></path>
                                    <path d="M49.6680986,42.8591499 L61.635598,42.8591499 C62.2965447,42.8591499 62.8323479,43.3921692 62.8323479,44.0496818 L62.8323479,48.8118096 C62.8323479,49.4693222 62.2965447,50.0023415 61.635598,50.0023415 L49.6680986,50.0023415 C49.0071518,50.0023415 48.4713486,49.4693222 48.4713486,48.8118096 L48.4713486,44.0496818 C48.4713486,43.3921692 49.0071518,42.8591499 49.6680986,42.8591499 Z" id="Rectangle" fill-opacity="0.786276224" fill="#9EA0A5"></path>
                                    <path d="M11.3721004,42.8591499 L23.3395998,42.8591499 C24.0005465,42.8591499 24.5363497,43.3921692 24.5363497,44.0496818 L24.5363497,48.8118096 C24.5363497,49.4693222 24.0005465,50.0023415 23.3395998,50.0023415 L11.3721004,50.0023415 C10.7111536,50.0023415 10.1753504,49.4693222 10.1753504,48.8118096 L10.1753504,44.0496818 C10.1753504,43.3921692 10.7111536,42.8591499 11.3721004,42.8591499 Z" id="Rectangle-Copy-8" fill-opacity="0.786276224" fill="#9EA0A5"></path>
                                    <path d="M68.8160976,42.8591499 L80.7835971,42.8591499 C81.4445438,42.8591499 81.980347,43.3921692 81.980347,44.0496818 L81.980347,48.8118096 C81.980347,49.4693222 81.4445438,50.0023415 80.7835971,50.0023415 L68.8160976,50.0023415 C68.1551509,50.0023415 67.6193477,49.4693222 67.6193477,48.8118096 L67.6193477,44.0496818 C67.6193477,43.3921692 68.1551509,42.8591499 68.8160976,42.8591499 Z" id="Rectangle-Copy-7" fill-opacity="0.786276224" fill="#9EA0A5"></path>
                                    <path d="M30.5200995,42.8591499 L42.4875989,42.8591499 C43.1485456,42.8591499 43.6843488,43.3921692 43.6843488,44.0496818 L43.6843488,48.8118096 C43.6843488,49.4693222 43.1485456,50.0023415 42.4875989,50.0023415 L30.5200995,50.0023415 C29.8591527,50.0023415 29.3233495,49.4693222 29.3233495,48.8118096 L29.3233495,44.0496818 C29.3233495,43.3921692 29.8591527,42.8591499 30.5200995,42.8591499 Z" id="Rectangle-Copy-9" fill-opacity="0.786276224" fill="#9EA0A5"></path>
                                    <path d="M49.6680986,54.7644693 L61.635598,54.7644693 C62.2965447,54.7644693 62.8323479,55.2974886 62.8323479,55.9550012 L62.8323479,60.717129 C62.8323479,61.3746416 62.2965447,61.9076609 61.635598,61.9076609 L49.6680986,61.9076609 C49.0071518,61.9076609 48.4713486,61.3746416 48.4713486,60.717129 L48.4713486,55.9550012 C48.4713486,55.2974886 49.0071518,54.7644693 49.6680986,54.7644693 Z" id="Rectangle" fill-opacity="0.786276224" fill="#9EA0A5"></path>
                                    <path d="M11.3721004,54.7644693 L23.3395998,54.7644693 C24.0005465,54.7644693 24.5363497,55.2974886 24.5363497,55.9550012 L24.5363497,60.717129 C24.5363497,61.3746416 24.0005465,61.9076609 23.3395998,61.9076609 L11.3721004,61.9076609 C10.7111536,61.9076609 10.1753504,61.3746416 10.1753504,60.717129 L10.1753504,55.9550012 C10.1753504,55.2974886 10.7111536,54.7644693 11.3721004,54.7644693 Z" id="Rectangle-Copy-8" fill-opacity="0.786276224" fill="#9EA0A5"></path>
                                    <path d="M68.8160976,54.7644693 L80.7835971,54.7644693 C81.4445438,54.7644693 81.980347,55.2974886 81.980347,55.9550012 L81.980347,60.717129 C81.980347,61.3746416 81.4445438,61.9076609 80.7835971,61.9076609 L68.8160976,61.9076609 C68.1551509,61.9076609 67.6193477,61.3746416 67.6193477,60.717129 L67.6193477,55.9550012 C67.6193477,55.2974886 68.1551509,54.7644693 68.8160976,54.7644693 Z" id="Rectangle-Copy-7" fill-opacity="0.786276224" fill="#9EA0A5"></path>
                                    <path d="M30.5200995,54.7644693 L42.4875989,54.7644693 C43.1485456,54.7644693 43.6843488,55.2974886 43.6843488,55.9550012 L43.6843488,60.717129 C43.6843488,61.3746416 43.1485456,61.9076609 42.4875989,61.9076609 L30.5200995,61.9076609 C29.8591527,61.9076609 29.3233495,61.3746416 29.3233495,60.717129 L29.3233495,55.9550012 C29.3233495,55.2974886 29.8591527,54.7644693 30.5200995,54.7644693 Z" id="Rectangle-Copy-9" fill-opacity="0.786276224" fill="#9EA0A5"></path>
                                    <path d="M49.6680986,66.6697887 L61.635598,66.6697887 C62.2965447,66.6697887 62.8323479,67.202808 62.8323479,67.8603206 L62.8323479,72.6224484 C62.8323479,73.279961 62.2965447,73.8129803 61.635598,73.8129803 L49.6680986,73.8129803 C49.0071518,73.8129803 48.4713486,73.279961 48.4713486,72.6224484 L48.4713486,67.8603206 C48.4713486,67.202808 49.0071518,66.6697887 49.6680986,66.6697887 Z" id="Rectangle" fill-opacity="0.786276224" fill="#9EA0A5"></path>
                                    <path d="M11.3721004,66.6697887 L23.3395998,66.6697887 C24.0005465,66.6697887 24.5363497,67.202808 24.5363497,67.8603206 L24.5363497,72.6224484 C24.5363497,73.279961 24.0005465,73.8129803 23.3395998,73.8129803 L11.3721004,73.8129803 C10.7111536,73.8129803 10.1753504,73.279961 10.1753504,72.6224484 L10.1753504,67.8603206 C10.1753504,67.202808 10.7111536,66.6697887 11.3721004,66.6697887 Z" id="Rectangle-Copy-8" fill-opacity="0.786276224" fill="#9EA0A5"></path>
                                    <path d="M68.8160976,66.6697887 L80.7835971,66.6697887 C81.4445438,66.6697887 81.980347,67.202808 81.980347,67.8603206 L81.980347,72.6224484 C81.980347,73.279961 81.4445438,73.8129803 80.7835971,73.8129803 L68.8160976,73.8129803 C68.1551509,73.8129803 67.6193477,73.279961 67.6193477,72.6224484 L67.6193477,67.8603206 C67.6193477,67.202808 68.1551509,66.6697887 68.8160976,66.6697887 Z" id="Rectangle-Copy-7" fill-opacity="0.786276224" fill="#9EA0A5"></path>
                                    <path d="M30.5200995,66.6697887 L42.4875989,66.6697887 C43.1485456,66.6697887 43.6843488,67.202808 43.6843488,67.8603206 L43.6843488,72.6224484 C43.6843488,73.279961 43.1485456,73.8129803 42.4875989,73.8129803 L30.5200995,73.8129803 C29.8591527,73.8129803 29.3233495,73.279961 29.3233495,72.6224484 L29.3233495,67.8603206 C29.3233495,67.202808 29.8591527,66.6697887 30.5200995,66.6697887 Z" id="Rectangle-Copy-9" fill-opacity="0.786276224" fill="#9EA0A5"></path>
                                    <path d="M49.6680986,78.5751081 L61.635598,78.5751081 C62.2965447,78.5751081 62.8323479,79.1081274 62.8323479,79.76564 L62.8323479,84.5277678 C62.8323479,85.1852804 62.2965447,85.7182997 61.635598,85.7182997 L49.6680986,85.7182997 C49.0071518,85.7182997 48.4713486,85.1852804 48.4713486,84.5277678 L48.4713486,79.76564 C48.4713486,79.1081274 49.0071518,78.5751081 49.6680986,78.5751081 Z" id="Rectangle" fill-opacity="0.786276224" fill="#9EA0A5"></path>
                                    <path d="M11.3721004,78.5751081 L23.3395998,78.5751081 C24.0005465,78.5751081 24.5363497,79.1081274 24.5363497,79.76564 L24.5363497,84.5277678 C24.5363497,85.1852804 24.0005465,85.7182997 23.3395998,85.7182997 L11.3721004,85.7182997 C10.7111536,85.7182997 10.1753504,85.1852804 10.1753504,84.5277678 L10.1753504,79.76564 C10.1753504,79.1081274 10.7111536,78.5751081 11.3721004,78.5751081 Z" id="Rectangle-Copy-8" fill-opacity="0.786276224" fill="#9EA0A5"></path>
                                    <path d="M68.8160976,78.5751081 L80.7835971,78.5751081 C81.4445438,78.5751081 81.980347,79.1081274 81.980347,79.76564 L81.980347,84.5277678 C81.980347,85.1852804 81.4445438,85.7182997 80.7835971,85.7182997 L68.8160976,85.7182997 C68.1551509,85.7182997 67.6193477,85.1852804 67.6193477,84.5277678 L67.6193477,79.76564 C67.6193477,79.1081274 68.1551509,78.5751081 68.8160976,78.5751081 Z" id="Rectangle-Copy-7" fill-opacity="0.786276224" fill="#9EA0A5"></path>
                                    <path d="M30.5200995,78.5751081 L42.4875989,78.5751081 C43.1485456,78.5751081 43.6843488,79.1081274 43.6843488,79.76564 L43.6843488,84.5277678 C43.6843488,85.1852804 43.1485456,85.7182997 42.4875989,85.7182997 L30.5200995,85.7182997 C29.8591527,85.7182997 29.3233495,85.1852804 29.3233495,84.5277678 L29.3233495,79.76564 C29.3233495,79.1081274 29.8591527,78.5751081 30.5200995,78.5751081 Z" id="Rectangle-Copy-9" fill-opacity="0.786276224" fill="#9EA0A5"></path>
                                    <path d="M49.6680986,90.4804275 L61.635598,90.4804275 C62.2965447,90.4804275 62.8323479,91.0134468 62.8323479,91.6709595 L62.8323479,96.4330872 C62.8323479,97.0905998 62.2965447,97.6236192 61.635598,97.6236192 L49.6680986,97.6236192 C49.0071518,97.6236192 48.4713486,97.0905998 48.4713486,96.4330872 L48.4713486,91.6709595 C48.4713486,91.0134468 49.0071518,90.4804275 49.6680986,90.4804275 Z" id="Rectangle" fill-opacity="0.786276224" fill="#9EA0A5"></path>
                                    <path d="M11.3721004,90.4804275 L23.3395998,90.4804275 C24.0005465,90.4804275 24.5363497,91.0134468 24.5363497,91.6709595 L24.5363497,96.4330872 C24.5363497,97.0905998 24.0005465,97.6236192 23.3395998,97.6236192 L11.3721004,97.6236192 C10.7111536,97.6236192 10.1753504,97.0905998 10.1753504,96.4330872 L10.1753504,91.6709595 C10.1753504,91.0134468 10.7111536,90.4804275 11.3721004,90.4804275 Z" id="Rectangle-Copy-8" fill-opacity="0.786276224" fill="#9EA0A5"></path>
                                    <path d="M68.8160976,90.4804275 L80.7835971,90.4804275 C81.4445438,90.4804275 81.980347,91.0134468 81.980347,91.6709595 L81.980347,96.4330872 C81.980347,97.0905998 81.4445438,97.6236192 80.7835971,97.6236192 L68.8160976,97.6236192 C68.1551509,97.6236192 67.6193477,97.0905998 67.6193477,96.4330872 L67.6193477,91.6709595 C67.6193477,91.0134468 68.1551509,90.4804275 68.8160976,90.4804275 Z" id="Rectangle-Copy-7" fill-opacity="0.786276224" fill="#9EA0A5"></path>
                                    <path d="M30.5200995,90.4804275 L42.4875989,90.4804275 C43.1485456,90.4804275 43.6843488,91.0134468 43.6843488,91.6709595 L43.6843488,96.4330872 C43.6843488,97.0905998 43.1485456,97.6236192 42.4875989,97.6236192 L30.5200995,97.6236192 C29.8591527,97.6236192 29.3233495,97.0905998 29.3233495,96.4330872 L29.3233495,91.6709595 C29.3233495,91.0134468 29.8591527,90.4804275 30.5200995,90.4804275 Z" id="Rectangle-Copy-9" fill-opacity="0.786276224" fill="#9EA0A5"></path>
                                    <path d="M49.6680986,102.385747 L61.635598,102.385747 C62.2965447,102.385747 62.8323479,102.918766 62.8323479,103.576279 L62.8323479,108.338407 C62.8323479,108.995919 62.2965447,109.528939 61.635598,109.528939 L49.6680986,109.528939 C49.0071518,109.528939 48.4713486,108.995919 48.4713486,108.338407 L48.4713486,103.576279 C48.4713486,102.918766 49.0071518,102.385747 49.6680986,102.385747 Z" id="Rectangle" fill-opacity="0.786276224" fill="#9EA0A5"></path>
                                    <path d="M11.3721004,102.385747 L23.3395998,102.385747 C24.0005465,102.385747 24.5363497,102.918766 24.5363497,103.576279 L24.5363497,108.338407 C24.5363497,108.995919 24.0005465,109.528939 23.3395998,109.528939 L11.3721004,109.528939 C10.7111536,109.528939 10.1753504,108.995919 10.1753504,108.338407 L10.1753504,103.576279 C10.1753504,102.918766 10.7111536,102.385747 11.3721004,102.385747 Z" id="Rectangle-Copy-8" fill-opacity="0.786276224" fill="#9EA0A5"></path>
                                    <path d="M68.8160976,102.385747 L80.7835971,102.385747 C81.4445438,102.385747 81.980347,102.918766 81.980347,103.576279 L81.980347,108.338407 C81.980347,108.995919 81.4445438,109.528939 80.7835971,109.528939 L68.8160976,109.528939 C68.1551509,109.528939 67.6193477,108.995919 67.6193477,108.338407 L67.6193477,103.576279 C67.6193477,102.918766 68.1551509,102.385747 68.8160976,102.385747 Z" id="Rectangle-Copy-7" fill-opacity="0.786276224" fill="#9EA0A5"></path>
                                    <path d="M30.5200995,102.385747 L42.4875989,102.385747 C43.1485456,102.385747 43.6843488,102.918766 43.6843488,103.576279 L43.6843488,108.338407 C43.6843488,108.995919 43.1485456,109.528939 42.4875989,109.528939 L30.5200995,109.528939 C29.8591527,109.528939 29.3233495,108.995919 29.3233495,108.338407 L29.3233495,103.576279 C29.3233495,102.918766 29.8591527,102.385747 30.5200995,102.385747 Z" id="Rectangle-Copy-9" fill-opacity="0.786276224" fill="#9EA0A5"></path>
                                    <polygon id="Rectangle" fill="url(#linearGradient-28)" points="1.47171448 -2.81923339e-13 88.2904831 -2.81923339e-13 88.2904831 115.979457 1.47171448 115.979457"></polygon>
                                </g>
                            </g>
                            <polygon id="X" fill="#9EA0A5" fill-rule="nonzero" mask="url(#mask-26)" points="21.158634 112.961454 29.2956618 102.186585 37.4326896 112.961454 45.9047715 112.961454 34.0821488 98.6014565 45.0671363 84.4752716 37.0737031 84.4752716 29.6785808 94.7240623 22.1398639 84.4752716 13.9549712 84.4752716 24.8202965 98.2702218 13.2130657 112.961454"></polygon>
                        </g>
                        <g id="Trend" transform="translate(211.187739, 181.302682)">
                            <g id="base">
                                <g id="Path">
                                    <use fill="black" fill-opacity="1" filter="url(#filter-30)" xlink:href="#path-29"></use>
                                    <use fill="#D5D6DA" fill-rule="evenodd" xlink:href="#path-29"></use>
                                </g>
                                <g id="Path">
                                    <use fill="black" fill-opacity="1" filter="url(#filter-32)" xlink:href="#path-31"></use>
                                    <use fill="#D5D6DA" fill-rule="evenodd" xlink:href="#path-31"></use>
                                </g>
                                <path d="M10.2161581,-1.44576071e-14 L136.896518,-1.44576071e-14 C142.538746,-1.44576071e-14 147.112676,4.55489225 147.112676,10.1736366 L147.112676,24.1623869 L0,24.1623869 L0,10.1736366 C0,4.55489225 4.57392976,-1.44576071e-14 10.2161581,-1.44576071e-14 Z" id="Path-Copy" fill="#9EA0A5"></path>
                            </g>
                            <g id="lines" transform="translate(16.345853, 42.729274)" fill="#9EA0A5" fill-opacity="0.387155813" fill-rule="nonzero">
                                <path d="M112.888546,54.4289557 C113.170658,54.4289557 113.399354,54.7705727 113.399354,55.1919785 C113.399354,55.5531835 113.231332,55.855768 113.00567,55.9348492 L112.888546,55.9550012 L1.11022302e-16,55.9550012 C-0.282111415,55.9550012 -0.510807903,55.6133843 -0.510807903,55.1919785 C-0.510807903,54.8307735 -0.342785993,54.5281889 -0.117123565,54.4491077 L1.11022302e-16,54.4289557 L112.888546,54.4289557 Z" id="Line"></path>
                                <path d="M112.888546,40.9488873 C113.170658,40.9488873 113.399354,41.2905042 113.399354,41.71191 C113.399354,42.073115 113.231332,42.3756996 113.00567,42.4547808 L112.888546,42.4749327 L1.11022302e-16,42.4749327 C-0.282111415,42.4749327 -0.510807903,42.1333158 -0.510807903,41.71191 C-0.510807903,41.350705 -0.342785993,41.0481204 -0.117123565,40.9690392 L1.11022302e-16,40.9488873 L112.888546,40.9488873 Z" id="Line-Copy"></path>
                                <path d="M112.888546,27.4688188 C113.170658,27.4688188 113.399354,27.8104357 113.399354,28.2318415 C113.399354,28.5930465 113.231332,28.8956311 113.00567,28.9747123 L112.888546,28.9948643 L1.11022302e-16,28.9948643 C-0.282111415,28.9948643 -0.510807903,28.6532474 -0.510807903,28.2318415 C-0.510807903,27.8706365 -0.342785993,27.568052 -0.117123565,27.4889708 L1.11022302e-16,27.4688188 L112.888546,27.4688188 Z" id="Line-Copy-2"></path>
                                <path d="M112.888546,13.9887503 C113.170658,13.9887503 113.399354,14.3303672 113.399354,14.751773 C113.399354,15.112978 113.231332,15.4155626 113.00567,15.4946438 L112.888546,15.5147958 L1.11022302e-16,15.5147958 C-0.282111415,15.5147958 -0.510807903,15.1731789 -0.510807903,14.751773 C-0.510807903,14.3905681 -0.342785993,14.0879835 -0.117123565,14.0089023 L1.11022302e-16,13.9887503 L112.888546,13.9887503 Z" id="Line-Copy-3"></path>
                                <path d="M112.888546,0.508681829 C113.170658,0.508681829 113.399354,0.850298748 113.399354,1.27170457 C113.399354,1.63290957 113.231332,1.93549414 113.00567,2.01457534 L112.888546,2.03472732 L1.11022302e-16,2.03472732 C-0.282111415,2.03472732 -0.510807903,1.6931104 -0.510807903,1.27170457 C-0.510807903,0.91049958 -0.342785993,0.607915008 -0.117123565,0.528833804 L1.11022302e-16,0.508681829 L112.888546,0.508681829 Z" id="Line-Copy-4"></path>
                            </g>
                            <g id="Group" transform="translate(46.994327, 105.805820)">
                                <path d="M8.17292644,0 L20.4323161,0 C21.5607618,0 22.4755477,0.91097845 22.4755477,2.03472732 C22.4755477,3.15847618 21.5607618,4.06945463 20.4323161,4.06945463 L8.17292644,4.06945463 C7.04448078,4.06945463 6.12969483,3.15847618 6.12969483,2.03472732 C6.12969483,0.91097845 7.04448078,0 8.17292644,0 Z" id="Rectangle-Copy-2" fill-opacity="0.35" fill="#67696F"></path>
                                <path d="M38.8214006,0 L51.0807903,0 C52.2092359,0 53.1240219,0.91097845 53.1240219,2.03472732 C53.1240219,3.15847618 52.2092359,4.06945463 51.0807903,4.06945463 L38.8214006,4.06945463 C37.6929549,4.06945463 36.778169,3.15847618 36.778169,2.03472732 C36.778169,0.91097845 37.6929549,0 38.8214006,0 Z" id="Rectangle-Copy-5" fill-opacity="0.35" fill="#67696F"></path>
                                <path d="M2.04323161,0 C3.17167727,0 4.08646322,0.91097845 4.08646322,2.03472732 C4.08646322,3.15847618 3.17167727,4.06945463 2.04323161,4.06945463 C0.914785952,4.06945463 0,3.15847618 0,2.03472732 C0,0.91097845 0.914785952,0 2.04323161,0 Z" id="Rectangle-Copy-4" fill="#DFE0E1" opacity="0.647623698"></path>
                                <path d="M32.6917058,0 C33.8201514,0 34.7349374,0.91097845 34.7349374,2.03472732 C34.7349374,3.15847618 33.8201514,4.06945463 32.6917058,4.06945463 C31.5632601,4.06945463 30.6484742,3.15847618 30.6484742,2.03472732 C30.6484742,0.91097845 31.5632601,0 32.6917058,0 Z" id="Rectangle-Copy-6" fill="#ACAEB2" opacity="0.647623698"></path>
                            </g>
                            <path d="M117.996625,72.029347 C110.578104,72.029347 105.353487,66.3769453 100.548049,55.723997 L99.9053603,54.2572734 C99.7465704,53.7880906 94.4361818,40.2804009 93.2081313,38.5383824 C92.6685245,37.7729375 92.2237594,37.4389826 91.9015249,37.4389826 C90.3654376,37.4389826 88.5736957,40.6094987 86.0453962,47.3609158 L83.8066886,53.5064332 L83.3435759,54.7295829 C82.9004924,55.8768143 82.5131149,56.8055526 82.142011,57.5991507 C81.5426729,58.880823 80.9957912,59.7849257 80.4401352,60.3461104 C79.6543104,61.139754 78.7153745,61.3220319 77.8931592,60.6557432 C77.1835191,60.0806809 76.5405134,59.4113027 75.7384844,58.4519029 L75.18871,57.7801971 C74.9107836,57.4354481 74.4416303,56.8526711 74.2815695,56.6582328 C73.8823792,56.1733053 73.5634849,55.8111071 73.2627916,55.5080283 C71.912614,54.1471395 71.0936227,54.070166 69.8241066,55.4808276 C69.270782,56.0956711 68.5238105,57.4642332 67.4788353,59.7415224 L66.7131756,61.4553345 C65.8492715,63.4373291 63.7886713,68.228414 63.1139095,69.7422696 L62.3933712,71.3377645 C59.676157,77.2706762 57.459874,81.1099988 55.232682,83.2925385 C53.5787525,84.913309 51.9169896,85.5493256 50.2870604,84.9504124 C47.6615961,83.9856923 45.844752,82.1953003 42.5656107,77.8337339 L41.4442588,76.3229431 C37.2966933,70.7020338 35.1398623,68.7229151 32.1808979,68.7229151 C27.730456,68.7229151 22.5861162,76.3879414 17.1162935,91.7747256 C16.9656618,92.1984572 16.4986128,92.4203567 16.0731102,92.270352 C15.6476076,92.1203473 15.4247807,91.6552422 15.5754123,91.2315106 L16.197517,89.5099693 C21.682539,74.583667 26.9004433,67.0951333 32.1808979,67.0951333 C35.6525111,67.0951333 37.9679303,69.0142527 41.9196148,74.2320155 L43.8666102,76.8478493 C46.9447376,80.9402951 48.6285846,82.6059526 50.8529043,83.4232731 C51.7768073,83.7627589 52.8360999,83.3573294 54.0861863,82.1323055 C56.2186799,80.0425656 58.465768,76.0718664 61.2668369,69.8689022 L62.1677845,67.8348241 C63.2340412,65.389884 65.0889935,61.0765727 65.5184327,60.113168 L66.0125873,59.0197259 C67.1193787,56.6086776 67.9127208,55.1657286 68.6068304,54.3944476 C70.5709917,52.2119098 72.4672599,52.3901321 74.4255737,54.3639814 C74.6994662,54.6400468 74.9777854,54.9491561 75.2975303,55.3282465 L76.6539146,56.9970739 L77.2931085,57.7618928 C77.8948249,58.4591528 78.3977682,58.9660299 78.9248669,59.3931685 C79.0066509,59.4594427 79.0262819,59.4556317 79.2762056,59.2032213 C79.6683742,58.8071507 80.133808,58.0376973 80.6602151,56.9119864 C81.0144735,56.1544124 81.3895288,55.2547871 81.8215821,54.1357736 L84.515977,46.7826512 C87.4072544,39.0217118 89.2695944,35.8112008 91.9015249,35.8112008 C92.8840747,35.8112008 93.7310925,36.4471898 94.5459623,37.6031018 C95.9324067,39.5698058 101.598443,54.0133393 101.417079,53.6428509 L101.722217,54.3456779 L102.373219,55.7872348 C106.726541,65.1772913 111.366596,70.1554164 117.531388,70.3926658 L117.996625,70.4015652 L131.600755,70.4015652 L131.600755,72.029347 L117.996625,72.029347 Z" id="Path-11" fill="#7B7D82" fill-rule="nonzero"></path>
                            <path d="M95.3364988,69.4742452 L95.4819985,68.6718457 C98.0479798,54.2298355 106.213711,51.8643539 108.76379,63.4487872 L108.862772,63.9196089 C110.497536,72.0696365 115.071749,78.0940508 120.114841,81.493015 C121.957376,82.7348541 125.523047,83.3878804 130.766823,83.3878804 C131.218201,83.3878804 131.584116,83.7522718 131.584116,84.2017713 C131.584116,84.6512709 131.218201,85.0156622 130.766823,85.0156622 C125.222442,85.0156622 121.381399,84.3122036 119.198661,82.841073 C113.997542,79.3356015 109.299367,73.2558139 107.436592,65.0646003 L107.259852,64.238458 C105.289436,54.4150593 99.6004967,55.7801319 97.2000141,68.3665721 L97.0915831,68.9554527 C94.1851415,85.3136624 89.323593,92.3319376 79.2191225,92.3319376 C72.9294437,92.3319376 69.0158555,89.8744147 65.8625594,85.2317285 L65.5722366,84.7876935 C64.8485342,83.6535363 63.5821302,81.5288549 63.1897261,80.9097496 L61.8147939,78.848328 C61.6706787,78.6370544 61.5347489,78.4406974 61.3991066,78.2480393 C58.4476774,74.0560078 55.716043,72.0442756 51.719799,72.0442756 C48.9157471,72.0442756 46.469115,74.4950158 42.1092577,80.8708592 L39.3344356,84.9356594 C38.6103771,85.9695843 38.1573402,86.5642604 37.5174624,87.3563979 C36.7822824,88.2665149 36.0904795,89.0205588 35.413418,89.635565 C31.7222685,92.988406 25.407893,95.2866434 16.4632244,96.5792406 C16.016525,96.6437933 15.6018545,96.3355093 15.537032,95.8906692 C15.4722095,95.445829 15.7817819,95.0328845 16.2284814,94.9683318 C24.8794157,93.7181822 30.9095646,91.5233945 34.3118607,88.4329324 C34.7986817,87.9907304 35.3037812,87.4578712 35.8377571,86.8273883 L36.6478314,85.8297821 C37.3786813,84.9000661 37.9853795,84.0397147 39.4674399,81.8571238 L40.3393342,80.5704558 C45.3267396,73.2004933 48.0095465,70.4164937 51.719799,70.4164937 C56.3682189,70.4164937 59.5112725,72.7312187 62.7375023,77.3135602 L63.3942415,78.269081 L64.4808915,79.9000857 C64.7956824,80.3701591 66.3908048,83.0573974 67.089402,84.1282728 L67.2165228,84.3197605 C70.0871735,88.5463 73.5235438,90.7041558 79.2191225,90.7041558 C88.1359651,90.7041558 92.5439593,84.5625866 95.3364988,69.4742452 Z" id="Path-12" fill-opacity="0.851207386" fill="#9EA0A5" fill-rule="nonzero"></path>
                        </g>
                        <g id="Pages" transform="translate(41.839080, 33.869732)">
                            <g id="Rectangle-Copy-11" transform="translate(62.245940, 60.946548) rotate(-57.000000) translate(-62.245940, -60.946548) ">
                                <use fill="black" fill-opacity="1" filter="url(#filter-34)" xlink:href="#path-33"></use>
                                <use fill="#CCCED3" fill-rule="evenodd" xlink:href="#path-33"></use>
                            </g>
                            <g id="Rectangle-Copy-11" transform="translate(62.245940, 60.946548) rotate(-30.000000) translate(-62.245940, -60.946548) ">
                                <use fill="black" fill-opacity="1" filter="url(#filter-36)" xlink:href="#path-35"></use>
                                <use fill="#CCCED3" fill-rule="evenodd" xlink:href="#path-35"></use>
                            </g>
                        </g>
                        <g id="doc" transform="translate(360.613027, 131.494253)">
                            <g id="Rectangle-Copy-11" transform="translate(68.109699, 69.408376) rotate(32.000000) translate(-68.109699, -69.408376) ">
                                <use fill="black" fill-opacity="1" filter="url(#filter-38)" xlink:href="#path-37"></use>
                                <use fill="#D5D6DA" fill-rule="evenodd" xlink:href="#path-37"></use>
                            </g>
                            <g id="Rectangle-Copy-12" transform="translate(86.741361, 44.552978) scale(-1, -1) rotate(27.000000) translate(-86.741361, -44.552978) ">
                                <use fill="black" fill-opacity="1" filter="url(#filter-40)" xlink:href="#path-39"></use>
                                <use fill="#B0B2B6" fill-rule="evenodd" xlink:href="#path-39"></use>
                            </g>
                        </g>
                    </g>
                </g>
            </g>
        </g>
    </g>
</svg>
